<svg width="150" height="100" viewBox="0 0 150 100" fill="none" xmlns="http://www.w3.org/2000/svg">
<g clip-path="url(#clip0)">
<rect width="150" height="100" fill="white"/>
<rect x="-13.8889" width="177.778" height="100" fill="#D62B2B"/>
<path d="M150.329 105.037H144.333V92.2054H128.996C126.805 92.2054 125.029 90.1015 125.029 87.5069V64.871C124.923 64.6642 124.817 64.4558 124.713 64.2474L119.006 63.8912L113 63.5171L116.668 48.7487L120.053 35.1225C122.394 17.1704 135.533 2.98129 150.407 0.00102887C152.305 -0.37971 150.329 105.037 150.329 105.037Z" fill="#2D2D2D"/>
<path d="M10.6959 65V60.2075H10.7128L12.0628 65H12.9488L14.3156 60.2075H14.3325V65H15.345V58.9081H13.6913L12.51 63.1606H12.4931L11.3203 58.9081H9.68344V65H10.6959ZM18.6273 60.0725H18.6441L19.3276 62.7219H17.9101L18.6273 60.0725ZM16.1382 65H17.2941L17.6569 63.6837H19.5807L19.9182 65H21.0741L19.3444 58.8997H17.8932L16.1382 65ZM22.9669 65V60.6631H22.9838L25.4728 65H26.595V58.9081H25.4981V63.0594H25.4813L23.085 58.9081H21.87V65H22.9669ZM29.8745 60.0725H29.8914L30.5748 62.7219H29.1573L29.8745 60.0725ZM27.3854 65H28.5414L28.9042 63.6837H30.8279L31.1654 65H32.3214L30.5917 58.8997H29.1404L27.3854 65ZM37.4373 60.3762C37.1504 59.4819 36.4417 58.8237 35.2267 58.8237C33.2776 58.8237 32.687 60.4944 32.687 62.0469C32.687 63.7681 33.4548 65.0844 35.1085 65.0844C35.7498 65.0844 36.2054 64.9156 36.6948 64.3756V65H37.5385V61.9203H35.2604V62.8991H36.4163C36.391 63.5994 35.9017 64.1056 35.1423 64.1056C34.3323 64.1056 33.8513 63.2956 33.8513 62.0131C33.8513 60.6631 34.2732 59.8025 35.1338 59.8025C35.7413 59.8025 36.0788 60.0556 36.3573 60.6631L37.4373 60.3762ZM40.0444 65V58.9081H38.88V65H40.0444ZM42.6517 65V60.6631H42.6685L45.1576 65H46.2798V58.9081H45.1829V63.0594H45.166L42.7698 58.9081H41.5548V65H42.6517ZM51.9639 60.3762C51.6771 59.4819 50.9683 58.8237 49.7533 58.8237C47.8043 58.8237 47.2136 60.4944 47.2136 62.0469C47.2136 63.7681 47.9814 65.0844 49.6352 65.0844C50.2764 65.0844 50.7321 64.9156 51.2214 64.3756V65H52.0652V61.9203H49.7871V62.8991H50.943C50.9177 63.5994 50.4283 64.1056 49.6689 64.1056C48.8589 64.1056 48.378 63.2956 48.378 62.0131C48.378 60.6631 48.7999 59.8025 49.6605 59.8025C50.268 59.8025 50.6055 60.0556 50.8839 60.6631L51.9639 60.3762ZM55.3278 58.8997V59.8784H56.9225V65H58.0869V59.8784H59.6816V58.8997H55.3278ZM61.7206 65V62.3844H64.0662V65H65.2306V58.9081H64.0662V61.3381H61.7206V58.9081H60.5562V65H61.7206ZM70.7713 65V64.0212H67.8098V62.3169H69.8938V61.3381H67.8098V59.8869H70.6785V58.9081H66.6454V65H70.7713ZM10.7381 75V72.5362H11.8013C13.1175 72.5362 13.9528 71.9878 13.9528 70.7222C13.9528 69.4566 13.1175 68.9081 11.8013 68.9081H9.57375V75H10.7381ZM10.7381 69.8531H11.6663C12.5438 69.8531 12.7884 70.1822 12.7884 70.7222C12.7884 71.2622 12.5438 71.5912 11.6663 71.5912H10.7381V69.8531ZM16.4437 70.0725H16.4606L17.144 72.7219H15.7265L16.4437 70.0725ZM13.9547 75H15.1106L15.4734 73.6837H17.3972L17.7347 75H18.8906L17.1609 68.8997H15.7097L13.9547 75ZM20.7834 75V70.6631H20.8002L23.2893 75H24.4115V68.9081H23.3146V73.0594H23.2977L20.9015 68.9081H19.6865V75H20.7834ZM25.7503 75H27.7669C29.3785 75 30.4922 74.1056 30.5007 71.9541C30.4922 69.8025 29.3785 68.9081 27.7669 68.9081H25.7503V75ZM26.9147 69.8869H27.691C29.0241 69.8869 29.3363 70.8656 29.3363 71.9541C29.3363 73.0425 29.0241 74.0212 27.691 74.0212H26.9147V69.8869ZM35.5547 75V74.0212H32.5931V72.3169H34.6772V71.3381H32.5931V69.8869H35.4618V68.9081H31.4287V75H35.5547ZM37.574 75V70.2075H37.5909L38.9409 75H39.8268L41.1937 70.2075H41.2106V75H42.2231V68.9081H40.5693L39.3881 73.1606H39.3712L38.1984 68.9081H36.5615V75H37.574ZM44.8894 75V68.9081H43.725V75H44.8894ZM50.5426 70.4269C50.2557 69.3469 49.5807 68.8237 48.4163 68.8237C46.8638 68.8237 45.9694 69.9628 45.9694 71.9541C45.9694 73.9453 46.8638 75.0844 48.4163 75.0844C49.5301 75.0844 50.3232 74.5444 50.686 73.4897L49.606 73.2028C49.2601 73.92 48.9394 74.1056 48.4163 74.1056C47.5388 74.1056 47.1169 73.38 47.1338 71.9541C47.1338 70.5281 47.6063 69.8025 48.3826 69.8025C48.9563 69.8025 49.3191 70.1653 49.4879 70.68L50.5426 70.4269ZM55.428 75V68.9081H54.2636V75H55.428ZM58.0353 75V70.6631H58.0521L60.5412 75H61.6634V68.9081H60.5665V73.0594H60.5496L58.1534 68.9081H56.9384V75H58.0353ZM66.8977 75V68.9081H65.7334V75H66.8977ZM69.505 75V70.6631H69.5219L72.0109 75H73.1331V68.9081H72.0362V73.0594H72.0194L69.6231 68.9081H68.4081V75H69.505ZM74.472 75H76.4885C78.1001 75 79.2138 74.1056 79.2223 71.9541C79.2138 69.8025 78.1001 68.9081 76.4885 68.9081H74.472V75ZM75.6363 69.8869H76.4126C77.7457 69.8869 78.0579 70.8656 78.0579 71.9541C78.0579 73.0425 77.7457 74.0212 76.4126 74.0212H75.6363V69.8869ZM81.4244 75V68.9081H80.26V75H81.4244ZM84.8501 70.0725H84.867L85.5504 72.7219H84.1329L84.8501 70.0725ZM82.361 75H83.517L83.8798 73.6837H85.8035L86.141 75H87.297L85.5673 68.8997H84.116L82.361 75Z" fill="white"/>
<path d="M9 65.8438H71.092V66.2656H9V65.8438ZM9 75.8438H87.4067V76.2656H9V75.8438Z" fill="white"/>
<path d="M11.3511 85.5156H11.8621L13.4301 80.4616H12.8631L11.6101 84.6056H11.5961L10.3501 80.4616H9.79006L11.3511 85.5156ZM14.2747 85.5156H14.7787V81.8756H14.2747V85.5156ZM14.2747 80.3916V80.9936H14.7787V80.3916H14.2747ZM16.125 81.8756V85.5156H16.629V82.7926C16.86 82.5476 17.294 82.2396 17.672 82.2396C18.036 82.2396 18.267 82.4006 18.267 82.8836V85.5156H18.771V82.8696C18.771 82.0856 18.26 81.8056 17.721 81.8056C17.308 81.8056 16.93 82.0436 16.643 82.3656H16.629V81.8756H16.125ZM22.1286 83.6956C22.1286 84.6336 21.7436 85.1516 21.1416 85.1516C20.5396 85.1516 20.1546 84.6336 20.1546 83.6956C20.1546 82.7576 20.5396 82.2396 21.1416 82.2396C21.7436 82.2396 22.1286 82.7576 22.1286 83.6956ZM22.6326 83.6956C22.6326 82.6456 22.1356 81.8056 21.1416 81.8056C20.1476 81.8056 19.6506 82.6456 19.6506 83.6956C19.6506 84.7456 20.1476 85.5856 21.1416 85.5856C22.1356 85.5856 22.6326 84.7456 22.6326 83.6956ZM25.6636 80.4616V82.2256L25.6356 82.2116C25.3556 81.9806 25.0196 81.8056 24.6766 81.8056C24.0606 81.8056 23.2136 82.2816 23.2136 83.6956C23.2136 85.1516 24.0606 85.5856 24.7046 85.5856C25.1386 85.5856 25.4956 85.3896 25.6636 85.1586L25.7336 85.5156H26.1956C26.1536 85.2496 26.1676 84.9836 26.1676 84.7176V80.4616H25.6636ZM25.6636 84.6616C25.3066 85.0116 25.0686 85.1516 24.7466 85.1516C24.1166 85.1516 23.7176 84.6476 23.7176 83.7236C23.7176 82.6246 24.1586 82.2396 24.7466 82.2396C25.0476 82.2396 25.3906 82.4426 25.6636 82.7436V84.6616ZM30.2861 83.8216L31.1051 82.8276L32.6101 85.5156H33.2471L31.4901 82.3656L33.0581 80.4616H32.3931L30.3001 83.0866H30.2861V80.4616H29.7261V85.5156H30.2861V83.8216ZM34.304 84.7456V85.5156H34.99V84.7456H34.304ZM39.1086 80.9376H40.1866C40.9426 80.9376 41.2996 81.2596 41.2996 81.8616C41.2996 82.4636 40.9916 82.7856 40.0606 82.7856H39.1086V80.9376ZM39.1086 85.5156V83.2616H40.0046C41.2786 83.2616 41.8596 82.7156 41.8596 81.8756C41.8596 81.0776 41.3906 80.4616 40.3126 80.4616H38.5486V85.5156H39.1086ZM42.9679 82.8066C43.0659 82.5616 43.3389 82.2396 43.8989 82.2396C44.3329 82.2396 44.6479 82.4216 44.6479 82.9046V83.1006C43.0309 83.3876 42.4219 83.7866 42.4219 84.5846C42.4219 85.2496 42.8979 85.5856 43.4579 85.5856C44.0039 85.5856 44.4099 85.2916 44.6619 85.0116L44.7179 85.5156H45.2359C45.1869 85.3266 45.1519 85.1306 45.1519 84.7316V82.8976C45.1519 82.0996 44.5079 81.8056 43.8919 81.8056C43.2059 81.8056 42.7579 82.1556 42.5269 82.5756L42.9679 82.8066ZM44.6479 84.5496C44.3539 84.8856 43.8919 85.1516 43.5279 85.1516C43.2479 85.1516 42.9259 84.9276 42.9259 84.5916C42.9259 84.0876 43.4929 83.7516 44.6479 83.5486V84.5496ZM48.8969 85.5156V81.8756H48.3929V84.5986C48.1619 84.8436 47.7279 85.1516 47.3499 85.1516C46.9859 85.1516 46.7549 84.9906 46.7549 84.5076V81.8756H46.2509V84.5216C46.2509 85.3056 46.7619 85.5856 47.3009 85.5856C47.7139 85.5856 48.0919 85.3476 48.3789 85.0256H48.3929V85.5156H48.8969ZM50.2386 80.4616V85.5156H50.7426V80.4616H50.2386Z" fill="white"/>
</g>
<defs>
<clipPath id="clip0">
<rect width="150" height="100" fill="white"/>
</clipPath>
</defs>
</svg>
