<svg width="455" height="604" viewBox="0 0 455 604" fill="none" xmlns="http://www.w3.org/2000/svg">
<rect x="4.5" y="4.5" width="446" height="595" rx="37.5" fill="white" stroke="black" stroke-width="9"/>
<rect x="4.5" y="4.5" width="446" height="595" rx="37.5" fill="white" stroke="black" stroke-width="9"/>
<path d="M337 507.377L71 248V511L337 507.377Z" fill="white"/>
<path d="M208 460L123.117 375L118 460H208Z" fill="#3E6CDA" stroke="black"/>
<path d="M304 339.222V386.245C304 407.069 320.144 424 340 424C359.856 424 376 407.069 376 386.245V339.469C376 325.937 365.571 315 352.668 315C339.764 315 329.336 325.937 329.336 339.469V386.245C329.336 392.981 334.579 398.48 341.002 398.48C347.424 398.48 352.668 392.981 352.668 386.245V337.43" stroke="#2D2D2D" stroke-width="10.2554" stroke-miterlimit="10" stroke-linecap="round"/>
<path d="M251.5 489C249.696 489 248.138 487.841 247.646 486.186L231.246 436.526C231.082 436.113 231 435.616 231 435.202V104.138C231 101.821 232.804 100 235.1 100H267.9C270.196 100 272 101.821 272 104.138V435.037C272 435.45 271.918 435.947 271.836 436.361L255.436 486.186C254.862 487.841 253.304 489 251.5 489ZM239.2 434.54L251.5 471.785L263.8 434.374V108.277H239.2V434.54Z" fill="#2D2D2D"/>
<path d="M210.81 465H120.122C117.814 465 116 463.166 116 460.833V369.152C116 367.485 116.989 365.985 118.556 365.318C120.122 364.651 121.854 365.068 123.09 366.235L213.778 457.916C214.933 459.082 215.345 460.916 214.685 462.416C214.026 464 212.459 465 210.81 465ZM124.244 456.665H200.835L124.244 379.237V456.665Z" fill="#2D2D2D"/>
<path d="M342.768 514H69.1458C66.8241 514 65 512.182 65 509.869V245.138C65 243.485 65.995 241.998 67.4875 241.337C68.98 240.676 70.8041 241.006 71.9649 242.163L237.797 402.621C239.455 404.191 239.455 406.835 237.88 408.488C236.304 410.14 233.651 410.14 231.993 408.57L73.2916 254.887V505.737H332.569L264.744 440.133C263.086 438.563 263.086 435.919 264.661 434.267C266.237 432.614 268.89 432.614 270.548 434.184L345.753 506.894C346.997 508.051 347.329 509.869 346.665 511.439C346.002 513.008 344.426 514 342.768 514Z" fill="#2D2D2D"/>
<g style="mix-blend-mode:multiply">
<path d="M120 514C117.76 514 116 512.167 116 509.833V493.167C116 490.833 117.76 489 120 489C122.24 489 124 490.833 124 493.167V509.833C124 512.167 122.24 514 120 514Z" fill="#3E6CDA"/>
</g>
<g style="mix-blend-mode:multiply">
<path d="M185 514C182.76 514 181 512.167 181 509.833V493.167C181 490.833 182.76 489 185 489C187.24 489 189 490.833 189 493.167V509.833C189 512.167 187.24 514 185 514Z" fill="#3E6CDA"/>
</g>
<g style="mix-blend-mode:multiply">
<path d="M268 514C265.76 514 264 512.167 264 509.833V493.167C264 490.833 265.76 489 268 489C270.24 489 272 490.833 272 493.167V509.833C272 512.167 270.24 514 268 514Z" fill="#3E6CDA"/>
</g>
<g style="mix-blend-mode:multiply">
<path d="M85.8333 465H69.1667C66.8333 465 65 463.24 65 461C65 458.76 66.8333 457 69.1667 457H85.8333C88.1667 457 90 458.76 90 461C90 463.24 88.1667 465 85.8333 465Z" fill="#3E6CDA"/>
</g>
<g style="mix-blend-mode:multiply">
<path d="M85.8333 390H69.1667C66.8333 390 65 388.24 65 386C65 383.76 66.8333 382 69.1667 382H85.8333C88.1667 382 90 383.76 90 386C90 388.24 88.1667 390 85.8333 390Z" fill="#3E6CDA"/>
</g>
<g style="mix-blend-mode:multiply">
<path d="M85.8333 299H69.1667C66.8333 299 65 297.24 65 295C65 292.76 66.8333 291 69.1667 291H85.8333C88.1667 291 90 292.76 90 295C90 297.24 88.1667 299 85.8333 299Z" fill="#3E6CDA"/>
</g>
<g style="mix-blend-mode:multiply">
<path d="M152.5 514C149.98 514 148 512.185 148 509.875V485.125C148 482.815 149.98 481 152.5 481C155.02 481 157 482.815 157 485.125V509.875C157 512.185 155.02 514 152.5 514Z" fill="#D62B2B"/>
</g>
<g style="mix-blend-mode:multiply">
<path d="M219 514C216.76 514 215 512.185 215 509.875V485.125C215 482.815 216.76 481 219 481C221.24 481 223 482.815 223 485.125V509.875C223 512.185 221.24 514 219 514Z" fill="#D62B2B"/>
</g>
<g style="mix-blend-mode:multiply">
<path d="M93.875 431H69.125C66.815 431 65 429.24 65 427C65 424.76 66.815 423 69.125 423H93.875C96.185 423 98 424.76 98 427C98 429.24 96.185 431 93.875 431Z" fill="#D62B2B"/>
</g>
<g style="mix-blend-mode:multiply">
<path d="M93.875 349H69.125C66.815 349 65 347.02 65 344.5C65 341.98 66.815 340 69.125 340H93.875C96.185 340 98 341.98 98 344.5C98 347.02 96.185 349 93.875 349Z" fill="#D62B2B"/>
</g>
<path d="M267.9 440H235.1C232.804 440 231 438.02 231 435.5C231 432.98 232.804 431 235.1 431H267.9C270.196 431 272 432.98 272 435.5C272 438.02 270.196 440 267.9 440Z" fill="#2D2D2D"/>
<ellipse cx="188" cy="124.5" rx="23" ry="23.5" fill="#3E6CDA"/>
<circle cx="185" cy="116" r="9" fill="#2D2D2D"/>
<g style="mix-blend-mode:multiply">
<circle cx="216" cy="161" r="39" fill="#D62B2B"/>
</g>
<g style="mix-blend-mode:multiply">
<line x1="404" x2="404" y2="604" stroke="#D62B2B" stroke-width="8"/>
</g>
</svg>
