<svg width="466" height="379" viewBox="0 0 466 379" fill="none" xmlns="http://www.w3.org/2000/svg">
<rect x="167" y="120" width="100" height="24" fill="#3E6CDA"/>
<g style="mix-blend-mode:multiply">
<rect x="193" y="105" width="49" height="39" fill="#D62B2B"/>
</g>
<g style="mix-blend-mode:multiply">
<path d="M217 41.3631L211 41.363V41.3631H217ZM465.069 9.21033C466.842 6.41086 466.01 2.70412 463.21 0.931099C460.411 -0.841919 456.704 -0.00981045 454.931 2.78967L465.069 9.21033ZM223 144V41.3631H211V144H223ZM223 41.3631C223 36.6204 223.659 31.9568 225.374 28.2745C226.991 24.8043 229.512 22.2125 233.74 20.9949C238.252 19.6956 245.421 19.76 256.541 23.4753C267.603 27.1712 282.052 34.306 300.776 46.4028L307.288 36.3233C288.097 23.9252 272.709 16.2251 260.344 12.0937C248.036 7.98173 238.187 7.2266 230.419 9.46349C222.368 11.782 217.35 17.082 214.496 23.2071C211.742 29.1202 211 35.7554 211 41.363L223 41.3631ZM300.776 46.4028C340.364 71.9788 376.318 71.3484 405.06 59.6876C433.441 48.1733 454.368 26.1066 465.069 9.21033L454.931 2.78967C445.239 18.0935 426.096 38.2032 400.549 48.5679C375.363 58.786 343.529 59.7371 307.288 36.3233L300.776 46.4028Z" fill="#2D2D2D"/>
</g>
<path d="M5.10549 303.108L5.10456 303.156V303.204C5.10456 304.258 5.08134 305.406 5.05699 306.609C4.99934 309.458 4.93539 312.618 5.15869 315.58L5.15944 315.59C6.39358 331.551 10.4552 347.187 21.665 360.373C27.6109 367.367 35.2499 371.772 43.4816 372.913C51.743 374.059 60.236 371.863 67.7007 366.305L67.7034 366.303C74.0443 361.575 79.2168 355.281 83.6263 349.435L83.6272 349.434C87.6144 344.145 91.3415 338.689 94.9911 333.34L95.1292 333.137C98.7521 327.827 102.301 322.626 106.065 317.604C123.753 294.02 146.45 278.25 175.25 271.845C195.956 267.24 216.93 266.551 238.198 268.543L238.199 268.543C271.185 271.629 299.063 284.334 320.332 309.706C325.362 315.707 330.112 321.977 334.909 328.369C335.381 328.998 335.853 329.628 336.326 330.259C340.641 336.013 345.019 341.853 349.606 347.528L353.495 344.384L349.606 347.528C354.618 353.728 360.319 360.333 367.159 365.425L367.159 365.425C375.827 371.878 385.337 374.385 394.435 372.551C403.498 370.724 411.389 364.744 417.19 355.708C423.654 345.655 426.889 334.584 428.476 323.29C431.662 300.655 429.468 278.397 425.4 256.607L425.399 256.605C419.919 227.325 410.648 199.218 394.202 173.594L394.202 173.593C379.799 151.164 359.025 138.001 334.132 131.697L334.129 131.697C326.526 129.777 318.133 129.553 310.508 130.689L310.504 130.69C299.992 132.264 289.66 135.093 279.713 137.817C278.962 138.022 278.214 138.227 277.468 138.431C249.239 146.136 220.723 148.949 192.061 144.738L192.06 144.737C173.965 142.085 155.939 137.975 138.154 133.149C117.101 127.435 97.8176 130.142 78.6733 139.635L78.6701 139.636C55.8004 150.997 41.1227 169.318 30.6353 190.953L35.1346 193.134L30.6353 190.954C13.4492 226.409 5.85699 264.101 5.10549 303.108Z" fill="white" stroke="#2D2D2D" stroke-width="10"/>
<g style="mix-blend-mode:multiply">
<path d="M116.5 268C146.6 268 171 243.6 171 213.5C171 183.4 146.6 159 116.5 159C86.4005 159 62 183.4 62 213.5C62 243.6 86.4005 268 116.5 268Z" fill="#CB2E24"/>
</g>
<g style="mix-blend-mode:multiply">
<path d="M155.5 213C170.688 213 183 201.359 183 187C183 172.641 170.688 161 155.5 161C140.312 161 128 172.641 128 187C128 201.359 140.312 213 155.5 213Z" fill="#3E6CDA"/>
</g>
<path d="M324 172V255" stroke="#3E6CDA" stroke-width="20" stroke-linecap="round" stroke-linejoin="round"/>
<path d="M365 213L282 213" stroke="#3E6CDA" stroke-width="20" stroke-linecap="round" stroke-linejoin="round"/>
</svg>
