<svg width="150" height="100" viewBox="0 0 150 100" fill="none" xmlns="http://www.w3.org/2000/svg">
<g clip-path="url(#clip0)">
<rect width="150" height="100" fill="white"/>
<rect x="-13.8906" width="177.778" height="100" fill="#D62B2B"/>
<path d="M150.329 105.037H144.333V92.2054H128.996C126.805 92.2054 125.029 90.1015 125.029 87.5069V64.871C124.923 64.6642 124.817 64.4558 124.713 64.2474L119.006 63.8912L113 63.5171L116.668 48.7487L120.053 35.1225C122.394 17.1704 135.533 2.98129 150.407 0.00102887C152.305 -0.37971 150.329 105.037 150.329 105.037Z" fill="#2D2D2D"/>
<path d="M13.5984 60.1991C13.2356 59.3131 12.4256 58.8237 11.4469 58.8237C10.3922 58.8237 9.48094 59.4397 9.48094 60.5281C9.48094 62.4012 12.6197 62.165 12.6197 63.3631C12.6197 63.9537 12.1725 64.1731 11.5903 64.1731C10.9069 64.1731 10.5441 63.7934 10.2656 63.2197L9.30375 63.6416C9.64969 64.5275 10.5863 65.0844 11.5819 65.0844C12.9319 65.0844 13.7166 64.46 13.7166 63.2112C13.7166 61.2369 10.5778 61.4562 10.5778 60.41C10.5778 59.9375 10.9406 59.735 11.4469 59.735C11.9953 59.735 12.3581 60.0556 12.5353 60.5281L13.5984 60.1991ZM18.9843 60.4269C18.6975 59.3469 18.0225 58.8237 16.8581 58.8237C15.3056 58.8237 14.4112 59.9628 14.4112 61.9541C14.4112 63.9453 15.3056 65.0844 16.8581 65.0844C17.9718 65.0844 18.765 64.5444 19.1278 63.4897L18.0478 63.2028C17.7018 63.92 17.3812 64.1056 16.8581 64.1056C15.9806 64.1056 15.5587 63.38 15.5756 61.9541C15.5756 60.5281 16.0481 59.8025 16.8243 59.8025C17.3981 59.8025 17.7609 60.1653 17.9296 60.68L18.9843 60.4269ZM21.299 65V58.9081H20.1346V65H21.299ZM26.9606 65V64.0212H23.999V62.3169H26.0831V61.3381H23.999V59.8869H26.8678V58.9081H22.8347V65H26.9606ZM29.0643 65V60.6631H29.0812L31.5702 65H32.6924V58.9081H31.5956V63.0594H31.5787L29.1824 58.9081H27.9674V65H29.0643ZM38.1994 60.4269C37.9125 59.3469 37.2375 58.8237 36.0732 58.8237C34.5207 58.8237 33.6263 59.9628 33.6263 61.9541C33.6263 63.9453 34.5207 65.0844 36.0732 65.0844C37.1869 65.0844 37.98 64.5444 38.3429 63.4897L37.2629 63.2028C36.9169 63.92 36.5963 64.1056 36.0732 64.1056C35.1957 64.1056 34.7738 63.38 34.7907 61.9541C34.7907 60.5281 35.2632 59.8025 36.0394 59.8025C36.6132 59.8025 36.976 60.1653 37.1447 60.68L38.1994 60.4269ZM43.3659 65V64.0212H40.4044V62.3169H42.4884V61.3381H40.4044V59.8869H43.2731V58.9081H39.24V65H43.3659ZM48.8589 60.0725H48.8758L49.5592 62.7219H48.1417L48.8589 60.0725ZM46.3698 65H47.5258L47.8886 63.6837H49.8123L50.1498 65H51.3058L49.5761 58.8997H48.1248L46.3698 65ZM53.1985 65V60.6631H53.2154L55.7045 65H56.8267V58.9081H55.7298V63.0594H55.7129L53.3167 58.9081H52.1017V65H53.1985ZM58.1655 65H60.1821C61.7936 65 62.9074 64.1056 62.9158 61.9541C62.9074 59.8025 61.7936 58.9081 60.1821 58.9081H58.1655V65ZM59.3299 59.8869H60.1061C61.4393 59.8869 61.7514 60.8656 61.7514 61.9541C61.7514 63.0425 61.4393 64.0212 60.1061 64.0212H59.3299V59.8869ZM70.5322 60.4269C70.2453 59.3469 69.5703 58.8237 68.4059 58.8237C66.8534 58.8237 65.9591 59.9628 65.9591 61.9541C65.9591 63.9453 66.8534 65.0844 68.4059 65.0844C69.5197 65.0844 70.3128 64.5444 70.6756 63.4897L69.5956 63.2028C69.2497 63.92 68.9291 64.1056 68.4059 64.1056C67.5284 64.1056 67.1066 63.38 67.1234 61.9541C67.1234 60.5281 67.5959 59.8025 68.3722 59.8025C68.9459 59.8025 69.3087 60.1653 69.4775 60.68L70.5322 60.4269ZM75.0659 61.9541C75.0659 63.38 74.6271 64.1056 73.6737 64.1056C72.7118 64.1056 72.2646 63.38 72.2815 61.9541C72.2815 60.5281 72.7203 59.8025 73.6737 59.8025C74.6271 59.8025 75.0659 60.5281 75.0659 61.9541ZM76.2303 61.9541C76.2303 59.9628 75.3359 58.8237 73.6737 58.8237C72.0115 58.8237 71.1171 59.9628 71.1171 61.9541C71.1171 63.9453 72.0115 65.0844 73.6737 65.0844C75.3359 65.0844 76.2303 63.9453 76.2303 61.9541ZM78.1877 65V60.2075H78.2046L79.5546 65H80.4405L81.8074 60.2075H81.8243V65H82.8368V58.9081H81.183L80.0018 63.1606H79.9849L78.8121 58.9081H77.1752V65H78.1877ZM85.2162 65V60.2075H85.2331L86.5831 65H87.469L88.8359 60.2075H88.8528V65H89.8653V58.9081H88.2115L87.0303 63.1606H87.0134L85.8406 58.9081H84.2037V65H85.2162ZM94.7506 61.9541C94.7506 63.38 94.3119 64.1056 93.3585 64.1056C92.3966 64.1056 91.9494 63.38 91.9663 61.9541C91.9663 60.5281 92.405 59.8025 93.3585 59.8025C94.3119 59.8025 94.7506 60.5281 94.7506 61.9541ZM95.915 61.9541C95.915 59.9628 95.0206 58.8237 93.3585 58.8237C91.6963 58.8237 90.8019 59.9628 90.8019 61.9541C90.8019 63.9453 91.6963 65.0844 93.3585 65.0844C95.0206 65.0844 95.915 63.9453 95.915 61.9541ZM97.9568 65V60.6631H97.9737L100.463 65H101.585V58.9081H100.488V63.0594H100.471L98.075 58.9081H96.86V65H97.9568ZM13.5984 70.1991C13.2356 69.3131 12.4256 68.8237 11.4469 68.8237C10.3922 68.8237 9.48094 69.4397 9.48094 70.5281C9.48094 72.4012 12.6197 72.165 12.6197 73.3631C12.6197 73.9537 12.1725 74.1731 11.5903 74.1731C10.9069 74.1731 10.5441 73.7934 10.2656 73.2197L9.30375 73.6416C9.64969 74.5275 10.5863 75.0844 11.5819 75.0844C12.9319 75.0844 13.7166 74.46 13.7166 73.2112C13.7166 71.2369 10.5778 71.4562 10.5778 70.41C10.5778 69.9375 10.9406 69.735 11.4469 69.735C11.9953 69.735 12.3581 70.0556 12.5353 70.5281L13.5984 70.1991ZM18.9928 75V74.0212H16.0312V72.3169H18.1153V71.3381H16.0312V69.8869H18.9V68.9081H14.8668V75H18.9928ZM21.0965 75V70.6631H21.1133L23.6024 75H24.7246V68.9081H23.6277V73.0594H23.6108L21.2146 68.9081H19.9996V75H21.0965ZM30.0038 70.1991C29.641 69.3131 28.831 68.8237 27.8522 68.8237C26.7975 68.8237 25.8863 69.4397 25.8863 70.5281C25.8863 72.4012 29.025 72.165 29.025 73.3631C29.025 73.9537 28.5778 74.1731 27.9956 74.1731C27.3122 74.1731 26.9494 73.7934 26.671 73.2197L25.7091 73.6416C26.055 74.5275 26.9916 75.0844 27.9872 75.0844C29.3372 75.0844 30.1219 74.46 30.1219 73.2112C30.1219 71.2369 26.9831 71.4562 26.9831 70.41C26.9831 69.9375 27.346 69.735 27.8522 69.735C28.4006 69.735 28.7635 70.0556 28.9406 70.5281L30.0038 70.1991ZM35.3981 75V74.0212H32.4365V72.3169H34.5206V71.3381H32.4365V69.8869H35.3053V68.9081H31.2722V75H35.3981ZM40.2751 75V68.9081H39.1107V75H40.2751ZM42.8824 75V70.6631H42.8992L45.3883 75H46.5105V68.9081H45.4136V73.0594H45.3967L43.0005 68.9081H41.7855V75H42.8824ZM52.3608 70.0725H52.3776L53.0611 72.7219H51.6436L52.3608 70.0725ZM49.8717 75H51.0276L51.3905 73.6837H53.3142L53.6517 75H54.8076L53.078 68.8997H51.6267L49.8717 75ZM59.229 75V72.5362H60.2922C61.6084 72.5362 62.4437 71.9878 62.4437 70.7222C62.4437 69.4566 61.6084 68.9081 60.2922 68.9081H58.0647V75H59.229ZM59.229 69.8531H60.1572C61.0347 69.8531 61.2793 70.1822 61.2793 70.7222C61.2793 71.2622 61.0347 71.5912 60.1572 71.5912H59.229V69.8531ZM64.9346 70.0725H64.9515L65.6349 72.7219H64.2174L64.9346 70.0725ZM62.4456 75H63.6015L63.9643 73.6837H65.8881L66.2256 75H67.3815L65.6518 68.8997H64.2006L62.4456 75ZM69.2743 75V70.6631H69.2911L71.7802 75H72.9024V68.9081H71.8055V73.0594H71.7886L69.3924 68.9081H68.1774V75H69.2743ZM74.2413 75H76.2578C77.8694 75 78.9831 74.1056 78.9916 71.9541C78.9831 69.8025 77.8694 68.9081 76.2578 68.9081H74.2413V75ZM75.4056 69.8869H76.1819C77.515 69.8869 77.8272 70.8656 77.8272 71.9541C77.8272 73.0425 77.515 74.0212 76.1819 74.0212H75.4056V69.8869ZM84.0456 75V74.0212H81.084V72.3169H83.1681V71.3381H81.084V69.8869H83.9528V68.9081H79.9196V75H84.0456ZM86.0649 75V70.2075H86.0818L87.4318 75H88.3177L89.6846 70.2075H89.7015V75H90.714V68.9081H89.0602L87.879 73.1606H87.8621L86.6893 68.9081H85.0524V75H86.0649ZM93.3803 75V68.9081H92.2159V75H93.3803ZM99.0335 70.4269C98.7466 69.3469 98.0716 68.8237 96.9072 68.8237C95.3547 68.8237 94.4603 69.9628 94.4603 71.9541C94.4603 73.9453 95.3547 75.0844 96.9072 75.0844C98.021 75.0844 98.8141 74.5444 99.1769 73.4897L98.0969 73.2028C97.751 73.92 97.4303 74.1056 96.9072 74.1056C96.0297 74.1056 95.6078 73.38 95.6247 71.9541C95.6247 70.5281 96.0972 69.8025 96.8735 69.8025C97.4472 69.8025 97.81 70.1653 97.9788 70.68L99.0335 70.4269Z" fill="white"/>
<path d="M9 65.8438H102.268V66.2656H9V65.8438ZM9 75.8438H99.3625V76.2656H9V75.8438Z" fill="white"/>
<path d="M13.3741 85.5156V85.0396H10.9801V80.4616H10.4201V85.5156H13.3741ZM16.2907 83.6956C16.2907 84.6336 15.9057 85.1516 15.3037 85.1516C14.7017 85.1516 14.3167 84.6336 14.3167 83.6956C14.3167 82.7576 14.7017 82.2396 15.3037 82.2396C15.9057 82.2396 16.2907 82.7576 16.2907 83.6956ZM16.7947 83.6956C16.7947 82.6456 16.2977 81.8056 15.3037 81.8056C14.3097 81.8056 13.8127 82.6456 13.8127 83.6956C13.8127 84.7456 14.3097 85.5856 15.3037 85.5856C16.2977 85.5856 16.7947 84.7456 16.7947 83.6956ZM17.1797 81.8756V82.3096H17.7747V84.9836C17.7747 85.4456 18.0057 85.5856 18.5517 85.5856C18.8457 85.5856 19.0487 85.5576 19.1397 85.5296V85.1166C19.0067 85.1376 18.8597 85.1516 18.6917 85.1516C18.3977 85.1516 18.2787 85.0676 18.2787 84.8996V82.3096H19.1187V81.8756H18.2787V80.6786H17.7747V81.8756H17.1797ZM20.0078 80.4616V85.5156H20.5118V82.7926C20.7428 82.5476 21.1768 82.2396 21.5548 82.2396C21.9188 82.2396 22.1498 82.4006 22.1498 82.8836V85.5156H22.6538V82.8696C22.6538 82.0856 22.1428 81.8056 21.6038 81.8056C21.1908 81.8056 20.8128 82.0436 20.5258 82.3656H20.5118V80.4616H20.0078ZM24.1144 82.8066C24.2124 82.5616 24.4854 82.2396 25.0454 82.2396C25.4794 82.2396 25.7944 82.4216 25.7944 82.9046V83.1006C24.1774 83.3876 23.5684 83.7866 23.5684 84.5846C23.5684 85.2496 24.0444 85.5856 24.6044 85.5856C25.1504 85.5856 25.5564 85.2916 25.8084 85.0116L25.8644 85.5156H26.3824C26.3334 85.3266 26.2984 85.1306 26.2984 84.7316V82.8976C26.2984 82.0996 25.6544 81.8056 25.0384 81.8056C24.3524 81.8056 23.9044 82.1556 23.6734 82.5756L24.1144 82.8066ZM25.7944 84.5496C25.5004 84.8856 25.0384 85.1516 24.6744 85.1516C24.3944 85.1516 24.0724 84.9276 24.0724 84.5916C24.0724 84.0876 24.6394 83.7516 25.7944 83.5486V84.5496ZM27.2644 85.5156H27.7684V83.4996C28.0064 82.7506 28.3354 82.3376 28.9654 82.3236V81.8196C28.3634 81.8196 28.0624 82.0996 27.7824 82.5966H27.7684V81.8756H27.2644V85.5156ZM34.9763 80.4616V82.6316H32.5543V80.4616H31.9943V85.5156H32.5543V83.1076H34.9763V85.5156H35.5363V80.4616H34.9763ZM37.011 84.7456V85.5156H37.697V84.7456H37.011ZM41.9697 85.5156H42.4667L43.4467 81.4276H43.4607L44.4967 85.5156H44.9937L46.1907 80.4616H45.6587L44.7347 84.4936H44.7207L43.7127 80.4616H43.2157L42.2357 84.4936H42.2217L41.2837 80.4616H40.7517L41.9697 85.5156ZM46.9847 85.5156H47.4887V81.8756H46.9847V85.5156ZM46.9847 80.3916V80.9936H47.4887V80.3916H46.9847ZM51.0819 84.5356C50.8719 84.9136 50.5219 85.1516 50.0739 85.1516C49.4719 85.1516 48.9959 84.5916 48.9959 83.7936H51.3619V83.4576C51.3619 82.2956 50.7319 81.8056 49.9759 81.8056C49.0799 81.8056 48.4919 82.5196 48.4919 83.6956C48.4919 85.0256 49.2619 85.5856 50.0739 85.5856C50.8999 85.5856 51.2359 85.1516 51.4739 84.7386L51.0819 84.5356ZM49.0099 83.3596C49.0519 82.6876 49.3809 82.2396 49.9899 82.2396C50.5359 82.2396 50.8579 82.6876 50.8579 83.3596H49.0099ZM52.4329 80.4616V85.5156H52.9369V80.4616H52.4329ZM56.5302 84.5356C56.3202 84.9136 55.9702 85.1516 55.5222 85.1516C54.9202 85.1516 54.4442 84.5916 54.4442 83.7936H56.8102V83.4576C56.8102 82.2956 56.1802 81.8056 55.4242 81.8056C54.5282 81.8056 53.9402 82.5196 53.9402 83.6956C53.9402 85.0256 54.7102 85.5856 55.5222 85.5856C56.3482 85.5856 56.6842 85.1516 56.9222 84.7386L56.5302 84.5356ZM54.4582 83.3596C54.5002 82.6876 54.8292 82.2396 55.4382 82.2396C55.9842 82.2396 56.3062 82.6876 56.3062 83.3596H54.4582ZM57.6502 85.5156H58.1542V83.4996C58.3922 82.7506 58.7212 82.3376 59.3512 82.3236V81.8196C58.7492 81.8196 58.4482 82.0996 58.1682 82.5966H58.1542V81.8756H57.6502V85.5156Z" fill="white"/>
</g>
<defs>
<clipPath id="clip0">
<rect width="150" height="100" fill="white"/>
</clipPath>
</defs>
</svg>
