<svg width="150" height="100" viewBox="0 0 150 100" fill="none" xmlns="http://www.w3.org/2000/svg">
<g clip-path="url(#clip0)">
<rect width="150" height="100" fill="white"/>
<rect x="-13.8906" width="177.778" height="100" fill="#D62B2B"/>
<path d="M150.329 105.037H144.333V92.2054H128.996C126.805 92.2054 125.029 90.1015 125.029 87.5069V64.871C124.923 64.6642 124.817 64.4558 124.713 64.2474L119.006 63.8912L113 63.5171L116.668 48.7487L120.053 35.1225C122.394 17.1704 135.533 2.98129 150.407 0.00102887C152.305 -0.37971 150.329 105.037 150.329 105.037Z" fill="#2D2D2D"/>
<path d="M10.8731 65V62.3844H13.2188V65H14.3831V58.9081H13.2188V61.3381H10.8731V58.9081H9.70875V65H10.8731ZM19.9239 65V64.0212H16.9623V62.3169H19.0464V61.3381H16.9623V59.8869H19.831V58.9081H15.7979V65H19.9239ZM22.846 60.0725H22.8629L23.5463 62.7219H22.1288L22.846 60.0725ZM20.3569 65H21.5129L21.8757 63.6837H23.7994L24.1369 65H25.2929L23.5632 58.8997H22.1119L20.3569 65ZM29.8772 65V64.0212H27.2278V58.9081H26.0635V65H29.8772ZM29.488 58.8997V59.8784H31.0827V65H32.247V59.8784H33.8417V58.8997H29.488ZM35.8808 65V62.3844H38.2264V65H39.3908V58.9081H38.2264V61.3381H35.8808V58.9081H34.7164V65H35.8808ZM45.2664 60.0725H45.2832L45.9667 62.7219H44.5492L45.2664 60.0725ZM42.7773 65H43.9332L44.296 63.6837H46.2198L46.5573 65H47.7132L45.9835 58.8997H44.5323L42.7773 65ZM49.606 65V60.6631H49.6229L52.1119 65H53.2341V58.9081H52.1372V63.0594H52.1204L49.7241 58.9081H48.5091V65H49.606ZM54.573 65H56.5895C58.2011 65 59.3149 64.1056 59.3233 61.9541C59.3149 59.8025 58.2011 58.9081 56.5895 58.9081H54.573V65ZM55.7374 59.8869H56.5136C57.8467 59.8869 58.1589 60.8656 58.1589 61.9541C58.1589 63.0425 57.8467 64.0212 56.5136 64.0212H55.7374V59.8869ZM62.0712 64.2659C62.4087 64.7806 62.8643 65.0844 63.5056 65.0844C64.5856 65.0844 65.1509 64.4937 65.1509 63.3547V58.9081H63.9865V63.38C63.9865 63.92 63.784 64.1056 63.5056 64.1056C63.244 64.1056 63.0753 64.0044 62.8728 63.6669L62.0712 64.2659ZM70.0812 62.7725C70.0812 63.7597 69.6931 64.1056 68.9084 64.1056C68.1237 64.1056 67.7356 63.7597 67.7356 62.7725V58.9081H66.5712V62.7219C66.5712 64.5022 67.6681 65.0844 68.9084 65.0844C70.1487 65.0844 71.2456 64.5022 71.2456 62.7219V58.9081H70.0812V62.7725ZM76.5501 60.1991C76.1873 59.3131 75.3773 58.8237 74.3985 58.8237C73.3438 58.8237 72.4326 59.4397 72.4326 60.5281C72.4326 62.4012 75.5713 62.165 75.5713 63.3631C75.5713 63.9537 75.1242 64.1731 74.542 64.1731C73.8585 64.1731 73.4957 63.7934 73.2173 63.2197L72.2554 63.6416C72.6013 64.5275 73.5379 65.0844 74.5335 65.0844C75.8835 65.0844 76.6682 64.46 76.6682 63.2112C76.6682 61.2369 73.5295 61.4562 73.5295 60.41C73.5295 59.9375 73.8923 59.735 74.3985 59.735C74.947 59.735 75.3098 60.0556 75.487 60.5281L76.5501 60.1991ZM77.2785 58.8997V59.8784H78.8732V65H80.0376V59.8784H81.6322V58.8997H77.2785ZM83.781 65V58.9081H82.6166V65H83.781ZM89.4342 60.4269C89.1473 59.3469 88.4723 58.8237 87.3079 58.8237C85.7554 58.8237 84.861 59.9628 84.861 61.9541C84.861 63.9453 85.7554 65.0844 87.3079 65.0844C88.4217 65.0844 89.2148 64.5444 89.5776 63.4897L88.4976 63.2028C88.1517 63.92 87.831 64.1056 87.3079 64.1056C86.4304 64.1056 86.0085 63.38 86.0254 61.9541C86.0254 60.5281 86.4979 59.8025 87.2742 59.8025C87.8479 59.8025 88.2107 60.1653 88.3795 60.68L89.4342 60.4269ZM94.6007 65V64.0212H91.6391V62.3169H93.7232V61.3381H91.6391V59.8869H94.5079V58.9081H90.4747V65H94.6007ZM10.9828 75V68.9081H9.81844V75H10.9828ZM13.5901 75V70.6631H13.6069L16.096 75H17.2182V68.9081H16.1213V73.0594H16.1044L13.7082 68.9081H12.4932V75H13.5901ZM23.0685 70.0725H23.0854L23.7688 72.7219H22.3513L23.0685 70.0725ZM20.5794 75H21.7354L22.0982 73.6837H24.0219L24.3594 75H25.5154L23.7857 68.8997H22.3344L20.5794 75ZM29.9367 75V72.5362H30.9999C32.3161 72.5362 33.1514 71.9878 33.1514 70.7222C33.1514 69.4566 32.3161 68.9081 30.9999 68.9081H28.7724V75H29.9367ZM29.9367 69.8531H30.8649C31.7424 69.8531 31.987 70.1822 31.987 70.7222C31.987 71.2622 31.7424 71.5912 30.8649 71.5912H29.9367V69.8531ZM35.6423 70.0725H35.6592L36.3426 72.7219H34.9251L35.6423 70.0725ZM33.1533 75H34.3092L34.672 73.6837H36.5958L36.9333 75H38.0892L36.3595 68.8997H34.9083L33.1533 75ZM39.982 75V70.6631H39.9988L42.4879 75H43.6101V68.9081H42.5132V73.0594H42.4963L40.1001 68.9081H38.8851V75H39.982ZM44.949 75H46.9655C48.5771 75 49.6908 74.1056 49.6993 71.9541C49.6908 69.8025 48.5771 68.9081 46.9655 68.9081H44.949V75ZM46.1133 69.8869H46.8896C48.2227 69.8869 48.5349 70.8656 48.5349 71.9541C48.5349 73.0425 48.2227 74.0212 46.8896 74.0212H46.1133V69.8869ZM54.7533 75V74.0212H51.7917V72.3169H53.8758V71.3381H51.7917V69.8869H54.6605V68.9081H50.6273V75H54.7533ZM56.7726 75V70.2075H56.7895L58.1395 75H59.0254L60.3923 70.2075H60.4092V75H61.4217V68.9081H59.7679L58.5867 73.1606H58.5698L57.397 68.9081H55.7601V75H56.7726ZM64.088 75V68.9081H62.9236V75H64.088ZM69.7412 70.4269C69.4543 69.3469 68.7793 68.8237 67.6149 68.8237C66.0624 68.8237 65.168 69.9628 65.168 71.9541C65.168 73.9453 66.0624 75.0844 67.6149 75.0844C68.7287 75.0844 69.5218 74.5444 69.8846 73.4897L68.8046 73.2028C68.4587 73.92 68.138 74.1056 67.6149 74.1056C66.7374 74.1056 66.3155 73.38 66.3324 71.9541C66.3324 70.5281 66.8049 69.8025 67.5812 69.8025C68.1549 69.8025 68.5177 70.1653 68.6865 70.68L69.7412 70.4269Z" fill="white"/>
<path d="M9 65.8438H94.9213V66.2656H9V65.8438ZM9 75.8438H70.0702V76.2656H9V75.8438Z" fill="white"/>
<path d="M13.3041 81.6376C13.0381 80.8046 12.4221 80.3916 11.6381 80.3916C10.7281 80.3916 10.1191 80.9656 10.1191 81.6936C10.1191 83.2896 12.9611 82.9116 12.9611 84.1996C12.9611 84.7176 12.5901 85.1096 11.8481 85.1096C11.1061 85.1096 10.7281 84.6196 10.5251 84.0876L10.0141 84.2696C10.2801 84.8716 10.7141 85.5856 11.8201 85.5856C13.1081 85.5856 13.5211 84.8366 13.5211 84.1016C13.5211 82.4776 10.6651 82.7576 10.6791 81.6516C10.6861 81.1476 11.0361 80.8676 11.6241 80.8676C12.2751 80.8676 12.6741 81.2596 12.8001 81.7496L13.3041 81.6376ZM14.4334 85.5156H14.9374V83.4996C15.1754 82.7506 15.5044 82.3376 16.1344 82.3236V81.8196C15.5324 81.8196 15.2314 82.0996 14.9514 82.5966H14.9374V81.8756H14.4334V85.5156ZM16.9954 85.5156H17.4994V81.8756H16.9954V85.5156ZM16.9954 80.3916V80.9936H17.4994V80.3916H16.9954ZM20.9947 80.4616V82.2256L20.9667 82.2116C20.6867 81.9806 20.3507 81.8056 20.0077 81.8056C19.3917 81.8056 18.5447 82.2816 18.5447 83.6956C18.5447 85.1516 19.3917 85.5856 20.0357 85.5856C20.4697 85.5856 20.8267 85.3896 20.9947 85.1586L21.0647 85.5156H21.5267C21.4847 85.2496 21.4987 84.9836 21.4987 84.7176V80.4616H20.9947ZM20.9947 84.6616C20.6377 85.0116 20.3997 85.1516 20.0777 85.1516C19.4477 85.1516 19.0487 84.6476 19.0487 83.7236C19.0487 82.6246 19.4897 82.2396 20.0777 82.2396C20.3787 82.2396 20.7217 82.4426 20.9947 82.7436V84.6616ZM22.7353 80.4616V85.5156H23.2393V82.7926C23.4703 82.5476 23.9043 82.2396 24.2823 82.2396C24.6463 82.2396 24.8773 82.4006 24.8773 82.8836V85.5156H25.3813V82.8696C25.3813 82.0856 24.8703 81.8056 24.3313 81.8056C23.9183 81.8056 23.5403 82.0436 23.2533 82.3656H23.2393V80.4616H22.7353ZM26.842 82.8066C26.94 82.5616 27.213 82.2396 27.773 82.2396C28.207 82.2396 28.522 82.4216 28.522 82.9046V83.1006C26.905 83.3876 26.296 83.7866 26.296 84.5846C26.296 85.2496 26.772 85.5856 27.332 85.5856C27.878 85.5856 28.284 85.2916 28.536 85.0116L28.592 85.5156H29.11C29.061 85.3266 29.026 85.1306 29.026 84.7316V82.8976C29.026 82.0996 28.382 81.8056 27.766 81.8056C27.08 81.8056 26.632 82.1556 26.401 82.5756L26.842 82.8066ZM28.522 84.5496C28.228 84.8856 27.766 85.1516 27.402 85.1516C27.122 85.1516 26.8 84.9276 26.8 84.5916C26.8 84.0876 27.367 83.7516 28.522 83.5486V84.5496ZM29.992 85.5156H30.496V83.4996C30.734 82.7506 31.063 82.3376 31.693 82.3236V81.8196C31.091 81.8196 30.79 82.0996 30.51 82.5966H30.496V81.8756H29.992V85.5156ZM35.6528 85.5156H36.1638L37.7318 80.4616H37.1648L35.9118 84.6056H35.8978L34.6518 80.4616H34.0918L35.6528 85.5156ZM40.4657 84.5356C40.2557 84.9136 39.9057 85.1516 39.4577 85.1516C38.8557 85.1516 38.3797 84.5916 38.3797 83.7936H40.7457V83.4576C40.7457 82.2956 40.1157 81.8056 39.3597 81.8056C38.4637 81.8056 37.8757 82.5196 37.8757 83.6956C37.8757 85.0256 38.6457 85.5856 39.4577 85.5856C40.2837 85.5856 40.6197 85.1516 40.8577 84.7386L40.4657 84.5356ZM38.3937 83.3596C38.4357 82.6876 38.7647 82.2396 39.3737 82.2396C39.9197 82.2396 40.2417 82.6876 40.2417 83.3596H38.3937ZM41.7187 81.8756V85.5156H42.2227V82.7926C42.4537 82.5476 42.8877 82.2396 43.2657 82.2396C43.6297 82.2396 43.8607 82.4006 43.8607 82.8836V85.5156H44.3647V82.8696C44.3647 82.0856 43.8537 81.8056 43.3147 81.8056C42.9017 81.8056 42.5237 82.0436 42.2367 82.3656H42.2227V81.8756H41.7187ZM45.5734 85.5156H46.0774V84.4236L46.7494 83.6536L47.7154 85.5156H48.3104L47.0994 83.2196L48.1704 81.8756H47.5614L46.0914 83.7166H46.0774V80.4616H45.5734V85.5156ZM49.3254 82.8066C49.4234 82.5616 49.6964 82.2396 50.2564 82.2396C50.6904 82.2396 51.0054 82.4216 51.0054 82.9046V83.1006C49.3884 83.3876 48.7794 83.7866 48.7794 84.5846C48.7794 85.2496 49.2554 85.5856 49.8154 85.5856C50.3614 85.5856 50.7674 85.2916 51.0194 85.0116L51.0754 85.5156H51.5934C51.5444 85.3266 51.5094 85.1306 51.5094 84.7316V82.8976C51.5094 82.0996 50.8654 81.8056 50.2494 81.8056C49.5634 81.8056 49.1154 82.1556 48.8844 82.5756L49.3254 82.8066ZM51.0054 84.5496C50.7114 84.8856 50.2494 85.1516 49.8854 85.1516C49.6054 85.1516 49.2834 84.9276 49.2834 84.5916C49.2834 84.0876 49.8504 83.7516 51.0054 83.5486V84.5496ZM52.1114 81.8756V82.3096H52.7064V84.9836C52.7064 85.4456 52.9374 85.5856 53.4834 85.5856C53.7774 85.5856 53.9804 85.5576 54.0714 85.5296V85.1166C53.9384 85.1376 53.7914 85.1516 53.6234 85.1516C53.3294 85.1516 53.2104 85.0676 53.2104 84.8996V82.3096H54.0504V81.8756H53.2104V80.6786H52.7064V81.8756H52.1114ZM55.1564 82.8066C55.2544 82.5616 55.5274 82.2396 56.0874 82.2396C56.5214 82.2396 56.8364 82.4216 56.8364 82.9046V83.1006C55.2194 83.3876 54.6104 83.7866 54.6104 84.5846C54.6104 85.2496 55.0864 85.5856 55.6464 85.5856C56.1924 85.5856 56.5984 85.2916 56.8504 85.0116L56.9064 85.5156H57.4244C57.3754 85.3266 57.3404 85.1306 57.3404 84.7316V82.8976C57.3404 82.0996 56.6964 81.8056 56.0804 81.8056C55.3944 81.8056 54.9464 82.1556 54.7154 82.5756L55.1564 82.8066ZM56.8364 84.5496C56.5424 84.8856 56.0804 85.1516 55.7164 85.1516C55.4364 85.1516 55.1144 84.9276 55.1144 84.5916C55.1144 84.0876 55.6814 83.7516 56.8364 83.5486V84.5496ZM58.9364 86.8596V85.1656L58.9644 85.1796C59.2444 85.4106 59.5804 85.5856 59.9234 85.5856C60.5394 85.5856 61.3864 85.1096 61.3864 83.6956C61.3864 82.2396 60.5394 81.8056 59.8954 81.8056C59.5454 81.8056 59.1394 82.0296 58.9504 82.3026H58.9364V81.8756H58.4324V86.8596H58.9364ZM58.9364 82.7296C59.2934 82.3796 59.5314 82.2396 59.8534 82.2396C60.4834 82.2396 60.8824 82.7436 60.8824 83.6676C60.8824 84.7666 60.4414 85.1516 59.8534 85.1516C59.5524 85.1516 59.2094 84.9486 58.9364 84.6476V82.7296ZM64.9751 85.5156V81.8756H64.4711V84.5986C64.2401 84.8436 63.8061 85.1516 63.4281 85.1516C63.0641 85.1516 62.8331 84.9906 62.8331 84.5076V81.8756H62.3291V84.5216C62.3291 85.3056 62.8401 85.5856 63.3791 85.5856C63.7921 85.5856 64.1701 85.3476 64.4571 85.0256H64.4711V85.5156H64.9751ZM66.0857 85.5156H66.5897V83.4996C66.8277 82.7506 67.1567 82.3376 67.7867 82.3236V81.8196C67.1847 81.8196 66.8837 82.0996 66.6037 82.5966H66.5897V81.8756H66.0857V85.5156ZM68.7668 82.8066C68.8648 82.5616 69.1378 82.2396 69.6978 82.2396C70.1318 82.2396 70.4468 82.4216 70.4468 82.9046V83.1006C68.8298 83.3876 68.2208 83.7866 68.2208 84.5846C68.2208 85.2496 68.6968 85.5856 69.2568 85.5856C69.8028 85.5856 70.2088 85.2916 70.4608 85.0116L70.5168 85.5156H71.0348C70.9858 85.3266 70.9508 85.1306 70.9508 84.7316V82.8976C70.9508 82.0996 70.3068 81.8056 69.6908 81.8056C69.0048 81.8056 68.5568 82.1556 68.3258 82.5756L68.7668 82.8066ZM70.4468 84.5496C70.1528 84.8856 69.6908 85.1516 69.3268 85.1516C69.0468 85.1516 68.7248 84.9276 68.7248 84.5916C68.7248 84.0876 69.2918 83.7516 70.4468 83.5486V84.5496ZM72.5048 85.5156V82.7996C72.7778 82.5336 73.0718 82.2396 73.5198 82.2396C73.8418 82.2396 74.0868 82.4216 74.0868 82.9116V85.5156H74.5908V82.7996C74.8638 82.5336 75.1578 82.2396 75.6058 82.2396C75.9278 82.2396 76.1728 82.4216 76.1728 82.9116V85.5156H76.6768V82.9116C76.6768 82.0086 76.1588 81.8056 75.6758 81.8056C75.2488 81.8056 74.8428 82.0366 74.5208 82.3796C74.3878 82.0436 74.0588 81.8056 73.5898 81.8056C73.2398 81.8056 72.8408 81.9876 72.5328 82.3306L72.5048 82.3586V81.8756H72.0008V85.5156H72.5048Z" fill="white"/>
</g>
<defs>
<clipPath id="clip0">
<rect width="150" height="100" fill="white"/>
</clipPath>
</defs>
</svg>
