<svg width="150" height="100" viewBox="0 0 150 100" fill="none" xmlns="http://www.w3.org/2000/svg">
<g clip-path="url(#clip0)">
<rect width="150" height="100" fill="white"/>
<rect x="-13.8906" width="177.778" height="100" fill="#D62B2B"/>
<path d="M150.329 105.037H144.333V92.2054H128.996C126.805 92.2054 125.029 90.1015 125.029 87.5069V64.871C124.923 64.6642 124.817 64.4558 124.713 64.2474L119.006 63.8912L113 63.5171L116.668 48.7487L120.053 35.1225C122.394 17.1704 135.533 2.98129 150.407 0.00102887C152.305 -0.37971 150.329 105.037 150.329 105.037Z" fill="#2D2D2D"/>
<path d="M13.4719 65V64.0212H10.8225V58.9081H9.65813V65H13.4719ZM18.5231 65V64.0212H15.5615V62.3169H17.6456V61.3381H15.5615V59.8869H18.4303V58.9081H14.3972V65H18.5231ZM23.4449 60.1991C23.0821 59.3131 22.2721 58.8237 21.2934 58.8237C20.2387 58.8237 19.3274 59.4397 19.3274 60.5281C19.3274 62.4012 22.4662 62.165 22.4662 63.3631C22.4662 63.9537 22.019 64.1731 21.4368 64.1731C20.7534 64.1731 20.3906 63.7934 20.1121 63.2197L19.1502 63.6416C19.4962 64.5275 20.4327 65.0844 21.4284 65.0844C22.7784 65.0844 23.5631 64.46 23.5631 63.2112C23.5631 61.2369 20.4243 61.4562 20.4243 60.41C20.4243 59.9375 20.7871 59.735 21.2934 59.735C21.8418 59.735 22.2046 60.0556 22.3818 60.5281L23.4449 60.1991ZM28.603 60.1991C28.2402 59.3131 27.4302 58.8237 26.4515 58.8237C25.3968 58.8237 24.4855 59.4397 24.4855 60.5281C24.4855 62.4012 27.6243 62.165 27.6243 63.3631C27.6243 63.9537 27.1771 64.1731 26.5949 64.1731C25.9115 64.1731 25.5486 63.7934 25.2702 63.2197L24.3083 63.6416C24.6543 64.5275 25.5908 65.0844 26.5865 65.0844C27.9365 65.0844 28.7211 64.46 28.7211 63.2112C28.7211 61.2369 25.5824 61.4562 25.5824 60.41C25.5824 59.9375 25.9452 59.735 26.4515 59.735C26.9999 59.735 27.3627 60.0556 27.5399 60.5281L28.603 60.1991ZM31.1455 65V58.9081H29.9811V65H31.1455ZM36.1743 61.9541C36.1743 63.38 35.7355 64.1056 34.7821 64.1056C33.8202 64.1056 33.373 63.38 33.3899 61.9541C33.3899 60.5281 33.8287 59.8025 34.7821 59.8025C35.7355 59.8025 36.1743 60.5281 36.1743 61.9541ZM37.3387 61.9541C37.3387 59.9628 36.4443 58.8237 34.7821 58.8237C33.1199 58.8237 32.2255 59.9628 32.2255 61.9541C32.2255 63.9453 33.1199 65.0844 34.7821 65.0844C36.4443 65.0844 37.3387 63.9453 37.3387 61.9541ZM39.3805 65V60.6631H39.3973L41.8864 65H43.0086V58.9081H41.9117V63.0594H41.8948L39.4986 58.9081H38.2836V65H39.3805ZM48.2878 60.1991C47.925 59.3131 47.115 58.8237 46.1362 58.8237C45.0815 58.8237 44.1703 59.4397 44.1703 60.5281C44.1703 62.4012 47.309 62.165 47.309 63.3631C47.309 63.9537 46.8618 64.1731 46.2796 64.1731C45.5962 64.1731 45.2334 63.7934 44.955 63.2197L43.9931 63.6416C44.339 64.5275 45.2756 65.0844 46.2712 65.0844C47.6212 65.0844 48.4059 64.46 48.4059 63.2112C48.4059 61.2369 45.2671 61.4562 45.2671 60.41C45.2671 59.9375 45.63 59.735 46.1362 59.735C46.6846 59.735 47.0475 60.0556 47.2246 60.5281L48.2878 60.1991ZM53.2407 65V62.3169H55.2742V61.3381H53.2407V59.8869H55.9576V58.9081H52.0763V65H53.2407ZM57.9291 65V62.5194H58.9332L60.0807 65H61.3716L60.0301 62.2831C60.7726 62.0722 61.1523 61.4647 61.1438 60.7137C61.1354 59.7097 60.5785 58.9081 59.1948 58.9081H56.7648V65H57.9291ZM57.9291 59.8531H58.9923C59.6335 59.8531 59.9794 60.14 59.9794 60.7137C59.9794 61.2875 59.701 61.5744 58.7898 61.5744H57.9291V59.8531ZM65.9363 61.9541C65.9363 63.38 65.4975 64.1056 64.5441 64.1056C63.5822 64.1056 63.135 63.38 63.1519 61.9541C63.1519 60.5281 63.5906 59.8025 64.5441 59.8025C65.4975 59.8025 65.9363 60.5281 65.9363 61.9541ZM67.1006 61.9541C67.1006 59.9628 66.2063 58.8237 64.5441 58.8237C62.8819 58.8237 61.9875 59.9628 61.9875 61.9541C61.9875 63.9453 62.8819 65.0844 64.5441 65.0844C66.2063 65.0844 67.1006 63.9453 67.1006 61.9541ZM69.0581 65V60.2075H69.0749L70.4249 65H71.3109L72.6777 60.2075H72.6946V65H73.7071V58.9081H72.0534L70.8721 63.1606H70.8552L69.6824 58.9081H68.0456V65H69.0581ZM77.1302 58.8997V59.8784H78.7249V65H79.8892V59.8784H81.4839V58.8997H77.1302ZM83.523 65V62.3844H85.8686V65H87.033V58.9081H85.8686V61.3381H83.523V58.9081H82.3586V65H83.523ZM92.5737 65V64.0212H89.6121V62.3169H91.6962V61.3381H89.6121V59.8869H92.4809V58.9081H88.4478V65H92.5737ZM10.7381 75V72.5362H11.8013C13.1175 72.5362 13.9528 71.9878 13.9528 70.7222C13.9528 69.4566 13.1175 68.9081 11.8013 68.9081H9.57375V75H10.7381ZM10.7381 69.8531H11.6663C12.5438 69.8531 12.7884 70.1822 12.7884 70.7222C12.7884 71.2622 12.5438 71.5912 11.6663 71.5912H10.7381V69.8531ZM16.4437 70.0725H16.4606L17.144 72.7219H15.7265L16.4437 70.0725ZM13.9547 75H15.1106L15.4734 73.6837H17.3972L17.7347 75H18.8906L17.1609 68.8997H15.7097L13.9547 75ZM23.6015 70.1991C23.2387 69.3131 22.4287 68.8237 21.4499 68.8237C20.3952 68.8237 19.484 69.4397 19.484 70.5281C19.484 72.4012 22.6227 72.165 22.6227 73.3631C22.6227 73.9537 22.1756 74.1731 21.5934 74.1731C20.9099 74.1731 20.5471 73.7934 20.2687 73.2197L19.3068 73.6416C19.6527 74.5275 20.5893 75.0844 21.5849 75.0844C22.9349 75.0844 23.7196 74.46 23.7196 73.2112C23.7196 71.2369 20.5809 71.4562 20.5809 70.41C20.5809 69.9375 20.9437 69.735 21.4499 69.735C21.9984 69.735 22.3612 70.0556 22.5384 70.5281L23.6015 70.1991ZM24.3299 68.8997V69.8784H25.9246V75H27.0889V69.8784H28.6836V68.8997H24.3299ZM33.4032 75V68.9081H32.2388V75H33.4032ZM36.0104 75V70.6631H36.0273L38.5164 75H39.6385V68.9081H38.5417V73.0594H38.5248L36.1285 68.9081H34.9135V75H36.0104ZM45.4888 70.0725H45.5057L46.1891 72.7219H44.7716L45.4888 70.0725ZM42.9998 75H44.1557L44.5185 73.6837H46.4423L46.7798 75H47.9357L46.206 68.8997H44.7548L42.9998 75ZM52.3571 75V72.5362H53.4202C54.7365 72.5362 55.5718 71.9878 55.5718 70.7222C55.5718 69.4566 54.7365 68.9081 53.4202 68.9081H51.1927V75H52.3571ZM52.3571 69.8531H53.2852C54.1627 69.8531 54.4074 70.1822 54.4074 70.7222C54.4074 71.2622 54.1627 71.5912 53.2852 71.5912H52.3571V69.8531ZM58.0627 70.0725H58.0796L58.763 72.7219H57.3455L58.0627 70.0725ZM55.5736 75H56.7296L57.0924 73.6837H59.0161L59.3536 75H60.5096L58.7799 68.8997H57.3286L55.5736 75ZM62.4023 75V70.6631H62.4192L64.9083 75H66.0304V68.9081H64.9336V73.0594H64.9167L62.5204 68.9081H61.3054V75H62.4023ZM67.3693 75H69.3859C70.9974 75 72.1112 74.1056 72.1196 71.9541C72.1112 69.8025 70.9974 68.9081 69.3859 68.9081H67.3693V75ZM68.5337 69.8869H69.3099C70.6431 69.8869 70.9552 70.8656 70.9552 71.9541C70.9552 73.0425 70.6431 74.0212 69.3099 74.0212H68.5337V69.8869ZM77.1736 75V74.0212H74.2121V72.3169H76.2961V71.3381H74.2121V69.8869H77.0808V68.9081H73.0477V75H77.1736ZM79.1929 75V70.2075H79.2098L80.5598 75H81.4458L82.8126 70.2075H82.8295V75H83.842V68.9081H82.1883L81.007 73.1606H80.9901L79.8173 68.9081H78.1804V75H79.1929ZM86.5083 75V68.9081H85.344V75H86.5083ZM92.1615 70.4269C91.8746 69.3469 91.1996 68.8237 90.0353 68.8237C88.4828 68.8237 87.5884 69.9628 87.5884 71.9541C87.5884 73.9453 88.4828 75.0844 90.0353 75.0844C91.149 75.0844 91.9421 74.5444 92.305 73.4897L91.225 73.2028C90.879 73.92 90.5584 74.1056 90.0353 74.1056C89.1578 74.1056 88.7359 73.38 88.7528 71.9541C88.7528 70.5281 89.2253 69.8025 90.0015 69.8025C90.5753 69.8025 90.9381 70.1653 91.1068 70.68L92.1615 70.4269Z" fill="white"/>
<path d="M9 65.8438H92.8943V66.2656H9V65.8438ZM9 75.8438H92.4906V76.2656H9V75.8438Z" fill="white"/>
<path d="M13.3041 81.6376C13.0381 80.8046 12.4221 80.3916 11.6381 80.3916C10.7281 80.3916 10.1191 80.9656 10.1191 81.6936C10.1191 83.2896 12.9611 82.9116 12.9611 84.1996C12.9611 84.7176 12.5901 85.1096 11.8481 85.1096C11.1061 85.1096 10.7281 84.6196 10.5251 84.0876L10.0141 84.2696C10.2801 84.8716 10.7141 85.5856 11.8201 85.5856C13.1081 85.5856 13.5211 84.8366 13.5211 84.1016C13.5211 82.4776 10.6651 82.7576 10.6791 81.6516C10.6861 81.1476 11.0361 80.8676 11.6241 80.8676C12.2751 80.8676 12.6741 81.2596 12.8001 81.7496L13.3041 81.6376ZM14.7834 82.8066C14.8814 82.5616 15.1544 82.2396 15.7144 82.2396C16.1484 82.2396 16.4634 82.4216 16.4634 82.9046V83.1006C14.8464 83.3876 14.2374 83.7866 14.2374 84.5846C14.2374 85.2496 14.7134 85.5856 15.2734 85.5856C15.8194 85.5856 16.2254 85.2916 16.4774 85.0116L16.5334 85.5156H17.0514C17.0024 85.3266 16.9674 85.1306 16.9674 84.7316V82.8976C16.9674 82.0996 16.3234 81.8056 15.7074 81.8056C15.0214 81.8056 14.5734 82.1556 14.3424 82.5756L14.7834 82.8066ZM16.4634 84.5496C16.1694 84.8856 15.7074 85.1516 15.3434 85.1516C15.0634 85.1516 14.7414 84.9276 14.7414 84.5916C14.7414 84.0876 15.3084 83.7516 16.4634 83.5486V84.5496ZM18.0664 81.8756V85.5156H18.5704V82.7926C18.8014 82.5476 19.2354 82.2396 19.6134 82.2396C19.9774 82.2396 20.2084 82.4006 20.2084 82.8836V85.5156H20.7124V82.8696C20.7124 82.0856 20.2014 81.8056 19.6624 81.8056C19.2494 81.8056 18.8714 82.0436 18.5844 82.3656H18.5704V81.8756H18.0664ZM22.152 81.8756V86.0616C22.152 86.3346 22.04 86.4256 21.753 86.4256C21.648 86.4256 21.564 86.3976 21.487 86.3626V86.7756C21.585 86.8316 21.739 86.8596 21.907 86.8596C22.369 86.8596 22.656 86.5376 22.656 86.0966V81.8756H22.152ZM22.656 80.3916H22.152V80.9936H22.656V80.3916ZM26.0183 83.6956C26.0183 84.6336 25.6333 85.1516 25.0312 85.1516C24.4293 85.1516 24.0443 84.6336 24.0443 83.6956C24.0443 82.7576 24.4293 82.2396 25.0312 82.2396C25.6333 82.2396 26.0183 82.7576 26.0183 83.6956ZM26.5223 83.6956C26.5223 82.6456 26.0253 81.8056 25.0312 81.8056C24.0373 81.8056 23.5403 82.6456 23.5403 83.6956C23.5403 84.7456 24.0373 85.5856 25.0312 85.5856C26.0253 85.5856 26.5223 84.7456 26.5223 83.6956ZM29.2453 81.8756L28.3913 84.6546H28.3773L27.3973 81.8756H26.8653L28.1323 85.5576C27.9573 86.3556 27.4883 86.4256 27.1803 86.4256C27.0683 86.4256 26.9773 86.4116 26.9073 86.4046V86.8176C27.0053 86.8316 27.1033 86.8596 27.2713 86.8596C27.7473 86.8596 28.2303 86.6496 28.4963 85.8376L29.7773 81.8756H29.2453ZM32.7804 85.5156H34.3484C35.7204 85.5156 36.1824 84.9136 36.1824 84.1576C36.1824 83.5276 35.7764 83.0236 35.2094 82.8836L35.2024 82.8696C35.8114 82.6596 36.0564 82.2606 36.0564 81.7076C36.0564 81.0216 35.5244 80.4616 34.6424 80.4616H32.7804V85.5156ZM33.3404 83.1076H34.3064C35.1044 83.1076 35.6224 83.4856 35.6224 84.1296C35.6224 84.7596 35.2164 85.0396 34.3904 85.0396H33.3404V83.1076ZM33.3404 80.9376H34.5444C35.1884 80.9376 35.4964 81.2036 35.4964 81.7706C35.4964 82.1976 35.1674 82.6316 34.3204 82.6316H33.3404V80.9376ZM37.3164 80.4616V85.5156H37.8204V82.7926C38.0514 82.5476 38.4854 82.2396 38.8634 82.2396C39.2274 82.2396 39.4584 82.4006 39.4584 82.8836V85.5156H39.9624V82.8696C39.9624 82.0856 39.4514 81.8056 38.9124 81.8056C38.4994 81.8056 38.1214 82.0436 37.8344 82.3656H37.8204V80.4616H37.3164ZM41.423 82.8066C41.521 82.5616 41.794 82.2396 42.354 82.2396C42.788 82.2396 43.103 82.4216 43.103 82.9046V83.1006C41.486 83.3876 40.877 83.7866 40.877 84.5846C40.877 85.2496 41.353 85.5856 41.913 85.5856C42.459 85.5856 42.865 85.2916 43.117 85.0116L43.173 85.5156H43.691C43.642 85.3266 43.607 85.1306 43.607 84.7316V82.8976C43.607 82.0996 42.963 81.8056 42.347 81.8056C41.661 81.8056 41.213 82.1556 40.982 82.5756L41.423 82.8066ZM43.103 84.5496C42.809 84.8856 42.347 85.1516 41.983 85.1516C41.703 85.1516 41.381 84.9276 41.381 84.5916C41.381 84.0876 41.948 83.7516 43.103 83.5486V84.5496ZM44.209 81.8756V82.3096H44.804V84.9836C44.804 85.4456 45.035 85.5856 45.581 85.5856C45.875 85.5856 46.078 85.5576 46.169 85.5296V85.1166C46.036 85.1376 45.889 85.1516 45.721 85.1516C45.427 85.1516 45.308 85.0676 45.308 84.8996V82.3096H46.148V81.8756H45.308V80.6786H44.804V81.8756H44.209ZM46.5401 81.8756V82.3096H47.1351V84.9836C47.1351 85.4456 47.3661 85.5856 47.9121 85.5856C48.2061 85.5856 48.4091 85.5576 48.5001 85.5296V85.1166C48.3671 85.1376 48.2201 85.1516 48.0521 85.1516C47.7581 85.1516 47.6391 85.0676 47.6391 84.8996V82.3096H48.4791V81.8756H47.6391V80.6786H47.1351V81.8756H46.5401ZM49.5851 82.8066C49.6831 82.5616 49.9561 82.2396 50.5161 82.2396C50.9501 82.2396 51.2651 82.4216 51.2651 82.9046V83.1006C49.6481 83.3876 49.0391 83.7866 49.0391 84.5846C49.0391 85.2496 49.5151 85.5856 50.0751 85.5856C50.6211 85.5856 51.0271 85.2916 51.2791 85.0116L51.3351 85.5156H51.8531C51.8041 85.3266 51.7691 85.1306 51.7691 84.7316V82.8976C51.7691 82.0996 51.1251 81.8056 50.5091 81.8056C49.8231 81.8056 49.3751 82.1556 49.1441 82.5756L49.5851 82.8066ZM51.2651 84.5496C50.9711 84.8856 50.5091 85.1516 50.1451 85.1516C49.8651 85.1516 49.5431 84.9276 49.5431 84.5916C49.5431 84.0876 50.1101 83.7516 51.2651 83.5486V84.5496ZM55.3461 82.7926C55.1151 82.2256 54.7651 81.8056 54.0161 81.8056C53.1061 81.8056 52.5251 82.5196 52.5251 83.6956C52.5251 84.8716 53.1061 85.5856 54.0161 85.5856C54.7371 85.5856 55.0591 85.2776 55.4231 84.6616L55.0171 84.4796C54.7371 84.9976 54.4781 85.1516 54.0161 85.1516C53.3931 85.1516 53.0291 84.6196 53.0291 83.6956C53.0291 82.7716 53.3931 82.2396 54.0161 82.2396C54.4501 82.2396 54.7371 82.5196 54.8771 82.9606L55.3461 82.7926ZM56.3681 80.4616V85.5156H56.8721V82.7926C57.1031 82.5476 57.5371 82.2396 57.9151 82.2396C58.2791 82.2396 58.5101 82.4006 58.5101 82.8836V85.5156H59.0141V82.8696C59.0141 82.0856 58.5031 81.8056 57.9641 81.8056C57.5511 81.8056 57.1731 82.0436 56.8861 82.3656H56.8721V80.4616H56.3681ZM60.4748 82.8066C60.5728 82.5616 60.8458 82.2396 61.4058 82.2396C61.8398 82.2396 62.1548 82.4216 62.1548 82.9046V83.1006C60.5378 83.3876 59.9288 83.7866 59.9288 84.5846C59.9288 85.2496 60.4048 85.5856 60.9648 85.5856C61.5108 85.5856 61.9168 85.2916 62.1688 85.0116L62.2248 85.5156H62.7428C62.6938 85.3266 62.6588 85.1306 62.6588 84.7316V82.8976C62.6588 82.0996 62.0148 81.8056 61.3988 81.8056C60.7128 81.8056 60.2648 82.1556 60.0338 82.5756L60.4748 82.8066ZM62.1548 84.5496C61.8608 84.8856 61.3988 85.1516 61.0348 85.1516C60.7548 85.1516 60.4328 84.9276 60.4328 84.5916C60.4328 84.0876 60.9998 83.7516 62.1548 83.5486V84.5496ZM63.6248 85.5156H64.1288V83.4996C64.3668 82.7506 64.6958 82.3376 65.3258 82.3236V81.8196C64.7238 81.8196 64.4228 82.0996 64.1428 82.5966H64.1288V81.8756H63.6248V85.5156ZM67.9298 81.8756L67.0758 84.6546H67.0618L66.0818 81.8756H65.5498L66.8168 85.5576C66.6418 86.3556 66.1728 86.4256 65.8648 86.4256C65.7528 86.4256 65.6618 86.4116 65.5918 86.4046V86.8176C65.6898 86.8316 65.7878 86.8596 65.9558 86.8596C66.4318 86.8596 66.9148 86.6496 67.1808 85.8376L68.4618 81.8756H67.9298ZM69.4162 82.8066C69.5142 82.5616 69.7872 82.2396 70.3472 82.2396C70.7812 82.2396 71.0962 82.4216 71.0962 82.9046V83.1006C69.4792 83.3876 68.8702 83.7866 68.8702 84.5846C68.8702 85.2496 69.3462 85.5856 69.9062 85.5856C70.4522 85.5856 70.8582 85.2916 71.1102 85.0116L71.1662 85.5156H71.6842C71.6352 85.3266 71.6002 85.1306 71.6002 84.7316V82.8976C71.6002 82.0996 70.9562 81.8056 70.3402 81.8056C69.6542 81.8056 69.2062 82.1556 68.9752 82.5756L69.4162 82.8066ZM71.0962 84.5496C70.8022 84.8856 70.3402 85.1516 69.9762 85.1516C69.6962 85.1516 69.3742 84.9276 69.3742 84.5916C69.3742 84.0876 69.9412 83.7516 71.0962 83.5486V84.5496Z" fill="white"/>
</g>
<defs>
<clipPath id="clip0">
<rect width="150" height="100" fill="white"/>
</clipPath>
</defs>
</svg>
