<svg width="150" height="100" viewBox="0 0 150 100" fill="none" xmlns="http://www.w3.org/2000/svg">
<g clip-path="url(#clip0)">
<rect width="150" height="100" fill="white"/>
<rect x="-13.8906" width="177.778" height="100" fill="#D62B2B"/>
<path d="M150.329 105.037H144.333V92.2054H128.996C126.805 92.2054 125.029 90.1015 125.029 87.5069V64.871C124.923 64.6642 124.817 64.4558 124.713 64.2474L119.006 63.8912L113 63.5171L116.668 48.7487L120.053 35.1225C122.394 17.1704 135.533 2.98129 150.407 0.00102887C152.305 -0.37971 150.329 105.037 150.329 105.037Z" fill="#2D2D2D"/>
<path d="M14.0034 60.3762C13.7166 59.4819 13.0078 58.8237 11.7928 58.8237C9.84375 58.8237 9.25313 60.4944 9.25313 62.0469C9.25313 63.7681 10.0209 65.0844 11.6747 65.0844C12.3159 65.0844 12.7716 64.9156 13.2609 64.3756V65H14.1047V61.9203H11.8266V62.8991H12.9825C12.9572 63.5994 12.4678 64.1056 11.7084 64.1056C10.8984 64.1056 10.4175 63.2956 10.4175 62.0131C10.4175 60.6631 10.8394 59.8025 11.7 59.8025C12.3075 59.8025 12.645 60.0556 12.9234 60.6631L14.0034 60.3762ZM18.8296 61.9541C18.8296 63.38 18.3909 64.1056 17.4374 64.1056C16.4756 64.1056 16.0284 63.38 16.0452 61.9541C16.0452 60.5281 16.484 59.8025 17.4374 59.8025C18.3909 59.8025 18.8296 60.5281 18.8296 61.9541ZM19.994 61.9541C19.994 59.9628 19.0996 58.8237 17.4374 58.8237C15.7752 58.8237 14.8809 59.9628 14.8809 61.9541C14.8809 63.9453 15.7752 65.0844 17.4374 65.0844C19.0996 65.0844 19.994 63.9453 19.994 61.9541ZM24.4574 61.9541C24.4574 63.38 24.0186 64.1056 23.0652 64.1056C22.1033 64.1056 21.6561 63.38 21.673 61.9541C21.673 60.5281 22.1117 59.8025 23.0652 59.8025C24.0186 59.8025 24.4574 60.5281 24.4574 61.9541ZM25.6217 61.9541C25.6217 59.9628 24.7274 58.8237 23.0652 58.8237C21.403 58.8237 20.5086 59.9628 20.5086 61.9541C20.5086 63.9453 21.403 65.0844 23.0652 65.0844C24.7274 65.0844 25.6217 63.9453 25.6217 61.9541ZM26.5414 65H28.5579C30.1695 65 31.2832 64.1056 31.2917 61.9541C31.2832 59.8025 30.1695 58.9081 28.5579 58.9081H26.5414V65ZM27.7057 59.8869H28.482C29.8151 59.8869 30.1273 60.8656 30.1273 61.9541C30.1273 63.0425 29.8151 64.0212 28.482 64.0212H27.7057V59.8869ZM39.0852 60.3762C38.7983 59.4819 38.0896 58.8237 36.8746 58.8237C34.9255 58.8237 34.3349 60.4944 34.3349 62.0469C34.3349 63.7681 35.1027 65.0844 36.7565 65.0844C37.3977 65.0844 37.8533 64.9156 38.3427 64.3756V65H39.1865V61.9203H36.9083V62.8991H38.0643C38.039 63.5994 37.5496 64.1056 36.7902 64.1056C35.9802 64.1056 35.4993 63.2956 35.4993 62.0131C35.4993 60.6631 35.9212 59.8025 36.7818 59.8025C37.3893 59.8025 37.7268 60.0556 38.0052 60.6631L39.0852 60.3762ZM43.9114 61.9541C43.9114 63.38 43.4727 64.1056 42.5192 64.1056C41.5573 64.1056 41.1102 63.38 41.127 61.9541C41.127 60.5281 41.5658 59.8025 42.5192 59.8025C43.4727 59.8025 43.9114 60.5281 43.9114 61.9541ZM45.0758 61.9541C45.0758 59.9628 44.1814 58.8237 42.5192 58.8237C40.857 58.8237 39.9627 59.9628 39.9627 61.9541C39.9627 63.9453 40.857 65.0844 42.5192 65.0844C44.1814 65.0844 45.0758 63.9453 45.0758 61.9541ZM47.0332 65H48.3326L49.9442 58.9081H48.7967L47.666 63.3969H47.6492L46.5692 58.9081H45.4217L47.0332 65ZM54.8604 65V64.0212H51.8988V62.3169H53.9829V61.3381H51.8988V59.8869H54.7676V58.9081H50.7344V65H54.8604ZM57.0063 65V62.5194H58.0103L59.1578 65H60.4488L59.1072 62.2831C59.8497 62.0722 60.2294 61.4647 60.221 60.7137C60.2125 59.7097 59.6557 58.9081 58.2719 58.9081H55.8419V65H57.0063ZM57.0063 59.8531H58.0694C58.7107 59.8531 59.0566 60.14 59.0566 60.7137C59.0566 61.2875 58.7782 61.5744 57.8669 61.5744H57.0063V59.8531ZM62.5918 65V60.6631H62.6087L65.0978 65H66.22V58.9081H65.1231V63.0594H65.1062L62.71 58.9081H61.495V65H62.5918ZM69.4994 60.0725H69.5163L70.1998 62.7219H68.7823L69.4994 60.0725ZM67.0104 65H68.1663L68.5291 63.6837H70.4529L70.7904 65H71.9463L70.2166 58.8997H68.7654L67.0104 65ZM73.8391 65V60.6631H73.856L76.345 65H77.4672V58.9081H76.3703V63.0594H76.3535L73.9572 58.9081H72.7422V65H73.8391ZM82.9742 60.4269C82.6873 59.3469 82.0123 58.8237 80.8479 58.8237C79.2954 58.8237 78.4011 59.9628 78.4011 61.9541C78.4011 63.9453 79.2954 65.0844 80.8479 65.0844C81.9617 65.0844 82.7548 64.5444 83.1176 63.4897L82.0376 63.2028C81.6917 63.92 81.3711 64.1056 80.8479 64.1056C79.9704 64.1056 79.5486 63.38 79.5654 61.9541C79.5654 60.5281 80.0379 59.8025 80.8142 59.8025C81.3879 59.8025 81.7508 60.1653 81.9195 60.68L82.9742 60.4269ZM88.1407 65V64.0212H85.1792V62.3169H87.2632V61.3381H85.1792V59.8869H88.0479V58.9081H84.0148V65H88.1407ZM10.9828 75V68.9081H9.81844V75H10.9828ZM13.5901 75V70.6631H13.6069L16.096 75H17.2182V68.9081H16.1213V73.0594H16.1044L13.7082 68.9081H12.4932V75H13.5901ZM23.0685 70.0725H23.0854L23.7688 72.7219H22.3513L23.0685 70.0725ZM20.5794 75H21.7354L22.0982 73.6837H24.0219L24.3594 75H25.5154L23.7857 68.8997H22.3344L20.5794 75ZM29.9367 75V72.5362H30.9999C32.3161 72.5362 33.1514 71.9878 33.1514 70.7222C33.1514 69.4566 32.3161 68.9081 30.9999 68.9081H28.7724V75H29.9367ZM29.9367 69.8531H30.8649C31.7424 69.8531 31.987 70.1822 31.987 70.7222C31.987 71.2622 31.7424 71.5912 30.8649 71.5912H29.9367V69.8531ZM35.6423 70.0725H35.6592L36.3426 72.7219H34.9251L35.6423 70.0725ZM33.1533 75H34.3092L34.672 73.6837H36.5958L36.9333 75H38.0892L36.3595 68.8997H34.9083L33.1533 75ZM39.982 75V70.6631H39.9988L42.4879 75H43.6101V68.9081H42.5132V73.0594H42.4963L40.1001 68.9081H38.8851V75H39.982ZM44.949 75H46.9655C48.5771 75 49.6908 74.1056 49.6993 71.9541C49.6908 69.8025 48.5771 68.9081 46.9655 68.9081H44.949V75ZM46.1133 69.8869H46.8896C48.2227 69.8869 48.5349 70.8656 48.5349 71.9541C48.5349 73.0425 48.2227 74.0212 46.8896 74.0212H46.1133V69.8869ZM54.7533 75V74.0212H51.7917V72.3169H53.8758V71.3381H51.7917V69.8869H54.6605V68.9081H50.6273V75H54.7533ZM56.7726 75V70.2075H56.7895L58.1395 75H59.0254L60.3923 70.2075H60.4092V75H61.4217V68.9081H59.7679L58.5867 73.1606H58.5698L57.397 68.9081H55.7601V75H56.7726ZM64.088 75V68.9081H62.9236V75H64.088ZM69.7412 70.4269C69.4543 69.3469 68.7793 68.8237 67.6149 68.8237C66.0624 68.8237 65.168 69.9628 65.168 71.9541C65.168 73.9453 66.0624 75.0844 67.6149 75.0844C68.7287 75.0844 69.5218 74.5444 69.8846 73.4897L68.8046 73.2028C68.4587 73.92 68.138 74.1056 67.6149 74.1056C66.7374 74.1056 66.3155 73.38 66.3324 71.9541C66.3324 70.5281 66.8049 69.8025 67.5812 69.8025C68.1549 69.8025 68.5177 70.1653 68.6865 70.68L69.7412 70.4269Z" fill="white"/>
<path d="M9 65.8438H88.4613V66.2656H9V65.8438ZM9 75.8438H70.0702V76.2656H9V75.8438Z" fill="white"/>
<path d="M11.0361 83.8216L11.8551 82.8276L13.3601 85.5156H13.9971L12.2401 82.3656L13.8081 80.4616H13.1431L11.0501 83.0866H11.0361V80.4616H10.4761V85.5156H11.0361V83.8216ZM17.203 84.5356C16.993 84.9136 16.643 85.1516 16.195 85.1516C15.593 85.1516 15.117 84.5916 15.117 83.7936H17.483V83.4576C17.483 82.2956 16.853 81.8056 16.097 81.8056C15.201 81.8056 14.613 82.5196 14.613 83.6956C14.613 85.0256 15.383 85.5856 16.195 85.5856C17.021 85.5856 17.357 85.1516 17.595 84.7386L17.203 84.5356ZM15.131 83.3596C15.173 82.6876 15.502 82.2396 16.111 82.2396C16.657 82.2396 16.979 82.6876 16.979 83.3596H15.131ZM18.554 85.5156H19.058V81.8756H18.554V85.5156ZM18.554 80.3916V80.9936H19.058V80.3916H18.554ZM20.6003 81.8756V86.0616C20.6003 86.3346 20.4883 86.4256 20.2013 86.4256C20.0963 86.4256 20.0122 86.3976 19.9353 86.3626V86.7756C20.0333 86.8316 20.1873 86.8596 20.3553 86.8596C20.8173 86.8596 21.1043 86.5376 21.1043 86.0966V81.8756H20.6003ZM21.1043 80.3916H20.6003V80.9936H21.1043V80.3916ZM22.4505 85.5156H22.9545V81.8756H22.4505V85.5156ZM22.4505 80.3916V80.9936H22.9545V80.3916H22.4505ZM26.5105 80.4616V85.5156H27.0705V83.1076H28.8765V82.6316H27.0705V80.9376H29.5065V80.4616H26.5105ZM32.9692 85.5156V81.8756H32.4652V84.5986C32.2342 84.8436 31.8002 85.1516 31.4222 85.1516C31.0582 85.1516 30.8272 84.9906 30.8272 84.5076V81.8756H30.3232V84.5216C30.3232 85.3056 30.8342 85.5856 31.3732 85.5856C31.7862 85.5856 32.1642 85.3476 32.4512 85.0256H32.4652V85.5156H32.9692ZM34.1778 85.5156H34.6818V84.4236L35.3538 83.6536L36.3198 85.5156H36.9148L35.7038 83.2196L36.7748 81.8756H36.1658L34.6958 83.7166H34.6818V80.4616H34.1778V85.5156ZM40.3588 85.5156V81.8756H39.8548V84.5986C39.6238 84.8436 39.1898 85.1516 38.8118 85.1516C38.4478 85.1516 38.2168 84.9906 38.2168 84.5076V81.8756H37.7128V84.5216C37.7128 85.3056 38.2238 85.5856 38.7628 85.5856C39.1758 85.5856 39.5538 85.3476 39.8408 85.0256H39.8548V85.5156H40.3588ZM43.7515 80.4616V82.2256L43.7235 82.2116C43.4435 81.9806 43.1075 81.8056 42.7645 81.8056C42.1485 81.8056 41.3015 82.2816 41.3015 83.6956C41.3015 85.1516 42.1485 85.5856 42.7925 85.5856C43.2265 85.5856 43.5835 85.3896 43.7515 85.1586L43.8215 85.5156H44.2835C44.2415 85.2496 44.2555 84.9836 44.2555 84.7176V80.4616H43.7515ZM43.7515 84.6616C43.3945 85.0116 43.1565 85.1516 42.8345 85.1516C42.2045 85.1516 41.8055 84.6476 41.8055 83.7236C41.8055 82.6246 42.2465 82.2396 42.8345 82.2396C43.1355 82.2396 43.4785 82.4426 43.7515 82.7436V84.6616ZM45.7091 82.8066C45.8071 82.5616 46.0801 82.2396 46.6401 82.2396C47.0741 82.2396 47.3891 82.4216 47.3891 82.9046V83.1006C45.7721 83.3876 45.1631 83.7866 45.1631 84.5846C45.1631 85.2496 45.6391 85.5856 46.1991 85.5856C46.7451 85.5856 47.1511 85.2916 47.4031 85.0116L47.4591 85.5156H47.9771C47.9281 85.3266 47.8931 85.1306 47.8931 84.7316V82.8976C47.8931 82.0996 47.2491 81.8056 46.6331 81.8056C45.9471 81.8056 45.4991 82.1556 45.2681 82.5756L45.7091 82.8066ZM47.3891 84.5496C47.0951 84.8856 46.6331 85.1516 46.2691 85.1516C45.9891 85.1516 45.6671 84.9276 45.6671 84.5916C45.6671 84.0876 46.2341 83.7516 47.3891 83.5486V84.5496Z" fill="white"/>
</g>
<defs>
<clipPath id="clip0">
<rect width="150" height="100" fill="white"/>
</clipPath>
</defs>
</svg>
