<svg width="150" height="100" viewBox="0 0 150 100" fill="none" xmlns="http://www.w3.org/2000/svg">
<g clip-path="url(#clip0)">
<rect width="150" height="100" fill="white"/>
<rect x="-13.8906" width="177.778" height="100" fill="#D62B2B"/>
<path d="M150.329 105.037H144.333V92.2054H128.996C126.805 92.2054 125.029 90.1015 125.029 87.5069V64.871C124.923 64.6642 124.817 64.4558 124.713 64.2474L119.006 63.8912L113 63.5171L116.668 48.7487L120.053 35.1225C122.394 17.1704 135.533 2.98129 150.407 0.00102887C152.305 -0.37971 150.329 105.037 150.329 105.037Z" fill="#2D2D2D"/>
<path d="M13.8263 60.4269C13.5394 59.3469 12.8644 58.8237 11.7 58.8237C10.1475 58.8237 9.25313 59.9628 9.25313 61.9541C9.25313 63.9453 10.1475 65.0844 11.7 65.0844C12.8138 65.0844 13.6069 64.5444 13.9697 63.4897L12.8897 63.2028C12.5438 63.92 12.2231 64.1056 11.7 64.1056C10.8225 64.1056 10.4006 63.38 10.4175 61.9541C10.4175 60.5281 10.89 59.8025 11.6663 59.8025C12.24 59.8025 12.6028 60.1653 12.7716 60.68L13.8263 60.4269ZM18.36 61.9541C18.36 63.38 17.9212 64.1056 16.9678 64.1056C16.0059 64.1056 15.5587 63.38 15.5756 61.9541C15.5756 60.5281 16.0143 59.8025 16.9678 59.8025C17.9212 59.8025 18.36 60.5281 18.36 61.9541ZM19.5243 61.9541C19.5243 59.9628 18.63 58.8237 16.9678 58.8237C15.3056 58.8237 14.4112 59.9628 14.4112 61.9541C14.4112 63.9453 15.3056 65.0844 16.9678 65.0844C18.63 65.0844 19.5243 63.9453 19.5243 61.9541ZM21.5661 65V60.6631H21.583L24.0721 65H25.1943V58.9081H24.0974V63.0594H24.0805L21.6843 58.9081H20.4693V65H21.5661ZM30.4734 60.1991C30.1106 59.3131 29.3006 58.8237 28.3219 58.8237C27.2672 58.8237 26.3559 59.4397 26.3559 60.5281C26.3559 62.4012 29.4947 62.165 29.4947 63.3631C29.4947 63.9537 29.0475 64.1731 28.4653 64.1731C27.7819 64.1731 27.4191 63.7934 27.1406 63.2197L26.1788 63.6416C26.5247 64.5275 27.4613 65.0844 28.4569 65.0844C29.8069 65.0844 30.5916 64.46 30.5916 63.2112C30.5916 61.2369 27.4528 61.4562 27.4528 60.41C27.4528 59.9375 27.8156 59.735 28.3219 59.735C28.8703 59.735 29.2331 60.0556 29.4103 60.5281L30.4734 60.1991ZM32.7712 65V62.5362H33.8343C35.1506 62.5362 35.9859 61.9878 35.9859 60.7222C35.9859 59.4566 35.1506 58.9081 33.8343 58.9081H31.6068V65H32.7712ZM32.7712 59.8531H33.6993C34.5768 59.8531 34.8215 60.1822 34.8215 60.7222C34.8215 61.2622 34.5768 61.5912 33.6993 61.5912H32.7712V59.8531ZM38.174 65V58.9081H37.0096V65H38.174ZM40.8234 65V62.5194H41.8275L42.975 65H44.2659L42.9244 62.2831C43.6669 62.0722 44.0465 61.4647 44.0381 60.7137C44.0297 59.7097 43.4728 58.9081 42.089 58.9081H39.659V65H40.8234ZM40.8234 59.8531H41.8865C42.5278 59.8531 42.8737 60.14 42.8737 60.7137C42.8737 61.2875 42.5953 61.5744 41.684 61.5744H40.8234V59.8531ZM47.2274 60.0725H47.2443L47.9277 62.7219H46.5102L47.2274 60.0725ZM44.7383 65H45.8943L46.2571 63.6837H48.1808L48.5183 65H49.6743L47.9446 58.8997H46.4933L44.7383 65ZM54.613 60.4269C54.3261 59.3469 53.6511 58.8237 52.4867 58.8237C50.9342 58.8237 50.0399 59.9628 50.0399 61.9541C50.0399 63.9453 50.9342 65.0844 52.4867 65.0844C53.6005 65.0844 54.3936 64.5444 54.7564 63.4897L53.6764 63.2028C53.3305 63.92 53.0099 64.1056 52.4867 64.1056C51.6092 64.1056 51.1874 63.38 51.2042 61.9541C51.2042 60.5281 51.6767 59.8025 52.453 59.8025C53.0267 59.8025 53.3896 60.1653 53.5583 60.68L54.613 60.4269ZM56.9276 65V58.9081H55.7633V65H56.9276ZM62.5893 65V64.0212H59.6277V62.3169H61.7118V61.3381H59.6277V59.8869H62.4965V58.9081H58.4633V65H62.5893ZM67.5111 60.1991C67.1483 59.3131 66.3383 58.8237 65.3595 58.8237C64.3048 58.8237 63.3936 59.4397 63.3936 60.5281C63.3936 62.4012 66.5323 62.165 66.5323 63.3631C66.5323 63.9537 66.0852 64.1731 65.503 64.1731C64.8195 64.1731 64.4567 63.7934 64.1783 63.2197L63.2164 63.6416C63.5623 64.5275 64.4989 65.0844 65.4945 65.0844C66.8445 65.0844 67.6292 64.46 67.6292 63.2112C67.6292 61.2369 64.4905 61.4562 64.4905 60.41C64.4905 59.9375 64.8533 59.735 65.3595 59.735C65.908 59.735 66.2708 60.0556 66.448 60.5281L67.5111 60.1991ZM73.2403 60.0725H73.2572L73.9406 62.7219H72.5231L73.2403 60.0725ZM70.7512 65H71.9072L72.27 63.6837H74.1937L74.5312 65H75.6872L73.9575 58.8997H72.5062L70.7512 65ZM77.5799 65V60.6631H77.5968L80.0859 65H81.2081V58.9081H80.1112V63.0594H80.0943L77.6981 58.9081H76.4831V65H77.5799ZM82.5469 65H84.5635C86.175 65 87.2888 64.1056 87.2972 61.9541C87.2888 59.8025 86.175 58.9081 84.5635 58.9081H82.5469V65ZM83.7113 59.8869H84.4875C85.8207 59.8869 86.1329 60.8656 86.1329 61.9541C86.1329 63.0425 85.8207 64.0212 84.4875 64.0212H83.7113V59.8869ZM9.16875 68.8997V69.8784H10.7634V75H11.9278V69.8784H13.5225V68.8997H9.16875ZM15.5109 75V72.5194H16.515L17.6625 75H18.9534L17.6119 72.2831C18.3544 72.0722 18.734 71.4647 18.7256 70.7137C18.7172 69.7097 18.1603 68.9081 16.7765 68.9081H14.3465V75H15.5109ZM15.5109 69.8531H16.574C17.2153 69.8531 17.5612 70.14 17.5612 70.7137C17.5612 71.2875 17.2828 71.5744 16.3715 71.5744H15.5109V69.8531ZM23.5349 72.7725C23.5349 73.7597 23.1468 74.1056 22.3621 74.1056C21.5774 74.1056 21.1893 73.7597 21.1893 72.7725V68.9081H20.0249V72.7219C20.0249 74.5022 21.1218 75.0844 22.3621 75.0844C23.6024 75.0844 24.6993 74.5022 24.6993 72.7219V68.9081H23.5349V72.7725ZM30.0038 70.1991C29.641 69.3131 28.831 68.8237 27.8522 68.8237C26.7975 68.8237 25.8863 69.4397 25.8863 70.5281C25.8863 72.4012 29.025 72.165 29.025 73.3631C29.025 73.9537 28.5778 74.1731 27.9956 74.1731C27.3122 74.1731 26.9494 73.7934 26.671 73.2197L25.7091 73.6416C26.055 74.5275 26.9916 75.0844 27.9872 75.0844C29.3372 75.0844 30.1219 74.46 30.1219 73.2112C30.1219 71.2369 26.9831 71.4562 26.9831 70.41C26.9831 69.9375 27.346 69.735 27.8522 69.735C28.4006 69.735 28.7635 70.0556 28.9406 70.5281L30.0038 70.1991ZM30.7322 68.8997V69.8784H32.3269V75H33.4912V69.8784H35.0859V68.8997H30.7322ZM39.8054 75V68.9081H38.6411V75H39.8054ZM42.4127 75V70.6631H42.4296L44.9186 75H46.0408V68.9081H44.9439V73.0594H44.9271L42.5308 68.9081H41.3158V75H42.4127ZM51.8911 70.0725H51.908L52.5914 72.7219H51.1739L51.8911 70.0725ZM49.402 75H50.558L50.9208 73.6837H52.8445L53.182 75H54.338L52.6083 68.8997H51.157L49.402 75ZM58.7594 75V72.5362H59.8225C61.1387 72.5362 61.9741 71.9878 61.9741 70.7222C61.9741 69.4566 61.1387 68.9081 59.8225 68.9081H57.595V75H58.7594ZM58.7594 69.8531H59.6875C60.565 69.8531 60.8097 70.1822 60.8097 70.7222C60.8097 71.2622 60.565 71.5912 59.6875 71.5912H58.7594V69.8531ZM64.465 70.0725H64.4818L65.1653 72.7219H63.7478L64.465 70.0725ZM61.9759 75H63.1318L63.4946 73.6837H65.4184L65.7559 75H66.9118L65.1821 68.8997H63.7309L61.9759 75ZM68.8046 75V70.6631H68.8215L71.3105 75H72.4327V68.9081H71.3359V73.0594H71.319L68.9227 68.9081H67.7077V75H68.8046ZM73.7716 75H75.7882C77.3997 75 78.5135 74.1056 78.5219 71.9541C78.5135 69.8025 77.3997 68.9081 75.7882 68.9081H73.7716V75ZM74.936 69.8869H75.7122C77.0453 69.8869 77.3575 70.8656 77.3575 71.9541C77.3575 73.0425 77.0453 74.0212 75.7122 74.0212H74.936V69.8869ZM83.5759 75V74.0212H80.6143V72.3169H82.6984V71.3381H80.6143V69.8869H83.4831V68.9081H79.45V75H83.5759ZM85.5952 75V70.2075H85.6121L86.9621 75H87.848L89.2149 70.2075H89.2318V75H90.2443V68.9081H88.5905L87.4093 73.1606H87.3924L86.2196 68.9081H84.5827V75H85.5952ZM92.9106 75V68.9081H91.7462V75H92.9106ZM98.5638 70.4269C98.2769 69.3469 97.6019 68.8237 96.4375 68.8237C94.885 68.8237 93.9907 69.9628 93.9907 71.9541C93.9907 73.9453 94.885 75.0844 96.4375 75.0844C97.5513 75.0844 98.3444 74.5444 98.7072 73.4897L97.6272 73.2028C97.2813 73.92 96.9607 74.1056 96.4375 74.1056C95.56 74.1056 95.1382 73.38 95.155 71.9541C95.155 70.5281 95.6275 69.8025 96.4038 69.8025C96.9775 69.8025 97.3404 70.1653 97.5091 70.68L98.5638 70.4269Z" fill="white"/>
<path d="M9 65.8438H87.5166V66.2656H9V65.8438ZM9 75.8438H98.8929V76.2656H9V75.8438Z" fill="white"/>
<path d="M13.3041 81.6376C13.0381 80.8046 12.4221 80.3916 11.6381 80.3916C10.7281 80.3916 10.1191 80.9656 10.1191 81.6936C10.1191 83.2896 12.9611 82.9116 12.9611 84.1996C12.9611 84.7176 12.5901 85.1096 11.8481 85.1096C11.1061 85.1096 10.7281 84.6196 10.5251 84.0876L10.0141 84.2696C10.2801 84.8716 10.7141 85.5856 11.8201 85.5856C13.1081 85.5856 13.5211 84.8366 13.5211 84.1016C13.5211 82.4776 10.6651 82.7576 10.6791 81.6516C10.6861 81.1476 11.0361 80.8676 11.6241 80.8676C12.2751 80.8676 12.6741 81.2596 12.8001 81.7496L13.3041 81.6376ZM14.0694 81.8756V82.3096H14.6644V84.9836C14.6644 85.4456 14.8954 85.5856 15.4414 85.5856C15.7354 85.5856 15.9384 85.5576 16.0294 85.5296V85.1166C15.8964 85.1376 15.7494 85.1516 15.5814 85.1516C15.2874 85.1516 15.1684 85.0676 15.1684 84.8996V82.3096H16.0084V81.8756H15.1684V80.6786H14.6644V81.8756H14.0694ZM19.1444 84.5356C18.9344 84.9136 18.5844 85.1516 18.1364 85.1516C17.5344 85.1516 17.0584 84.5916 17.0584 83.7936H19.4244V83.4576C19.4244 82.2956 18.7944 81.8056 18.0384 81.8056C17.1424 81.8056 16.5544 82.5196 16.5544 83.6956C16.5544 85.0256 17.3244 85.5856 18.1364 85.5856C18.9624 85.5856 19.2984 85.1516 19.5364 84.7386L19.1444 84.5356ZM17.0724 83.3596C17.1144 82.6876 17.4434 82.2396 18.0524 82.2396C18.5984 82.2396 18.9204 82.6876 18.9204 83.3596H17.0724ZM20.8944 86.8596V85.1656L20.9224 85.1796C21.2024 85.4106 21.5384 85.5856 21.8814 85.5856C22.4974 85.5856 23.3444 85.1096 23.3444 83.6956C23.3444 82.2396 22.4974 81.8056 21.8534 81.8056C21.5034 81.8056 21.0974 82.0296 20.9084 82.3026H20.8944V81.8756H20.3904V86.8596H20.8944ZM20.8944 82.7296C21.2514 82.3796 21.4894 82.2396 21.8114 82.2396C22.4414 82.2396 22.8404 82.7436 22.8404 83.6676C22.8404 84.7666 22.3994 85.1516 21.8114 85.1516C21.5104 85.1516 21.1674 84.9486 20.8944 84.6476V82.7296ZM24.2871 80.4616V85.5156H24.7911V82.7926C25.0221 82.5476 25.4561 82.2396 25.8341 82.2396C26.1981 82.2396 26.4291 82.4006 26.4291 82.8836V85.5156H26.9331V82.8696C26.9331 82.0856 26.4221 81.8056 25.8831 81.8056C25.4701 81.8056 25.0921 82.0436 24.8051 82.3656H24.7911V80.4616H24.2871ZM28.3937 82.8066C28.4917 82.5616 28.7647 82.2396 29.3247 82.2396C29.7587 82.2396 30.0737 82.4216 30.0737 82.9046V83.1006C28.4567 83.3876 27.8477 83.7866 27.8477 84.5846C27.8477 85.2496 28.3237 85.5856 28.8837 85.5856C29.4297 85.5856 29.8357 85.2916 30.0877 85.0116L30.1437 85.5156H30.6617C30.6127 85.3266 30.5777 85.1306 30.5777 84.7316V82.8976C30.5777 82.0996 29.9337 81.8056 29.3177 81.8056C28.6317 81.8056 28.1837 82.1556 27.9527 82.5756L28.3937 82.8066ZM30.0737 84.5496C29.7797 84.8856 29.3177 85.1516 28.9537 85.1516C28.6737 85.1516 28.3517 84.9276 28.3517 84.5916C28.3517 84.0876 28.9187 83.7516 30.0737 83.5486V84.5496ZM31.6767 81.8756V85.5156H32.1807V82.7926C32.4117 82.5476 32.8457 82.2396 33.2237 82.2396C33.5877 82.2396 33.8187 82.4006 33.8187 82.8836V85.5156H34.3227V82.8696C34.3227 82.0856 33.8117 81.8056 33.2727 81.8056C32.8597 81.8056 32.4817 82.0436 32.1947 82.3656H32.1807V81.8756H31.6767ZM40.7862 85.5156V85.0396H38.3922V80.4616H37.8322V85.5156H40.7862ZM43.8358 84.5356C43.6258 84.9136 43.2758 85.1516 42.8278 85.1516C42.2258 85.1516 41.7498 84.5916 41.7498 83.7936H44.1158V83.4576C44.1158 82.2956 43.4858 81.8056 42.7298 81.8056C41.8338 81.8056 41.2458 82.5196 41.2458 83.6956C41.2458 85.0256 42.0158 85.5856 42.8278 85.5856C43.6538 85.5856 43.9898 85.1516 44.2278 84.7386L43.8358 84.5356ZM41.7638 83.3596C41.8058 82.6876 42.1348 82.2396 42.7438 82.2396C43.2898 82.2396 43.6118 82.6876 43.6118 83.3596H41.7638ZM45.5648 85.5156H46.0758L46.7968 82.7016H46.8108L47.5388 85.5156H48.0498L49.0228 81.8756H48.5118L47.8048 84.6896H47.7908L47.0628 81.8756H46.5518L45.8378 84.6756H45.8238L45.0888 81.8756H44.5778L45.5648 85.5156ZM49.9748 82.8066C50.0728 82.5616 50.3458 82.2396 50.9058 82.2396C51.3398 82.2396 51.6548 82.4216 51.6548 82.9046V83.1006C50.0378 83.3876 49.4288 83.7866 49.4288 84.5846C49.4288 85.2496 49.9048 85.5856 50.4648 85.5856C51.0108 85.5856 51.4168 85.2916 51.6688 85.0116L51.7248 85.5156H52.2428C52.1938 85.3266 52.1588 85.1306 52.1588 84.7316V82.8976C52.1588 82.0996 51.5148 81.8056 50.8988 81.8056C50.2128 81.8056 49.7648 82.1556 49.5338 82.5756L49.9748 82.8066ZM51.6548 84.5496C51.3608 84.8856 50.8988 85.1516 50.5348 85.1516C50.2548 85.1516 49.9328 84.9276 49.9328 84.5916C49.9328 84.0876 50.4998 83.7516 51.6548 83.5486V84.5496ZM53.2578 81.8756V85.5156H53.7618V82.7926C53.9928 82.5476 54.4268 82.2396 54.8048 82.2396C55.1688 82.2396 55.3998 82.4006 55.3998 82.8836V85.5156H55.9038V82.8696C55.9038 82.0856 55.3928 81.8056 54.8538 81.8056C54.4408 81.8056 54.0628 82.0436 53.7758 82.3656H53.7618V81.8756H53.2578ZM59.2964 80.4616V82.2256L59.2684 82.2116C58.9884 81.9806 58.6524 81.8056 58.3094 81.8056C57.6934 81.8056 56.8464 82.2816 56.8464 83.6956C56.8464 85.1516 57.6934 85.5856 58.3374 85.5856C58.7714 85.5856 59.1284 85.3896 59.2964 85.1586L59.3664 85.5156H59.8284C59.7864 85.2496 59.8004 84.9836 59.8004 84.7176V80.4616H59.2964ZM59.2964 84.6616C58.9394 85.0116 58.7014 85.1516 58.3794 85.1516C57.7494 85.1516 57.3504 84.6476 57.3504 83.7236C57.3504 82.6246 57.7914 82.2396 58.3794 82.2396C58.6804 82.2396 59.0234 82.4426 59.2964 82.7436V84.6616ZM63.1511 83.6956C63.1511 84.6336 62.7661 85.1516 62.1641 85.1516C61.5621 85.1516 61.1771 84.6336 61.1771 83.6956C61.1771 82.7576 61.5621 82.2396 62.1641 82.2396C62.7661 82.2396 63.1511 82.7576 63.1511 83.6956ZM63.6551 83.6956C63.6551 82.6456 63.1581 81.8056 62.1641 81.8056C61.1701 81.8056 60.6731 82.6456 60.6731 83.6956C60.6731 84.7456 61.1701 85.5856 62.1641 85.5856C63.1581 85.5856 63.6551 84.7456 63.6551 83.6956ZM65.0131 85.5156H65.5241L66.2451 82.7016H66.2591L66.9871 85.5156H67.4981L68.4711 81.8756H67.9601L67.2531 84.6896H67.2391L66.5111 81.8756H66.0001L65.2861 84.6756H65.2721L64.5371 81.8756H64.0261L65.0131 85.5156ZM68.751 84.8926C69.087 85.3406 69.64 85.5856 70.207 85.5856C70.865 85.5856 71.481 85.2286 71.481 84.5216C71.481 83.1636 69.367 83.5696 69.367 82.7786C69.367 82.4566 69.598 82.2396 70.025 82.2396C70.417 82.2396 70.683 82.4076 70.963 82.7506L71.313 82.4426C71.068 82.0716 70.543 81.8126 70.067 81.8056C69.367 81.7986 68.884 82.1556 68.863 82.7856C68.821 84.1156 70.977 83.6256 70.977 84.5496C70.977 84.8576 70.739 85.1516 70.193 85.1516C69.738 85.1516 69.388 84.9346 69.15 84.5916L68.751 84.8926ZM72.2814 85.5156H72.7854V84.4236L73.4574 83.6536L74.4234 85.5156H75.0184L73.8074 83.2196L74.8784 81.8756H74.2694L72.7994 83.7166H72.7854V80.4616H72.2814V85.5156ZM77.6574 81.8756L76.8034 84.6546H76.7894L75.8094 81.8756H75.2774L76.5444 85.5576C76.3694 86.3556 75.9004 86.4256 75.5924 86.4256C75.4804 86.4256 75.3894 86.4116 75.3194 86.4046V86.8176C75.4174 86.8316 75.5154 86.8596 75.6834 86.8596C76.1594 86.8596 76.6424 86.6496 76.9084 85.8376L78.1894 81.8756H77.6574Z" fill="white"/>
</g>
<defs>
<clipPath id="clip0">
<rect width="150" height="100" fill="white"/>
</clipPath>
</defs>
</svg>
