<svg width="150" height="100" viewBox="0 0 150 100" fill="none" xmlns="http://www.w3.org/2000/svg">
<g clip-path="url(#clip0)">
<rect width="150" height="100" fill="white"/>
<rect x="-13.8906" width="177.778" height="100" fill="#D62B2B"/>
<path d="M150.329 105.037H144.333V92.2054H128.996C126.805 92.2054 125.029 90.1015 125.029 87.5069V64.871C124.923 64.6642 124.817 64.4558 124.713 64.2474L119.006 63.8912L113 63.5171L116.668 48.7487L120.053 35.1225C122.394 17.1704 135.533 2.98129 150.407 0.00102887C152.305 -0.37971 150.329 105.037 150.329 105.037Z" fill="#2D2D2D"/>
<path d="M13.8263 60.4269C13.5394 59.3469 12.8644 58.8237 11.7 58.8237C10.1475 58.8237 9.25313 59.9628 9.25313 61.9541C9.25313 63.9453 10.1475 65.0844 11.7 65.0844C12.8138 65.0844 13.6069 64.5444 13.9697 63.4897L12.8897 63.2028C12.5438 63.92 12.2231 64.1056 11.7 64.1056C10.8225 64.1056 10.4006 63.38 10.4175 61.9541C10.4175 60.5281 10.89 59.8025 11.6663 59.8025C12.24 59.8025 12.6028 60.1653 12.7716 60.68L13.8263 60.4269ZM18.36 61.9541C18.36 63.38 17.9212 64.1056 16.9678 64.1056C16.0059 64.1056 15.5587 63.38 15.5756 61.9541C15.5756 60.5281 16.0143 59.8025 16.9678 59.8025C17.9212 59.8025 18.36 60.5281 18.36 61.9541ZM19.5243 61.9541C19.5243 59.9628 18.63 58.8237 16.9678 58.8237C15.3056 58.8237 14.4112 59.9628 14.4112 61.9541C14.4112 63.9453 15.3056 65.0844 16.9678 65.0844C18.63 65.0844 19.5243 63.9453 19.5243 61.9541ZM21.4818 65V60.2075H21.4986L22.8486 65H23.7346L25.1015 60.2075H25.1183V65H26.1308V58.9081H24.4771L23.2958 63.1606H23.279L22.1061 58.9081H20.4693V65H21.4818ZM28.5103 65V60.2075H28.5271L29.8771 65H30.7631L32.13 60.2075H32.1468V65H33.1593V58.9081H31.5056L30.3243 63.1606H30.3075L29.1346 58.9081H27.4978V65H28.5103ZM38.0616 62.7725C38.0616 63.7597 37.6735 64.1056 36.8888 64.1056C36.1041 64.1056 35.716 63.7597 35.716 62.7725V58.9081H34.5516V62.7219C34.5516 64.5022 35.6485 65.0844 36.8888 65.0844C38.1291 65.0844 39.226 64.5022 39.226 62.7219V58.9081H38.0616V62.7725ZM41.7123 65V60.6631H41.7292L44.2183 65H45.3404V58.9081H44.2436V63.0594H44.2267L41.8304 58.9081H40.6154V65H41.7123ZM48.004 65V58.9081H46.8396V65H48.004ZM48.9997 58.8997V59.8784H50.5944V65H51.7587V59.8784H53.3534V58.8997H48.9997ZM54.8187 58.9081H53.6037L55.2828 62.57V65H56.4472V62.57L58.1262 58.9081H56.9112L55.865 61.3212L54.8187 58.9081ZM63.3773 60.0725H63.3942L64.0776 62.7219H62.6601L63.3773 60.0725ZM60.8883 65H62.0442L62.407 63.6837H64.3308L64.6683 65H65.8242L64.0945 58.8997H62.6433L60.8883 65ZM67.717 65V60.6631H67.7338L70.2229 65H71.3451V58.9081H70.2482V63.0594H70.2313L67.8351 58.9081H66.6201V65H67.717ZM72.6839 65H74.7005C76.3121 65 77.4258 64.1056 77.4343 61.9541C77.4258 59.8025 76.3121 58.9081 74.7005 58.9081H72.6839V65ZM73.8483 59.8869H74.6246C75.9577 59.8869 76.2699 60.8656 76.2699 61.9541C76.2699 63.0425 75.9577 64.0212 74.6246 64.0212H73.8483V59.8869ZM85.0506 60.4269C84.7637 59.3469 84.0887 58.8237 82.9244 58.8237C81.3719 58.8237 80.4775 59.9628 80.4775 61.9541C80.4775 63.9453 81.3719 65.0844 82.9244 65.0844C84.0381 65.0844 84.8312 64.5444 85.1941 63.4897L84.1141 63.2028C83.7681 63.92 83.4475 64.1056 82.9244 64.1056C82.0469 64.1056 81.625 63.38 81.6419 61.9541C81.6419 60.5281 82.1144 59.8025 82.8906 59.8025C83.4644 59.8025 83.8272 60.1653 83.9959 60.68L85.0506 60.4269ZM87.9812 60.0725H87.9981L88.6815 62.7219H87.264L87.9812 60.0725ZM85.4921 65H86.6481L87.0109 63.6837H88.9346L89.2721 65H90.4281L88.6984 58.8997H87.2471L85.4921 65ZM92.363 65V62.5194H93.3671L94.5146 65H95.8055L94.464 62.2831C95.2065 62.0722 95.5862 61.4647 95.5777 60.7137C95.5693 59.7097 95.0124 58.9081 93.6287 58.9081H91.1987V65H92.363ZM92.363 59.8531H93.4262C94.0674 59.8531 94.4133 60.14 94.4133 60.7137C94.4133 61.2875 94.1349 61.5744 93.2237 61.5744H92.363V59.8531ZM101.003 65V64.0212H98.0414V62.3169H100.125V61.3381H98.0414V59.8869H100.91V58.9081H96.877V65H101.003ZM10.9828 75V68.9081H9.81844V75H10.9828ZM13.5901 75V70.6631H13.6069L16.096 75H17.2182V68.9081H16.1213V73.0594H16.1044L13.7082 68.9081H12.4932V75H13.5901ZM23.0685 70.0725H23.0854L23.7688 72.7219H22.3513L23.0685 70.0725ZM20.5794 75H21.7354L22.0982 73.6837H24.0219L24.3594 75H25.5154L23.7857 68.8997H22.3344L20.5794 75ZM29.9367 75V72.5362H30.9999C32.3161 72.5362 33.1514 71.9878 33.1514 70.7222C33.1514 69.4566 32.3161 68.9081 30.9999 68.9081H28.7724V75H29.9367ZM29.9367 69.8531H30.8649C31.7424 69.8531 31.987 70.1822 31.987 70.7222C31.987 71.2622 31.7424 71.5912 30.8649 71.5912H29.9367V69.8531ZM35.6423 70.0725H35.6592L36.3426 72.7219H34.9251L35.6423 70.0725ZM33.1533 75H34.3092L34.672 73.6837H36.5958L36.9333 75H38.0892L36.3595 68.8997H34.9083L33.1533 75ZM39.982 75V70.6631H39.9988L42.4879 75H43.6101V68.9081H42.5132V73.0594H42.4963L40.1001 68.9081H38.8851V75H39.982ZM44.949 75H46.9655C48.5771 75 49.6908 74.1056 49.6993 71.9541C49.6908 69.8025 48.5771 68.9081 46.9655 68.9081H44.949V75ZM46.1133 69.8869H46.8896C48.2227 69.8869 48.5349 70.8656 48.5349 71.9541C48.5349 73.0425 48.2227 74.0212 46.8896 74.0212H46.1133V69.8869ZM54.7533 75V74.0212H51.7917V72.3169H53.8758V71.3381H51.7917V69.8869H54.6605V68.9081H50.6273V75H54.7533ZM56.7726 75V70.2075H56.7895L58.1395 75H59.0254L60.3923 70.2075H60.4092V75H61.4217V68.9081H59.7679L58.5867 73.1606H58.5698L57.397 68.9081H55.7601V75H56.7726ZM64.088 75V68.9081H62.9236V75H64.088ZM69.7412 70.4269C69.4543 69.3469 68.7793 68.8237 67.6149 68.8237C66.0624 68.8237 65.168 69.9628 65.168 71.9541C65.168 73.9453 66.0624 75.0844 67.6149 75.0844C68.7287 75.0844 69.5218 74.5444 69.8846 73.4897L68.8046 73.2028C68.4587 73.92 68.138 74.1056 67.6149 74.1056C66.7374 74.1056 66.3155 73.38 66.3324 71.9541C66.3324 70.5281 66.8049 69.8025 67.5812 69.8025C68.1549 69.8025 68.5177 70.1653 68.6865 70.68L69.7412 70.4269Z" fill="white"/>
<path d="M9 65.8438H101.324V66.2656H9V65.8438ZM9 75.8438H70.0702V76.2656H9V75.8438Z" fill="white"/>
<path d="M11.5121 80.4616V84.3606C11.5121 84.9416 11.2391 85.1096 10.8961 85.1096C10.5811 85.1096 10.3011 84.9206 10.1401 84.6616L9.72006 84.9346C9.98606 85.2776 10.3221 85.5856 10.9101 85.5856C11.6661 85.5856 12.0721 85.1656 12.0721 84.2136V80.4616H11.5121ZM13.4954 85.5156H13.9994V81.8756H13.4954V85.5156ZM13.4954 80.3916V80.9936H13.9994V80.3916H13.4954ZM15.8007 85.5156V82.7996C16.0737 82.5336 16.3677 82.2396 16.8157 82.2396C17.1377 82.2396 17.3827 82.4216 17.3827 82.9116V85.5156H17.8867V82.7996C18.1597 82.5336 18.4537 82.2396 18.9017 82.2396C19.2237 82.2396 19.4687 82.4216 19.4687 82.9116V85.5156H19.9727V82.9116C19.9727 82.0086 19.4547 81.8056 18.9717 81.8056C18.5447 81.8056 18.1387 82.0366 17.8167 82.3796C17.6837 82.0436 17.3547 81.8056 16.8857 81.8056C16.5357 81.8056 16.1367 81.9876 15.8287 82.3306L15.8007 82.3586V81.8756H15.2967V85.5156H15.8007ZM21.6317 85.5156V82.7996C21.9047 82.5336 22.1987 82.2396 22.6467 82.2396C22.9687 82.2396 23.2137 82.4216 23.2137 82.9116V85.5156H23.7177V82.7996C23.9907 82.5336 24.2847 82.2396 24.7327 82.2396C25.0547 82.2396 25.2997 82.4216 25.2997 82.9116V85.5156H25.8037V82.9116C25.8037 82.0086 25.2857 81.8056 24.8027 81.8056C24.3757 81.8056 23.9697 82.0366 23.6477 82.3796C23.5147 82.0436 23.1857 81.8056 22.7167 81.8056C22.3667 81.8056 21.9677 81.9876 21.6597 82.3306L21.6317 82.3586V81.8756H21.1277V85.5156H21.6317ZM28.8488 81.8756L27.9948 84.6546H27.9808L27.0008 81.8756H26.4688L27.7358 85.5576C27.5608 86.3556 27.0918 86.4256 26.7838 86.4256C26.6718 86.4256 26.5808 86.4116 26.5108 86.4046V86.8176C26.6088 86.8316 26.7068 86.8596 26.8748 86.8596C27.3508 86.8596 27.8338 86.6496 28.0998 85.8376L29.3808 81.8756H28.8488ZM33.0419 85.5156H33.5389L34.5189 81.4276H34.5329L35.5689 85.5156H36.0659L37.2629 80.4616H36.7309L35.8069 84.4936H35.7929L34.7849 80.4616H34.2879L33.3079 84.4936H33.2939L32.3559 80.4616H31.8239L33.0419 85.5156ZM38.082 80.4616V85.5156H38.586V82.7926C38.817 82.5476 39.251 82.2396 39.629 82.2396C39.993 82.2396 40.224 82.4006 40.224 82.8836V85.5156H40.728V82.8696C40.728 82.0856 40.217 81.8056 39.678 81.8056C39.265 81.8056 38.887 82.0436 38.6 82.3656H38.586V80.4616H38.082ZM42.0696 85.5156H42.5736V81.8756H42.0696V85.5156ZM42.0696 80.3916V80.9936H42.5736V80.3916H42.0696ZM43.4229 81.8756V82.3096H44.0179V84.9836C44.0179 85.4456 44.2489 85.5856 44.7949 85.5856C45.0889 85.5856 45.2919 85.5576 45.3829 85.5296V85.1166C45.2499 85.1376 45.1029 85.1516 44.9349 85.1516C44.6409 85.1516 44.5219 85.0676 44.5219 84.8996V82.3096H45.3619V81.8756H44.5219V80.6786H44.0179V81.8756H43.4229ZM46.7269 85.5156H47.2379L47.9589 82.7016H47.9729L48.7009 85.5156H49.2119L50.1849 81.8756H49.6739L48.9669 84.6896H48.9529L48.2249 81.8756H47.7139L46.9999 84.6756H46.9859L46.2509 81.8756H45.7399L46.7269 85.5156ZM53.0339 83.6956C53.0339 84.6336 52.6489 85.1516 52.0469 85.1516C51.4449 85.1516 51.0599 84.6336 51.0599 83.6956C51.0599 82.7576 51.4449 82.2396 52.0469 82.2396C52.6489 82.2396 53.0339 82.7576 53.0339 83.6956ZM53.5379 83.6956C53.5379 82.6456 53.0409 81.8056 52.0469 81.8056C51.0529 81.8056 50.5559 82.6456 50.5559 83.6956C50.5559 84.7456 51.0529 85.5856 52.0469 85.5856C53.0409 85.5856 53.5379 84.7456 53.5379 83.6956ZM54.2869 85.5156H54.7909V83.4996C55.0289 82.7506 55.3579 82.3376 55.9879 82.3236V81.8196C55.3859 81.8196 55.0849 82.0996 54.8049 82.5966H54.7909V81.8756H54.2869V85.5156ZM56.2539 81.8756V82.3096H56.8489V84.9836C56.8489 85.4456 57.0799 85.5856 57.6259 85.5856C57.9199 85.5856 58.1229 85.5576 58.2139 85.5296V85.1166C58.0809 85.1376 57.9339 85.1516 57.7659 85.1516C57.4719 85.1516 57.3529 85.0676 57.3529 84.8996V82.3096H58.1929V81.8756H57.3529V80.6786H56.8489V81.8756H56.2539ZM59.082 80.4616V85.5156H59.586V82.7926C59.817 82.5476 60.251 82.2396 60.629 82.2396C60.993 82.2396 61.224 82.4006 61.224 82.8836V85.5156H61.728V82.8696C61.728 82.0856 61.217 81.8056 60.678 81.8056C60.265 81.8056 59.887 82.0436 59.6 82.3656H59.586V80.4616H59.082Z" fill="white"/>
</g>
<defs>
<clipPath id="clip0">
<rect width="150" height="100" fill="white"/>
</clipPath>
</defs>
</svg>
