<svg width="150" height="100" viewBox="0 0 150 100" fill="none" xmlns="http://www.w3.org/2000/svg">
<g clip-path="url(#clip0)">
<rect width="150" height="100" fill="white"/>
<rect x="-13.8889" width="177.778" height="100" fill="#D62B2B"/>
<path d="M150.329 105.037H144.333V92.2054H128.996C126.805 92.2054 125.029 90.1015 125.029 87.5069V64.871C124.923 64.6642 124.817 64.4558 124.713 64.2474L119.006 63.8912L113 63.5171L116.668 48.7487L120.053 35.1225C122.394 17.1704 135.533 2.98129 150.407 0.00102887C152.305 -0.37971 150.329 105.037 150.329 105.037Z" fill="#2D2D2D"/>
<path d="M13.4719 65V64.0212H10.8225V58.9081H9.65813V65H13.4719ZM18.5231 65V64.0212H15.5615V62.3169H17.6456V61.3381H15.5615V59.8869H18.4303V58.9081H14.3972V65H18.5231ZM23.4449 60.1991C23.0821 59.3131 22.2721 58.8237 21.2934 58.8237C20.2387 58.8237 19.3274 59.4397 19.3274 60.5281C19.3274 62.4012 22.4662 62.165 22.4662 63.3631C22.4662 63.9537 22.019 64.1731 21.4368 64.1731C20.7534 64.1731 20.3906 63.7934 20.1121 63.2197L19.1502 63.6416C19.4962 64.5275 20.4327 65.0844 21.4284 65.0844C22.7784 65.0844 23.5631 64.46 23.5631 63.2112C23.5631 61.2369 20.4243 61.4562 20.4243 60.41C20.4243 59.9375 20.7871 59.735 21.2934 59.735C21.8418 59.735 22.2046 60.0556 22.3818 60.5281L23.4449 60.1991ZM28.603 60.1991C28.2402 59.3131 27.4302 58.8237 26.4515 58.8237C25.3968 58.8237 24.4855 59.4397 24.4855 60.5281C24.4855 62.4012 27.6243 62.165 27.6243 63.3631C27.6243 63.9537 27.1771 64.1731 26.5949 64.1731C25.9115 64.1731 25.5486 63.7934 25.2702 63.2197L24.3083 63.6416C24.6543 64.5275 25.5908 65.0844 26.5865 65.0844C27.9365 65.0844 28.7211 64.46 28.7211 63.2112C28.7211 61.2369 25.5824 61.4562 25.5824 60.41C25.5824 59.9375 25.9452 59.735 26.4515 59.735C26.9999 59.735 27.3627 60.0556 27.5399 60.5281L28.603 60.1991ZM33.3645 61.9541C33.3645 63.38 32.9258 64.1056 31.9723 64.1056C31.0105 64.1056 30.5633 63.38 30.5802 61.9541C30.5802 60.5281 31.0189 59.8025 31.9723 59.8025C32.9258 59.8025 33.3645 60.5281 33.3645 61.9541ZM34.5289 61.9541C34.5289 59.9628 33.6345 58.8237 31.9723 58.8237C30.3102 58.8237 29.4158 59.9628 29.4158 61.9541C29.4158 63.9453 30.3102 65.0844 31.9723 65.0844C33.6345 65.0844 34.5289 63.9453 34.5289 61.9541ZM36.5707 65V60.6631H36.5876L39.0767 65H40.1988V58.9081H39.102V63.0594H39.0851L36.6888 58.9081H35.4738V65H36.5707ZM45.478 60.1991C45.1152 59.3131 44.3052 58.8237 43.3265 58.8237C42.2718 58.8237 41.3605 59.4397 41.3605 60.5281C41.3605 62.4012 44.4993 62.165 44.4993 63.3631C44.4993 63.9537 44.0521 64.1731 43.4699 64.1731C42.7865 64.1731 42.4236 63.7934 42.1452 63.2197L41.1833 63.6416C41.5293 64.5275 42.4658 65.0844 43.4615 65.0844C44.8115 65.0844 45.5961 64.46 45.5961 63.2112C45.5961 61.2369 42.4574 61.4562 42.4574 60.41C42.4574 59.9375 42.8202 59.735 43.3265 59.735C43.8749 59.735 44.2377 60.0556 44.4149 60.5281L45.478 60.1991ZM50.431 65V62.3169H52.4644V61.3381H50.431V59.8869H53.1478V58.9081H49.2666V65H50.431ZM55.1194 65V62.5194H56.1234L57.2709 65H58.5619L57.2203 62.2831C57.9628 62.0722 58.3425 61.4647 58.3341 60.7137C58.3256 59.7097 57.7688 58.9081 56.385 58.9081H53.955V65H55.1194ZM55.1194 59.8531H56.1825C56.8238 59.8531 57.1697 60.14 57.1697 60.7137C57.1697 61.2875 56.8913 61.5744 55.98 61.5744H55.1194V59.8531ZM63.1265 61.9541C63.1265 63.38 62.6877 64.1056 61.7343 64.1056C60.7724 64.1056 60.3252 63.38 60.3421 61.9541C60.3421 60.5281 60.7809 59.8025 61.7343 59.8025C62.6877 59.8025 63.1265 60.5281 63.1265 61.9541ZM64.2909 61.9541C64.2909 59.9628 63.3965 58.8237 61.7343 58.8237C60.0721 58.8237 59.1777 59.9628 59.1777 61.9541C59.1777 63.9453 60.0721 65.0844 61.7343 65.0844C63.3965 65.0844 64.2909 63.9453 64.2909 61.9541ZM66.2483 65V60.2075H66.2652L67.6152 65H68.5011L69.868 60.2075H69.8849V65H70.8974V58.9081H69.2436L68.0624 63.1606H68.0455L66.8727 58.9081H65.2358V65H66.2483ZM10.8731 75V72.3844H13.2188V75H14.3831V68.9081H13.2188V71.3381H10.8731V68.9081H9.70875V75H10.8731ZM17.072 75V68.9081H15.9076V75H17.072ZM22.4974 70.1991C22.1346 69.3131 21.3246 68.8237 20.3458 68.8237C19.2911 68.8237 18.3799 69.4397 18.3799 70.5281C18.3799 72.4012 21.5186 72.165 21.5186 73.3631C21.5186 73.9537 21.0714 74.1731 20.4892 74.1731C19.8058 74.1731 19.443 73.7934 19.1646 73.2197L18.2027 73.6416C18.5486 74.5275 19.4852 75.0844 20.4808 75.0844C21.8308 75.0844 22.6155 74.46 22.6155 73.2112C22.6155 71.2369 19.4767 71.4562 19.4767 70.41C19.4767 69.9375 19.8396 69.735 20.3458 69.735C20.8942 69.735 21.2571 70.0556 21.4342 70.5281L22.4974 70.1991ZM23.2258 68.8997V69.8784H24.8204V75H25.9848V69.8784H27.5795V68.8997H23.2258ZM31.9473 71.9541C31.9473 73.38 31.5085 74.1056 30.5551 74.1056C29.5932 74.1056 29.146 73.38 29.1629 71.9541C29.1629 70.5281 29.6017 69.8025 30.5551 69.8025C31.5085 69.8025 31.9473 70.5281 31.9473 71.9541ZM33.1117 71.9541C33.1117 69.9628 32.2173 68.8237 30.5551 68.8237C28.8929 68.8237 27.9985 69.9628 27.9985 71.9541C27.9985 73.9453 28.8929 75.0844 30.5551 75.0844C32.2173 75.0844 33.1117 73.9453 33.1117 71.9541ZM35.1957 75V72.5194H36.1997L37.3472 75H38.6382L37.2966 72.2831C38.0391 72.0722 38.4188 71.4647 38.4104 70.7137C38.4019 69.7097 37.845 68.9081 36.4613 68.9081H34.0313V75H35.1957ZM35.1957 69.8531H36.2588C36.9 69.8531 37.246 70.14 37.246 70.7137C37.246 71.2875 36.9675 71.5744 36.0563 71.5744H35.1957V69.8531ZM40.152 68.9081H38.937L40.616 72.57V75H41.7804V72.57L43.4595 68.9081H42.2445L41.1982 71.3212L40.152 68.9081ZM48.0946 75V68.9081H46.9303V75H48.0946ZM50.7019 75V70.6631H50.7188L53.2078 75H54.33V68.9081H53.2331V73.0594H53.2163L50.82 68.9081H49.605V75H50.7019ZM60.1803 70.0725H60.1972L60.8806 72.7219H59.4631L60.1803 70.0725ZM57.6912 75H58.8472L59.21 73.6837H61.1337L61.4712 75H62.6272L60.8975 68.8997H59.4462L57.6912 75ZM67.0485 75V72.5362H68.1117C69.4279 72.5362 70.2632 71.9878 70.2632 70.7222C70.2632 69.4566 69.4279 68.9081 68.1117 68.9081H65.8842V75H67.0485ZM67.0485 69.8531H67.9767C68.8542 69.8531 69.0989 70.1822 69.0989 70.7222C69.0989 71.2622 68.8542 71.5912 67.9767 71.5912H67.0485V69.8531ZM72.7541 70.0725H72.771L73.4545 72.7219H72.037L72.7541 70.0725ZM70.2651 75H71.421L71.7838 73.6837H73.7076L74.0451 75H75.201L73.4713 68.8997H72.0201L70.2651 75ZM77.0938 75V70.6631H77.1107L79.5997 75H80.7219V68.9081H79.625V73.0594H79.6082L77.2119 68.9081H75.9969V75H77.0938ZM82.0608 75H84.0773C85.6889 75 86.8026 74.1056 86.8111 71.9541C86.8026 69.8025 85.6889 68.9081 84.0773 68.9081H82.0608V75ZM83.2251 69.8869H84.0014C85.3345 69.8869 85.6467 70.8656 85.6467 71.9541C85.6467 73.0425 85.3345 74.0212 84.0014 74.0212H83.2251V69.8869ZM91.8651 75V74.0212H88.9035V72.3169H90.9876V71.3381H88.9035V69.8869H91.7723V68.9081H87.7391V75H91.8651ZM93.8844 75V70.2075H93.9013L95.2513 75H96.1372L97.5041 70.2075H97.521V75H98.5335V68.9081H96.8797L95.6985 73.1606H95.6816L94.5088 68.9081H92.8719V75H93.8844ZM101.2 75V68.9081H100.035V75H101.2ZM106.853 70.4269C106.566 69.3469 105.891 68.8237 104.727 68.8237C103.174 68.8237 102.28 69.9628 102.28 71.9541C102.28 73.9453 103.174 75.0844 104.727 75.0844C105.84 75.0844 106.634 74.5444 106.996 73.4897L105.916 73.2028C105.57 73.92 105.25 74.1056 104.727 74.1056C103.849 74.1056 103.427 73.38 103.444 71.9541C103.444 70.5281 103.917 69.8025 104.693 69.8025C105.267 69.8025 105.63 70.1653 105.798 70.68L106.853 70.4269Z" fill="white"/>
<path d="M9 65.8438H71.5808V66.2656H9V65.8438ZM9 75.8438H107.182V76.2656H9V75.8438Z" fill="white"/>
<path d="M13.3041 81.6376C13.0381 80.8046 12.4221 80.3916 11.6381 80.3916C10.7281 80.3916 10.1191 80.9656 10.1191 81.6936C10.1191 83.2896 12.9611 82.9116 12.9611 84.1996C12.9611 84.7176 12.5901 85.1096 11.8481 85.1096C11.1061 85.1096 10.7281 84.6196 10.5251 84.0876L10.0141 84.2696C10.2801 84.8716 10.7141 85.5856 11.8201 85.5856C13.1081 85.5856 13.5211 84.8366 13.5211 84.1016C13.5211 82.4776 10.6651 82.7576 10.6791 81.6516C10.6861 81.1476 11.0361 80.8676 11.6241 80.8676C12.2751 80.8676 12.6741 81.2596 12.8001 81.7496L13.3041 81.6376ZM14.7834 82.8066C14.8814 82.5616 15.1544 82.2396 15.7144 82.2396C16.1484 82.2396 16.4634 82.4216 16.4634 82.9046V83.1006C14.8464 83.3876 14.2374 83.7866 14.2374 84.5846C14.2374 85.2496 14.7134 85.5856 15.2734 85.5856C15.8194 85.5856 16.2254 85.2916 16.4774 85.0116L16.5334 85.5156H17.0514C17.0024 85.3266 16.9674 85.1306 16.9674 84.7316V82.8976C16.9674 82.0996 16.3234 81.8056 15.7074 81.8056C15.0214 81.8056 14.5734 82.1556 14.3424 82.5756L14.7834 82.8066ZM16.4634 84.5496C16.1694 84.8856 15.7074 85.1516 15.3434 85.1516C15.0634 85.1516 14.7414 84.9276 14.7414 84.5916C14.7414 84.0876 15.3084 83.7516 16.4634 83.5486V84.5496ZM18.0664 81.8756V85.5156H18.5704V82.7926C18.8014 82.5476 19.2354 82.2396 19.6134 82.2396C19.9774 82.2396 20.2084 82.4006 20.2084 82.8836V85.5156H20.7124V82.8696C20.7124 82.0856 20.2014 81.8056 19.6624 81.8056C19.2494 81.8056 18.8714 82.0436 18.5844 82.3656H18.5704V81.8756H18.0664ZM22.152 81.8756V86.0616C22.152 86.3346 22.04 86.4256 21.753 86.4256C21.648 86.4256 21.564 86.3976 21.487 86.3626V86.7756C21.585 86.8316 21.739 86.8596 21.907 86.8596C22.369 86.8596 22.656 86.5376 22.656 86.0966V81.8756H22.152ZM22.656 80.3916H22.152V80.9936H22.656V80.3916ZM26.1513 84.5356C25.9413 84.9136 25.5913 85.1516 25.1433 85.1516C24.5413 85.1516 24.0653 84.5916 24.0653 83.7936H26.4313V83.4576C26.4313 82.2956 25.8013 81.8056 25.0453 81.8056C24.1493 81.8056 23.5613 82.5196 23.5613 83.6956C23.5613 85.0256 24.3313 85.5856 25.1433 85.5856C25.9693 85.5856 26.3053 85.1516 26.5433 84.7386L26.1513 84.5356ZM24.0793 83.3596C24.1213 82.6876 24.4503 82.2396 25.0593 82.2396C25.6053 82.2396 25.9273 82.6876 25.9273 83.3596H24.0793ZM29.6513 84.5356C29.4413 84.9136 29.0913 85.1516 28.6433 85.1516C28.0413 85.1516 27.5653 84.5916 27.5653 83.7936H29.9313V83.4576C29.9313 82.2956 29.3013 81.8056 28.5453 81.8056C27.6493 81.8056 27.0613 82.5196 27.0613 83.6956C27.0613 85.0256 27.8313 85.5856 28.6433 85.5856C29.4693 85.5856 29.8053 85.1516 30.0433 84.7386L29.6513 84.5356ZM27.5793 83.3596C27.6213 82.6876 27.9503 82.2396 28.5593 82.2396C29.1053 82.2396 29.4273 82.6876 29.4273 83.3596H27.5793ZM33.2773 81.8756H32.7663L31.8423 84.8856H31.8283L30.9043 81.8756H30.3933L31.5133 85.5156H32.1853L33.2773 81.8756ZM37.3724 80.4616V84.3606C37.3724 84.9416 37.0994 85.1096 36.7564 85.1096C36.4414 85.1096 36.1614 84.9206 36.0004 84.6616L35.5804 84.9346C35.8464 85.2776 36.1824 85.5856 36.7704 85.5856C37.5264 85.5856 37.9324 85.1656 37.9324 84.2136V80.4616H37.3724ZM39.4748 82.8066C39.5728 82.5616 39.8458 82.2396 40.4058 82.2396C40.8398 82.2396 41.1548 82.4216 41.1548 82.9046V83.1006C39.5378 83.3876 38.9288 83.7866 38.9288 84.5846C38.9288 85.2496 39.4048 85.5856 39.9648 85.5856C40.5108 85.5856 40.9168 85.2916 41.1688 85.0116L41.2248 85.5156H41.7428C41.6938 85.3266 41.6588 85.1306 41.6588 84.7316V82.8976C41.6588 82.0996 41.0148 81.8056 40.3988 81.8056C39.7128 81.8056 39.2648 82.1556 39.0338 82.5756L39.4748 82.8066ZM41.1548 84.5496C40.8608 84.8856 40.3988 85.1516 40.0348 85.1516C39.7548 85.1516 39.4328 84.9276 39.4328 84.5916C39.4328 84.0876 39.9998 83.7516 41.1548 83.5486V84.5496ZM42.8558 85.5156H43.3598V81.8756H42.8558V85.5156ZM42.8558 80.3916V80.9936H43.3598V80.3916H42.8558ZM44.706 81.8756V85.5156H45.21V82.7926C45.441 82.5476 45.875 82.2396 46.253 82.2396C46.617 82.2396 46.848 82.4006 46.848 82.8836V85.5156H47.352V82.8696C47.352 82.0856 46.841 81.8056 46.302 81.8056C45.889 81.8056 45.511 82.0436 45.224 82.3656H45.21V81.8756H44.706Z" fill="white"/>
</g>
<defs>
<clipPath id="clip0">
<rect width="150" height="100" fill="white"/>
</clipPath>
</defs>
</svg>
