<svg width="150" height="100" viewBox="0 0 150 100" fill="none" xmlns="http://www.w3.org/2000/svg">
<g clip-path="url(#clip0)">
<rect width="150" height="100" fill="white"/>
<rect x="-13.8889" width="177.778" height="100" fill="#D62B2B"/>
<path d="M150.329 105.037H144.333V92.2054H128.996C126.805 92.2054 125.029 90.1015 125.029 87.5069V64.871C124.923 64.6642 124.817 64.4558 124.713 64.2474L119.006 63.8912L113 63.5171L116.668 48.7487L120.053 35.1225C122.394 17.1704 135.533 2.98129 150.407 0.00102887C152.305 -0.37971 150.329 105.037 150.329 105.037Z" fill="#2D2D2D"/>
<path d="M10.6959 65H11.9953L13.6069 58.9081H12.4594L11.3288 63.3969H11.3119L10.2319 58.9081H9.08438L10.6959 65ZM15.6712 65V58.9081H14.5069V65H15.6712ZM18.3207 65V62.5194H19.3247L20.4722 65H21.7632L20.4216 62.2831C21.1641 62.0722 21.5438 61.4647 21.5354 60.7137C21.5269 59.7097 20.97 58.9081 19.5863 58.9081H17.1563V65H18.3207ZM18.3207 59.8531H19.3838C20.025 59.8531 20.371 60.14 20.371 60.7137C20.371 61.2875 20.0925 61.5744 19.1813 61.5744H18.3207V59.8531ZM26.3447 62.7725C26.3447 63.7597 25.9565 64.1056 25.1719 64.1056C24.3872 64.1056 23.999 63.7597 23.999 62.7725V58.9081H22.8347V62.7219C22.8347 64.5022 23.9315 65.0844 25.1719 65.0844C26.4122 65.0844 27.509 64.5022 27.509 62.7219V58.9081H26.3447V62.7725ZM32.8135 60.1991C32.4507 59.3131 31.6407 58.8237 30.662 58.8237C29.6073 58.8237 28.696 59.4397 28.696 60.5281C28.696 62.4012 31.8348 62.165 31.8348 63.3631C31.8348 63.9537 31.3876 64.1731 30.8054 64.1731C30.122 64.1731 29.7592 63.7934 29.4807 63.2197L28.5188 63.6416C28.8648 64.5275 29.8013 65.0844 30.797 65.0844C32.147 65.0844 32.9317 64.46 32.9317 63.2112C32.9317 61.2369 29.7929 61.4562 29.7929 60.41C29.7929 59.9375 30.1557 59.735 30.662 59.735C31.2104 59.735 31.5732 60.0556 31.7504 60.5281L32.8135 60.1991ZM38.2079 65V64.0212H35.2463V62.3169H37.3304V61.3381H35.2463V59.8869H38.115V58.9081H34.0819V65H38.2079ZM43.1297 60.1991C42.7669 59.3131 41.9569 58.8237 40.9781 58.8237C39.9234 58.8237 39.0122 59.4397 39.0122 60.5281C39.0122 62.4012 42.1509 62.165 42.1509 63.3631C42.1509 63.9537 41.7038 64.1731 41.1216 64.1731C40.4381 64.1731 40.0753 63.7934 39.7969 63.2197L38.835 63.6416C39.1809 64.5275 40.1175 65.0844 41.1131 65.0844C42.4631 65.0844 43.2478 64.46 43.2478 63.2112C43.2478 61.2369 40.1091 61.4562 40.1091 60.41C40.1091 59.9375 40.4719 59.735 40.9781 59.735C41.5266 59.735 41.8894 60.0556 42.0666 60.5281L43.1297 60.1991ZM44.4656 66.2656H45.014L45.554 65V63.8019H44.3896V65H44.8959L44.4656 66.2656ZM50.5269 65H51.8262L53.4378 58.9081H52.2903L51.1597 63.3969H51.1428L50.0628 58.9081H48.9153L50.5269 65ZM55.805 60.0725H55.8219L56.5053 62.7219H55.0878L55.805 60.0725ZM53.3159 65H54.4719L54.8347 63.6837H56.7584L57.0959 65H58.2519L56.5222 58.8997H55.0709L53.3159 65ZM60.1868 65V62.5194H61.1909L62.3384 65H63.6293L62.2878 62.2831C63.0303 62.0722 63.4099 61.4647 63.4015 60.7137C63.3931 59.7097 62.8362 58.9081 61.4524 58.9081H59.0224V65H60.1868ZM60.1868 59.8531H61.2499C61.8912 59.8531 62.2371 60.14 62.2371 60.7137C62.2371 61.2875 61.9587 61.5744 61.0474 61.5744H60.1868V59.8531ZM65.9749 65V58.9081H64.8105V65H65.9749ZM69.4006 60.0725H69.4174L70.1009 62.7219H68.6834L69.4006 60.0725ZM66.9115 65H68.0674L68.4303 63.6837H70.354L70.6915 65H71.8474L70.1178 58.8997H68.6665L66.9115 65ZM73.7402 65V60.6631H73.7571L76.2462 65H77.3683V58.9081H76.2715V63.0594H76.2546L73.8583 58.9081H72.6433V65H73.7402ZM78.2178 58.8997V59.8784H79.8125V65H80.9769V59.8784H82.5716V58.8997H78.2178ZM87.3359 60.1991C86.9731 59.3131 86.1631 58.8237 85.1844 58.8237C84.1297 58.8237 83.2184 59.4397 83.2184 60.5281C83.2184 62.4012 86.3572 62.165 86.3572 63.3631C86.3572 63.9537 85.91 64.1731 85.3278 64.1731C84.6444 64.1731 84.2816 63.7934 84.0031 63.2197L83.0412 63.6416C83.3872 64.5275 84.3237 65.0844 85.3194 65.0844C86.6694 65.0844 87.4541 64.46 87.4541 63.2112C87.4541 61.2369 84.3153 61.4562 84.3153 60.41C84.3153 59.9375 84.6781 59.735 85.1844 59.735C85.7328 59.735 86.0956 60.0556 86.2728 60.5281L87.3359 60.1991ZM11.5988 70.0725H11.6156L12.2991 72.7219H10.8816L11.5988 70.0725ZM9.10969 75H10.2656L10.6284 73.6837H12.5522L12.8897 75H14.0456L12.3159 68.8997H10.8647L9.10969 75ZM15.9384 75V70.6631H15.9553L18.4443 75H19.5665V68.9081H18.4696V73.0594H18.4528L16.0565 68.9081H14.8415V75H15.9384ZM20.9054 75H22.9219C24.5335 75 25.6473 74.1056 25.6557 71.9541C25.6473 69.8025 24.5335 68.9081 22.9219 68.9081H20.9054V75ZM22.0698 69.8869H22.846C24.1791 69.8869 24.4913 70.8656 24.4913 71.9541C24.4913 73.0425 24.1791 74.0212 22.846 74.0212H22.0698V69.8869ZM30.1417 75H31.4411L33.0527 68.9081H31.9052L30.7746 73.3969H30.7577L29.6777 68.9081H28.5302L30.1417 75ZM35.4199 70.0725H35.4367L36.1202 72.7219H34.7027L35.4199 70.0725ZM32.9308 75H34.0867L34.4495 73.6837H36.3733L36.7108 75H37.8667L36.137 68.8997H34.6858L32.9308 75ZM42.8054 70.4269C42.5186 69.3469 41.8436 68.8237 40.6792 68.8237C39.1267 68.8237 38.2323 69.9628 38.2323 71.9541C38.2323 73.9453 39.1267 75.0844 40.6792 75.0844C41.7929 75.0844 42.5861 74.5444 42.9489 73.4897L41.8689 73.2028C41.5229 73.92 41.2023 74.1056 40.6792 74.1056C39.8017 74.1056 39.3798 73.38 39.3967 71.9541C39.3967 70.5281 39.8692 69.8025 40.6454 69.8025C41.2192 69.8025 41.582 70.1653 41.7507 70.68L42.8054 70.4269ZM47.9635 70.4269C47.6766 69.3469 47.0016 68.8237 45.8373 68.8237C44.2848 68.8237 43.3904 69.9628 43.3904 71.9541C43.3904 73.9453 44.2848 75.0844 45.8373 75.0844C46.951 75.0844 47.7441 74.5444 48.107 73.4897L47.027 73.2028C46.681 73.92 46.3604 74.1056 45.8373 74.1056C44.9598 74.1056 44.5379 73.38 44.5548 71.9541C44.5548 70.5281 45.0273 69.8025 45.8035 69.8025C46.3773 69.8025 46.7401 70.1653 46.9088 70.68L47.9635 70.4269ZM50.2782 75V68.9081H49.1138V75H50.2782ZM52.8854 75V70.6631H52.9023L55.3914 75H56.5135V68.9081H55.4167V73.0594H55.3998L53.0035 68.9081H51.7885V75H52.8854ZM62.029 75V74.0212H59.0674V72.3169H61.1515V71.3381H59.0674V69.8869H61.9362V68.9081H57.903V75H62.029ZM66.9508 70.1991C66.588 69.3131 65.778 68.8237 64.7992 68.8237C63.7445 68.8237 62.8333 69.4397 62.8333 70.5281C62.8333 72.4012 65.972 72.165 65.972 73.3631C65.972 73.9537 65.5249 74.1731 64.9427 74.1731C64.2592 74.1731 63.8964 73.7934 63.618 73.2197L62.6561 73.6416C63.002 74.5275 63.9386 75.0844 64.9342 75.0844C66.2842 75.0844 67.0689 74.46 67.0689 73.2112C67.0689 71.2369 63.9302 71.4562 63.9302 70.41C63.9302 69.9375 64.293 69.735 64.7992 69.735C65.3477 69.735 65.7105 70.0556 65.8877 70.5281L66.9508 70.1991Z" fill="white"/>
<path d="M9 65.8438H87.8928V66.2656H9V65.8438ZM9 75.8438H67.5077V76.2656H9V75.8438Z" fill="white"/>
<path d="M13.3041 81.6376C13.0381 80.8046 12.4221 80.3916 11.6381 80.3916C10.7281 80.3916 10.1191 80.9656 10.1191 81.6936C10.1191 83.2896 12.9611 82.9116 12.9611 84.1996C12.9611 84.7176 12.5901 85.1096 11.8481 85.1096C11.1061 85.1096 10.7281 84.6196 10.5251 84.0876L10.0141 84.2696C10.2801 84.8716 10.7141 85.5856 11.8201 85.5856C13.1081 85.5856 13.5211 84.8366 13.5211 84.1016C13.5211 82.4776 10.6651 82.7576 10.6791 81.6516C10.6861 81.1476 11.0361 80.8676 11.6241 80.8676C12.2751 80.8676 12.6741 81.2596 12.8001 81.7496L13.3041 81.6376ZM14.5664 80.4616V85.5156H15.0704V82.7926C15.3014 82.5476 15.7354 82.2396 16.1134 82.2396C16.4774 82.2396 16.7084 82.4006 16.7084 82.8836V85.5156H17.2124V82.8696C17.2124 82.0856 16.7014 81.8056 16.1624 81.8056C15.7494 81.8056 15.3714 82.0436 15.0844 82.3656H15.0704V80.4616H14.5664ZM18.673 82.8066C18.771 82.5616 19.044 82.2396 19.604 82.2396C20.038 82.2396 20.353 82.4216 20.353 82.9046V83.1006C18.736 83.3876 18.127 83.7866 18.127 84.5846C18.127 85.2496 18.603 85.5856 19.163 85.5856C19.709 85.5856 20.115 85.2916 20.367 85.0116L20.423 85.5156H20.941C20.892 85.3266 20.857 85.1306 20.857 84.7316V82.8976C20.857 82.0996 20.213 81.8056 19.597 81.8056C18.911 81.8056 18.463 82.1556 18.232 82.5756L18.673 82.8066ZM20.353 84.5496C20.059 84.8856 19.597 85.1516 19.233 85.1516C18.953 85.1516 18.631 84.9276 18.631 84.5916C18.631 84.0876 19.198 83.7516 20.353 83.5486V84.5496ZM21.956 80.4616V85.5156H22.46V82.7926C22.691 82.5476 23.125 82.2396 23.503 82.2396C23.867 82.2396 24.098 82.4006 24.098 82.8836V85.5156H24.602V82.8696C24.602 82.0856 24.091 81.8056 23.552 81.8056C23.139 81.8056 22.761 82.0436 22.474 82.3656H22.46V80.4616H21.956ZM25.9437 85.5156H26.4477V81.8756H25.9437V85.5156ZM25.9437 80.3916V80.9936H26.4477V80.3916H25.9437ZM29.9429 80.4616V82.2256L29.9149 82.2116C29.6349 81.9806 29.2989 81.8056 28.9559 81.8056C28.3399 81.8056 27.4929 82.2816 27.4929 83.6956C27.4929 85.1516 28.3399 85.5856 28.9839 85.5856C29.4179 85.5856 29.7749 85.3896 29.9429 85.1586L30.0129 85.5156H30.4749C30.4329 85.2496 30.4469 84.9836 30.4469 84.7176V80.4616H29.9429ZM29.9429 84.6616C29.5859 85.0116 29.3479 85.1516 29.0259 85.1516C28.3959 85.1516 27.9969 84.6476 27.9969 83.7236C27.9969 82.6246 28.4379 82.2396 29.0259 82.2396C29.3269 82.2396 29.6699 82.4426 29.9429 82.7436V84.6616ZM35.0414 80.4616V84.3606C35.0414 84.9416 34.7684 85.1096 34.4254 85.1096C34.1104 85.1096 33.8304 84.9206 33.6694 84.6616L33.2494 84.9346C33.5154 85.2776 33.8514 85.5856 34.4394 85.5856C35.1954 85.5856 35.6014 85.1656 35.6014 84.2136V80.4616H35.0414ZM37.1437 82.8066C37.2417 82.5616 37.5147 82.2396 38.0747 82.2396C38.5087 82.2396 38.8237 82.4216 38.8237 82.9046V83.1006C37.2067 83.3876 36.5977 83.7866 36.5977 84.5846C36.5977 85.2496 37.0737 85.5856 37.6337 85.5856C38.1797 85.5856 38.5857 85.2916 38.8377 85.0116L38.8937 85.5156H39.4117C39.3627 85.3266 39.3277 85.1306 39.3277 84.7316V82.8976C39.3277 82.0996 38.6837 81.8056 38.0677 81.8056C37.3817 81.8056 36.9337 82.1556 36.7027 82.5756L37.1437 82.8066ZM38.8237 84.5496C38.5297 84.8856 38.0677 85.1516 37.7037 85.1516C37.4237 85.1516 37.1017 84.9276 37.1017 84.5916C37.1017 84.0876 37.6687 83.7516 38.8237 83.5486V84.5496ZM40.8817 85.5156V82.7996C41.1547 82.5336 41.4487 82.2396 41.8967 82.2396C42.2187 82.2396 42.4637 82.4216 42.4637 82.9116V85.5156H42.9677V82.7996C43.2407 82.5336 43.5347 82.2396 43.9827 82.2396C44.3047 82.2396 44.5497 82.4216 44.5497 82.9116V85.5156H45.0537V82.9116C45.0537 82.0086 44.5357 81.8056 44.0527 81.8056C43.6257 81.8056 43.2197 82.0366 42.8977 82.3796C42.7647 82.0436 42.4357 81.8056 41.9667 81.8056C41.6167 81.8056 41.2177 81.9876 40.9097 82.3306L40.8817 82.3586V81.8756H40.3777V85.5156H40.8817ZM48.5048 84.5356C48.2948 84.9136 47.9448 85.1516 47.4968 85.1516C46.8948 85.1516 46.4188 84.5916 46.4188 83.7936H48.7848V83.4576C48.7848 82.2956 48.1548 81.8056 47.3988 81.8056C46.5028 81.8056 45.9148 82.5196 45.9148 83.6956C45.9148 85.0256 46.6848 85.5856 47.4968 85.5856C48.3228 85.5856 48.6588 85.1516 48.8968 84.7386L48.5048 84.5356ZM46.4328 83.3596C46.4748 82.6876 46.8038 82.2396 47.4128 82.2396C47.9588 82.2396 48.2808 82.6876 48.2808 83.3596H46.4328ZM52.0048 84.5356C51.7948 84.9136 51.4448 85.1516 50.9968 85.1516C50.3948 85.1516 49.9188 84.5916 49.9188 83.7936H52.2848V83.4576C52.2848 82.2956 51.6548 81.8056 50.8988 81.8056C50.0028 81.8056 49.4148 82.5196 49.4148 83.6956C49.4148 85.0256 50.1848 85.5856 50.9968 85.5856C51.8228 85.5856 52.1588 85.1516 52.3968 84.7386L52.0048 84.5356ZM49.9328 83.3596C49.9748 82.6876 50.3038 82.2396 50.9128 82.2396C51.4588 82.2396 51.7808 82.6876 51.7808 83.3596H49.9328ZM53.3558 80.4616V85.5156H53.8598V80.4616H53.3558Z" fill="white"/>
</g>
<defs>
<clipPath id="clip0">
<rect width="150" height="100" fill="white"/>
</clipPath>
</defs>
</svg>
