<svg width="470" height="503" viewBox="0 0 470 503" fill="none" xmlns="http://www.w3.org/2000/svg">
<path d="M47.1167 81.085L41.1863 86.4543C40.1862 87.5847 38.723 90.4383 40.8707 92.8105C43.0185 95.1826 103.961 162.493 134.164 195.851" stroke="#2D2D2D" stroke-width="6" stroke-linecap="round" stroke-linejoin="round"/>
<path d="M67.1392 21.2534L427.713 419.502C427.801 419.598 427.871 419.711 427.899 419.829L446.149 479.702C446.369 480.4 445.673 481.03 445.001 480.742L387.378 456.517C387.255 456.469 387.158 456.396 387.07 456.3L26.4965 58.0514C24.2432 55.5627 24.4045 51.7361 26.8756 49.4987L58.591 20.7836C61.0621 18.5462 64.878 18.756 67.1392 21.2534Z" fill="white" stroke="#2D2D2D" stroke-width="3" stroke-miterlimit="10"/>
<path d="M425.824 417.415L385.423 453.994" stroke="#2D2D2D" stroke-width="4"/>
<path d="M386.394 455.812L427.166 418.897L446.044 480.721L386.394 455.812Z" fill="#3E6CDA"/>
<path d="M67.1392 21.2534L427.713 419.502C427.801 419.598 427.871 419.711 427.899 419.829L446.149 479.702C446.369 480.4 445.673 481.03 445.001 480.742L387.378 456.517C387.255 456.469 387.158 456.396 387.07 456.3L26.4965 58.0514C24.2432 55.5627 24.4045 51.7361 26.8756 49.4987L58.591 20.7836C61.0621 18.5462 64.878 18.756 67.1392 21.2534Z" stroke="#2D2D2D" stroke-width="5" stroke-miterlimit="10"/>
<path d="M25.0463 53.726C34.4615 64.1249 50.523 64.9233 60.9207 55.5093C71.3184 46.0952 72.1148 30.0336 62.6996 19.6346C53.2844 9.23568 37.2229 8.43727 26.8252 17.8513C16.4275 27.2654 15.6311 43.327 25.0463 53.726Z" fill="#3E6CDA"/>
<path d="M39.3392 43.8422C43.0355 47.9247 49.3411 48.2382 53.4231 44.5424C57.5051 40.8465 57.8177 34.5409 54.1214 30.4584C50.4251 26.3759 44.1196 26.0625 40.0376 29.7583C35.9556 33.4542 35.6429 39.7597 39.3392 43.8422Z" fill="#2D2D2D"/>
<g style="mix-blend-mode:multiply">
<path d="M8.86903 46.7717C13.7674 52.1819 22.1236 52.5973 27.5332 47.6995C32.9427 42.8017 33.3571 34.4455 28.4587 29.0353C23.5603 23.6251 15.2041 23.2097 9.79453 28.1075C4.385 33.0053 3.97064 41.3615 8.86903 46.7717Z" fill="#D62B2B"/>
</g>
</svg>
