<svg width="150" height="100" viewBox="0 0 150 100" fill="none" xmlns="http://www.w3.org/2000/svg">
<g clip-path="url(#clip0)">
<rect width="150" height="100" fill="white"/>
<rect x="-13.8889" width="177.778" height="100" fill="#D62B2B"/>
<path d="M150.329 105.037H144.333V92.2054H128.996C126.805 92.2054 125.029 90.1015 125.029 87.5069V64.871C124.923 64.6642 124.817 64.4558 124.713 64.2474L119.006 63.8912L113 63.5171L116.668 48.7487L120.053 35.1225C122.394 17.1704 135.533 2.98129 150.407 0.00102887C152.305 -0.37971 150.329 105.037 150.329 105.037Z" fill="#2D2D2D"/>
<path d="M10.8731 65V62.3844H13.2188V65H14.3831V58.9081H13.2188V61.3381H10.8731V58.9081H9.70875V65H10.8731ZM19.291 61.9541C19.291 63.38 18.8523 64.1056 17.8989 64.1056C16.937 64.1056 16.4898 63.38 16.5067 61.9541C16.5067 60.5281 16.9454 59.8025 17.8989 59.8025C18.8523 59.8025 19.291 60.5281 19.291 61.9541ZM20.4554 61.9541C20.4554 59.9628 19.561 58.8237 17.8989 58.8237C16.2367 58.8237 15.3423 59.9628 15.3423 61.9541C15.3423 63.9453 16.2367 65.0844 17.8989 65.0844C19.561 65.0844 20.4554 63.9453 20.4554 61.9541ZM22.1597 65H23.341L24.2185 60.6631H24.2354L25.1213 65H26.3025L27.5682 58.9081H26.4797L25.6444 63.0172H25.6275L24.826 58.9081H23.6279L22.7588 63.0172H22.7419L21.9741 58.9081H20.8857L22.1597 65ZM32.0543 65V62.5362H33.1175C34.4337 62.5362 35.269 61.9878 35.269 60.7222C35.269 59.4566 34.4337 58.9081 33.1175 58.9081H30.89V65H32.0543ZM32.0543 59.8531H32.9825C33.86 59.8531 34.1047 60.1822 34.1047 60.7222C34.1047 61.2622 33.86 61.5912 32.9825 61.5912H32.0543V59.8531ZM37.7599 60.0725H37.7768L38.4603 62.7219H37.0428L37.7599 60.0725ZM35.2709 65H36.4268L36.7896 63.6837H38.7134L39.0509 65H40.2068L38.4771 58.8997H37.0259L35.2709 65ZM42.0996 65V60.6631H42.1165L44.6055 65H45.7277V58.9081H44.6308V63.0594H44.614L42.2177 58.9081H41.0027V65H42.0996ZM47.0666 65H49.0831C50.6947 65 51.8084 64.1056 51.8169 61.9541C51.8084 59.8025 50.6947 58.9081 49.0831 58.9081H47.0666V65ZM48.2309 59.8869H49.0072C50.3403 59.8869 50.6525 60.8656 50.6525 61.9541C50.6525 63.0425 50.3403 64.0212 49.0072 64.0212H48.2309V59.8869ZM56.8709 65V64.0212H53.9093V62.3169H55.9934V61.3381H53.9093V59.8869H56.7781V58.9081H52.7449V65H56.8709ZM58.8902 65V60.2075H58.9071L60.2571 65H61.143L62.5099 60.2075H62.5268V65H63.5393V58.9081H61.8855L60.7043 63.1606H60.6874L59.5146 58.9081H57.8777V65H58.8902ZM66.2056 65V58.9081H65.0412V65H66.2056ZM71.8588 60.4269C71.5719 59.3469 70.8969 58.8237 69.7325 58.8237C68.18 58.8237 67.2857 59.9628 67.2857 61.9541C67.2857 63.9453 68.18 65.0844 69.7325 65.0844C70.8463 65.0844 71.6394 64.5444 72.0022 63.4897L70.9222 63.2028C70.5763 63.92 70.2557 64.1056 69.7325 64.1056C68.855 64.1056 68.4332 63.38 68.45 61.9541C68.45 60.5281 68.9225 59.8025 69.6988 59.8025C70.2725 59.8025 70.6353 60.1653 70.8041 60.68L71.8588 60.4269ZM76.7891 60.1991C76.4262 59.3131 75.6162 58.8237 74.6375 58.8237C73.5828 58.8237 72.6716 59.4397 72.6716 60.5281C72.6716 62.4012 75.8103 62.165 75.8103 63.3631C75.8103 63.9537 75.3631 64.1731 74.7809 64.1731C74.0975 64.1731 73.7347 63.7934 73.4562 63.2197L72.4944 63.6416C72.8403 64.5275 73.7769 65.0844 74.7725 65.0844C76.1225 65.0844 76.9072 64.46 76.9072 63.2112C76.9072 61.2369 73.7684 61.4562 73.7684 60.41C73.7684 59.9375 74.1312 59.735 74.6375 59.735C75.1859 59.735 75.5487 60.0556 75.7259 60.5281L76.7891 60.1991ZM11.5988 70.0725H11.6156L12.2991 72.7219H10.8816L11.5988 70.0725ZM9.10969 75H10.2656L10.6284 73.6837H12.5522L12.8897 75H14.0456L12.3159 68.8997H10.8647L9.10969 75ZM14.8162 75H16.8328C18.4443 75 19.5581 74.1056 19.5665 71.9541C19.5581 69.8025 18.4443 68.9081 16.8328 68.9081H14.8162V75ZM15.9806 69.8869H16.7568C18.09 69.8869 18.4021 70.8656 18.4021 71.9541C18.4021 73.0425 18.09 74.0212 16.7568 74.0212H15.9806V69.8869ZM21.4818 75H22.7811L24.3927 68.9081H23.2452L22.1146 73.3969H22.0977L21.0177 68.9081H19.8702L21.4818 75ZM26.7599 70.0725H26.7768L27.4602 72.7219H26.0427L26.7599 70.0725ZM24.2708 75H25.4268L25.7896 73.6837H27.7133L28.0508 75H29.2068L27.4771 68.8997H26.0258L24.2708 75ZM31.0995 75V70.6631H31.1164L33.6055 75H34.7277V68.9081H33.6308V73.0594H33.6139L31.2177 68.9081H30.0027V75H31.0995ZM40.2346 70.4269C39.9478 69.3469 39.2728 68.8237 38.1084 68.8237C36.5559 68.8237 35.6615 69.9628 35.6615 71.9541C35.6615 73.9453 36.5559 75.0844 38.1084 75.0844C39.2221 75.0844 40.0153 74.5444 40.3781 73.4897L39.2981 73.2028C38.9521 73.92 38.6315 74.1056 38.1084 74.1056C37.2309 74.1056 36.809 73.38 36.8259 71.9541C36.8259 70.5281 37.2984 69.8025 38.0746 69.8025C38.6484 69.8025 39.0112 70.1653 39.1799 70.68L40.2346 70.4269ZM45.4012 75V74.0212H42.4396V72.3169H44.5237V71.3381H42.4396V69.8869H45.3083V68.9081H41.2752V75H45.4012ZM52.8938 70.1991C52.531 69.3131 51.721 68.8237 50.7422 68.8237C49.6875 68.8237 48.7763 69.4397 48.7763 70.5281C48.7763 72.4012 51.915 72.165 51.915 73.3631C51.915 73.9537 51.4678 74.1731 50.8857 74.1731C50.2022 74.1731 49.8394 73.7934 49.561 73.2197L48.5991 73.6416C48.945 74.5275 49.8816 75.0844 50.8772 75.0844C52.2272 75.0844 53.0119 74.46 53.0119 73.2112C53.0119 71.2369 49.8732 71.4562 49.8732 70.41C49.8732 69.9375 50.236 69.735 50.7422 69.735C51.2907 69.735 51.6535 70.0556 51.8307 70.5281L52.8938 70.1991ZM58.2797 70.4269C57.9928 69.3469 57.3178 68.8237 56.1534 68.8237C54.6009 68.8237 53.7066 69.9628 53.7066 71.9541C53.7066 73.9453 54.6009 75.0844 56.1534 75.0844C57.2672 75.0844 58.0603 74.5444 58.4231 73.4897L57.3431 73.2028C56.9972 73.92 56.6766 74.1056 56.1534 74.1056C55.2759 74.1056 54.8541 73.38 54.8709 71.9541C54.8709 70.5281 55.3434 69.8025 56.1197 69.8025C56.6934 69.8025 57.0562 70.1653 57.225 70.68L58.2797 70.4269ZM60.5943 75V68.9081H59.4299V75H60.5943ZM66.256 75V74.0212H63.2944V72.3169H65.3785V71.3381H63.2944V69.8869H66.1631V68.9081H62.13V75H66.256ZM68.3597 75V70.6631H68.3765L70.8656 75H71.9878V68.9081H70.8909V73.0594H70.874L68.4778 68.9081H67.2628V75H68.3597ZM77.4948 70.4269C77.2079 69.3469 76.5329 68.8237 75.3685 68.8237C73.816 68.8237 72.9216 69.9628 72.9216 71.9541C72.9216 73.9453 73.816 75.0844 75.3685 75.0844C76.4823 75.0844 77.2754 74.5444 77.6382 73.4897L76.5582 73.2028C76.2123 73.92 75.8916 74.1056 75.3685 74.1056C74.491 74.1056 74.0691 73.38 74.086 71.9541C74.086 70.5281 74.5585 69.8025 75.3348 69.8025C75.9085 69.8025 76.2713 70.1653 76.4401 70.68L77.4948 70.4269ZM82.6613 75V74.0212H79.6997V72.3169H81.7838V71.3381H79.6997V69.8869H82.5685V68.9081H78.5353V75H82.6613Z" fill="white"/>
<path d="M9 65.8438H77.3459V66.2656H9V65.8438ZM9 75.8438H82.9819V76.2656H9V75.8438Z" fill="white"/>
<path d="M12.0721 83.0866V83.5626H13.2131V83.9896C13.2131 84.6056 12.8281 85.1096 12.0021 85.1096C11.2601 85.1096 10.5601 84.6056 10.5601 82.9886C10.5601 81.3716 11.2601 80.8676 12.0021 80.8676C12.5901 80.8676 13.0101 81.1756 13.2621 81.9806L13.7941 81.8756C13.4861 80.7976 12.8281 80.3916 11.9741 80.3916C10.8261 80.3916 10.0001 81.2176 10.0001 82.9886C10.0001 84.7596 10.8261 85.5856 11.9741 85.5856C12.5341 85.5856 13.0381 85.4106 13.2971 85.0536H13.3111V85.5156H13.7731V83.0866H12.0721ZM15.173 82.8066C15.271 82.5616 15.544 82.2396 16.104 82.2396C16.538 82.2396 16.853 82.4216 16.853 82.9046V83.1006C15.236 83.3876 14.627 83.7866 14.627 84.5846C14.627 85.2496 15.103 85.5856 15.663 85.5856C16.209 85.5856 16.615 85.2916 16.867 85.0116L16.923 85.5156H17.441C17.392 85.3266 17.357 85.1306 17.357 84.7316V82.8976C17.357 82.0996 16.713 81.8056 16.097 81.8056C15.411 81.8056 14.963 82.1556 14.732 82.5756L15.173 82.8066ZM16.853 84.5496C16.559 84.8856 16.097 85.1516 15.733 85.1516C15.453 85.1516 15.131 84.9276 15.131 84.5916C15.131 84.0876 15.698 83.7516 16.853 83.5486V84.5496ZM21.193 81.7356C20.92 81.7636 20.626 81.9036 20.409 82.0576C20.171 81.8896 19.898 81.8056 19.506 81.8056C18.729 81.8056 18.127 82.3096 18.127 83.0796C18.127 83.4786 18.281 83.8356 18.624 84.0946C18.344 84.2696 18.134 84.4026 18.134 84.7176C18.134 84.9346 18.309 85.1516 18.589 85.2356C18.197 85.4386 17.973 85.6136 17.973 85.9776C17.973 86.5796 18.519 86.8596 19.541 86.8596C20.675 86.8596 21.2 86.4116 21.2 85.8796C21.2 85.1656 20.647 84.8576 18.925 84.8576C18.743 84.8576 18.624 84.7596 18.624 84.5916C18.624 84.4306 18.715 84.3116 18.911 84.2556C19.107 84.3116 19.261 84.3536 19.555 84.3536C20.29 84.3536 20.885 83.8006 20.885 83.0796C20.885 82.7436 20.738 82.4636 20.633 82.3376C20.759 82.2746 20.983 82.2396 21.193 82.2396V81.7356ZM20.724 85.9006C20.717 86.2576 20.227 86.4256 19.625 86.4256C18.617 86.4256 18.449 86.2436 18.449 85.9706C18.449 85.7116 18.673 85.3616 19.464 85.3616C20.353 85.3616 20.717 85.5436 20.724 85.9006ZM20.409 83.1076C20.409 83.5416 20.115 83.9196 19.541 83.9196C18.981 83.9196 18.603 83.5626 18.603 83.0796C18.603 82.6036 18.911 82.2396 19.485 82.2396C20.101 82.2396 20.409 82.5756 20.409 83.1076ZM22.173 82.8066C22.271 82.5616 22.544 82.2396 23.104 82.2396C23.538 82.2396 23.853 82.4216 23.853 82.9046V83.1006C22.236 83.3876 21.627 83.7866 21.627 84.5846C21.627 85.2496 22.103 85.5856 22.663 85.5856C23.209 85.5856 23.615 85.2916 23.867 85.0116L23.923 85.5156H24.441C24.392 85.3266 24.357 85.1306 24.357 84.7316V82.8976C24.357 82.0996 23.713 81.8056 23.097 81.8056C22.411 81.8056 21.963 82.1556 21.732 82.5756L22.173 82.8066ZM23.853 84.5496C23.559 84.8856 23.097 85.1516 22.733 85.1516C22.453 85.1516 22.131 84.9276 22.131 84.5916C22.131 84.0876 22.698 83.7516 23.853 83.5486V84.5496ZM25.456 81.8756V85.5156H25.96V82.7926C26.191 82.5476 26.625 82.2396 27.003 82.2396C27.367 82.2396 27.598 82.4006 27.598 82.8836V85.5156H28.102V82.8696C28.102 82.0856 27.591 81.8056 27.052 81.8056C26.639 81.8056 26.261 82.0436 25.974 82.3656H25.96V81.8756H25.456ZM31.4947 80.4616V82.2256L31.4667 82.2116C31.1867 81.9806 30.8507 81.8056 30.5077 81.8056C29.8917 81.8056 29.0447 82.2816 29.0447 83.6956C29.0447 85.1516 29.8917 85.5856 30.5357 85.5856C30.9697 85.5856 31.3267 85.3896 31.4947 85.1586L31.5647 85.5156H32.0267C31.9847 85.2496 31.9987 84.9836 31.9987 84.7176V80.4616H31.4947ZM31.4947 84.6616C31.1377 85.0116 30.8997 85.1516 30.5777 85.1516C29.9477 85.1516 29.5487 84.6476 29.5487 83.7236C29.5487 82.6246 29.9897 82.2396 30.5777 82.2396C30.8787 82.2396 31.2217 82.4426 31.4947 82.7436V84.6616ZM35.4823 84.5356C35.2723 84.9136 34.9223 85.1516 34.4743 85.1516C33.8723 85.1516 33.3963 84.5916 33.3963 83.7936H35.7623V83.4576C35.7623 82.2956 35.1323 81.8056 34.3763 81.8056C33.4803 81.8056 32.8923 82.5196 32.8923 83.6956C32.8923 85.0256 33.6623 85.5856 34.4743 85.5856C35.3003 85.5856 35.6363 85.1516 35.8743 84.7386L35.4823 84.5356ZM33.4103 83.3596C33.4523 82.6876 33.7813 82.2396 34.3903 82.2396C34.9363 82.2396 35.2583 82.6876 35.2583 83.3596H33.4103ZM38.9823 84.5356C38.7723 84.9136 38.4223 85.1516 37.9743 85.1516C37.3723 85.1516 36.8963 84.5916 36.8963 83.7936H39.2623V83.4576C39.2623 82.2956 38.6323 81.8056 37.8763 81.8056C36.9803 81.8056 36.3923 82.5196 36.3923 83.6956C36.3923 85.0256 37.1623 85.5856 37.9743 85.5856C38.8003 85.5856 39.1363 85.1516 39.3743 84.7386L38.9823 84.5356ZM36.9103 83.3596C36.9523 82.6876 37.2813 82.2396 37.8903 82.2396C38.4363 82.2396 38.7583 82.6876 38.7583 83.3596H36.9103ZM40.7323 86.8596V85.1656L40.7603 85.1796C41.0403 85.4106 41.3763 85.5856 41.7193 85.5856C42.3353 85.5856 43.1823 85.1096 43.1823 83.6956C43.1823 82.2396 42.3353 81.8056 41.6913 81.8056C41.3413 81.8056 40.9353 82.0296 40.7463 82.3026H40.7323V81.8756H40.2283V86.8596H40.7323ZM40.7323 82.7296C41.0893 82.3796 41.3273 82.2396 41.6493 82.2396C42.2793 82.2396 42.6783 82.7436 42.6783 83.6676C42.6783 84.7666 42.2373 85.1516 41.6493 85.1516C41.3483 85.1516 41.0053 84.9486 40.7323 84.6476V82.7296ZM47.0068 83.8216L47.8258 82.8276L49.3308 85.5156H49.9678L48.2108 82.3656L49.7788 80.4616H49.1138L47.0208 83.0866H47.0068V80.4616H46.4468V85.5156H47.0068V83.8216ZM51.1437 82.8066C51.2417 82.5616 51.5147 82.2396 52.0747 82.2396C52.5087 82.2396 52.8237 82.4216 52.8237 82.9046V83.1006C51.2067 83.3876 50.5977 83.7866 50.5977 84.5846C50.5977 85.2496 51.0737 85.5856 51.6337 85.5856C52.1797 85.5856 52.5857 85.2916 52.8377 85.0116L52.8937 85.5156H53.4117C53.3627 85.3266 53.3277 85.1306 53.3277 84.7316V82.8976C53.3277 82.0996 52.6837 81.8056 52.0677 81.8056C51.3817 81.8056 50.9337 82.1556 50.7027 82.5756L51.1437 82.8066ZM52.8237 84.5496C52.5297 84.8856 52.0677 85.1516 51.7037 85.1516C51.4237 85.1516 51.1017 84.9276 51.1017 84.5916C51.1017 84.0876 51.6687 83.7516 52.8237 83.5486V84.5496ZM54.4267 81.8756V85.5156H54.9307V82.7926C55.1617 82.5476 55.5957 82.2396 55.9737 82.2396C56.3377 82.2396 56.5687 82.4006 56.5687 82.8836V85.5156H57.0727V82.8696C57.0727 82.0856 56.5617 81.8056 56.0227 81.8056C55.6097 81.8056 55.2317 82.0436 54.9447 82.3656H54.9307V81.8756H54.4267ZM61.0534 81.7356C60.7804 81.7636 60.4864 81.9036 60.2694 82.0576C60.0314 81.8896 59.7584 81.8056 59.3664 81.8056C58.5894 81.8056 57.9874 82.3096 57.9874 83.0796C57.9874 83.4786 58.1414 83.8356 58.4844 84.0946C58.2044 84.2696 57.9944 84.4026 57.9944 84.7176C57.9944 84.9346 58.1694 85.1516 58.4494 85.2356C58.0574 85.4386 57.8334 85.6136 57.8334 85.9776C57.8334 86.5796 58.3794 86.8596 59.4014 86.8596C60.5354 86.8596 61.0604 86.4116 61.0604 85.8796C61.0604 85.1656 60.5074 84.8576 58.7854 84.8576C58.6034 84.8576 58.4844 84.7596 58.4844 84.5916C58.4844 84.4306 58.5754 84.3116 58.7714 84.2556C58.9674 84.3116 59.1214 84.3536 59.4154 84.3536C60.1504 84.3536 60.7454 83.8006 60.7454 83.0796C60.7454 82.7436 60.5984 82.4636 60.4934 82.3376C60.6194 82.2746 60.8434 82.2396 61.0534 82.2396V81.7356ZM60.5844 85.9006C60.5774 86.2576 60.0874 86.4256 59.4854 86.4256C58.4774 86.4256 58.3094 86.2436 58.3094 85.9706C58.3094 85.7116 58.5334 85.3616 59.3244 85.3616C60.2134 85.3616 60.5774 85.5436 60.5844 85.9006ZM60.2694 83.1076C60.2694 83.5416 59.9754 83.9196 59.4014 83.9196C58.8414 83.9196 58.4634 83.5626 58.4634 83.0796C58.4634 82.6036 58.7714 82.2396 59.3454 82.2396C59.9614 82.2396 60.2694 82.5756 60.2694 83.1076Z" fill="white"/>
</g>
<defs>
<clipPath id="clip0">
<rect width="150" height="100" fill="white"/>
</clipPath>
</defs>
</svg>
