<svg width="150" height="100" viewBox="0 0 150 100" fill="none" xmlns="http://www.w3.org/2000/svg">
<g clip-path="url(#clip0)">
<rect width="150" height="100" fill="white"/>
<rect x="-13.8889" width="177.778" height="100" fill="#D62B2B"/>
<path d="M150.329 105.037H144.333V92.2054H128.996C126.805 92.2054 125.029 90.1015 125.029 87.5069V64.871C124.923 64.6642 124.817 64.4558 124.713 64.2474L119.006 63.8912L113 63.5171L116.668 48.7487L120.053 35.1225C122.394 17.1704 135.533 2.98129 150.407 0.00102887C152.305 -0.37971 150.329 105.037 150.329 105.037Z" fill="#2D2D2D"/>
<path d="M9.16875 58.8997V59.8784H10.7634V65H11.9278V59.8784H13.5225V58.8997H9.16875ZM15.5109 65V62.5194H16.515L17.6625 65H18.9534L17.6119 62.2831C18.3544 62.0722 18.734 61.4647 18.7256 60.7137C18.7172 59.7097 18.1603 58.9081 16.7765 58.9081H14.3465V65H15.5109ZM15.5109 59.8531H16.574C17.2153 59.8531 17.5612 60.14 17.5612 60.7137C17.5612 61.2875 17.2828 61.5744 16.3715 61.5744H15.5109V59.8531ZM23.5349 62.7725C23.5349 63.7597 23.1468 64.1056 22.3621 64.1056C21.5774 64.1056 21.1893 63.7597 21.1893 62.7725V58.9081H20.0249V62.7219C20.0249 64.5022 21.1218 65.0844 22.3621 65.0844C23.6024 65.0844 24.6993 64.5022 24.6993 62.7219V58.9081H23.5349V62.7725ZM30.0038 60.1991C29.641 59.3131 28.831 58.8237 27.8522 58.8237C26.7975 58.8237 25.8863 59.4397 25.8863 60.5281C25.8863 62.4012 29.025 62.165 29.025 63.3631C29.025 63.9537 28.5778 64.1731 27.9956 64.1731C27.3122 64.1731 26.9494 63.7934 26.671 63.2197L25.7091 63.6416C26.055 64.5275 26.9916 65.0844 27.9872 65.0844C29.3372 65.0844 30.1219 64.46 30.1219 63.2112C30.1219 61.2369 26.9831 61.4562 26.9831 60.41C26.9831 59.9375 27.346 59.735 27.8522 59.735C28.4006 59.735 28.7635 60.0556 28.9406 60.5281L30.0038 60.1991ZM30.7322 58.8997V59.8784H32.3269V65H33.4912V59.8784H35.0859V58.8997H30.7322ZM40.4214 60.0725H40.4383L41.1217 62.7219H39.7042L40.4214 60.0725ZM37.9323 65H39.0883L39.4511 63.6837H41.3748L41.7123 65H42.8683L41.1386 58.8997H39.6873L37.9323 65ZM44.761 65V60.6631H44.7779L47.267 65H48.3892V58.9081H47.2923V63.0594H47.2754L44.8792 58.9081H43.6642V65H44.761ZM49.728 65H51.7446C53.3561 65 54.4699 64.1056 54.4783 61.9541C54.4699 59.8025 53.3561 58.9081 51.7446 58.9081H49.728V65ZM50.8924 59.8869H51.6686C53.0018 59.8869 53.3139 60.8656 53.3139 61.9541C53.3139 63.0425 53.0018 64.0212 51.6686 64.0212H50.8924V59.8869ZM59.0909 65V62.3169H61.1244V61.3381H59.0909V59.8869H61.8078V58.9081H57.9266V65H59.0909ZM66.7915 65V64.0212H63.83V62.3169H65.914V61.3381H63.83V59.8869H66.6987V58.9081H62.6656V65H66.7915ZM69.7137 60.0725H69.7306L70.414 62.7219H68.9965L69.7137 60.0725ZM67.2246 65H68.3806L68.7434 63.6837H70.6671L71.0046 65H72.1606L70.4309 58.8997H68.9796L67.2246 65ZM74.0955 65V62.5194H75.0996L76.2471 65H77.538L76.1964 62.2831C76.9389 62.0722 77.3186 61.4647 77.3102 60.7137C77.3018 59.7097 76.7449 58.9081 75.3611 58.9081H72.9311V65H74.0955ZM74.0955 59.8531H75.1586C75.7999 59.8531 76.1458 60.14 76.1458 60.7137C76.1458 61.2875 75.8674 61.5744 74.9561 61.5744H74.0955V59.8531ZM10.9828 75V68.9081H9.81844V75H10.9828ZM13.5901 75V70.6631H13.6069L16.096 75H17.2182V68.9081H16.1213V73.0594H16.1044L13.7082 68.9081H12.4932V75H13.5901ZM23.0685 70.0725H23.0854L23.7688 72.7219H22.3513L23.0685 70.0725ZM20.5794 75H21.7354L22.0982 73.6837H24.0219L24.3594 75H25.5154L23.7857 68.8997H22.3344L20.5794 75ZM29.9367 75V72.5362H30.9999C32.3161 72.5362 33.1514 71.9878 33.1514 70.7222C33.1514 69.4566 32.3161 68.9081 30.9999 68.9081H28.7724V75H29.9367ZM29.9367 69.8531H30.8649C31.7424 69.8531 31.987 70.1822 31.987 70.7222C31.987 71.2622 31.7424 71.5912 30.8649 71.5912H29.9367V69.8531ZM35.6423 70.0725H35.6592L36.3426 72.7219H34.9251L35.6423 70.0725ZM33.1533 75H34.3092L34.672 73.6837H36.5958L36.9333 75H38.0892L36.3595 68.8997H34.9083L33.1533 75ZM39.982 75V70.6631H39.9988L42.4879 75H43.6101V68.9081H42.5132V73.0594H42.4963L40.1001 68.9081H38.8851V75H39.982ZM44.949 75H46.9655C48.5771 75 49.6908 74.1056 49.6993 71.9541C49.6908 69.8025 48.5771 68.9081 46.9655 68.9081H44.949V75ZM46.1133 69.8869H46.8896C48.2227 69.8869 48.5349 70.8656 48.5349 71.9541C48.5349 73.0425 48.2227 74.0212 46.8896 74.0212H46.1133V69.8869ZM54.7533 75V74.0212H51.7917V72.3169H53.8758V71.3381H51.7917V69.8869H54.6605V68.9081H50.6273V75H54.7533ZM56.7726 75V70.2075H56.7895L58.1395 75H59.0254L60.3923 70.2075H60.4092V75H61.4217V68.9081H59.7679L58.5867 73.1606H58.5698L57.397 68.9081H55.7601V75H56.7726ZM64.088 75V68.9081H62.9236V75H64.088ZM69.7412 70.4269C69.4543 69.3469 68.7793 68.8237 67.6149 68.8237C66.0624 68.8237 65.168 69.9628 65.168 71.9541C65.168 73.9453 66.0624 75.0844 67.6149 75.0844C68.7287 75.0844 69.5218 74.5444 69.8846 73.4897L68.8046 73.2028C68.4587 73.92 68.138 74.1056 67.6149 74.1056C66.7374 74.1056 66.3155 73.38 66.3324 71.9541C66.3324 70.5281 66.8049 69.8025 67.5812 69.8025C68.1549 69.8025 68.5177 70.1653 68.6865 70.68L69.7412 70.4269Z" fill="white"/>
<path d="M9 65.8438H77.9008V66.2656H9V65.8438ZM9 75.8438H70.0702V76.2656H9V75.8438Z" fill="white"/>
<path d="M13.4021 80.4616V82.6316H10.9801V80.4616H10.4201V85.5156H10.9801V83.1076H13.4021V85.5156H13.9621V80.4616H13.4021ZM17.5858 84.5356C17.3758 84.9136 17.0258 85.1516 16.5778 85.1516C15.9758 85.1516 15.4998 84.5916 15.4998 83.7936H17.8658V83.4576C17.8658 82.2956 17.2358 81.8056 16.4798 81.8056C15.5838 81.8056 14.9958 82.5196 14.9958 83.6956C14.9958 85.0256 15.7658 85.5856 16.5778 85.5856C17.4038 85.5856 17.7398 85.1516 17.9778 84.7386L17.5858 84.5356ZM15.5138 83.3596C15.5558 82.6876 15.8848 82.2396 16.4938 82.2396C17.0398 82.2396 17.3618 82.6876 17.3618 83.3596H15.5138ZM18.9368 85.5156H19.4408V81.8756H18.9368V85.5156ZM18.9368 80.3916V80.9936H19.4408V80.3916H18.9368ZM22.9361 80.4616V82.2256L22.9081 82.2116C22.6281 81.9806 22.2921 81.8056 21.9491 81.8056C21.3331 81.8056 20.4861 82.2816 20.4861 83.6956C20.4861 85.1516 21.3331 85.5856 21.9771 85.5856C22.4111 85.5856 22.7681 85.3896 22.9361 85.1586L23.0061 85.5156H23.4681C23.4261 85.2496 23.4401 84.9836 23.4401 84.7176V80.4616H22.9361ZM22.9361 84.6616C22.5791 85.0116 22.3411 85.1516 22.0191 85.1516C21.3891 85.1516 20.9901 84.6476 20.9901 83.7236C20.9901 82.6246 21.4311 82.2396 22.0191 82.2396C22.3201 82.2396 22.6631 82.4426 22.9361 82.7436V84.6616ZM24.7747 85.5156H25.2787V81.8756H24.7747V85.5156ZM24.7747 80.3916V80.9936H25.2787V80.3916H24.7747ZM31.8448 85.5156V85.0396H29.4508V80.4616H28.8908V85.5156H31.8448ZM32.8644 82.8066C32.9624 82.5616 33.2354 82.2396 33.7954 82.2396C34.2294 82.2396 34.5444 82.4216 34.5444 82.9046V83.1006C32.9274 83.3876 32.3184 83.7866 32.3184 84.5846C32.3184 85.2496 32.7944 85.5856 33.3544 85.5856C33.9004 85.5856 34.3064 85.2916 34.5584 85.0116L34.6144 85.5156H35.1324C35.0834 85.3266 35.0484 85.1306 35.0484 84.7316V82.8976C35.0484 82.0996 34.4044 81.8056 33.7884 81.8056C33.1024 81.8056 32.6544 82.1556 32.4234 82.5756L32.8644 82.8066ZM34.5444 84.5496C34.2504 84.8856 33.7884 85.1516 33.4244 85.1516C33.1444 85.1516 32.8224 84.9276 32.8224 84.5916C32.8224 84.0876 33.3894 83.7516 34.5444 83.5486V84.5496ZM36.0144 85.5156H36.5184V83.4996C36.7564 82.7506 37.0854 82.3376 37.7154 82.3236V81.8196C37.1134 81.8196 36.8124 82.0996 36.5324 82.5966H36.5184V81.8756H36.0144V85.5156ZM38.0235 84.8926C38.3595 85.3406 38.9125 85.5856 39.4795 85.5856C40.1375 85.5856 40.7535 85.2286 40.7535 84.5216C40.7535 83.1636 38.6395 83.5696 38.6395 82.7786C38.6395 82.4566 38.8705 82.2396 39.2975 82.2396C39.6895 82.2396 39.9555 82.4076 40.2355 82.7506L40.5855 82.4426C40.3405 82.0716 39.8155 81.8126 39.3395 81.8056C38.6395 81.7986 38.1565 82.1556 38.1355 82.7856C38.0935 84.1156 40.2495 83.6256 40.2495 84.5496C40.2495 84.8576 40.0115 85.1516 39.4655 85.1516C39.0105 85.1516 38.6605 84.9346 38.4225 84.5916L38.0235 84.8926ZM43.7028 83.6956C43.7028 84.6336 43.3178 85.1516 42.7158 85.1516C42.1138 85.1516 41.7288 84.6336 41.7288 83.6956C41.7288 82.7576 42.1138 82.2396 42.7158 82.2396C43.3178 82.2396 43.7028 82.7576 43.7028 83.6956ZM44.2068 83.6956C44.2068 82.6456 43.7098 81.8056 42.7158 81.8056C41.7218 81.8056 41.2248 82.6456 41.2248 83.6956C41.2248 84.7456 41.7218 85.5856 42.7158 85.5856C43.7098 85.5856 44.2068 84.7456 44.2068 83.6956ZM45.0888 81.8756V85.5156H45.5928V82.7926C45.8238 82.5476 46.2578 82.2396 46.6358 82.2396C46.9998 82.2396 47.2308 82.4006 47.2308 82.8836V85.5156H47.7348V82.8696C47.7348 82.0856 47.2238 81.8056 46.6848 81.8056C46.2718 81.8056 45.8938 82.0436 45.6068 82.3656H45.5928V81.8756H45.0888Z" fill="white"/>
</g>
<defs>
<clipPath id="clip0">
<rect width="150" height="100" fill="white"/>
</clipPath>
</defs>
</svg>
