<svg width="150" height="100" viewBox="0 0 150 100" fill="none" xmlns="http://www.w3.org/2000/svg">
<g clip-path="url(#clip0)">
<rect width="150" height="100" fill="white"/>
<rect x="-13.8889" width="177.778" height="100" fill="#D62B2B"/>
<path d="M150.329 105.037H144.333V92.2054H128.996C126.805 92.2054 125.029 90.1015 125.029 87.5069V64.871C124.923 64.6642 124.817 64.4558 124.713 64.2474L119.006 63.8912L113 63.5171L116.668 48.7487L120.053 35.1225C122.394 17.1704 135.533 2.98129 150.407 0.00102887C152.305 -0.37971 150.329 105.037 150.329 105.037Z" fill="#2D2D2D"/>
<path d="M10.6959 65V60.2075H10.7128L12.0628 65H12.9488L14.3156 60.2075H14.3325V65H15.345V58.9081H13.6913L12.51 63.1606H12.4931L11.3203 58.9081H9.68344V65H10.6959ZM18.6273 60.0725H18.6441L19.3276 62.7219H17.9101L18.6273 60.0725ZM16.1382 65H17.2941L17.6569 63.6837H19.5807L19.9182 65H21.0741L19.3444 58.8997H17.8932L16.1382 65ZM22.9669 65V60.6631H22.9838L25.4728 65H26.595V58.9081H25.4981V63.0594H25.4813L23.085 58.9081H21.87V65H22.9669ZM29.8745 60.0725H29.8914L30.5748 62.7219H29.1573L29.8745 60.0725ZM27.3854 65H28.5414L28.9042 63.6837H30.8279L31.1654 65H32.3214L30.5917 58.8997H29.1404L27.3854 65ZM37.4373 60.3762C37.1504 59.4819 36.4417 58.8237 35.2267 58.8237C33.2776 58.8237 32.687 60.4944 32.687 62.0469C32.687 63.7681 33.4548 65.0844 35.1085 65.0844C35.7498 65.0844 36.2054 64.9156 36.6948 64.3756V65H37.5385V61.9203H35.2604V62.8991H36.4163C36.391 63.5994 35.9017 64.1056 35.1423 64.1056C34.3323 64.1056 33.8513 63.2956 33.8513 62.0131C33.8513 60.6631 34.2732 59.8025 35.1338 59.8025C35.7413 59.8025 36.0788 60.0556 36.3573 60.6631L37.4373 60.3762ZM40.0444 65V58.9081H38.88V65H40.0444ZM42.6517 65V60.6631H42.6685L45.1576 65H46.2798V58.9081H45.1829V63.0594H45.166L42.7698 58.9081H41.5548V65H42.6517ZM51.9639 60.3762C51.6771 59.4819 50.9683 58.8237 49.7533 58.8237C47.8043 58.8237 47.2136 60.4944 47.2136 62.0469C47.2136 63.7681 47.9814 65.0844 49.6352 65.0844C50.2764 65.0844 50.7321 64.9156 51.2214 64.3756V65H52.0652V61.9203H49.7871V62.8991H50.943C50.9177 63.5994 50.4283 64.1056 49.6689 64.1056C48.8589 64.1056 48.378 63.2956 48.378 62.0131C48.378 60.6631 48.7999 59.8025 49.6605 59.8025C50.268 59.8025 50.6055 60.0556 50.8839 60.6631L51.9639 60.3762ZM10.9828 75V68.9081H9.81844V75H10.9828ZM13.5901 75V70.6631H13.6069L16.096 75H17.2182V68.9081H16.1213V73.0594H16.1044L13.7082 68.9081H12.4932V75H13.5901ZM19.7214 75V72.3169H21.7549V71.3381H19.7214V69.8869H22.4383V68.9081H18.5571V75H19.7214ZM26.7892 71.9541C26.7892 73.38 26.3505 74.1056 25.397 74.1056C24.4352 74.1056 23.988 73.38 24.0048 71.9541C24.0048 70.5281 24.4436 69.8025 25.397 69.8025C26.3505 69.8025 26.7892 70.5281 26.7892 71.9541ZM27.9536 71.9541C27.9536 69.9628 27.0592 68.8237 25.397 68.8237C23.7348 68.8237 22.8405 69.9628 22.8405 71.9541C22.8405 73.9453 23.7348 75.0844 25.397 75.0844C27.0592 75.0844 27.9536 73.9453 27.9536 71.9541ZM28.8732 75H30.8898C32.5013 75 33.6151 74.1056 33.6235 71.9541C33.6151 69.8025 32.5013 68.9081 30.8898 68.9081H28.8732V75ZM30.0376 69.8869H30.8138C32.147 69.8869 32.4592 70.8656 32.4592 71.9541C32.4592 73.0425 32.147 74.0212 30.8138 74.0212H30.0376V69.8869ZM38.6775 75V74.0212H35.716V72.3169H37.8V71.3381H35.716V69.8869H38.5847V68.9081H34.5516V75H38.6775ZM40.6969 75V70.2075H40.7137L42.0637 75H42.9497L44.3165 70.2075H44.3334V75H45.3459V68.9081H43.6922L42.5109 73.1606H42.494L41.3212 68.9081H39.6844V75H40.6969ZM48.0122 75V68.9081H46.8479V75H48.0122ZM53.6654 70.4269C53.3785 69.3469 52.7035 68.8237 51.5392 68.8237C49.9867 68.8237 49.0923 69.9628 49.0923 71.9541C49.0923 73.9453 49.9867 75.0844 51.5392 75.0844C52.6529 75.0844 53.446 74.5444 53.8089 73.4897L52.7289 73.2028C52.3829 73.92 52.0623 74.1056 51.5392 74.1056C50.6617 74.1056 50.2398 73.38 50.2567 71.9541C50.2567 70.5281 50.7292 69.8025 51.5054 69.8025C52.0792 69.8025 52.442 70.1653 52.6107 70.68L53.6654 70.4269ZM58.5957 70.1991C58.2329 69.3131 57.4229 68.8237 56.4441 68.8237C55.3894 68.8237 54.4782 69.4397 54.4782 70.5281C54.4782 72.4012 57.6169 72.165 57.6169 73.3631C57.6169 73.9537 57.1698 74.1731 56.5876 74.1731C55.9041 74.1731 55.5413 73.7934 55.2629 73.2197L54.301 73.6416C54.6469 74.5275 55.5835 75.0844 56.5791 75.0844C57.9291 75.0844 58.7138 74.46 58.7138 73.2112C58.7138 71.2369 55.5751 71.4562 55.5751 70.41C55.5751 69.9375 55.9379 69.735 56.4441 69.735C56.9926 69.735 57.3554 70.0556 57.5326 70.5281L58.5957 70.1991Z" fill="white"/>
<path d="M9 65.8438H52.5883V66.2656H9V65.8438ZM9 75.8438H59.1526V76.2656H9V75.8438Z" fill="white"/>
<path d="M13.4021 80.9376V80.4616H9.81806V80.9376H11.3301V85.5156H11.8901V80.9376H13.4021ZM13.6321 85.5156H14.1361V81.8756H13.6321V85.5156ZM13.6321 80.3916V80.9936H14.1361V80.3916H13.6321ZM15.9374 85.5156V82.7996C16.2104 82.5336 16.5044 82.2396 16.9524 82.2396C17.2744 82.2396 17.5194 82.4216 17.5194 82.9116V85.5156H18.0234V82.7996C18.2964 82.5336 18.5904 82.2396 19.0384 82.2396C19.3604 82.2396 19.6054 82.4216 19.6054 82.9116V85.5156H20.1094V82.9116C20.1094 82.0086 19.5914 81.8056 19.1084 81.8056C18.6814 81.8056 18.2754 82.0366 17.9534 82.3796C17.8204 82.0436 17.4914 81.8056 17.0224 81.8056C16.6724 81.8056 16.2734 81.9876 15.9654 82.3306L15.9374 82.3586V81.8756H15.4334V85.5156H15.9374ZM24.0832 85.5156V81.0076H24.0972L26.6592 85.5156H27.1212V80.4616H26.6172V84.3536H26.5892L24.3842 80.4616H23.5792V85.5156H24.0832ZM31.235 81.7356C30.962 81.7636 30.668 81.9036 30.451 82.0576C30.213 81.8896 29.94 81.8056 29.548 81.8056C28.771 81.8056 28.169 82.3096 28.169 83.0796C28.169 83.4786 28.323 83.8356 28.666 84.0946C28.386 84.2696 28.176 84.4026 28.176 84.7176C28.176 84.9346 28.351 85.1516 28.631 85.2356C28.239 85.4386 28.015 85.6136 28.015 85.9776C28.015 86.5796 28.561 86.8596 29.583 86.8596C30.717 86.8596 31.242 86.4116 31.242 85.8796C31.242 85.1656 30.689 84.8576 28.967 84.8576C28.785 84.8576 28.666 84.7596 28.666 84.5916C28.666 84.4306 28.757 84.3116 28.953 84.2556C29.149 84.3116 29.303 84.3536 29.597 84.3536C30.332 84.3536 30.927 83.8006 30.927 83.0796C30.927 82.7436 30.78 82.4636 30.675 82.3376C30.801 82.2746 31.025 82.2396 31.235 82.2396V81.7356ZM30.766 85.9006C30.759 86.2576 30.269 86.4256 29.667 86.4256C28.659 86.4256 28.491 86.2436 28.491 85.9706C28.491 85.7116 28.715 85.3616 29.506 85.3616C30.395 85.3616 30.759 85.5436 30.766 85.9006ZM30.451 83.1076C30.451 83.5416 30.157 83.9196 29.583 83.9196C29.023 83.9196 28.645 83.5626 28.645 83.0796C28.645 82.6036 28.953 82.2396 29.527 82.2396C30.143 82.2396 30.451 82.5756 30.451 83.1076ZM34.644 85.5156V81.8756H34.14V84.5986C33.909 84.8436 33.475 85.1516 33.097 85.1516C32.733 85.1516 32.502 84.9906 32.502 84.5076V81.8756H31.998V84.5216C31.998 85.3056 32.509 85.5856 33.048 85.5856C33.461 85.5856 33.839 85.3476 34.126 85.0256H34.14V85.5156H34.644ZM37.7286 81.8756L36.8746 84.6546H36.8606L35.8806 81.8756H35.3486L36.6156 85.5576C36.4406 86.3556 35.9716 86.4256 35.6636 86.4256C35.5516 86.4256 35.4606 86.4116 35.3906 86.4046V86.8176C35.4886 86.8316 35.5866 86.8596 35.7546 86.8596C36.2306 86.8596 36.7136 86.6496 36.9796 85.8376L38.2606 81.8756H37.7286ZM41.245 84.5356C41.035 84.9136 40.685 85.1516 40.237 85.1516C39.635 85.1516 39.159 84.5916 39.159 83.7936H41.525V83.4576C41.525 82.2956 40.895 81.8056 40.139 81.8056C39.243 81.8056 38.655 82.5196 38.655 83.6956C38.655 85.0256 39.425 85.5856 40.237 85.5856C41.063 85.5856 41.399 85.1516 41.637 84.7386L41.245 84.5356ZM39.173 83.3596C39.215 82.6876 39.544 82.2396 40.153 82.2396C40.699 82.2396 41.021 82.6876 41.021 83.3596H39.173ZM42.498 81.8756V85.5156H43.002V82.7926C43.233 82.5476 43.667 82.2396 44.045 82.2396C44.409 82.2396 44.64 82.4006 44.64 82.8836V85.5156H45.144V82.8696C45.144 82.0856 44.633 81.8056 44.094 81.8056C43.681 81.8056 43.303 82.0436 43.016 82.3656H43.002V81.8756H42.498Z" fill="white"/>
</g>
<defs>
<clipPath id="clip0">
<rect width="150" height="100" fill="white"/>
</clipPath>
</defs>
</svg>
