<svg width="637" height="334" viewBox="0 0 637 334" fill="none" xmlns="http://www.w3.org/2000/svg">
<path d="M101.357 192.429C56.3164 192.429 19.8047 224.119 19.8047 263.215C19.8047 302.31 56.3164 334 101.357 334" fill="#3E6CDA"/>
<g style="mix-blend-mode:multiply">
<path d="M33.2448 273.126C51.6054 273.126 66.4897 258.231 66.4897 239.855C66.4897 221.48 51.6054 206.584 33.2448 206.584C14.8842 206.584 0 221.48 0 239.855C0 258.231 14.8842 273.126 33.2448 273.126Z" fill="#CB2E24"/>
</g>
<g style="mix-blend-mode:multiply">
<path d="M78.8046 298.767C85.8807 298.767 91.6171 293.026 91.6171 285.945C91.6171 278.863 85.8807 273.122 78.8046 273.122C71.7285 273.122 65.9922 278.863 65.9922 285.945C65.9922 293.026 71.7285 298.767 78.8046 298.767Z" fill="#CB2E24"/>
</g>
<path d="M492 192C535.989 192 571.644 223.69 571.644 262.786C571.644 301.881 535.985 333.572 492 333.572" fill="#3E6CDA"/>
<g style="mix-blend-mode:multiply">
<path d="M560.112 272.698C578.473 272.698 593.357 257.802 593.357 239.427C593.357 221.052 578.473 206.156 560.112 206.156C541.751 206.156 526.867 221.052 526.867 239.427C526.867 257.802 541.751 272.698 560.112 272.698Z" fill="#CB2E24"/>
</g>
<g style="mix-blend-mode:multiply">
<path d="M514.553 298.338C521.629 298.338 527.365 292.598 527.365 285.516C527.365 278.434 521.629 272.693 514.553 272.693C507.477 272.693 501.74 278.434 501.74 285.516C501.74 292.598 507.477 298.338 514.553 298.338Z" fill="#CB2E24"/>
</g>
<path d="M492 333.996V233.471C492 108.394 404.474 7 296.502 7C188.529 7 101 108.394 101 233.475V334" stroke="#2D2D2D" stroke-width="14" stroke-miterlimit="10"/>
</svg>
