<svg width="1080" height="1080" viewBox="0 0 1080 1080" fill="none" xmlns="http://www.w3.org/2000/svg">
<g clip-path="url(#clip0)">
<g clip-path="url(#clip1)">
<path d="M217.549 582.026C143.094 582.026 82.7383 634.4 82.7383 699.014C82.7383 763.626 143.094 816 217.549 816" fill="#3E6CDA"/>
<g style="mix-blend-mode:multiply">
<g style="mix-blend-mode:multiply">
<path d="M104.956 715.394C135.307 715.394 159.912 690.777 159.912 660.407C159.912 630.039 135.307 605.42 104.956 605.42C74.6045 605.42 50 630.039 50 660.407C50 690.777 74.6045 715.394 104.956 715.394Z" fill="#CB2E24"/>
</g>
</g>
<g style="mix-blend-mode:multiply">
<g style="mix-blend-mode:multiply">
<path d="M180.269 757.771C191.966 757.771 201.449 748.282 201.449 736.58C201.449 724.875 191.966 715.387 180.269 715.387C168.572 715.387 159.089 724.875 159.089 736.58C159.089 748.282 168.572 757.771 180.269 757.771Z" fill="#CB2E24"/>
</g>
</g>
<path d="M863.306 581.317C936.023 581.317 994.962 633.691 994.962 698.305C994.962 762.917 936.016 815.293 863.306 815.293" fill="#3E6CDA"/>
<g style="mix-blend-mode:multiply">
<g style="mix-blend-mode:multiply">
<path d="M975.899 714.687C1006.25 714.687 1030.86 690.068 1030.86 659.7C1030.86 629.331 1006.25 604.713 975.899 604.713C945.548 604.713 920.943 629.331 920.943 659.7C920.943 690.068 945.548 714.687 975.899 714.687Z" fill="#CB2E24"/>
</g>
</g>
<g style="mix-blend-mode:multiply">
<g style="mix-blend-mode:multiply">
<path d="M900.588 757.062C912.285 757.062 921.767 747.575 921.767 735.871C921.767 724.166 912.285 714.678 900.588 714.678C888.891 714.678 879.407 724.166 879.407 735.871C879.407 747.575 888.891 757.062 900.588 757.062Z" fill="#CB2E24"/>
</g>
</g>
<path d="M863.306 815.993V649.856C863.306 443.142 718.62 275.569 540.136 275.569C361.65 275.569 216.959 443.142 216.959 649.863V816" stroke="#2D2D2D" stroke-width="14" stroke-miterlimit="10"/>
</g>
</g>
<defs>
<clipPath id="clip0">
<rect width="1080" height="1080" fill="white"/>
</clipPath>
<clipPath id="clip1">
<rect width="1053" height="552" fill="white" transform="translate(50 264)"/>
</clipPath>
</defs>
</svg>
