<svg width="150" height="100" viewBox="0 0 150 100" fill="none" xmlns="http://www.w3.org/2000/svg">
<g clip-path="url(#clip0)">
<rect width="150" height="100" fill="white"/>
<rect x="-13.8889" width="177.778" height="100" fill="#D62B2B"/>
<path d="M150.329 105.037H144.333V92.2054H128.996C126.805 92.2054 125.029 90.1015 125.029 87.5069V64.871C124.923 64.6642 124.817 64.4558 124.713 64.2474L119.006 63.8912L113 63.5171L116.668 48.7487L120.053 35.1225C122.394 17.1704 135.533 2.98129 150.407 0.00102887C152.305 -0.37971 150.329 105.037 150.329 105.037Z" fill="#2D2D2D"/>
<path d="M10.8225 65V62.3169H12.8559V61.3381H10.8225V59.8869H13.5394V58.9081H9.65813V65H10.8225ZM15.8257 60.0725H15.8426L16.5261 62.7219H15.1086L15.8257 60.0725ZM13.3367 65H14.4926L14.8554 63.6837H16.7792L17.1167 65H18.2726L16.5429 58.8997H15.0917L13.3367 65ZM23.2113 60.4269C22.9244 59.3469 22.2494 58.8237 21.0851 58.8237C19.5326 58.8237 18.6382 59.9628 18.6382 61.9541C18.6382 63.9453 19.5326 65.0844 21.0851 65.0844C22.1988 65.0844 22.9919 64.5444 23.3548 63.4897L22.2748 63.2028C21.9288 63.92 21.6082 64.1056 21.0851 64.1056C20.2076 64.1056 19.7857 63.38 19.8026 61.9541C19.8026 60.5281 20.2751 59.8025 21.0513 59.8025C21.6251 59.8025 21.9879 60.1653 22.1566 60.68L23.2113 60.4269ZM23.7119 58.8997V59.8784H25.3066V65H26.471V59.8784H28.0657V58.8997H23.7119ZM32.83 60.1991C32.4672 59.3131 31.6572 58.8237 30.6784 58.8237C29.6238 58.8237 28.7125 59.4397 28.7125 60.5281C28.7125 62.4012 31.8513 62.165 31.8513 63.3631C31.8513 63.9537 31.4041 64.1731 30.8219 64.1731C30.1384 64.1731 29.7756 63.7934 29.4972 63.2197L28.5353 63.6416C28.8813 64.5275 29.8178 65.0844 30.8134 65.0844C32.1634 65.0844 32.9481 64.46 32.9481 63.2112C32.9481 61.2369 29.8094 61.4562 29.8094 60.41C29.8094 59.9375 30.1722 59.735 30.6784 59.735C31.2269 59.735 31.5897 60.0556 31.7669 60.5281L32.83 60.1991ZM38.5592 60.0725H38.5761L39.2595 62.7219H37.842L38.5592 60.0725ZM36.0701 65H37.2261L37.5889 63.6837H39.5126L39.8501 65H41.0061L39.2764 58.8997H37.8251L36.0701 65ZM42.8988 65V60.6631H42.9157L45.4048 65H46.527V58.9081H45.4301V63.0594H45.4132L43.017 58.9081H41.802V65H42.8988ZM47.8658 65H49.8824C51.494 65 52.6077 64.1056 52.6161 61.9541C52.6077 59.8025 51.494 58.9081 49.8824 58.9081H47.8658V65ZM49.0302 59.8869H49.8065C51.1396 59.8869 51.4518 60.8656 51.4518 61.9541C51.4518 63.0425 51.1396 64.0212 49.8065 64.0212H49.0302V59.8869ZM57.2288 65V62.3169H59.2622V61.3381H57.2288V59.8869H59.9456V58.9081H56.0644V65H57.2288ZM62.232 60.0725H62.2489L62.9323 62.7219H61.5148L62.232 60.0725ZM59.7429 65H60.8989L61.2617 63.6837H63.1854L63.5229 65H64.6789L62.9492 58.8997H61.4979L59.7429 65ZM66.6138 65V63.1691L67.466 62.1059L68.9763 65H70.2673L68.2591 61.1947L69.9888 58.9081H68.6473L66.6138 61.6166V58.9081H65.4494V65H66.6138ZM75.2538 65V64.0212H72.2922V62.3169H74.3763V61.3381H72.2922V59.8869H75.1609V58.9081H71.1278V65H75.2538ZM80.1756 60.1991C79.8128 59.3131 79.0028 58.8237 78.024 58.8237C76.9693 58.8237 76.0581 59.4397 76.0581 60.5281C76.0581 62.4012 79.1968 62.165 79.1968 63.3631C79.1968 63.9537 78.7496 64.1731 78.1675 64.1731C77.484 64.1731 77.1212 63.7934 76.8428 63.2197L75.8809 63.6416C76.2268 64.5275 77.1634 65.0844 78.159 65.0844C79.509 65.0844 80.2937 64.46 80.2937 63.2112C80.2937 61.2369 77.155 61.4562 77.155 60.41C77.155 59.9375 77.5178 59.735 78.024 59.735C78.5725 59.735 78.9353 60.0556 79.1125 60.5281L80.1756 60.1991ZM10.9828 75V68.9081H9.81844V75H10.9828ZM13.5901 75V70.6631H13.6069L16.096 75H17.2182V68.9081H16.1213V73.0594H16.1044L13.7082 68.9081H12.4932V75H13.5901ZM23.0685 70.0725H23.0854L23.7688 72.7219H22.3513L23.0685 70.0725ZM20.5794 75H21.7354L22.0982 73.6837H24.0219L24.3594 75H25.5154L23.7857 68.8997H22.3344L20.5794 75ZM29.9367 75V72.5362H30.9999C32.3161 72.5362 33.1514 71.9878 33.1514 70.7222C33.1514 69.4566 32.3161 68.9081 30.9999 68.9081H28.7724V75H29.9367ZM29.9367 69.8531H30.8649C31.7424 69.8531 31.987 70.1822 31.987 70.7222C31.987 71.2622 31.7424 71.5912 30.8649 71.5912H29.9367V69.8531ZM35.6423 70.0725H35.6592L36.3426 72.7219H34.9251L35.6423 70.0725ZM33.1533 75H34.3092L34.672 73.6837H36.5958L36.9333 75H38.0892L36.3595 68.8997H34.9083L33.1533 75ZM39.982 75V70.6631H39.9988L42.4879 75H43.6101V68.9081H42.5132V73.0594H42.4963L40.1001 68.9081H38.8851V75H39.982ZM44.949 75H46.9655C48.5771 75 49.6908 74.1056 49.6993 71.9541C49.6908 69.8025 48.5771 68.9081 46.9655 68.9081H44.949V75ZM46.1133 69.8869H46.8896C48.2227 69.8869 48.5349 70.8656 48.5349 71.9541C48.5349 73.0425 48.2227 74.0212 46.8896 74.0212H46.1133V69.8869ZM54.7533 75V74.0212H51.7917V72.3169H53.8758V71.3381H51.7917V69.8869H54.6605V68.9081H50.6273V75H54.7533ZM56.7726 75V70.2075H56.7895L58.1395 75H59.0254L60.3923 70.2075H60.4092V75H61.4217V68.9081H59.7679L58.5867 73.1606H58.5698L57.397 68.9081H55.7601V75H56.7726ZM64.088 75V68.9081H62.9236V75H64.088ZM69.7412 70.4269C69.4543 69.3469 68.7793 68.8237 67.6149 68.8237C66.0624 68.8237 65.168 69.9628 65.168 71.9541C65.168 73.9453 66.0624 75.0844 67.6149 75.0844C68.7287 75.0844 69.5218 74.5444 69.8846 73.4897L68.8046 73.2028C68.4587 73.92 68.138 74.1056 67.6149 74.1056C66.7374 74.1056 66.3155 73.38 66.3324 71.9541C66.3324 70.5281 66.8049 69.8025 67.5812 69.8025C68.1549 69.8025 68.5177 70.1653 68.6865 70.68L69.7412 70.4269Z" fill="white"/>
<path d="M9 65.8438H80.7325V66.2656H9V65.8438ZM9 75.8438H70.0702V76.2656H9V75.8438Z" fill="white"/>
<path d="M10.9241 80.9376H12.0021C12.7581 80.9376 13.1151 81.2596 13.1151 81.8616C13.1151 82.4636 12.8071 82.7856 11.8761 82.7856H10.9241V80.9376ZM10.9241 85.5156V83.2616H11.8201C13.0941 83.2616 13.6751 82.7156 13.6751 81.8756C13.6751 81.0776 13.2061 80.4616 12.1281 80.4616H10.3641V85.5156H10.9241ZM14.7834 82.8066C14.8814 82.5616 15.1544 82.2396 15.7144 82.2396C16.1484 82.2396 16.4634 82.4216 16.4634 82.9046V83.1006C14.8464 83.3876 14.2374 83.7866 14.2374 84.5846C14.2374 85.2496 14.7134 85.5856 15.2734 85.5856C15.8194 85.5856 16.2254 85.2916 16.4774 85.0116L16.5334 85.5156H17.0514C17.0024 85.3266 16.9674 85.1306 16.9674 84.7316V82.8976C16.9674 82.0996 16.3234 81.8056 15.7074 81.8056C15.0214 81.8056 14.5734 82.1556 14.3424 82.5756L14.7834 82.8066ZM16.4634 84.5496C16.1694 84.8856 15.7074 85.1516 15.3434 85.1516C15.0634 85.1516 14.7414 84.9276 14.7414 84.5916C14.7414 84.0876 15.3084 83.7516 16.4634 83.5486V84.5496ZM17.5694 81.8756V82.3096H18.1644V84.9836C18.1644 85.4456 18.3954 85.5856 18.9414 85.5856C19.2354 85.5856 19.4384 85.5576 19.5294 85.5296V85.1166C19.3964 85.1376 19.2494 85.1516 19.0814 85.1516C18.7874 85.1516 18.6684 85.0676 18.6684 84.8996V82.3096H19.5084V81.8756H18.6684V80.6786H18.1644V81.8756H17.5694ZM20.2644 85.5156H20.7684V83.4996C21.0064 82.7506 21.3354 82.3376 21.9654 82.3236V81.8196C21.3634 81.8196 21.0624 82.0996 20.7824 82.5966H20.7684V81.8756H20.2644V85.5156ZM22.8265 85.5156H23.3305V81.8756H22.8265V85.5156ZM22.8265 80.3916V80.9936H23.3305V80.3916H22.8265ZM27.1547 82.7926C26.9237 82.2256 26.5737 81.8056 25.8247 81.8056C24.9147 81.8056 24.3337 82.5196 24.3337 83.6956C24.3337 84.8716 24.9147 85.5856 25.8247 85.5856C26.5457 85.5856 26.8677 85.2776 27.2317 84.6616L26.8257 84.4796C26.5457 84.9976 26.2867 85.1516 25.8247 85.1516C25.2017 85.1516 24.8377 84.6196 24.8377 83.6956C24.8377 82.7716 25.2017 82.2396 25.8247 82.2396C26.2587 82.2396 26.5457 82.5196 26.6857 82.9606L27.1547 82.7926ZM28.2747 85.5156H28.7787V81.8756H28.2747V85.5156ZM28.2747 80.3916V80.9936H28.7787V80.3916H28.2747ZM30.342 82.8066C30.44 82.5616 30.713 82.2396 31.273 82.2396C31.707 82.2396 32.022 82.4216 32.022 82.9046V83.1006C30.405 83.3876 29.796 83.7866 29.796 84.5846C29.796 85.2496 30.272 85.5856 30.832 85.5856C31.378 85.5856 31.784 85.2916 32.036 85.0116L32.092 85.5156H32.61C32.561 85.3266 32.526 85.1306 32.526 84.7316V82.8976C32.526 82.0996 31.882 81.8056 31.266 81.8056C30.58 81.8056 30.132 82.1556 29.901 82.5756L30.342 82.8066ZM32.022 84.5496C31.728 84.8856 31.266 85.1516 30.902 85.1516C30.622 85.1516 30.3 84.9276 30.3 84.5916C30.3 84.0876 30.867 83.7516 32.022 83.5486V84.5496ZM36.5068 83.8216L37.3258 82.8276L38.8308 85.5156H39.4678L37.7108 82.3656L39.2788 80.4616H38.6138L36.5208 83.0866H36.5068V80.4616H35.9468V85.5156H36.5068V83.8216ZM40.5247 85.5156H41.0287V81.8756H40.5247V85.5156ZM40.5247 80.3916V80.9936H41.0287V80.3916H40.5247ZM42.375 81.8756V85.5156H42.879V82.7926C43.11 82.5476 43.544 82.2396 43.922 82.2396C44.286 82.2396 44.517 82.4006 44.517 82.8836V85.5156H45.021V82.8696C45.021 82.0856 44.51 81.8056 43.971 81.8056C43.558 81.8056 43.18 82.0436 42.893 82.3656H42.879V81.8756H42.375ZM49.0016 81.7356C48.7286 81.7636 48.4346 81.9036 48.2176 82.0576C47.9796 81.8896 47.7066 81.8056 47.3146 81.8056C46.5376 81.8056 45.9356 82.3096 45.9356 83.0796C45.9356 83.4786 46.0896 83.8356 46.4326 84.0946C46.1526 84.2696 45.9426 84.4026 45.9426 84.7176C45.9426 84.9346 46.1176 85.1516 46.3976 85.2356C46.0056 85.4386 45.7816 85.6136 45.7816 85.9776C45.7816 86.5796 46.3276 86.8596 47.3496 86.8596C48.4836 86.8596 49.0086 86.4116 49.0086 85.8796C49.0086 85.1656 48.4556 84.8576 46.7336 84.8576C46.5516 84.8576 46.4326 84.7596 46.4326 84.5916C46.4326 84.4306 46.5236 84.3116 46.7196 84.2556C46.9156 84.3116 47.0696 84.3536 47.3636 84.3536C48.0986 84.3536 48.6936 83.8006 48.6936 83.0796C48.6936 82.7436 48.5466 82.4636 48.4416 82.3376C48.5676 82.2746 48.7916 82.2396 49.0016 82.2396V81.7356ZM48.5326 85.9006C48.5256 86.2576 48.0356 86.4256 47.4336 86.4256C46.4256 86.4256 46.2576 86.2436 46.2576 85.9706C46.2576 85.7116 46.4816 85.3616 47.2726 85.3616C48.1616 85.3616 48.5256 85.5436 48.5326 85.9006ZM48.2176 83.1076C48.2176 83.5416 47.9236 83.9196 47.3496 83.9196C46.7896 83.9196 46.4116 83.5626 46.4116 83.0796C46.4116 82.6036 46.7196 82.2396 47.2936 82.2396C47.9096 82.2396 48.2176 82.5756 48.2176 83.1076ZM51.8786 83.6956C51.8786 84.6336 51.4936 85.1516 50.8916 85.1516C50.2896 85.1516 49.9046 84.6336 49.9046 83.6956C49.9046 82.7576 50.2896 82.2396 50.8916 82.2396C51.4936 82.2396 51.8786 82.7576 51.8786 83.6956ZM52.3826 83.6956C52.3826 82.6456 51.8856 81.8056 50.8916 81.8056C49.8976 81.8056 49.4006 82.6456 49.4006 83.6956C49.4006 84.7456 49.8976 85.5856 50.8916 85.5856C51.8856 85.5856 52.3826 84.7456 52.3826 83.6956ZM53.1316 85.5156H53.6356V83.4996C53.8736 82.7506 54.2026 82.3376 54.8326 82.3236V81.8196C54.2306 81.8196 53.9296 82.0996 53.6496 82.5966H53.6356V81.8756H53.1316V85.5156ZM55.6937 85.5156H56.1977V81.8756H55.6937V85.5156ZM55.6937 80.3916V80.9936H56.1977V80.3916H55.6937Z" fill="white"/>
</g>
<defs>
<clipPath id="clip0">
<rect width="150" height="100" fill="white"/>
</clipPath>
</defs>
</svg>
