<svg width="150" height="100" viewBox="0 0 150 100" fill="none" xmlns="http://www.w3.org/2000/svg">
<g clip-path="url(#clip0)">
<rect width="150" height="100" fill="white"/>
<rect x="-13.8889" width="177.778" height="100" fill="#D62B2B"/>
<path d="M150.329 105.037H144.333V92.2054H128.996C126.805 92.2054 125.029 90.1015 125.029 87.5069V64.871C124.923 64.6642 124.817 64.4558 124.713 64.2474L119.006 63.8912L113 63.5171L116.668 48.7487L120.053 35.1225C122.394 17.1704 135.533 2.98129 150.407 0.00102887C152.305 -0.37971 150.329 105.037 150.329 105.037Z" fill="#2D2D2D"/>
<path d="M13.4719 65V64.0212H10.8225V58.9081H9.65813V65H13.4719ZM18.5231 65V64.0212H15.5615V62.3169H17.6456V61.3381H15.5615V59.8869H18.4303V58.9081H14.3972V65H18.5231ZM23.4449 60.1991C23.0821 59.3131 22.2721 58.8237 21.2934 58.8237C20.2387 58.8237 19.3274 59.4397 19.3274 60.5281C19.3274 62.4012 22.4662 62.165 22.4662 63.3631C22.4662 63.9537 22.019 64.1731 21.4368 64.1731C20.7534 64.1731 20.3906 63.7934 20.1121 63.2197L19.1502 63.6416C19.4962 64.5275 20.4327 65.0844 21.4284 65.0844C22.7784 65.0844 23.5631 64.46 23.5631 63.2112C23.5631 61.2369 20.4243 61.4562 20.4243 60.41C20.4243 59.9375 20.7871 59.735 21.2934 59.735C21.8418 59.735 22.2046 60.0556 22.3818 60.5281L23.4449 60.1991ZM28.603 60.1991C28.2402 59.3131 27.4302 58.8237 26.4515 58.8237C25.3968 58.8237 24.4855 59.4397 24.4855 60.5281C24.4855 62.4012 27.6243 62.165 27.6243 63.3631C27.6243 63.9537 27.1771 64.1731 26.5949 64.1731C25.9115 64.1731 25.5486 63.7934 25.2702 63.2197L24.3083 63.6416C24.6543 64.5275 25.5908 65.0844 26.5865 65.0844C27.9365 65.0844 28.7211 64.46 28.7211 63.2112C28.7211 61.2369 25.5824 61.4562 25.5824 60.41C25.5824 59.9375 25.9452 59.735 26.4515 59.735C26.9999 59.735 27.3627 60.0556 27.5399 60.5281L28.603 60.1991ZM31.1455 65V58.9081H29.9811V65H31.1455ZM36.1743 61.9541C36.1743 63.38 35.7355 64.1056 34.7821 64.1056C33.8202 64.1056 33.373 63.38 33.3899 61.9541C33.3899 60.5281 33.8287 59.8025 34.7821 59.8025C35.7355 59.8025 36.1743 60.5281 36.1743 61.9541ZM37.3387 61.9541C37.3387 59.9628 36.4443 58.8237 34.7821 58.8237C33.1199 58.8237 32.2255 59.9628 32.2255 61.9541C32.2255 63.9453 33.1199 65.0844 34.7821 65.0844C36.4443 65.0844 37.3387 63.9453 37.3387 61.9541ZM39.3805 65V60.6631H39.3973L41.8864 65H43.0086V58.9081H41.9117V63.0594H41.8948L39.4986 58.9081H38.2836V65H39.3805ZM48.2878 60.1991C47.925 59.3131 47.115 58.8237 46.1362 58.8237C45.0815 58.8237 44.1703 59.4397 44.1703 60.5281C44.1703 62.4012 47.309 62.165 47.309 63.3631C47.309 63.9537 46.8618 64.1731 46.2796 64.1731C45.5962 64.1731 45.2334 63.7934 44.955 63.2197L43.9931 63.6416C44.339 64.5275 45.2756 65.0844 46.2712 65.0844C47.6212 65.0844 48.4059 64.46 48.4059 63.2112C48.4059 61.2369 45.2671 61.4562 45.2671 60.41C45.2671 59.9375 45.63 59.735 46.1362 59.735C46.6846 59.735 47.0475 60.0556 47.2246 60.5281L48.2878 60.1991ZM53.2407 65V62.3169H55.2742V61.3381H53.2407V59.8869H55.9576V58.9081H52.0763V65H53.2407ZM57.9291 65V62.5194H58.9332L60.0807 65H61.3716L60.0301 62.2831C60.7726 62.0722 61.1523 61.4647 61.1438 60.7137C61.1354 59.7097 60.5785 58.9081 59.1948 58.9081H56.7648V65H57.9291ZM57.9291 59.8531H58.9923C59.6335 59.8531 59.9794 60.14 59.9794 60.7137C59.9794 61.2875 59.701 61.5744 58.7898 61.5744H57.9291V59.8531ZM65.9363 61.9541C65.9363 63.38 65.4975 64.1056 64.5441 64.1056C63.5822 64.1056 63.135 63.38 63.1519 61.9541C63.1519 60.5281 63.5906 59.8025 64.5441 59.8025C65.4975 59.8025 65.9363 60.5281 65.9363 61.9541ZM67.1006 61.9541C67.1006 59.9628 66.2063 58.8237 64.5441 58.8237C62.8819 58.8237 61.9875 59.9628 61.9875 61.9541C61.9875 63.9453 62.8819 65.0844 64.5441 65.0844C66.2063 65.0844 67.1006 63.9453 67.1006 61.9541ZM69.0581 65V60.2075H69.0749L70.4249 65H71.3109L72.6777 60.2075H72.6946V65H73.7071V58.9081H72.0534L70.8721 63.1606H70.8552L69.6824 58.9081H68.0456V65H69.0581ZM11.5988 70.0725H11.6156L12.2991 72.7219H10.8816L11.5988 70.0725ZM9.10969 75H10.2656L10.6284 73.6837H12.5522L12.8897 75H14.0456L12.3159 68.8997H10.8647L9.10969 75ZM18.467 75V72.5362H19.5301C20.8464 72.5362 21.6817 71.9878 21.6817 70.7222C21.6817 69.4566 20.8464 68.9081 19.5301 68.9081H17.3026V75H18.467ZM18.467 69.8531H19.3951C20.2726 69.8531 20.5173 70.1822 20.5173 70.7222C20.5173 71.2622 20.2726 71.5912 19.3951 71.5912H18.467V69.8531ZM24.1726 70.0725H24.1895L24.8729 72.7219H23.4554L24.1726 70.0725ZM21.6835 75H22.8395L23.2023 73.6837H25.126L25.4635 75H26.6195L24.8898 68.8997H23.4385L21.6835 75ZM28.5122 75V70.6631H28.5291L31.0182 75H32.1404V68.9081H31.0435V73.0594H31.0266L28.6304 68.9081H27.4154V75H28.5122ZM33.4792 75H35.4958C37.1074 75 38.2211 74.1056 38.2295 71.9541C38.2211 69.8025 37.1074 68.9081 35.4958 68.9081H33.4792V75ZM34.6436 69.8869H35.4199C36.753 69.8869 37.0652 70.8656 37.0652 71.9541C37.0652 73.0425 36.753 74.0212 35.4199 74.0212H34.6436V69.8869ZM43.2835 75V74.0212H40.322V72.3169H42.406V71.3381H40.322V69.8869H43.1907V68.9081H39.1576V75H43.2835ZM45.3029 75V70.2075H45.3197L46.6697 75H47.5557L48.9226 70.2075H48.9394V75H49.9519V68.9081H48.2982L47.1169 73.1606H47.1001L45.9272 68.9081H44.2904V75H45.3029ZM52.6182 75V68.9081H51.4539V75H52.6182ZM58.2714 70.4269C57.9846 69.3469 57.3096 68.8237 56.1452 68.8237C54.5927 68.8237 53.6983 69.9628 53.6983 71.9541C53.6983 73.9453 54.5927 75.0844 56.1452 75.0844C57.2589 75.0844 58.0521 74.5444 58.4149 73.4897L57.3349 73.2028C56.9889 73.92 56.6683 74.1056 56.1452 74.1056C55.2677 74.1056 54.8458 73.38 54.8627 71.9541C54.8627 70.5281 55.3352 69.8025 56.1114 69.8025C56.6852 69.8025 57.048 70.1653 57.2168 70.68L58.2714 70.4269Z" fill="white"/>
<path d="M9 65.8438H76.9641V66.2656H9V65.8438ZM9 75.8438H58.6005V76.2656H9V75.8438Z" fill="white"/>
<path d="M11.5121 80.4616V84.3606C11.5121 84.9416 11.2391 85.1096 10.8961 85.1096C10.5811 85.1096 10.3011 84.9206 10.1401 84.6616L9.72006 84.9346C9.98606 85.2776 10.3221 85.5856 10.9101 85.5856C11.6661 85.5856 12.0721 85.1656 12.0721 84.2136V80.4616H11.5121ZM15.5114 83.6956C15.5114 84.6336 15.1264 85.1516 14.5244 85.1516C13.9224 85.1516 13.5374 84.6336 13.5374 83.6956C13.5374 82.7576 13.9224 82.2396 14.5244 82.2396C15.1264 82.2396 15.5114 82.7576 15.5114 83.6956ZM16.0154 83.6956C16.0154 82.6456 15.5184 81.8056 14.5244 81.8056C13.5304 81.8056 13.0334 82.6456 13.0334 83.6956C13.0334 84.7456 13.5304 85.5856 14.5244 85.5856C15.5184 85.5856 16.0154 84.7456 16.0154 83.6956ZM16.8974 80.4616V85.5156H17.4014V82.7926C17.6324 82.5476 18.0664 82.2396 18.4444 82.2396C18.8084 82.2396 19.0394 82.4006 19.0394 82.8836V85.5156H19.5434V82.8696C19.5434 82.0856 19.0324 81.8056 18.4934 81.8056C18.0804 81.8056 17.7024 82.0436 17.4154 82.3656H17.4014V80.4616H16.8974ZM21.0041 82.8066C21.1021 82.5616 21.3751 82.2396 21.9351 82.2396C22.3691 82.2396 22.6841 82.4216 22.6841 82.9046V83.1006C21.0671 83.3876 20.4581 83.7866 20.4581 84.5846C20.4581 85.2496 20.9341 85.5856 21.4941 85.5856C22.0401 85.5856 22.4461 85.2916 22.6981 85.0116L22.7541 85.5156H23.2721C23.2231 85.3266 23.1881 85.1306 23.1881 84.7316V82.8976C23.1881 82.0996 22.5441 81.8056 21.9281 81.8056C21.2421 81.8056 20.7941 82.1556 20.5631 82.5756L21.0041 82.8066ZM22.6841 84.5496C22.3901 84.8856 21.9281 85.1516 21.5641 85.1516C21.2841 85.1516 20.9621 84.9276 20.9621 84.5916C20.9621 84.0876 21.5291 83.7516 22.6841 83.5486V84.5496ZM24.2871 81.8756V85.5156H24.7911V82.7926C25.0221 82.5476 25.4561 82.2396 25.8341 82.2396C26.1981 82.2396 26.4291 82.4006 26.4291 82.8836V85.5156H26.9331V82.8696C26.9331 82.0856 26.4221 81.8056 25.8831 81.8056C25.4701 81.8056 25.0921 82.0436 24.8051 82.3656H24.7911V81.8756H24.2871ZM28.1767 81.8756V85.5156H28.6807V82.7926C28.9117 82.5476 29.3457 82.2396 29.7237 82.2396C30.0877 82.2396 30.3187 82.4006 30.3187 82.8836V85.5156H30.8227V82.8696C30.8227 82.0856 30.3117 81.8056 29.7727 81.8056C29.3597 81.8056 28.9817 82.0436 28.6947 82.3656H28.6807V81.8756H28.1767ZM32.2834 82.8066C32.3814 82.5616 32.6544 82.2396 33.2144 82.2396C33.6484 82.2396 33.9634 82.4216 33.9634 82.9046V83.1006C32.3464 83.3876 31.7374 83.7866 31.7374 84.5846C31.7374 85.2496 32.2134 85.5856 32.7734 85.5856C33.3194 85.5856 33.7254 85.2916 33.9774 85.0116L34.0334 85.5156H34.5514C34.5024 85.3266 34.4674 85.1306 34.4674 84.7316V82.8976C34.4674 82.0996 33.8234 81.8056 33.2074 81.8056C32.5214 81.8056 32.0734 82.1556 31.8424 82.5756L32.2834 82.8066ZM33.9634 84.5496C33.6694 84.8856 33.2074 85.1516 32.8434 85.1516C32.5634 85.1516 32.2414 84.9276 32.2414 84.5916C32.2414 84.0876 32.8084 83.7516 33.9634 83.5486V84.5496ZM40.8142 80.4616V82.6316H38.3922V80.4616H37.8322V85.5156H38.3922V83.1076H40.8142V85.5156H41.3742V80.4616H40.8142ZM42.9679 82.8066C43.0659 82.5616 43.3389 82.2396 43.8989 82.2396C44.3329 82.2396 44.6479 82.4216 44.6479 82.9046V83.1006C43.0309 83.3876 42.4219 83.7866 42.4219 84.5846C42.4219 85.2496 42.8979 85.5856 43.4579 85.5856C44.0039 85.5856 44.4099 85.2916 44.6619 85.0116L44.7179 85.5156H45.2359C45.1869 85.3266 45.1519 85.1306 45.1519 84.7316V82.8976C45.1519 82.0996 44.5079 81.8056 43.8919 81.8056C43.2059 81.8056 42.7579 82.1556 42.5269 82.5756L42.9679 82.8066ZM44.6479 84.5496C44.3539 84.8856 43.8919 85.1516 43.5279 85.1516C43.2479 85.1516 42.9259 84.9276 42.9259 84.5916C42.9259 84.0876 43.4929 83.7516 44.6479 83.5486V84.5496ZM46.2509 81.8756V85.5156H46.7549V82.7926C46.9859 82.5476 47.4199 82.2396 47.7979 82.2396C48.1619 82.2396 48.3929 82.4006 48.3929 82.8836V85.5156H48.8969V82.8696C48.8969 82.0856 48.3859 81.8056 47.8469 81.8056C47.4339 81.8056 47.0559 82.0436 46.7689 82.3656H46.7549V81.8756H46.2509ZM52.3876 84.5356C52.1776 84.9136 51.8276 85.1516 51.3796 85.1516C50.7776 85.1516 50.3016 84.5916 50.3016 83.7936H52.6676V83.4576C52.6676 82.2956 52.0376 81.8056 51.2816 81.8056C50.3856 81.8056 49.7976 82.5196 49.7976 83.6956C49.7976 85.0256 50.5676 85.5856 51.3796 85.5856C52.2056 85.5856 52.5416 85.1516 52.7796 84.7386L52.3876 84.5356ZM50.3156 83.3596C50.3576 82.6876 50.6866 82.2396 51.2956 82.2396C51.8416 82.2396 52.1636 82.6876 52.1636 83.3596H50.3156ZM54.3266 85.5156V82.3096H55.1176V81.8756H54.3266V81.3436C54.3266 80.9376 54.4526 80.8256 54.7956 80.8256C54.9076 80.8256 55.0406 80.8606 55.1596 80.8746V80.4266C55.0126 80.4126 54.8586 80.3916 54.7116 80.3916C54.1166 80.3916 53.8226 80.6016 53.8226 81.4626V81.8756H53.2066V82.3096H53.8226V85.5156H54.3266ZM58.2186 84.5356C58.0086 84.9136 57.6586 85.1516 57.2106 85.1516C56.6086 85.1516 56.1326 84.5916 56.1326 83.7936H58.4986V83.4576C58.4986 82.2956 57.8686 81.8056 57.1126 81.8056C56.2166 81.8056 55.6286 82.5196 55.6286 83.6956C55.6286 85.0256 56.3986 85.5856 57.2106 85.5856C58.0366 85.5856 58.3726 85.1516 58.6106 84.7386L58.2186 84.5356ZM56.1466 83.3596C56.1886 82.6876 56.5176 82.2396 57.1266 82.2396C57.6726 82.2396 57.9946 82.6876 57.9946 83.3596H56.1466ZM59.5696 80.4616V85.5156H60.0736V80.4616H59.5696ZM63.5689 80.4616V82.2256L63.5409 82.2116C63.2609 81.9806 62.9249 81.8056 62.5819 81.8056C61.9659 81.8056 61.1189 82.2816 61.1189 83.6956C61.1189 85.1516 61.9659 85.5856 62.6099 85.5856C63.0439 85.5856 63.4009 85.3896 63.5689 85.1586L63.6389 85.5156H64.1009C64.0589 85.2496 64.0729 84.9836 64.0729 84.7176V80.4616H63.5689ZM63.5689 84.6616C63.2119 85.0116 62.9739 85.1516 62.6519 85.1516C62.0219 85.1516 61.6229 84.6476 61.6229 83.7236C61.6229 82.6246 62.0639 82.2396 62.6519 82.2396C62.9529 82.2396 63.2959 82.4426 63.5689 82.7436V84.6616Z" fill="white"/>
</g>
<defs>
<clipPath id="clip0">
<rect width="150" height="100" fill="white"/>
</clipPath>
</defs>
</svg>
