<svg width="150" height="100" viewBox="0 0 150 100" fill="none" xmlns="http://www.w3.org/2000/svg">
<g clip-path="url(#clip0)">
<rect width="150" height="100" fill="white"/>
<rect x="-13.8889" width="177.778" height="100" fill="#D62B2B"/>
<path d="M150.329 105.037H144.333V92.2054H128.996C126.805 92.2054 125.029 90.1015 125.029 87.5069V64.871C124.923 64.6642 124.817 64.4558 124.713 64.2474L119.006 63.8912L113 63.5171L116.668 48.7487L120.053 35.1225C122.394 17.1704 135.533 2.98129 150.407 0.00102887C152.305 -0.37971 150.329 105.037 150.329 105.037Z" fill="#2D2D2D"/>
<path d="M9.16875 58.8997V59.8784H10.7634V65H11.9278V59.8784H13.5225V58.8997H9.16875ZM15.5615 65V62.3844H17.9072V65H19.0715V58.9081H17.9072V61.3381H15.5615V58.9081H14.3972V65H15.5615ZM24.6123 65V64.0212H21.6507V62.3169H23.7348V61.3381H21.6507V59.8869H24.5195V58.9081H20.4863V65H24.6123ZM31.9783 65V64.0212H29.329V58.9081H28.1646V65H31.9783ZM34.7936 60.0725H34.8105L35.4939 62.7219H34.0764L34.7936 60.0725ZM32.3046 65H33.4605L33.8233 63.6837H35.7471L36.0846 65H37.2405L35.5108 58.8997H34.0596L32.3046 65ZM39.1333 65V60.6631H39.1502L41.6392 65H42.7614V58.9081H41.6645V63.0594H41.6477L39.2514 58.9081H38.0364V65H39.1333ZM48.4456 60.3762C48.1587 59.4819 47.45 58.8237 46.235 58.8237C44.2859 58.8237 43.6953 60.4944 43.6953 62.0469C43.6953 63.7681 44.4631 65.0844 46.1168 65.0844C46.7581 65.0844 47.2137 64.9156 47.7031 64.3756V65H48.5468V61.9203H46.2687V62.8991H47.4246C47.3993 63.5994 46.91 64.1056 46.1506 64.1056C45.3406 64.1056 44.8596 63.2956 44.8596 62.0131C44.8596 60.6631 45.2815 59.8025 46.1421 59.8025C46.7496 59.8025 47.0871 60.0556 47.3656 60.6631L48.4456 60.3762ZM53.2886 62.7725C53.2886 63.7597 52.9005 64.1056 52.1158 64.1056C51.3311 64.1056 50.943 63.7597 50.943 62.7725V58.9081H49.7786V62.7219C49.7786 64.5022 50.8755 65.0844 52.1158 65.0844C53.3561 65.0844 54.453 64.5022 54.453 62.7219V58.9081H53.2886V62.7725ZM57.7578 60.0725H57.7747L58.4581 62.7219H57.0406L57.7578 60.0725ZM55.2687 65H56.4247L56.7875 63.6837H58.7112L59.0487 65H60.2047L58.475 58.8997H57.0237L55.2687 65ZM65.3206 60.3762C65.0337 59.4819 64.325 58.8237 63.11 58.8237C61.1609 58.8237 60.5703 60.4944 60.5703 62.0469C60.5703 63.7681 61.3381 65.0844 62.9918 65.0844C63.6331 65.0844 64.0887 64.9156 64.5781 64.3756V65H65.4218V61.9203H63.1437V62.8991H64.2996C64.2743 63.5994 63.785 64.1056 63.0256 64.1056C62.2156 64.1056 61.7346 63.2956 61.7346 62.0131C61.7346 60.6631 62.1565 59.8025 63.0171 59.8025C63.6246 59.8025 63.9621 60.0556 64.2406 60.6631L65.3206 60.3762ZM70.7796 65V64.0212H67.818V62.3169H69.9021V61.3381H67.818V59.8869H70.6868V58.9081H66.6536V65H70.7796ZM77.8756 61.9541C77.8756 63.38 77.4369 64.1056 76.4835 64.1056C75.5216 64.1056 75.0744 63.38 75.0913 61.9541C75.0913 60.5281 75.53 59.8025 76.4835 59.8025C77.4369 59.8025 77.8756 60.5281 77.8756 61.9541ZM79.04 61.9541C79.04 59.9628 78.1456 58.8237 76.4835 58.8237C74.8213 58.8237 73.9269 59.9628 73.9269 61.9541C73.9269 63.9453 74.8213 65.0844 76.4835 65.0844C78.1456 65.0844 79.04 63.9453 79.04 61.9541ZM81.124 65V62.3169H83.1575V61.3381H81.124V59.8869H83.8409V58.9081H79.9596V65H81.124ZM10.7381 75V72.5362H11.8013C13.1175 72.5362 13.9528 71.9878 13.9528 70.7222C13.9528 69.4566 13.1175 68.9081 11.8013 68.9081H9.57375V75H10.7381ZM10.7381 69.8531H11.6663C12.5438 69.8531 12.7884 70.1822 12.7884 70.7222C12.7884 71.2622 12.5438 71.5912 11.6663 71.5912H10.7381V69.8531ZM16.4437 70.0725H16.4606L17.144 72.7219H15.7265L16.4437 70.0725ZM13.9547 75H15.1106L15.4734 73.6837H17.3972L17.7347 75H18.8906L17.1609 68.8997H15.7097L13.9547 75ZM20.7834 75V70.6631H20.8002L23.2893 75H24.4115V68.9081H23.3146V73.0594H23.2977L20.9015 68.9081H19.6865V75H20.7834ZM25.7503 75H27.7669C29.3785 75 30.4922 74.1056 30.5007 71.9541C30.4922 69.8025 29.3785 68.9081 27.7669 68.9081H25.7503V75ZM26.9147 69.8869H27.691C29.0241 69.8869 29.3363 70.8656 29.3363 71.9541C29.3363 73.0425 29.0241 74.0212 27.691 74.0212H26.9147V69.8869ZM35.5547 75V74.0212H32.5931V72.3169H34.6772V71.3381H32.5931V69.8869H35.4618V68.9081H31.4287V75H35.5547ZM37.574 75V70.2075H37.5909L38.9409 75H39.8268L41.1937 70.2075H41.2106V75H42.2231V68.9081H40.5693L39.3881 73.1606H39.3712L38.1984 68.9081H36.5615V75H37.574ZM44.8894 75V68.9081H43.725V75H44.8894ZM50.5426 70.4269C50.2557 69.3469 49.5807 68.8237 48.4163 68.8237C46.8638 68.8237 45.9694 69.9628 45.9694 71.9541C45.9694 73.9453 46.8638 75.0844 48.4163 75.0844C49.5301 75.0844 50.3232 74.5444 50.686 73.4897L49.606 73.2028C49.2601 73.92 48.9394 74.1056 48.4163 74.1056C47.5388 74.1056 47.1169 73.38 47.1338 71.9541C47.1338 70.5281 47.6063 69.8025 48.3826 69.8025C48.9563 69.8025 49.3191 70.1653 49.4879 70.68L50.5426 70.4269ZM55.4728 70.1991C55.11 69.3131 54.3 68.8237 53.3213 68.8237C52.2666 68.8237 51.3553 69.4397 51.3553 70.5281C51.3553 72.4012 54.4941 72.165 54.4941 73.3631C54.4941 73.9537 54.0469 74.1731 53.4647 74.1731C52.7813 74.1731 52.4185 73.7934 52.14 73.2197L51.1781 73.6416C51.5241 74.5275 52.4606 75.0844 53.4563 75.0844C54.8063 75.0844 55.591 74.46 55.591 73.2112C55.591 71.2369 52.4522 71.4562 52.4522 70.41C52.4522 69.9375 52.815 69.735 53.3213 69.735C53.8697 69.735 54.2325 70.0556 54.4097 70.5281L55.4728 70.1991Z" fill="white"/>
<path d="M9 65.8438H83.9928V66.2656H9V65.8438ZM9 75.8438H56.0297V76.2656H9V75.8438Z" fill="white"/>
<path d="M14.7391 85.5156V80.4616H13.8571L12.5901 84.5496H12.5761L11.2881 80.4616H10.4201V85.5156H10.9241V80.8956H10.9451L12.3661 85.5156H12.8001L14.2141 80.8956H14.2351V85.5156H14.7391ZM16.3351 82.8066C16.4331 82.5616 16.7061 82.2396 17.2661 82.2396C17.7001 82.2396 18.0151 82.4216 18.0151 82.9046V83.1006C16.3981 83.3876 15.7891 83.7866 15.7891 84.5846C15.7891 85.2496 16.2651 85.5856 16.8251 85.5856C17.3711 85.5856 17.7771 85.2916 18.0291 85.0116L18.0851 85.5156H18.6031C18.5541 85.3266 18.5191 85.1306 18.5191 84.7316V82.8976C18.5191 82.0996 17.8751 81.8056 17.2591 81.8056C16.5731 81.8056 16.1251 82.1556 15.8941 82.5756L16.3351 82.8066ZM18.0151 84.5496C17.7211 84.8856 17.2591 85.1516 16.8951 85.1516C16.6151 85.1516 16.2931 84.9276 16.2931 84.5916C16.2931 84.0876 16.8601 83.7516 18.0151 83.5486V84.5496ZM19.4851 85.5156H19.9891V83.4996C20.2271 82.7506 20.5561 82.3376 21.1861 82.3236V81.8196C20.5841 81.8196 20.2831 82.0996 20.0031 82.5966H19.9891V81.8756H19.4851V85.5156ZM22.0472 85.5156H22.5512V81.8756H22.0472V85.5156ZM22.0472 80.3916V80.9936H22.5512V80.3916H22.0472ZM24.1144 82.8066C24.2124 82.5616 24.4854 82.2396 25.0454 82.2396C25.4794 82.2396 25.7944 82.4216 25.7944 82.9046V83.1006C24.1774 83.3876 23.5684 83.7866 23.5684 84.5846C23.5684 85.2496 24.0444 85.5856 24.6044 85.5856C25.1504 85.5856 25.5564 85.2916 25.8084 85.0116L25.8644 85.5156H26.3824C26.3334 85.3266 26.2984 85.1306 26.2984 84.7316V82.8976C26.2984 82.0996 25.6544 81.8056 25.0384 81.8056C24.3524 81.8056 23.9044 82.1556 23.6734 82.5756L24.1144 82.8066ZM25.7944 84.5496C25.5004 84.8856 25.0384 85.1516 24.6744 85.1516C24.3944 85.1516 24.0724 84.9276 24.0724 84.5916C24.0724 84.0876 24.6394 83.7516 25.7944 83.5486V84.5496ZM27.8524 85.5156V82.7996C28.1254 82.5336 28.4194 82.2396 28.8674 82.2396C29.1894 82.2396 29.4344 82.4216 29.4344 82.9116V85.5156H29.9384V82.7996C30.2114 82.5336 30.5054 82.2396 30.9534 82.2396C31.2754 82.2396 31.5204 82.4216 31.5204 82.9116V85.5156H32.0244V82.9116C32.0244 82.0086 31.5064 81.8056 31.0234 81.8056C30.5964 81.8056 30.1904 82.0366 29.8684 82.3796C29.7354 82.0436 29.4064 81.8056 28.9374 81.8056C28.5874 81.8056 28.1884 81.9876 27.8804 82.3306L27.8524 82.3586V81.8756H27.3484V85.5156H27.8524ZM37.1463 83.0866V83.5626H38.2873V83.9896C38.2873 84.6056 37.9023 85.1096 37.0763 85.1096C36.3343 85.1096 35.6343 84.6056 35.6343 82.9886C35.6343 81.3716 36.3343 80.8676 37.0763 80.8676C37.6643 80.8676 38.0843 81.1756 38.3363 81.9806L38.8683 81.8756C38.5603 80.7976 37.9023 80.3916 37.0483 80.3916C35.9003 80.3916 35.0743 81.2176 35.0743 82.9886C35.0743 84.7596 35.9003 85.5856 37.0483 85.5856C37.6083 85.5856 38.1123 85.4106 38.3713 85.0536H38.3853V85.5156H38.8473V83.0866H37.1463ZM40.0302 80.4616V85.5156H40.5342V82.7926C40.7652 82.5476 41.1992 82.2396 41.5772 82.2396C41.9412 82.2396 42.1722 82.4006 42.1722 82.8836V85.5156H42.6762V82.8696C42.6762 82.0856 42.1652 81.8056 41.6262 81.8056C41.2132 81.8056 40.8352 82.0436 40.5482 82.3656H40.5342V80.4616H40.0302ZM44.1369 82.8066C44.2349 82.5616 44.5079 82.2396 45.0679 82.2396C45.5019 82.2396 45.8169 82.4216 45.8169 82.9046V83.1006C44.1999 83.3876 43.5909 83.7866 43.5909 84.5846C43.5909 85.2496 44.0669 85.5856 44.6269 85.5856C45.1729 85.5856 45.5789 85.2916 45.8309 85.0116L45.8869 85.5156H46.4049C46.3559 85.3266 46.3209 85.1306 46.3209 84.7316V82.8976C46.3209 82.0996 45.6769 81.8056 45.0609 81.8056C44.3749 81.8056 43.9269 82.1556 43.6959 82.5756L44.1369 82.8066ZM45.8169 84.5496C45.5229 84.8856 45.0609 85.1516 44.6969 85.1516C44.4169 85.1516 44.0949 84.9276 44.0949 84.5916C44.0949 84.0876 44.6619 83.7516 45.8169 83.5486V84.5496ZM47.4199 81.8756V85.5156H47.9239V82.7926C48.1549 82.5476 48.5889 82.2396 48.9669 82.2396C49.3309 82.2396 49.5619 82.4006 49.5619 82.8836V85.5156H50.0659V82.8696C50.0659 82.0856 49.5549 81.8056 49.0159 81.8056C48.6029 81.8056 48.2249 82.0436 47.9379 82.3656H47.9239V81.8756H47.4199ZM51.4075 85.5156H51.9115V81.8756H51.4075V85.5156ZM51.4075 80.3916V80.9936H51.9115V80.3916H51.4075Z" fill="white"/>
</g>
<defs>
<clipPath id="clip0">
<rect width="150" height="100" fill="white"/>
</clipPath>
</defs>
</svg>
