<svg width="1080" height="1080" viewBox="0 0 1080 1080" fill="none" xmlns="http://www.w3.org/2000/svg">
<path d="M980.175 564.492C724.996 473.1 583.601 554.864 564.905 623.96H585.066C585.906 621.483 597.666 613.058 637.988 599.182C678.31 585.305 891.972 590.095 990.255 594.225L980.175 564.492Z" fill="#D62B2B"/>
<path d="M102.025 593.305L104.199 562.489C159.954 564.85 167.071 562.489 261.973 542.394C365.179 505.75 451.778 518.754 533.63 623.96H508.314C507.457 621.405 495.457 612.721 454.314 598.415C413.17 584.108 202.312 589.047 102.025 593.305Z" fill="#D62B2B"/>
<path d="M33.217 648.986H429.959C513.351 704.565 553.783 710.124 667.498 648.986H1046.55" stroke="#2D2D2D" stroke-width="19.2857" stroke-linecap="round" stroke-linejoin="round"/>
<path d="M300.995 533.658C410.539 501.55 500.473 580.482 531.747 623.96H567.248C568.093 615.598 579.927 591.854 620.498 563.759C671.214 528.641 732.072 526.132 803.073 526.132C874.073 526.132 978.039 566.266 983.11 563.759C987.168 561.752 976.349 521.116 970.432 501.048C967.897 501.048 946.088 497.035 879.144 480.981C795.466 460.914 704.178 460.914 638.25 508.573C585.505 546.702 548.652 591.351 536.82 608.911L524.14 588.843C473.426 491.016 379.604 438.339 288.316 470.948C197.029 503.558 131.1 493.524 120.957 493.524C112.842 493.524 109.123 540.348 108.278 563.759C126.874 567.103 191.45 565.765 300.995 533.658Z" fill="#3E6CDA"/>
<g style="mix-blend-mode:multiply">
<g style="mix-blend-mode:multiply">
<path d="M901.987 402.245C910.615 402.629 917.921 395.944 918.305 387.314C918.688 378.685 912.005 371.378 903.377 370.994L901.987 402.245ZM903.377 370.994C846.137 368.448 754.352 377.074 676.207 412.93C597.455 449.063 530.5 514.156 530.5 623.96H561.776C561.776 530.325 617.516 474.275 689.249 441.362C761.588 408.17 848.074 399.846 901.987 402.245L903.377 370.994Z" fill="#D62B2B"/>
</g>
</g>
</svg>
