<svg width="504" height="371" viewBox="0 0 504 371" fill="none" xmlns="http://www.w3.org/2000/svg">
<path d="M124.801 43.9037L483.259 45.6827C491.64 45.7243 498.398 52.5501 498.357 60.9311L496.92 350.455C496.878 358.836 490.053 365.594 481.672 365.553L21.1733 363.267C12.7924 363.226 6.03393 356.4 6.07552 348.019L7.51242 58.4951C7.55401 50.1141 14.3799 43.3557 22.7608 43.3973L46.5871 43.5155L46.7122 18.3093C46.7454 11.6184 52.1972 6.22048 58.8881 6.25368L113.137 6.52292C119.878 6.55637 125.295 12.0842 125.192 18.8254L124.801 43.9037Z" fill="white" stroke="#2D2D2D" stroke-width="10" stroke-miterlimit="10"/>
<path d="M439.369 128.901C452.933 128.969 463.982 118.029 464.05 104.467C464.117 90.9057 453.176 79.8572 439.613 79.7899C426.049 79.7225 415 90.6619 414.932 104.224C414.865 117.785 425.806 128.834 439.369 128.901Z" fill="#2D2D2D"/>
<g style="mix-blend-mode:multiply">
<path d="M497.368 197.32L7.89014 194.891L7.76406 220.295L497.242 222.724L497.368 197.32Z" fill="#3E6CDA"/>
</g>
<path d="M251.704 296.863C308.062 297.142 353.976 251.688 354.255 195.337C354.535 138.985 309.075 93.0772 252.717 92.7975C196.359 92.5178 150.445 137.973 150.165 194.324C149.885 250.675 195.346 296.583 251.704 296.863Z" fill="#3E6CDA"/>
<path d="M287.097 227.816C309.223 227.926 327.248 210.081 327.358 187.958C327.467 165.836 309.62 147.813 287.495 147.703C265.369 147.593 247.344 165.438 247.234 187.561C247.125 209.683 264.972 227.706 287.097 227.816Z" fill="#2D2D2D"/>
<g style="mix-blend-mode:multiply">
<path d="M187.227 335.968C216.548 336.114 240.435 312.465 240.581 283.148C240.726 253.831 217.075 229.946 187.754 229.801C158.433 229.655 134.546 253.304 134.4 282.621C134.255 311.938 157.906 335.823 187.227 335.968Z" fill="#D62B2B"/>
</g>
</svg>
