<svg width="1080" height="1080" viewBox="0 0 1080 1080" fill="none" xmlns="http://www.w3.org/2000/svg">
<path d="M317.649 291.92L945.662 295.037C960.345 295.11 972.185 307.069 972.113 321.752L969.596 829.004C969.522 843.688 957.565 855.528 942.881 855.456L136.095 851.451C121.412 851.379 109.571 839.42 109.644 824.737L112.161 317.484C112.234 302.801 124.193 290.96 138.876 291.033L180.62 291.24L180.839 247.078C180.897 235.355 190.448 225.898 202.171 225.956L297.214 226.428C309.024 226.487 318.515 236.172 318.334 247.982L317.649 291.92Z" fill="white" stroke="#2D2D2D" stroke-width="10" stroke-miterlimit="10"/>
<path d="M868.768 440.837C892.532 440.956 911.889 421.789 912.009 398.028C912.126 374.269 892.958 354.911 869.195 354.794C845.431 354.675 826.074 373.841 825.955 397.603C825.837 421.362 845.006 440.72 868.768 440.837Z" fill="#2D2D2D"/>
<g style="mix-blend-mode:multiply">
<g style="mix-blend-mode:multiply">
<path d="M970.381 560.709L112.823 556.453L112.603 600.962L970.16 605.217L970.381 560.709Z" fill="#3E6CDA"/>
</g>
</g>
<path d="M539.982 735.11C638.72 735.599 719.161 655.963 719.65 557.235C720.14 458.505 640.495 378.073 541.757 377.583C443.018 377.093 362.578 456.732 362.087 555.46C361.597 654.188 441.244 734.62 539.982 735.11Z" fill="#3E6CDA"/>
<path d="M601.99 614.139C640.754 614.332 672.334 583.067 672.526 544.307C672.717 505.549 641.45 473.972 602.687 473.779C563.923 473.586 532.343 504.851 532.15 543.611C531.959 582.369 563.227 613.946 601.99 614.139Z" fill="#2D2D2D"/>
<g style="mix-blend-mode:multiply">
<g style="mix-blend-mode:multiply">
<path d="M427.019 803.623C478.389 803.879 520.239 762.446 520.494 711.082C520.748 659.718 479.312 617.87 427.942 617.616C376.572 617.361 334.723 658.794 334.467 710.158C334.213 761.522 375.649 803.369 427.019 803.623Z" fill="#D62B2B"/>
</g>
</g>
</svg>
