<svg width="339" height="77" viewBox="0 0 339 77" fill="none" xmlns="http://www.w3.org/2000/svg">
<path d="M100.072 26.792C98.92 25.544 97.704 24.92 96.424 24.92C96.008 24.92 95.624 25 95.272 25.16C94.92 25.32 94.6 25.64 94.312 26.12C94.056 26.568 93.848 27.208 93.688 28.04C93.528 28.84 93.448 29.88 93.448 31.16V36.728C93.448 38.04 93.528 39.096 93.688 39.896C93.848 40.696 94.056 41.336 94.312 41.816C94.6 42.264 94.92 42.568 95.272 42.728C95.624 42.888 96.008 42.968 96.424 42.968C97.704 42.968 98.92 42.344 100.072 41.096V26.792ZM100.552 47V43.832H100.456C100.2 44.248 99.848 44.68 99.4 45.128C98.952 45.544 98.44 45.928 97.864 46.28C97.288 46.632 96.664 46.92 95.992 47.144C95.352 47.368 94.696 47.48 94.024 47.48C91.656 47.48 89.96 46.6 88.936 44.84C87.912 43.08 87.4 40.504 87.4 37.112V30.776C87.4 27.384 87.912 24.808 88.936 23.048C89.96 21.288 91.656 20.408 94.024 20.408C94.856 20.408 95.704 20.632 96.568 21.08C97.464 21.496 98.632 22.232 100.072 23.288V12.344L106.12 12.344V47H100.552ZM117.448 39.128C117.448 40.152 117.768 40.92 118.408 41.432C119.08 41.944 119.944 42.2 121 42.2C122.056 42.2 122.904 41.944 123.544 41.432C124.216 40.92 124.552 40.152 124.552 39.128V28.76C124.552 27.736 124.216 26.968 123.544 26.456C122.904 25.944 122.056 25.688 121 25.688C119.944 25.688 119.08 25.944 118.408 26.456C117.768 26.968 117.448 27.736 117.448 28.76V39.128ZM111.4 30.296C111.4 26.84 112.232 24.328 113.896 22.76C115.592 21.192 117.96 20.408 121 20.408C124.008 20.408 126.36 21.192 128.056 22.76C129.752 24.328 130.6 26.84 130.6 30.296V37.592C130.6 41.048 129.752 43.56 128.056 45.128C126.36 46.696 124.008 47.48 121 47.48C117.96 47.48 115.592 46.696 113.896 45.128C112.232 43.56 111.4 41.048 111.4 37.592V30.296ZM148.552 29.912V28.76C148.552 27.736 148.216 26.968 147.544 26.456C146.904 25.944 146.056 25.688 145 25.688C143.944 25.688 143.08 25.944 142.408 26.456C141.768 26.968 141.448 27.736 141.448 28.76V39.128C141.448 40.152 141.768 40.92 142.408 41.432C143.08 41.944 143.944 42.2 145 42.2C146.056 42.2 146.904 41.944 147.544 41.432C148.216 40.92 148.552 40.152 148.552 39.128V37.496L154.6 37.496V37.592C154.6 41.048 153.752 43.56 152.056 45.128C150.36 46.696 148.008 47.48 145 47.48C141.96 47.48 139.592 46.696 137.896 45.128C136.232 43.56 135.4 41.048 135.4 37.592V30.296C135.4 26.84 136.232 24.328 137.896 22.76C139.592 21.192 141.96 20.408 145 20.408C147.976 20.408 150.296 21.16 151.96 22.664C153.624 24.168 154.488 26.584 154.552 29.912H148.552ZM178.12 20.888V47H172.264V44.024C171.144 44.984 170.04 45.8 168.952 46.472C167.896 47.144 166.744 47.48 165.496 47.48C163.64 47.48 162.232 46.968 161.272 45.944C160.344 44.92 159.88 43.192 159.88 40.76V20.888L165.928 20.888V40.088C165.928 40.952 166.088 41.656 166.408 42.2C166.728 42.712 167.304 42.968 168.136 42.968C168.776 42.968 169.432 42.728 170.104 42.248C170.776 41.736 171.432 41.192 172.072 40.616V20.888H178.12ZM183.88 20.888L189.736 20.888V23.864C190.728 22.968 191.736 22.168 192.76 21.464C193.784 20.76 194.936 20.408 196.216 20.408C197.336 20.408 198.296 20.76 199.096 21.464C199.896 22.168 200.472 23.128 200.824 24.344C201.752 23.32 202.728 22.408 203.752 21.608C204.776 20.808 205.944 20.408 207.256 20.408C209.08 20.408 210.456 20.968 211.384 22.088C212.312 23.208 212.776 24.952 212.776 27.32V47H206.728V27.128C206.728 26.264 206.584 25.688 206.296 25.4C206.008 25.08 205.624 24.92 205.144 24.92C204.856 24.92 204.536 25 204.184 25.16C203.832 25.288 203.464 25.48 203.08 25.736C202.728 25.96 202.392 26.216 202.072 26.504C201.784 26.76 201.544 27.016 201.352 27.272V47L195.304 47V27.128C195.304 26.264 195.144 25.688 194.824 25.4C194.536 25.08 194.152 24.92 193.672 24.92C193.352 24.92 193 25 192.616 25.16C192.264 25.288 191.912 25.48 191.56 25.736C191.24 25.96 190.936 26.216 190.648 26.504C190.36 26.76 190.12 27.016 189.928 27.272V47H183.88V20.888ZM231.193 30.488V29.048C231.193 27.896 230.905 26.984 230.329 26.312C229.753 25.64 228.857 25.304 227.641 25.304C226.425 25.304 225.529 25.64 224.953 26.312C224.377 26.984 224.089 27.896 224.089 29.048V30.488L231.193 30.488ZM224.089 35.384V38.84C224.089 40.152 224.425 41.112 225.097 41.72C225.769 42.296 226.617 42.584 227.641 42.584C228.921 42.584 229.833 42.232 230.377 41.528C230.921 40.824 231.193 39.96 231.193 38.936H237.241C237.081 41.656 236.201 43.768 234.601 45.272C233.033 46.744 230.713 47.48 227.641 47.48C226.201 47.48 224.889 47.272 223.705 46.856C222.521 46.408 221.513 45.784 220.681 44.984C219.849 44.184 219.193 43.224 218.713 42.104C218.265 40.952 218.041 39.656 218.041 38.216V29.672C218.041 28.232 218.265 26.952 218.713 25.832C219.193 24.68 219.849 23.704 220.681 22.904C221.513 22.104 222.521 21.496 223.705 21.08C224.889 20.632 226.201 20.408 227.641 20.408C229.049 20.408 230.329 20.632 231.481 21.08C232.665 21.496 233.673 22.088 234.505 22.856C235.369 23.624 236.041 24.552 236.521 25.64C237.001 26.728 237.241 27.944 237.241 29.288V35.384H224.089ZM242.521 47V20.888H248.377V23.864C249.497 22.904 250.585 22.088 251.641 21.416C252.729 20.744 253.897 20.408 255.145 20.408C257.001 20.408 258.393 20.92 259.321 21.944C260.281 22.968 260.761 24.696 260.761 27.128V47H254.713V27.8C254.713 26.936 254.553 26.248 254.233 25.736C253.913 25.192 253.337 24.92 252.505 24.92C251.865 24.92 251.209 25.176 250.537 25.688C249.865 26.168 249.209 26.696 248.569 27.272V47H242.521ZM263.929 26.936V22.04H266.329V14.936L272.377 14.936V22.04L276.265 22.04V26.936L272.377 26.936V40.28C272.377 40.92 272.617 41.4 273.097 41.72C273.609 42.04 274.281 42.2 275.113 42.2C275.337 42.2 275.545 42.2 275.737 42.2C275.929 42.2 276.121 42.184 276.313 42.152V47.24C275.737 47.336 275.161 47.4 274.585 47.432C274.009 47.464 273.433 47.48 272.857 47.48C270.873 47.48 269.289 47.096 268.105 46.328C266.921 45.528 266.329 44.184 266.329 42.296V26.936H263.929ZM280.648 16.376V10.904H286.696V16.376H280.648ZM286.696 20.888V47L280.648 47V20.888H286.696ZM293.239 47V20.888L299.095 20.888V23.864C300.215 22.904 301.303 22.088 302.359 21.416C303.447 20.744 304.615 20.408 305.863 20.408C307.719 20.408 309.111 20.92 310.039 21.944C310.999 22.968 311.479 24.696 311.479 27.128V47H305.431V27.8C305.431 26.936 305.271 26.248 304.951 25.736C304.631 25.192 304.055 24.92 303.223 24.92C302.583 24.92 301.927 25.176 301.255 25.688C300.583 26.168 299.927 26.696 299.287 27.272V47H293.239ZM322.423 48.152C322.103 48.472 321.815 48.776 321.559 49.064C321.303 49.384 321.175 49.784 321.175 50.264C321.175 50.936 321.639 51.416 322.567 51.704C323.527 52.024 324.903 52.184 326.695 52.184C328.135 52.184 329.255 52.008 330.055 51.656C330.855 51.304 331.255 50.792 331.255 50.12C331.255 49.672 331.111 49.336 330.823 49.112C330.567 48.92 329.975 48.792 329.047 48.728L322.423 48.152ZM328.375 30.344C328.375 26.984 327.319 25.304 325.207 25.304C324.055 25.304 323.239 25.736 322.759 26.6C322.279 27.464 322.039 28.92 322.039 30.968C322.039 32.6 322.279 33.832 322.759 34.664C323.271 35.464 323.991 35.864 324.919 35.864C325.559 35.864 326.103 35.8 326.551 35.672C326.999 35.512 327.351 35.224 327.607 34.808C327.895 34.392 328.087 33.832 328.183 33.128C328.311 32.424 328.375 31.496 328.375 30.344ZM337.303 25.688C337.047 25.624 336.727 25.544 336.343 25.448C335.991 25.352 335.687 25.304 335.431 25.304C335.111 25.304 334.791 25.368 334.471 25.496C334.151 25.624 333.783 25.752 333.367 25.88C333.559 26.744 333.735 27.528 333.895 28.232C334.055 28.936 334.135 29.688 334.135 30.488C334.135 33.784 333.431 36.328 332.023 38.12C330.615 39.88 328.407 40.76 325.399 40.76C324.951 40.76 324.535 40.744 324.151 40.712C323.767 40.68 323.351 40.584 322.903 40.424C322.743 40.68 322.519 40.92 322.231 41.144C321.975 41.368 321.847 41.64 321.847 41.96C321.847 42.504 322.215 42.856 322.951 43.016C323.719 43.176 324.663 43.272 325.783 43.304C326.903 43.336 328.119 43.4 329.431 43.496C330.743 43.56 331.959 43.784 333.079 44.168C334.199 44.552 335.127 45.176 335.863 46.04C336.631 46.872 337.015 48.072 337.015 49.64C337.015 50.76 336.727 51.72 336.151 52.52C335.607 53.352 334.823 54.04 333.799 54.584C332.807 55.128 331.591 55.528 330.151 55.784C328.743 56.072 327.159 56.216 325.399 56.216C322.167 56.216 319.687 55.784 317.959 54.92C316.263 54.088 315.415 52.936 315.415 51.464C315.415 50.984 315.527 50.536 315.751 50.12C316.007 49.736 316.311 49.368 316.663 49.016C317.047 48.696 317.447 48.392 317.863 48.104C318.311 47.848 318.711 47.608 319.063 47.384C318.327 46.936 317.719 46.424 317.239 45.848C316.791 45.24 316.567 44.52 316.567 43.688C316.567 43.176 316.679 42.712 316.903 42.296C317.159 41.848 317.463 41.448 317.815 41.096C318.199 40.712 318.599 40.376 319.015 40.088C319.431 39.8 319.831 39.544 320.215 39.32C318.743 38.36 317.719 37.16 317.143 35.72C316.567 34.28 316.279 32.456 316.279 30.248C316.279 28.84 316.423 27.544 316.711 26.36C316.999 25.144 317.495 24.104 318.199 23.24C318.903 22.344 319.815 21.656 320.935 21.176C322.087 20.664 323.511 20.408 325.207 20.408C326.455 20.408 327.703 20.68 328.951 21.224C330.231 21.768 331.255 22.504 332.023 23.432C332.791 22.472 333.575 21.736 334.375 21.224C335.207 20.68 336.183 20.408 337.303 20.408V25.688Z" fill="white"/>
<path d="M93.2 66.38C89.92 66.9533 88.28 67.9467 88.28 69.36C88.28 69.6 88.3333 69.82 88.44 70.02C88.5467 70.22 88.68 70.3933 88.84 70.54C89 70.6733 89.18 70.78 89.38 70.86C89.5933 70.9267 89.8 70.96 90 70.96C90.2533 70.96 90.5267 70.92 90.82 70.84C91.1133 70.7467 91.4 70.62 91.68 70.46C91.96 70.3 92.2267 70.12 92.48 69.92C92.7467 69.7067 92.9867 69.48 93.2 69.24V66.38ZM87.14 63.6C87.4733 63 87.96 62.4867 88.6 62.06C89.24 61.62 90.0533 61.4 91.04 61.4C91.48 61.4 91.9133 61.46 92.34 61.58C92.7667 61.6867 93.1467 61.8667 93.48 62.12C93.8267 62.36 94.1067 62.68 94.32 63.08C94.5333 63.4667 94.64 63.9467 94.64 64.52V69.76C94.64 70.3333 94.66 70.7867 94.7 71.12C94.7533 71.44 94.8133 71.7333 94.88 72H93.4L93.24 70.56C92.88 70.96 92.4133 71.3333 91.84 71.68C91.2667 72.0267 90.5867 72.2 89.8 72.2C89.4 72.2 89.02 72.14 88.66 72.02C88.3 71.9 87.9867 71.72 87.72 71.48C87.4533 71.24 87.24 70.9467 87.08 70.6C86.92 70.24 86.84 69.82 86.84 69.34C86.84 68.7667 86.9533 68.2667 87.18 67.84C87.4067 67.4 87.7733 67.0133 88.28 66.68C88.7867 66.3333 89.44 66.0333 90.24 65.78C91.0533 65.5267 92.04 65.3 93.2 65.1V64.54C93.2 63.8467 93 63.36 92.6 63.08C92.2 62.7867 91.6867 62.64 91.06 62.64C90.66 62.64 90.3067 62.6933 90 62.8C89.7067 62.8933 89.4533 63.02 89.24 63.18C89.0267 63.34 88.8467 63.52 88.7 63.72C88.5667 63.9067 88.4667 64.0867 88.4 64.26L87.14 63.6ZM97.62 69.36C97.9667 69.8533 98.3867 70.2467 98.88 70.54C99.3733 70.82 99.9467 70.96 100.6 70.96C101.373 70.96 101.94 70.7867 102.3 70.44C102.66 70.08 102.84 69.68 102.84 69.24C102.84 68.8 102.687 68.46 102.38 68.22C102.073 67.9667 101.693 67.76 101.24 67.6C100.787 67.44 100.293 67.2933 99.76 67.16C99.24 67.0133 98.7533 66.8267 98.3 66.6C97.86 66.3733 97.4933 66.08 97.2 65.72C96.9067 65.3467 96.7733 64.84 96.8 64.2C96.8267 63.2933 97.1533 62.6 97.78 62.12C98.42 61.6267 99.24 61.3867 100.24 61.4C100.573 61.4 100.913 61.4467 101.26 61.54C101.62 61.6333 101.953 61.76 102.26 61.92C102.58 62.08 102.873 62.2733 103.14 62.5C103.407 62.7133 103.627 62.9533 103.8 63.22L102.8 64.1C102.4 63.6067 101.993 63.24 101.58 63C101.167 62.76 100.68 62.64 100.12 62.64C99.5067 62.64 99.04 62.78 98.72 63.06C98.4 63.34 98.24 63.7133 98.24 64.18C98.24 64.5533 98.3867 64.8467 98.68 65.06C98.9867 65.2733 99.36 65.46 99.8 65.62C100.253 65.7667 100.74 65.9133 101.26 66.06C101.78 66.2067 102.26 66.4067 102.7 66.66C103.153 66.9 103.527 67.22 103.82 67.62C104.127 68.0067 104.28 68.52 104.28 69.16C104.28 69.6667 104.18 70.1133 103.98 70.5C103.78 70.8733 103.507 71.1867 103.16 71.44C102.827 71.6933 102.44 71.88 102 72C101.56 72.1333 101.107 72.2 100.64 72.2C99.8267 72.2 99.0467 72.0333 98.3 71.7C97.5667 71.3533 96.96 70.86 96.48 70.22L97.62 69.36ZM114.48 57.36V59.08H113.04V57.36H114.48ZM113.04 61.6L114.48 61.6V72H113.04V61.6ZM118.607 61.6V58.18H120.047V61.6H122.447V62.84H120.047V70.24C120.047 70.48 120.134 70.66 120.307 70.78C120.494 70.9 120.8 70.96 121.227 70.96C121.467 70.96 121.694 70.9533 121.907 70.94C122.12 70.9133 122.32 70.8867 122.507 70.86V72.04C122.374 72.08 122.167 72.1133 121.887 72.14C121.607 72.18 121.254 72.2 120.827 72.2C120.04 72.2 119.474 72.08 119.127 71.84C118.78 71.6 118.607 71.1467 118.607 70.48V62.84H116.907V61.6H118.607ZM132.521 57.56V63H132.561C132.974 62.5333 133.441 62.1533 133.961 61.86C134.481 61.5533 135.041 61.4 135.641 61.4C136.027 61.4 136.401 61.4533 136.761 61.56C137.121 61.6667 137.441 61.84 137.721 62.08C138.001 62.32 138.221 62.6333 138.381 63.02C138.554 63.4067 138.641 63.88 138.641 64.44V72H137.201V64.48C137.201 63.7867 137.047 63.3067 136.741 63.04C136.434 62.7733 136.021 62.64 135.501 62.64C135.234 62.64 134.954 62.6933 134.661 62.8C134.381 62.8933 134.107 63.02 133.841 63.18C133.587 63.3267 133.341 63.4933 133.101 63.68C132.874 63.8667 132.681 64.0467 132.521 64.22V72H131.081V57.56H132.521ZM147.614 66.38C144.334 66.9533 142.694 67.9467 142.694 69.36C142.694 69.6 142.747 69.82 142.854 70.02C142.961 70.22 143.094 70.3933 143.254 70.54C143.414 70.6733 143.594 70.78 143.794 70.86C144.007 70.9267 144.214 70.96 144.414 70.96C144.667 70.96 144.941 70.92 145.234 70.84C145.527 70.7467 145.814 70.62 146.094 70.46C146.374 70.3 146.641 70.12 146.894 69.92C147.161 69.7067 147.401 69.48 147.614 69.24V66.38ZM141.554 63.6C141.887 63 142.374 62.4867 143.014 62.06C143.654 61.62 144.467 61.4 145.454 61.4C145.894 61.4 146.327 61.46 146.754 61.58C147.181 61.6867 147.561 61.8667 147.894 62.12C148.241 62.36 148.521 62.68 148.734 63.08C148.947 63.4667 149.054 63.9467 149.054 64.52V69.76C149.054 70.3333 149.074 70.7867 149.114 71.12C149.167 71.44 149.227 71.7333 149.294 72H147.814L147.654 70.56C147.294 70.96 146.827 71.3333 146.254 71.68C145.681 72.0267 145.001 72.2 144.214 72.2C143.814 72.2 143.434 72.14 143.074 72.02C142.714 71.9 142.401 71.72 142.134 71.48C141.867 71.24 141.654 70.9467 141.494 70.6C141.334 70.24 141.254 69.82 141.254 69.34C141.254 68.7667 141.367 68.2667 141.594 67.84C141.821 67.4 142.187 67.0133 142.694 66.68C143.201 66.3333 143.854 66.0333 144.654 65.78C145.467 65.5267 146.454 65.3 147.614 65.1V64.54C147.614 63.8467 147.414 63.36 147.014 63.08C146.614 62.7867 146.101 62.64 145.474 62.64C145.074 62.64 144.721 62.6933 144.414 62.8C144.121 62.8933 143.867 63.02 143.654 63.18C143.441 63.34 143.261 63.52 143.114 63.72C142.981 63.9067 142.881 64.0867 142.814 64.26L141.554 63.6ZM153.614 69.52C154.001 69.9467 154.427 70.2933 154.894 70.56C155.361 70.8267 155.807 70.96 156.234 70.96C156.647 70.96 157.034 70.8867 157.394 70.74C157.754 70.5933 158.067 70.3533 158.334 70.02C158.601 69.6867 158.807 69.2533 158.954 68.72C159.101 68.1733 159.174 67.5067 159.174 66.72C159.174 65.3867 158.907 64.3733 158.374 63.68C157.854 62.9867 157.141 62.64 156.234 62.64C155.767 62.64 155.341 62.7467 154.954 62.96C154.567 63.1733 154.121 63.5333 153.614 64.04V69.52ZM152.174 75.84V61.6H153.614V62.82H153.654C153.787 62.62 153.954 62.44 154.154 62.28C154.367 62.1067 154.594 61.9533 154.834 61.82C155.074 61.6867 155.321 61.5867 155.574 61.52C155.841 61.44 156.101 61.4 156.354 61.4C156.807 61.4 157.287 61.4867 157.794 61.66C158.301 61.8333 158.761 62.1267 159.174 62.54C159.587 62.9533 159.927 63.5067 160.194 64.2C160.474 64.8933 160.614 65.76 160.614 66.8C160.614 67.8133 160.474 68.6667 160.194 69.36C159.927 70.04 159.587 70.5933 159.174 71.02C158.774 71.4333 158.327 71.7333 157.834 71.92C157.341 72.1067 156.874 72.2 156.434 72.2C155.941 72.2 155.461 72.0933 154.994 71.88C154.527 71.6533 154.094 71.3733 153.694 71.04L153.614 71V75.84H152.174ZM164.727 69.52C165.114 69.9467 165.541 70.2933 166.007 70.56C166.474 70.8267 166.921 70.96 167.347 70.96C167.761 70.96 168.147 70.8867 168.507 70.74C168.867 70.5933 169.181 70.3533 169.447 70.02C169.714 69.6867 169.921 69.2533 170.067 68.72C170.214 68.1733 170.287 67.5067 170.287 66.72C170.287 65.3867 170.021 64.3733 169.487 63.68C168.967 62.9867 168.254 62.64 167.347 62.64C166.881 62.64 166.454 62.7467 166.067 62.96C165.681 63.1733 165.234 63.5333 164.727 64.04V69.52ZM163.287 75.84V61.6H164.727V62.82H164.767C164.901 62.62 165.067 62.44 165.267 62.28C165.481 62.1067 165.707 61.9533 165.947 61.82C166.187 61.6867 166.434 61.5867 166.687 61.52C166.954 61.44 167.214 61.4 167.467 61.4C167.921 61.4 168.401 61.4867 168.907 61.66C169.414 61.8333 169.874 62.1267 170.287 62.54C170.701 62.9533 171.041 63.5067 171.307 64.2C171.587 64.8933 171.727 65.76 171.727 66.8C171.727 67.8133 171.587 68.6667 171.307 69.36C171.041 70.04 170.701 70.5933 170.287 71.02C169.887 71.4333 169.441 71.7333 168.947 71.92C168.454 72.1067 167.987 72.2 167.547 72.2C167.054 72.2 166.574 72.0933 166.107 71.88C165.641 71.6533 165.207 71.3733 164.807 71.04L164.727 71V75.84H163.287ZM180.201 65.84C180.201 64.88 179.981 64.1067 179.541 63.52C179.114 62.9333 178.507 62.64 177.721 62.64C176.841 62.64 176.167 62.9333 175.701 63.52C175.247 64.1067 174.987 64.88 174.921 65.84H180.201ZM181.961 69.78C181.787 70.0733 181.594 70.3667 181.381 70.66C181.167 70.94 180.901 71.2 180.581 71.44C180.274 71.6667 179.907 71.8533 179.481 72C179.054 72.1333 178.547 72.2 177.961 72.2C177.374 72.2 176.807 72.1 176.261 71.9C175.727 71.6867 175.247 71.36 174.821 70.92C174.407 70.48 174.074 69.92 173.821 69.24C173.567 68.56 173.441 67.7467 173.441 66.8C173.441 65.96 173.541 65.2067 173.741 64.54C173.941 63.8733 174.227 63.3067 174.601 62.84C174.974 62.3733 175.421 62.02 175.941 61.78C176.461 61.5267 177.041 61.4 177.681 61.4C178.214 61.4 178.721 61.4933 179.201 61.68C179.681 61.8533 180.101 62.1333 180.461 62.52C180.821 62.8933 181.107 63.38 181.321 63.98C181.534 64.58 181.641 65.2933 181.641 66.12V67.08H174.881C174.881 67.6533 174.961 68.18 175.121 68.66C175.281 69.1267 175.501 69.5333 175.781 69.88C176.061 70.2133 176.387 70.48 176.761 70.68C177.134 70.8667 177.534 70.96 177.961 70.96C178.601 70.96 179.161 70.8067 179.641 70.5C180.134 70.18 180.534 69.7467 180.841 69.2L181.961 69.78ZM185.861 61.6V63H185.901C186.314 62.5333 186.781 62.1533 187.301 61.86C187.821 61.5533 188.381 61.4 188.981 61.4C189.367 61.4 189.741 61.4533 190.101 61.56C190.461 61.6667 190.781 61.84 191.061 62.08C191.341 62.32 191.561 62.6333 191.721 63.02C191.894 63.4067 191.981 63.88 191.981 64.44V72H190.541V64.48C190.541 63.7867 190.387 63.3067 190.081 63.04C189.774 62.7733 189.361 62.64 188.841 62.64C188.574 62.64 188.294 62.6933 188.001 62.8C187.721 62.8933 187.447 63.02 187.181 63.18C186.927 63.3267 186.681 63.4933 186.441 63.68C186.214 63.8667 186.021 64.0467 185.861 64.22V72H184.421V61.6H185.861ZM195.374 69.36C195.721 69.8533 196.141 70.2467 196.634 70.54C197.127 70.82 197.701 70.96 198.354 70.96C199.127 70.96 199.694 70.7867 200.054 70.44C200.414 70.08 200.594 69.68 200.594 69.24C200.594 68.8 200.441 68.46 200.134 68.22C199.827 67.9667 199.447 67.76 198.994 67.6C198.541 67.44 198.047 67.2933 197.514 67.16C196.994 67.0133 196.507 66.8267 196.054 66.6C195.614 66.3733 195.247 66.08 194.954 65.72C194.661 65.3467 194.527 64.84 194.554 64.2C194.581 63.2933 194.907 62.6 195.534 62.12C196.174 61.6267 196.994 61.3867 197.994 61.4C198.327 61.4 198.667 61.4467 199.014 61.54C199.374 61.6333 199.707 61.76 200.014 61.92C200.334 62.08 200.627 62.2733 200.894 62.5C201.161 62.7133 201.381 62.9533 201.554 63.22L200.554 64.1C200.154 63.6067 199.747 63.24 199.334 63C198.921 62.76 198.434 62.64 197.874 62.64C197.261 62.64 196.794 62.78 196.474 63.06C196.154 63.34 195.994 63.7133 195.994 64.18C195.994 64.5533 196.141 64.8467 196.434 65.06C196.741 65.2733 197.114 65.46 197.554 65.62C198.007 65.7667 198.494 65.9133 199.014 66.06C199.534 66.2067 200.014 66.4067 200.454 66.66C200.907 66.9 201.281 67.22 201.574 67.62C201.881 68.0067 202.034 68.52 202.034 69.16C202.034 69.6667 201.934 70.1133 201.734 70.5C201.534 70.8733 201.261 71.1867 200.914 71.44C200.581 71.6933 200.194 71.88 199.754 72C199.314 72.1333 198.861 72.2 198.394 72.2C197.581 72.2 196.801 72.0333 196.054 71.7C195.321 71.3533 194.714 70.86 194.234 70.22L195.374 69.36Z" fill="#ABABAB"/>
<path d="M34.5 17.0089C16.9 17.4089 4.16667 30.5089 0 37.0089C6 47.0088 17 58.0088 34.5 58.5088C50.9742 58.7697 67 44.0088 70.5 36.5089C65.8333 29.8422 52.1 16.6089 34.5 17.0089Z" fill="white"/>
<path d="M35.7043 52.5996C43.5715 52.5996 49.9493 46.201 49.9493 38.3081C49.9493 30.4151 43.5715 24.0166 35.7043 24.0166C27.8371 24.0166 21.4595 30.4151 21.4595 38.3081C21.4595 46.201 27.8371 52.5996 35.7043 52.5996Z" fill="#2D2D2D" stroke="#2D2D2D" stroke-width="4.89617" stroke-miterlimit="10"/>
<path d="M35.494 46.4262C40.1037 46.4262 43.8406 42.6771 43.8406 38.0524C43.8406 33.4275 40.1037 29.6785 35.494 29.6785C30.8844 29.6785 27.1475 33.4275 27.1475 38.0524C27.1475 42.6771 30.8844 46.4262 35.494 46.4262Z" fill="#2D2D2D"/>
<path d="M42.8544 46.4619C45.0838 46.4619 46.8912 44.6486 46.8912 42.4117C46.8912 40.1749 45.0838 38.3616 42.8544 38.3616C40.6248 38.3616 38.8174 40.1749 38.8174 42.4117C38.8174 44.6486 40.6248 46.4619 42.8544 46.4619Z" fill="white"/>
</svg>
