<svg width="278" height="84" viewBox="0 0 278 84" fill="none" xmlns="http://www.w3.org/2000/svg">
<path d="M111.992 28.7344C112.742 28.6172 113.422 28.3594 114.078 27.9375C114.711 27.5156 115.273 27 115.742 26.3906C116.211 25.7812 116.562 25.1016 116.844 24.3281C117.102 23.5781 117.242 22.7578 117.242 21.9141C117.242 21.0234 117.078 20.1797 116.773 19.3828C116.445 18.5859 116.023 17.8828 115.461 17.2734C114.898 16.6641 114.266 16.1484 113.516 15.75C112.766 15.3516 111.945 15.1172 111.055 15.0234L110.727 19.125C111.102 19.1484 111.43 19.2422 111.734 19.3828C112.039 19.5469 112.297 19.7578 112.531 19.9922C112.742 20.25 112.906 20.5312 113.023 20.8594C113.141 21.1875 113.211 21.5391 113.211 21.9141C113.211 22.2891 113.141 22.6641 113.023 22.9922C112.906 23.3438 112.742 23.6484 112.555 23.9062C112.344 24.1641 112.109 24.375 111.828 24.5156C111.547 24.6797 111.266 24.75 110.984 24.75H91.0625V28.8281H95.2344C93.8281 30.3984 92.7969 32.1328 92.0938 34.0312C91.3906 35.9297 91.0625 38.0859 91.0625 40.4766V51H95.0938C95.0938 50.8594 95.0703 50.5312 95.0703 50.0156C95.0703 49.5 95.0469 48.9375 95.0469 48.3047C95.0234 47.6953 95 47.0625 95 46.4531C95 45.8438 95 45.375 95 45C95 42.1875 95.1641 39.75 95.5156 37.7344C95.8672 35.7188 96.4062 34.0547 97.1094 32.7656C97.8125 31.4766 98.7266 30.5156 99.8047 29.9062C100.883 29.2969 102.172 28.9922 103.648 28.9922C106.508 28.9922 108.664 30.2578 110.117 32.7422C111.547 35.2266 112.273 39.0469 112.273 44.1562L112.18 51H116.234V40.4766C116.234 38.0391 115.883 35.8594 115.18 33.9609C114.477 32.0859 113.398 30.3281 111.992 28.7344ZM122 51C123.359 51 124.625 50.7188 125.773 50.1562C126.898 49.5938 127.883 48.8203 128.68 47.8359C129.477 46.8516 130.109 45.6562 130.555 44.2969C131 42.9375 131.234 41.4609 131.234 39.8672C131.234 38.1328 131.023 36.4688 130.648 34.875C130.273 33.2812 129.711 31.7812 129.008 30.4219C128.281 29.0625 127.414 27.8438 126.383 26.7656C125.352 25.6875 124.227 24.8203 122.961 24.1406L120.664 27.6094C125.047 30.2812 127.25 34.3828 127.25 39.9609C127.25 40.8516 127.109 41.6953 126.852 42.4453C126.594 43.2188 126.242 43.875 125.773 44.4375C125.305 45 124.742 45.4453 124.086 45.7734C123.43 46.1016 122.703 46.2422 121.906 46.2422C119.844 46.2422 117.547 44.9531 115.062 42.375L112.062 45.8672C113.141 46.8984 114.102 47.7656 114.945 48.4219C115.789 49.0781 116.586 49.6172 117.336 49.9922C118.086 50.3672 118.812 50.6484 119.562 50.7891C120.312 50.9297 121.109 51 122 51ZM157.414 28.4297C158.023 28.1953 158.562 27.8672 159.078 27.4219C159.594 27 160.016 26.4844 160.391 25.8984C160.766 25.3359 161.047 24.7031 161.234 24.0234C161.422 23.3438 161.539 22.6406 161.539 21.9141C161.539 21.0234 161.375 20.1797 161.07 19.3828C160.742 18.5859 160.32 17.8828 159.758 17.2734C159.195 16.6641 158.562 16.1484 157.812 15.75C157.062 15.3516 156.242 15.1172 155.352 15.0234L155.023 19.125C155.398 19.1484 155.727 19.2422 156.031 19.3828C156.336 19.5469 156.594 19.7578 156.828 19.9922C157.039 20.25 157.203 20.5312 157.32 20.8594C157.438 21.1875 157.508 21.5391 157.508 21.9141C157.508 22.2891 157.438 22.6641 157.32 22.9922C157.203 23.3438 157.039 23.6484 156.852 23.9062C156.641 24.1641 156.406 24.375 156.125 24.5156C155.844 24.6797 155.562 24.75 155.281 24.75H135.359V28.8281H138.992C137.773 30.1172 136.883 31.4766 136.273 32.9062C135.664 34.3594 135.359 35.9531 135.359 37.7344C135.359 39.4688 135.688 41.1562 136.344 42.75C137 44.3438 137.914 45.7734 139.086 46.9922C140.258 48.2109 141.617 49.1953 143.211 49.9219C144.805 50.6484 146.516 51 148.391 51C149.562 51 150.688 50.8594 151.789 50.5312C152.891 50.2266 153.922 49.7812 154.906 49.1953C155.867 48.6328 156.758 47.9297 157.555 47.1328C158.352 46.3359 159.031 45.4219 159.594 44.4375C160.156 43.4531 160.602 42.3984 160.93 41.2734C161.258 40.1484 161.422 38.9766 161.422 37.7344C161.422 35.8594 161.07 34.1484 160.414 32.6484C159.758 31.1484 158.75 29.7422 157.414 28.4297ZM148.391 28.8281C149.562 28.8281 150.688 29.0625 151.766 29.5078C152.82 29.9531 153.734 30.5625 154.531 31.3125C155.328 32.0859 155.938 33 156.406 34.0312C156.875 35.0859 157.109 36.2109 157.109 37.3828C157.109 38.6016 156.875 39.7266 156.43 40.7812C155.961 41.8594 155.352 42.7969 154.555 43.5938C153.758 44.3906 152.844 45.0234 151.789 45.4922C150.734 45.9609 149.609 46.1953 148.391 46.1953C147.172 46.1953 146.047 45.9609 144.992 45.4922C143.914 45.0234 143 44.3906 142.203 43.5938C141.406 42.7969 140.797 41.8828 140.352 40.8047C139.883 39.7266 139.672 38.6016 139.672 37.3828C139.672 36.1875 139.883 35.0625 140.352 34.0078C140.82 32.9766 141.43 32.0625 142.227 31.2891C143.023 30.5391 143.938 29.9297 144.992 29.4844C146.047 29.0625 147.172 28.8281 148.391 28.8281ZM166.297 51C167.656 51 168.922 50.7188 170.07 50.1562C171.195 49.5938 172.18 48.8203 172.977 47.8359C173.773 46.8516 174.406 45.6562 174.852 44.2969C175.297 42.9375 175.531 41.4609 175.531 39.8672C175.531 38.1328 175.32 36.4688 174.945 34.875C174.57 33.2812 174.008 31.7812 173.305 30.4219C172.578 29.0625 171.711 27.8438 170.68 26.7656C169.648 25.6875 168.523 24.8203 167.258 24.1406L164.961 27.6094C169.344 30.2812 171.547 34.3828 171.547 39.9609C171.547 40.8516 171.406 41.6953 171.148 42.4453C170.891 43.2188 170.539 43.875 170.07 44.4375C169.602 45 169.039 45.4453 168.383 45.7734C167.727 46.1016 167 46.2422 166.203 46.2422C164.141 46.2422 161.844 44.9531 159.359 42.375L156.359 45.8672C157.438 46.8984 158.398 47.7656 159.242 48.4219C160.086 49.0781 160.883 49.6172 161.633 49.9922C162.383 50.3672 163.109 50.6484 163.859 50.7891C164.609 50.9297 165.406 51 166.297 51ZM194.281 51C196.438 51 198.406 50.7656 200.188 50.25C201.969 49.7578 203.516 49.0547 204.805 48.1172C206.094 47.2031 207.102 46.0781 207.828 44.7422C208.531 43.4297 208.906 41.9297 208.906 40.2891C208.906 37.4297 207.828 34.9688 205.672 32.9062C206.141 31.4062 206.398 29.7891 206.398 28.0312C206.398 26.1094 206.094 24.3281 205.508 22.7109C204.922 21.0938 204.102 19.6875 203.047 18.5156C201.969 17.3438 200.703 16.4531 199.203 15.7969C197.703 15.1406 196.062 14.8125 194.281 14.8125C193.438 14.8125 192.664 15 191.938 15.3281C191.188 15.6562 190.555 16.1016 189.992 16.6641C189.43 17.2266 188.984 17.8828 188.656 18.6328C188.328 19.3828 188.164 20.1797 188.164 20.9766C188.164 21.8203 188.328 22.5938 188.656 23.3438C188.984 24.0938 189.406 24.75 189.969 25.3125C190.531 25.875 191.164 26.3203 191.914 26.6484C192.664 26.9766 193.438 27.1406 194.281 27.1406C195.125 27.1406 195.898 26.9766 196.648 26.6484C197.398 26.3203 198.031 25.8516 198.594 25.2891C199.156 24.7266 199.578 24.0703 199.906 23.3203C200.234 22.5703 200.398 21.75 200.398 20.8594C201.898 22.4062 202.648 24.6328 202.648 27.5391C202.648 28.6641 202.555 29.7422 202.367 30.7734C200.867 30.1641 199.227 29.8359 197.422 29.8359C196.531 29.8359 195.734 30 195.008 30.2812C194.258 30.5625 193.625 30.9609 193.086 31.4297C192.547 31.8984 192.125 32.4609 191.82 33.0938C191.516 33.75 191.375 34.4062 191.375 35.1094C191.375 35.8125 191.492 36.4922 191.773 37.1016C192.055 37.7344 192.453 38.2734 192.969 38.7422C193.484 39.2109 194.117 39.5625 194.867 39.8203C195.617 40.1016 196.461 40.2188 197.398 40.2188C199.977 40.2188 202.109 39.0703 203.797 36.7734C204.5 37.8516 204.852 38.9766 204.852 40.1484C204.852 41.1094 204.594 41.9531 204.102 42.7031C203.586 43.4531 202.883 44.0859 201.945 44.6016C201.008 45.1172 199.859 45.5156 198.523 45.7969C197.188 46.0781 195.688 46.1953 194.023 46.1953C192.523 46.1953 191.141 46.0781 189.875 45.7969C188.609 45.5391 187.508 45.1641 186.594 44.6484C185.68 44.1562 184.977 43.5469 184.461 42.8438C183.945 42.1406 183.688 41.3203 183.688 40.4297C183.688 38.625 185.047 37.2656 187.789 36.3516L185.984 32.9766C185.047 33.2344 184.203 33.6094 183.43 34.125C182.656 34.6406 182 35.25 181.438 35.9297C180.875 36.6328 180.43 37.3828 180.125 38.2266C179.797 39.0703 179.656 39.9141 179.656 40.8047C179.656 42 179.844 43.0781 180.219 44.0391C180.594 45.0234 181.133 45.8672 181.812 46.6172C182.469 47.3672 183.266 48.0234 184.203 48.5859C185.117 49.1484 186.125 49.5938 187.203 49.9453C188.281 50.3203 189.43 50.5781 190.625 50.7422C191.82 50.9297 193.039 51 194.281 51ZM196.648 19.1719C196.672 19.5 196.695 19.7578 196.695 19.9688C196.695 20.2031 196.719 20.3672 196.719 20.4844C196.719 21.2109 196.484 21.8203 196.039 22.3125C195.57 22.8281 194.984 23.0625 194.281 23.0625C194 23.0625 193.719 23.0156 193.484 22.8984C193.227 22.8047 193.016 22.6406 192.828 22.4531C192.641 22.2656 192.477 22.0312 192.383 21.7734C192.266 21.5391 192.219 21.2578 192.219 20.9766C192.219 20.6953 192.266 20.4375 192.383 20.1797C192.477 19.9453 192.641 19.7109 192.828 19.5234C193.016 19.3359 193.227 19.1719 193.484 19.0547C193.719 18.9609 194 18.8906 194.281 18.8906C195.031 18.8906 195.805 18.9844 196.648 19.1719ZM197.422 33.7266C198.664 33.7266 199.836 33.9609 200.938 34.4062C200 35.6719 198.828 36.3047 197.398 36.3047C196.086 36.3047 195.43 35.9531 195.43 35.2266C195.43 35.0391 195.5 34.875 195.641 34.6875C195.781 34.5 195.945 34.3359 196.156 34.1953C196.344 34.0547 196.555 33.9609 196.789 33.8672C197.023 33.7734 197.234 33.7266 197.422 33.7266ZM223.531 32.7656C224.984 32.7656 226.344 32.4844 227.633 31.875C228.898 31.2656 230.023 30.4453 230.961 29.4141C231.898 28.3828 232.648 27.1875 233.211 25.8281C233.75 24.4688 234.031 23.0156 234.031 21.4688C234.031 20.3438 233.867 19.2891 233.539 18.3047C233.211 17.3203 232.766 16.4766 232.203 15.75C231.641 15.0234 230.938 14.4609 230.141 14.0391C229.344 13.6172 228.453 13.4062 227.516 13.4062C226.672 13.4062 225.875 13.5703 225.125 13.8984C224.375 14.2266 223.742 14.6719 223.18 15.2344C222.617 15.7969 222.172 16.4531 221.844 17.2031C221.516 17.9531 221.352 18.75 221.352 19.5703C221.352 20.4141 221.516 21.1875 221.844 21.9375C222.172 22.6875 222.617 23.3438 223.18 23.9062C223.742 24.4688 224.375 24.9375 225.125 25.2656C225.852 25.5938 226.625 25.7578 227.469 25.7578C228.148 25.7578 228.781 25.6641 229.344 25.4531C228.453 27.75 226.531 28.875 223.531 28.875V32.7656ZM233.703 51.0234C234.969 51.0234 236.141 50.7656 237.195 50.2031C238.25 49.6641 239.164 48.9141 239.914 47.9297C240.664 46.9688 241.227 45.8203 241.648 44.5078C242.07 43.1953 242.281 41.7656 242.281 40.2188C242.281 36.2109 240.594 32.5312 237.266 29.2031L234.312 32.1797C236.914 34.7578 238.227 37.4531 238.227 40.2188C238.227 44.2031 236.703 46.1953 233.703 46.1953C233.094 46.1953 232.555 46.0547 232.086 45.7266C231.617 45.3984 231.172 44.9766 230.773 44.4609C230.352 43.9453 229.977 43.3594 229.602 42.7031C229.227 42.0469 228.828 41.3672 228.406 40.6641C227.984 39.9609 227.539 39.2812 227.07 38.625C226.578 37.9688 226.016 37.3594 225.383 36.8438C224.727 36.3281 224 35.9297 223.18 35.6016C222.336 35.2734 221.398 35.1094 220.32 35.1094C219.266 35.1094 218.281 35.3438 217.391 35.7656C216.5 36.1875 215.727 36.7969 215.07 37.5469C214.414 38.2969 213.898 39.1875 213.523 40.2188C213.148 41.25 212.961 42.3281 212.961 43.5C212.961 46.6875 214.133 49.4062 216.477 51.6094L219.945 49.2422C217.977 46.7812 217.016 44.7891 217.016 43.2422C217.016 42.7266 217.086 42.2344 217.273 41.7422C217.438 41.25 217.672 40.8047 217.977 40.4297C218.258 40.0547 218.609 39.7734 219.031 39.5391C219.453 39.3047 219.898 39.1875 220.367 39.1875C221.023 39.1875 221.633 39.375 222.148 39.7031C222.664 40.0312 223.156 40.4766 223.625 41.0391C224.07 41.6016 224.492 42.2344 224.914 42.9375C225.312 43.6406 225.734 44.3672 226.156 45.1172C226.578 45.8672 227.023 46.5938 227.516 47.2969C227.984 48 228.523 48.6328 229.133 49.1953C229.719 49.7578 230.375 50.2031 231.125 50.5312C231.875 50.8594 232.719 51.0234 233.703 51.0234ZM227.281 17.4844C228.828 17.4844 229.672 18.4922 229.859 20.5078C229.273 21.2812 228.406 21.6562 227.281 21.6562C227 21.6562 226.719 21.6094 226.484 21.4922C226.227 21.3984 226.016 21.2344 225.828 21.0469C225.641 20.8594 225.477 20.625 225.383 20.3672C225.266 20.1328 225.219 19.8516 225.219 19.5703C225.219 19.3125 225.266 19.0547 225.383 18.7969C225.5 18.5625 225.664 18.3281 225.852 18.1406C226.039 17.9531 226.25 17.7891 226.508 17.6719C226.742 17.5547 227 17.4844 227.281 17.4844Z" fill="white"/>
<path d="M105.309 72.7388C105.309 69.8579 104.283 67.6118 102.232 65.9883H103.844V64.3281H90.0742V65.9883H93.1504C91.0996 67.6118 90.0742 69.8579 90.0742 72.7388C90.0742 74.1304 90.4526 75.3389 91.2095 76.3398C92.0396 77.4507 93.126 78 94.4688 78C95.7871 78 96.8613 77.4385 97.6914 76.3154C98.5215 77.4385 99.5957 78 100.914 78C102.257 78 103.343 77.4507 104.173 76.3398C104.93 75.3389 105.309 74.1304 105.309 72.7388ZM103.648 72.5801C103.648 73.4956 103.441 74.2524 103.05 74.8628C102.586 75.5952 101.915 75.9492 101.061 75.9492C100.304 75.9492 99.6934 75.6929 99.2295 75.1802C98.7656 74.6675 98.5337 74.0205 98.5337 73.2637H96.8735C96.8735 74.0205 96.6416 74.6553 96.1777 75.168C95.6895 75.6929 95.0669 75.9492 94.3223 75.9492C93.4556 75.9492 92.7964 75.5952 92.3325 74.8628C91.9297 74.2524 91.7344 73.4956 91.7344 72.5801C91.7344 70.8467 92.2837 69.3208 93.4067 68.0269C94.5664 66.6719 95.9946 65.9883 97.6914 65.9883C99.376 65.9883 100.804 66.6719 101.976 68.0269C103.087 69.3208 103.648 70.8467 103.648 72.5801ZM117.369 71.8354C117.369 69.7358 116.771 67.9902 115.575 66.5742C114.305 65.085 112.633 64.3281 110.582 64.3281H101.549V65.9883H110.582C112.132 65.9883 113.39 66.5498 114.354 67.6606C115.257 68.7104 115.709 70.0288 115.709 71.6157C115.709 72.7388 115.453 73.7153 114.952 74.521C114.342 75.4731 113.512 75.9492 112.462 75.9492C111.888 75.9492 111.412 75.7661 111.034 75.3755C110.655 74.9971 110.472 74.521 110.472 73.9351C110.472 73.5078 110.594 73.105 110.851 72.7266C111.119 72.3115 111.473 72.0918 111.888 72.0918C112.254 72.0918 112.596 72.2627 112.926 72.5801L114.049 71.457C113.463 70.7734 112.73 70.4316 111.876 70.4316C110.997 70.4316 110.252 70.8101 109.654 71.5425C109.081 72.2383 108.8 73.0317 108.8 73.9351C108.8 75.0703 109.117 76.0225 109.764 76.7793C110.448 77.5972 111.351 78 112.462 78C114.012 78 115.245 77.3408 116.161 76.0225C116.966 74.8628 117.369 73.4712 117.369 71.8354ZM135.631 71.9331C135.631 70.2363 135.191 68.6494 134.337 67.1602C133.788 66.2324 132.958 65.207 131.847 64.084L130.724 65.4146C132.884 67.1724 133.971 69.3208 133.971 71.8599C133.971 73.0806 133.702 74.0693 133.177 74.8262C132.64 75.583 131.957 75.9492 131.126 75.9492C130.101 75.9492 129.161 75.3999 128.319 74.3013C128.734 73.3003 128.941 72.2871 128.941 71.2861C128.941 69.5039 128.453 67.8926 127.477 66.4277C126.427 64.8652 125.182 64.084 123.729 64.084C122.96 64.084 122.313 64.3525 121.776 64.8774C121.239 65.4146 120.97 66.0615 120.97 66.8184C120.97 67.5752 121.227 68.2222 121.764 68.7593C122.301 69.2964 122.948 69.5527 123.705 69.5527C124.327 69.5527 124.889 69.3696 125.377 68.9912C125.865 68.6128 126.195 68.1245 126.354 67.5264C126.964 68.5151 127.281 69.748 127.281 71.2251C127.281 71.9331 127.196 72.5068 127.037 72.9585C126.634 72.4458 126.036 72.0308 125.23 71.7012C124.498 71.4082 123.814 71.2617 123.167 71.2617C121.996 71.2617 121.08 71.6035 120.421 72.2627C119.811 72.8608 119.518 73.6055 119.518 74.4844C119.518 75.4243 119.835 76.23 120.494 76.8892C121.202 77.6338 122.142 78 123.314 78C125.023 78 126.39 77.2798 127.416 75.8394C128.514 77.2798 129.796 78 131.236 78C132.53 78 133.592 77.4385 134.41 76.3154C135.216 75.1924 135.631 73.7275 135.631 71.9331ZM125.243 66.4521C125.121 67.4165 124.608 67.8926 123.705 67.8926C123.412 67.8926 123.155 67.7949 122.948 67.5752C122.728 67.3677 122.63 67.1113 122.63 66.8184C122.63 66.5254 122.728 66.2812 122.948 66.0615C123.155 65.854 123.412 65.7441 123.705 65.7441C124.339 65.7441 124.852 65.9883 125.243 66.4521ZM126.256 74.521C125.621 75.4731 124.706 75.9492 123.509 75.9492C122.765 75.9492 122.179 75.7905 121.751 75.4609C121.361 75.168 121.178 74.814 121.178 74.3867C121.178 73.9961 121.336 73.6543 121.678 73.3735C122.044 73.0806 122.545 72.9219 123.155 72.9219C124.364 72.9219 125.401 73.459 126.256 74.521ZM153.014 70.0288C153.014 66.3911 151.476 63.0342 148.424 59.958C147.887 59.4209 147.24 59.1523 146.483 59.1523C145.726 59.1523 145.079 59.4209 144.542 59.958C144.005 60.4951 143.749 61.1299 143.749 61.8867C143.749 62.6436 144.005 63.2905 144.542 63.8276C145.079 64.3647 145.726 64.6211 146.483 64.6211C147.643 64.6211 148.473 64.0962 148.961 63.0342C150.548 65.2192 151.354 67.5752 151.354 70.0898C151.354 71.8232 150.902 73.2026 149.999 74.2158C148.973 75.3755 147.435 75.9492 145.396 75.9492C143.785 75.9492 142.418 75.5098 141.307 74.6309C140.062 73.6543 139.439 72.3481 139.439 70.688C139.439 70.2119 139.476 69.7725 139.574 69.3574C140.025 69.8823 140.624 70.1387 141.368 70.1387C142.101 70.1387 142.723 69.8457 143.248 69.2598C143.761 68.6738 144.029 67.9536 144.029 67.1113C144.029 66.2812 143.761 65.561 143.248 64.9751C142.723 64.3892 142.101 64.084 141.368 64.084C140.404 64.084 139.562 64.7554 138.854 66.0859C138.133 67.4165 137.779 68.918 137.779 70.6025C137.779 72.9707 138.573 74.8262 140.16 76.1812C141.576 77.4019 143.321 78 145.396 78C147.984 78 149.95 77.1943 151.28 75.583C152.428 74.1792 153.014 72.3237 153.014 70.0288ZM147.936 61.8135C147.862 62.1431 147.667 62.4116 147.374 62.6313C147.069 62.8511 146.764 62.9609 146.458 62.9609C146.166 62.9609 145.909 62.8633 145.702 62.6436C145.482 62.436 145.384 62.1797 145.384 61.8867C145.384 61.5938 145.482 61.3496 145.702 61.1299C145.909 60.9224 146.166 60.8125 146.458 60.8125C146.947 60.8125 147.435 61.1543 147.936 61.8135ZM142.357 67.1113C142.357 67.4897 142.259 67.8071 142.064 68.0757C141.869 68.3442 141.637 68.4785 141.368 68.4785C140.733 68.4785 140.245 68.1489 139.928 67.4653C140.038 66.9771 140.233 66.5742 140.526 66.2446C140.807 65.915 141.087 65.7441 141.368 65.7441C141.637 65.7441 141.869 65.8784 142.064 66.147C142.259 66.4155 142.357 66.7451 142.357 67.1113ZM165.953 63.2051C165.953 62.1309 165.685 61.2031 165.16 60.4463C164.562 59.5918 163.744 59.1523 162.706 59.1523C161.852 59.1523 161.131 59.4575 160.533 60.0435C159.935 60.6294 159.642 61.3496 159.642 62.1919C159.642 63.0342 159.935 63.7544 160.533 64.3403C161.119 64.9385 161.839 65.2314 162.682 65.2314C163.194 65.2314 163.67 65.1216 164.11 64.8774C163.695 66.5864 162.596 67.4287 160.826 67.4287V68.9912C162.157 68.9912 163.329 68.4663 164.342 67.3921C165.416 66.269 165.953 64.8774 165.953 63.2051ZM170.396 72.4824C170.396 70.4194 169.579 68.5762 167.955 66.9648L166.734 68.1855C168.065 69.5039 168.736 70.9443 168.736 72.4824C168.736 73.4956 168.492 74.3135 168.004 74.9238C167.467 75.6074 166.698 75.9492 165.709 75.9492C164.854 75.9492 164.024 75.4487 163.231 74.4478L161.278 71.6401C160.484 70.6392 159.667 70.1387 158.812 70.1387C157.652 70.1387 156.749 70.4561 156.114 71.0908C155.479 71.7256 155.162 72.6167 155.162 73.7397C155.162 75.5098 155.858 76.9258 157.262 78L158.031 75.9492C157.75 75.6929 157.469 75.4243 157.201 75.1558C156.944 74.814 156.822 74.2891 156.822 73.6055C156.822 73.1416 156.944 72.7388 157.213 72.4092C157.542 72.0063 158.031 71.7988 158.678 71.7988C159.264 71.7988 159.911 72.3359 160.631 73.4102C161.852 75.2778 162.523 76.2666 162.645 76.3887C163.561 77.4629 164.562 78 165.66 78C167.174 78 168.37 77.4507 169.237 76.3398C170.006 75.3389 170.396 74.0449 170.396 72.4824ZM164.232 62.7656C163.866 63.3027 163.316 63.5713 162.584 63.5713C162.206 63.5713 161.876 63.437 161.607 63.1685C161.339 62.8999 161.205 62.5703 161.205 62.1919C161.205 61.8257 161.339 61.4961 161.607 61.2275C161.876 60.959 162.206 60.8125 162.584 60.8125C163.084 60.8125 163.487 61.02 163.792 61.4229C164.061 61.7891 164.208 62.2285 164.232 62.7656Z" fill="#ABABAB"/>
<path d="M34.5 23.0089C16.9 23.4089 4.16667 36.5089 0 43.0089C6 53.0088 17 64.0088 34.5 64.5088C50.9742 64.7697 67 50.0088 70.5 42.5089C65.8333 35.8422 52.1 22.6089 34.5 23.0089Z" fill="white"/>
<path d="M35.7043 58.5996C43.5715 58.5996 49.9493 52.201 49.9493 44.3081C49.9493 36.4151 43.5715 30.0166 35.7043 30.0166C27.8371 30.0166 21.4595 36.4151 21.4595 44.3081C21.4595 52.201 27.8371 58.5996 35.7043 58.5996Z" fill="#2D2D2D" stroke="#2D2D2D" stroke-width="4.89617" stroke-miterlimit="10"/>
<path d="M35.494 52.4262C40.1037 52.4262 43.8406 48.6771 43.8406 44.0524C43.8406 39.4275 40.1037 35.6785 35.494 35.6785C30.8844 35.6785 27.1475 39.4275 27.1475 44.0524C27.1475 48.6771 30.8844 52.4262 35.494 52.4262Z" fill="#2D2D2D"/>
<path d="M42.8544 52.4619C45.0838 52.4619 46.8912 50.6486 46.8912 48.4117C46.8912 46.1749 45.0838 44.3616 42.8544 44.3616C40.6248 44.3616 38.8174 46.1749 38.8174 48.4117C38.8174 50.6486 40.6248 52.4619 42.8544 52.4619Z" fill="white"/>
</svg>
