<svg width="278" height="94" viewBox="0 0 278 94" fill="none" xmlns="http://www.w3.org/2000/svg">
<path d="M95.864 51.768C94.584 51.768 93.576 51.512 92.84 51C92.136 50.456 91.784 49.336 91.784 47.64V45.288C91.784 41.416 92.056 38.232 92.6 35.736C93.176 33.208 94.072 31.16 95.288 29.592H91.16C90.616 28.696 90.344 27.672 90.344 26.52C90.344 25.4 90.584 24.6 91.064 24.12C91.576 23.64 92.232 23.4 93.032 23.4H112.808C114.216 23.4 114.92 22.664 114.92 21.192C114.92 20.456 114.76 19.736 114.44 19.032C114.92 18.648 115.464 18.344 116.072 18.12C116.712 17.896 117.352 17.784 117.992 17.784C119.272 17.784 120.328 18.216 121.16 19.08C122.024 19.912 122.456 21.144 122.456 22.776C122.456 24.6 121.912 26.088 120.824 27.24C119.736 28.392 118.328 29.128 116.6 29.448C118.808 32.072 120.024 36.536 120.248 42.84C121.368 43.8 122.424 44.44 123.416 44.76C124.408 45.08 125.576 45.24 126.92 45.24C127.848 45.24 128.712 45.08 129.512 44.76C130.312 44.408 131.016 43.912 131.624 43.272C132.232 42.632 132.696 41.832 133.016 40.872C133.368 39.88 133.544 38.744 133.544 37.464C133.544 35.16 133.016 33.128 131.96 31.368C130.904 29.608 129.416 28.232 127.496 27.24C127.592 25.8 127.992 24.648 128.696 23.784C129.4 22.888 130.424 22.44 131.768 22.44C133.048 22.44 134.296 22.824 135.512 23.592C136.728 24.36 137.8 25.416 138.728 26.76C139.688 28.104 140.456 29.688 141.032 31.512C141.608 33.336 141.896 35.304 141.896 37.416C141.896 39.688 141.576 41.736 140.936 43.56C140.328 45.352 139.432 46.872 138.248 48.12C137.096 49.368 135.672 50.328 133.976 51C132.312 51.64 130.408 51.96 128.264 51.96C126.792 51.96 125.384 51.864 124.04 51.672C122.696 51.48 121.448 51.112 120.296 50.568V51.288C119.56 51.448 118.792 51.56 117.992 51.624C117.224 51.72 116.52 51.768 115.88 51.768C114.6 51.768 113.592 51.512 112.856 51C112.152 50.456 111.8 49.336 111.8 47.64V44.808C111.8 39.592 111.32 35.736 110.36 33.24C109.432 30.712 107.992 29.448 106.04 29.448H105.752C102.104 29.672 100.28 34.792 100.28 44.808V51.288C99.544 51.448 98.776 51.56 97.976 51.624C97.208 51.72 96.504 51.768 95.864 51.768ZM161.222 51.96C158.79 51.96 156.614 51.608 154.694 50.904C152.774 50.2 151.158 49.224 149.846 47.976C148.534 46.696 147.526 45.192 146.822 43.464C146.118 41.736 145.766 39.864 145.766 37.848C145.766 36.408 145.99 34.968 146.438 33.528C146.918 32.056 147.686 30.744 148.742 29.592H145.43C145.174 29.208 144.966 28.76 144.806 28.248C144.646 27.736 144.566 27.176 144.566 26.568C144.566 25.448 144.806 24.648 145.286 24.168C145.798 23.656 146.454 23.4 147.254 23.4H167.846C168.678 23.4 169.27 23.192 169.622 22.776C169.974 22.36 170.15 21.832 170.15 21.192C170.15 20.456 169.99 19.736 169.67 19.032C170.054 18.712 170.55 18.424 171.158 18.168C171.766 17.912 172.454 17.784 173.222 17.784C174.502 17.784 175.558 18.216 176.39 19.08C177.254 19.912 177.686 21.16 177.686 22.824C177.686 24.264 177.302 25.576 176.534 26.76C175.766 27.912 174.502 28.712 172.742 29.16C173.83 30.28 174.678 31.64 175.286 33.24C175.894 34.84 176.198 36.376 176.198 37.848C176.198 39.864 175.846 41.736 175.142 43.464C174.47 45.192 173.478 46.696 172.166 47.976C170.886 49.224 169.318 50.2 167.462 50.904C165.638 51.608 163.558 51.96 161.222 51.96ZM160.694 29.4C159.67 29.4 158.742 29.608 157.91 30.024C157.11 30.44 156.422 31.016 155.846 31.752C155.27 32.456 154.822 33.304 154.502 34.296C154.182 35.256 154.022 36.312 154.022 37.464C154.022 38.648 154.198 39.72 154.55 40.68C154.902 41.64 155.382 42.472 155.99 43.176C156.63 43.848 157.366 44.376 158.198 44.76C159.062 45.112 160.006 45.288 161.03 45.288C162.118 45.288 163.078 45.096 163.91 44.712C164.774 44.296 165.494 43.736 166.07 43.032C166.678 42.328 167.142 41.512 167.462 40.584C167.782 39.624 167.942 38.584 167.942 37.464C167.942 36.28 167.766 35.208 167.414 34.248C167.062 33.256 166.598 32.424 166.022 31.752C165.446 31.048 164.758 30.504 163.958 30.12C163.19 29.704 162.374 29.464 161.51 29.4H160.694ZM170.668 46.68C170.764 46.232 170.924 45.768 171.148 45.288C171.34 44.776 171.644 44.312 172.06 43.896C172.444 43.448 172.924 43.064 173.5 42.744C174.076 42.424 174.764 42.184 175.564 42.024C176.108 43.08 176.876 43.88 177.868 44.424C178.828 44.968 179.916 45.24 181.132 45.24C182.988 45.24 184.492 44.6 185.644 43.32C186.828 42.008 187.42 40.056 187.42 37.464C187.42 35.16 186.892 33.128 185.836 31.368C184.78 29.608 183.292 28.232 181.372 27.24C181.468 25.8 181.868 24.648 182.572 23.784C183.276 22.888 184.3 22.44 185.644 22.44C186.924 22.44 188.172 22.824 189.388 23.592C190.604 24.36 191.676 25.416 192.604 26.76C193.564 28.104 194.332 29.688 194.908 31.512C195.484 33.336 195.772 35.304 195.772 37.416C195.772 39.688 195.452 41.736 194.812 43.56C194.204 45.352 193.308 46.872 192.124 48.12C190.972 49.368 189.548 50.328 187.852 51C186.188 51.64 184.284 51.96 182.14 51.96C179.836 51.96 177.692 51.544 175.708 50.712C173.724 49.848 172.044 48.504 170.668 46.68ZM207.406 23.88C207.406 22.888 207.598 21.96 207.982 21.096C208.398 20.2 208.958 19.432 209.662 18.792C210.398 18.152 211.278 17.656 212.302 17.304C213.358 16.92 214.51 16.728 215.758 16.728C218.766 16.728 221.038 17.656 222.574 19.512C224.142 21.336 224.926 23.736 224.926 26.712C224.926 28.248 224.718 29.672 224.302 30.984C223.918 32.264 223.422 33.464 222.814 34.584C224.574 35.192 225.934 36.168 226.894 37.512C227.854 38.824 228.334 40.36 228.334 42.12C228.334 43.592 227.998 44.936 227.326 46.152C226.654 47.368 225.71 48.408 224.494 49.272C223.278 50.136 221.822 50.792 220.126 51.24C218.43 51.72 216.558 51.96 214.51 51.96C211.15 51.96 208.206 51.368 205.678 50.184C203.182 48.968 201.358 47.4 200.206 45.48C199.31 44.04 198.862 42.52 198.862 40.92C198.862 39.384 199.23 38.28 199.966 37.608C200.734 36.904 201.726 36.552 202.942 36.552C203.55 36.552 204.094 36.632 204.574 36.792C205.054 36.92 205.47 37.112 205.822 37.368C205.822 38.712 206.046 39.88 206.494 40.872C206.942 41.864 207.55 42.696 208.318 43.368C209.086 44.008 209.966 44.488 210.958 44.808C211.982 45.096 213.054 45.24 214.174 45.24C215.998 45.24 217.438 44.888 218.494 44.184C219.55 43.448 220.078 42.52 220.078 41.4C220.078 40.472 219.662 39.752 218.83 39.24C218.19 39.56 217.486 39.8 216.718 39.96C215.95 40.088 215.198 40.152 214.462 40.152C212.766 40.152 211.518 39.816 210.718 39.144C209.918 38.472 209.518 37.512 209.518 36.264C209.518 35.08 209.838 34.088 210.478 33.288H213.646C215.214 33.288 216.318 32.952 216.958 32.28C217.63 31.576 217.998 30.792 218.062 29.928C217.614 30.184 217.102 30.392 216.526 30.552C215.982 30.68 215.326 30.744 214.558 30.744C213.598 30.744 212.686 30.6 211.822 30.312C210.958 30.024 210.19 29.592 209.518 29.016C208.878 28.44 208.366 27.72 207.982 26.856C207.598 25.992 207.406 25 207.406 23.88ZM218.062 23.976C218.062 23.336 217.854 22.824 217.438 22.44C217.054 22.024 216.558 21.816 215.95 21.816C215.342 21.816 214.83 22.024 214.414 22.44C214.03 22.824 213.838 23.336 213.838 23.976C213.838 24.616 214.03 25.144 214.414 25.56C214.83 25.944 215.342 26.136 215.95 26.136C216.558 26.136 217.054 25.944 217.438 25.56C217.854 25.144 218.062 24.616 218.062 23.976ZM241.719 36.696C243.543 36.696 245.207 36.984 246.711 37.56C248.215 38.104 249.559 39 250.743 40.248C251.287 40.824 251.751 41.4 252.135 41.976C252.551 42.552 252.935 43.08 253.287 43.56C253.639 44.008 253.991 44.376 254.343 44.664C254.727 44.952 255.159 45.096 255.639 45.096C256.247 45.096 256.743 44.776 257.127 44.136C257.511 43.496 257.703 42.472 257.703 41.064C257.703 39.72 257.463 38.52 256.983 37.464C256.503 36.408 255.895 35.512 255.159 34.776C255.863 32.504 257.271 31.368 259.383 31.368C260.119 31.368 260.823 31.528 261.495 31.848C262.167 32.168 262.759 32.632 263.271 33.24C264.039 34.168 264.663 35.304 265.143 36.648C265.623 37.96 265.863 39.432 265.863 41.064C265.863 42.472 265.671 43.832 265.287 45.144C264.903 46.456 264.295 47.624 263.463 48.648C262.663 49.64 261.623 50.44 260.343 51.048C259.063 51.656 257.511 51.96 255.687 51.96C253.703 51.96 252.119 51.608 250.935 50.904C249.751 50.2 248.711 49.32 247.815 48.264C247.335 47.72 246.887 47.16 246.471 46.584C246.087 46.008 245.671 45.496 245.223 45.048C244.807 44.568 244.359 44.184 243.879 43.896C243.399 43.608 242.855 43.464 242.247 43.464C241.223 43.464 240.423 43.8 239.847 44.472C239.303 45.112 239.031 45.96 239.031 47.016C239.031 47.56 239.095 48.136 239.223 48.744C239.383 49.32 239.559 49.832 239.751 50.28C239.367 50.728 238.823 51.112 238.119 51.432C237.447 51.784 236.631 51.96 235.671 51.96C234.263 51.96 233.095 51.448 232.167 50.424C231.239 49.368 230.775 47.88 230.775 45.96C230.775 44.52 231.031 43.24 231.543 42.12C232.055 40.968 232.775 39.992 233.703 39.192C234.663 38.392 235.815 37.784 237.159 37.368C238.503 36.92 240.023 36.696 241.719 36.696ZM244.983 27.672C244.023 27.672 243.111 27.528 242.247 27.24C241.383 26.952 240.615 26.52 239.943 25.944C239.303 25.368 238.791 24.648 238.407 23.784C238.023 22.92 237.831 21.928 237.831 20.808C237.831 19.816 238.023 18.888 238.407 18.024C238.823 17.128 239.383 16.36 240.087 15.72C240.823 15.08 241.703 14.584 242.727 14.232C243.783 13.848 244.935 13.656 246.183 13.656C249.191 13.656 251.463 14.584 252.999 16.44C254.567 18.264 255.351 20.664 255.351 23.64C255.351 25.176 255.111 26.632 254.631 28.008C254.151 29.384 253.463 30.584 252.567 31.608C251.703 32.632 250.631 33.448 249.351 34.056C248.071 34.632 246.647 34.92 245.079 34.92C241.687 34.92 239.991 33.832 239.991 31.656C239.991 30.856 240.199 30.072 240.615 29.304C241.575 29.592 242.647 29.736 243.831 29.736C244.855 29.736 245.815 29.528 246.711 29.112C247.639 28.696 248.231 27.96 248.487 26.904C247.559 27.416 246.391 27.672 244.983 27.672ZM246.375 23.064C246.983 23.064 247.479 22.872 247.863 22.488C248.279 22.072 248.487 21.544 248.487 20.904C248.487 20.264 248.279 19.752 247.863 19.368C247.479 18.952 246.983 18.744 246.375 18.744C245.767 18.744 245.255 18.952 244.839 19.368C244.455 19.752 244.263 20.264 244.263 20.904C244.263 21.544 244.455 22.072 244.839 22.488C245.255 22.872 245.767 23.064 246.375 23.064Z" fill="white"/>
<path d="M103.75 88.5C103.033 88.5 102.3 88.3583 101.55 88.075C100.8 87.7917 100.2 87.3583 99.75 86.775C99.35 87.2583 98.8 87.6667 98.1 88C97.4167 88.3333 96.65 88.5 95.8 88.5C94.85 88.5 94.0083 88.3583 93.275 88.075C92.5583 87.7917 91.9583 87.3917 91.475 86.875C90.9917 86.3583 90.625 85.7417 90.375 85.025C90.1417 84.3083 90.025 83.525 90.025 82.675C90.025 81.4917 90.2417 80.4 90.675 79.4C91.125 78.4 91.775 77.55 92.625 76.85H90.275C89.9917 76.3667 89.85 75.8583 89.85 75.325C89.85 74.7583 89.975 74.3333 90.225 74.05C90.475 73.7667 90.8167 73.625 91.25 73.625H114.9C116.35 73.625 117.608 73.8333 118.675 74.25C119.758 74.6667 120.658 75.2333 121.375 75.95C122.108 76.65 122.65 77.475 123 78.425C123.367 79.3583 123.55 80.35 123.55 81.4C123.55 82.4833 123.4 83.4667 123.1 84.35C122.817 85.2167 122.392 85.9583 121.825 86.575C121.258 87.1917 120.558 87.6667 119.725 88C118.908 88.3333 117.967 88.5 116.9 88.5C116.117 88.5 115.375 88.3917 114.675 88.175C113.975 87.9583 113.367 87.6417 112.85 87.225C112.333 86.8083 111.925 86.2917 111.625 85.675C111.325 85.0583 111.175 84.35 111.175 83.55C111.175 82.8667 111.283 82.2667 111.5 81.75C111.717 81.2167 112 80.775 112.35 80.425C112.717 80.0583 113.133 79.7833 113.6 79.6C114.083 79.4167 114.583 79.325 115.1 79.325C115.85 79.325 116.442 79.5083 116.875 79.875C117.308 80.225 117.525 80.6917 117.525 81.275C117.525 81.5417 117.483 81.8 117.4 82.05C117.317 82.3 117.208 82.5167 117.075 82.7C116.925 82.65 116.758 82.625 116.575 82.625C116.175 82.625 115.858 82.7333 115.625 82.95C115.392 83.1667 115.275 83.4583 115.275 83.825C115.275 84.225 115.417 84.55 115.7 84.8C116 85.0333 116.392 85.15 116.875 85.15C117.725 85.15 118.367 84.825 118.8 84.175C119.233 83.5083 119.45 82.575 119.45 81.375C119.45 79.9583 119 78.85 118.1 78.05C117.2 77.25 115.958 76.85 114.375 76.85H106.95C107.783 77.6 108.417 78.475 108.85 79.475C109.3 80.4583 109.525 81.5333 109.525 82.7C109.525 83.55 109.4 84.3333 109.15 85.05C108.917 85.75 108.558 86.3583 108.075 86.875C107.592 87.3917 106.983 87.7917 106.25 88.075C105.533 88.3583 104.7 88.5 103.75 88.5ZM96.075 85.025C96.5583 85.025 96.95 84.875 97.25 84.575C97.5667 84.275 97.725 83.8833 97.725 83.4V82.25C98.0083 82.0667 98.325 81.925 98.675 81.825C99.025 81.725 99.3917 81.675 99.775 81.675C100.158 81.675 100.525 81.725 100.875 81.825C101.225 81.925 101.542 82.0667 101.825 82.25V83.3C101.825 83.8333 101.958 84.2583 102.225 84.575C102.508 84.875 102.892 85.025 103.375 85.025C103.958 85.025 104.408 84.7917 104.725 84.325C105.058 83.8417 105.225 83.1667 105.225 82.3C105.225 81.6 105.117 80.9417 104.9 80.325C104.683 79.6917 104.383 79.1333 104 78.65C103.617 78.1667 103.158 77.775 102.625 77.475C102.108 77.1583 101.533 76.95 100.9 76.85H98.4C97.8 76.9833 97.25 77.2167 96.75 77.55C96.25 77.8667 95.8167 78.2667 95.45 78.75C95.1 79.2333 94.825 79.775 94.625 80.375C94.425 80.975 94.325 81.6167 94.325 82.3C94.325 83.1667 94.4667 83.8417 94.75 84.325C95.05 84.7917 95.4917 85.025 96.075 85.025ZM146.778 80.675C146.778 81.775 146.636 82.8 146.353 83.75C146.069 84.7 145.644 85.5333 145.078 86.25C144.528 86.95 143.819 87.5 142.953 87.9C142.103 88.3 141.103 88.5 139.953 88.5C138.986 88.5 138.069 88.3667 137.203 88.1C136.353 87.85 135.528 87.4333 134.728 86.85C133.478 87.95 131.936 88.5 130.103 88.5C128.369 88.5 127.028 88.1333 126.078 87.4C125.144 86.65 124.678 85.675 124.678 84.475C124.678 83.325 125.069 82.4083 125.853 81.725C126.636 81.0417 127.761 80.7 129.228 80.7C130.078 80.7 130.844 80.8167 131.528 81.05C132.211 81.2667 132.861 81.55 133.478 81.9C133.594 81.5667 133.669 81.2333 133.703 80.9C133.736 80.5667 133.753 80.25 133.753 79.95C133.753 78.85 133.578 77.9583 133.228 77.275C132.878 76.5917 132.411 76.25 131.828 76.25C131.528 76.25 131.303 76.3167 131.153 76.45C131.003 76.5833 130.928 76.75 130.928 76.95C130.928 77.1333 130.994 77.2833 131.128 77.4C131.278 77.5 131.444 77.5583 131.628 77.575H131.903C131.953 77.825 131.978 78.0583 131.978 78.275C131.978 78.8583 131.786 79.3167 131.403 79.65C131.019 79.9667 130.519 80.125 129.903 80.125C128.953 80.125 128.219 79.825 127.703 79.225C127.203 78.625 126.953 77.8917 126.953 77.025C126.953 76.5083 127.044 76.0167 127.228 75.55C127.428 75.0833 127.728 74.675 128.128 74.325C128.528 73.9583 129.028 73.6667 129.628 73.45C130.228 73.2333 130.936 73.125 131.753 73.125C132.719 73.125 133.578 73.2917 134.328 73.625C135.094 73.9417 135.736 74.4 136.253 75C136.786 75.5833 137.186 76.2833 137.453 77.1C137.736 77.9167 137.878 78.825 137.878 79.825C137.878 80.5417 137.794 81.2667 137.628 82C137.478 82.7333 137.219 83.45 136.853 84.15C137.669 84.6833 138.511 84.95 139.378 84.95C139.761 84.95 140.136 84.875 140.503 84.725C140.869 84.575 141.194 84.3333 141.478 84C141.761 83.65 141.986 83.2083 142.153 82.675C142.336 82.1417 142.428 81.4833 142.428 80.7C142.428 79.35 142.111 78.1417 141.478 77.075C140.861 75.9917 139.919 75.1583 138.653 74.575C138.703 73.825 138.911 73.2333 139.278 72.8C139.661 72.35 140.203 72.125 140.903 72.125C141.686 72.125 142.428 72.375 143.128 72.875C143.844 73.3583 144.469 74.0083 145.003 74.825C145.553 75.625 145.986 76.5417 146.303 77.575C146.619 78.5917 146.778 79.625 146.778 80.675ZM130.103 85.475C130.436 85.475 130.769 85.3917 131.103 85.225C131.453 85.0417 131.761 84.8083 132.028 84.525C131.594 84.2083 131.211 83.975 130.878 83.825C130.561 83.6583 130.228 83.575 129.878 83.575C129.494 83.575 129.194 83.6583 128.978 83.825C128.778 83.9917 128.678 84.2167 128.678 84.5C128.678 84.8 128.794 85.0417 129.028 85.225C129.278 85.3917 129.636 85.475 130.103 85.475ZM167.968 77.975C167.968 79.3417 167.776 80.6583 167.393 81.925C167.026 83.1917 166.443 84.3167 165.643 85.3C164.86 86.2667 163.843 87.0417 162.593 87.625C161.36 88.2083 159.876 88.5 158.143 88.5C156.71 88.5 155.393 88.2917 154.193 87.875C152.993 87.4417 151.96 86.8333 151.093 86.05C150.243 85.2667 149.576 84.325 149.093 83.225C148.61 82.125 148.368 80.9 148.368 79.55C148.368 78.4833 148.51 77.55 148.793 76.75C149.093 75.9333 149.493 75.2583 149.993 74.725C150.493 74.1917 151.085 73.7917 151.768 73.525C152.451 73.2583 153.185 73.125 153.968 73.125C154.785 73.125 155.493 73.25 156.093 73.5C156.71 73.7333 157.218 74.0583 157.618 74.475C158.035 74.875 158.343 75.3417 158.543 75.875C158.76 76.4083 158.868 76.9583 158.868 77.525C158.868 78.1083 158.768 78.6417 158.568 79.125C158.385 79.6083 158.11 80.0333 157.743 80.4C157.393 80.75 156.96 81.025 156.443 81.225C155.943 81.425 155.385 81.525 154.768 81.525C154.318 81.525 153.901 81.475 153.518 81.375C153.135 81.275 152.785 81.1333 152.468 80.95C152.501 81.1333 152.535 81.3083 152.568 81.475C152.618 81.625 152.685 81.775 152.768 81.925C153.168 82.9083 153.843 83.6667 154.793 84.2C155.76 84.7333 156.868 85 158.118 85C159.068 85 159.885 84.8 160.568 84.4C161.268 84 161.843 83.475 162.293 82.825C162.743 82.1583 163.076 81.4083 163.293 80.575C163.51 79.725 163.618 78.85 163.618 77.95C163.618 76.8667 163.501 75.8167 163.268 74.8C163.051 73.7833 162.71 72.875 162.243 72.075C161.91 72.4083 161.476 72.675 160.943 72.875C160.426 73.075 159.843 73.175 159.193 73.175C158.576 73.175 158.01 73.0833 157.493 72.9C156.976 72.7 156.526 72.4333 156.143 72.1C155.776 71.75 155.485 71.3417 155.268 70.875C155.068 70.3917 154.968 69.8583 154.968 69.275C154.968 68.125 155.368 67.2 156.168 66.5C156.968 65.7833 158.093 65.425 159.543 65.425C160.843 65.425 162.01 65.8 163.043 66.55C164.076 67.2833 164.96 68.25 165.693 69.45C166.426 70.65 166.985 72 167.368 73.5C167.768 74.9833 167.968 76.475 167.968 77.975ZM158.568 69.35C158.568 69.6833 158.668 69.9583 158.868 70.175C159.085 70.375 159.351 70.475 159.668 70.475C159.985 70.475 160.243 70.375 160.443 70.175C160.66 69.9583 160.768 69.6833 160.768 69.35C160.768 69.0167 160.66 68.75 160.443 68.55C160.243 68.3333 159.985 68.225 159.668 68.225C159.351 68.225 159.085 68.3333 158.868 68.55C158.668 68.75 158.568 69.0167 158.568 69.35ZM155.043 77.525C155.043 77.1417 154.935 76.8333 154.718 76.6C154.501 76.3667 154.201 76.25 153.818 76.25C153.435 76.25 153.135 76.3667 152.918 76.6C152.701 76.8333 152.593 77.1417 152.593 77.525C152.593 77.9083 152.701 78.2167 152.918 78.45C153.135 78.6667 153.435 78.775 153.818 78.775C154.201 78.775 154.501 78.6667 154.718 78.45C154.935 78.2167 155.043 77.9083 155.043 77.525ZM174.986 80.55C175.936 80.55 176.803 80.7 177.586 81C178.37 81.2833 179.07 81.75 179.686 82.4C179.97 82.7 180.211 83 180.411 83.3C180.628 83.6 180.828 83.875 181.011 84.125C181.195 84.3583 181.378 84.55 181.561 84.7C181.761 84.85 181.986 84.925 182.236 84.925C182.553 84.925 182.811 84.7583 183.011 84.425C183.211 84.0917 183.311 83.5583 183.311 82.825C183.311 82.125 183.186 81.5 182.936 80.95C182.686 80.4 182.37 79.9333 181.986 79.55C182.353 78.3667 183.086 77.775 184.186 77.775C184.57 77.775 184.936 77.8583 185.286 78.025C185.636 78.1917 185.945 78.4333 186.211 78.75C186.611 79.2333 186.936 79.825 187.186 80.525C187.436 81.2083 187.561 81.975 187.561 82.825C187.561 83.5583 187.461 84.2667 187.261 84.95C187.061 85.6333 186.745 86.2417 186.311 86.775C185.895 87.2917 185.353 87.7083 184.686 88.025C184.02 88.3417 183.211 88.5 182.261 88.5C181.228 88.5 180.403 88.3167 179.786 87.95C179.17 87.5833 178.628 87.125 178.161 86.575C177.911 86.2917 177.678 86 177.461 85.7C177.261 85.4 177.045 85.1333 176.811 84.9C176.595 84.65 176.361 84.45 176.111 84.3C175.861 84.15 175.578 84.075 175.261 84.075C174.728 84.075 174.311 84.25 174.011 84.6C173.728 84.9333 173.586 85.375 173.586 85.925C173.586 86.2083 173.62 86.5083 173.686 86.825C173.77 87.125 173.861 87.3917 173.961 87.625C173.761 87.8583 173.478 88.0583 173.111 88.225C172.761 88.4083 172.336 88.5 171.836 88.5C171.103 88.5 170.495 88.2333 170.011 87.7C169.528 87.15 169.286 86.375 169.286 85.375C169.286 84.625 169.42 83.9583 169.686 83.375C169.953 82.775 170.328 82.2667 170.811 81.85C171.311 81.4333 171.911 81.1167 172.611 80.9C173.311 80.6667 174.103 80.55 174.986 80.55ZM176.686 75.85C176.186 75.85 175.711 75.775 175.261 75.625C174.811 75.475 174.411 75.25 174.061 74.95C173.728 74.65 173.461 74.275 173.261 73.825C173.061 73.375 172.961 72.8583 172.961 72.275C172.961 71.7583 173.061 71.275 173.261 70.825C173.478 70.3583 173.77 69.9583 174.136 69.625C174.52 69.2917 174.978 69.0333 175.511 68.85C176.061 68.65 176.661 68.55 177.311 68.55C178.878 68.55 180.061 69.0333 180.861 70C181.678 70.95 182.086 72.2 182.086 73.75C182.086 74.55 181.961 75.3083 181.711 76.025C181.461 76.7417 181.103 77.3667 180.636 77.9C180.186 78.4333 179.628 78.8583 178.961 79.175C178.295 79.475 177.553 79.625 176.736 79.625C174.97 79.625 174.086 79.0583 174.086 77.925C174.086 77.5083 174.195 77.1 174.411 76.7C174.911 76.85 175.47 76.925 176.086 76.925C176.62 76.925 177.12 76.8167 177.586 76.6C178.07 76.3833 178.378 76 178.511 75.45C178.028 75.7167 177.42 75.85 176.686 75.85ZM177.411 73.45C177.728 73.45 177.986 73.35 178.186 73.15C178.403 72.9333 178.511 72.6583 178.511 72.325C178.511 71.9917 178.403 71.725 178.186 71.525C177.986 71.3083 177.728 71.2 177.411 71.2C177.095 71.2 176.828 71.3083 176.611 71.525C176.411 71.725 176.311 71.9917 176.311 72.325C176.311 72.6583 176.411 72.9333 176.611 73.15C176.828 73.35 177.095 73.45 177.411 73.45Z" fill="#ABABAB"/>
<path d="M34.5 23.0089C16.9 23.4089 4.16667 36.5089 0 43.0089C6 53.0088 17 64.0088 34.5 64.5088C50.9742 64.7697 67 50.0088 70.5 42.5089C65.8333 35.8422 52.1 22.6089 34.5 23.0089Z" fill="white"/>
<path d="M35.7043 58.5996C43.5715 58.5996 49.9493 52.201 49.9493 44.3081C49.9493 36.4151 43.5715 30.0166 35.7043 30.0166C27.8371 30.0166 21.4595 36.4151 21.4595 44.3081C21.4595 52.201 27.8371 58.5996 35.7043 58.5996Z" fill="#2D2D2D" stroke="#2D2D2D" stroke-width="4.89617" stroke-miterlimit="10"/>
<path d="M35.494 52.4262C40.1037 52.4262 43.8406 48.6771 43.8406 44.0524C43.8406 39.4275 40.1037 35.6785 35.494 35.6785C30.8844 35.6785 27.1475 39.4275 27.1475 44.0524C27.1475 48.6771 30.8844 52.4262 35.494 52.4262Z" fill="#2D2D2D"/>
<path d="M42.8544 52.4619C45.0838 52.4619 46.8912 50.6486 46.8912 48.4117C46.8912 46.1749 45.0838 44.3616 42.8544 44.3616C40.6248 44.3616 38.8174 46.1749 38.8174 48.4117C38.8174 50.6486 40.6248 52.4619 42.8544 52.4619Z" fill="white"/>
</svg>
