<svg width="284" height="100" viewBox="0 0 284 100" fill="none" xmlns="http://www.w3.org/2000/svg">
<path d="M24.4231 25.4739H13.5397V41.0714H24.4231V25.4739Z" fill="white"/>
<path d="M19 76.5695C29.4934 76.5695 38 68.0876 38 57.6245C38 47.1614 29.4934 38.6796 19 38.6796C8.50659 38.6796 0 47.1614 0 57.6245C0 68.0876 8.50659 76.5695 19 76.5695Z" fill="white"/>
<path d="M33.0793 58.0974C33.0793 65.8855 26.7758 72.1991 19.0002 72.1991C11.2244 72.1991 4.92102 65.8855 4.92102 58.0974C4.92102 50.3093 33.0793 50.3093 33.0793 58.0974Z" fill="#2D2D2D"/>
<path d="M24.9812 26.614H12.5763C11.9879 26.614 11.5109 26.1383 11.5109 25.5516V25.4688C11.5109 24.8821 11.9879 24.4064 12.5763 24.4064H24.9817C25.5702 24.4064 26.0471 24.8821 26.0471 25.4688V25.5516C26.0468 26.1383 25.5697 26.614 24.9812 26.614Z" fill="white"/>
<path d="M23.5192 17.4541C26.1374 17.4541 28.2601 15.3377 28.2601 12.727C28.2601 10.1164 26.1374 8 23.5192 8C20.901 8 18.7785 10.1164 18.7785 12.727C18.7785 15.3377 20.901 17.4541 23.5192 17.4541Z" fill="white"/>
<path d="M14.0751 22.0521C15.756 22.0521 17.1188 20.6933 17.1188 19.0172C17.1188 17.3411 15.756 15.9823 14.0751 15.9823C12.3941 15.9823 11.0314 17.3411 11.0314 19.0172C11.0314 20.6933 12.3941 22.0521 14.0751 22.0521Z" fill="white"/>
<path d="M93.3086 83.6025C93.3086 82.04 93.0767 80.6729 92.625 79.501C91.9902 77.8896 91.0137 77.084 89.7197 77.084C88.9385 77.084 88.3037 77.4014 87.791 78.0361C87.3027 78.6343 87.0586 79.3301 87.0586 80.1113C87.0586 80.8193 87.2661 81.4297 87.7056 81.918H84.8125V83.5781H89.9639V81.918C89.6099 81.8936 89.3047 81.6616 89.0605 81.2344C88.8408 80.8682 88.731 80.4897 88.731 80.1113C88.731 79.7939 88.8042 79.4888 88.9751 79.2202C89.1582 78.9028 89.4023 78.7441 89.7197 78.7441C90.4766 78.7441 91.0259 79.4155 91.3555 80.7461C91.5508 81.5762 91.6484 82.5649 91.6484 83.688C91.6484 85.2993 91.0381 86.5933 89.8418 87.5698C88.7065 88.4976 87.3271 88.9492 85.6914 88.9492C84.0557 88.9492 82.6641 88.4976 81.541 87.5698C80.3325 86.5933 79.7344 85.2993 79.7344 83.688C79.7344 83.2363 79.7588 82.7969 79.8198 82.3574C80.2959 82.8823 80.9062 83.1387 81.6631 83.1387C82.4321 83.1387 83.0791 82.8213 83.5918 82.1865C84.0801 81.6006 84.3242 80.9048 84.3242 80.1113C84.3242 79.3301 84.0801 78.6343 83.5918 78.0361C83.0791 77.4014 82.4321 77.084 81.6631 77.084C80.5156 77.084 79.6001 77.9263 78.9043 79.5986C78.3428 80.9292 78.0742 82.2598 78.0742 83.6025C78.0742 85.9341 78.7578 87.7529 80.1494 89.0713C81.4922 90.3652 83.3477 91 85.6914 91C88.0352 91 89.8784 90.3652 91.2334 89.0713C92.6128 87.7529 93.3086 85.9341 93.3086 83.6025ZM82.6519 80.1113C82.6519 80.4409 82.542 80.7461 82.3467 81.0146C82.127 81.332 81.8584 81.4785 81.541 81.4785C80.8818 81.4785 80.4302 81.2222 80.1738 80.6851C80.2471 80.2456 80.4058 79.8428 80.6499 79.4521C80.9429 78.9883 81.2847 78.7441 81.6631 78.7441C81.9683 78.7441 82.2124 78.9028 82.4077 79.2202C82.5664 79.4888 82.6519 79.7939 82.6519 80.1113ZM110.752 75.5581C110.752 74.7036 110.484 73.959 109.971 73.2998C109.422 72.6162 108.738 72.2378 107.908 72.1523L107.774 73.8125C108.165 73.8369 108.482 74.0444 108.75 74.4229C108.97 74.7646 109.092 75.1431 109.092 75.5581C109.092 76.0098 108.958 76.4126 108.702 76.7544C108.421 77.145 108.067 77.3281 107.627 77.3281H95.457V78.9883H107.627C108.555 78.9883 109.312 78.6465 109.91 77.9507C110.472 77.3037 110.752 76.5103 110.752 75.5581ZM104.246 82.3086C104.246 81.9912 104.124 81.7104 103.904 81.4785C103.672 81.2588 103.392 81.1367 103.074 81.1367C102.745 81.1367 102.464 81.2588 102.244 81.4785C102.012 81.7104 101.902 81.9912 101.902 82.3086C101.902 82.6382 102.012 82.9189 102.244 83.1387C102.464 83.3706 102.745 83.4805 103.074 83.4805C103.392 83.4805 103.672 83.3706 103.904 83.1387C104.124 82.9189 104.246 82.6382 104.246 82.3086ZM110.691 86.0317C110.691 84.6646 110.374 83.4927 109.764 82.5161C109.239 81.7104 108.372 80.8682 107.176 79.9648L106.407 81.4907C108.152 82.6016 109.031 84.0664 109.031 85.8975C109.031 86.7031 108.812 87.3867 108.372 87.9727C107.884 88.6318 107.261 88.9492 106.492 88.9492C105.711 88.9492 105.088 88.7051 104.625 88.1924C104.148 87.6797 103.917 87.0449 103.917 86.2637H102.256C102.256 87.0449 102.012 87.6797 101.536 88.1924C101.048 88.7051 100.425 88.9492 99.6562 88.9492C98.9238 88.9492 98.3257 88.6807 97.8374 88.1313C97.3491 87.6187 97.1172 86.9839 97.1172 86.2515C97.1172 85.0308 97.7153 84.2251 98.936 83.8223L98.4844 82.2231C97.5322 82.5039 96.7876 83.0288 96.2505 83.8101C95.7134 84.5669 95.457 85.4336 95.457 86.4346C95.457 87.7041 95.8477 88.7783 96.6289 89.645C97.4346 90.5483 98.4722 91 99.7417 91C101.133 91 102.244 90.4385 103.074 89.3154C103.892 90.4385 105.003 91 106.407 91C107.701 91 108.763 90.4873 109.568 89.4619C110.313 88.5098 110.691 87.3745 110.691 86.0317ZM126.414 84.1641C126.414 81.3198 125.743 78.7197 124.4 76.3638C122.813 73.5562 120.701 72.1523 118.077 72.1523C116.856 72.1523 115.855 72.4697 115.074 73.0801C114.207 73.7515 113.78 74.6792 113.78 75.8511C113.78 77.1816 114.28 78.207 115.281 78.915C113.646 80.2822 112.84 82.04 112.84 84.1641C112.84 86.0439 113.499 87.6553 114.817 88.998C116.136 90.3408 117.747 91 119.627 91C121.507 91 123.106 90.3408 124.424 88.998C125.743 87.6553 126.414 86.0439 126.414 84.1641ZM123.667 78.6709C122.471 77.7798 121.116 77.3281 119.627 77.3281C118.748 77.3281 117.906 77.499 117.1 77.8164C116.612 77.8164 116.209 77.6333 115.892 77.2671C115.574 76.9009 115.416 76.4736 115.416 75.9609C115.416 75.2529 115.696 74.7158 116.27 74.3252C116.758 73.9834 117.381 73.8125 118.125 73.8125C120.542 73.8125 122.386 75.436 123.667 78.6709ZM124.607 83.9688C124.607 85.3481 124.119 86.52 123.143 87.4966C122.166 88.4731 120.994 88.9492 119.627 88.9492C118.248 88.9492 117.076 88.4731 116.099 87.4966C115.123 86.52 114.646 85.3481 114.646 83.9688C114.646 82.6016 115.123 81.4297 116.099 80.4531C117.076 79.4766 118.248 78.9883 119.627 78.9883C120.994 78.9883 122.166 79.4766 123.143 80.4531C124.119 81.4297 124.607 82.6016 124.607 83.9688ZM143.797 86.3491C143.797 85.4336 143.504 84.5913 142.918 83.8223H143.797V82.1621H141.087C142.894 80.4897 143.797 78.5244 143.797 76.2783C143.797 75.1797 143.553 74.252 143.077 73.4951C142.503 72.604 141.697 72.1523 140.672 72.1523C139.817 72.1523 139.097 72.4575 138.499 73.0435C137.901 73.6294 137.608 74.3496 137.608 75.1919C137.608 76.0342 137.901 76.7544 138.499 77.3403C139.085 77.9385 139.805 78.2314 140.647 78.2314C141.16 78.2314 141.636 78.1216 142.076 77.8774C141.905 78.8418 141.429 79.7695 140.672 80.6729C139.817 81.6738 138.938 82.1621 138.035 82.1621H137.132V83.8223H140.135C140.696 83.8223 141.185 84.1152 141.587 84.689C141.954 85.2017 142.137 85.7632 142.137 86.3491C142.137 87.0815 141.88 87.6919 141.38 88.1924C140.879 88.7051 140.269 88.9492 139.549 88.9492C138.792 88.9492 138.182 88.6929 137.718 88.1802C137.254 87.6675 137.022 87.0205 137.022 86.2637H135.362C135.362 87.0449 135.118 87.6797 134.642 88.1924C134.153 88.7051 133.531 88.9492 132.762 88.9492C132.029 88.9492 131.431 88.7173 130.943 88.2534C130.455 87.7896 130.223 87.2036 130.223 86.4712C130.223 85.6167 130.65 84.9209 131.517 84.3594C132.31 83.9077 133.104 83.4561 133.909 83.0044C134.764 82.394 135.203 81.564 135.203 80.5386C135.203 79.5132 134.91 78.6831 134.336 78.0605C133.738 77.4136 132.933 77.084 131.919 77.084C131.041 77.084 130.284 77.3647 129.661 77.9141C129.002 78.5 128.685 79.2202 128.685 80.0869C128.685 80.8071 128.843 81.3809 129.173 81.7959L130.589 80.9658C130.418 80.7949 130.345 80.5264 130.345 80.1357C130.345 79.7207 130.503 79.3911 130.821 79.1226C131.114 78.8784 131.468 78.7441 131.895 78.7441C132.396 78.7441 132.798 78.9028 133.091 79.2202C133.384 79.5376 133.543 79.9404 133.543 80.4531C133.543 81.0391 133.104 81.5762 132.249 82.0645C130.894 82.8579 130.101 83.3584 129.856 83.5781C128.99 84.3716 128.562 85.397 128.562 86.6665C128.562 87.936 128.953 88.9736 129.759 89.7793C130.564 90.5972 131.59 91 132.847 91C134.251 91 135.362 90.4385 136.18 89.3154C137.01 90.4385 138.133 91 139.549 91C140.794 91 141.819 90.5361 142.637 89.5962C143.406 88.7051 143.797 87.6187 143.797 86.3491ZM142.186 75.8389C141.832 76.3271 141.319 76.5713 140.647 76.5713C140.269 76.5713 139.939 76.437 139.671 76.1685C139.402 75.8999 139.268 75.5703 139.268 75.1919C139.268 74.8257 139.402 74.4961 139.671 74.2275C139.939 73.959 140.269 73.8125 140.647 73.8125C141.099 73.8125 141.478 74.0444 141.771 74.5083C142.015 74.8989 142.161 75.3506 142.186 75.8389ZM161.241 75.5581C161.241 74.7036 160.972 73.959 160.459 73.2998C159.91 72.6162 159.227 72.2378 158.396 72.1523L158.262 73.8125C158.653 73.8369 158.982 74.0444 159.239 74.4229C159.458 74.7646 159.581 75.1431 159.581 75.5581C159.581 76.0098 159.446 76.4126 159.19 76.7544C158.909 77.145 158.555 77.3281 158.116 77.3281H145.945V78.9883H153.77C154.429 78.9883 155.101 79.147 155.784 79.4521C156.59 79.8306 157.029 80.3066 157.115 80.8804C156.553 80.5142 155.906 80.3188 155.162 80.3188C154.38 80.3188 153.709 80.5264 153.16 80.9414C152.549 81.4053 152.256 82.0034 152.256 82.7603C152.256 83.5293 152.525 84.1519 153.074 84.6157C153.587 85.0796 154.234 85.2993 155.015 85.2993C155.674 85.2993 156.321 85.104 156.98 84.7012C157.664 84.2861 158.104 83.7856 158.311 83.1753C159.117 83.749 159.52 84.5791 159.52 85.6655C159.52 86.8374 158.75 87.7163 157.225 88.3022C156.102 88.7417 154.832 88.9492 153.428 88.9492C152.024 88.9492 150.792 88.7295 149.742 88.29C148.301 87.7041 147.593 86.8008 147.593 85.6045C147.593 84.5425 148.289 83.7612 149.681 83.2729L148.96 81.918C148.057 82.2109 147.337 82.687 146.8 83.3584C146.226 84.0664 145.945 84.8843 145.945 85.7998C145.945 87.5332 146.824 88.876 148.582 89.8281C150.022 90.6094 151.683 91 153.562 91C155.442 91 157.103 90.6094 158.543 89.8281C160.301 88.876 161.18 87.5332 161.18 85.7998C161.18 83.8833 160.325 82.4673 158.628 81.5518C158.628 80.4653 158.091 79.6108 157.042 78.9883H158.116C159.043 78.9883 159.8 78.6465 160.398 77.9507C160.96 77.3037 161.241 76.5103 161.241 75.5581ZM156.993 82.3452C156.871 82.7114 156.602 83.0288 156.163 83.2729C155.748 83.5171 155.345 83.6392 154.942 83.6392C154.258 83.6392 153.917 83.3706 153.917 82.8213C153.917 82.1865 154.429 81.8691 155.479 81.8691C155.979 81.8691 156.48 82.0278 156.993 82.3452ZM178.624 75.5581C178.624 74.7036 178.355 73.959 177.842 73.2998C177.293 72.6162 176.609 72.2378 175.779 72.1523L175.645 73.8125C176.036 73.8369 176.353 74.0444 176.622 74.4229C176.841 74.7646 176.963 75.1431 176.963 75.5581C176.963 76.0098 176.829 76.4126 176.573 76.7544C176.292 77.145 175.938 77.3281 175.499 77.3281H163.328V78.9883H166.404C164.354 80.6118 163.328 82.8579 163.328 85.7388C163.328 87.1304 163.707 88.3389 164.463 89.3398C165.293 90.4507 166.38 91 167.723 91C169.041 91 170.115 90.4385 170.945 89.3154C171.775 90.4385 172.85 91 174.168 91C175.511 91 176.597 90.4507 177.427 89.3398C178.184 88.3389 178.562 87.1304 178.562 85.7388C178.562 82.8579 177.537 80.6118 175.486 78.9883C176.414 78.9883 177.171 78.6465 177.769 77.9507C178.331 77.3037 178.624 76.5103 178.624 75.5581ZM176.902 85.5801C176.902 86.4956 176.695 87.2524 176.304 87.8628C175.84 88.5952 175.169 88.9492 174.314 88.9492C173.558 88.9492 172.947 88.6929 172.483 88.1802C172.02 87.6675 171.788 87.0205 171.788 86.2637H170.127C170.127 87.0205 169.896 87.6553 169.432 88.168C168.943 88.6929 168.321 88.9492 167.576 88.9492C166.709 88.9492 166.05 88.5952 165.586 87.8628C165.184 87.2524 164.988 86.4956 164.988 85.5801C164.988 84.2373 165.306 83.0288 165.94 81.9546C166.6 80.856 167.54 80.0381 168.736 79.4888C169.48 79.1592 170.213 78.9883 170.945 78.9883C171.666 78.9883 172.398 79.1592 173.155 79.4888C174.351 80.0381 175.279 80.856 175.95 81.9546C176.585 83.0288 176.902 84.2373 176.902 85.5801ZM203.758 83.6025C203.758 82.04 203.526 80.6729 203.074 79.501C202.439 77.8896 201.463 77.084 200.169 77.084C199.388 77.084 198.753 77.4014 198.24 78.0361C197.752 78.6343 197.508 79.3301 197.508 80.1113C197.508 80.8193 197.715 81.4297 198.155 81.918H195.262V83.5781H200.413V81.918C200.059 81.8936 199.754 81.6616 199.51 81.2344C199.29 80.8682 199.18 80.4897 199.18 80.1113C199.18 79.7939 199.253 79.4888 199.424 79.2202C199.607 78.9028 199.852 78.7441 200.169 78.7441C200.926 78.7441 201.475 79.4155 201.805 80.7461C202 81.5762 202.098 82.5649 202.098 83.688C202.098 85.2993 201.487 86.5933 200.291 87.5698C199.156 88.4976 197.776 88.9492 196.141 88.9492C194.505 88.9492 193.113 88.4976 191.99 87.5698C190.782 86.5933 190.184 85.2993 190.184 83.688C190.184 83.2363 190.208 82.7969 190.269 82.3574C190.745 82.8823 191.355 83.1387 192.112 83.1387C192.881 83.1387 193.528 82.8213 194.041 82.1865C194.529 81.6006 194.773 80.9048 194.773 80.1113C194.773 79.3301 194.529 78.6343 194.041 78.0361C193.528 77.4014 192.881 77.084 192.112 77.084C190.965 77.084 190.049 77.9263 189.354 79.5986C188.792 80.9292 188.523 82.2598 188.523 83.6025C188.523 85.9341 189.207 87.7529 190.599 89.0713C191.941 90.3652 193.797 91 196.141 91C198.484 91 200.328 90.3652 201.683 89.0713C203.062 87.7529 203.758 85.9341 203.758 83.6025ZM193.101 80.1113C193.101 80.4409 192.991 80.7461 192.796 81.0146C192.576 81.332 192.308 81.4785 191.99 81.4785C191.331 81.4785 190.879 81.2222 190.623 80.6851C190.696 80.2456 190.855 79.8428 191.099 79.4521C191.392 78.9883 191.734 78.7441 192.112 78.7441C192.417 78.7441 192.662 78.9028 192.857 79.2202C193.016 79.4888 193.101 79.7939 193.101 80.1113ZM221.141 85.4824C221.141 82.7236 220.14 80.563 218.138 78.9883H219.432V77.3281H205.906V78.9883H214.268C215.684 78.9883 216.929 79.7329 218.003 81.2222C218.98 82.5894 219.48 84.0054 219.48 85.4824C219.48 86.4956 219.224 87.3135 218.736 87.936C218.199 88.6196 217.43 88.9492 216.453 88.9492C215.586 88.9492 214.756 88.4487 213.975 87.4478C213.316 86.52 212.669 85.5801 212.034 84.6401C211.241 83.6392 210.411 83.1387 209.556 83.1387C208.409 83.1387 207.518 83.4561 206.871 84.0908C206.224 84.7256 205.906 85.6045 205.906 86.7397C205.906 88.522 206.602 89.938 208.006 91L208.689 89.0713C207.933 88.3389 207.566 87.521 207.566 86.6055C207.566 86.0562 207.725 85.6167 208.067 85.2871C208.409 84.9697 208.86 84.7988 209.422 84.7988C210.008 84.7988 210.667 85.3359 211.375 86.4102C212.608 88.2778 213.279 89.2666 213.389 89.3887C214.292 90.4629 215.306 91 216.404 91C217.918 91 219.114 90.4507 219.969 89.3398C220.75 88.3389 221.141 87.0571 221.141 85.4824ZM222.483 75.5215C222.483 74.6304 222.203 73.8613 221.666 73.2021C221.067 72.5063 220.311 72.1523 219.383 72.1523C218.748 72.1523 218.223 72.3477 217.796 72.7261C217.32 73.1411 217.088 73.6904 217.088 74.374C217.088 74.9355 217.247 75.3872 217.576 75.729C217.869 76.0464 218.235 76.1929 218.663 76.1929C219.212 76.1929 219.639 75.9487 219.932 75.436L219.432 74.9966C219.249 75.2529 219.053 75.375 218.833 75.375C218.443 75.375 218.248 75.1431 218.248 74.6548C218.248 74.0322 218.565 73.7148 219.224 73.7148C219.737 73.7148 220.152 73.8857 220.481 74.2275C220.774 74.5449 220.921 74.9355 220.921 75.375C220.921 75.8877 220.75 76.3271 220.408 76.7056C220.042 77.1206 219.59 77.3281 219.053 77.3281H217.137V78.9883H219.053C220.103 78.9883 220.958 78.6343 221.604 77.9019C222.19 77.2427 222.483 76.4492 222.483 75.5215ZM225.572 96.603C225.572 95.4678 225.145 94.4668 224.314 93.6123C224.925 93.5879 225.438 93.3438 225.865 92.8921C226.292 92.4404 226.512 91.9033 226.512 91.2808C226.512 90.646 226.28 90.0967 225.828 89.6328C225.376 89.1812 224.827 88.9492 224.192 88.9492V90.2676C224.461 90.2676 224.705 90.3774 224.9 90.5728C225.096 90.7681 225.193 91.0122 225.193 91.2808C225.193 91.5615 225.096 91.8057 224.9 92.001C224.705 92.1963 224.461 92.2939 224.192 92.2939H220.542V93.6123H222.02C222.679 93.832 223.216 94.1982 223.631 94.7109C224.046 95.2358 224.253 95.834 224.253 96.5054C224.253 97.0669 224.095 97.543 223.802 97.9214C223.472 98.3364 223.033 98.5439 222.496 98.5439C221.641 98.5439 221.226 98.1289 221.226 97.2744V96.8594H219.871V97.2744C219.871 98.1289 219.432 98.5439 218.577 98.5439C218.187 98.5439 217.869 98.373 217.613 98.0312C217.369 97.7261 217.259 97.3721 217.259 96.9692C217.259 96.1147 217.759 95.5288 218.76 95.1992L218.357 93.9297C216.746 94.4058 215.94 95.4312 215.94 97.0181C215.94 97.8237 216.185 98.4829 216.673 99.02C217.173 99.5815 217.82 99.8623 218.614 99.8623C219.505 99.8623 220.152 99.5205 220.542 98.8369C220.689 99.1299 220.97 99.374 221.373 99.5693C221.739 99.7646 222.105 99.8623 222.447 99.8623C223.387 99.8623 224.144 99.5571 224.729 98.9224C225.291 98.3242 225.572 97.5552 225.572 96.603ZM236.204 90.5728L236.021 88.9004C235.728 88.937 235.484 88.9492 235.289 88.9492C233.677 88.9492 232.383 88.3999 231.382 87.2769C230.442 86.2393 229.979 84.9819 229.979 83.5049C229.979 83.0776 230.015 82.626 230.101 82.1499C230.662 82.9434 231.443 83.334 232.444 83.334C233.372 83.334 234.129 83.0532 234.703 82.4673C235.276 81.8813 235.569 81.1367 235.569 80.209C235.569 79.3545 235.264 78.6099 234.654 77.9995C234.043 77.3892 233.299 77.084 232.444 77.084C231.175 77.084 230.162 77.7188 229.393 78.9883C228.672 80.1602 228.318 81.6006 228.318 83.3096C228.318 85.4092 228.99 87.1548 230.333 88.5342C231.675 89.9258 233.384 90.6094 235.472 90.6094C235.643 90.6094 235.887 90.5972 236.204 90.5728ZM233.909 80.209C233.909 80.624 233.763 80.9658 233.482 81.2466C233.189 81.5396 232.847 81.6738 232.444 81.6738C232.029 81.6738 231.688 81.5396 231.407 81.2466C231.114 80.9658 230.979 80.624 230.979 80.209C230.979 79.8062 231.114 79.4644 231.407 79.1714C231.688 78.8906 232.029 78.7441 232.444 78.7441C232.847 78.7441 233.189 78.8906 233.482 79.1714C233.763 79.4644 233.909 79.8062 233.909 80.209ZM253.428 75.5581C253.428 74.7036 253.16 73.959 252.647 73.2998C252.098 72.6162 251.414 72.2378 250.584 72.1523L250.45 73.8125C250.84 73.8369 251.158 74.0444 251.426 74.4229C251.646 74.7646 251.768 75.1431 251.768 75.5581C251.768 76.0098 251.634 76.4126 251.377 76.7544C251.097 77.145 250.743 77.3281 250.303 77.3281H238.133V78.9883H250.364C251.255 78.9883 252 78.6343 252.586 77.9263C253.147 77.2671 253.428 76.4736 253.428 75.5581ZM246.922 82.3086C246.922 81.9912 246.8 81.7227 246.568 81.4907C246.336 81.2588 246.067 81.1367 245.75 81.1367C245.433 81.1367 245.152 81.2588 244.92 81.4907C244.688 81.7227 244.578 81.9912 244.578 82.3086C244.578 82.626 244.688 82.9067 244.92 83.1387C245.152 83.3706 245.433 83.4805 245.75 83.4805C246.067 83.4805 246.336 83.3706 246.568 83.1387C246.8 82.9067 246.922 82.626 246.922 82.3086ZM253.367 86.0317C253.367 84.6768 253.05 83.5049 252.439 82.5283C251.927 81.7227 251.06 80.8682 249.852 79.9648L249.083 81.4907C250.828 82.6016 251.707 84.0664 251.707 85.8975C251.707 86.7031 251.475 87.4111 251.036 87.9971L247.386 83.6514L246.763 84.2739L250.352 88.6196C249.998 88.8394 249.607 88.9492 249.168 88.9492C248.387 88.9492 247.764 88.7051 247.3 88.1924C246.824 87.6797 246.592 87.0449 246.592 86.2637H244.932C244.932 87.0449 244.688 87.6797 244.212 88.1924C243.724 88.7051 243.101 88.9492 242.332 88.9492C241.6 88.9492 241.001 88.6807 240.513 88.1313C240.025 87.6187 239.793 86.9839 239.793 86.2515C239.793 85.0308 240.391 84.2251 241.612 83.8223L241.16 82.2231C240.208 82.5039 239.476 83.0288 238.938 83.7979C238.401 84.5669 238.133 85.4458 238.133 86.4346C238.133 87.7041 238.523 88.7783 239.317 89.645C240.123 90.5483 241.16 91 242.417 91C243.821 91 244.932 90.4385 245.75 89.3154C246.556 90.4385 247.667 91 249.083 91C250.035 91 250.877 90.707 251.597 90.1211L252.439 91.1465L253.135 90.4995L252.256 89.4497C252.989 88.4976 253.367 87.3623 253.367 86.0317ZM268.309 78.9883V77.3281H255.516V78.9883H268.309ZM269.7 85.5679C269.7 84.0054 269.346 82.7358 268.65 81.7593C267.845 80.6606 266.697 80.0991 265.196 80.0991C263.89 80.0991 262.889 80.5142 262.181 81.3442C261.473 80.5142 260.472 80.0991 259.178 80.0991C258.177 80.0991 257.347 80.3433 256.663 80.8315C255.894 81.3931 255.516 82.1377 255.516 83.0898C255.516 84.0908 255.918 84.8599 256.749 85.3726C255.918 85.8486 255.516 86.6787 255.516 87.875C255.516 88.7539 255.796 89.4985 256.382 90.0967C256.968 90.707 257.701 91 258.58 91C259.483 91 260.228 90.6948 260.813 90.0723C261.399 89.4497 261.705 88.6807 261.705 87.7773H259.983C259.983 88.7295 259.52 89.1934 258.58 89.1934C258.177 89.1934 257.847 89.0591 257.603 88.7905C257.359 88.522 257.237 88.1924 257.237 87.7773C257.237 86.6787 257.762 86.1172 258.812 86.1172H259.495V84.6279H258.812C258.36 84.6279 257.981 84.4814 257.688 84.1885C257.383 83.8955 257.237 83.5293 257.237 83.0776C257.237 82.0889 257.884 81.5884 259.178 81.5884C259.788 81.5884 260.289 81.7837 260.704 82.1621C261.119 82.5405 261.326 83.0288 261.326 83.627H263.047C263.047 83.0288 263.243 82.5405 263.658 82.1621C264.073 81.7837 264.585 81.5884 265.196 81.5884C266.148 81.5884 266.868 82.0645 267.381 83.0166C267.784 83.7856 267.991 84.689 267.991 85.7266C267.991 86.3247 267.906 86.8862 267.759 87.4233C267.222 86.3003 266.478 85.7388 265.55 85.7388C264.817 85.7388 264.231 85.9829 263.792 86.4468C263.353 86.9106 263.133 87.5088 263.133 88.229C263.133 89.0347 263.377 89.7061 263.865 90.2188C264.354 90.7437 264.988 91 265.794 91C267.088 91 268.089 90.3896 268.809 89.1689C269.395 88.168 269.7 86.9595 269.7 85.5679ZM267.051 88.4854C266.941 88.7661 266.734 89.0103 266.441 89.23C266.136 89.4497 265.843 89.5596 265.55 89.5596C265.208 89.5596 264.939 89.4253 264.744 89.1323C264.549 88.8882 264.463 88.583 264.463 88.229C264.463 87.9604 264.573 87.7041 264.805 87.4478C265.025 87.2036 265.281 87.0693 265.55 87.0693C266.282 87.0693 266.783 87.5454 267.051 88.4854ZM270.75 75.5215C270.75 74.6304 270.469 73.8613 269.932 73.2021C269.334 72.5063 268.577 72.1523 267.649 72.1523C267.015 72.1523 266.49 72.3477 266.062 72.7261C265.586 73.1411 265.354 73.6904 265.354 74.374C265.354 74.9355 265.513 75.3872 265.843 75.729C266.136 76.0464 266.502 76.1929 266.929 76.1929C267.479 76.1929 267.906 75.9487 268.199 75.436L267.698 74.9966C267.515 75.2529 267.32 75.375 267.1 75.375C266.709 75.375 266.514 75.1431 266.514 74.6548C266.514 74.0322 266.832 73.7148 267.491 73.7148C268.003 73.7148 268.418 73.8857 268.748 74.2275C269.041 74.5449 269.188 74.9355 269.188 75.375C269.188 75.8877 269.017 76.3271 268.675 76.7056C268.309 77.1206 267.857 77.3281 267.32 77.3281H265.403V78.9883H267.32C268.37 78.9883 269.224 78.6343 269.871 77.9019C270.457 77.2427 270.75 76.4492 270.75 75.5215Z" fill="#ABABAB"/>
<path d="M102.148 28.8281C103.039 28.8281 103.859 28.6641 104.633 28.2891C105.383 27.9141 106.062 27.4219 106.625 26.7891C107.188 26.1797 107.609 25.4297 107.938 24.5859C108.266 23.7422 108.43 22.8516 108.43 21.9141C108.43 21.0234 108.266 20.2031 107.938 19.4062C107.609 18.6094 107.188 17.9062 106.625 17.2969C106.062 16.6875 105.406 16.1719 104.656 15.7734C103.906 15.375 103.086 15.1172 102.219 15.0234L101.891 19.1016C102.594 19.1953 103.203 19.5234 103.672 20.0391C104.141 20.5781 104.375 21.2109 104.375 21.9141C104.375 22.2891 104.305 22.6406 104.188 22.9688C104.07 23.3203 103.906 23.625 103.719 23.8828C103.508 24.1641 103.273 24.375 102.992 24.5156C102.711 24.6797 102.43 24.75 102.148 24.75H79.0625V28.8281H102.148ZM94.6016 36.9609C94.9766 36.9609 95.3047 36.8906 95.6328 36.75C95.9609 36.6094 96.2422 36.4219 96.4766 36.1641C96.7109 35.9297 96.8984 35.6484 97.0391 35.3203C97.1797 34.9922 97.25 34.6406 97.25 34.2656C97.25 33.9141 97.1797 33.5625 97.0391 33.2344C96.8984 32.9062 96.6875 32.625 96.4531 32.3906C96.2188 32.1562 95.9375 31.9453 95.6094 31.8047C95.2812 31.6641 94.9531 31.5938 94.6016 31.5938C94.2266 31.5938 93.875 31.6641 93.5469 31.8047C93.2188 31.9453 92.9375 32.1562 92.7031 32.3906C92.4688 32.625 92.2812 32.9062 92.1406 33.2344C92 33.5625 91.9297 33.9141 91.9297 34.2656C91.9297 34.6406 92 34.9922 92.1406 35.3203C92.2812 35.6484 92.4688 35.9531 92.7031 36.1875C92.9375 36.4219 93.2188 36.6094 93.5469 36.75C93.875 36.8906 94.2266 36.9609 94.6016 36.9609ZM99.9688 51C101.141 51 102.242 50.7422 103.273 50.2266C104.281 49.7109 105.172 49.0078 105.922 48.1172C106.672 47.2266 107.258 46.1953 107.68 45.0234C108.102 43.8516 108.312 42.5859 108.312 41.2266C108.312 40.0078 108.172 38.9062 107.938 37.875C107.68 36.8672 107.258 35.9062 106.695 34.9688C106.133 34.0312 105.383 33.1172 104.469 32.2266C103.555 31.3359 102.43 30.3984 101.117 29.4141L99.2422 33.1875C100.93 34.2656 102.195 35.4375 103.016 36.6797C103.836 37.9453 104.258 39.375 104.258 40.9688C104.258 41.6719 104.141 42.3516 103.93 42.9844C103.695 43.6172 103.391 44.1797 103.016 44.6484C102.641 45.1172 102.172 45.4922 101.656 45.7734C101.141 46.0547 100.578 46.1953 99.9688 46.1953C99.3125 46.1953 98.75 46.0781 98.2344 45.8203C97.7188 45.5859 97.2734 45.2344 96.8984 44.7891C96.5234 44.3438 96.2422 43.8047 96.0547 43.1953C95.8438 42.5859 95.75 41.9297 95.75 41.1797H91.6953C91.6953 41.9297 91.5781 42.5859 91.3672 43.1953C91.1562 43.8047 90.8516 44.3438 90.4766 44.7891C90.1016 45.2344 89.6328 45.5859 89.1172 45.8203C88.5781 46.0781 87.9922 46.1953 87.3359 46.1953C86.7266 46.1953 86.1875 46.0781 85.6719 45.8203C85.1562 45.5859 84.7109 45.2344 84.3359 44.8125C83.9609 44.3906 83.6562 43.9219 83.4453 43.3594C83.2109 42.8203 83.1172 42.2578 83.1172 41.6484C83.1172 41.1562 83.1875 40.6641 83.375 40.1719C83.5391 39.7031 83.7734 39.2578 84.0781 38.8828C84.3828 38.5078 84.7344 38.2031 85.1562 37.9688C85.5781 37.7344 86.0234 37.6172 86.5391 37.6172C87.1484 37.6172 87.9922 38.0859 89.0703 39.0234L91.6484 35.6953C90.1484 34.2422 88.4375 33.5156 86.4922 33.5156C85.4141 33.5156 84.4062 33.75 83.5156 34.1953C82.6016 34.6641 81.8281 35.2734 81.1719 36.0469C80.5156 36.8203 80 37.7109 79.625 38.7422C79.25 39.7734 79.0625 40.8516 79.0625 41.9766C79.0625 43.2188 79.2734 44.3906 79.7188 45.4688C80.1406 46.5703 80.75 47.5312 81.5 48.3516C82.25 49.1719 83.1406 49.8281 84.1719 50.2969C85.2031 50.7656 86.3047 51 87.5 51C89.9844 51 92.0469 50.0625 93.6875 48.1406C95.3047 50.0625 97.3906 51 99.9688 51ZM100.391 66.4688C110.516 66.4688 115.578 60.7266 115.578 49.2422C115.578 48.0703 115.508 46.7344 115.391 45.2344C115.273 43.7344 115.086 42.0234 114.852 40.125H111.148C111.359 42.5391 111.523 44.5312 111.641 46.0781C111.758 47.625 111.828 48.7734 111.828 49.5234C111.828 51.7734 111.594 53.6953 111.148 55.3125C110.703 56.9531 110.023 58.2891 109.109 59.3438C108.172 60.4219 107 61.1953 105.594 61.7109C104.164 62.2266 102.477 62.4844 100.555 62.4844C98.5156 62.4844 96.2891 62.1094 93.8984 61.3594L92.1406 64.7812C95.0469 65.9062 97.8125 66.4688 100.391 66.4688ZM145.039 51C148.203 51 150.664 49.7812 152.398 47.2969C154.461 49.7812 156.547 51.0234 158.633 51.0234C159.688 51.0234 160.602 50.8359 161.398 50.4141C162.195 49.9922 162.875 49.4297 163.461 48.7031C164.047 48 164.562 47.1562 164.984 46.2188C165.406 45.2812 165.781 44.2734 166.109 43.1953C166.438 42.1172 166.742 41.0156 167.023 39.8906C167.305 38.7656 167.586 37.6641 167.891 36.5859C168.172 35.5078 168.5 34.5 168.852 33.5625C169.203 32.625 169.625 31.7812 170.094 31.0547C170.562 30.3516 171.125 29.7891 171.781 29.3672C172.438 28.9453 173.211 28.7344 174.102 28.7344C175.297 28.7344 176.398 28.9922 177.406 29.4844C178.414 29.9766 179.281 30.6562 180.008 31.5469C180.711 32.4375 181.273 33.4688 181.672 34.6641C182.07 35.8594 182.281 37.1484 182.281 38.5547C182.281 39.6328 182.141 40.6406 181.859 41.5781C181.578 42.5156 181.203 43.3359 180.711 44.0156C180.219 44.6953 179.633 45.2344 178.93 45.6094C178.227 46.0078 177.477 46.1953 176.633 46.1953C176.164 46.1953 175.742 46.125 175.344 45.9375C174.945 45.7734 174.594 45.5391 174.312 45.2344C174.008 44.9531 173.773 44.6016 173.609 44.2031C173.422 43.8047 173.352 43.3828 173.352 42.9141C173.352 42.5391 173.375 42.1875 173.469 41.8359C173.562 41.4844 173.68 41.1797 173.867 40.8984C174.031 40.6172 174.242 40.4062 174.523 40.2422C174.781 40.0781 175.086 39.9844 175.461 39.9844C175.789 39.9844 176.07 40.0312 176.305 40.1016C176.539 40.1719 176.773 40.2656 176.961 40.4062C177.148 40.5469 177.383 40.7344 177.617 40.9688C178.062 40.5234 178.508 40.0781 178.953 39.6328C179.398 39.2109 179.844 38.7656 180.312 38.2969C178.906 36.6797 177.312 35.8594 175.531 35.8594C174.641 35.8594 173.82 36.0703 173.07 36.4453C172.297 36.8438 171.617 37.3594 171.055 38.0156C170.492 38.6719 170.023 39.4453 169.695 40.2891C169.367 41.1328 169.203 42.0234 169.203 42.9141C169.203 44.0625 169.391 45.1172 169.766 46.1016C170.141 47.0859 170.656 47.9531 171.312 48.6797C171.969 49.4062 172.742 49.9688 173.656 50.3906C174.547 50.8125 175.555 51.0234 176.633 51.0234C178.062 51.0234 179.375 50.7188 180.57 50.1094C181.766 49.5 182.797 48.6328 183.664 47.5547C184.531 46.4766 185.211 45.1875 185.68 43.7109C186.148 42.2578 186.406 40.6641 186.406 38.9766C186.406 36.9375 186.102 35.0391 185.492 33.2812C184.883 31.5469 184.016 30.0234 182.938 28.7344C181.836 27.4688 180.523 26.4609 179.023 25.7344C177.5 25.0078 175.836 24.6328 174.031 24.6328C172.438 24.6328 171.078 24.9609 169.953 25.5703C168.828 26.1797 167.891 27 167.117 28.0078C166.32 29.0156 165.688 30.1641 165.172 31.4531C164.656 32.7656 164.234 34.0781 163.859 35.4141C163.484 36.7734 163.156 38.0859 162.852 39.375C162.547 40.6875 162.219 41.8359 161.867 42.8438C161.516 43.8516 161.094 44.6719 160.625 45.2812C160.133 45.8906 159.523 46.1953 158.797 46.1953C157.812 46.1953 156.945 45.9141 156.195 45.3047C155.445 44.6953 154.766 43.8984 154.18 42.8906C154.273 42.3516 154.367 41.8125 154.414 41.25C154.461 40.7109 154.508 40.1719 154.508 39.6094C154.508 35.5781 153.219 31.7344 150.664 28.0312C151.93 27.375 152.938 26.4375 153.664 25.2188C154.391 24 154.766 22.5938 154.766 21.0469C154.766 20.0625 154.555 19.1484 154.18 18.3516C153.805 17.5547 153.289 16.875 152.68 16.3125C152.07 15.75 151.367 15.3281 150.57 15.0234C149.773 14.7422 148.977 14.5781 148.18 14.5781C147.523 14.5781 146.914 14.6953 146.352 14.9297C145.789 15.1641 145.273 15.4688 144.852 15.8672C144.43 16.2656 144.078 16.7344 143.844 17.2734C143.586 17.8125 143.469 18.3984 143.469 19.0078C143.469 19.5234 143.539 19.9922 143.727 20.4375C143.914 20.8828 144.148 21.2812 144.477 21.6094C144.805 21.9609 145.156 22.2422 145.578 22.4297C146 22.6172 146.445 22.7109 146.914 22.7109C147.359 22.7109 147.781 22.6406 148.156 22.4766C148.531 22.3359 148.836 22.1016 149.117 21.8203C149.398 21.5391 149.609 21.2109 149.75 20.8359C149.891 20.4609 149.984 20.0625 149.984 19.5938V19.3828C150.242 19.5469 150.453 19.7578 150.617 20.0156C150.781 20.2969 150.875 20.625 150.875 21.0234C150.875 21.5625 150.781 22.0547 150.594 22.5C150.406 22.9688 150.102 23.3672 149.727 23.6953C149.352 24.0469 148.859 24.3047 148.297 24.4922C147.734 24.6797 147.078 24.7734 146.328 24.7734L142.859 24.75V28.8047H145.977C148.883 32.1094 150.359 35.7891 150.359 39.8672C150.359 40.7344 150.219 41.5547 149.938 42.3047C149.656 43.0781 149.305 43.7578 148.836 44.3203C148.367 44.9062 147.805 45.375 147.172 45.7031C146.516 46.0312 145.836 46.1953 145.086 46.1953C144.383 46.1953 143.75 46.1016 143.141 45.8672C142.531 45.6562 142.016 45.3281 141.57 44.8828C141.125 44.4375 140.82 43.875 140.633 43.1953C140.445 42.5391 140.352 41.7422 140.352 40.8516C140.352 40.5703 140.352 40.2656 140.352 39.9375C140.352 39.6328 140.375 39.3047 140.375 38.9297C140.375 38.0156 140.328 36.9844 140.234 35.8359C140.141 34.6875 139.953 33.5859 139.625 32.5078C139.297 31.4297 138.898 30.4453 138.453 29.5312C137.984 28.6172 137.398 27.7734 136.672 27C135.922 26.25 135.031 25.6406 133.953 25.1719C132.875 24.7266 131.609 24.4922 130.156 24.4922C127.062 24.4922 124.484 25.8984 122.469 28.7109C120.617 31.2656 119.703 34.1484 119.703 37.3828C119.703 40.6406 120.594 43.6406 122.422 46.3828C124.461 49.4766 127.039 51 130.156 51C133.32 51 135.852 49.6172 137.773 46.8516C139.602 49.6172 142.039 51 145.039 51ZM130.273 28.5703C131.164 28.5703 131.984 28.8281 132.734 29.2969C133.484 29.7656 134.141 30.4219 134.703 31.2188C135.266 32.0391 135.688 32.9766 135.992 34.0312C136.297 35.1094 136.461 36.2109 136.461 37.3828C136.461 38.5547 136.297 39.6797 135.992 40.7344C135.688 41.8125 135.266 42.75 134.703 43.5469C134.141 44.3438 133.484 45 132.734 45.4688C131.984 45.9609 131.164 46.1953 130.273 46.1953C129.336 46.1953 128.492 45.9609 127.695 45.4688C126.898 45 126.219 44.3438 125.656 43.5234C125.094 42.7266 124.648 41.7891 124.32 40.7109C123.992 39.6562 123.828 38.5547 123.828 37.3828C123.828 36.2344 123.992 35.1328 124.32 34.0547C124.648 33 125.094 32.0625 125.656 31.2422C126.219 30.4453 126.898 29.7891 127.695 29.2969C128.492 28.8281 129.336 28.5703 130.273 28.5703ZM202.578 50.2734C203.164 50.2734 204.008 50.25 205.109 50.1562L204.688 46.0781C204.219 46.125 203.797 46.1484 203.375 46.1484C202.016 46.1484 200.75 45.9375 199.578 45.4922C198.406 45.0703 197.398 44.4609 196.555 43.6641C195.711 42.8906 195.031 41.9531 194.562 40.875C194.07 39.7969 193.836 38.625 193.836 37.3125C193.836 36.8906 193.859 36.1875 193.93 35.25C194.961 36.2812 196.273 36.7969 197.82 36.7969C198.711 36.7969 199.555 36.6562 200.305 36.3281C201.055 36 201.688 35.5547 202.227 34.9922C202.742 34.4297 203.164 33.7734 203.469 33.0234C203.75 32.2734 203.914 31.4297 203.914 30.5391C203.914 29.6953 203.75 28.8984 203.445 28.1484C203.117 27.3984 202.695 26.7422 202.133 26.1562C201.57 25.5938 200.938 25.125 200.188 24.7969C199.438 24.4688 198.664 24.2812 197.82 24.2812C196.602 24.2812 195.523 24.6094 194.562 25.2188C193.578 25.8516 192.758 26.7188 192.078 27.7969C191.375 28.875 190.859 30.1641 190.484 31.6172C190.109 33.0703 189.922 34.6406 189.922 36.2812C189.922 38.25 190.227 40.0781 190.859 41.7656C191.492 43.4766 192.383 44.9531 193.508 46.2188C194.633 47.4844 195.969 48.4688 197.516 49.1953C199.062 49.9219 200.75 50.2734 202.578 50.2734ZM197.82 28.3125C198.43 28.3125 198.922 28.5469 199.344 28.9688C199.766 29.4141 199.977 29.9297 199.977 30.5391C199.977 31.1484 199.766 31.6875 199.344 32.1094C198.922 32.5547 198.43 32.7656 197.82 32.7656C197.211 32.7656 196.695 32.5547 196.273 32.1094C195.852 31.6875 195.664 31.1484 195.664 30.5391C195.664 29.9297 195.852 29.4141 196.273 28.9688C196.695 28.5469 197.211 28.3125 197.82 28.3125ZM229.695 28.7344C230.445 28.6172 231.125 28.3594 231.781 27.9375C232.414 27.5156 232.977 27 233.445 26.3906C233.914 25.7812 234.266 25.1016 234.547 24.3281C234.805 23.5781 234.945 22.7578 234.945 21.9141C234.945 21.0234 234.781 20.1797 234.477 19.3828C234.148 18.5859 233.727 17.8828 233.164 17.2734C232.602 16.6641 231.969 16.1484 231.219 15.75C230.469 15.3516 229.648 15.1172 228.758 15.0234L228.43 19.125C228.805 19.1484 229.133 19.2422 229.438 19.3828C229.742 19.5469 230 19.7578 230.234 19.9922C230.445 20.25 230.609 20.5312 230.727 20.8594C230.844 21.1875 230.914 21.5391 230.914 21.9141C230.914 22.2891 230.844 22.6641 230.727 22.9922C230.609 23.3438 230.445 23.6484 230.258 23.9062C230.047 24.1641 229.812 24.375 229.531 24.5156C229.25 24.6797 228.969 24.75 228.688 24.75H208.766V28.8281H212.938C211.531 30.3984 210.5 32.1328 209.797 34.0312C209.094 35.9297 208.766 38.0859 208.766 40.4766V51H212.797C212.797 50.8594 212.773 50.5312 212.773 50.0156C212.773 49.5 212.75 48.9375 212.75 48.3047C212.727 47.6953 212.703 47.0625 212.703 46.4531C212.703 45.8438 212.703 45.375 212.703 45C212.703 42.1875 212.867 39.75 213.219 37.7344C213.57 35.7188 214.109 34.0547 214.812 32.7656C215.516 31.4766 216.43 30.5156 217.508 29.9062C218.586 29.2969 219.875 28.9922 221.352 28.9922C224.211 28.9922 226.367 30.2578 227.82 32.7422C229.25 35.2266 229.977 39.0469 229.977 44.1562L229.883 51H233.938V40.4766C233.938 38.0391 233.586 35.8594 232.883 33.9609C232.18 32.0859 231.102 30.3281 229.695 28.7344Z" fill="white"/>
</svg>
