<svg width="314" height="102" viewBox="0 0 314 102" fill="none" xmlns="http://www.w3.org/2000/svg">
<path d="M24.4231 25.4739H13.5397V41.0714H24.4231V25.4739Z" fill="white"/>
<path d="M19 76.5695C29.4934 76.5695 38 68.0876 38 57.6245C38 47.1614 29.4934 38.6796 19 38.6796C8.50659 38.6796 0 47.1614 0 57.6245C0 68.0876 8.50659 76.5695 19 76.5695Z" fill="white"/>
<path d="M33.0793 58.0974C33.0793 65.8855 26.7758 72.1991 19.0002 72.1991C11.2244 72.1991 4.92102 65.8855 4.92102 58.0974C4.92102 50.3093 33.0793 50.3093 33.0793 58.0974Z" fill="#2D2D2D"/>
<path d="M24.9812 26.614H12.5763C11.9879 26.614 11.5109 26.1383 11.5109 25.5516V25.4688C11.5109 24.8821 11.9879 24.4064 12.5763 24.4064H24.9817C25.5702 24.4064 26.0471 24.8821 26.0471 25.4688V25.5516C26.0468 26.1383 25.5697 26.614 24.9812 26.614Z" fill="white"/>
<path d="M23.5192 17.4541C26.1374 17.4541 28.2601 15.3377 28.2601 12.727C28.2601 10.1164 26.1374 8 23.5192 8C20.901 8 18.7785 10.1164 18.7785 12.727C18.7785 15.3377 20.901 17.4541 23.5192 17.4541Z" fill="white"/>
<path d="M14.0751 22.0521C15.756 22.0521 17.1188 20.6933 17.1188 19.0172C17.1188 17.3411 15.756 15.9823 14.0751 15.9823C12.3941 15.9823 11.0314 17.3411 11.0314 19.0172C11.0314 20.6933 12.3941 22.0521 14.0751 22.0521Z" fill="white"/>
<path d="M83.6 84.4C83.3167 84.4 83.0167 84.3583 82.7 84.275C82.3833 84.175 82.075 84.05 81.775 83.9C81.9083 84.4833 82.1667 85.025 82.55 85.525C82.9333 86.025 83.4167 86.4583 84 86.825C84.5833 87.1917 85.25 87.4833 86 87.7C86.7667 87.9167 87.5917 88.025 88.475 88.025C89.625 88.025 90.625 87.8667 91.475 87.55C92.3417 87.2167 93.0583 86.775 93.625 86.225C94.1917 85.6583 94.6167 84.9917 94.9 84.225C95.1833 83.4583 95.325 82.625 95.325 81.725C95.325 80.1083 94.8333 79.3 93.85 79.3C93.5333 79.3 93.275 79.4083 93.075 79.625C92.875 79.825 92.775 80.1 92.775 80.45C92.775 80.85 92.8917 81.1667 93.125 81.4C93.375 81.6167 93.6667 81.725 94 81.725H94.3C94.3333 81.8583 94.3667 82.0333 94.4 82.25C94.4333 82.4667 94.45 82.6583 94.45 82.825C94.45 83.4083 94.3 83.8917 94 84.275C93.7 84.6417 93.2 84.825 92.5 84.825H88C87.9 84.6417 87.8083 84.4333 87.725 84.2C87.6417 83.95 87.6 83.6583 87.6 83.325C87.6 82.7417 87.725 82.325 87.975 82.075C88.2417 81.8083 88.5917 81.675 89.025 81.675H89.8C89.6167 81.475 89.475 81.2083 89.375 80.875C89.2917 80.5417 89.25 80.2167 89.25 79.9C89.25 79.3667 89.3583 78.875 89.575 78.425C89.7917 77.9583 90.1 77.5583 90.5 77.225C90.9 76.875 91.3833 76.6083 91.95 76.425C92.5167 76.225 93.15 76.125 93.85 76.125C94.7667 76.125 95.5667 76.2833 96.25 76.6C96.95 76.9 97.525 77.3167 97.975 77.85C98.4417 78.3667 98.7833 78.975 99 79.675C99.2333 80.375 99.35 81.1167 99.35 81.9C99.35 83.1333 99.1333 84.325 98.7 85.475C98.2667 86.625 97.6 87.65 96.7 88.55C95.8167 89.4333 94.7 90.15 93.35 90.7C92 91.2333 90.4 91.5 88.55 91.5C86.9667 91.5 85.5083 91.275 84.175 90.825C82.8583 90.375 81.7167 89.7417 80.75 88.925C79.8 88.1083 79.0583 87.1333 78.525 86C77.9917 84.8667 77.725 83.6167 77.725 82.25C77.725 80.2 78.1833 78.6667 79.1 77.65C80.0167 76.6333 81.2583 76.125 82.825 76.125C83.6083 76.125 84.3 76.25 84.9 76.5C85.5 76.7333 86 77.05 86.4 77.45C86.8 77.85 87.1 78.3167 87.3 78.85C87.5 79.3667 87.6 79.9 87.6 80.45C87.6 81.0167 87.5 81.5417 87.3 82.025C87.1167 82.5083 86.85 82.925 86.5 83.275C86.15 83.625 85.725 83.9 85.225 84.1C84.7417 84.3 84.2 84.4 83.6 84.4ZM82.75 81.7C83.1167 81.7 83.4083 81.5917 83.625 81.375C83.8417 81.1417 83.95 80.8417 83.95 80.475C83.95 80.1083 83.8417 79.8083 83.625 79.575C83.4083 79.3417 83.1167 79.225 82.75 79.225C82.3833 79.225 82.0917 79.3417 81.875 79.575C81.6583 79.8083 81.55 80.1083 81.55 80.475C81.55 80.8417 81.6583 81.1417 81.875 81.375C82.0917 81.5917 82.3833 81.7 82.75 81.7ZM114.627 91.5C113.843 91.5 113.093 91.3667 112.377 91.1C111.677 90.8333 111.077 90.3833 110.577 89.75C110.093 90.35 109.485 90.7917 108.752 91.075C108.018 91.3583 107.218 91.5 106.352 91.5C104.585 91.5 103.185 91.05 102.152 90.15C101.118 89.25 100.602 88.0083 100.602 86.425C100.602 85.7083 100.718 85.0667 100.952 84.5C101.185 83.9167 101.502 83.425 101.902 83.025C102.318 82.625 102.793 82.3167 103.327 82.1C103.877 81.8833 104.468 81.775 105.102 81.775C105.968 81.775 106.643 81.9667 107.127 82.35C107.627 82.7167 107.877 83.2167 107.877 83.85C107.877 84.2 107.818 84.5167 107.702 84.8C107.585 85.0667 107.435 85.3083 107.252 85.525C106.935 85.3417 106.585 85.25 106.202 85.25C105.802 85.25 105.477 85.3667 105.227 85.6C104.977 85.8333 104.852 86.1583 104.852 86.575C104.852 87.0083 105.01 87.3667 105.327 87.65C105.66 87.9167 106.093 88.05 106.627 88.05C107.243 88.05 107.71 87.9 108.027 87.6C108.36 87.2833 108.527 86.8833 108.527 86.4V85.45C108.76 85.3 109.052 85.1667 109.402 85.05C109.752 84.9333 110.143 84.875 110.577 84.875C111.01 84.875 111.402 84.9333 111.752 85.05C112.102 85.1667 112.393 85.3 112.627 85.45V86.55C112.66 87 112.818 87.3583 113.102 87.625C113.402 87.8917 113.777 88.025 114.227 88.025C114.81 88.025 115.252 87.825 115.552 87.425C115.852 87.025 116.002 86.4667 116.002 85.75C116.002 84.45 115.585 83.3833 114.752 82.55C114.952 81.9833 115.235 81.55 115.602 81.25C115.985 80.9333 116.435 80.775 116.952 80.775C117.485 80.775 117.943 80.9 118.327 81.15C118.727 81.4 119.06 81.7167 119.327 82.1C119.693 82.6333 119.952 83.2417 120.102 83.925C120.268 84.6083 120.352 85.2417 120.352 85.825C120.352 87.575 119.852 88.9583 118.852 89.975C117.852 90.9917 116.443 91.5 114.627 91.5ZM110.602 83.225C109.968 83.225 109.452 83.0167 109.052 82.6C108.652 82.1667 108.452 81.6333 108.452 81C108.452 80.8833 108.468 80.725 108.502 80.525C108.535 80.3083 108.61 80.0833 108.727 79.85H101.152C101.035 79.6667 100.935 79.45 100.852 79.2C100.768 78.95 100.727 78.6583 100.727 78.325C100.727 77.7583 100.852 77.3333 101.102 77.05C101.352 76.7667 101.693 76.625 102.127 76.625H115.552C115.985 76.625 116.293 76.5167 116.477 76.3C116.66 76.0833 116.752 75.8083 116.752 75.475C116.752 75.0917 116.668 74.7167 116.502 74.35C116.702 74.1833 116.96 74.0333 117.277 73.9C117.593 73.7667 117.952 73.7 118.352 73.7C119.018 73.7 119.568 73.925 120.002 74.375C120.452 74.8083 120.677 75.4583 120.677 76.325C120.677 76.875 120.568 77.375 120.352 77.825C120.152 78.2583 119.868 78.625 119.502 78.925C119.135 79.225 118.702 79.4583 118.202 79.625C117.702 79.775 117.16 79.85 116.577 79.85H112.502C112.635 80.0667 112.718 80.2833 112.752 80.5C112.785 80.7 112.802 80.8667 112.802 81C112.802 81.6333 112.602 82.1667 112.202 82.6C111.818 83.0167 111.285 83.225 110.602 83.225ZM138.212 83.175C138.212 84.375 138.054 85.4917 137.737 86.525C137.42 87.5417 136.937 88.4167 136.287 89.15C135.637 89.8833 134.812 90.4583 133.812 90.875C132.812 91.2917 131.629 91.5 130.262 91.5C129.012 91.5 127.895 91.3167 126.912 90.95C125.945 90.5833 125.12 90.075 124.437 89.425C123.754 88.7583 123.229 87.975 122.862 87.075C122.512 86.175 122.337 85.2 122.337 84.15C122.337 83.15 122.487 82.2167 122.787 81.35C123.104 80.4833 123.545 79.7 124.112 79C123.912 78.9 123.704 78.7583 123.487 78.575C123.27 78.375 123.079 78.15 122.912 77.9C122.745 77.6333 122.604 77.325 122.487 76.975C122.387 76.625 122.337 76.2333 122.337 75.8C122.337 75.0833 122.479 74.4333 122.762 73.85C123.045 73.25 123.437 72.7417 123.937 72.325C124.454 71.9083 125.079 71.5833 125.812 71.35C126.545 71.1167 127.362 71 128.262 71C129.762 71 131.12 71.3083 132.337 71.925C133.57 72.525 134.62 73.375 135.487 74.475C136.354 75.5583 137.02 76.8417 137.487 78.325C137.97 79.8083 138.212 81.425 138.212 83.175ZM128.637 74.35C127.937 74.35 127.412 74.4917 127.062 74.775C126.712 75.0583 126.537 75.4167 126.537 75.85C126.537 76.05 126.579 76.25 126.662 76.45C126.745 76.6333 126.87 76.7833 127.037 76.9C127.454 76.75 127.887 76.6333 128.337 76.55C128.787 76.4667 129.262 76.425 129.762 76.425C130.462 76.425 131.12 76.5167 131.737 76.7C132.37 76.8667 132.954 77.15 133.487 77.55C132.937 76.5667 132.245 75.7917 131.412 75.225C130.595 74.6417 129.67 74.35 128.637 74.35ZM133.862 83.95C133.862 83.3167 133.77 82.7417 133.587 82.225C133.42 81.7083 133.17 81.2667 132.837 80.9C132.52 80.5333 132.137 80.25 131.687 80.05C131.254 79.85 130.779 79.75 130.262 79.75C129.729 79.75 129.245 79.85 128.812 80.05C128.379 80.25 127.995 80.5333 127.662 80.9C127.345 81.2667 127.095 81.7083 126.912 82.225C126.745 82.7417 126.662 83.3167 126.662 83.95C126.662 84.5667 126.754 85.125 126.937 85.625C127.12 86.125 127.37 86.5583 127.687 86.925C128.004 87.275 128.379 87.55 128.812 87.75C129.262 87.9333 129.745 88.025 130.262 88.025C130.779 88.025 131.254 87.9333 131.687 87.75C132.137 87.55 132.52 87.275 132.837 86.925C133.154 86.5583 133.404 86.125 133.587 85.625C133.77 85.125 133.862 84.5667 133.862 83.95ZM153.934 91.5C152.934 91.5 152.084 91.3417 151.384 91.025C150.701 90.7083 150.168 90.2917 149.784 89.775C149.351 90.3083 148.776 90.725 148.059 91.025C147.343 91.3417 146.509 91.5 145.559 91.5C144.709 91.5 143.934 91.3833 143.234 91.15C142.551 90.9333 141.959 90.6167 141.459 90.2C140.959 89.7833 140.576 89.2917 140.309 88.725C140.043 88.1583 139.909 87.5333 139.909 86.85C139.909 85.0667 140.843 83.6917 142.709 82.725L144.534 81.775C145.001 81.5417 145.334 81.2917 145.534 81.025C145.734 80.7583 145.834 80.4667 145.834 80.15C145.834 79.8667 145.751 79.6417 145.584 79.475C145.418 79.2917 145.184 79.2 144.884 79.2C144.534 79.2 144.284 79.3083 144.134 79.525C144.001 79.725 143.934 79.9667 143.934 80.25C143.934 80.4333 143.951 80.5917 143.984 80.725C144.018 80.8417 144.059 80.9667 144.109 81.1C143.959 81.25 143.684 81.4083 143.284 81.575C142.884 81.7417 142.493 81.825 142.109 81.825C141.443 81.825 140.909 81.6417 140.509 81.275C140.109 80.8917 139.909 80.3583 139.909 79.675C139.909 79.075 140.043 78.5583 140.309 78.125C140.593 77.675 140.959 77.3 141.409 77C141.876 76.7 142.401 76.4833 142.984 76.35C143.568 76.2 144.159 76.125 144.759 76.125C145.426 76.125 146.068 76.2083 146.684 76.375C147.301 76.5417 147.843 76.7917 148.309 77.125C148.776 77.4583 149.143 77.8833 149.409 78.4C149.693 78.9167 149.834 79.525 149.834 80.225C149.834 81.1417 149.601 81.9417 149.134 82.625C148.684 83.2917 148.059 83.8417 147.259 84.275L145.509 85.225C145.109 85.4417 144.793 85.6667 144.559 85.9C144.343 86.1167 144.234 86.4 144.234 86.75C144.234 87.1333 144.393 87.45 144.709 87.7C145.026 87.9333 145.434 88.05 145.934 88.05C146.501 88.05 146.943 87.9 147.259 87.6C147.576 87.2833 147.734 86.8667 147.734 86.35V85.55C147.968 85.4 148.259 85.2667 148.609 85.15C148.959 85.0333 149.351 84.975 149.784 84.975C150.218 84.975 150.609 85.0333 150.959 85.15C151.309 85.2667 151.601 85.4 151.834 85.55V86.475C151.868 86.9583 152.034 87.3417 152.334 87.625C152.651 87.8917 153.059 88.025 153.559 88.025C154.109 88.025 154.526 87.875 154.809 87.575C155.093 87.2583 155.234 86.8333 155.234 86.3C155.234 85.9333 155.159 85.575 155.009 85.225C154.876 84.875 154.676 84.575 154.409 84.325H151.734C151.618 84.1417 151.518 83.9167 151.434 83.65C151.351 83.3833 151.309 83.0833 151.309 82.75C151.309 82.2 151.434 81.8 151.684 81.55C151.934 81.3 152.268 81.175 152.684 81.175H154.259C154.693 81.1083 155.026 80.925 155.259 80.625C155.493 80.325 155.651 79.925 155.734 79.425C155.251 79.6917 154.643 79.825 153.909 79.825C153.409 79.825 152.934 79.75 152.484 79.6C152.034 79.45 151.634 79.225 151.284 78.925C150.951 78.625 150.684 78.25 150.484 77.8C150.284 77.35 150.184 76.8333 150.184 76.25C150.184 75.7333 150.284 75.25 150.484 74.8C150.701 74.3333 150.993 73.9333 151.359 73.6C151.743 73.2667 152.201 73.0083 152.734 72.825C153.284 72.625 153.884 72.525 154.534 72.525C156.101 72.525 157.284 73.0083 158.084 73.975C158.901 74.925 159.309 76.175 159.309 77.725C159.309 79.0417 158.959 80.1917 158.259 81.175H160.634C160.751 81.3583 160.851 81.5833 160.934 81.85C161.018 82.1167 161.059 82.4167 161.059 82.75C161.059 83.3 160.934 83.7 160.684 83.95C160.434 84.2 160.101 84.325 159.684 84.325H158.659C158.876 84.5917 159.084 84.9333 159.284 85.35C159.484 85.7667 159.584 86.2083 159.584 86.675C159.584 88.225 159.093 89.4167 158.109 90.25C157.143 91.0833 155.751 91.5 153.934 91.5ZM154.634 77.425C154.951 77.425 155.209 77.325 155.409 77.125C155.626 76.9083 155.734 76.6333 155.734 76.3C155.734 75.9667 155.626 75.7 155.409 75.5C155.209 75.2833 154.951 75.175 154.634 75.175C154.318 75.175 154.051 75.2833 153.834 75.5C153.634 75.7 153.534 75.9667 153.534 76.3C153.534 76.6333 153.634 76.9083 153.834 77.125C154.051 77.325 154.318 77.425 154.634 77.425ZM170.323 85.35C169.44 85.35 168.79 85.175 168.373 84.825C167.957 84.475 167.748 83.975 167.748 83.325C167.748 82.7083 167.915 82.1917 168.248 81.775H169.748C170.798 81.775 171.323 81.4167 171.323 80.7C171.323 80.4167 171.19 80.15 170.923 79.9H162.723C162.44 79.4 162.298 78.8833 162.298 78.35C162.298 77.7667 162.423 77.3333 162.673 77.05C162.94 76.7667 163.29 76.625 163.723 76.625H172.523C172.957 76.625 173.265 76.5167 173.448 76.3C173.632 76.0667 173.723 75.7833 173.723 75.45C173.723 75.0833 173.64 74.7167 173.473 74.35C173.723 74.15 174.007 73.9917 174.323 73.875C174.657 73.7583 174.99 73.7 175.323 73.7C175.99 73.7 176.54 73.925 176.973 74.375C177.423 74.8083 177.648 75.4667 177.648 76.35C177.648 77.2667 177.39 78.0167 176.873 78.6C176.357 79.1667 175.682 79.5583 174.848 79.775C175.082 80.0083 175.232 80.2333 175.298 80.45C175.382 80.65 175.423 80.875 175.423 81.125C175.423 81.375 175.39 81.6167 175.323 81.85C175.257 82.0667 175.132 82.3 174.948 82.55C175.782 82.8833 176.423 83.3917 176.873 84.075C177.323 84.7417 177.548 85.5083 177.548 86.375C177.548 87.1417 177.373 87.8417 177.023 88.475C176.673 89.1083 176.182 89.65 175.548 90.1C174.915 90.55 174.157 90.8917 173.273 91.125C172.39 91.375 171.415 91.5 170.348 91.5C169.415 91.5 168.54 91.4083 167.723 91.225C166.923 91.0417 166.198 90.7917 165.548 90.475C164.898 90.1417 164.323 89.75 163.823 89.3C163.34 88.8333 162.965 88.3333 162.698 87.8C162.365 87.1667 162.198 86.4833 162.198 85.75C162.198 84.95 162.39 84.375 162.773 84.025C163.173 83.6583 163.69 83.475 164.323 83.475C164.64 83.475 164.923 83.5167 165.173 83.6C165.423 83.6667 165.64 83.7667 165.823 83.9C165.823 84.6 165.94 85.2083 166.173 85.725C166.407 86.2417 166.723 86.675 167.123 87.025C167.523 87.3583 167.982 87.6083 168.498 87.775C169.032 87.925 169.59 88 170.173 88C171.123 88 171.873 87.8167 172.423 87.45C172.973 87.0667 173.248 86.5833 173.248 86C173.248 85.5167 173.032 85.1417 172.598 84.875C172.265 85.0417 171.898 85.1667 171.498 85.25C171.098 85.3167 170.707 85.35 170.323 85.35ZM193.19 91.5C192.474 91.5 191.74 91.3583 190.99 91.075C190.24 90.7917 189.64 90.3583 189.19 89.775C188.79 90.2583 188.24 90.6667 187.54 91C186.857 91.3333 186.09 91.5 185.24 91.5C184.29 91.5 183.449 91.3583 182.715 91.075C181.999 90.7917 181.399 90.3917 180.915 89.875C180.432 89.3583 180.065 88.7417 179.815 88.025C179.582 87.3083 179.465 86.525 179.465 85.675C179.465 84.4917 179.682 83.4 180.115 82.4C180.565 81.4 181.215 80.55 182.065 79.85H179.715C179.432 79.3667 179.29 78.8583 179.29 78.325C179.29 77.7583 179.415 77.3333 179.665 77.05C179.915 76.7667 180.257 76.625 180.69 76.625H194.165C194.599 76.625 194.907 76.5167 195.09 76.3C195.274 76.0667 195.365 75.7833 195.365 75.45C195.365 75.0833 195.282 74.7167 195.115 74.35C195.365 74.15 195.649 73.9917 195.965 73.875C196.299 73.7583 196.632 73.7 196.965 73.7C197.632 73.7 198.182 73.925 198.615 74.375C199.065 74.8083 199.29 75.4583 199.29 76.325C199.29 78.1417 198.299 79.2917 196.315 79.775C197.165 80.525 197.815 81.4 198.265 82.4C198.732 83.4 198.965 84.5 198.965 85.7C198.965 86.55 198.84 87.3333 198.59 88.05C198.357 88.75 197.999 89.3583 197.515 89.875C197.032 90.3917 196.424 90.7917 195.69 91.075C194.974 91.3583 194.14 91.5 193.19 91.5ZM185.515 88.025C185.999 88.025 186.39 87.875 186.69 87.575C187.007 87.275 187.165 86.8833 187.165 86.4V85.25C187.449 85.0667 187.765 84.925 188.115 84.825C188.465 84.725 188.832 84.675 189.215 84.675C189.599 84.675 189.965 84.725 190.315 84.825C190.665 84.925 190.982 85.0667 191.265 85.25V86.3C191.265 86.8333 191.399 87.2583 191.665 87.575C191.949 87.875 192.332 88.025 192.815 88.025C193.399 88.025 193.849 87.7917 194.165 87.325C194.499 86.8417 194.665 86.1667 194.665 85.3C194.665 84.6 194.557 83.9417 194.34 83.325C194.124 82.6917 193.824 82.1333 193.44 81.65C193.057 81.1667 192.599 80.775 192.065 80.475C191.549 80.1583 190.974 79.95 190.34 79.85H187.84C187.24 79.9833 186.69 80.2167 186.19 80.55C185.69 80.8667 185.257 81.2667 184.89 81.75C184.54 82.2333 184.265 82.775 184.065 83.375C183.865 83.975 183.765 84.6167 183.765 85.3C183.765 86.1667 183.907 86.8417 184.19 87.325C184.49 87.7917 184.932 88.025 185.515 88.025ZM212.75 84.4C212.467 84.4 212.167 84.3583 211.85 84.275C211.534 84.175 211.225 84.05 210.925 83.9C211.059 84.4833 211.317 85.025 211.7 85.525C212.084 86.025 212.567 86.4583 213.15 86.825C213.734 87.1917 214.4 87.4833 215.15 87.7C215.917 87.9167 216.742 88.025 217.625 88.025C218.775 88.025 219.775 87.8667 220.625 87.55C221.492 87.2167 222.209 86.775 222.775 86.225C223.342 85.6583 223.767 84.9917 224.05 84.225C224.334 83.4583 224.475 82.625 224.475 81.725C224.475 80.1083 223.984 79.3 223 79.3C222.684 79.3 222.425 79.4083 222.225 79.625C222.025 79.825 221.925 80.1 221.925 80.45C221.925 80.85 222.042 81.1667 222.275 81.4C222.525 81.6167 222.817 81.725 223.15 81.725H223.45C223.484 81.8583 223.517 82.0333 223.55 82.25C223.584 82.4667 223.6 82.6583 223.6 82.825C223.6 83.4083 223.45 83.8917 223.15 84.275C222.85 84.6417 222.35 84.825 221.65 84.825H217.15C217.05 84.6417 216.959 84.4333 216.875 84.2C216.792 83.95 216.75 83.6583 216.75 83.325C216.75 82.7417 216.875 82.325 217.125 82.075C217.392 81.8083 217.742 81.675 218.175 81.675H218.95C218.767 81.475 218.625 81.2083 218.525 80.875C218.442 80.5417 218.4 80.2167 218.4 79.9C218.4 79.3667 218.509 78.875 218.725 78.425C218.942 77.9583 219.25 77.5583 219.65 77.225C220.05 76.875 220.534 76.6083 221.1 76.425C221.667 76.225 222.3 76.125 223 76.125C223.917 76.125 224.717 76.2833 225.4 76.6C226.1 76.9 226.675 77.3167 227.125 77.85C227.592 78.3667 227.934 78.975 228.15 79.675C228.384 80.375 228.5 81.1167 228.5 81.9C228.5 83.1333 228.284 84.325 227.85 85.475C227.417 86.625 226.75 87.65 225.85 88.55C224.967 89.4333 223.85 90.15 222.5 90.7C221.15 91.2333 219.55 91.5 217.7 91.5C216.117 91.5 214.659 91.275 213.325 90.825C212.009 90.375 210.867 89.7417 209.9 88.925C208.95 88.1083 208.209 87.1333 207.675 86C207.142 84.8667 206.875 83.6167 206.875 82.25C206.875 80.2 207.334 78.6667 208.25 77.65C209.167 76.6333 210.409 76.125 211.975 76.125C212.759 76.125 213.45 76.25 214.05 76.5C214.65 76.7333 215.15 77.05 215.55 77.45C215.95 77.85 216.25 78.3167 216.45 78.85C216.65 79.3667 216.75 79.9 216.75 80.45C216.75 81.0167 216.65 81.5417 216.45 82.025C216.267 82.5083 216 82.925 215.65 83.275C215.3 83.625 214.875 83.9 214.375 84.1C213.892 84.3 213.35 84.4 212.75 84.4ZM211.9 81.7C212.267 81.7 212.559 81.5917 212.775 81.375C212.992 81.1417 213.1 80.8417 213.1 80.475C213.1 80.1083 212.992 79.8083 212.775 79.575C212.559 79.3417 212.267 79.225 211.9 79.225C211.534 79.225 211.242 79.3417 211.025 79.575C210.809 79.8083 210.7 80.1083 210.7 80.475C210.7 80.8417 210.809 81.1417 211.025 81.375C211.242 81.5917 211.534 81.7 211.9 81.7ZM232.902 91.5C232.419 91.5 231.977 91.3917 231.577 91.175C231.194 90.9583 230.86 90.6583 230.577 90.275C230.294 89.8917 230.069 89.4417 229.902 88.925C229.752 88.3917 229.677 87.825 229.677 87.225C229.677 86.4583 229.802 85.7583 230.052 85.125C230.319 84.4917 230.694 83.95 231.177 83.5C231.66 83.05 232.244 82.7083 232.927 82.475C233.627 82.225 234.402 82.1 235.252 82.1C236.602 82.1 237.702 82.4 238.552 83C239.402 83.5833 240.044 84.375 240.477 85.375L241.102 86.775C241.285 87.1917 241.494 87.4917 241.727 87.675C241.96 87.8583 242.235 87.95 242.552 87.95C243.069 87.95 243.46 87.7333 243.727 87.3C243.994 86.85 244.127 86.2583 244.127 85.525C244.127 84.825 244.002 84.1667 243.752 83.55C243.502 82.9167 243.16 82.3583 242.727 81.875C242.294 81.375 241.769 80.95 241.152 80.6C240.535 80.25 239.869 80 239.152 79.85H230.177C230.027 79.6 229.919 79.3667 229.852 79.15C229.785 78.9167 229.752 78.6583 229.752 78.375C229.752 77.7917 229.877 77.3583 230.127 77.075C230.394 76.775 230.752 76.625 231.202 76.625H244.052C244.469 76.5917 244.785 76.4583 245.002 76.225C245.219 75.975 245.327 75.6667 245.327 75.3C245.327 74.6167 245.044 74.275 244.477 74.275C244.26 74.275 244.069 74.35 243.902 74.5C243.752 74.6333 243.677 74.8417 243.677 75.125C243.677 75.225 243.694 75.3417 243.727 75.475C243.594 75.5583 243.394 75.625 243.127 75.675C242.86 75.725 242.61 75.75 242.377 75.75C241.827 75.75 241.385 75.6 241.052 75.3C240.735 75 240.577 74.6083 240.577 74.125C240.577 73.375 240.91 72.7333 241.577 72.2C242.26 71.65 243.252 71.375 244.552 71.375C245.135 71.375 245.685 71.4667 246.202 71.65C246.735 71.8167 247.194 72.0667 247.577 72.4C247.977 72.7333 248.294 73.1583 248.527 73.675C248.76 74.175 248.877 74.75 248.877 75.4C248.877 76.4833 248.56 77.4167 247.927 78.2C247.294 78.9667 246.452 79.4667 245.402 79.7C246.302 80.3333 247.044 81.1917 247.627 82.275C248.21 83.3417 248.502 84.5083 248.502 85.775C248.502 86.625 248.36 87.4083 248.077 88.125C247.794 88.825 247.385 89.425 246.852 89.925C246.335 90.425 245.702 90.8083 244.952 91.075C244.202 91.3583 243.369 91.5 242.452 91.5C241.102 91.5 240.027 91.2083 239.227 90.625C238.427 90.025 237.785 89.1917 237.302 88.125L236.827 87.05C236.644 86.6333 236.435 86.3083 236.202 86.075C235.985 85.8417 235.685 85.725 235.302 85.725C234.935 85.725 234.635 85.85 234.402 86.1C234.169 86.3333 234.052 86.7167 234.052 87.25C234.052 87.75 234.152 88.2083 234.352 88.625C234.552 89.0417 234.81 89.4167 235.127 89.75C234.977 90.3 234.71 90.725 234.327 91.025C233.944 91.3417 233.469 91.5 232.902 91.5ZM256.827 84.5C255.827 84.5 254.927 84.2417 254.127 83.725C254.194 84.375 254.352 84.9833 254.602 85.55C254.869 86.1 255.227 86.5833 255.677 87C256.127 87.4167 256.66 87.75 257.277 88C257.894 88.2333 258.594 88.3583 259.377 88.375C259.46 88.5417 259.519 88.7333 259.552 88.95C259.602 89.1667 259.627 89.3583 259.627 89.525C259.627 90.075 259.452 90.5417 259.102 90.925C258.769 91.3083 258.202 91.5 257.402 91.5C256.469 91.5 255.569 91.2917 254.702 90.875C253.835 90.4583 253.069 89.875 252.402 89.125C251.735 88.375 251.194 87.4917 250.777 86.475C250.377 85.4417 250.177 84.3167 250.177 83.1C250.177 82.05 250.327 81.1 250.627 80.25C250.927 79.3833 251.344 78.65 251.877 78.05C252.41 77.4333 253.052 76.9583 253.802 76.625C254.569 76.2917 255.41 76.125 256.327 76.125C257.127 76.125 257.827 76.25 258.427 76.5C259.027 76.75 259.527 77.075 259.927 77.475C260.327 77.875 260.627 78.3333 260.827 78.85C261.027 79.3667 261.127 79.8917 261.127 80.425C261.127 80.975 261.027 81.5 260.827 82C260.644 82.4833 260.369 82.9167 260.002 83.3C259.635 83.6667 259.185 83.9583 258.652 84.175C258.119 84.3917 257.51 84.5 256.827 84.5ZM256.227 81.675C256.61 81.675 256.91 81.5583 257.127 81.325C257.36 81.0917 257.477 80.8 257.477 80.45C257.477 80.1167 257.36 79.8333 257.127 79.6C256.91 79.3667 256.61 79.25 256.227 79.25C255.844 79.25 255.544 79.3667 255.327 79.6C255.11 79.8333 255.002 80.1167 255.002 80.45C255.002 80.8 255.11 81.0917 255.327 81.325C255.544 81.5583 255.844 81.675 256.227 81.675ZM259.794 101.525C259.327 101.525 258.886 101.442 258.469 101.275C258.036 101.125 257.669 100.858 257.369 100.475C257.086 100.842 256.719 101.108 256.269 101.275C255.819 101.442 255.327 101.525 254.794 101.525C253.711 101.525 252.861 101.25 252.244 100.7C251.611 100.15 251.294 99.4 251.294 98.45C251.294 98.0167 251.369 97.625 251.519 97.275C251.669 96.925 251.877 96.625 252.144 96.375C252.394 96.1417 252.686 95.9583 253.019 95.825C253.352 95.7083 253.711 95.65 254.094 95.65C254.627 95.65 255.044 95.7583 255.344 95.975C255.644 96.1917 255.794 96.4917 255.794 96.875C255.794 97.0917 255.752 97.2917 255.669 97.475C255.569 97.6583 255.452 97.8 255.319 97.9C255.136 97.8 254.927 97.75 254.694 97.75C254.461 97.75 254.269 97.8167 254.119 97.95C253.969 98.1 253.894 98.3 253.894 98.55C253.894 98.8167 253.986 99.025 254.169 99.175C254.352 99.3417 254.611 99.425 254.944 99.425C255.327 99.425 255.619 99.3333 255.819 99.15C256.019 98.9667 256.119 98.725 256.119 98.425V97.775C256.252 97.6917 256.427 97.6083 256.644 97.525C256.844 97.4583 257.086 97.425 257.369 97.425C257.636 97.425 257.877 97.4583 258.094 97.525C258.294 97.6083 258.461 97.6917 258.594 97.775V98.425C258.594 98.725 258.686 98.9667 258.869 99.15C259.036 99.3333 259.261 99.425 259.544 99.425C259.911 99.425 260.194 99.275 260.394 98.975C260.577 98.675 260.669 98.275 260.669 97.775C260.669 97.425 260.611 97.0667 260.494 96.7C260.377 96.35 260.202 96.025 259.969 95.725C259.736 95.425 259.427 95.1667 259.044 94.95C258.661 94.75 258.211 94.6083 257.694 94.525H256.094C256.011 94.3917 255.944 94.2417 255.894 94.075C255.844 93.9083 255.819 93.7333 255.819 93.55C255.819 93.2 255.902 92.9417 256.069 92.775C256.219 92.6083 256.419 92.525 256.669 92.525H260.369C260.636 92.525 260.827 92.45 260.944 92.3C261.044 92.1667 261.094 92.0083 261.094 91.825C261.094 91.6917 261.077 91.5667 261.044 91.45C261.011 91.3333 260.977 91.225 260.944 91.125C261.061 91.025 261.219 90.9417 261.419 90.875C261.602 90.7917 261.811 90.75 262.044 90.75C262.461 90.75 262.802 90.875 263.069 91.125C263.336 91.3917 263.469 91.7917 263.469 92.325C263.469 92.9417 263.277 93.4333 262.894 93.8C262.527 94.1667 262.069 94.3833 261.519 94.45C261.836 94.6333 262.111 94.8583 262.344 95.125C262.577 95.4083 262.761 95.7 262.894 96C263.027 96.3167 263.127 96.6333 263.194 96.95C263.261 97.2667 263.294 97.5583 263.294 97.825C263.294 98.975 262.986 99.875 262.369 100.525C261.752 101.192 260.894 101.525 259.794 101.525ZM276.76 91.5C275.977 91.5 275.227 91.3667 274.51 91.1C273.81 90.8333 273.21 90.3833 272.71 89.75C272.227 90.35 271.619 90.7917 270.885 91.075C270.152 91.3583 269.352 91.5 268.485 91.5C266.719 91.5 265.319 91.05 264.285 90.15C263.252 89.25 262.735 88.0083 262.735 86.425C262.735 85.7083 262.852 85.0667 263.085 84.5C263.319 83.9167 263.635 83.425 264.035 83.025C264.452 82.625 264.927 82.3167 265.46 82.1C266.01 81.8833 266.602 81.775 267.235 81.775C268.102 81.775 268.777 81.9667 269.26 82.35C269.76 82.7167 270.01 83.2167 270.01 83.85C270.01 84.2 269.952 84.5167 269.835 84.8C269.719 85.0667 269.569 85.3083 269.385 85.525C269.069 85.3417 268.719 85.25 268.335 85.25C267.935 85.25 267.61 85.3667 267.36 85.6C267.11 85.8333 266.985 86.1583 266.985 86.575C266.985 87.0083 267.144 87.3667 267.46 87.65C267.794 87.9167 268.227 88.05 268.76 88.05C269.377 88.05 269.844 87.9 270.16 87.6C270.494 87.2833 270.66 86.8833 270.66 86.4V85.45C270.894 85.3 271.185 85.1667 271.535 85.05C271.885 84.9333 272.277 84.875 272.71 84.875C273.144 84.875 273.535 84.9333 273.885 85.05C274.235 85.1667 274.527 85.3 274.76 85.45V86.4C274.76 87.1 274.985 87.6083 275.435 87.925C275.885 88.2417 276.427 88.4 277.06 88.4C277.427 88.4 277.76 88.3333 278.06 88.2L275.46 85.525C275.494 85.3417 275.544 85.1583 275.61 84.975C275.694 84.7917 275.819 84.6333 275.985 84.5C276.319 84.2167 276.702 84.0667 277.135 84.05L279.135 86.425C279.152 86.3417 279.16 86.25 279.16 86.15C279.177 86.0333 279.185 85.925 279.185 85.825C279.185 85.1917 279.044 84.5833 278.76 84C278.477 83.4 278.052 82.8583 277.485 82.375C277.585 81.925 277.802 81.55 278.135 81.25C278.485 80.95 278.919 80.8 279.435 80.8C279.869 80.8 280.26 80.8917 280.61 81.075C280.96 81.2417 281.269 81.4667 281.535 81.75C282.002 82.25 282.335 82.875 282.535 83.625C282.752 84.3583 282.86 85.0917 282.86 85.825C282.86 86.525 282.777 87.1583 282.61 87.725C282.444 88.2917 282.21 88.8 281.91 89.25L283.01 90.4C283.01 90.5833 282.96 90.7667 282.86 90.95C282.777 91.1167 282.669 91.2667 282.535 91.4C282.402 91.5333 282.21 91.6417 281.96 91.725C281.727 91.825 281.502 91.8833 281.285 91.9L280.235 90.725C279.252 91.2417 278.094 91.5 276.76 91.5ZM272.735 83.225C272.102 83.225 271.585 83.0167 271.185 82.6C270.785 82.1667 270.585 81.6333 270.585 81C270.585 80.8833 270.602 80.725 270.635 80.525C270.669 80.3083 270.744 80.0833 270.86 79.85H263.285C263.169 79.6667 263.069 79.45 262.985 79.2C262.902 78.95 262.86 78.6583 262.86 78.325C262.86 77.7583 262.985 77.3333 263.235 77.05C263.485 76.7667 263.827 76.625 264.26 76.625H278.01C278.444 76.625 278.752 76.5167 278.935 76.3C279.119 76.0833 279.21 75.8083 279.21 75.475C279.21 75.0917 279.127 74.7167 278.96 74.35C279.16 74.1833 279.419 74.0333 279.735 73.9C280.052 73.7667 280.41 73.7 280.81 73.7C281.477 73.7 282.027 73.925 282.46 74.375C282.91 74.8083 283.135 75.4583 283.135 76.325C283.135 76.875 283.027 77.375 282.81 77.825C282.61 78.2583 282.327 78.625 281.96 78.925C281.594 79.225 281.16 79.4583 280.66 79.625C280.16 79.775 279.619 79.85 279.035 79.85H274.635C274.769 80.0667 274.852 80.2833 274.885 80.5C274.919 80.7 274.935 80.8667 274.935 81C274.935 81.6333 274.735 82.1667 274.335 82.6C273.952 83.0167 273.419 83.225 272.735 83.225ZM292.513 84.625C292.513 84.2583 292.38 83.95 292.113 83.7C291.847 83.4333 291.388 83.3 290.738 83.3C290.188 83.3 289.788 83.375 289.538 83.525C289.288 83.6583 289.163 83.85 289.163 84.1C289.163 84.4 289.288 84.6083 289.538 84.725C289.805 84.8417 290.113 84.9 290.463 84.9H291.263C291.363 85.0333 291.455 85.2167 291.538 85.45C291.638 85.6833 291.688 85.9167 291.688 86.15C291.688 86.4 291.638 86.6583 291.538 86.925C291.455 87.175 291.363 87.3583 291.263 87.475H290.338C289.855 87.475 289.488 87.5167 289.238 87.6C288.988 87.6833 288.863 87.85 288.863 88.1C288.863 88.55 289.413 88.775 290.513 88.775C290.847 88.775 291.147 88.7417 291.413 88.675C291.697 88.5917 291.955 88.5 292.188 88.4C292.338 88.5 292.488 88.6833 292.638 88.95C292.788 89.2167 292.863 89.5167 292.863 89.85C292.863 90.1 292.805 90.3333 292.688 90.55C292.588 90.7667 292.413 90.95 292.163 91.1C291.913 91.2667 291.58 91.3917 291.163 91.475C290.747 91.575 290.222 91.625 289.588 91.625C288.888 91.625 288.247 91.55 287.663 91.4C287.097 91.25 286.605 91.0417 286.188 90.775C285.772 90.4917 285.447 90.1583 285.213 89.775C284.997 89.375 284.888 88.9333 284.888 88.45C284.888 88.0667 284.947 87.7333 285.063 87.45C285.197 87.1667 285.355 86.925 285.538 86.725C285.722 86.525 285.913 86.375 286.113 86.275C286.33 86.1583 286.53 86.075 286.713 86.025C286.33 85.8417 285.972 85.5667 285.638 85.2C285.322 84.8333 285.163 84.35 285.163 83.75C285.163 82.7167 285.605 81.925 286.488 81.375C287.388 80.825 288.655 80.55 290.288 80.55C290.872 80.55 291.388 80.6 291.838 80.7C292.288 80.7833 292.68 80.9 293.013 81.05C293.347 81.1833 293.622 81.3333 293.838 81.5C294.072 81.6667 294.255 81.825 294.388 81.975C294.638 81.675 295.105 81.3667 295.788 81.05C296.472 80.7167 297.397 80.55 298.563 80.55C300.48 80.55 301.922 81.0417 302.888 82.025C303.872 83.0083 304.363 84.4 304.363 86.2C304.363 87.9667 303.855 89.3167 302.838 90.25C301.838 91.1833 300.43 91.65 298.613 91.65C296.997 91.65 295.763 91.3333 294.913 90.7C294.063 90.0667 293.638 89.2667 293.638 88.3C293.638 87.4 293.972 86.7083 294.638 86.225C295.305 85.725 296.172 85.475 297.238 85.475C297.872 85.475 298.363 85.6 298.713 85.85C299.063 86.0833 299.238 86.4333 299.238 86.9C299.238 87.1 299.205 87.3 299.138 87.5C299.072 87.7 298.988 87.8667 298.888 88C298.705 87.95 298.513 87.925 298.313 87.925C297.713 87.925 297.413 88.0917 297.413 88.425C297.413 88.575 297.505 88.7083 297.688 88.825C297.888 88.925 298.197 88.975 298.613 88.975C299.313 88.975 299.847 88.75 300.213 88.3C300.597 87.8333 300.788 87.125 300.788 86.175C300.788 85.375 300.58 84.7083 300.163 84.175C299.763 83.6417 299.138 83.375 298.288 83.375C297.638 83.375 297.147 83.5 296.813 83.75C296.497 83.9833 296.338 84.275 296.338 84.625V84.9C296.138 85 295.88 85.0917 295.563 85.175C295.247 85.2417 294.872 85.275 294.438 85.275C294.005 85.275 293.63 85.2417 293.313 85.175C292.997 85.0917 292.73 85 292.513 84.9V84.625ZM299.838 76.625C300.288 76.625 300.63 76.5 300.863 76.25C301.113 76 301.238 75.6833 301.238 75.3C301.238 74.6167 300.955 74.275 300.388 74.275C300.172 74.275 299.98 74.35 299.813 74.5C299.663 74.6333 299.588 74.8417 299.588 75.125C299.588 75.225 299.605 75.3417 299.638 75.475C299.505 75.5583 299.305 75.625 299.038 75.675C298.772 75.725 298.522 75.75 298.288 75.75C297.738 75.75 297.297 75.6 296.963 75.3C296.647 75 296.488 74.6083 296.488 74.125C296.488 73.375 296.822 72.7333 297.488 72.2C298.172 71.65 299.163 71.375 300.463 71.375C301.047 71.375 301.597 71.4667 302.113 71.65C302.647 71.8167 303.105 72.0667 303.488 72.4C303.888 72.7333 304.205 73.1583 304.438 73.675C304.672 74.175 304.788 74.75 304.788 75.4C304.788 76.0333 304.672 76.625 304.438 77.175C304.205 77.7083 303.872 78.175 303.438 78.575C303.022 78.975 302.522 79.2917 301.938 79.525C301.372 79.7417 300.738 79.85 300.038 79.85H298.563V79.75H285.013C284.897 79.5667 284.797 79.35 284.713 79.1C284.63 78.8333 284.588 78.5417 284.588 78.225C284.588 77.6583 284.713 77.25 284.963 77C285.213 76.75 285.555 76.625 285.988 76.625H299.838Z" fill="#ABABAB"/>
<path d="M105.368 51.96C103.864 51.96 102.424 51.704 101.048 51.192C99.704 50.68 98.552 49.816 97.592 48.6C96.664 49.752 95.496 50.6 94.088 51.144C92.68 51.688 91.144 51.96 89.48 51.96C86.088 51.96 83.4 51.096 81.416 49.368C79.432 47.64 78.44 45.256 78.44 42.216C78.44 40.84 78.664 39.608 79.112 38.52C79.56 37.4 80.168 36.456 80.936 35.688C81.736 34.92 82.648 34.328 83.672 33.912C84.728 33.496 85.864 33.288 87.08 33.288C88.744 33.288 90.04 33.656 90.968 34.392C91.928 35.096 92.408 36.056 92.408 37.272C92.408 37.944 92.296 38.552 92.072 39.096C91.848 39.608 91.56 40.072 91.208 40.488C90.6 40.136 89.928 39.96 89.192 39.96C88.424 39.96 87.8 40.184 87.32 40.632C86.84 41.08 86.6 41.704 86.6 42.504C86.6 43.336 86.904 44.024 87.512 44.568C88.152 45.08 88.984 45.336 90.008 45.336C91.192 45.336 92.088 45.048 92.696 44.472C93.336 43.864 93.656 43.096 93.656 42.168V40.344C94.104 40.056 94.664 39.8 95.336 39.576C96.008 39.352 96.76 39.24 97.592 39.24C98.424 39.24 99.176 39.352 99.848 39.576C100.52 39.8 101.08 40.056 101.528 40.344V42.456C101.592 43.32 101.896 44.008 102.44 44.52C103.016 45.032 103.736 45.288 104.6 45.288C105.72 45.288 106.568 44.904 107.144 44.136C107.72 43.368 108.008 42.296 108.008 40.92C108.008 38.424 107.208 36.376 105.608 34.776C105.992 33.688 106.536 32.856 107.24 32.28C107.976 31.672 108.84 31.368 109.832 31.368C110.856 31.368 111.736 31.608 112.472 32.088C113.24 32.568 113.88 33.176 114.392 33.912C115.096 34.936 115.592 36.104 115.88 37.416C116.2 38.728 116.36 39.944 116.36 41.064C116.36 44.424 115.4 47.08 113.48 49.032C111.56 50.984 108.856 51.96 105.368 51.96ZM97.64 36.072C96.424 36.072 95.432 35.672 94.664 34.872C93.896 34.04 93.512 33.016 93.512 31.8C93.512 31.576 93.544 31.272 93.608 30.888C93.672 30.472 93.816 30.04 94.04 29.592H79.496C79.272 29.24 79.08 28.824 78.92 28.344C78.76 27.864 78.68 27.304 78.68 26.664C78.68 25.576 78.92 24.76 79.4 24.216C79.88 23.672 80.536 23.4 81.368 23.4H107.144C107.976 23.4 108.568 23.192 108.92 22.776C109.272 22.36 109.448 21.832 109.448 21.192C109.448 20.456 109.288 19.736 108.968 19.032C109.352 18.712 109.848 18.424 110.456 18.168C111.064 17.912 111.752 17.784 112.52 17.784C113.8 17.784 114.856 18.216 115.688 19.08C116.552 19.912 116.984 21.16 116.984 22.824C116.984 23.88 116.776 24.84 116.36 25.704C115.976 26.536 115.432 27.24 114.728 27.816C114.024 28.392 113.192 28.84 112.232 29.16C111.272 29.448 110.232 29.592 109.112 29.592H101.288C101.544 30.008 101.704 30.424 101.768 30.84C101.832 31.224 101.864 31.544 101.864 31.8C101.864 33.016 101.48 34.04 100.712 34.872C99.976 35.672 98.952 36.072 97.64 36.072ZM119.884 42.168C120.14 41.976 120.572 41.816 121.18 41.688C121.788 41.528 122.332 41.448 122.812 41.448C124.028 41.448 124.972 41.88 125.644 42.744C126.316 43.576 126.652 45.128 126.652 47.4C126.652 50.376 126.028 52.984 124.78 55.224C123.532 57.464 121.82 59.336 119.644 60.84C117.5 62.376 115.004 63.528 112.156 64.296C109.276 65.064 106.236 65.448 103.036 65.448C101.5 65.448 100.076 65.368 98.7642 65.208C97.4202 65.048 96.2682 64.776 95.3082 64.392C94.3162 64.04 93.5482 63.576 93.0042 63C92.4282 62.456 92.1402 61.768 92.1402 60.936C92.1402 60.008 92.3482 59.272 92.7642 58.728C93.1802 58.184 93.5962 57.784 94.0122 57.528C94.8122 57.976 95.9162 58.376 97.3242 58.728C98.7322 59.112 100.492 59.304 102.604 59.304C105.132 59.304 107.468 59.032 109.612 58.488C111.756 57.976 113.612 57.16 115.18 56.04C116.748 54.92 117.964 53.48 118.828 51.72C119.724 49.992 120.172 47.928 120.172 45.528C120.172 44.504 120.076 43.384 119.884 42.168ZM182.246 51.96C180.326 51.96 178.678 51.672 177.302 51.096C175.958 50.552 174.822 49.816 173.894 48.888C172.838 49.848 171.558 50.6 170.054 51.144C168.55 51.688 166.758 51.96 164.678 51.96C162.47 51.96 160.502 51.64 158.774 51C157.078 50.328 155.59 49.416 154.31 48.264C153.03 49.448 151.526 50.36 149.798 51C148.07 51.64 146.134 51.96 143.99 51.96C141.718 51.96 139.67 51.592 137.846 50.856C136.022 50.12 134.47 49.112 133.19 47.832C131.91 46.52 130.918 44.968 130.214 43.176C129.542 41.352 129.206 39.368 129.206 37.224C129.206 35.08 129.542 33.112 130.214 31.32C130.918 29.496 131.91 27.928 133.19 26.616C134.47 25.304 136.022 24.28 137.846 23.544C139.67 22.808 141.718 22.44 143.99 22.44C146.262 22.44 148.31 22.808 150.134 23.544C151.958 24.28 153.51 25.304 154.79 26.616C156.07 27.928 157.046 29.496 157.718 31.32C158.422 33.112 158.774 35.08 158.774 37.224C158.774 39.016 158.502 40.76 157.958 42.456C158.502 43.224 159.238 43.896 160.166 44.472C161.094 45.016 162.23 45.288 163.574 45.288C164.566 45.288 165.43 45.112 166.166 44.76C166.934 44.408 167.558 43.944 168.038 43.368C168.518 42.76 168.87 42.056 169.094 41.256C169.35 40.456 169.478 39.592 169.478 38.664C169.478 37.512 169.334 36.456 169.046 35.496C168.758 34.536 168.374 33.672 167.894 32.904C167.446 32.104 166.918 31.432 166.31 30.888C165.702 30.312 165.078 29.848 164.438 29.496H160.406C160.15 29.144 159.942 28.728 159.782 28.248C159.622 27.736 159.542 27.176 159.542 26.568C159.542 25.448 159.782 24.648 160.262 24.168C160.774 23.656 161.43 23.4 162.23 23.4H169.19C170.054 23.4 170.71 23.16 171.158 22.68C171.638 22.2 171.878 21.592 171.878 20.856C171.878 19.544 171.334 18.888 170.246 18.888C169.83 18.888 169.462 19.032 169.142 19.32C168.854 19.576 168.71 19.976 168.71 20.52C168.71 20.712 168.742 20.936 168.806 21.192C168.55 21.352 168.166 21.48 167.654 21.576C167.142 21.672 166.662 21.72 166.214 21.72C165.158 21.72 164.31 21.432 163.67 20.856C163.062 20.28 162.758 19.528 162.758 18.6C162.758 17.16 163.398 15.928 164.678 14.904C165.99 13.848 167.894 13.32 170.39 13.32C171.51 13.32 172.566 13.496 173.558 13.848C174.582 14.168 175.462 14.648 176.198 15.288C176.966 15.928 177.574 16.744 178.022 17.736C178.47 18.696 178.694 19.8 178.694 21.048C178.694 22.904 178.198 24.52 177.206 25.896C176.214 27.272 174.886 28.264 173.222 28.872C173.734 29.352 174.262 29.928 174.806 30.6C175.35 31.272 175.83 32.04 176.246 32.904C176.694 33.768 177.046 34.728 177.302 35.784C177.59 36.84 177.734 37.992 177.734 39.24C177.734 40.36 177.606 41.528 177.35 42.744C177.67 43.416 178.134 43.992 178.742 44.472C179.382 44.952 180.214 45.192 181.238 45.192C182.294 45.192 183.126 44.872 183.734 44.232C184.342 43.592 184.646 42.76 184.646 41.736C184.646 41.032 184.63 40.408 184.598 39.864C184.598 39.288 184.598 38.68 184.598 38.04C184.598 35.064 185.078 32.584 186.038 30.6C186.998 28.616 188.246 27.016 189.782 25.8C191.35 24.584 193.094 23.72 195.014 23.208C196.966 22.696 198.934 22.44 200.918 22.44C203.35 22.44 205.574 22.824 207.59 23.592C209.606 24.328 211.318 25.384 212.726 26.76C214.166 28.136 215.27 29.8 216.038 31.752C216.838 33.672 217.238 35.816 217.238 38.184C217.238 40.328 216.966 42.264 216.422 43.992C215.878 45.688 215.078 47.128 214.022 48.312C212.998 49.496 211.734 50.392 210.23 51C208.758 51.64 207.078 51.96 205.19 51.96C203.654 51.96 202.262 51.736 201.014 51.288C199.766 50.872 198.678 50.28 197.75 49.512C196.854 48.712 196.15 47.768 195.638 46.68C195.158 45.56 194.918 44.328 194.918 42.984C194.918 41.736 195.11 40.616 195.494 39.624C195.878 38.632 196.39 37.8 197.03 37.128C197.702 36.424 198.47 35.896 199.334 35.544C200.23 35.16 201.19 34.968 202.214 34.968C203.59 34.968 204.662 35.304 205.43 35.976C206.23 36.648 206.63 37.544 206.63 38.664C206.63 39.56 206.39 40.36 205.91 41.064C205.558 40.968 205.222 40.92 204.902 40.92C204.294 40.92 203.766 41.112 203.318 41.496C202.902 41.88 202.694 42.424 202.694 43.128C202.694 43.8 202.918 44.344 203.366 44.76C203.846 45.176 204.454 45.384 205.19 45.384C206.534 45.384 207.542 44.744 208.214 43.464C208.918 42.184 209.27 40.424 209.27 38.184C209.27 36.84 209.062 35.624 208.646 34.536C208.262 33.416 207.702 32.472 206.966 31.704C206.262 30.904 205.398 30.296 204.374 29.88C203.35 29.432 202.214 29.208 200.966 29.208C199.814 29.208 198.726 29.384 197.702 29.736C196.678 30.088 195.782 30.648 195.014 31.416C194.246 32.152 193.638 33.096 193.19 34.248C192.742 35.4 192.518 36.76 192.518 38.328C192.518 38.872 192.518 39.336 192.518 39.72C192.55 40.104 192.566 40.552 192.566 41.064C192.566 44.52 191.654 47.208 189.83 49.128C188.038 51.016 185.51 51.96 182.246 51.96ZM143.99 45.288C145.014 45.288 145.926 45.096 146.726 44.712C147.526 44.296 148.198 43.736 148.742 43.032C149.318 42.296 149.75 41.448 150.038 40.488C150.326 39.496 150.47 38.408 150.47 37.224C150.47 36.04 150.326 34.952 150.038 33.96C149.75 32.968 149.318 32.12 148.742 31.416C148.198 30.68 147.526 30.12 146.726 29.736C145.926 29.32 145.014 29.112 143.99 29.112C142.966 29.112 142.038 29.32 141.206 29.736C140.406 30.12 139.734 30.68 139.19 31.416C138.646 32.12 138.23 32.968 137.942 33.96C137.654 34.952 137.51 36.04 137.51 37.224C137.51 38.408 137.654 39.496 137.942 40.488C138.23 41.448 138.646 42.296 139.19 43.032C139.734 43.736 140.406 44.296 141.206 44.712C142.038 45.096 142.966 45.288 143.99 45.288ZM233.005 38.52C231.085 38.52 229.357 38.024 227.821 37.032C227.949 38.28 228.253 39.448 228.733 40.536C229.245 41.592 229.933 42.52 230.797 43.32C231.661 44.12 232.685 44.76 233.869 45.24C235.053 45.688 236.397 45.928 237.901 45.96C238.061 46.28 238.173 46.648 238.237 47.064C238.333 47.48 238.381 47.848 238.381 48.168C238.381 49.224 238.045 50.12 237.373 50.856C236.733 51.592 235.645 51.96 234.109 51.96C232.317 51.96 230.589 51.56 228.925 50.76C227.261 49.96 225.789 48.84 224.509 47.4C223.229 45.96 222.189 44.264 221.389 42.312C220.621 40.328 220.237 38.168 220.237 35.832C220.237 33.816 220.525 31.992 221.101 30.36C221.677 28.696 222.477 27.288 223.501 26.136C224.525 24.952 225.757 24.04 227.197 23.4C228.669 22.76 230.285 22.44 232.045 22.44C233.581 22.44 234.925 22.68 236.077 23.16C237.229 23.64 238.189 24.264 238.957 25.032C239.725 25.8 240.301 26.68 240.685 27.672C241.069 28.664 241.261 29.672 241.261 30.696C241.261 31.752 241.069 32.76 240.685 33.72C240.333 34.648 239.805 35.48 239.101 36.216C238.397 36.92 237.533 37.48 236.509 37.896C235.485 38.312 234.317 38.52 233.005 38.52ZM231.853 33.096C232.589 33.096 233.165 32.872 233.581 32.424C234.029 31.976 234.253 31.416 234.253 30.744C234.253 30.104 234.029 29.56 233.581 29.112C233.165 28.664 232.589 28.44 231.853 28.44C231.117 28.44 230.541 28.664 230.125 29.112C229.709 29.56 229.501 30.104 229.501 30.744C229.501 31.416 229.709 31.976 230.125 32.424C230.541 32.872 231.117 33.096 231.853 33.096ZM249.098 51.768C247.818 51.768 246.81 51.512 246.074 51C245.37 50.456 245.018 49.336 245.018 47.64V45.288C245.018 41.416 245.29 38.232 245.834 35.736C246.41 33.208 247.306 31.16 248.522 29.592H244.394C243.85 28.696 243.578 27.672 243.578 26.52C243.578 25.4 243.818 24.6 244.298 24.12C244.81 23.64 245.466 23.4 246.266 23.4H266.042C267.45 23.4 268.154 22.664 268.154 21.192C268.154 20.456 267.994 19.736 267.674 19.032C268.154 18.648 268.698 18.344 269.306 18.12C269.946 17.896 270.586 17.784 271.226 17.784C272.506 17.784 273.562 18.216 274.394 19.08C275.258 19.912 275.69 21.144 275.69 22.776C275.69 24.6 275.146 26.088 274.058 27.24C272.97 28.392 271.562 29.128 269.834 29.448C271.05 30.952 271.962 33 272.57 35.592C273.21 38.184 273.53 41.416 273.53 45.288V51.288C272.794 51.448 272.026 51.56 271.226 51.624C270.458 51.72 269.754 51.768 269.114 51.768C267.834 51.768 266.826 51.512 266.09 51C265.386 50.456 265.034 49.336 265.034 47.64V44.808C265.034 39.688 264.586 35.88 263.69 33.384C262.826 30.888 261.45 29.576 259.562 29.448H259.274C257.322 29.448 255.866 30.712 254.906 33.24C253.978 35.736 253.514 39.592 253.514 44.808V51.288C252.778 51.448 252.01 51.56 251.21 51.624C250.442 51.72 249.738 51.768 249.098 51.768Z" fill="white"/>
</svg>
