<svg width="461" height="244" viewBox="0 0 461 244" fill="none" xmlns="http://www.w3.org/2000/svg">
<path d="M61.5156 77.8359C68.7812 72.6797 72.4141 65.2969 72.4141 55.6875C72.4141 52.875 72.0039 50.2383 71.1836 47.7773C70.3633 45.3164 69.25 43.207 67.8438 41.3906C66.4375 39.5742 64.6797 38.168 62.6875 37.1133C60.6953 36.0586 58.4688 35.5312 56.125 35.5312C54.0156 35.5312 52.082 36 50.207 36.8203C48.332 37.6406 46.75 38.7539 45.3438 40.1602C43.9375 41.5664 42.7656 43.207 41.9453 45.082C41.125 46.957 40.7148 48.9492 40.7148 50.9414C40.7148 53.0508 41.125 54.9844 41.9453 56.8594C42.7656 58.7344 43.8203 60.375 45.2266 61.7812C46.6328 63.1875 48.2148 64.3008 50.0898 65.1211C51.9648 65.9414 53.8984 66.3516 56.0078 66.3516C57.0625 66.3516 58.5273 66.1758 60.4609 65.707C57.9414 70.2188 53.1953 72.4453 46.2227 72.4453V82.2305H47.043C41.5352 86.8008 38.7812 93.3633 38.7812 101.918C38.7812 105.375 39.25 108.539 40.3047 111.469C41.3008 114.398 42.707 116.977 44.582 119.086C46.3984 121.254 48.5664 122.953 51.0859 124.184C53.6055 125.414 56.418 126 59.4648 126C66.0273 126 71.3008 123.656 75.3438 118.91C79.3281 123.656 84.6602 126 91.2227 126C94.2695 126 97.0234 125.414 99.543 124.184C102.062 122.953 104.23 121.254 106.105 119.086C107.922 116.977 109.328 114.398 110.383 111.469C111.379 108.539 111.906 105.375 111.906 101.918C111.906 98.5195 111.379 95.3555 110.383 92.4258C109.328 89.4961 107.922 86.9766 106.105 84.8086C104.289 82.6992 102.121 81 99.6016 79.7695C97.0234 78.5391 94.2695 77.8945 91.2227 77.8945C84.6602 77.8945 79.3281 80.2969 75.3438 84.9844C71.4766 80.4141 66.9062 78.0703 61.5156 77.8359ZM55.5977 45.7266C59.4062 45.7266 61.5156 48.2461 61.9844 53.2852C60.5195 55.2188 58.4102 56.1562 55.5977 56.1562C54.8945 56.1562 54.1914 56.0391 53.6055 55.7461C52.9609 55.5117 52.375 55.1016 51.9062 54.6328C51.4375 54.1641 51.0273 53.5781 50.793 52.9336C50.5 52.3477 50.3828 51.6445 50.3828 50.9414C50.3828 50.2383 50.5 49.5938 50.793 48.9492C51.0273 48.3633 51.4375 47.7773 51.9062 47.3086C52.375 46.8398 52.9609 46.4297 53.6055 46.1367C54.1914 45.9023 54.8945 45.7266 55.5977 45.7266ZM91.2227 88.0898C92.7461 88.0898 94.2109 88.4414 95.5 89.0859C96.7891 89.7305 97.9023 90.6094 98.8398 91.7812C99.7773 92.9531 100.48 94.3008 101.008 95.8242C101.477 97.4062 101.77 99.1055 101.77 100.922C101.77 102.797 101.477 104.555 101.008 106.137C100.48 107.777 99.7773 109.125 98.8398 110.297C97.9023 111.469 96.7891 112.348 95.5 112.992C94.2109 113.695 92.7461 113.988 91.2227 113.988C89.6406 113.988 88.1758 113.695 86.8867 113.051C85.5977 112.465 84.4258 111.586 83.4883 110.531C82.5508 109.477 81.7891 108.188 81.2617 106.664C80.6758 105.199 80.4414 103.559 80.4414 101.801C80.4414 99.8086 80.6758 97.9336 81.1445 96.2344C81.6133 94.5352 82.375 93.0703 83.3125 91.8984C84.25 90.7266 85.3633 89.7891 86.7109 89.0859C88 88.4414 89.5234 88.0898 91.2227 88.0898ZM59.4648 88.0898C61.1055 88.0898 62.6289 88.4414 63.9766 89.1445C65.2656 89.8477 66.4375 90.7852 67.375 92.0156C68.3125 93.2461 69.0156 94.7109 69.4844 96.3516C69.9531 97.9922 70.2461 99.8086 70.2461 101.801C70.2461 103.559 69.9531 105.199 69.4258 106.664C68.8398 108.188 68.0781 109.477 67.1406 110.531C66.2031 111.586 65.0312 112.465 63.7422 113.051C62.4531 113.695 60.9883 113.988 59.4648 113.988C57.8828 113.988 56.4766 113.695 55.1875 112.992C53.8984 112.348 52.7852 111.469 51.8477 110.297C50.9102 109.125 50.1484 107.777 49.6797 106.137C49.1523 104.555 48.918 102.797 48.918 100.922C48.918 99.1055 49.1523 97.4062 49.6797 95.8242C50.1484 94.3008 50.8516 92.9531 51.7891 91.7812C52.7266 90.6094 53.8398 89.7305 55.1289 89.0859C56.418 88.4414 57.8242 88.0898 59.4648 88.0898ZM173.898 126.059C177.062 126.059 179.992 125.414 182.629 124.008C185.266 122.66 187.551 120.785 189.426 118.383C191.301 115.98 192.707 113.168 193.762 109.887C194.816 106.605 195.344 103.09 195.344 99.2812C195.344 87.5039 191.359 77.8945 183.449 70.5117H187.434V60.4336H122.219V70.5117H162.238C165.402 70.5117 168.332 71.332 171.145 72.8555C173.957 74.4375 176.359 76.5469 178.469 79.1836C180.578 81.8789 182.219 84.9258 183.391 88.3828C184.562 91.8984 185.207 95.5312 185.207 99.2812C185.207 109.184 181.398 114.105 173.898 114.105C170.734 114.105 167.863 111.762 165.285 107.016C163.762 104.32 162.355 101.742 160.949 99.2812C159.543 96.8203 157.961 94.6523 156.145 92.7773C154.328 90.9023 152.16 89.4375 149.699 88.3242C147.18 87.2695 144.074 86.6836 140.441 86.6836C137.746 86.6836 135.285 87.2695 133.059 88.3242C130.832 89.4375 128.898 90.9023 127.258 92.7773C125.617 94.6523 124.328 96.8789 123.391 99.3984C122.453 101.918 122.043 104.613 122.043 107.426C122.043 115.336 124.973 122.016 130.832 127.523L139.504 121.664C134.582 115.629 132.18 110.707 132.18 106.84C132.18 105.551 132.355 104.262 132.824 103.031C133.234 101.859 133.82 100.805 134.582 99.8672C135.344 98.9297 136.223 98.2266 137.277 97.6406C138.273 97.1133 139.387 96.8203 140.559 96.8203C142.316 96.8203 143.957 97.2305 145.363 97.9336C146.77 98.6367 148.059 99.6328 149.23 100.805C150.344 101.977 151.34 103.324 152.277 104.848C153.156 106.371 154.035 107.895 154.855 109.477C155.676 111.117 156.438 112.699 157.199 114.223C157.902 115.805 158.723 117.211 159.543 118.441C163.059 123.539 167.805 126.059 173.898 126.059ZM190.422 46.957C191.066 47.3672 191.594 47.7773 192.004 48.2461C192.414 48.7148 192.648 49.4766 192.648 50.4727C192.648 51.7617 192.414 53.0508 191.945 54.2227C191.477 55.4531 190.715 56.5078 189.777 57.4453C188.84 58.3828 187.609 59.1445 186.203 59.6133C184.797 60.1406 183.156 60.375 181.281 60.375H176.125V70.5117H183.566C186.379 70.5117 188.957 70.043 191.301 68.9883C193.586 67.9336 195.578 66.5273 197.219 64.7695C198.859 63.0117 200.09 60.9609 201.027 58.6172C201.906 56.2734 202.375 53.8125 202.375 51.1172C202.375 48.6562 201.848 46.3711 200.91 44.3789C199.973 42.3867 198.684 40.6875 197.16 39.2812C195.637 37.875 193.879 36.8203 191.887 36.0586C189.895 35.3555 187.902 34.9453 185.91 34.9453C184.27 34.9453 182.746 35.2383 181.34 35.8242C179.934 36.4102 178.645 37.1719 177.59 38.168C176.535 39.1641 175.656 40.3359 175.07 41.6836C174.426 43.0312 174.133 44.4961 174.133 46.0195C174.133 47.3086 174.309 48.4805 174.777 49.5938C175.246 50.707 175.832 51.7031 176.652 52.5234C177.473 53.4023 178.352 54.1055 179.406 54.5742C180.461 55.043 181.574 55.2773 182.746 55.2773C183.859 55.2773 184.914 55.1016 185.852 54.6914C186.789 54.3398 187.551 53.7539 188.254 53.0508C188.957 52.3477 189.484 51.5273 189.836 50.5898C190.188 49.6523 190.422 48.6562 190.422 47.4844V46.957ZM246.906 126C250.363 126 253.586 125.238 256.516 123.715C259.445 122.191 262.023 120.082 264.191 117.387C266.301 114.691 268 111.586 269.23 107.953C270.402 104.32 271.047 100.453 271.047 96.293C271.047 91.3711 270.285 86.6836 268.762 82.2891C267.238 77.9531 265.07 74.1445 262.375 70.8633C259.621 67.6406 256.398 65.0625 252.648 63.1875C248.898 61.3125 244.855 60.375 240.52 60.375C236.652 60.375 233.371 60.9023 230.617 61.8984C227.805 62.8945 225.461 64.2422 223.527 65.9414C221.535 67.6992 219.953 69.6914 218.723 71.9766C217.492 74.3203 216.496 76.7227 215.734 79.3008C214.914 81.8789 214.328 84.5742 213.859 87.2695C213.391 89.9648 213.039 92.6016 212.688 95.1797C212.336 97.7578 211.926 100.219 211.516 102.504C211.105 104.848 210.578 106.84 209.875 108.539C209.172 110.297 208.293 111.645 207.238 112.641C206.125 113.637 204.719 114.105 202.961 114.105C201.555 114.105 200.324 113.871 199.152 113.344C197.98 112.875 196.867 112.172 195.871 111.293C194.875 110.414 193.938 109.359 193.117 108.188C192.297 107.016 191.535 105.785 190.832 104.438L184.094 111.938C187.023 116.684 189.953 120.199 192.941 122.543C195.871 124.887 199.094 126 202.551 126C205.715 126 208.352 125.531 210.52 124.477C212.629 123.422 214.445 122.016 215.852 120.258C217.258 118.5 218.43 116.391 219.309 114.047C220.129 111.703 220.832 109.184 221.418 106.488C221.945 103.793 222.414 101.039 222.766 98.2266C223.117 95.4141 223.586 92.7188 224.055 90.0234C224.523 87.3281 225.168 84.8086 225.871 82.4648C226.574 80.1211 227.57 78.0117 228.859 76.2539C230.09 74.4961 231.672 73.0898 233.547 72.0352C235.422 70.9805 237.824 70.4531 240.695 70.4531C243.625 70.4531 246.32 71.1562 248.781 72.4453C251.242 73.793 253.352 75.6094 255.109 77.8359C256.867 80.0625 258.273 82.6992 259.328 85.6875C260.324 88.7344 260.852 91.8984 260.852 95.2969C260.852 97.9336 260.5 100.395 259.855 102.68C259.152 104.965 258.215 106.957 256.984 108.656C255.754 110.355 254.289 111.703 252.59 112.641C250.832 113.637 248.957 114.105 246.906 114.105C245.793 114.105 244.738 113.93 243.801 113.461C242.863 113.051 242.043 112.465 241.34 111.703C240.637 110.941 240.051 110.062 239.641 109.066C239.172 108.07 238.938 107.016 238.938 105.844C240.695 106.957 242.512 107.484 244.27 107.484C245.5 107.484 246.672 107.25 247.844 106.723C249.016 106.195 250.012 105.492 250.891 104.613C251.77 103.793 252.473 102.797 253 101.625C253.527 100.512 253.82 99.3398 253.82 98.0508C253.82 96.8789 253.527 95.707 253 94.5352C252.473 93.3633 251.77 92.3672 250.891 91.4883C249.953 90.6094 248.957 89.9062 247.785 89.3789C246.613 88.8516 245.441 88.5586 244.27 88.5586C241.984 88.5586 239.875 89.0273 238 89.9062C236.066 90.8438 234.426 92.0742 233.02 93.6562C231.613 95.2383 230.559 97.1133 229.797 99.2227C228.977 101.332 228.625 103.617 228.625 106.02C228.625 108.832 229.035 111.41 229.973 113.871C230.91 116.332 232.199 118.441 233.84 120.199C235.48 122.016 237.414 123.422 239.641 124.477C241.867 125.531 244.27 126 246.906 126ZM285.695 174.867L293.84 171.762C292.258 167.953 290.734 164.262 289.27 160.746C287.746 157.23 285.988 153.715 283.879 150.258C287.922 142.934 289.973 134.73 289.973 125.648H281.359C281.359 131.859 280.129 137.719 277.727 143.344C273.156 139.535 268.117 137.602 262.492 137.602C260.441 137.602 258.508 137.953 256.75 138.656C254.934 139.359 253.352 140.297 252.004 141.527C250.656 142.758 249.602 144.223 248.84 145.863C248.02 147.504 247.668 149.32 247.668 151.312C247.668 153.188 248.078 154.945 248.898 156.586C249.719 158.227 250.832 159.691 252.238 160.863C253.645 162.035 255.227 162.973 257.102 163.676C258.918 164.379 260.852 164.672 262.961 164.672C268.762 164.672 273.918 162.387 278.43 157.758C280.188 161.566 281.652 164.848 282.824 167.66C283.996 170.473 284.992 172.875 285.695 174.867ZM262.492 146.039C266.184 146.039 269.758 147.68 273.273 150.902C270.168 154.477 266.711 156.234 262.961 156.234C260.969 156.234 259.328 155.824 258.039 154.887C256.691 154.008 256.047 152.836 256.047 151.312C256.047 147.797 258.156 146.039 262.492 146.039ZM333.625 124.184C335.09 124.184 337.199 124.125 339.953 123.891L338.898 113.695C337.727 113.812 336.672 113.871 335.617 113.871C332.219 113.871 329.055 113.344 326.125 112.23C323.195 111.176 320.676 109.652 318.566 107.66C316.457 105.727 314.758 103.383 313.586 100.688C312.355 97.9922 311.77 95.0625 311.77 91.7812C311.77 90.7266 311.828 88.9688 312.004 86.625C314.582 89.2031 317.863 90.4922 321.73 90.4922C323.957 90.4922 326.066 90.1406 327.941 89.3203C329.816 88.5 331.398 87.3867 332.746 85.9805C334.035 84.5742 335.09 82.9336 335.852 81.0586C336.555 79.1836 336.965 77.0742 336.965 74.8477C336.965 72.7383 336.555 70.7461 335.793 68.8711C334.973 66.9961 333.918 65.3555 332.512 63.8906C331.105 62.4844 329.523 61.3125 327.648 60.4922C325.773 59.6719 323.84 59.2031 321.73 59.2031C318.684 59.2031 315.988 60.0234 313.586 61.5469C311.125 63.1289 309.074 65.2969 307.375 67.9922C305.617 70.6875 304.328 73.9102 303.391 77.543C302.453 81.1758 301.984 85.1016 301.984 89.2031C301.984 94.125 302.746 98.6953 304.328 102.914C305.91 107.191 308.137 110.883 310.949 114.047C313.762 117.211 317.102 119.672 320.969 121.488C324.836 123.305 329.055 124.184 333.625 124.184ZM321.73 69.2812C323.254 69.2812 324.484 69.8672 325.539 70.9219C326.594 72.0352 327.121 73.3242 327.121 74.8477C327.121 76.3711 326.594 77.7188 325.539 78.7734C324.484 79.8867 323.254 80.4141 321.73 80.4141C320.207 80.4141 318.918 79.8867 317.863 78.7734C316.809 77.7188 316.34 76.3711 316.34 74.8477C316.34 73.3242 316.809 72.0352 317.863 70.9219C318.918 69.8672 320.207 69.2812 321.73 69.2812ZM401.125 126C404.055 126 406.809 125.473 409.387 124.301C411.965 123.129 414.191 121.547 416.066 119.496C417.941 117.504 419.465 115.102 420.578 112.406C421.633 109.711 422.219 106.84 422.219 103.676C422.219 97.7578 420.344 92.7773 416.594 88.6758C419.875 85.6289 421.574 81.5273 421.574 76.3711C421.574 73.9102 421.164 71.625 420.344 69.5156C419.523 67.4062 418.41 65.5898 417.004 64.0664C415.539 62.543 413.84 61.3711 411.848 60.4922C409.855 59.6719 407.629 59.2031 405.285 59.2031C400.832 59.2031 396.848 61.0195 393.332 64.5352L400.539 71.7422C402.18 70.1016 403.762 69.2812 405.285 69.2812C406.223 69.2812 407.043 69.5156 407.805 69.8672C408.508 70.2188 409.152 70.7461 409.738 71.3906C410.266 72.0352 410.676 72.7969 410.969 73.6172C411.262 74.4961 411.438 75.4336 411.438 76.3711C411.438 78.5977 410.676 80.2383 409.152 81.293C407.629 82.3477 405.344 82.8164 402.297 82.7578C400.539 82.7578 398.898 82.7578 397.375 82.6992V92.7773C402.766 92.7773 406.281 93.1875 407.922 93.8906C410.676 95.2969 412.082 98.2266 412.082 102.797C412.082 104.32 411.789 105.727 411.262 107.074C410.676 108.422 409.914 109.594 408.977 110.648C408.039 111.703 406.926 112.582 405.637 113.168C404.348 113.812 402.941 114.105 401.535 114.105C399.895 114.105 398.371 113.812 397.082 113.227C395.734 112.641 394.621 111.762 393.684 110.648C392.746 109.535 391.984 108.246 391.516 106.723C390.988 105.199 390.754 103.559 390.754 101.684H380.617C380.617 103.559 380.324 105.199 379.855 106.723C379.328 108.246 378.566 109.594 377.629 110.648C376.691 111.762 375.52 112.641 374.23 113.227C372.883 113.812 371.418 114.105 369.777 114.105C368.254 114.105 366.906 113.812 365.617 113.168C364.328 112.582 363.215 111.762 362.277 110.707C361.34 109.652 360.578 108.48 360.051 107.074C359.465 105.727 359.23 104.32 359.23 102.797C359.23 98.168 360.578 95.1797 363.391 93.8906C364.914 93.1875 368.43 92.7773 373.938 92.7773V82.6992C372.766 82.7578 371.887 82.8164 371.184 82.8164C370.48 82.8164 369.602 82.8164 368.547 82.8164C362.746 82.8164 359.875 80.707 359.875 76.3711C359.875 75.4336 359.992 74.4961 360.285 73.6172C360.578 72.7969 360.988 72.0352 361.574 71.3906C362.102 70.7461 362.746 70.2188 363.508 69.8672C364.211 69.5156 365.09 69.2812 366.027 69.2812C367.551 69.2812 369.133 70.1016 370.773 71.7422L377.98 64.5352C374.406 61.0195 370.422 59.2031 366.027 59.2031C363.566 59.2031 361.34 59.6719 359.348 60.5508C357.355 61.4297 355.598 62.6602 354.191 64.1836C352.785 65.707 351.672 67.5234 350.91 69.6328C350.09 71.7422 349.738 73.9688 349.738 76.3711C349.738 81.5273 351.379 85.6289 354.719 88.6758C350.969 92.7773 349.094 97.7578 349.094 103.676C349.094 106.84 349.621 109.77 350.676 112.465C351.73 115.16 353.254 117.562 355.129 119.555C357.004 121.547 359.23 123.129 361.809 124.301C364.387 125.473 367.141 126 370.188 126C376.398 126 381.555 123.656 385.656 118.969C389.641 123.656 394.797 126 401.125 126Z" fill="white" fill-opacity="0.2"/>
<path d="M131.514 209.689C131.514 207.711 130.977 205.685 129.902 203.622C128.804 201.522 127.278 199.63 125.337 197.958C124.702 197.421 124.055 197.152 123.396 197.152C122.639 197.152 121.992 197.421 121.455 197.958C120.918 198.495 120.662 199.13 120.662 199.887C120.662 200.644 120.918 201.291 121.455 201.828C121.992 202.365 122.639 202.621 123.396 202.621C123.97 202.621 124.495 202.462 124.958 202.133C125.422 201.803 125.764 201.376 125.959 200.839C128.547 203.549 129.854 206.466 129.854 209.616C129.854 210.946 129.622 211.984 129.17 212.741C128.669 213.546 127.961 213.949 127.034 213.949C126.301 213.949 125.703 213.705 125.215 213.205C124.727 212.704 124.495 212.13 124.495 211.471V211.264H122.834V211.471C122.834 212.13 122.578 212.716 122.09 213.205C121.602 213.705 120.979 213.949 120.234 213.949C119.478 213.949 118.867 213.668 118.379 213.107C117.915 212.582 117.695 211.959 117.695 211.251C117.695 210.031 118.293 209.225 119.514 208.822L119.062 207.223C118.086 207.516 117.317 208.078 116.78 208.883C116.279 209.628 116.035 210.482 116.035 211.435C116.035 212.655 116.401 213.705 117.146 214.572C117.952 215.524 119.001 216 120.32 216C121.711 216 122.822 215.438 123.652 214.315C124.482 215.438 125.605 216 127.034 216C128.364 216 129.414 215.536 130.183 214.608C131.062 213.534 131.514 211.898 131.514 209.689ZM124.849 199.813C124.775 200.143 124.58 200.412 124.287 200.631C123.982 200.851 123.677 200.961 123.372 200.961C123.079 200.961 122.822 200.863 122.615 200.644C122.395 200.436 122.297 200.18 122.297 199.887C122.297 199.594 122.395 199.35 122.615 199.13C122.822 198.922 123.079 198.812 123.372 198.812C123.86 198.812 124.348 199.154 124.849 199.813ZM147.297 200.558C147.297 199.704 147.029 198.959 146.516 198.3C145.967 197.616 145.283 197.238 144.453 197.152L144.319 198.812C144.709 198.837 145.039 199.044 145.295 199.423C145.515 199.765 145.637 200.143 145.637 200.558C145.637 201.01 145.503 201.413 145.247 201.754C144.966 202.145 144.612 202.328 144.172 202.328H133.662V203.988H134.602C134.443 204.33 134.37 204.696 134.37 205.099C134.37 205.832 134.602 206.43 135.078 206.869C135.554 207.321 136.165 207.541 136.909 207.541C137.617 207.541 138.228 207.284 138.752 206.759L137.581 205.575C137.41 205.783 137.178 205.88 136.909 205.88C136.323 205.88 136.03 205.6 136.03 205.026C136.03 204.342 136.873 203.988 138.582 203.988C139.656 203.988 140.559 204.123 141.279 204.379V204.928C141.279 206.332 140.73 207.357 139.644 208.004L136.592 209.298C135.493 209.86 134.956 210.702 134.956 211.85C134.956 213.144 135.566 214.181 136.787 214.962C137.849 215.658 139.058 216 140.425 216C142.341 216 143.94 215.414 145.234 214.242C146.565 213.046 147.236 211.483 147.236 209.579C147.236 207.309 146.101 205.441 143.831 203.988H144.233C145.125 203.988 145.869 203.634 146.455 202.926C147.017 202.267 147.297 201.474 147.297 200.558ZM145.576 209.347C145.576 210.763 145.051 211.898 144.001 212.753C143.025 213.559 141.804 213.949 140.364 213.949C139.595 213.949 138.826 213.803 138.069 213.485C137.092 213.095 136.616 212.582 136.616 211.935C136.616 211.325 137.153 210.775 138.228 210.287C139.802 209.579 140.791 209.066 141.206 208.725C142.268 207.846 142.805 206.601 142.805 204.989C144.648 206.051 145.576 207.504 145.576 209.347ZM150.544 221.603C150.544 220.468 150.117 219.467 149.287 218.612C149.897 218.588 150.41 218.344 150.837 217.892C151.265 217.44 151.484 216.903 151.484 216.281C151.484 215.646 151.252 215.097 150.801 214.633C150.349 214.181 149.8 213.949 149.165 213.949V215.268C149.434 215.268 149.678 215.377 149.873 215.573C150.068 215.768 150.166 216.012 150.166 216.281C150.166 216.562 150.068 216.806 149.873 217.001C149.678 217.196 149.434 217.294 149.165 217.294H145.515V218.612H146.992C147.651 218.832 148.188 219.198 148.604 219.711C149.019 220.236 149.226 220.834 149.226 221.505C149.226 222.067 149.067 222.543 148.774 222.921C148.445 223.336 148.005 223.544 147.468 223.544C146.614 223.544 146.199 223.129 146.199 222.274V221.859H144.844V222.274C144.844 223.129 144.404 223.544 143.55 223.544C143.159 223.544 142.842 223.373 142.585 223.031C142.341 222.726 142.231 222.372 142.231 221.969C142.231 221.115 142.732 220.529 143.733 220.199L143.33 218.93C141.719 219.406 140.913 220.431 140.913 222.018C140.913 222.824 141.157 223.483 141.646 224.02C142.146 224.582 142.793 224.862 143.586 224.862C144.478 224.862 145.125 224.521 145.515 223.837C145.662 224.13 145.942 224.374 146.345 224.569C146.711 224.765 147.078 224.862 147.419 224.862C148.359 224.862 149.116 224.557 149.702 223.922C150.264 223.324 150.544 222.555 150.544 221.603ZM168.843 210.739C168.843 209.384 168.489 208.09 167.805 206.869C167.122 205.648 166.194 204.684 165.034 203.988H166.084V202.328H153.608V203.988H159.248C161.384 203.988 163.203 204.55 164.717 205.673C166.353 206.906 167.183 208.542 167.183 210.58C167.183 211.483 166.975 212.252 166.584 212.863C166.121 213.595 165.461 213.949 164.607 213.949C163.85 213.949 163.228 213.693 162.764 213.18C162.3 212.667 162.068 212.021 162.068 211.264H160.408C160.408 212.045 160.164 212.68 159.688 213.192C159.199 213.705 158.577 213.949 157.808 213.949C157.075 213.949 156.477 213.681 155.989 213.131C155.5 212.619 155.269 211.984 155.269 211.251C155.269 210.031 155.867 209.225 157.087 208.822L156.636 207.223C155.684 207.504 154.939 208.029 154.402 208.81C153.865 209.567 153.608 210.434 153.608 211.435C153.608 212.704 153.999 213.778 154.78 214.645C155.586 215.548 156.624 216 157.893 216C159.285 216 160.396 215.438 161.226 214.315C162.056 215.438 163.179 216 164.607 216C165.925 216 166.987 215.438 167.793 214.315C168.489 213.314 168.843 212.13 168.843 210.739ZM170.186 200.521C170.186 199.63 169.905 198.861 169.368 198.202C168.77 197.506 168.013 197.152 167.085 197.152C166.45 197.152 165.925 197.348 165.498 197.726C165.022 198.141 164.79 198.69 164.79 199.374C164.79 199.936 164.949 200.387 165.278 200.729C165.571 201.046 165.938 201.193 166.365 201.193C166.914 201.193 167.341 200.949 167.634 200.436L167.134 199.997C166.951 200.253 166.755 200.375 166.536 200.375C166.145 200.375 165.95 200.143 165.95 199.655C165.95 199.032 166.267 198.715 166.926 198.715C167.439 198.715 167.854 198.886 168.184 199.228C168.477 199.545 168.623 199.936 168.623 200.375C168.623 200.888 168.452 201.327 168.11 201.706C167.744 202.121 167.292 202.328 166.755 202.328H164.839V203.988H166.755C167.805 203.988 168.66 203.634 169.307 202.902C169.893 202.243 170.186 201.449 170.186 200.521ZM187.349 208.603C187.349 206.076 186.47 203.903 184.712 202.084L183.54 203.268C184.968 204.586 185.688 206.393 185.688 208.688C185.688 210.312 185.09 211.605 183.894 212.582C182.771 213.498 181.379 213.949 179.731 213.949C178.071 213.949 176.692 213.498 175.569 212.582C174.373 211.605 173.774 210.312 173.774 208.688C173.774 208.2 173.811 207.748 173.896 207.357C174.373 207.882 174.971 208.139 175.703 208.139C176.472 208.139 177.119 207.821 177.632 207.187C178.12 206.601 178.364 205.905 178.364 205.111C178.364 204.33 178.12 203.634 177.632 203.036C177.119 202.401 176.472 202.084 175.703 202.084C174.556 202.084 173.628 202.926 172.944 204.599C172.383 205.929 172.114 207.26 172.114 208.603C172.114 210.824 172.834 212.606 174.275 213.974C175.691 215.329 177.51 216 179.731 216C181.953 216 183.772 215.329 185.2 213.961C186.628 212.606 187.349 210.824 187.349 208.603ZM176.936 205.111C176.936 205.514 176.826 205.868 176.631 206.173C176.387 206.527 176.082 206.698 175.703 206.698C175.178 206.698 174.69 206.393 174.226 205.771C174.568 204.428 175.056 203.744 175.703 203.744C176.021 203.744 176.301 203.891 176.558 204.184C176.802 204.477 176.936 204.794 176.936 205.111ZM187.349 221.896C187.349 221.09 187.117 220.407 186.677 219.845C186.189 219.235 185.554 218.93 184.773 218.93C184.431 218.93 184.077 219.052 183.687 219.284C183.296 219.516 183.015 219.772 182.856 220.065C182.686 219.772 182.393 219.516 182.002 219.284C181.611 219.052 181.245 218.93 180.916 218.93C180.122 218.93 179.487 219.235 179.011 219.845C178.56 220.407 178.34 221.09 178.34 221.896C178.34 223.495 178.999 224.484 180.33 224.862L180.72 223.593C179.988 223.361 179.634 222.812 179.634 221.945C179.634 221.53 179.731 221.164 179.939 220.822C180.171 220.443 180.488 220.248 180.879 220.248C181.733 220.248 182.161 220.675 182.161 221.505V221.933H183.528V221.505C183.528 220.675 183.955 220.248 184.81 220.248C185.2 220.248 185.505 220.443 185.75 220.822C185.945 221.164 186.055 221.53 186.055 221.945C186.055 222.812 185.688 223.361 184.968 223.593L185.359 224.862C186.677 224.472 187.349 223.483 187.349 221.896ZM204.792 200.558C204.792 199.704 204.524 198.959 204.011 198.3C203.462 197.616 202.778 197.238 201.948 197.152L201.814 198.812C202.205 198.837 202.522 199.044 202.791 199.423C203.01 199.765 203.132 200.143 203.132 200.558C203.132 201.01 202.998 201.413 202.742 201.754C202.461 202.145 202.107 202.328 201.667 202.328H189.497V203.988H195.137C197.273 203.988 199.092 204.55 200.605 205.673C202.241 206.906 203.071 208.542 203.071 210.58C203.071 211.483 202.864 212.252 202.473 212.863C202.009 213.595 201.35 213.949 200.496 213.949C199.739 213.949 199.116 213.693 198.652 213.18C198.188 212.667 197.957 212.021 197.957 211.264H196.296C196.296 212.045 196.052 212.68 195.576 213.192C195.088 213.705 194.465 213.949 193.696 213.949C192.964 213.949 192.366 213.681 191.877 213.131C191.389 212.619 191.157 211.984 191.157 211.251C191.157 210.031 191.755 209.225 192.976 208.822L192.524 207.223C191.572 207.504 190.828 208.029 190.291 208.81C189.753 209.567 189.497 210.434 189.497 211.435C189.497 212.704 189.888 213.778 190.669 214.645C191.475 215.548 192.512 216 193.782 216C195.173 216 196.284 215.438 197.114 214.315C197.944 215.438 199.067 216 200.496 216C201.814 216 202.876 215.438 203.682 214.315C204.377 213.314 204.731 212.13 204.731 210.739C204.731 209.384 204.377 208.09 203.694 206.869C203.01 205.648 202.083 204.684 200.923 203.988H201.729C202.62 203.988 203.364 203.634 203.962 202.926C204.512 202.267 204.792 201.474 204.792 200.558ZM217.988 208.969C217.988 207.235 217.512 205.722 216.584 204.452C215.547 203.036 214.192 202.328 212.52 202.328C211.287 202.328 210.2 202.755 209.272 203.61C208.442 204.367 207.808 205.368 207.393 206.613C207.209 207.138 206.965 208.554 206.648 210.849C206.379 212.863 205.989 214.328 205.488 215.231C204.756 216.574 203.608 217.245 202.058 217.245C200.911 217.245 199.922 216.83 199.092 215.988C198.262 215.158 197.847 214.157 197.847 213.009H196.382C196.467 214.621 197.029 216 198.054 217.147C199.141 218.368 200.471 218.979 202.058 218.979C204.036 218.979 205.513 218.295 206.465 216.928C207.136 215.963 207.649 214.413 207.991 212.289C208.455 209.457 208.748 207.797 208.894 207.333C209.578 205.111 210.786 203.988 212.507 203.988C213.728 203.988 214.705 204.562 215.437 205.685C216.072 206.662 216.401 207.797 216.401 209.079C216.401 210.421 216.218 211.544 215.852 212.423C215.339 213.681 214.509 214.303 213.362 214.303C212.922 214.303 212.507 214.145 212.129 213.815C211.75 213.485 211.567 213.095 211.567 212.655C211.567 212.167 211.726 211.728 212.056 211.312C212.373 210.897 212.776 210.666 213.252 210.617L212.593 209.188C211.787 209.433 211.14 209.848 210.652 210.446C210.139 211.081 209.883 211.801 209.883 212.606C209.883 213.534 210.225 214.328 210.933 214.999C211.628 215.67 212.434 216 213.362 216C214.985 216 216.206 215.194 217.024 213.571C217.659 212.313 217.988 210.775 217.988 208.969ZM241.584 200.558C241.584 199.704 241.316 198.959 240.803 198.3C240.254 197.616 239.57 197.238 238.74 197.152L238.606 198.812C238.997 198.837 239.326 199.044 239.583 199.423C239.802 199.765 239.924 200.143 239.924 200.558C239.924 201.01 239.79 201.413 239.534 201.754C239.253 202.145 238.899 202.328 238.459 202.328H227.949V203.988H230.305C228.73 205.355 227.949 207.089 227.949 209.164C227.949 211.044 228.608 212.655 229.927 213.998C231.245 215.341 232.856 216 234.736 216C236.616 216 238.215 215.341 239.534 213.998C240.852 212.655 241.523 211.044 241.523 209.164C241.523 207.04 240.706 205.294 239.094 203.927C239.851 203.769 240.461 203.354 240.925 202.694C241.365 202.084 241.584 201.364 241.584 200.558ZM239.717 208.969C239.717 210.348 239.229 211.52 238.252 212.497C237.275 213.473 236.104 213.949 234.736 213.949C233.357 213.949 232.185 213.473 231.208 212.497C230.232 211.52 229.756 210.348 229.756 208.969C229.756 207.602 230.232 206.43 231.208 205.453C232.185 204.477 233.357 203.988 234.736 203.988C236.104 203.988 237.275 204.477 238.252 205.453C239.229 206.43 239.717 207.602 239.717 208.969ZM255 209.579C255 207.809 254.438 206.295 253.34 205.038C252.229 203.793 250.898 203.158 249.336 203.158C247.773 203.158 246.431 203.793 245.332 205.038C244.221 206.295 243.672 207.809 243.672 209.579C243.672 211.361 244.221 212.875 245.332 214.12C246.431 215.377 247.773 216 249.336 216C250.898 216 252.229 215.377 253.34 214.12C254.438 212.875 255 211.361 255 209.579ZM253.34 209.384C253.34 210.653 252.949 211.728 252.168 212.619C251.387 213.51 250.435 213.949 249.336 213.949C248.225 213.949 247.285 213.51 246.504 212.619C245.723 211.728 245.332 210.653 245.332 209.384C245.332 208.126 245.723 207.052 246.504 206.161C247.285 205.27 248.225 204.818 249.336 204.818C250.435 204.818 251.387 205.27 252.168 206.161C252.949 207.052 253.34 208.126 253.34 209.384ZM270.784 200.558C270.784 199.704 270.515 198.959 270.002 198.3C269.453 197.616 268.77 197.238 267.939 197.152L267.805 198.812C268.196 198.837 268.525 199.044 268.782 199.423C269.001 199.765 269.124 200.143 269.124 200.558C269.124 201.01 268.989 201.413 268.733 201.754C268.452 202.145 268.098 202.328 267.659 202.328H257.148V203.988H259.761C258.015 205.648 257.148 207.87 257.148 210.629C257.148 212.521 257.771 214.34 259.016 216.098L260.322 215.084C259.309 213.644 258.809 212.155 258.809 210.629C258.809 209.03 259.211 207.589 260.017 206.308C260.945 204.831 262.178 204.086 263.691 204.086C265.205 204.086 266.426 204.831 267.366 206.308C268.171 207.589 268.574 209.03 268.574 210.629C268.574 212.13 268.062 213.62 267.061 215.084L268.354 216.098C269.6 214.364 270.234 212.545 270.234 210.629C270.234 207.87 269.355 205.648 267.622 203.988C268.55 203.988 269.319 203.646 269.917 202.963C270.491 202.316 270.784 201.51 270.784 200.558ZM295.723 210.25C295.723 207.125 294.441 204.367 291.89 201.962L290.681 203.17C292.927 205.27 294.062 207.65 294.062 210.299C294.062 211.3 293.806 212.143 293.306 212.826C292.744 213.583 291.975 213.949 291.011 213.949C290.229 213.949 289.558 213.717 288.997 213.229C288.386 212.729 288.081 212.143 288.081 211.459C288.081 211.312 288.081 211.19 288.093 211.093C288.093 210.995 288.105 210.836 288.105 210.617C288.105 209.347 287.751 208.09 287.068 206.869C286.384 205.648 285.457 204.684 284.297 203.988H285.298C286.189 203.988 286.934 203.634 287.52 202.926C288.081 202.267 288.362 201.474 288.362 200.558C288.362 199.704 288.093 198.959 287.581 198.3C287.031 197.616 286.348 197.238 285.518 197.152L285.383 198.812C285.774 198.837 286.104 199.044 286.36 199.423C286.58 199.765 286.702 200.143 286.702 200.558C286.702 201.01 286.567 201.413 286.311 201.754C286.03 202.145 285.676 202.328 285.237 202.328H272.871V203.988H278.511C280.635 203.988 282.454 204.55 283.955 205.648C285.615 206.881 286.445 208.529 286.445 210.58C286.445 211.483 286.238 212.252 285.847 212.863C285.383 213.595 284.724 213.949 283.87 213.949C283.113 213.949 282.502 213.693 282.039 213.18C281.562 212.667 281.331 212.021 281.331 211.264H279.67C279.67 212.045 279.426 212.68 278.95 213.192C278.462 213.705 277.839 213.949 277.07 213.949C276.338 213.949 275.74 213.681 275.251 213.131C274.763 212.619 274.531 211.984 274.531 211.251C274.531 210.031 275.129 209.225 276.35 208.822L275.898 207.223C274.946 207.504 274.214 208.029 273.677 208.798C273.14 209.567 272.871 210.446 272.871 211.435C272.871 212.704 273.262 213.778 274.055 214.645C274.861 215.548 275.898 216 277.156 216C278.56 216 279.67 215.438 280.488 214.315C281.318 215.438 282.441 216 283.87 216C285.334 216 286.47 215.365 287.251 214.071C288.142 215.365 289.387 216 290.986 216C292.488 216 293.672 215.402 294.551 214.206C295.332 213.131 295.723 211.813 295.723 210.25ZM309.199 209.579C309.199 207.809 308.638 206.295 307.539 205.038C306.428 203.793 305.098 203.158 303.535 203.158C301.973 203.158 300.63 203.793 299.531 205.038C298.42 206.295 297.871 207.809 297.871 209.579C297.871 211.361 298.42 212.875 299.531 214.12C300.63 215.377 301.973 216 303.535 216C305.098 216 306.428 215.377 307.539 214.12C308.638 212.875 309.199 211.361 309.199 209.579ZM307.539 209.384C307.539 210.653 307.148 211.728 306.367 212.619C305.586 213.51 304.634 213.949 303.535 213.949C302.424 213.949 301.484 213.51 300.703 212.619C299.922 211.728 299.531 210.653 299.531 209.384C299.531 208.126 299.922 207.052 300.703 206.161C301.484 205.27 302.424 204.818 303.535 204.818C304.634 204.818 305.586 205.27 306.367 206.161C307.148 207.052 307.539 208.126 307.539 209.384ZM326.582 211.435C326.582 210.104 326.13 209.018 325.239 208.175C326.045 207.565 326.448 206.686 326.448 205.539C326.448 204.538 326.155 203.72 325.569 203.061C324.983 202.414 324.189 202.084 323.201 202.084C322.322 202.084 321.589 202.389 320.991 202.975L322.175 204.159C322.456 203.891 322.798 203.744 323.201 203.744C323.689 203.744 324.092 203.927 324.385 204.281C324.653 204.611 324.788 205.026 324.788 205.539C324.788 206.369 324.446 206.869 323.774 207.064C323.53 207.138 322.847 207.162 321.748 207.162V208.822H323.103C323.689 208.822 324.153 209.091 324.495 209.628C324.775 210.092 324.922 210.629 324.922 211.251C324.922 211.984 324.678 212.619 324.202 213.131C323.713 213.681 323.103 213.949 322.383 213.949C321.602 213.949 320.979 213.705 320.515 213.192C320.039 212.68 319.807 212.045 319.807 211.264H318.147C318.147 212.045 317.903 212.68 317.427 213.192C316.938 213.705 316.316 213.949 315.547 213.949C314.814 213.949 314.216 213.681 313.728 213.131C313.24 212.619 313.008 211.984 313.008 211.251C313.008 210.641 313.154 210.092 313.447 209.628C313.777 209.091 314.241 208.822 314.827 208.822H316.182V207.162C315.071 207.162 314.399 207.138 314.155 207.064C313.472 206.869 313.142 206.369 313.142 205.539C313.142 205.026 313.276 204.611 313.545 204.281C313.838 203.927 314.229 203.744 314.729 203.744C315.12 203.744 315.461 203.891 315.754 204.159L316.938 202.975C316.328 202.389 315.596 202.084 314.729 202.084C313.728 202.084 312.947 202.414 312.361 203.061C311.775 203.72 311.482 204.538 311.482 205.539C311.482 206.686 311.885 207.565 312.69 208.175C311.787 209.018 311.348 210.104 311.348 211.435C311.348 212.704 311.738 213.778 312.52 214.645C313.325 215.548 314.363 216 315.632 216C317.024 216 318.135 215.438 318.965 214.315C319.783 215.438 320.894 216 322.297 216C323.555 216 324.592 215.548 325.398 214.645C326.179 213.778 326.582 212.704 326.582 211.435ZM344.026 200.558C344.026 199.704 343.757 198.959 343.245 198.3C342.695 197.616 342.012 197.238 341.182 197.152L341.047 198.812C341.438 198.837 341.755 199.044 342.024 199.423C342.244 199.765 342.366 200.143 342.366 200.558C342.366 201.01 342.231 201.413 341.975 201.754C341.694 202.145 341.34 202.328 340.901 202.328H328.73V203.988H340.901C341.829 203.988 342.585 203.646 343.184 202.951C343.745 202.304 344.026 201.51 344.026 200.558ZM337.52 207.309C337.52 206.991 337.397 206.71 337.178 206.479C336.946 206.259 336.665 206.137 336.348 206.137C336.018 206.137 335.737 206.259 335.518 206.479C335.286 206.71 335.176 206.991 335.176 207.309C335.176 207.638 335.286 207.919 335.518 208.139C335.737 208.371 336.018 208.48 336.348 208.48C336.665 208.48 336.946 208.371 337.178 208.139C337.397 207.919 337.52 207.638 337.52 207.309ZM343.965 211.032C343.965 209.665 343.647 208.493 343.037 207.516C342.512 206.71 341.646 205.868 340.449 204.965L339.68 206.491C341.426 207.602 342.305 209.066 342.305 210.897C342.305 211.703 342.085 212.387 341.646 212.973C341.157 213.632 340.535 213.949 339.766 213.949C338.984 213.949 338.362 213.705 337.898 213.192C337.422 212.68 337.19 212.045 337.19 211.264H335.53C335.53 212.045 335.286 212.68 334.81 213.192C334.321 213.705 333.699 213.949 332.93 213.949C332.197 213.949 331.599 213.681 331.111 213.131C330.623 212.619 330.391 211.984 330.391 211.251C330.391 210.031 330.989 209.225 332.209 208.822L331.758 207.223C330.806 207.504 330.061 208.029 329.524 208.81C328.987 209.567 328.73 210.434 328.73 211.435C328.73 212.704 329.121 213.778 329.902 214.645C330.708 215.548 331.746 216 333.015 216C334.407 216 335.518 215.438 336.348 214.315C337.166 215.438 338.276 216 339.68 216C340.974 216 342.036 215.487 342.842 214.462C343.586 213.51 343.965 212.375 343.965 211.032Z" fill="#ABABAB"/>
</svg>
