<svg width="461" height="244" viewBox="0 0 461 244" fill="none" xmlns="http://www.w3.org/2000/svg">
<path d="M85.1677 74.86C88.8343 74.86 92.1343 75.41 95.0677 76.51C98.001 77.5367 100.494 79.0033 102.548 80.91C104.601 82.8167 106.178 85.0533 107.278 87.62C108.378 90.1867 108.928 92.9733 108.928 95.98C108.928 99.1333 108.378 102.067 107.278 104.78C106.178 107.493 104.601 109.84 102.548 111.82C100.494 113.8 98.001 115.34 95.0677 116.44C92.1343 117.613 88.8343 118.2 85.1677 118.2C80.9143 118.2 77.1743 117.503 73.9477 116.11C70.7943 114.717 68.2643 112.993 66.3577 110.94C64.451 112.993 61.921 114.717 58.7677 116.11C55.6143 117.503 51.911 118.2 47.6577 118.2C43.991 118.2 40.691 117.613 37.7577 116.44C34.8243 115.34 32.331 113.8 30.2777 111.82C28.2243 109.84 26.6477 107.493 25.5477 104.78C24.4477 102.067 23.8977 99.1333 23.8977 95.98C23.8977 93.12 24.3743 90.48 25.3277 88.06C26.3543 85.5667 27.7843 83.4033 29.6177 81.57C31.451 79.6633 33.6877 78.16 36.3277 77.06C38.9677 75.8867 41.9377 75.19 45.2377 74.97C47.2177 73.65 48.6477 72.11 49.5277 70.35C50.4077 68.59 50.9943 66.7567 51.2877 64.85C50.3343 65.4367 49.1977 65.9133 47.8777 66.28C46.5577 66.6467 44.9443 66.83 43.0377 66.83C40.8377 66.83 38.7477 66.5 36.7677 65.84C34.7877 65.18 33.0277 64.19 31.4877 62.87C30.021 61.55 28.8477 59.9 27.9677 57.92C27.0877 55.94 26.6477 53.6667 26.6477 51.1C26.6477 48.8267 27.0877 46.7 27.9677 44.72C28.921 42.6667 30.2043 40.9067 31.8177 39.44C33.5043 37.9733 35.521 36.8367 37.8677 36.03C40.2877 35.15 42.9277 34.71 45.7877 34.71C52.6077 34.71 57.8143 36.8367 61.4077 41.09C65.001 45.27 66.7977 50.77 66.7977 57.59C66.7977 61.11 66.2843 64.5567 65.2577 67.93C64.3043 71.23 62.6543 74.4933 60.3077 77.72C62.7277 78.9667 64.7443 80.4333 66.3577 82.12C68.2643 80.14 70.7943 78.4533 73.9477 77.06C77.1743 75.5933 80.9143 74.86 85.1677 74.86ZM41.3877 51.32C41.3877 52.7867 41.8277 53.9967 42.7077 54.95C43.661 55.83 44.8343 56.27 46.2277 56.27C47.621 56.27 48.7577 55.83 49.6377 54.95C50.591 53.9967 51.0677 52.7867 51.0677 51.32C51.0677 49.8533 50.591 48.68 49.6377 47.8C48.7577 46.8467 47.621 46.37 46.2277 46.37C44.8343 46.37 43.661 46.8467 42.7077 47.8C41.8277 48.68 41.3877 49.8533 41.3877 51.32ZM42.1577 96.2C42.1577 98.4733 42.8543 100.343 44.2477 101.81C45.7143 103.203 47.5477 103.9 49.7477 103.9C51.9477 103.9 53.7443 103.203 55.1377 101.81C56.6043 100.343 57.3377 98.4733 57.3377 96.2C57.3377 93.9267 56.6043 92.0933 55.1377 90.7C53.7443 89.2333 51.9477 88.5 49.7477 88.5C47.5477 88.5 45.7143 89.2333 44.2477 90.7C42.8543 92.0933 42.1577 93.9267 42.1577 96.2ZM90.6677 96.2C90.6677 93.9267 89.9343 92.0933 88.4677 90.7C87.0743 89.2333 85.2777 88.5 83.0777 88.5C80.8777 88.5 79.0443 89.2333 77.5777 90.7C76.1843 92.0933 75.4877 93.9267 75.4877 96.2C75.4877 98.4733 76.1843 100.343 77.5777 101.81C79.0443 103.203 80.8777 103.9 83.0777 103.9C85.2777 103.9 87.0743 103.203 88.4677 101.81C89.9343 100.343 90.6677 98.4733 90.6677 96.2ZM209.241 118.2C205.061 118.2 201.431 117.577 198.351 116.33C195.344 115.157 192.777 113.617 190.651 111.71C188.304 113.837 185.554 115.45 182.401 116.55C179.247 117.65 175.691 118.2 171.731 118.2C165.791 118.2 161.061 116.917 157.541 114.35C154.021 111.71 151.197 108.043 149.071 103.35L146.981 98.62C146.174 96.7867 145.257 95.3567 144.231 94.33C143.277 93.3033 141.957 92.79 140.271 92.79C138.657 92.79 137.337 93.34 136.311 94.44C135.284 95.4667 134.771 97.1533 134.771 99.5C134.771 101.7 135.211 103.717 136.091 105.55C136.971 107.383 138.107 109.033 139.501 110.5C138.841 112.92 137.667 114.79 135.981 116.11C134.294 117.503 132.204 118.2 129.711 118.2C127.584 118.2 125.641 117.723 123.881 116.77C122.194 115.817 120.727 114.497 119.481 112.81C118.234 111.123 117.244 109.143 116.511 106.87C115.851 104.523 115.521 102.03 115.521 99.39C115.521 96.0167 116.071 92.9367 117.171 90.15C118.344 87.3633 119.994 84.98 122.121 83C124.247 81.02 126.814 79.5167 129.821 78.49C132.901 77.39 136.311 76.84 140.051 76.84C145.991 76.84 150.831 78.16 154.571 80.8C158.311 83.3667 161.134 86.85 163.041 91.25L165.791 97.41C166.597 99.2433 167.514 100.563 168.541 101.37C169.567 102.177 170.777 102.58 172.171 102.58C174.444 102.58 176.167 101.627 177.341 99.72C178.514 97.74 179.101 95.1367 179.101 91.91C179.101 88.83 178.551 85.9333 177.451 83.22C176.351 80.4333 174.847 77.9767 172.941 75.85C171.034 73.65 168.724 71.78 166.011 70.24C163.297 68.7 160.364 67.6 157.211 66.94H117.721C117.061 65.84 116.584 64.8133 116.291 63.86C115.997 62.8333 115.851 61.6967 115.851 60.45C115.851 57.8833 116.401 55.9767 117.501 54.73C118.674 53.41 120.251 52.75 122.231 52.75H178.771C180.604 52.6033 181.997 52.0167 182.951 50.99C183.904 49.89 184.381 48.5333 184.381 46.92C184.381 43.9133 183.134 42.41 180.641 42.41C179.687 42.41 178.844 42.74 178.111 43.4C177.451 43.9867 177.121 44.9033 177.121 46.15C177.121 46.59 177.194 47.1033 177.341 47.69C176.754 48.0567 175.874 48.35 174.701 48.57C173.527 48.79 172.427 48.9 171.401 48.9C168.981 48.9 167.037 48.24 165.571 46.92C164.177 45.6 163.481 43.8767 163.481 41.75C163.481 38.45 164.947 35.6267 167.881 33.28C170.887 30.86 175.251 29.65 180.971 29.65C183.537 29.65 185.957 30.0533 188.231 30.86C190.577 31.5933 192.594 32.6933 194.281 34.16C196.041 35.6267 197.434 37.4967 198.461 39.77C199.487 41.97 200.001 44.5 200.001 47.36C200.001 52.1267 198.607 56.2333 195.821 59.68C193.034 63.0533 189.331 65.2533 184.711 66.28C188.671 69.0667 191.934 72.8433 194.501 77.61C197.067 82.3033 198.351 87.4367 198.351 93.01C198.351 94.4767 198.241 95.87 198.021 97.19C198.827 98.6567 199.927 99.94 201.321 101.04C202.714 102.14 204.584 102.69 206.931 102.69C209.351 102.69 211.257 101.957 212.651 100.49C214.044 99.0233 214.741 97.1167 214.741 94.77C214.741 93.1567 214.704 91.7267 214.631 90.48C214.631 89.16 214.631 87.7667 214.631 86.3C214.631 79.48 215.731 73.7967 217.931 69.25C220.131 64.7033 222.991 61.0367 226.511 58.25C230.104 55.4633 234.101 53.4833 238.501 52.31C242.974 51.1367 247.484 50.55 252.031 50.55C257.604 50.55 262.701 51.43 267.321 53.19C271.941 54.8767 275.864 57.2967 279.091 60.45C282.391 63.6033 284.921 67.4167 286.681 71.89C288.514 76.29 289.431 81.2033 289.431 86.63C289.431 91.5433 288.807 95.98 287.561 99.94C286.314 103.827 284.481 107.127 282.061 109.84C279.714 112.553 276.817 114.607 273.371 116C269.997 117.467 266.147 118.2 261.821 118.2C258.301 118.2 255.111 117.687 252.251 116.66C249.391 115.707 246.897 114.35 244.771 112.59C242.717 110.757 241.104 108.593 239.931 106.1C238.831 103.533 238.281 100.71 238.281 97.63C238.281 94.77 238.721 92.2033 239.601 89.93C240.481 87.6567 241.654 85.75 243.121 84.21C244.661 82.5967 246.421 81.3867 248.401 80.58C250.454 79.7 252.654 79.26 255.001 79.26C258.154 79.26 260.611 80.03 262.371 81.57C264.204 83.11 265.121 85.1633 265.121 87.73C265.121 89.7833 264.571 91.6167 263.471 93.23C262.664 93.01 261.894 92.9 261.161 92.9C259.767 92.9 258.557 93.34 257.531 94.22C256.577 95.1 256.101 96.3467 256.101 97.96C256.101 99.5 256.614 100.747 257.641 101.7C258.741 102.653 260.134 103.13 261.821 103.13C264.901 103.13 267.211 101.663 268.751 98.73C270.364 95.7967 271.171 91.7633 271.171 86.63C271.171 83.55 270.694 80.7633 269.741 78.27C268.861 75.7033 267.577 73.54 265.891 71.78C264.277 69.9467 262.297 68.5533 259.951 67.6C257.604 66.5733 255.001 66.06 252.141 66.06C249.501 66.06 247.007 66.4633 244.661 67.27C242.314 68.0767 240.261 69.36 238.501 71.12C236.741 72.8067 235.347 74.97 234.321 77.61C233.294 80.25 232.781 83.3667 232.781 86.96C232.781 88.2067 232.781 89.27 232.781 90.15C232.854 91.03 232.891 92.0567 232.891 93.23C232.891 101.15 230.801 107.31 226.621 111.71C222.514 116.037 216.721 118.2 209.241 118.2ZM287.742 126.34C287.742 124.653 287.559 122.93 287.192 121.17C286.825 119.483 286.239 117.87 285.432 116.33C285.945 115.377 286.715 114.607 287.742 114.02C288.695 113.36 289.795 113.03 291.042 113.03C293.829 113.03 295.772 114.313 296.872 116.88C298.045 119.447 298.632 122.6 298.632 126.34C298.632 129.273 298.119 132.243 297.092 135.25C296.139 138.257 294.745 140.933 292.912 143.28C293.719 144.82 294.672 146.103 295.772 147.13C296.945 148.23 298.375 148.78 300.062 148.78C300.869 148.78 301.529 148.67 302.042 148.45C302.629 148.303 303.179 148.12 303.692 147.9C304.425 148.487 305.012 149.183 305.452 149.99C305.892 150.797 306.112 151.75 306.112 152.85C306.112 154.757 305.489 156.333 304.242 157.58C302.995 158.9 301.162 159.56 298.742 159.56C295.222 159.56 292.399 158.57 290.272 156.59C288.145 154.683 286.459 152.52 285.212 150.1C283.965 151.053 282.462 151.787 280.702 152.3C278.869 152.887 276.669 153.18 274.102 153.18C271.975 153.18 269.995 152.887 268.162 152.3C266.255 151.713 264.605 150.87 263.212 149.77C261.745 148.67 260.609 147.277 259.802 145.59C258.922 143.977 258.482 142.107 258.482 139.98C258.482 136.02 259.765 132.903 262.332 130.63C264.899 128.357 268.382 127.22 272.782 127.22C276.302 127.22 279.162 127.807 281.362 128.98C283.489 130.153 285.285 131.547 286.752 133.16C287.412 130.96 287.742 128.687 287.742 126.34ZM274.212 136.79C273.039 136.79 272.085 137.083 271.352 137.67C270.619 138.33 270.252 139.137 270.252 140.09C270.252 141.117 270.655 141.96 271.462 142.62C272.195 143.28 273.295 143.61 274.762 143.61C275.789 143.61 276.852 143.427 277.952 143.06C278.979 142.767 280.042 142.18 281.142 141.3C279.969 139.54 278.832 138.33 277.732 137.67C276.632 137.083 275.459 136.79 274.212 136.79ZM326.546 87.4C322.146 87.4 318.186 86.2633 314.666 83.99C314.96 86.85 315.656 89.5267 316.756 92.02C317.93 94.44 319.506 96.5667 321.486 98.4C323.466 100.233 325.813 101.7 328.526 102.8C331.24 103.827 334.32 104.377 337.766 104.45C338.133 105.183 338.39 106.027 338.536 106.98C338.756 107.933 338.866 108.777 338.866 109.51C338.866 111.93 338.096 113.983 336.556 115.67C335.09 117.357 332.596 118.2 329.076 118.2C324.97 118.2 321.01 117.283 317.196 115.45C313.383 113.617 310.01 111.05 307.076 107.75C304.143 104.45 301.76 100.563 299.926 96.09C298.166 91.5433 297.286 86.5933 297.286 81.24C297.286 76.62 297.946 72.44 299.266 68.7C300.586 64.8867 302.42 61.66 304.766 59.02C307.113 56.3067 309.936 54.2167 313.236 52.75C316.61 51.2833 320.313 50.55 324.346 50.55C327.866 50.55 330.946 51.1 333.586 52.2C336.226 53.3 338.426 54.73 340.186 56.49C341.946 58.25 343.266 60.2667 344.146 62.54C345.026 64.8133 345.466 67.1233 345.466 69.47C345.466 71.89 345.026 74.2 344.146 76.4C343.34 78.5267 342.13 80.4333 340.516 82.12C338.903 83.7333 336.923 85.0167 334.576 85.97C332.23 86.9233 329.553 87.4 326.546 87.4ZM323.906 74.97C325.593 74.97 326.913 74.4567 327.866 73.43C328.893 72.4033 329.406 71.12 329.406 69.58C329.406 68.1133 328.893 66.8667 327.866 65.84C326.913 64.8133 325.593 64.3 323.906 64.3C322.22 64.3 320.9 64.8133 319.946 65.84C318.993 66.8667 318.516 68.1133 318.516 69.58C318.516 71.12 318.993 72.4033 319.946 73.43C320.9 74.4567 322.22 74.97 323.906 74.97ZM379.377 86.74C376.297 86.74 373.987 87.5467 372.447 89.16C370.907 90.7733 370.137 92.7533 370.137 95.1C370.137 97.5933 370.834 99.5367 372.227 100.93C373.694 102.25 375.637 102.91 378.057 102.91C380.184 102.91 381.871 102.25 383.117 100.93C384.437 99.61 385.097 97.8867 385.097 95.76V93.23C386.124 92.57 387.407 91.9833 388.947 91.47C390.487 90.9567 392.211 90.7 394.117 90.7C396.024 90.7 397.747 90.9567 399.287 91.47C400.827 91.9833 402.111 92.57 403.137 93.23V95.76C403.137 97.96 403.797 99.72 405.117 101.04C406.511 102.287 408.344 102.91 410.617 102.91C412.964 102.91 414.797 102.213 416.117 100.82C417.437 99.4267 418.097 97.52 418.097 95.1C418.097 92.7533 417.401 90.8467 416.007 89.38C414.687 87.9133 412.671 87.18 409.957 87.18H403.797C403.357 86.3733 402.917 85.3467 402.477 84.1C402.037 82.8533 401.817 81.4967 401.817 80.03C401.817 78.5633 402.001 77.2067 402.367 75.96C402.807 74.7133 403.284 73.6867 403.797 72.88H408.417C410.617 72.88 412.267 72.3667 413.367 71.34C414.541 70.3133 415.127 69.03 415.127 67.49C415.127 63.8233 412.964 61.99 408.637 61.99C407.831 61.99 406.987 62.1 406.107 62.32C405.227 62.4667 404.494 62.65 403.907 62.87C403.321 61.99 402.807 60.9633 402.367 59.79C402.001 58.5433 401.817 57.37 401.817 56.27C401.817 53.0433 402.844 50.77 404.897 49.45C406.951 48.13 409.847 47.47 413.587 47.47C416.594 47.47 419.344 47.91 421.837 48.79C424.331 49.5967 426.457 50.7333 428.217 52.2C429.977 53.6667 431.334 55.4633 432.287 57.59C433.241 59.7167 433.717 62.0267 433.717 64.52C433.717 66.3533 433.461 68.0033 432.947 69.47C432.434 70.9367 431.737 72.22 430.857 73.32C430.051 74.42 429.134 75.3733 428.107 76.18C427.081 76.9133 426.054 77.5 425.027 77.94C428.547 79.1133 431.407 81.2767 433.607 84.43C435.881 87.5833 437.017 91.36 437.017 95.76C437.017 98.9867 436.504 101.993 435.477 104.78C434.451 107.493 432.947 109.84 430.967 111.82C428.987 113.8 426.531 115.34 423.597 116.44C420.664 117.613 417.254 118.2 413.367 118.2C410.581 118.2 408.124 117.943 405.997 117.43C403.944 116.99 402.147 116.403 400.607 115.67C399.067 114.937 397.747 114.13 396.647 113.25C395.621 112.297 394.777 111.38 394.117 110.5C392.724 112.333 390.597 114.093 387.737 115.78C384.877 117.393 381.101 118.2 376.407 118.2C372.814 118.2 369.477 117.723 366.397 116.77C363.317 115.89 360.641 114.533 358.367 112.7C356.167 110.793 354.407 108.447 353.087 105.66C351.841 102.8 351.217 99.5 351.217 95.76C351.217 91.36 352.097 87.7667 353.857 84.98C355.691 82.12 357.927 79.7367 360.567 77.83C359.174 76.5833 357.817 74.8233 356.497 72.55C355.177 70.2767 354.517 67.6 354.517 64.52C354.517 59.46 356.204 55.3533 359.577 52.2C362.951 49.0467 367.497 47.47 373.217 47.47C377.397 47.47 380.477 48.2033 382.457 49.67C384.437 51.0633 385.427 53.0433 385.427 55.61C385.427 58.47 384.584 60.8533 382.897 62.76C382.311 62.54 381.651 62.3567 380.917 62.21C380.257 62.0633 379.524 61.99 378.717 61.99C377.031 61.99 375.674 62.4667 374.647 63.42C373.621 64.3 373.107 65.6567 373.107 67.49C373.107 69.3233 373.584 70.9367 374.537 72.33C374.977 72.2567 375.381 72.22 375.747 72.22C376.187 72.1467 376.627 72.11 377.067 72.11C384.474 72.11 388.177 74.7133 388.177 79.92C388.177 81.3867 387.957 82.78 387.517 84.1C387.077 85.3467 386.454 86.4467 385.647 87.4C384.767 87.18 383.777 87.0333 382.677 86.96C381.577 86.8133 380.477 86.74 379.377 86.74Z" fill="white" fill-opacity="0.2"/>
<path d="M107.84 216.2C107.123 216.2 106.473 216.1 105.89 215.9C105.307 215.683 104.807 215.383 104.39 215C103.973 214.617 103.648 214.158 103.415 213.625C103.182 213.075 103.065 212.458 103.065 211.775C103.065 211.175 103.157 210.625 103.34 210.125C103.523 209.625 103.79 209.192 104.14 208.825C104.49 208.458 104.915 208.175 105.415 207.975C105.932 207.775 106.515 207.675 107.165 207.675C107.748 207.675 108.182 207.783 108.465 208C108.765 208.2 108.915 208.45 108.915 208.75C108.915 208.95 108.865 209.133 108.765 209.3C108.682 209.45 108.573 209.567 108.44 209.65C108.273 209.567 108.082 209.5 107.865 209.45C107.665 209.383 107.432 209.35 107.165 209.35C106.582 209.35 106.065 209.55 105.615 209.95C105.182 210.333 104.965 210.942 104.965 211.775C104.965 212.625 105.232 213.3 105.765 213.8C106.298 214.3 107.015 214.55 107.915 214.55C108.815 214.55 109.573 214.308 110.19 213.825C110.807 213.325 111.115 212.617 111.115 211.7V210.775C111.348 210.592 111.657 210.5 112.04 210.5C112.39 210.5 112.682 210.592 112.915 210.775V211.7C112.915 212.2 112.998 212.633 113.165 213C113.348 213.367 113.582 213.667 113.865 213.9C114.148 214.117 114.465 214.283 114.815 214.4C115.182 214.5 115.557 214.55 115.94 214.55C118.04 214.55 119.09 213.2 119.09 210.5C119.09 209.45 118.957 208.458 118.69 207.525C118.44 206.575 118.098 205.708 117.665 204.925C117.248 204.142 116.765 203.45 116.215 202.85C115.665 202.233 115.107 201.733 114.54 201.35C114.557 201.417 114.565 201.508 114.565 201.625C114.565 202.608 114.282 203.367 113.715 203.9C113.148 204.433 112.34 204.7 111.29 204.7C110.823 204.7 110.39 204.633 109.99 204.5C109.59 204.35 109.24 204.15 108.94 203.9C108.64 203.633 108.407 203.317 108.24 202.95C108.073 202.567 107.99 202.15 107.99 201.7C107.99 201.233 108.073 200.808 108.24 200.425C108.423 200.025 108.673 199.692 108.99 199.425C109.323 199.142 109.707 198.925 110.14 198.775C110.573 198.608 111.057 198.525 111.59 198.525C112.64 198.525 113.723 198.833 114.84 199.45C115.957 200.05 116.965 200.883 117.865 201.95C118.782 203.017 119.532 204.283 120.115 205.75C120.698 207.2 120.99 208.775 120.99 210.475C120.99 212.258 120.557 213.658 119.69 214.675C118.823 215.692 117.573 216.2 115.94 216.2C115.14 216.2 114.382 216.042 113.665 215.725C112.965 215.408 112.407 214.9 111.99 214.2C111.557 214.833 110.982 215.325 110.265 215.675C109.548 216.025 108.74 216.2 107.84 216.2ZM111.415 203.275C111.898 203.275 112.298 203.133 112.615 202.85C112.948 202.567 113.115 202.175 113.115 201.675C113.115 201.192 112.948 200.8 112.615 200.5C112.282 200.183 111.882 200.025 111.415 200.025C110.932 200.025 110.523 200.175 110.19 200.475C109.873 200.775 109.715 201.167 109.715 201.65C109.715 202.15 109.873 202.55 110.19 202.85C110.523 203.133 110.932 203.275 111.415 203.275ZM133.226 201.825C133.893 201.825 134.384 201.658 134.701 201.325C135.018 200.992 135.176 200.55 135.176 200C135.176 199.333 134.993 198.733 134.626 198.2C134.709 198.033 134.826 197.9 134.976 197.8C135.143 197.683 135.343 197.625 135.576 197.625C136.009 197.625 136.351 197.875 136.601 198.375C136.851 198.875 136.976 199.458 136.976 200.125C136.976 201.142 136.718 201.925 136.201 202.475C135.684 203.008 134.976 203.317 134.076 203.4C134.909 204.1 135.593 204.975 136.126 206.025C136.676 207.075 136.951 208.258 136.951 209.575C136.951 210.508 136.784 211.383 136.451 212.2C136.118 213 135.626 213.7 134.976 214.3C134.343 214.883 133.559 215.35 132.626 215.7C131.709 216.033 130.659 216.2 129.476 216.2C128.476 216.2 127.584 216.092 126.801 215.875C126.034 215.642 125.376 215.325 124.826 214.925C124.293 214.525 123.884 214.05 123.601 213.5C123.318 212.95 123.176 212.342 123.176 211.675C123.176 210.658 123.526 209.817 124.226 209.15C124.943 208.467 125.976 208.125 127.326 208.125H129.101C130.301 208.125 131.184 207.867 131.751 207.35C132.334 206.833 132.626 206.175 132.626 205.375C132.626 204.725 132.426 204.2 132.026 203.8C131.626 203.4 131.109 203.2 130.476 203.2C129.826 203.2 129.326 203.367 128.976 203.7C128.643 204.017 128.476 204.433 128.476 204.95C128.476 205.233 128.518 205.467 128.601 205.65C128.701 205.833 128.818 206 128.951 206.15C128.901 206.35 128.793 206.517 128.626 206.65C128.459 206.767 128.251 206.825 128.001 206.825C127.618 206.825 127.284 206.683 127.001 206.4C126.718 206.117 126.576 205.675 126.576 205.075C126.576 204.758 126.626 204.458 126.726 204.175C126.843 203.875 126.984 203.625 127.151 203.425H123.351C123.301 203.325 123.251 203.208 123.201 203.075C123.168 202.942 123.151 202.792 123.151 202.625C123.151 202.325 123.234 202.117 123.401 202C123.568 201.883 123.784 201.825 124.051 201.825H133.226ZM135.176 209.35C135.176 208.5 135.076 207.742 134.876 207.075C134.693 206.392 134.409 205.775 134.026 205.225C134.043 205.292 134.051 205.392 134.051 205.525C134.051 206.175 133.934 206.758 133.701 207.275C133.468 207.775 133.134 208.2 132.701 208.55C132.284 208.9 131.776 209.167 131.176 209.35C130.593 209.517 129.943 209.6 129.226 209.6H127.726C126.809 209.6 126.134 209.792 125.701 210.175C125.284 210.558 125.076 211.058 125.076 211.675C125.076 212.542 125.443 213.242 126.176 213.775C126.926 214.292 128.034 214.55 129.501 214.55C130.351 214.55 131.118 214.433 131.801 214.2C132.501 213.95 133.101 213.6 133.601 213.15C134.101 212.7 134.484 212.158 134.751 211.525C135.034 210.875 135.176 210.15 135.176 209.35ZM133.471 225.25C133.221 225.583 132.904 225.842 132.521 226.025C132.121 226.208 131.654 226.3 131.121 226.3C130.221 226.3 129.496 226.058 128.946 225.575C128.396 225.108 128.121 224.458 128.121 223.625C128.121 222.858 128.354 222.242 128.821 221.775C129.271 221.308 129.879 221.075 130.646 221.075C131.012 221.075 131.296 221.15 131.496 221.3C131.679 221.45 131.771 221.633 131.771 221.85C131.771 221.983 131.746 222.1 131.696 222.2C131.629 222.317 131.554 222.408 131.471 222.475C131.371 222.425 131.271 222.383 131.171 222.35C131.054 222.317 130.904 222.3 130.721 222.3C130.371 222.3 130.087 222.417 129.871 222.65C129.637 222.9 129.521 223.225 129.521 223.625C129.521 224.092 129.671 224.45 129.971 224.7C130.271 224.967 130.662 225.1 131.146 225.1C131.662 225.1 132.071 224.958 132.371 224.675C132.671 224.408 132.821 224.058 132.821 223.625V223.075C132.954 222.908 133.179 222.825 133.496 222.825C133.779 222.825 134.004 222.908 134.171 223.075V223.5C134.171 223.983 134.304 224.367 134.571 224.65C134.837 224.933 135.229 225.075 135.746 225.075C136.279 225.075 136.696 224.9 136.996 224.55C137.279 224.217 137.421 223.692 137.421 222.975C137.421 222.542 137.354 222.117 137.221 221.7C137.071 221.3 136.871 220.933 136.621 220.6C136.354 220.267 136.046 219.975 135.696 219.725C135.346 219.492 134.971 219.325 134.571 219.225H132.196C132.079 219.042 132.021 218.842 132.021 218.625C132.021 218.225 132.246 218.025 132.696 218.025H136.746C137.129 218.025 137.321 217.858 137.321 217.525C137.321 217.342 137.271 217.158 137.171 216.975C137.221 216.858 137.312 216.767 137.446 216.7C137.579 216.633 137.712 216.6 137.846 216.6C138.112 216.6 138.321 216.692 138.471 216.875C138.621 217.058 138.696 217.317 138.696 217.65C138.696 218.1 138.537 218.467 138.221 218.75C137.904 219.033 137.487 219.192 136.971 219.225C137.221 219.425 137.462 219.658 137.696 219.925C137.912 220.208 138.104 220.517 138.271 220.85C138.437 221.183 138.571 221.525 138.671 221.875C138.771 222.242 138.821 222.608 138.821 222.975C138.821 224.025 138.546 224.842 137.996 225.425C137.446 226.008 136.696 226.3 135.746 226.3C135.229 226.3 134.779 226.208 134.396 226.025C134.012 225.842 133.704 225.583 133.471 225.25ZM144.096 216.2C143.379 216.2 142.729 216.1 142.146 215.9C141.562 215.683 141.062 215.383 140.646 215C140.229 214.617 139.904 214.158 139.671 213.625C139.437 213.075 139.321 212.458 139.321 211.775C139.321 211.175 139.412 210.625 139.596 210.125C139.779 209.625 140.046 209.192 140.396 208.825C140.746 208.458 141.171 208.175 141.671 207.975C142.187 207.775 142.771 207.675 143.421 207.675C144.004 207.675 144.437 207.783 144.721 208C145.021 208.2 145.171 208.45 145.171 208.75C145.171 208.95 145.121 209.133 145.021 209.3C144.937 209.45 144.829 209.567 144.696 209.65C144.529 209.567 144.337 209.5 144.121 209.45C143.921 209.383 143.687 209.35 143.421 209.35C142.837 209.35 142.321 209.55 141.871 209.95C141.437 210.333 141.221 210.942 141.221 211.775C141.221 212.625 141.487 213.3 142.021 213.8C142.554 214.3 143.271 214.55 144.171 214.55C144.604 214.55 145.012 214.492 145.396 214.375C145.796 214.258 146.137 214.083 146.421 213.85C146.721 213.617 146.954 213.333 147.121 213C147.287 212.667 147.371 212.283 147.371 211.85V210.775C147.604 210.592 147.912 210.5 148.296 210.5C148.646 210.5 148.937 210.592 149.171 210.775V211.7C149.171 212.2 149.254 212.633 149.421 213C149.604 213.367 149.837 213.667 150.121 213.9C150.404 214.117 150.721 214.283 151.071 214.4C151.437 214.5 151.812 214.55 152.196 214.55C154.296 214.55 155.346 213.2 155.346 210.5C155.346 209.717 155.204 208.942 154.921 208.175C154.654 207.408 154.279 206.708 153.796 206.075C153.312 205.442 152.729 204.892 152.046 204.425C151.379 203.958 150.637 203.625 149.821 203.425H139.496C139.446 203.325 139.396 203.208 139.346 203.075C139.312 202.942 139.296 202.792 139.296 202.625C139.296 202.325 139.379 202.117 139.546 202C139.712 201.883 139.929 201.825 140.196 201.825H153.346C154.146 201.825 154.762 201.658 155.196 201.325C155.646 200.975 155.871 200.492 155.871 199.875C155.871 199.425 155.729 199.067 155.446 198.8C155.179 198.517 154.829 198.375 154.396 198.375C154.029 198.375 153.704 198.483 153.421 198.7C153.137 198.917 152.996 199.25 152.996 199.7C152.996 199.85 153.012 200.008 153.046 200.175C152.996 200.208 152.912 200.25 152.796 200.3C152.679 200.35 152.529 200.375 152.346 200.375C152.029 200.375 151.771 200.283 151.571 200.1C151.387 199.917 151.296 199.625 151.296 199.225C151.296 198.475 151.579 197.883 152.146 197.45C152.729 197.017 153.462 196.8 154.346 196.8C154.796 196.8 155.221 196.875 155.621 197.025C156.021 197.158 156.362 197.358 156.646 197.625C156.946 197.892 157.179 198.225 157.346 198.625C157.529 199.008 157.621 199.45 157.621 199.95C157.621 201.1 157.229 201.967 156.446 202.55C155.679 203.133 154.671 203.425 153.421 203.425H153.146C153.696 203.692 154.221 204.075 154.721 204.575C155.221 205.058 155.654 205.625 156.021 206.275C156.404 206.908 156.704 207.592 156.921 208.325C157.137 209.042 157.246 209.758 157.246 210.475C157.246 212.258 156.812 213.658 155.946 214.675C155.079 215.692 153.829 216.2 152.196 216.2C151.396 216.2 150.637 216.042 149.921 215.725C149.204 215.408 148.637 214.9 148.221 214.2C147.804 214.85 147.237 215.35 146.521 215.7C145.804 216.033 144.996 216.2 144.096 216.2ZM168.631 214.525C169.447 214.525 170.239 214.4 171.006 214.15C171.789 213.883 172.481 213.492 173.081 212.975C173.681 212.442 174.164 211.783 174.531 211C174.897 210.2 175.081 209.267 175.081 208.2C175.081 207.45 174.981 206.767 174.781 206.15C174.581 205.517 174.314 204.967 173.981 204.5C173.647 204.017 173.256 203.617 172.806 203.3C172.356 202.967 171.881 202.725 171.381 202.575C171.381 202.158 171.481 201.85 171.681 201.65C171.881 201.433 172.122 201.325 172.406 201.325C172.622 201.325 172.872 201.375 173.156 201.475C173.439 201.558 173.739 201.708 174.056 201.925C174.422 202.175 174.781 202.492 175.131 202.875C175.481 203.258 175.789 203.717 176.056 204.25C176.339 204.767 176.564 205.358 176.731 206.025C176.897 206.692 176.981 207.425 176.981 208.225C176.981 209.458 176.772 210.575 176.356 211.575C175.939 212.558 175.356 213.392 174.606 214.075C173.872 214.758 172.989 215.283 171.956 215.65C170.939 216.017 169.822 216.2 168.606 216.2C167.289 216.2 166.089 216 165.006 215.6C163.939 215.183 163.022 214.608 162.256 213.875C161.506 213.125 160.922 212.233 160.506 211.2C160.106 210.167 159.906 209.025 159.906 207.775C159.906 206.775 160.014 205.883 160.231 205.1C160.464 204.3 160.781 203.625 161.181 203.075C161.597 202.508 162.089 202.075 162.656 201.775C163.239 201.475 163.881 201.325 164.581 201.325C165.114 201.325 165.606 201.417 166.056 201.6C166.522 201.783 166.922 202.042 167.256 202.375C167.606 202.708 167.872 203.1 168.056 203.55C168.256 204 168.356 204.492 168.356 205.025C168.356 205.542 168.264 206.017 168.081 206.45C167.914 206.883 167.672 207.258 167.356 207.575C167.056 207.875 166.681 208.117 166.231 208.3C165.797 208.467 165.322 208.55 164.806 208.55C164.072 208.55 163.431 208.408 162.881 208.125C162.347 207.825 161.956 207.408 161.706 206.875C161.689 207.008 161.681 207.158 161.681 207.325C161.681 207.475 161.681 207.642 161.681 207.825C161.681 208.825 161.856 209.742 162.206 210.575C162.572 211.392 163.064 212.092 163.681 212.675C164.314 213.258 165.047 213.717 165.881 214.05C166.731 214.367 167.647 214.525 168.631 214.525ZM164.531 206.9C165.114 206.9 165.589 206.725 165.956 206.375C166.322 206.008 166.506 205.558 166.506 205.025C166.506 204.442 166.322 203.958 165.956 203.575C165.606 203.175 165.131 202.975 164.531 202.975C163.947 202.975 163.464 203.167 163.081 203.55C162.697 203.917 162.506 204.392 162.506 204.975C162.506 205.542 162.697 206.008 163.081 206.375C163.481 206.725 163.964 206.9 164.531 206.9ZM176.133 223.325C175.95 223.475 175.725 223.55 175.458 223.55C175.175 223.55 174.958 223.475 174.808 223.325V221.475C174.808 220.975 174.641 220.567 174.308 220.25C173.975 219.933 173.566 219.775 173.083 219.775C172.533 219.775 172.091 219.967 171.758 220.35C171.425 220.733 171.258 221.225 171.258 221.825C171.258 222.608 171.458 223.233 171.858 223.7C172.241 224.167 172.666 224.508 173.133 224.725C173.133 224.925 173.075 225.108 172.958 225.275C172.825 225.442 172.641 225.525 172.408 225.525C172.158 225.525 171.883 225.442 171.583 225.275C171.283 225.108 171.008 224.858 170.758 224.525C170.491 224.208 170.275 223.817 170.108 223.35C169.941 222.9 169.858 222.383 169.858 221.8C169.858 221.333 169.941 220.9 170.108 220.5C170.258 220.1 170.475 219.75 170.758 219.45C171.025 219.167 171.358 218.942 171.758 218.775C172.141 218.625 172.558 218.55 173.008 218.55C174.141 218.55 174.966 218.95 175.483 219.75C176 218.95 176.816 218.55 177.933 218.55C178.85 218.55 179.6 218.85 180.183 219.45C180.783 220.05 181.083 220.833 181.083 221.8C181.083 222.383 181 222.9 180.833 223.35C180.666 223.817 180.45 224.208 180.183 224.525C179.933 224.858 179.658 225.108 179.358 225.275C179.058 225.442 178.783 225.525 178.533 225.525C178.3 225.525 178.125 225.442 178.008 225.275C177.875 225.108 177.808 224.925 177.808 224.725C178.275 224.508 178.7 224.167 179.083 223.7C179.483 223.233 179.683 222.608 179.683 221.825C179.683 221.208 179.516 220.708 179.183 220.325C178.85 219.958 178.408 219.775 177.858 219.775C177.341 219.775 176.925 219.95 176.608 220.3C176.291 220.65 176.133 221.1 176.133 221.65V223.325ZM199.883 212.1C199.866 211.567 199.841 211.033 199.808 210.5C199.791 209.967 199.783 209.433 199.783 208.9C199.783 207.633 199.966 206.525 200.333 205.575C200.716 204.625 201.225 203.833 201.858 203.2C202.491 202.567 203.225 202.1 204.058 201.8C204.908 201.483 205.808 201.325 206.758 201.325C207.908 201.325 208.933 201.525 209.833 201.925C210.733 202.308 211.491 202.842 212.108 203.525C212.741 204.208 213.225 205.025 213.558 205.975C213.891 206.925 214.058 207.958 214.058 209.075C214.058 210.275 213.916 211.325 213.633 212.225C213.366 213.108 212.983 213.85 212.483 214.45C211.983 215.033 211.391 215.475 210.708 215.775C210.025 216.058 209.275 216.2 208.458 216.2C207.858 216.2 207.291 216.108 206.758 215.925C206.225 215.725 205.75 215.45 205.333 215.1C204.916 214.75 204.583 214.317 204.333 213.8C204.1 213.283 203.983 212.7 203.983 212.05C203.983 211.417 204.083 210.858 204.283 210.375C204.5 209.875 204.783 209.467 205.133 209.15C205.483 208.817 205.875 208.567 206.308 208.4C206.758 208.233 207.208 208.15 207.658 208.15C208.258 208.15 208.675 208.267 208.908 208.5C209.158 208.717 209.283 208.958 209.283 209.225C209.283 209.492 209.208 209.717 209.058 209.9C208.875 209.85 208.708 209.817 208.558 209.8C208.425 209.783 208.275 209.775 208.108 209.775C207.441 209.775 206.9 209.992 206.483 210.425C206.066 210.858 205.858 211.417 205.858 212.1C205.858 212.85 206.1 213.442 206.583 213.875C207.066 214.308 207.683 214.525 208.433 214.525C209.55 214.525 210.45 214.067 211.133 213.15C211.816 212.233 212.158 210.875 212.158 209.075C212.158 208.142 212.041 207.3 211.808 206.55C211.575 205.783 211.225 205.133 210.758 204.6C210.308 204.067 209.741 203.658 209.058 203.375C208.391 203.075 207.625 202.925 206.758 202.925C206.008 202.925 205.316 203.058 204.683 203.325C204.05 203.575 203.5 203.958 203.033 204.475C202.583 204.992 202.225 205.625 201.958 206.375C201.708 207.125 201.583 207.983 201.583 208.95C201.583 209.467 201.6 209.992 201.633 210.525C201.666 211.058 201.683 211.583 201.683 212.1C201.683 213.567 201.491 214.858 201.108 215.975C200.741 217.075 200.208 218 199.508 218.75C198.808 219.5 197.958 220.058 196.958 220.425C195.958 220.808 194.833 221 193.583 221C192.616 221 191.775 220.908 191.058 220.725C190.358 220.542 189.766 220.308 189.283 220.025C188.816 219.758 188.466 219.458 188.233 219.125C188 218.792 187.883 218.483 187.883 218.2C187.883 217.933 187.975 217.717 188.158 217.55C188.358 217.383 188.608 217.283 188.908 217.25C189.091 217.533 189.308 217.8 189.558 218.05C189.825 218.3 190.141 218.517 190.508 218.7C190.875 218.883 191.308 219.033 191.808 219.15C192.308 219.267 192.9 219.325 193.583 219.325C194.55 219.325 195.416 219.183 196.183 218.9C196.966 218.617 197.633 218.183 198.183 217.6C198.733 217.017 199.15 216.267 199.433 215.35C199.733 214.433 199.883 213.35 199.883 212.1ZM184.208 216.2C183.491 216.2 182.841 216.1 182.258 215.9C181.675 215.683 181.175 215.383 180.758 215C180.341 214.617 180.016 214.158 179.783 213.625C179.55 213.075 179.433 212.458 179.433 211.775C179.433 211.175 179.525 210.625 179.708 210.125C179.891 209.625 180.158 209.192 180.508 208.825C180.858 208.458 181.283 208.175 181.783 207.975C182.3 207.775 182.883 207.675 183.533 207.675C184.116 207.675 184.55 207.783 184.833 208C185.133 208.2 185.283 208.45 185.283 208.75C185.283 208.95 185.233 209.133 185.133 209.3C185.05 209.45 184.941 209.567 184.808 209.65C184.641 209.567 184.45 209.5 184.233 209.45C184.033 209.383 183.8 209.35 183.533 209.35C182.95 209.35 182.433 209.55 181.983 209.95C181.55 210.333 181.333 210.942 181.333 211.775C181.333 212.625 181.6 213.3 182.133 213.8C182.666 214.3 183.383 214.55 184.283 214.55C185.183 214.55 185.941 214.308 186.558 213.825C187.175 213.325 187.483 212.617 187.483 211.7V210.775C187.716 210.592 188.025 210.5 188.408 210.5C188.758 210.5 189.05 210.592 189.283 210.775V211.7C189.283 212.2 189.366 212.633 189.533 213C189.716 213.367 189.95 213.667 190.233 213.9C190.516 214.117 190.833 214.283 191.183 214.4C191.55 214.5 191.925 214.55 192.308 214.55C194.408 214.55 195.458 213.2 195.458 210.5C195.458 209.717 195.316 208.942 195.033 208.175C194.766 207.408 194.391 206.708 193.908 206.075C193.425 205.442 192.841 204.892 192.158 204.425C191.491 203.958 190.75 203.625 189.933 203.425H179.608C179.558 203.325 179.508 203.208 179.458 203.075C179.425 202.942 179.408 202.792 179.408 202.625C179.408 202.325 179.491 202.117 179.658 202C179.825 201.883 180.041 201.825 180.308 201.825H193.358C194.025 201.825 194.516 201.658 194.833 201.325C195.15 200.992 195.308 200.55 195.308 200C195.308 199.333 195.125 198.733 194.758 198.2C194.841 198.033 194.958 197.9 195.108 197.8C195.275 197.683 195.475 197.625 195.708 197.625C196.141 197.625 196.483 197.875 196.733 198.375C196.983 198.875 197.108 199.458 197.108 200.125C197.108 201.242 196.791 202.075 196.158 202.625C195.541 203.158 194.708 203.425 193.658 203.425H193.258C193.808 203.692 194.333 204.075 194.833 204.575C195.333 205.058 195.766 205.625 196.133 206.275C196.516 206.908 196.816 207.592 197.033 208.325C197.25 209.042 197.358 209.758 197.358 210.475C197.358 212.258 196.925 213.658 196.058 214.675C195.191 215.692 193.941 216.2 192.308 216.2C191.508 216.2 190.75 216.042 190.033 215.725C189.316 215.408 188.75 214.9 188.333 214.2C187.916 214.85 187.35 215.35 186.633 215.7C185.916 216.033 185.108 216.2 184.208 216.2ZM224.387 209.2C224.387 208.017 224.62 206.908 225.087 205.875C225.553 204.825 226.237 204.008 227.137 203.425H224.062C224.012 203.325 223.962 203.208 223.912 203.075C223.878 202.942 223.862 202.792 223.862 202.625C223.862 202.325 223.945 202.117 224.112 202C224.278 201.883 224.495 201.825 224.762 201.825H235.262C235.928 201.825 236.42 201.658 236.737 201.325C237.053 200.992 237.212 200.55 237.212 200C237.212 199.333 237.028 198.733 236.662 198.2C236.745 198.033 236.862 197.9 237.012 197.8C237.178 197.683 237.378 197.625 237.612 197.625C238.045 197.625 238.387 197.875 238.637 198.375C238.887 198.875 239.012 199.458 239.012 200.125C239.012 201.225 238.703 202.042 238.087 202.575C237.487 203.108 236.687 203.392 235.687 203.425C236.153 203.708 236.57 204.067 236.937 204.5C237.32 204.933 237.637 205.408 237.887 205.925C238.153 206.425 238.353 206.958 238.487 207.525C238.62 208.092 238.687 208.65 238.687 209.2C238.687 210.317 238.503 211.308 238.137 212.175C237.77 213.042 237.262 213.775 236.612 214.375C235.962 214.975 235.195 215.433 234.312 215.75C233.445 216.05 232.512 216.2 231.512 216.2C230.512 216.2 229.578 216.033 228.712 215.7C227.845 215.367 227.087 214.9 226.437 214.3C225.803 213.683 225.303 212.942 224.937 212.075C224.57 211.208 224.387 210.25 224.387 209.2ZM231.537 203.425C230.803 203.425 230.12 203.567 229.487 203.85C228.853 204.117 228.295 204.5 227.812 205C227.345 205.5 226.97 206.1 226.687 206.8C226.42 207.483 226.287 208.25 226.287 209.1C226.287 209.917 226.412 210.658 226.662 211.325C226.928 211.992 227.295 212.567 227.762 213.05C228.228 213.517 228.778 213.883 229.412 214.15C230.062 214.4 230.778 214.525 231.562 214.525C233.162 214.525 234.428 214.05 235.362 213.1C236.312 212.15 236.787 210.817 236.787 209.1C236.787 208.25 236.645 207.483 236.362 206.8C236.095 206.1 235.72 205.5 235.237 205C234.77 204.5 234.22 204.117 233.587 203.85C232.953 203.567 232.27 203.425 231.537 203.425ZM248.267 216.2C247.267 216.2 246.358 216.033 245.542 215.7C244.725 215.35 244.025 214.867 243.442 214.25C242.858 213.617 242.408 212.867 242.092 212C241.775 211.117 241.617 210.142 241.617 209.075C241.617 207.992 241.775 207.008 242.092 206.125C242.408 205.242 242.858 204.483 243.442 203.85C244.025 203.217 244.725 202.733 245.542 202.4C246.358 202.05 247.267 201.875 248.267 201.875C249.267 201.875 250.175 202.05 250.992 202.4C251.808 202.733 252.508 203.217 253.092 203.85C253.675 204.483 254.125 205.242 254.442 206.125C254.758 207.008 254.917 207.992 254.917 209.075C254.917 210.142 254.758 211.117 254.442 212C254.125 212.867 253.675 213.617 253.092 214.25C252.508 214.867 251.808 215.35 250.992 215.7C250.175 216.033 249.267 216.2 248.267 216.2ZM248.267 214.525C248.983 214.525 249.633 214.392 250.217 214.125C250.8 213.858 251.3 213.492 251.717 213.025C252.133 212.542 252.45 211.967 252.667 211.3C252.9 210.617 253.017 209.867 253.017 209.05C253.017 208.233 252.9 207.483 252.667 206.8C252.45 206.117 252.133 205.542 251.717 205.075C251.3 204.592 250.8 204.217 250.217 203.95C249.633 203.683 248.983 203.55 248.267 203.55C247.55 203.55 246.9 203.683 246.317 203.95C245.733 204.217 245.233 204.592 244.817 205.075C244.4 205.542 244.075 206.117 243.842 206.8C243.625 207.483 243.517 208.233 243.517 209.05C243.517 209.867 243.625 210.617 243.842 211.3C244.075 211.967 244.4 212.542 244.817 213.025C245.233 213.492 245.733 213.858 246.317 214.125C246.9 214.392 247.55 214.525 248.267 214.525ZM268.185 203.425C268.601 203.742 268.993 204.15 269.36 204.65C269.743 205.15 270.076 205.783 270.36 206.55C270.66 207.317 270.893 208.242 271.06 209.325C271.226 210.408 271.31 211.683 271.31 213.15V216.075C271.076 216.192 270.793 216.25 270.46 216.25C269.826 216.25 269.51 215.933 269.51 215.3V212.7C269.51 211.283 269.41 210 269.21 208.85C269.026 207.7 268.735 206.725 268.335 205.925C267.935 205.125 267.426 204.508 266.81 204.075C266.21 203.642 265.493 203.425 264.66 203.425C263.826 203.425 263.101 203.658 262.485 204.125C261.885 204.592 261.385 205.242 260.985 206.075C260.585 206.892 260.285 207.875 260.085 209.025C259.885 210.158 259.785 211.4 259.785 212.75V216.075C259.551 216.192 259.268 216.25 258.935 216.25C258.301 216.25 257.985 215.933 257.985 215.3V213.175C257.985 211.658 258.068 210.358 258.235 209.275C258.401 208.192 258.626 207.267 258.91 206.5C259.21 205.733 259.543 205.108 259.91 204.625C260.293 204.142 260.693 203.742 261.11 203.425H257.61C257.56 203.325 257.51 203.208 257.46 203.075C257.426 202.942 257.41 202.792 257.41 202.625C257.41 202.325 257.493 202.117 257.66 202C257.826 201.883 258.043 201.825 258.31 201.825H268.41C269.076 201.825 269.568 201.658 269.885 201.325C270.201 200.992 270.36 200.55 270.36 200C270.36 199.333 270.176 198.733 269.81 198.2C269.893 198.033 270.01 197.9 270.16 197.8C270.326 197.683 270.526 197.625 270.76 197.625C271.193 197.625 271.535 197.875 271.785 198.375C272.035 198.875 272.16 199.458 272.16 200.125C272.16 201.242 271.843 202.075 271.21 202.625C270.593 203.158 269.76 203.425 268.71 203.425H268.185ZM274.233 211.775C274.233 211.175 274.324 210.625 274.508 210.125C274.691 209.625 274.958 209.192 275.308 208.825C275.658 208.458 276.083 208.175 276.583 207.975C277.099 207.775 277.683 207.675 278.333 207.675C278.916 207.675 279.349 207.783 279.633 208C279.933 208.2 280.083 208.45 280.083 208.75C280.083 208.95 280.033 209.133 279.933 209.3C279.849 209.45 279.741 209.567 279.608 209.65C279.441 209.567 279.249 209.5 279.033 209.45C278.833 209.383 278.599 209.35 278.333 209.35C277.749 209.35 277.233 209.55 276.783 209.95C276.349 210.333 276.133 210.942 276.133 211.775C276.133 212.625 276.399 213.3 276.933 213.8C277.466 214.3 278.183 214.55 279.083 214.55C279.983 214.55 280.741 214.308 281.358 213.825C281.974 213.325 282.283 212.617 282.283 211.7V210.775C282.516 210.592 282.824 210.5 283.208 210.5C283.558 210.5 283.849 210.592 284.083 210.775V211.7C284.083 212.2 284.166 212.633 284.333 213C284.516 213.367 284.749 213.667 285.033 213.9C285.316 214.117 285.633 214.283 285.983 214.4C286.349 214.5 286.724 214.55 287.108 214.55C289.208 214.55 290.258 213.2 290.258 210.5C290.258 209.717 290.116 208.942 289.833 208.175C289.566 207.408 289.191 206.708 288.708 206.075C288.224 205.442 287.641 204.892 286.958 204.425C286.291 203.958 285.549 203.625 284.733 203.425H274.408C274.358 203.325 274.308 203.208 274.258 203.075C274.224 202.942 274.208 202.792 274.208 202.625C274.208 202.325 274.291 202.117 274.458 202C274.624 201.883 274.841 201.825 275.108 201.825H288.158C288.824 201.825 289.316 201.667 289.633 201.35C289.949 201.017 290.108 200.575 290.108 200.025C290.108 199.358 289.924 198.758 289.558 198.225C289.641 198.058 289.758 197.925 289.908 197.825C290.074 197.708 290.274 197.65 290.508 197.65C290.941 197.65 291.283 197.9 291.533 198.4C291.783 198.9 291.908 199.483 291.908 200.15C291.908 201.267 291.591 202.092 290.958 202.625C290.341 203.158 289.508 203.425 288.458 203.425H288.058C288.608 203.692 289.133 204.075 289.633 204.575C290.133 205.058 290.566 205.625 290.933 206.275C291.316 206.908 291.616 207.592 291.833 208.325C292.049 209.042 292.158 209.758 292.158 210.475C292.158 211.458 292.016 212.35 291.733 213.15C292.116 213.517 292.591 213.825 293.158 214.075C293.724 214.325 294.366 214.45 295.083 214.45C295.699 214.45 296.266 214.333 296.783 214.1C297.316 213.867 297.766 213.533 298.133 213.1C298.499 212.65 298.783 212.108 298.983 211.475C299.199 210.825 299.308 210.1 299.308 209.3C299.308 208.25 299.174 207.342 298.908 206.575C298.641 205.792 298.291 205.125 297.858 204.575C297.441 204.025 296.966 203.583 296.433 203.25C295.899 202.917 295.366 202.675 294.833 202.525C294.833 202.158 294.908 201.858 295.058 201.625C295.208 201.375 295.491 201.25 295.908 201.25C296.174 201.25 296.491 201.325 296.858 201.475C297.224 201.608 297.599 201.817 297.983 202.1C298.383 202.383 298.774 202.75 299.158 203.2C299.541 203.633 299.883 204.15 300.183 204.75C300.483 205.35 300.724 206.033 300.908 206.8C301.108 207.567 301.208 208.417 301.208 209.35C301.208 210.4 301.058 211.35 300.758 212.2C300.458 213.033 300.041 213.742 299.508 214.325C298.991 214.908 298.358 215.358 297.608 215.675C296.874 215.975 296.074 216.125 295.208 216.125C294.224 216.125 293.374 215.983 292.658 215.7C291.941 215.417 291.341 215.075 290.858 214.675C290.424 215.158 289.891 215.533 289.258 215.8C288.641 216.067 287.924 216.2 287.108 216.2C286.308 216.2 285.549 216.042 284.833 215.725C284.116 215.408 283.549 214.9 283.133 214.2C282.716 214.85 282.149 215.35 281.433 215.7C280.716 216.033 279.908 216.2 279.008 216.2C278.291 216.2 277.641 216.1 277.058 215.9C276.474 215.683 275.974 215.383 275.558 215C275.141 214.617 274.816 214.158 274.583 213.625C274.349 213.075 274.233 212.458 274.233 211.775ZM310.278 216.2C309.278 216.2 308.37 216.033 307.553 215.7C306.737 215.35 306.037 214.867 305.453 214.25C304.87 213.617 304.42 212.867 304.103 212C303.787 211.117 303.628 210.142 303.628 209.075C303.628 207.992 303.787 207.008 304.103 206.125C304.42 205.242 304.87 204.483 305.453 203.85C306.037 203.217 306.737 202.733 307.553 202.4C308.37 202.05 309.278 201.875 310.278 201.875C311.278 201.875 312.187 202.05 313.003 202.4C313.82 202.733 314.52 203.217 315.103 203.85C315.687 204.483 316.137 205.242 316.453 206.125C316.77 207.008 316.928 207.992 316.928 209.075C316.928 210.142 316.77 211.117 316.453 212C316.137 212.867 315.687 213.617 315.103 214.25C314.52 214.867 313.82 215.35 313.003 215.7C312.187 216.033 311.278 216.2 310.278 216.2ZM310.278 214.525C310.995 214.525 311.645 214.392 312.228 214.125C312.812 213.858 313.312 213.492 313.728 213.025C314.145 212.542 314.462 211.967 314.678 211.3C314.912 210.617 315.028 209.867 315.028 209.05C315.028 208.233 314.912 207.483 314.678 206.8C314.462 206.117 314.145 205.542 313.728 205.075C313.312 204.592 312.812 204.217 312.228 203.95C311.645 203.683 310.995 203.55 310.278 203.55C309.562 203.55 308.912 203.683 308.328 203.95C307.745 204.217 307.245 204.592 306.828 205.075C306.412 205.542 306.087 206.117 305.853 206.8C305.637 207.483 305.528 208.233 305.528 209.05C305.528 209.867 305.637 210.617 305.853 211.3C306.087 211.967 306.412 212.542 306.828 213.025C307.245 213.492 307.745 213.858 308.328 214.125C308.912 214.392 309.562 214.525 310.278 214.525ZM319.796 211.45C319.796 210.55 319.98 209.792 320.346 209.175C320.73 208.542 321.205 208.067 321.771 207.75C321.388 207.433 321.063 207.042 320.796 206.575C320.546 206.108 320.421 205.542 320.421 204.875C320.421 204.292 320.521 203.775 320.721 203.325C320.938 202.875 321.221 202.5 321.571 202.2C321.938 201.9 322.355 201.675 322.821 201.525C323.288 201.375 323.78 201.3 324.296 201.3C325.046 201.3 325.621 201.417 326.021 201.65C326.421 201.867 326.621 202.158 326.621 202.525C326.621 202.675 326.58 202.825 326.496 202.975C326.43 203.108 326.338 203.217 326.221 203.3C325.988 203.2 325.73 203.117 325.446 203.05C325.18 202.983 324.863 202.95 324.496 202.95C323.88 202.95 323.363 203.133 322.946 203.5C322.53 203.867 322.321 204.358 322.321 204.975C322.321 205.358 322.405 205.725 322.571 206.075C322.738 206.425 322.963 206.717 323.246 206.95C323.746 206.817 324.188 206.75 324.571 206.75C325.421 206.75 326.021 206.875 326.371 207.125C326.721 207.358 326.896 207.625 326.896 207.925C326.896 208.292 326.78 208.592 326.546 208.825C326.38 208.758 326.138 208.692 325.821 208.625C325.505 208.542 325.146 208.5 324.746 208.5C324.33 208.5 323.938 208.567 323.571 208.7C323.205 208.817 322.88 209 322.596 209.25C322.33 209.5 322.113 209.817 321.946 210.2C321.78 210.567 321.696 211 321.696 211.5C321.696 212.467 321.996 213.217 322.596 213.75C323.213 214.283 323.98 214.55 324.896 214.55C325.713 214.55 326.388 214.308 326.921 213.825C327.471 213.342 327.746 212.675 327.746 211.825V210.775C328.013 210.592 328.313 210.5 328.646 210.5C328.98 210.5 329.28 210.592 329.546 210.775V211.675C329.546 212.542 329.838 213.242 330.421 213.775C331.021 214.292 331.805 214.55 332.771 214.55C333.121 214.55 333.455 214.492 333.771 214.375C334.088 214.242 334.371 214.058 334.621 213.825C334.871 213.575 335.063 213.283 335.196 212.95C335.346 212.6 335.421 212.2 335.421 211.75C335.421 210.883 335.13 210.167 334.546 209.6C333.98 209.033 333.146 208.75 332.046 208.75H331.221C331.071 208.583 330.996 208.333 330.996 208C330.996 207.783 331.071 207.533 331.221 207.25H332.421C333.055 207.25 333.596 207.058 334.046 206.675C334.513 206.275 334.746 205.725 334.746 205.025C334.746 204.325 334.505 203.808 334.021 203.475C333.555 203.125 332.98 202.95 332.296 202.95C331.98 202.95 331.696 202.983 331.446 203.05C331.196 203.1 330.946 203.183 330.696 203.3C330.613 203.217 330.521 203.108 330.421 202.975C330.338 202.825 330.296 202.658 330.296 202.475C330.296 202.258 330.355 202.075 330.471 201.925C330.605 201.775 330.771 201.658 330.971 201.575C331.188 201.475 331.421 201.408 331.671 201.375C331.938 201.325 332.205 201.3 332.471 201.3C333.021 201.3 333.546 201.383 334.046 201.55C334.546 201.717 334.98 201.958 335.346 202.275C335.73 202.575 336.03 202.942 336.246 203.375C336.48 203.808 336.596 204.3 336.596 204.85C336.596 205.567 336.421 206.2 336.071 206.75C335.738 207.3 335.28 207.708 334.696 207.975C335.546 208.325 336.196 208.842 336.646 209.525C337.096 210.192 337.321 210.958 337.321 211.825C337.321 212.525 337.205 213.15 336.971 213.7C336.738 214.233 336.421 214.692 336.021 215.075C335.621 215.442 335.146 215.725 334.596 215.925C334.063 216.108 333.488 216.2 332.871 216.2C331.938 216.2 331.113 216.025 330.396 215.675C329.68 215.308 329.13 214.783 328.746 214.1C328.38 214.767 327.863 215.283 327.196 215.65C326.546 216.017 325.755 216.2 324.821 216.2C324.105 216.2 323.438 216.092 322.821 215.875C322.205 215.658 321.671 215.342 321.221 214.925C320.771 214.508 320.421 214.008 320.171 213.425C319.921 212.842 319.796 212.183 319.796 211.45ZM352.563 216.2C351.68 216.2 350.888 216.033 350.188 215.7C349.488 215.35 348.946 214.85 348.563 214.2C348.146 214.85 347.571 215.35 346.838 215.7C346.121 216.033 345.313 216.2 344.413 216.2C343.696 216.2 343.046 216.1 342.463 215.9C341.88 215.683 341.38 215.383 340.963 215C340.546 214.617 340.221 214.158 339.988 213.625C339.755 213.075 339.638 212.458 339.638 211.775C339.638 211.175 339.73 210.625 339.913 210.125C340.096 209.625 340.363 209.192 340.713 208.825C341.063 208.458 341.488 208.175 341.988 207.975C342.505 207.775 343.088 207.675 343.738 207.675C344.321 207.675 344.755 207.783 345.038 208C345.338 208.2 345.488 208.45 345.488 208.75C345.488 208.95 345.438 209.133 345.338 209.3C345.255 209.45 345.146 209.567 345.013 209.65C344.846 209.567 344.655 209.5 344.438 209.45C344.238 209.383 344.005 209.35 343.738 209.35C343.155 209.35 342.638 209.55 342.188 209.95C341.755 210.333 341.538 210.942 341.538 211.775C341.538 212.625 341.805 213.3 342.338 213.8C342.871 214.3 343.588 214.55 344.488 214.55C345.388 214.55 346.146 214.308 346.763 213.825C347.38 213.325 347.688 212.617 347.688 211.7V210.775C347.921 210.592 348.23 210.5 348.613 210.5C348.963 210.5 349.255 210.592 349.488 210.775V211.85C349.488 212.317 349.563 212.717 349.713 213.05C349.88 213.383 350.096 213.667 350.363 213.9C350.646 214.117 350.971 214.283 351.338 214.4C351.705 214.5 352.096 214.55 352.513 214.55C353.396 214.55 354.096 214.267 354.613 213.7C355.146 213.133 355.413 212.35 355.413 211.35C355.413 210.3 355.188 209.433 354.738 208.75C354.288 208.05 353.68 207.5 352.913 207.1C352.913 206.783 352.988 206.517 353.138 206.3C353.305 206.067 353.546 205.95 353.863 205.95C354.096 205.95 354.346 206.017 354.613 206.15C354.88 206.267 355.171 206.475 355.488 206.775C355.938 207.208 356.355 207.817 356.738 208.6C357.121 209.367 357.313 210.283 357.313 211.35C357.313 212.85 356.88 214.033 356.013 214.9C355.163 215.767 354.013 216.2 352.563 216.2ZM339.813 203.425C339.763 203.325 339.713 203.208 339.663 203.075C339.63 202.942 339.613 202.792 339.613 202.625C339.613 202.325 339.696 202.117 339.863 202C340.03 201.883 340.246 201.825 340.513 201.825H353.563C354.23 201.825 354.721 201.658 355.038 201.325C355.355 200.992 355.513 200.55 355.513 200C355.513 199.333 355.33 198.733 354.963 198.2C355.046 198.033 355.163 197.9 355.313 197.8C355.48 197.683 355.68 197.625 355.913 197.625C356.346 197.625 356.688 197.875 356.938 198.375C357.188 198.875 357.313 199.458 357.313 200.125C357.313 201.242 356.996 202.075 356.363 202.625C355.746 203.158 354.913 203.425 353.863 203.425H339.813ZM348.538 207.725C348.105 207.725 347.746 207.592 347.463 207.325C347.196 207.042 347.063 206.692 347.063 206.275C347.063 205.858 347.196 205.517 347.463 205.25C347.746 204.967 348.105 204.825 348.538 204.825C348.971 204.825 349.321 204.967 349.588 205.25C349.871 205.517 350.013 205.858 350.013 206.275C350.013 206.692 349.871 207.042 349.588 207.325C349.321 207.592 348.971 207.725 348.538 207.725Z" fill="#ABABAB"/>
</svg>
