<svg width="461" height="244" viewBox="0 0 461 244" fill="none" xmlns="http://www.w3.org/2000/svg">
<path d="M85.1677 74.86C88.8343 74.86 92.1343 75.41 95.0677 76.51C98.001 77.5367 100.494 79.0033 102.548 80.91C104.601 82.8167 106.178 85.0533 107.278 87.62C108.378 90.1867 108.928 92.9733 108.928 95.98C108.928 99.1333 108.378 102.067 107.278 104.78C106.178 107.493 104.601 109.84 102.548 111.82C100.494 113.8 98.001 115.34 95.0677 116.44C92.1343 117.613 88.8343 118.2 85.1677 118.2C80.9143 118.2 77.1743 117.503 73.9477 116.11C70.7943 114.717 68.2643 112.993 66.3577 110.94C64.451 112.993 61.921 114.717 58.7677 116.11C55.6143 117.503 51.911 118.2 47.6577 118.2C43.991 118.2 40.691 117.613 37.7577 116.44C34.8243 115.34 32.331 113.8 30.2777 111.82C28.2243 109.84 26.6477 107.493 25.5477 104.78C24.4477 102.067 23.8977 99.1333 23.8977 95.98C23.8977 93.12 24.3743 90.48 25.3277 88.06C26.3543 85.5667 27.7843 83.4033 29.6177 81.57C31.451 79.6633 33.6877 78.16 36.3277 77.06C38.9677 75.8867 41.9377 75.19 45.2377 74.97C47.2177 73.65 48.6477 72.11 49.5277 70.35C50.4077 68.59 50.9943 66.7567 51.2877 64.85C50.3343 65.4367 49.1977 65.9133 47.8777 66.28C46.5577 66.6467 44.9443 66.83 43.0377 66.83C40.8377 66.83 38.7477 66.5 36.7677 65.84C34.7877 65.18 33.0277 64.19 31.4877 62.87C30.021 61.55 28.8477 59.9 27.9677 57.92C27.0877 55.94 26.6477 53.6667 26.6477 51.1C26.6477 48.8267 27.0877 46.7 27.9677 44.72C28.921 42.6667 30.2043 40.9067 31.8177 39.44C33.5043 37.9733 35.521 36.8367 37.8677 36.03C40.2877 35.15 42.9277 34.71 45.7877 34.71C52.6077 34.71 57.8143 36.8367 61.4077 41.09C65.001 45.27 66.7977 50.77 66.7977 57.59C66.7977 61.11 66.2843 64.5567 65.2577 67.93C64.3043 71.23 62.6543 74.4933 60.3077 77.72C62.7277 78.9667 64.7443 80.4333 66.3577 82.12C68.2643 80.14 70.7943 78.4533 73.9477 77.06C77.1743 75.5933 80.9143 74.86 85.1677 74.86ZM41.3877 51.32C41.3877 52.7867 41.8277 53.9967 42.7077 54.95C43.661 55.83 44.8343 56.27 46.2277 56.27C47.621 56.27 48.7577 55.83 49.6377 54.95C50.591 53.9967 51.0677 52.7867 51.0677 51.32C51.0677 49.8533 50.591 48.68 49.6377 47.8C48.7577 46.8467 47.621 46.37 46.2277 46.37C44.8343 46.37 43.661 46.8467 42.7077 47.8C41.8277 48.68 41.3877 49.8533 41.3877 51.32ZM42.1577 96.2C42.1577 98.4733 42.8543 100.343 44.2477 101.81C45.7143 103.203 47.5477 103.9 49.7477 103.9C51.9477 103.9 53.7443 103.203 55.1377 101.81C56.6043 100.343 57.3377 98.4733 57.3377 96.2C57.3377 93.9267 56.6043 92.0933 55.1377 90.7C53.7443 89.2333 51.9477 88.5 49.7477 88.5C47.5477 88.5 45.7143 89.2333 44.2477 90.7C42.8543 92.0933 42.1577 93.9267 42.1577 96.2ZM90.6677 96.2C90.6677 93.9267 89.9343 92.0933 88.4677 90.7C87.0743 89.2333 85.2777 88.5 83.0777 88.5C80.8777 88.5 79.0443 89.2333 77.5777 90.7C76.1843 92.0933 75.4877 93.9267 75.4877 96.2C75.4877 98.4733 76.1843 100.343 77.5777 101.81C79.0443 103.203 80.8777 103.9 83.0777 103.9C85.2777 103.9 87.0743 103.203 88.4677 101.81C89.9343 100.343 90.6677 98.4733 90.6677 96.2ZM209.241 118.2C205.061 118.2 201.431 117.577 198.351 116.33C195.344 115.157 192.777 113.617 190.651 111.71C188.304 113.837 185.554 115.45 182.401 116.55C179.247 117.65 175.691 118.2 171.731 118.2C165.791 118.2 161.061 116.917 157.541 114.35C154.021 111.71 151.197 108.043 149.071 103.35L146.981 98.62C146.174 96.7867 145.257 95.3567 144.231 94.33C143.277 93.3033 141.957 92.79 140.271 92.79C138.657 92.79 137.337 93.34 136.311 94.44C135.284 95.4667 134.771 97.1533 134.771 99.5C134.771 101.7 135.211 103.717 136.091 105.55C136.971 107.383 138.107 109.033 139.501 110.5C138.841 112.92 137.667 114.79 135.981 116.11C134.294 117.503 132.204 118.2 129.711 118.2C127.584 118.2 125.641 117.723 123.881 116.77C122.194 115.817 120.727 114.497 119.481 112.81C118.234 111.123 117.244 109.143 116.511 106.87C115.851 104.523 115.521 102.03 115.521 99.39C115.521 96.0167 116.071 92.9367 117.171 90.15C118.344 87.3633 119.994 84.98 122.121 83C124.247 81.02 126.814 79.5167 129.821 78.49C132.901 77.39 136.311 76.84 140.051 76.84C145.991 76.84 150.831 78.16 154.571 80.8C158.311 83.3667 161.134 86.85 163.041 91.25L165.791 97.41C166.597 99.2433 167.514 100.563 168.541 101.37C169.567 102.177 170.777 102.58 172.171 102.58C174.444 102.58 176.167 101.627 177.341 99.72C178.514 97.74 179.101 95.1367 179.101 91.91C179.101 88.83 178.551 85.9333 177.451 83.22C176.351 80.4333 174.847 77.9767 172.941 75.85C171.034 73.65 168.724 71.78 166.011 70.24C163.297 68.7 160.364 67.6 157.211 66.94H117.721C117.061 65.84 116.584 64.8133 116.291 63.86C115.997 62.8333 115.851 61.6967 115.851 60.45C115.851 57.8833 116.401 55.9767 117.501 54.73C118.674 53.41 120.251 52.75 122.231 52.75H178.771C180.604 52.6033 181.997 52.0167 182.951 50.99C183.904 49.89 184.381 48.5333 184.381 46.92C184.381 43.9133 183.134 42.41 180.641 42.41C179.687 42.41 178.844 42.74 178.111 43.4C177.451 43.9867 177.121 44.9033 177.121 46.15C177.121 46.59 177.194 47.1033 177.341 47.69C176.754 48.0567 175.874 48.35 174.701 48.57C173.527 48.79 172.427 48.9 171.401 48.9C168.981 48.9 167.037 48.24 165.571 46.92C164.177 45.6 163.481 43.8767 163.481 41.75C163.481 38.45 164.947 35.6267 167.881 33.28C170.887 30.86 175.251 29.65 180.971 29.65C183.537 29.65 185.957 30.0533 188.231 30.86C190.577 31.5933 192.594 32.6933 194.281 34.16C196.041 35.6267 197.434 37.4967 198.461 39.77C199.487 41.97 200.001 44.5 200.001 47.36C200.001 52.1267 198.607 56.2333 195.821 59.68C193.034 63.0533 189.331 65.2533 184.711 66.28C188.671 69.0667 191.934 72.8433 194.501 77.61C197.067 82.3033 198.351 87.4367 198.351 93.01C198.351 94.4767 198.241 95.87 198.021 97.19C198.827 98.6567 199.927 99.94 201.321 101.04C202.714 102.14 204.584 102.69 206.931 102.69C209.351 102.69 211.257 101.957 212.651 100.49C214.044 99.0233 214.741 97.1167 214.741 94.77C214.741 93.1567 214.704 91.7267 214.631 90.48C214.631 89.16 214.631 87.7667 214.631 86.3C214.631 79.48 215.731 73.7967 217.931 69.25C220.131 64.7033 222.991 61.0367 226.511 58.25C230.104 55.4633 234.101 53.4833 238.501 52.31C242.974 51.1367 247.484 50.55 252.031 50.55C257.604 50.55 262.701 51.43 267.321 53.19C271.941 54.8767 275.864 57.2967 279.091 60.45C282.391 63.6033 284.921 67.4167 286.681 71.89C288.514 76.29 289.431 81.2033 289.431 86.63C289.431 91.5433 288.807 95.98 287.561 99.94C286.314 103.827 284.481 107.127 282.061 109.84C279.714 112.553 276.817 114.607 273.371 116C269.997 117.467 266.147 118.2 261.821 118.2C258.301 118.2 255.111 117.687 252.251 116.66C249.391 115.707 246.897 114.35 244.771 112.59C242.717 110.757 241.104 108.593 239.931 106.1C238.831 103.533 238.281 100.71 238.281 97.63C238.281 94.77 238.721 92.2033 239.601 89.93C240.481 87.6567 241.654 85.75 243.121 84.21C244.661 82.5967 246.421 81.3867 248.401 80.58C250.454 79.7 252.654 79.26 255.001 79.26C258.154 79.26 260.611 80.03 262.371 81.57C264.204 83.11 265.121 85.1633 265.121 87.73C265.121 89.7833 264.571 91.6167 263.471 93.23C262.664 93.01 261.894 92.9 261.161 92.9C259.767 92.9 258.557 93.34 257.531 94.22C256.577 95.1 256.101 96.3467 256.101 97.96C256.101 99.5 256.614 100.747 257.641 101.7C258.741 102.653 260.134 103.13 261.821 103.13C264.901 103.13 267.211 101.663 268.751 98.73C270.364 95.7967 271.171 91.7633 271.171 86.63C271.171 83.55 270.694 80.7633 269.741 78.27C268.861 75.7033 267.577 73.54 265.891 71.78C264.277 69.9467 262.297 68.5533 259.951 67.6C257.604 66.5733 255.001 66.06 252.141 66.06C249.501 66.06 247.007 66.4633 244.661 67.27C242.314 68.0767 240.261 69.36 238.501 71.12C236.741 72.8067 235.347 74.97 234.321 77.61C233.294 80.25 232.781 83.3667 232.781 86.96C232.781 88.2067 232.781 89.27 232.781 90.15C232.854 91.03 232.891 92.0567 232.891 93.23C232.891 101.15 230.801 107.31 226.621 111.71C222.514 116.037 216.721 118.2 209.241 118.2ZM287.742 126.34C287.742 124.653 287.559 122.93 287.192 121.17C286.825 119.483 286.239 117.87 285.432 116.33C285.945 115.377 286.715 114.607 287.742 114.02C288.695 113.36 289.795 113.03 291.042 113.03C293.829 113.03 295.772 114.313 296.872 116.88C298.045 119.447 298.632 122.6 298.632 126.34C298.632 129.273 298.119 132.243 297.092 135.25C296.139 138.257 294.745 140.933 292.912 143.28C293.719 144.82 294.672 146.103 295.772 147.13C296.945 148.23 298.375 148.78 300.062 148.78C300.869 148.78 301.529 148.67 302.042 148.45C302.629 148.303 303.179 148.12 303.692 147.9C304.425 148.487 305.012 149.183 305.452 149.99C305.892 150.797 306.112 151.75 306.112 152.85C306.112 154.757 305.489 156.333 304.242 157.58C302.995 158.9 301.162 159.56 298.742 159.56C295.222 159.56 292.399 158.57 290.272 156.59C288.145 154.683 286.459 152.52 285.212 150.1C283.965 151.053 282.462 151.787 280.702 152.3C278.869 152.887 276.669 153.18 274.102 153.18C271.975 153.18 269.995 152.887 268.162 152.3C266.255 151.713 264.605 150.87 263.212 149.77C261.745 148.67 260.609 147.277 259.802 145.59C258.922 143.977 258.482 142.107 258.482 139.98C258.482 136.02 259.765 132.903 262.332 130.63C264.899 128.357 268.382 127.22 272.782 127.22C276.302 127.22 279.162 127.807 281.362 128.98C283.489 130.153 285.285 131.547 286.752 133.16C287.412 130.96 287.742 128.687 287.742 126.34ZM274.212 136.79C273.039 136.79 272.085 137.083 271.352 137.67C270.619 138.33 270.252 139.137 270.252 140.09C270.252 141.117 270.655 141.96 271.462 142.62C272.195 143.28 273.295 143.61 274.762 143.61C275.789 143.61 276.852 143.427 277.952 143.06C278.979 142.767 280.042 142.18 281.142 141.3C279.969 139.54 278.832 138.33 277.732 137.67C276.632 137.083 275.459 136.79 274.212 136.79ZM326.546 87.4C322.146 87.4 318.186 86.2633 314.666 83.99C314.96 86.85 315.656 89.5267 316.756 92.02C317.93 94.44 319.506 96.5667 321.486 98.4C323.466 100.233 325.813 101.7 328.526 102.8C331.24 103.827 334.32 104.377 337.766 104.45C338.133 105.183 338.39 106.027 338.536 106.98C338.756 107.933 338.866 108.777 338.866 109.51C338.866 111.93 338.096 113.983 336.556 115.67C335.09 117.357 332.596 118.2 329.076 118.2C324.97 118.2 321.01 117.283 317.196 115.45C313.383 113.617 310.01 111.05 307.076 107.75C304.143 104.45 301.76 100.563 299.926 96.09C298.166 91.5433 297.286 86.5933 297.286 81.24C297.286 76.62 297.946 72.44 299.266 68.7C300.586 64.8867 302.42 61.66 304.766 59.02C307.113 56.3067 309.936 54.2167 313.236 52.75C316.61 51.2833 320.313 50.55 324.346 50.55C327.866 50.55 330.946 51.1 333.586 52.2C336.226 53.3 338.426 54.73 340.186 56.49C341.946 58.25 343.266 60.2667 344.146 62.54C345.026 64.8133 345.466 67.1233 345.466 69.47C345.466 71.89 345.026 74.2 344.146 76.4C343.34 78.5267 342.13 80.4333 340.516 82.12C338.903 83.7333 336.923 85.0167 334.576 85.97C332.23 86.9233 329.553 87.4 326.546 87.4ZM323.906 74.97C325.593 74.97 326.913 74.4567 327.866 73.43C328.893 72.4033 329.406 71.12 329.406 69.58C329.406 68.1133 328.893 66.8667 327.866 65.84C326.913 64.8133 325.593 64.3 323.906 64.3C322.22 64.3 320.9 64.8133 319.946 65.84C318.993 66.8667 318.516 68.1133 318.516 69.58C318.516 71.12 318.993 72.4033 319.946 73.43C320.9 74.4567 322.22 74.97 323.906 74.97ZM379.377 86.74C376.297 86.74 373.987 87.5467 372.447 89.16C370.907 90.7733 370.137 92.7533 370.137 95.1C370.137 97.5933 370.834 99.5367 372.227 100.93C373.694 102.25 375.637 102.91 378.057 102.91C380.184 102.91 381.871 102.25 383.117 100.93C384.437 99.61 385.097 97.8867 385.097 95.76V93.23C386.124 92.57 387.407 91.9833 388.947 91.47C390.487 90.9567 392.211 90.7 394.117 90.7C396.024 90.7 397.747 90.9567 399.287 91.47C400.827 91.9833 402.111 92.57 403.137 93.23V95.76C403.137 97.96 403.797 99.72 405.117 101.04C406.511 102.287 408.344 102.91 410.617 102.91C412.964 102.91 414.797 102.213 416.117 100.82C417.437 99.4267 418.097 97.52 418.097 95.1C418.097 92.7533 417.401 90.8467 416.007 89.38C414.687 87.9133 412.671 87.18 409.957 87.18H403.797C403.357 86.3733 402.917 85.3467 402.477 84.1C402.037 82.8533 401.817 81.4967 401.817 80.03C401.817 78.5633 402.001 77.2067 402.367 75.96C402.807 74.7133 403.284 73.6867 403.797 72.88H408.417C410.617 72.88 412.267 72.3667 413.367 71.34C414.541 70.3133 415.127 69.03 415.127 67.49C415.127 63.8233 412.964 61.99 408.637 61.99C407.831 61.99 406.987 62.1 406.107 62.32C405.227 62.4667 404.494 62.65 403.907 62.87C403.321 61.99 402.807 60.9633 402.367 59.79C402.001 58.5433 401.817 57.37 401.817 56.27C401.817 53.0433 402.844 50.77 404.897 49.45C406.951 48.13 409.847 47.47 413.587 47.47C416.594 47.47 419.344 47.91 421.837 48.79C424.331 49.5967 426.457 50.7333 428.217 52.2C429.977 53.6667 431.334 55.4633 432.287 57.59C433.241 59.7167 433.717 62.0267 433.717 64.52C433.717 66.3533 433.461 68.0033 432.947 69.47C432.434 70.9367 431.737 72.22 430.857 73.32C430.051 74.42 429.134 75.3733 428.107 76.18C427.081 76.9133 426.054 77.5 425.027 77.94C428.547 79.1133 431.407 81.2767 433.607 84.43C435.881 87.5833 437.017 91.36 437.017 95.76C437.017 98.9867 436.504 101.993 435.477 104.78C434.451 107.493 432.947 109.84 430.967 111.82C428.987 113.8 426.531 115.34 423.597 116.44C420.664 117.613 417.254 118.2 413.367 118.2C410.581 118.2 408.124 117.943 405.997 117.43C403.944 116.99 402.147 116.403 400.607 115.67C399.067 114.937 397.747 114.13 396.647 113.25C395.621 112.297 394.777 111.38 394.117 110.5C392.724 112.333 390.597 114.093 387.737 115.78C384.877 117.393 381.101 118.2 376.407 118.2C372.814 118.2 369.477 117.723 366.397 116.77C363.317 115.89 360.641 114.533 358.367 112.7C356.167 110.793 354.407 108.447 353.087 105.66C351.841 102.8 351.217 99.5 351.217 95.76C351.217 91.36 352.097 87.7667 353.857 84.98C355.691 82.12 357.927 79.7367 360.567 77.83C359.174 76.5833 357.817 74.8233 356.497 72.55C355.177 70.2767 354.517 67.6 354.517 64.52C354.517 59.46 356.204 55.3533 359.577 52.2C362.951 49.0467 367.497 47.47 373.217 47.47C377.397 47.47 380.477 48.2033 382.457 49.67C384.437 51.0633 385.427 53.0433 385.427 55.61C385.427 58.47 384.584 60.8533 382.897 62.76C382.311 62.54 381.651 62.3567 380.917 62.21C380.257 62.0633 379.524 61.99 378.717 61.99C377.031 61.99 375.674 62.4667 374.647 63.42C373.621 64.3 373.107 65.6567 373.107 67.49C373.107 69.3233 373.584 70.9367 374.537 72.33C374.977 72.2567 375.381 72.22 375.747 72.22C376.187 72.1467 376.627 72.11 377.067 72.11C384.474 72.11 388.177 74.7133 388.177 79.92C388.177 81.3867 387.957 82.78 387.517 84.1C387.077 85.3467 386.454 86.4467 385.647 87.4C384.767 87.18 383.777 87.0333 382.677 86.96C381.577 86.8133 380.477 86.74 379.377 86.74Z" fill="white" fill-opacity="0.2"/>
<path d="M131.076 212.1C131.076 211.15 131.326 210.35 131.826 209.7C132.326 209.05 133.001 208.5 133.851 208.05L135.126 207.375C135.892 206.975 136.467 206.583 136.851 206.2C137.251 205.8 137.451 205.325 137.451 204.775C137.451 204.175 137.234 203.708 136.801 203.375C136.367 203.025 135.817 202.85 135.151 202.85C134.417 202.85 133.834 203.042 133.401 203.425C132.984 203.808 132.776 204.317 132.776 204.95C132.776 205.267 132.817 205.542 132.901 205.775C132.984 206.008 133.092 206.225 133.226 206.425C133.142 206.558 133.026 206.675 132.876 206.775C132.726 206.858 132.542 206.9 132.326 206.9C131.942 206.9 131.617 206.725 131.351 206.375C131.084 206.025 130.951 205.542 130.951 204.925C130.951 204.358 131.059 203.858 131.276 203.425C131.509 202.975 131.817 202.6 132.201 202.3C132.584 201.983 133.034 201.742 133.551 201.575C134.067 201.408 134.617 201.325 135.201 201.325C136.017 201.325 136.767 201.5 137.451 201.85C138.134 202.2 138.642 202.7 138.976 203.35C139.176 203.6 139.417 203.842 139.701 204.075C139.984 204.292 140.292 204.492 140.626 204.675C140.976 204.842 141.342 204.983 141.726 205.1C142.109 205.2 142.492 205.25 142.876 205.25C143.726 205.25 144.351 205.067 144.751 204.7C145.151 204.333 145.351 203.817 145.351 203.15C145.351 202.867 145.301 202.608 145.201 202.375C145.101 202.125 145.009 201.917 144.926 201.75C145.026 201.583 145.151 201.45 145.301 201.35C145.451 201.25 145.626 201.2 145.826 201.2C146.209 201.2 146.526 201.383 146.776 201.75C147.026 202.117 147.151 202.583 147.151 203.15C147.151 204.35 146.792 205.258 146.076 205.875C145.359 206.475 144.351 206.775 143.051 206.775C142.651 206.775 142.251 206.733 141.851 206.65C141.467 206.55 141.109 206.433 140.776 206.3C140.442 206.15 140.142 205.992 139.876 205.825C139.626 205.642 139.434 205.467 139.301 205.3C139.217 205.983 138.934 206.583 138.451 207.1C137.967 207.617 137.326 208.083 136.526 208.5L135.126 209.225C134.509 209.542 133.992 209.942 133.576 210.425C133.176 210.908 132.976 211.467 132.976 212.1C132.976 212.9 133.259 213.508 133.826 213.925C134.392 214.342 135.101 214.55 135.951 214.55C136.784 214.55 137.484 214.342 138.051 213.925C138.634 213.492 138.926 212.867 138.926 212.05V210.8C139.192 210.617 139.492 210.525 139.826 210.525C140.159 210.525 140.459 210.617 140.726 210.8V212.05C140.726 212.85 141.009 213.467 141.576 213.9C142.159 214.333 142.867 214.55 143.701 214.55C144.534 214.55 145.184 214.308 145.651 213.825C146.134 213.342 146.376 212.708 146.376 211.925C146.376 211.225 146.234 210.658 145.951 210.225C145.667 209.775 145.342 209.433 144.976 209.2C145.059 208.867 145.192 208.633 145.376 208.5C145.559 208.367 145.776 208.3 146.026 208.3C146.242 208.3 146.476 208.383 146.726 208.55C146.992 208.7 147.234 208.933 147.451 209.25C147.684 209.567 147.876 209.958 148.026 210.425C148.176 210.875 148.251 211.4 148.251 212C148.251 212.667 148.134 213.267 147.901 213.8C147.684 214.317 147.376 214.758 146.976 215.125C146.592 215.475 146.126 215.742 145.576 215.925C145.042 216.108 144.467 216.2 143.851 216.2C142.984 216.2 142.184 216.033 141.451 215.7C140.734 215.367 140.184 214.867 139.801 214.2C139.451 214.833 138.934 215.325 138.251 215.675C137.567 216.025 136.734 216.2 135.751 216.2C135.134 216.2 134.542 216.117 133.976 215.95C133.409 215.783 132.909 215.533 132.476 215.2C132.059 214.85 131.717 214.417 131.451 213.9C131.201 213.383 131.076 212.783 131.076 212.1ZM161.471 203.425C161.887 203.742 162.279 204.15 162.646 204.65C163.029 205.15 163.362 205.783 163.646 206.55C163.946 207.317 164.179 208.242 164.346 209.325C164.512 210.408 164.596 211.683 164.596 213.15V216.075C164.362 216.192 164.079 216.25 163.746 216.25C163.112 216.25 162.796 215.933 162.796 215.3V212.7C162.796 211.283 162.696 210 162.496 208.85C162.312 207.7 162.021 206.725 161.621 205.925C161.221 205.125 160.712 204.508 160.096 204.075C159.496 203.642 158.779 203.425 157.946 203.425C157.112 203.425 156.387 203.658 155.771 204.125C155.171 204.592 154.671 205.242 154.271 206.075C153.871 206.892 153.571 207.875 153.371 209.025C153.171 210.158 153.071 211.4 153.071 212.75V216.075C152.837 216.192 152.554 216.25 152.221 216.25C151.587 216.25 151.271 215.933 151.271 215.3V213.175C151.271 211.658 151.354 210.358 151.521 209.275C151.687 208.192 151.912 207.267 152.196 206.5C152.496 205.733 152.829 205.108 153.196 204.625C153.579 204.142 153.979 203.742 154.396 203.425H150.896C150.846 203.325 150.796 203.208 150.746 203.075C150.712 202.942 150.696 202.792 150.696 202.625C150.696 202.325 150.779 202.117 150.946 202C151.112 201.883 151.329 201.825 151.596 201.825H161.696C162.362 201.825 162.854 201.658 163.171 201.325C163.487 200.992 163.646 200.55 163.646 200C163.646 199.333 163.462 198.733 163.096 198.2C163.179 198.033 163.296 197.9 163.446 197.8C163.612 197.683 163.812 197.625 164.046 197.625C164.479 197.625 164.821 197.875 165.071 198.375C165.321 198.875 165.446 199.458 165.446 200.125C165.446 201.242 165.129 202.075 164.496 202.625C163.879 203.158 163.046 203.425 161.996 203.425H161.471ZM172.294 216.2C171.577 216.2 170.927 216.1 170.344 215.9C169.761 215.683 169.261 215.383 168.844 215C168.427 214.617 168.102 214.158 167.869 213.625C167.636 213.075 167.519 212.458 167.519 211.775C167.519 211.175 167.611 210.625 167.794 210.125C167.977 209.625 168.244 209.192 168.594 208.825C168.944 208.458 169.369 208.175 169.869 207.975C170.386 207.775 170.969 207.675 171.619 207.675C172.202 207.675 172.636 207.783 172.919 208C173.219 208.2 173.369 208.45 173.369 208.75C173.369 208.95 173.319 209.133 173.219 209.3C173.136 209.45 173.027 209.567 172.894 209.65C172.727 209.567 172.536 209.5 172.319 209.45C172.119 209.383 171.886 209.35 171.619 209.35C171.036 209.35 170.519 209.55 170.069 209.95C169.636 210.333 169.419 210.942 169.419 211.775C169.419 212.625 169.686 213.3 170.219 213.8C170.752 214.3 171.469 214.55 172.369 214.55C172.802 214.55 173.211 214.492 173.594 214.375C173.994 214.258 174.336 214.083 174.619 213.85C174.919 213.617 175.152 213.333 175.319 213C175.486 212.667 175.569 212.283 175.569 211.85V210.775C175.802 210.592 176.111 210.5 176.494 210.5C176.844 210.5 177.136 210.592 177.369 210.775V211.7C177.369 212.2 177.452 212.633 177.619 213C177.802 213.367 178.036 213.667 178.319 213.9C178.602 214.117 178.919 214.283 179.269 214.4C179.636 214.5 180.011 214.55 180.394 214.55C182.494 214.55 183.544 213.2 183.544 210.5C183.544 209.717 183.402 208.942 183.119 208.175C182.852 207.408 182.477 206.708 181.994 206.075C181.511 205.442 180.927 204.892 180.244 204.425C179.577 203.958 178.836 203.625 178.019 203.425H167.694C167.644 203.325 167.594 203.208 167.544 203.075C167.511 202.942 167.494 202.792 167.494 202.625C167.494 202.325 167.577 202.117 167.744 202C167.911 201.883 168.127 201.825 168.394 201.825H181.544C182.344 201.825 182.961 201.658 183.394 201.325C183.844 200.975 184.069 200.492 184.069 199.875C184.069 199.425 183.927 199.067 183.644 198.8C183.377 198.517 183.027 198.375 182.594 198.375C182.227 198.375 181.902 198.483 181.619 198.7C181.336 198.917 181.194 199.25 181.194 199.7C181.194 199.85 181.211 200.008 181.244 200.175C181.194 200.208 181.111 200.25 180.994 200.3C180.877 200.35 180.727 200.375 180.544 200.375C180.227 200.375 179.969 200.283 179.769 200.1C179.586 199.917 179.494 199.625 179.494 199.225C179.494 198.475 179.777 197.883 180.344 197.45C180.927 197.017 181.661 196.8 182.544 196.8C182.994 196.8 183.419 196.875 183.819 197.025C184.219 197.158 184.561 197.358 184.844 197.625C185.144 197.892 185.377 198.225 185.544 198.625C185.727 199.008 185.819 199.45 185.819 199.95C185.819 201.1 185.427 201.967 184.644 202.55C183.877 203.133 182.869 203.425 181.619 203.425H181.344C181.894 203.692 182.419 204.075 182.919 204.575C183.419 205.058 183.852 205.625 184.219 206.275C184.602 206.908 184.902 207.592 185.119 208.325C185.336 209.042 185.444 209.758 185.444 210.475C185.444 212.258 185.011 213.658 184.144 214.675C183.277 215.692 182.027 216.2 180.394 216.2C179.594 216.2 178.836 216.042 178.119 215.725C177.402 215.408 176.836 214.9 176.419 214.2C176.002 214.85 175.436 215.35 174.719 215.7C174.002 216.033 173.194 216.2 172.294 216.2ZM192.502 208.575C191.869 208.575 191.261 208.433 190.677 208.15C190.111 207.85 189.686 207.408 189.402 206.825C189.352 207.208 189.327 207.608 189.327 208.025C189.327 208.908 189.452 209.733 189.702 210.5C189.969 211.267 190.336 211.942 190.802 212.525C191.269 213.108 191.827 213.583 192.477 213.95C193.144 214.317 193.877 214.55 194.677 214.65C194.711 214.733 194.736 214.825 194.752 214.925C194.769 215.025 194.777 215.125 194.777 215.225C194.777 215.525 194.686 215.767 194.502 215.95C194.336 216.117 194.086 216.2 193.752 216.2C193.169 216.2 192.519 216.033 191.802 215.7C191.086 215.367 190.411 214.858 189.777 214.175C189.161 213.475 188.636 212.6 188.202 211.55C187.769 210.483 187.552 209.233 187.552 207.8C187.552 206.817 187.669 205.925 187.902 205.125C188.136 204.325 188.461 203.65 188.877 203.1C189.294 202.533 189.794 202.1 190.377 201.8C190.961 201.5 191.611 201.35 192.327 201.35C192.827 201.35 193.302 201.442 193.752 201.625C194.219 201.792 194.627 202.042 194.977 202.375C195.327 202.692 195.602 203.075 195.802 203.525C196.019 203.975 196.127 204.475 196.127 205.025C196.127 206.092 195.786 206.95 195.102 207.6C194.436 208.25 193.569 208.575 192.502 208.575ZM192.352 206.925C192.919 206.925 193.377 206.75 193.727 206.4C194.094 206.033 194.277 205.583 194.277 205.05C194.277 204.467 194.086 203.983 193.702 203.6C193.336 203.2 192.852 203 192.252 203C191.702 203 191.236 203.192 190.852 203.575C190.469 203.942 190.277 204.417 190.277 205C190.277 205.567 190.477 206.033 190.877 206.4C191.294 206.75 191.786 206.925 192.352 206.925ZM226.78 211.9C226.78 212.7 227.064 213.342 227.63 213.825C228.214 214.292 228.93 214.525 229.78 214.525C230.88 214.525 231.772 214.117 232.455 213.3C233.139 212.467 233.48 211.308 233.48 209.825C233.48 208.775 233.314 207.85 232.98 207.05C232.664 206.25 232.205 205.583 231.605 205.05C231.022 204.517 230.314 204.117 229.48 203.85C228.647 203.567 227.714 203.425 226.68 203.425H218.58C219.114 203.742 219.614 204.15 220.08 204.65C220.564 205.15 220.98 205.725 221.33 206.375C221.697 207.025 221.98 207.725 222.18 208.475C222.397 209.225 222.505 210.008 222.505 210.825C222.505 212.608 222.08 213.95 221.23 214.85C220.38 215.75 219.264 216.2 217.88 216.2C217.414 216.2 216.955 216.15 216.505 216.05C216.072 215.95 215.647 215.775 215.23 215.525C214.83 215.275 214.439 214.942 214.055 214.525C213.689 214.092 213.339 213.558 213.005 212.925L212.43 211.825C211.997 210.992 211.555 210.425 211.105 210.125C210.655 209.808 210.18 209.65 209.68 209.65C209.03 209.65 208.505 209.875 208.105 210.325C207.722 210.758 207.53 211.358 207.53 212.125C207.53 212.825 207.672 213.442 207.955 213.975C208.255 214.508 208.655 214.958 209.155 215.325C209.089 215.558 208.972 215.758 208.805 215.925C208.655 216.075 208.422 216.15 208.105 216.15C207.872 216.15 207.614 216.067 207.33 215.9C207.047 215.717 206.78 215.458 206.53 215.125C206.28 214.775 206.064 214.358 205.88 213.875C205.714 213.375 205.63 212.8 205.63 212.15C205.63 211.433 205.747 210.817 205.98 210.3C206.214 209.767 206.514 209.333 206.88 209C207.264 208.65 207.689 208.392 208.155 208.225C208.639 208.058 209.122 207.975 209.605 207.975C210.722 207.975 211.614 208.242 212.28 208.775C212.964 209.308 213.58 210.092 214.13 211.125L214.88 212.525C215.164 213.058 215.547 213.533 216.03 213.95C216.53 214.35 217.139 214.55 217.855 214.55C218.689 214.55 219.347 214.233 219.83 213.6C220.33 212.967 220.58 212.033 220.58 210.8C220.58 209.733 220.397 208.767 220.03 207.9C219.664 207.033 219.197 206.283 218.63 205.65C218.064 205 217.439 204.492 216.755 204.125C216.072 203.742 215.422 203.508 214.805 203.425H205.455C205.405 203.325 205.355 203.208 205.305 203.075C205.272 202.942 205.255 202.792 205.255 202.625C205.255 202.325 205.339 202.117 205.505 202C205.672 201.883 205.889 201.825 206.155 201.825H227.305C228.422 201.825 229.472 202.017 230.455 202.4C231.439 202.767 232.297 203.3 233.03 204C233.764 204.683 234.339 205.517 234.755 206.5C235.172 207.483 235.38 208.592 235.38 209.825C235.38 210.892 235.23 211.825 234.93 212.625C234.647 213.408 234.255 214.067 233.755 214.6C233.255 215.133 232.655 215.533 231.955 215.8C231.272 216.067 230.53 216.2 229.73 216.2C229.097 216.2 228.489 216.1 227.905 215.9C227.322 215.7 226.805 215.417 226.355 215.05C225.922 214.667 225.572 214.208 225.305 213.675C225.039 213.142 224.905 212.533 224.905 211.85C224.905 211.2 225.014 210.633 225.23 210.15C225.464 209.65 225.755 209.233 226.105 208.9C226.472 208.567 226.88 208.317 227.33 208.15C227.797 207.983 228.264 207.9 228.73 207.9C229.28 207.9 229.689 208 229.955 208.2C230.239 208.383 230.38 208.617 230.38 208.9C230.38 209.2 230.297 209.45 230.13 209.65C229.947 209.6 229.78 209.567 229.63 209.55C229.497 209.533 229.347 209.525 229.18 209.525C228.864 209.525 228.564 209.575 228.28 209.675C227.997 209.758 227.739 209.9 227.505 210.1C227.289 210.3 227.114 210.55 226.98 210.85C226.847 211.15 226.78 211.5 226.78 211.9ZM238.253 211.45C238.253 210.55 238.437 209.792 238.803 209.175C239.187 208.542 239.662 208.067 240.228 207.75C239.845 207.433 239.52 207.042 239.253 206.575C239.003 206.108 238.878 205.542 238.878 204.875C238.878 204.292 238.978 203.775 239.178 203.325C239.395 202.875 239.678 202.5 240.028 202.2C240.395 201.9 240.812 201.675 241.278 201.525C241.745 201.375 242.237 201.3 242.753 201.3C243.503 201.3 244.078 201.417 244.478 201.65C244.878 201.867 245.078 202.158 245.078 202.525C245.078 202.675 245.037 202.825 244.953 202.975C244.887 203.108 244.795 203.217 244.678 203.3C244.445 203.2 244.187 203.117 243.903 203.05C243.637 202.983 243.32 202.95 242.953 202.95C242.337 202.95 241.82 203.133 241.403 203.5C240.987 203.867 240.778 204.358 240.778 204.975C240.778 205.358 240.862 205.725 241.028 206.075C241.195 206.425 241.42 206.717 241.703 206.95C242.203 206.817 242.645 206.75 243.028 206.75C243.878 206.75 244.478 206.875 244.828 207.125C245.178 207.358 245.353 207.625 245.353 207.925C245.353 208.292 245.237 208.592 245.003 208.825C244.837 208.758 244.595 208.692 244.278 208.625C243.962 208.542 243.603 208.5 243.203 208.5C242.787 208.5 242.395 208.567 242.028 208.7C241.662 208.817 241.337 209 241.053 209.25C240.787 209.5 240.57 209.817 240.403 210.2C240.237 210.567 240.153 211 240.153 211.5C240.153 212.467 240.453 213.217 241.053 213.75C241.67 214.283 242.437 214.55 243.353 214.55C244.17 214.55 244.845 214.308 245.378 213.825C245.928 213.342 246.203 212.675 246.203 211.825V210.775C246.47 210.592 246.77 210.5 247.103 210.5C247.437 210.5 247.737 210.592 248.003 210.775V211.675C248.003 212.542 248.295 213.242 248.878 213.775C249.478 214.292 250.262 214.55 251.228 214.55C251.578 214.55 251.912 214.492 252.228 214.375C252.545 214.242 252.828 214.058 253.078 213.825C253.328 213.575 253.52 213.283 253.653 212.95C253.803 212.6 253.878 212.2 253.878 211.75C253.878 210.883 253.587 210.167 253.003 209.6C252.437 209.033 251.603 208.75 250.503 208.75H249.678C249.528 208.583 249.453 208.333 249.453 208C249.453 207.783 249.528 207.533 249.678 207.25H250.878C251.512 207.25 252.053 207.058 252.503 206.675C252.97 206.275 253.203 205.725 253.203 205.025C253.203 204.325 252.962 203.808 252.478 203.475C252.012 203.125 251.437 202.95 250.753 202.95C250.437 202.95 250.153 202.983 249.903 203.05C249.653 203.1 249.403 203.183 249.153 203.3C249.07 203.217 248.978 203.108 248.878 202.975C248.795 202.825 248.753 202.658 248.753 202.475C248.753 202.258 248.812 202.075 248.928 201.925C249.062 201.775 249.228 201.658 249.428 201.575C249.645 201.475 249.878 201.408 250.128 201.375C250.395 201.325 250.662 201.3 250.928 201.3C251.478 201.3 252.003 201.383 252.503 201.55C253.003 201.717 253.437 201.958 253.803 202.275C254.187 202.575 254.487 202.942 254.703 203.375C254.937 203.808 255.053 204.3 255.053 204.85C255.053 205.567 254.878 206.2 254.528 206.75C254.195 207.3 253.737 207.708 253.153 207.975C254.003 208.325 254.653 208.842 255.103 209.525C255.553 210.192 255.778 210.958 255.778 211.825C255.778 212.525 255.662 213.15 255.428 213.7C255.195 214.233 254.878 214.692 254.478 215.075C254.078 215.442 253.603 215.725 253.053 215.925C252.52 216.108 251.945 216.2 251.328 216.2C250.395 216.2 249.57 216.025 248.853 215.675C248.137 215.308 247.587 214.783 247.203 214.1C246.837 214.767 246.32 215.283 245.653 215.65C245.003 216.017 244.212 216.2 243.278 216.2C242.562 216.2 241.895 216.092 241.278 215.875C240.662 215.658 240.128 215.342 239.678 214.925C239.228 214.508 238.878 214.008 238.628 213.425C238.378 212.842 238.253 212.183 238.253 211.45ZM268.514 201.825C269.181 201.825 269.672 201.658 269.989 201.325C270.306 200.992 270.464 200.55 270.464 200C270.464 199.333 270.281 198.733 269.914 198.2C269.997 198.033 270.114 197.9 270.264 197.8C270.431 197.683 270.631 197.625 270.864 197.625C271.297 197.625 271.639 197.875 271.889 198.375C272.139 198.875 272.264 199.458 272.264 200.125C272.264 201.242 271.947 202.075 271.314 202.625C270.697 203.158 269.864 203.425 268.814 203.425H266.064V206.225H272.064C272.114 206.325 272.156 206.442 272.189 206.575C272.239 206.708 272.264 206.858 272.264 207.025C272.264 207.325 272.181 207.533 272.014 207.65C271.847 207.767 271.631 207.825 271.364 207.825H268.889C269.539 208.158 270.047 208.642 270.414 209.275C270.797 209.892 270.989 210.583 270.989 211.35C270.989 212.067 270.847 212.725 270.564 213.325C270.297 213.925 269.914 214.442 269.414 214.875C268.914 215.292 268.306 215.617 267.589 215.85C266.889 216.083 266.106 216.2 265.239 216.2C264.422 216.2 263.656 216.092 262.939 215.875C262.239 215.642 261.622 215.325 261.089 214.925C260.572 214.508 260.164 214 259.864 213.4C259.564 212.8 259.414 212.125 259.414 211.375C259.414 210.525 259.597 209.808 259.964 209.225C260.347 208.625 260.831 208.158 261.414 207.825H258.339C258.289 207.725 258.239 207.608 258.189 207.475C258.156 207.342 258.139 207.192 258.139 207.025C258.139 206.725 258.222 206.517 258.389 206.4C258.556 206.283 258.772 206.225 259.039 206.225H264.264V203.425H258.339C258.289 203.325 258.239 203.208 258.189 203.075C258.156 202.942 258.139 202.792 258.139 202.625C258.139 202.325 258.222 202.117 258.389 202C258.556 201.883 258.772 201.825 259.039 201.825H268.514ZM265.214 207.775C264.647 207.775 264.114 207.858 263.614 208.025C263.131 208.175 262.706 208.4 262.339 208.7C261.972 209 261.681 209.367 261.464 209.8C261.264 210.233 261.164 210.725 261.164 211.275C261.164 211.808 261.272 212.283 261.489 212.7C261.706 213.117 262.006 213.475 262.389 213.775C262.772 214.058 263.214 214.283 263.714 214.45C264.214 214.6 264.756 214.675 265.339 214.675C265.906 214.675 266.422 214.6 266.889 214.45C267.372 214.283 267.789 214.05 268.139 213.75C268.489 213.45 268.756 213.092 268.939 212.675C269.139 212.258 269.239 211.792 269.239 211.275C269.239 210.758 269.131 210.283 268.914 209.85C268.697 209.417 268.406 209.05 268.039 208.75C267.672 208.433 267.247 208.192 266.764 208.025C266.281 207.858 265.764 207.775 265.214 207.775ZM282.028 209.2C282.028 208.017 282.262 206.908 282.728 205.875C283.195 204.825 283.878 204.008 284.778 203.425H281.703C281.653 203.325 281.603 203.208 281.553 203.075C281.52 202.942 281.503 202.792 281.503 202.625C281.503 202.325 281.587 202.117 281.753 202C281.92 201.883 282.137 201.825 282.403 201.825H292.903C293.57 201.825 294.062 201.658 294.378 201.325C294.695 200.992 294.853 200.55 294.853 200C294.853 199.333 294.67 198.733 294.303 198.2C294.387 198.033 294.503 197.9 294.653 197.8C294.82 197.683 295.02 197.625 295.253 197.625C295.687 197.625 296.028 197.875 296.278 198.375C296.528 198.875 296.653 199.458 296.653 200.125C296.653 201.225 296.345 202.042 295.728 202.575C295.128 203.108 294.328 203.392 293.328 203.425C293.795 203.708 294.212 204.067 294.578 204.5C294.962 204.933 295.278 205.408 295.528 205.925C295.795 206.425 295.995 206.958 296.128 207.525C296.262 208.092 296.328 208.65 296.328 209.2C296.328 210.317 296.145 211.308 295.778 212.175C295.412 213.042 294.903 213.775 294.253 214.375C293.603 214.975 292.837 215.433 291.953 215.75C291.087 216.05 290.153 216.2 289.153 216.2C288.153 216.2 287.22 216.033 286.353 215.7C285.487 215.367 284.728 214.9 284.078 214.3C283.445 213.683 282.945 212.942 282.578 212.075C282.212 211.208 282.028 210.25 282.028 209.2ZM289.178 203.425C288.445 203.425 287.762 203.567 287.128 203.85C286.495 204.117 285.937 204.5 285.453 205C284.987 205.5 284.612 206.1 284.328 206.8C284.062 207.483 283.928 208.25 283.928 209.1C283.928 209.917 284.053 210.658 284.303 211.325C284.57 211.992 284.937 212.567 285.403 213.05C285.87 213.517 286.42 213.883 287.053 214.15C287.703 214.4 288.42 214.525 289.203 214.525C290.803 214.525 292.07 214.05 293.003 213.1C293.953 212.15 294.428 210.817 294.428 209.1C294.428 208.25 294.287 207.483 294.003 206.8C293.737 206.1 293.362 205.5 292.878 205C292.412 204.5 291.862 204.117 291.228 203.85C290.595 203.567 289.912 203.425 289.178 203.425ZM305.908 216.2C304.908 216.2 304 216.033 303.183 215.7C302.367 215.35 301.667 214.867 301.083 214.25C300.5 213.617 300.05 212.867 299.733 212C299.417 211.117 299.258 210.142 299.258 209.075C299.258 207.992 299.417 207.008 299.733 206.125C300.05 205.242 300.5 204.483 301.083 203.85C301.667 203.217 302.367 202.733 303.183 202.4C304 202.05 304.908 201.875 305.908 201.875C306.908 201.875 307.817 202.05 308.633 202.4C309.45 202.733 310.15 203.217 310.733 203.85C311.317 204.483 311.767 205.242 312.083 206.125C312.4 207.008 312.558 207.992 312.558 209.075C312.558 210.142 312.4 211.117 312.083 212C311.767 212.867 311.317 213.617 310.733 214.25C310.15 214.867 309.45 215.35 308.633 215.7C307.817 216.033 306.908 216.2 305.908 216.2ZM305.908 214.525C306.625 214.525 307.275 214.392 307.858 214.125C308.442 213.858 308.942 213.492 309.358 213.025C309.775 212.542 310.092 211.967 310.308 211.3C310.542 210.617 310.658 209.867 310.658 209.05C310.658 208.233 310.542 207.483 310.308 206.8C310.092 206.117 309.775 205.542 309.358 205.075C308.942 204.592 308.442 204.217 307.858 203.95C307.275 203.683 306.625 203.55 305.908 203.55C305.192 203.55 304.542 203.683 303.958 203.95C303.375 204.217 302.875 204.592 302.458 205.075C302.042 205.542 301.717 206.117 301.483 206.8C301.267 207.483 301.158 208.233 301.158 209.05C301.158 209.867 301.267 210.617 301.483 211.3C301.717 211.967 302.042 212.542 302.458 213.025C302.875 213.492 303.375 213.858 303.958 214.125C304.542 214.392 305.192 214.525 305.908 214.525ZM325.826 203.425C326.243 203.742 326.635 204.15 327.001 204.65C327.385 205.15 327.718 205.783 328.001 206.55C328.301 207.317 328.535 208.242 328.701 209.325C328.868 210.408 328.951 211.683 328.951 213.15V216.075C328.718 216.192 328.435 216.25 328.101 216.25C327.468 216.25 327.151 215.933 327.151 215.3V212.7C327.151 211.283 327.051 210 326.851 208.85C326.668 207.7 326.376 206.725 325.976 205.925C325.576 205.125 325.068 204.508 324.451 204.075C323.851 203.642 323.135 203.425 322.301 203.425C321.468 203.425 320.743 203.658 320.126 204.125C319.526 204.592 319.026 205.242 318.626 206.075C318.226 206.892 317.926 207.875 317.726 209.025C317.526 210.158 317.426 211.4 317.426 212.75V216.075C317.193 216.192 316.91 216.25 316.576 216.25C315.943 216.25 315.626 215.933 315.626 215.3V213.175C315.626 211.658 315.71 210.358 315.876 209.275C316.043 208.192 316.268 207.267 316.551 206.5C316.851 205.733 317.185 205.108 317.551 204.625C317.935 204.142 318.335 203.742 318.751 203.425H315.251C315.201 203.325 315.151 203.208 315.101 203.075C315.068 202.942 315.051 202.792 315.051 202.625C315.051 202.325 315.135 202.117 315.301 202C315.468 201.883 315.685 201.825 315.951 201.825H326.051C326.718 201.825 327.21 201.658 327.526 201.325C327.843 200.992 328.001 200.55 328.001 200C328.001 199.333 327.818 198.733 327.451 198.2C327.535 198.033 327.651 197.9 327.801 197.8C327.968 197.683 328.168 197.625 328.401 197.625C328.835 197.625 329.176 197.875 329.426 198.375C329.676 198.875 329.801 199.458 329.801 200.125C329.801 201.242 329.485 202.075 328.851 202.625C328.235 203.158 327.401 203.425 326.351 203.425H325.826Z" fill="#ABABAB"/>
</svg>
