<svg width="278" height="97" viewBox="0 0 278 97" fill="none" xmlns="http://www.w3.org/2000/svg">
<path d="M20.9731 27.9249L32.816 46.93" stroke="white"/>
<path d="M53.0747 34.3412L32.8854 47.3646" stroke="white"/>
<path d="M41.7974 72.8374L32.9543 46.7227" stroke="white"/>
<path d="M41.7972 73.7355L6.13348 55.2296" stroke="white"/>
<path d="M20.7752 34.8502C24.5998 34.8502 27.7003 31.7497 27.7003 27.9251C27.7003 24.1005 24.5998 21 20.7752 21C16.9506 21 13.8501 24.1005 13.8501 27.9251C13.8501 31.7497 16.9506 34.8502 20.7752 34.8502Z" fill="white"/>
<path d="M53.075 41.2286C56.8996 41.2286 60.0001 38.1282 60.0001 34.3035C60.0001 30.4789 56.8996 27.3784 53.075 27.3784C49.2504 27.3784 46.1499 30.4789 46.1499 34.3035C46.1499 38.1282 49.2504 41.2286 53.075 41.2286Z" fill="white"/>
<path d="M32.8612 51.4702C35.3745 51.4702 37.412 49.4327 37.412 46.9194C37.412 44.406 35.3745 42.3686 32.8612 42.3686C30.3479 42.3686 28.3104 44.406 28.3104 46.9194C28.3104 49.4327 30.3479 51.4702 32.8612 51.4702Z" fill="white"/>
<path d="M5.54009 61.7593C8.59979 61.7593 11.0802 59.2789 11.0802 56.2192C11.0802 53.1595 8.59979 50.6791 5.54009 50.6791C2.48038 50.6791 0 53.1595 0 56.2192C0 59.2789 2.48038 61.7593 5.54009 61.7593Z" fill="white"/>
<path d="M42.1592 80.7463C45.9839 80.7463 49.0843 77.6459 49.0843 73.8212C49.0843 69.9966 45.9839 66.8961 42.1592 66.8961C38.3346 66.8961 35.2341 69.9966 35.2341 73.8212C35.2341 77.6459 38.3346 80.7463 42.1592 80.7463Z" fill="white"/>
<path d="M115.438 28.7109C116.141 28.5703 116.82 28.2891 117.43 27.8672C118.039 27.4453 118.578 26.9062 119.023 26.2969C119.445 25.6875 119.797 24.9844 120.055 24.2344C120.289 23.4844 120.43 22.7109 120.43 21.9141C120.43 21.0703 120.266 20.2266 119.938 19.4297C119.609 18.6328 119.188 17.9297 118.625 17.2969C118.062 16.6875 117.383 16.1719 116.633 15.75C115.883 15.3516 115.062 15.1172 114.219 15.0234L113.891 19.1016C114.219 19.1484 114.547 19.2656 114.852 19.4297C115.156 19.5938 115.414 19.8047 115.648 20.0391C115.883 20.2969 116.047 20.5781 116.188 20.9062C116.305 21.2344 116.375 21.5625 116.375 21.9141C116.375 22.7344 116.164 23.4141 115.742 23.9531C115.32 24.4922 114.805 24.75 114.148 24.75H91.0625V28.8281C91.2969 28.8281 91.6484 28.8281 92.1172 28.8047C92.5859 28.8047 93.1484 28.7812 93.7578 28.7578C94.3672 28.7578 95 28.7344 95.6797 28.6875C96.3359 28.6641 96.9922 28.6406 97.625 28.6172C98.2344 28.6172 98.8203 28.5938 99.3594 28.5703C99.875 28.5703 100.297 28.5469 100.625 28.5469C103.391 28.5469 105.781 28.7812 107.75 29.2031C109.719 29.6484 111.336 30.3281 112.602 31.2656C113.867 32.2031 114.781 33.4219 115.367 34.8984C115.953 36.375 116.258 38.1562 116.258 40.2188C116.258 44.2031 114.734 46.1953 111.734 46.1953C111.031 46.1953 110.445 46.0547 109.93 45.7266C109.414 45.3984 108.945 44.9766 108.523 44.4609C108.102 43.9453 107.703 43.3594 107.328 42.7031C106.953 42.0469 106.578 41.3672 106.18 40.6641C105.781 39.9609 105.359 39.2812 104.891 38.625C104.422 37.9688 103.906 37.3594 103.297 36.8438C102.688 36.3281 101.961 35.9297 101.164 35.6016C100.367 35.2734 99.4297 35.1094 98.3516 35.1094C97.2969 35.1094 96.3125 35.3438 95.4219 35.7656C94.5312 36.1875 93.7578 36.7969 93.1016 37.5469C92.4453 38.2969 91.9297 39.1875 91.5547 40.2188C91.1797 41.25 90.9922 42.3281 90.9922 43.5C90.9922 46.6875 92.1641 49.4062 94.5078 51.6094L97.9766 49.2422C96.0078 46.7812 95.0469 44.7891 95.0469 43.2422C95.0469 42.7266 95.1172 42.2109 95.3047 41.7188C95.4688 41.25 95.7031 40.8047 96.0078 40.4297C96.3125 40.0547 96.6641 39.7734 97.0859 39.5391C97.4844 39.3047 97.9297 39.1875 98.3984 39.1875C99.2422 39.1875 99.9688 39.4922 100.602 40.0781C101.234 40.6641 101.82 41.3906 102.383 42.2578C102.945 43.1484 103.508 44.0859 104.07 45.1172C104.633 46.1484 105.266 47.0859 105.969 47.9531C106.672 48.8438 107.469 49.5703 108.406 50.1562C109.344 50.7422 110.445 51.0234 111.734 51.0234C113 51.0234 114.172 50.7656 115.227 50.2031C116.281 49.6641 117.195 48.9141 117.945 47.9297C118.695 46.9688 119.258 45.8203 119.68 44.5078C120.102 43.1953 120.312 41.7656 120.312 40.2188C120.312 37.7812 119.891 35.6484 119.094 33.7734C118.297 31.8984 117.078 30.2109 115.438 28.7109ZM135.992 51.3516C137.516 51.3516 138.969 51.1172 140.375 50.6016C141.781 50.1094 143 49.4297 144.078 48.5391C145.156 47.6719 146 46.6406 146.633 45.4453C147.266 44.2734 147.594 42.9844 147.594 41.6016C147.594 38.9062 146.422 36.6562 144.078 34.875H147.594V31.7109H138.828V28.8281H141.688V24.75H124.016V28.8281H133.414V31.7109H124.367V34.875H128.328C125.68 36.75 124.367 39 124.367 41.6016C124.367 42.9609 124.672 44.25 125.305 45.4219C125.938 46.6172 126.781 47.6484 127.859 48.5391C128.938 49.4297 130.156 50.1094 131.562 50.6016C132.969 51.1172 134.445 51.3516 135.992 51.3516ZM147.594 66.3281L150.547 65.8594C149.938 61.6406 149.281 58.5703 148.578 56.6484C147.383 53.4141 145.484 51 142.883 49.4531L141.125 52.7109C143.234 53.9766 144.289 55.6641 144.289 57.75C144.289 58.2656 144.195 58.7344 144.031 59.1797C143.844 59.625 143.609 60.0234 143.305 60.3516C142.977 60.7031 142.625 60.9844 142.203 61.1719C141.781 61.3594 141.312 61.4531 140.844 61.4531C140.305 61.4531 139.812 61.3594 139.367 61.125C138.922 60.9141 138.547 60.6094 138.219 60.2344C137.891 59.8594 137.656 59.4375 137.469 58.9219C137.281 58.4062 137.211 57.8672 137.211 57.2578H133.508C133.508 57.8672 133.414 58.4062 133.227 58.9219C133.039 59.4375 132.805 59.8594 132.477 60.2344C132.148 60.6094 131.75 60.9141 131.305 61.125C130.859 61.3594 130.367 61.4531 129.852 61.4531C129.359 61.4531 128.914 61.3594 128.492 61.1719C128.07 60.9844 127.719 60.7031 127.414 60.3516C127.109 60.0234 126.875 59.625 126.688 59.1797C126.5 58.7344 126.43 58.2656 126.43 57.75C126.43 56.5781 127.133 55.3594 128.586 54.0938L125.961 51.5156C123.805 53.25 122.75 55.3125 122.75 57.75C122.75 58.7812 122.914 59.7422 123.289 60.6328C123.664 61.5234 124.156 62.3203 124.789 62.9766C125.422 63.6562 126.172 64.1953 127.039 64.5938C127.906 64.9922 128.844 65.1797 129.852 65.1797C131.984 65.1797 133.812 64.2891 135.336 62.4844C136.742 64.2891 138.57 65.1797 140.844 65.1797C143.516 65.1797 145.531 64.0312 146.914 61.7109C147.055 62.5547 147.195 63.375 147.312 64.125C147.406 64.875 147.5 65.625 147.594 66.3281ZM135.992 36.3984C137.023 36.3984 137.984 36.5391 138.922 36.7734C139.836 37.0312 140.633 37.3828 141.336 37.8281C142.016 38.2734 142.555 38.8125 142.953 39.4219C143.352 40.0547 143.562 40.7344 143.562 41.4609C143.562 42.2109 143.352 42.9141 142.953 43.5234C142.555 44.1328 142.016 44.6719 141.312 45.1172C140.609 45.5625 139.812 45.9141 138.898 46.1484C137.984 46.4062 137.023 46.5234 135.992 46.5234C134.961 46.5234 133.977 46.4062 133.062 46.1484C132.125 45.9141 131.328 45.5625 130.648 45.1172C129.945 44.6719 129.406 44.1328 129.008 43.5234C128.609 42.9141 128.422 42.2109 128.422 41.4609C128.422 40.7344 128.609 40.0547 129.008 39.4219C129.406 38.8125 129.945 38.2734 130.648 37.8281C131.328 37.3828 132.125 37.0312 133.062 36.7734C133.977 36.5391 134.961 36.3984 135.992 36.3984ZM144.5 19.3828C144.758 19.5469 144.969 19.7109 145.133 19.8984C145.297 20.0859 145.391 20.3906 145.391 20.7891C145.391 21.3047 145.297 21.8203 145.109 22.2891C144.922 22.7812 144.617 23.2031 144.242 23.5781C143.867 23.9531 143.375 24.2578 142.812 24.4453C142.25 24.6562 141.594 24.75 140.844 24.75H138.781V28.8047H141.758C142.883 28.8047 143.914 28.6172 144.852 28.1953C145.766 27.7734 146.562 27.2109 147.219 26.5078C147.875 25.8047 148.367 24.9844 148.742 24.0469C149.094 23.1094 149.281 22.125 149.281 21.0469C149.281 20.0625 149.07 19.1484 148.695 18.3516C148.32 17.5547 147.805 16.875 147.195 16.3125C146.586 15.75 145.883 15.3281 145.086 15.0234C144.289 14.7422 143.492 14.5781 142.695 14.5781C142.039 14.5781 141.43 14.6953 140.867 14.9297C140.305 15.1641 139.789 15.4688 139.367 15.8672C138.945 16.2656 138.594 16.7344 138.359 17.2734C138.102 17.8125 137.984 18.3984 137.984 19.0078C137.984 19.5234 138.055 19.9922 138.242 20.4375C138.43 20.8828 138.664 21.2812 138.992 21.6094C139.32 21.9609 139.672 22.2422 140.094 22.4297C140.516 22.6172 140.961 22.7109 141.43 22.7109C141.875 22.7109 142.297 22.6406 142.672 22.4766C143.047 22.3359 143.352 22.1016 143.633 21.8203C143.914 21.5391 144.125 21.2109 144.266 20.8359C144.406 20.4609 144.5 20.0625 144.5 19.5938V19.3828Z" fill="white"/>
<path d="M105.309 81.8691C105.309 80.5386 104.942 79.4277 104.222 78.5244C103.441 77.5723 102.391 77.084 101.085 77.084C100.426 77.084 99.791 77.2427 99.1685 77.5479C98.5093 77.8896 98.0088 78.3169 97.6914 78.8418C96.9224 77.6699 95.7871 77.084 94.2979 77.084C93.126 77.084 92.125 77.499 91.3071 78.3291C90.4893 79.1592 90.0864 80.1724 90.0864 81.3442C90.0864 82.3208 90.3672 83.1875 90.9531 83.9443C91.5269 84.7134 92.2837 85.2261 93.2114 85.4946L93.6753 83.8833C92.3813 83.4438 91.7466 82.5894 91.7466 81.3442C91.7466 80.6362 91.9907 80.0259 92.479 79.5132C92.9673 79.0005 93.5776 78.7441 94.2979 78.7441C95.0059 78.7441 95.604 79.0127 96.1045 79.5254C96.605 80.0381 96.8613 80.6484 96.8613 81.3564V82.8945H98.5215V81.3564C98.5215 80.6362 98.7656 80.0259 99.2661 79.5132C99.7544 79.0005 100.365 78.7441 101.085 78.7441C101.915 78.7441 102.562 79.0615 103.026 79.6719C103.441 80.2334 103.648 80.9414 103.648 81.7959C103.648 83.6025 102.94 85.2017 101.524 86.5933C100.694 85.9341 100.084 85.5068 99.6934 85.3115C99.0342 84.9697 98.314 84.7988 97.5205 84.7988C96.5195 84.7988 95.7139 85.0674 95.0791 85.5923C94.3955 86.166 94.0537 86.9351 94.0537 87.8994C94.0537 88.8149 94.3833 89.5596 95.0547 90.1455C95.6895 90.7192 96.4707 91 97.3984 91C98.8633 91 100.316 90.3042 101.744 88.8882C102.77 89.9258 103.539 90.707 104.027 91.2441L105.296 90.0356C104.479 89.23 103.648 88.4487 102.806 87.6919C104.466 85.8364 105.309 83.8955 105.309 81.8691ZM100.426 87.7285C99.5835 88.5464 98.6191 88.9492 97.5205 88.9492C97.0811 88.9492 96.6904 88.8516 96.3486 88.644C95.9214 88.4121 95.7139 88.0947 95.7139 87.6919C95.7139 87.3013 95.9214 86.9839 96.3486 86.7397C96.7026 86.5322 97.0933 86.4224 97.5205 86.4224C98.5337 86.4224 99.498 86.8618 100.426 87.7285ZM122.752 75.5581C122.752 74.7036 122.484 73.959 121.971 73.2998C121.422 72.6162 120.738 72.2378 119.908 72.1523L119.774 73.8125C120.165 73.8369 120.482 74.0444 120.75 74.4229C120.97 74.7646 121.092 75.1431 121.092 75.5581C121.092 76.0098 120.958 76.4126 120.702 76.7544C120.421 77.145 120.067 77.3281 119.627 77.3281H107.457V78.9883H110.533C108.482 80.6118 107.457 82.8579 107.457 85.7388C107.457 87.1304 107.835 88.3389 108.592 89.3398C109.422 90.4507 110.509 91 111.852 91C113.17 91 114.244 90.4385 115.074 89.3154C115.904 90.4385 116.979 91 118.297 91C119.64 91 120.726 90.4507 121.556 89.3398C122.313 88.3389 122.691 87.1304 122.691 85.7388C122.691 82.8579 121.666 80.6118 119.615 78.9883C120.543 78.9883 121.3 78.6465 121.898 77.9507C122.459 77.3037 122.752 76.5103 122.752 75.5581ZM121.031 85.5801C121.031 86.4956 120.824 87.2524 120.433 87.8628C119.969 88.5952 119.298 88.9492 118.443 88.9492C117.687 88.9492 117.076 88.6929 116.612 88.1802C116.148 87.6675 115.917 87.0205 115.917 86.2637H114.256C114.256 87.0205 114.024 87.6553 113.561 88.168C113.072 88.6929 112.45 88.9492 111.705 88.9492C110.838 88.9492 110.179 88.5952 109.715 87.8628C109.312 87.2524 109.117 86.4956 109.117 85.5801C109.117 84.2373 109.435 83.0288 110.069 81.9546C110.729 80.856 111.668 80.0381 112.865 79.4888C113.609 79.1592 114.342 78.9883 115.074 78.9883C115.794 78.9883 116.527 79.1592 117.284 79.4888C118.48 80.0381 119.408 80.856 120.079 81.9546C120.714 83.0288 121.031 84.2373 121.031 85.5801ZM138.414 84.1641C138.414 82.0889 137.621 80.3555 136.058 78.9883H136.583V77.3281H124.84V78.9883H127.196C125.621 80.3555 124.84 82.0889 124.84 84.1641C124.84 86.0439 125.499 87.6553 126.817 88.998C128.136 90.3408 129.747 91 131.627 91C133.507 91 135.106 90.3408 136.424 88.998C137.743 87.6553 138.414 86.0439 138.414 84.1641ZM136.607 83.9688C136.607 85.3481 136.119 86.52 135.143 87.4966C134.166 88.4731 132.994 88.9492 131.627 88.9492C130.248 88.9492 129.076 88.4731 128.099 87.4966C127.123 86.52 126.646 85.3481 126.646 83.9688C126.646 82.6016 127.123 81.4297 128.099 80.4531C129.076 79.4766 130.248 78.9883 131.627 78.9883C132.994 78.9883 134.166 79.4766 135.143 80.4531C136.119 81.4297 136.607 82.6016 136.607 83.9688ZM139.293 75.5215C139.293 74.6304 139.012 73.8613 138.475 73.2021C137.877 72.5063 137.12 72.1523 136.192 72.1523C135.558 72.1523 135.033 72.3477 134.605 72.7261C134.129 73.1411 133.897 73.6904 133.897 74.374C133.897 74.9355 134.056 75.3872 134.386 75.729C134.679 76.0464 135.045 76.1929 135.472 76.1929C136.021 76.1929 136.449 75.9487 136.742 75.436L136.241 74.9966C136.058 75.2529 135.863 75.375 135.643 75.375C135.252 75.375 135.057 75.1431 135.057 74.6548C135.057 74.0322 135.375 73.7148 136.034 73.7148C136.546 73.7148 136.961 73.8857 137.291 74.2275C137.584 74.5449 137.73 74.9355 137.73 75.375C137.73 75.8877 137.56 76.3271 137.218 76.7056C136.852 77.1206 136.4 77.3281 135.863 77.3281H133.946V78.9883H135.863C136.913 78.9883 137.767 78.6343 138.414 77.9019C139 77.2427 139.293 76.4492 139.293 75.5215ZM153.722 84.8354C153.722 82.4917 153.062 80.6118 151.744 79.208C150.548 77.9629 149.12 77.3281 147.435 77.3281C145.824 77.3281 144.481 77.9141 143.407 79.0615C142.186 80.3555 141.588 82.1133 141.588 84.3594C141.588 87.4233 140.855 88.9492 139.391 88.9492C138.792 88.9492 138.268 88.7417 137.816 88.3267C137.682 88.2168 137.291 87.7651 136.656 86.9839L135.545 88.2534C136.29 89.2178 136.827 89.8403 137.157 90.1089C137.816 90.707 138.536 91 139.305 91C140.978 91 142.113 90.2676 142.699 88.7905C143.065 87.8872 143.248 86.4224 143.248 84.4204C143.248 82.6748 143.688 81.3076 144.566 80.3066C145.335 79.4277 146.312 78.9883 147.484 78.9883C148.705 78.9883 149.742 79.4644 150.621 80.4043C151.573 81.4541 152.062 82.8579 152.062 84.6157C152.062 85.812 151.781 86.8252 151.231 87.6309C150.621 88.5098 149.815 88.9492 148.814 88.9492C148.253 88.9492 147.789 88.7661 147.423 88.3999C147.02 88.0337 146.825 87.5454 146.825 86.9351C146.825 86.4956 146.947 86.0928 147.191 85.7144C147.459 85.2993 147.801 85.0918 148.216 85.0918C148.631 85.0918 148.985 85.2627 149.278 85.5801L150.401 84.457C149.815 83.7734 149.083 83.4316 148.229 83.4316C147.35 83.4316 146.605 83.8101 146.007 84.5425C145.433 85.2383 145.152 86.0317 145.152 86.9351C145.152 88.1802 145.519 89.1812 146.263 89.938C146.947 90.646 147.801 91 148.814 91C150.511 91 151.805 90.2432 152.708 88.7173C153.38 87.5698 153.722 86.2759 153.722 84.8354ZM171.788 75.5581C171.788 74.7036 171.52 73.959 171.007 73.2998C170.458 72.6162 169.774 72.2378 168.944 72.1523L168.81 73.8125C169.2 73.8369 169.53 74.0444 169.786 74.4229C170.006 74.7646 170.128 75.1431 170.128 75.5581C170.128 76.0098 169.994 76.4126 169.737 76.7544C169.457 77.145 169.103 77.3281 168.663 77.3281H166.698V78.9883C167.821 78.9883 168.517 79.0249 168.81 79.0981C169.554 79.3179 169.933 79.8306 169.933 80.6484C169.933 81.6738 169.273 82.4917 167.967 83.1265C167.296 83.4561 166.197 83.7979 164.659 84.1641C162.718 83.8833 161.241 83.334 160.24 82.5039C160.899 82.3452 161.449 82.0278 161.876 81.5518C162.291 81.0757 162.511 80.502 162.511 79.8184C162.511 79.0615 162.242 78.4268 161.705 77.8896C161.168 77.3525 160.533 77.084 159.776 77.084C159.02 77.084 158.373 77.3525 157.835 77.8774C157.298 78.4146 157.042 79.0493 157.042 79.8062C157.042 82.394 158.666 84.2617 161.937 85.4092C161.327 85.9463 161.034 86.6299 161.034 87.4844C161.034 88.4854 161.388 89.3154 162.096 89.9868C162.804 90.6704 163.658 91 164.659 91C165.648 91 166.502 90.6704 167.21 89.9868C167.918 89.3154 168.285 88.4854 168.285 87.4844C168.285 86.6299 167.979 85.9463 167.381 85.4092C168.651 84.8599 169.615 84.2861 170.262 83.688C171.141 82.8579 171.593 81.8691 171.593 80.7217C171.593 79.7695 171.263 78.9395 170.628 78.2559C171.397 77.5845 171.788 76.6812 171.788 75.5581ZM160.851 79.8184C160.851 80.7705 160.265 81.3076 159.105 81.4541C158.739 80.978 158.568 80.4287 158.568 79.8184C158.568 79.5254 158.69 79.2812 158.946 79.0615C159.19 78.854 159.471 78.7441 159.776 78.7441C160.069 78.7441 160.313 78.854 160.533 79.0615C160.741 79.2812 160.851 79.5254 160.851 79.8184ZM166.625 87.4722C166.625 87.9604 166.405 88.3389 165.978 88.6074C165.611 88.8394 165.172 88.9492 164.659 88.9492C164.146 88.9492 163.707 88.8394 163.341 88.6074C162.901 88.3389 162.694 87.9604 162.694 87.4722C162.694 86.9839 162.901 86.5811 163.316 86.2637C163.707 85.9707 164.146 85.8242 164.659 85.8242C165.16 85.8242 165.611 85.9829 166.014 86.2759C166.417 86.5811 166.625 86.9839 166.625 87.4722ZM186.827 85.6289C186.827 82.8701 185.948 80.6484 184.215 78.9883V77.3281H173.741V78.9883H176.354C174.608 80.6484 173.741 82.8701 173.741 85.6289C173.741 87.521 174.364 89.3398 175.609 91.0977L176.915 90.0845C175.902 88.644 175.401 87.1548 175.401 85.6289C175.401 84.0298 175.804 82.5894 176.61 81.3076C177.538 79.8306 178.771 79.0859 180.284 79.0859C181.798 79.0859 183.019 79.8306 183.958 81.3076C184.764 82.5894 185.167 84.0298 185.167 85.6289C185.167 87.1426 184.654 88.6196 183.653 90.0845L184.947 91.0977C186.192 89.3643 186.827 87.5454 186.827 85.6289ZM188.194 75.5215C188.194 74.6304 187.914 73.8613 187.376 73.2021C186.778 72.5063 186.021 72.1523 185.094 72.1523C184.459 72.1523 183.934 72.3477 183.507 72.7261C183.031 73.1411 182.799 73.6904 182.799 74.374C182.799 74.9355 182.958 75.3872 183.287 75.729C183.58 76.0464 183.946 76.1929 184.374 76.1929C184.923 76.1929 185.35 75.9487 185.643 75.436L185.143 74.9966C184.959 75.2529 184.764 75.375 184.544 75.375C184.154 75.375 183.958 75.1431 183.958 74.6548C183.958 74.0322 184.276 73.7148 184.935 73.7148C185.448 73.7148 185.863 73.8857 186.192 74.2275C186.485 74.5449 186.632 74.9355 186.632 75.375C186.632 75.8877 186.461 76.3271 186.119 76.7056C185.753 77.1206 185.301 77.3281 184.764 77.3281H182.848V78.9883H184.764C185.814 78.9883 186.668 78.6343 187.315 77.9019C187.901 77.2427 188.194 76.4492 188.194 75.5215ZM197.691 90.5728L197.508 88.9004C197.215 88.937 196.971 88.9492 196.776 88.9492C195.165 88.9492 193.871 88.3999 192.87 87.2769C191.93 86.2393 191.466 84.9819 191.466 83.5049C191.466 83.0776 191.502 82.626 191.588 82.1499C192.149 82.9434 192.931 83.334 193.932 83.334C194.859 83.334 195.616 83.0532 196.19 82.4673C196.764 81.8813 197.057 81.1367 197.057 80.209C197.057 79.3545 196.751 78.6099 196.141 77.9995C195.531 77.3892 194.786 77.084 193.932 77.084C192.662 77.084 191.649 77.7188 190.88 78.9883C190.16 80.1602 189.806 81.6006 189.806 83.3096C189.806 85.4092 190.477 87.1548 191.82 88.5342C193.163 89.9258 194.872 90.6094 196.959 90.6094C197.13 90.6094 197.374 90.5972 197.691 90.5728ZM195.396 80.209C195.396 80.624 195.25 80.9658 194.969 81.2466C194.676 81.5396 194.334 81.6738 193.932 81.6738C193.517 81.6738 193.175 81.5396 192.894 81.2466C192.601 80.9658 192.467 80.624 192.467 80.209C192.467 79.8062 192.601 79.4644 192.894 79.1714C193.175 78.8906 193.517 78.7441 193.932 78.7441C194.334 78.7441 194.676 78.8906 194.969 79.1714C195.25 79.4644 195.396 79.8062 195.396 80.209ZM214.854 84.5669C214.854 81.9424 214.098 79.3667 212.608 76.8276C211.656 75.2285 210.631 73.9346 209.532 72.958C208.922 72.4209 208.275 72.1523 207.591 72.1523C206.834 72.1523 206.188 72.4209 205.65 72.958C205.113 73.4951 204.857 74.1299 204.857 74.8867C204.857 75.6436 205.113 76.2905 205.65 76.8276C206.188 77.3647 206.834 77.6211 207.591 77.6211C208.788 77.6211 209.63 77.0718 210.106 75.9609C212.157 78.5 213.194 81.3442 213.194 84.4937C213.194 85.5923 212.95 86.5811 212.462 87.4355C211.888 88.4487 211.119 88.9492 210.167 88.9492C209.312 88.9492 208.482 88.4487 207.689 87.4478L205.736 84.6401C204.942 83.6392 204.125 83.1387 203.27 83.1387C202.11 83.1387 201.207 83.4561 200.572 84.0908C199.938 84.7256 199.62 85.6167 199.62 86.7397C199.62 88.5098 200.316 89.9258 201.72 91L202.489 88.9492C202.208 88.6929 201.927 88.4243 201.659 88.1558C201.402 87.814 201.28 87.2891 201.28 86.6055C201.28 86.1416 201.402 85.7388 201.671 85.4092C202 85.0063 202.489 84.7988 203.136 84.7988C203.722 84.7988 204.369 85.3359 205.089 86.4102C206.31 88.2778 206.981 89.2666 207.103 89.3887C208.019 90.4629 209.02 91 210.118 91C211.607 91 212.792 90.292 213.695 88.876C214.464 87.6553 214.854 86.2148 214.854 84.5669ZM209.044 74.8135C208.971 75.1431 208.775 75.4116 208.482 75.6313C208.177 75.8511 207.872 75.9609 207.567 75.9609C207.274 75.9609 207.018 75.8633 206.81 75.6436C206.59 75.436 206.493 75.1797 206.493 74.8867C206.493 74.5938 206.59 74.3496 206.81 74.1299C207.018 73.9224 207.274 73.8125 207.567 73.8125C208.055 73.8125 208.543 74.1543 209.044 74.8135ZM232.237 85.7388C232.237 82.8579 231.212 80.6118 229.161 78.9883H230.772V77.3281H217.003V78.9883H220.079C218.028 80.6118 217.003 82.8579 217.003 85.7388C217.003 87.1304 217.381 88.3389 218.138 89.3398C218.968 90.4507 220.055 91 221.397 91C222.716 91 223.79 90.4385 224.62 89.3154C225.45 90.4385 226.524 91 227.843 91C229.186 91 230.272 90.4507 231.102 89.3398C231.859 88.3389 232.237 87.1304 232.237 85.7388ZM230.577 85.5801C230.577 86.4956 230.37 87.2524 229.979 87.8628C229.515 88.5952 228.844 88.9492 227.989 88.9492C227.232 88.9492 226.622 88.6929 226.158 88.1802C225.694 87.6675 225.462 87.0205 225.462 86.2637H223.802C223.802 87.0205 223.57 87.6553 223.106 88.168C222.618 88.6929 221.996 88.9492 221.251 88.9492C220.384 88.9492 219.725 88.5952 219.261 87.8628C218.858 87.2524 218.663 86.4956 218.663 85.5801C218.663 83.8467 219.212 82.3208 220.335 81.0269C221.495 79.6719 222.923 78.9883 224.62 78.9883C226.305 78.9883 227.733 79.6719 228.905 81.0269C230.016 82.3208 230.577 83.8467 230.577 85.5801ZM233.58 75.5215C233.58 74.6304 233.299 73.8613 232.762 73.2021C232.164 72.5063 231.407 72.1523 230.479 72.1523C229.845 72.1523 229.32 72.3477 228.893 72.7261C228.417 73.1411 228.185 73.6904 228.185 74.374C228.185 74.9355 228.343 75.3872 228.673 75.729C228.966 76.0464 229.332 76.1929 229.759 76.1929C230.309 76.1929 230.736 75.9487 231.029 75.436L230.528 74.9966C230.345 75.2529 230.15 75.375 229.93 75.375C229.54 75.375 229.344 75.1431 229.344 74.6548C229.344 74.0322 229.662 73.7148 230.321 73.7148C230.833 73.7148 231.249 73.8857 231.578 74.2275C231.871 74.5449 232.018 74.9355 232.018 75.375C232.018 75.8877 231.847 76.3271 231.505 76.7056C231.139 77.1206 230.687 77.3281 230.15 77.3281H228.233V78.9883H230.15C231.2 78.9883 232.054 78.6343 232.701 77.9019C233.287 77.2427 233.58 76.4492 233.58 75.5215Z" fill="#ABABAB"/>
</svg>
