<svg width="276" height="105" viewBox="0 0 276 105" fill="none" xmlns="http://www.w3.org/2000/svg">
<path d="M20.9731 27.9249L32.816 46.93" stroke="white"/>
<path d="M53.0747 34.3412L32.8854 47.3646" stroke="white"/>
<path d="M41.7974 72.8374L32.9543 46.7227" stroke="white"/>
<path d="M41.7972 73.7355L6.13348 55.2296" stroke="white"/>
<path d="M20.7752 34.8502C24.5998 34.8502 27.7003 31.7497 27.7003 27.9251C27.7003 24.1005 24.5998 21 20.7752 21C16.9506 21 13.8501 24.1005 13.8501 27.9251C13.8501 31.7497 16.9506 34.8502 20.7752 34.8502Z" fill="white"/>
<path d="M53.075 41.2286C56.8996 41.2286 60.0001 38.1282 60.0001 34.3035C60.0001 30.4789 56.8996 27.3784 53.075 27.3784C49.2504 27.3784 46.1499 30.4789 46.1499 34.3035C46.1499 38.1282 49.2504 41.2286 53.075 41.2286Z" fill="white"/>
<path d="M32.8612 51.4702C35.3745 51.4702 37.412 49.4327 37.412 46.9194C37.412 44.406 35.3745 42.3686 32.8612 42.3686C30.3479 42.3686 28.3104 44.406 28.3104 46.9194C28.3104 49.4327 30.3479 51.4702 32.8612 51.4702Z" fill="white"/>
<path d="M5.54009 61.7593C8.59979 61.7593 11.0802 59.2789 11.0802 56.2192C11.0802 53.1595 8.59979 50.6791 5.54009 50.6791C2.48038 50.6791 0 53.1595 0 56.2192C0 59.2789 2.48038 61.7593 5.54009 61.7593Z" fill="white"/>
<path d="M42.1592 80.7463C45.9839 80.7463 49.0843 77.6459 49.0843 73.8212C49.0843 69.9966 45.9839 66.8961 42.1592 66.8961C38.3346 66.8961 35.2341 69.9966 35.2341 73.8212C35.2341 77.6459 38.3346 80.7463 42.1592 80.7463Z" fill="white"/>
<path d="M96.488 51.96C95.56 51.96 94.712 51.752 93.944 51.336C93.208 50.92 92.568 50.344 92.024 49.608C91.48 48.872 91.048 48.008 90.728 47.016C90.44 45.992 90.296 44.904 90.296 43.752C90.296 42.28 90.536 40.936 91.016 39.72C91.528 38.504 92.248 37.464 93.176 36.6C94.104 35.736 95.224 35.08 96.536 34.632C97.88 34.152 99.368 33.912 101 33.912C103.592 33.912 105.704 34.488 107.336 35.64C108.968 36.76 110.2 38.28 111.032 40.2L112.232 42.888C112.584 43.688 112.984 44.264 113.432 44.616C113.88 44.968 114.408 45.144 115.016 45.144C116.008 45.144 116.76 44.728 117.272 43.896C117.784 43.032 118.04 41.896 118.04 40.488C118.04 39.208 117.816 37.992 117.368 36.84C116.952 35.688 116.36 34.648 115.592 33.72C114.824 32.792 113.912 31.992 112.856 31.32C111.8 30.648 110.632 30.136 109.352 29.784H91.256C90.712 28.888 90.44 27.88 90.44 26.76C90.44 25.64 90.68 24.808 91.16 24.264C91.672 23.688 92.36 23.4 93.224 23.4H117.464C118.2 23.336 118.728 23.112 119.048 22.728C119.368 22.312 119.528 21.8 119.528 21.192C119.528 20.456 119.368 19.736 119.048 19.032C119.528 18.648 120.072 18.344 120.68 18.12C121.32 17.896 121.96 17.784 122.6 17.784C123.88 17.784 124.936 18.216 125.768 19.08C126.632 19.944 127.064 21.224 127.064 22.92C127.064 24.744 126.52 26.248 125.432 27.432C124.376 28.616 122.904 29.384 121.016 29.736C122.616 30.952 123.912 32.552 124.904 34.536C125.928 36.52 126.44 38.664 126.44 40.968C126.44 42.6 126.168 44.104 125.624 45.48C125.08 46.824 124.296 47.976 123.272 48.936C122.28 49.896 121.064 50.632 119.624 51.144C118.184 51.688 116.584 51.96 114.824 51.96C112.232 51.96 110.168 51.4 108.632 50.28C107.096 49.128 105.864 47.528 104.936 45.48L104.024 43.416C103.672 42.616 103.272 41.992 102.824 41.544C102.408 41.096 101.832 40.872 101.096 40.872C100.392 40.872 99.816 41.112 99.368 41.592C98.92 42.04 98.696 42.776 98.696 43.8C98.696 44.76 98.888 45.64 99.272 46.44C99.656 47.24 100.152 47.96 100.76 48.6C100.472 49.656 99.96 50.472 99.224 51.048C98.488 51.656 97.576 51.96 96.488 51.96ZM132.506 42.792C132.506 42.152 132.634 41.432 132.89 40.632C133.146 39.8 133.578 38.984 134.186 38.184H130.058C129.866 37.832 129.69 37.4 129.53 36.888C129.37 36.376 129.29 35.816 129.29 35.208C129.29 34.12 129.53 33.352 130.01 32.904C130.522 32.424 131.162 32.184 131.93 32.184H140.858V29.4H130.298C130.106 29.048 129.93 28.616 129.77 28.104C129.61 27.592 129.53 27.032 129.53 26.424C129.53 25.336 129.77 24.568 130.25 24.12C130.73 23.64 131.354 23.4 132.122 23.4H150.89C151.754 23.4 152.41 23.16 152.858 22.68C153.338 22.2 153.578 21.592 153.578 20.856C153.578 19.544 153.034 18.888 151.946 18.888C151.53 18.888 151.162 19.032 150.842 19.32C150.554 19.576 150.41 19.976 150.41 20.52C150.41 20.712 150.442 20.936 150.506 21.192C150.25 21.352 149.866 21.48 149.354 21.576C148.842 21.672 148.362 21.72 147.914 21.72C146.858 21.72 146.01 21.432 145.37 20.856C144.762 20.28 144.458 19.528 144.458 18.6C144.458 17.16 145.098 15.928 146.378 14.904C147.69 13.848 149.594 13.32 152.09 13.32C153.21 13.32 154.266 13.496 155.258 13.848C156.282 14.168 157.162 14.648 157.898 15.288C158.666 15.928 159.274 16.744 159.722 17.736C160.17 18.696 160.394 19.8 160.394 21.048C160.394 22.264 160.17 23.384 159.722 24.408C159.274 25.432 158.634 26.312 157.802 27.048C157.002 27.784 156.042 28.36 154.922 28.776C153.834 29.192 152.618 29.4 151.274 29.4H148.538V32.184H159.098C159.29 32.536 159.466 32.984 159.626 33.528C159.786 34.04 159.866 34.6 159.866 35.208C159.866 36.328 159.61 37.112 159.098 37.56C158.618 37.976 157.994 38.184 157.226 38.184H155.066C155.642 38.952 156.074 39.736 156.362 40.536C156.65 41.336 156.794 42.088 156.794 42.792C156.794 44.104 156.49 45.336 155.882 46.488C155.306 47.608 154.49 48.584 153.434 49.416C152.378 50.248 151.098 50.888 149.594 51.336C148.122 51.816 146.474 52.056 144.65 52.056C142.826 52.056 141.162 51.816 139.658 51.336C138.186 50.888 136.922 50.248 135.866 49.416C134.81 48.584 133.978 47.608 133.37 46.488C132.794 45.336 132.506 44.104 132.506 42.792ZM143.786 38.136C142.666 38.296 141.77 38.76 141.098 39.528C140.458 40.264 140.138 41.144 140.138 42.168C140.138 43.224 140.522 44.152 141.29 44.952C142.09 45.72 143.21 46.104 144.65 46.104C146.09 46.104 147.194 45.72 147.962 44.952C148.762 44.152 149.162 43.224 149.162 42.168C149.162 41.144 148.858 40.264 148.25 39.528C147.674 38.792 146.826 38.344 145.706 38.184L144.746 38.136H143.786ZM158.119 69.528C157.479 69.528 156.743 69.384 155.911 69.096C155.079 68.84 154.343 68.344 153.703 67.608C152.999 68.344 152.199 68.84 151.303 69.096C150.375 69.384 149.559 69.528 148.855 69.528C146.775 69.528 145.143 69 143.959 67.944C142.743 66.888 142.135 65.448 142.135 63.624C142.135 61.928 142.647 60.6 143.671 59.64C144.695 58.68 145.927 58.2 147.367 58.2C148.391 58.2 149.191 58.424 149.767 58.872C150.343 59.32 150.631 59.912 150.631 60.648C150.631 61.064 150.567 61.416 150.439 61.704C150.279 62.024 150.103 62.312 149.911 62.568C149.527 62.376 149.111 62.28 148.663 62.28C148.215 62.28 147.847 62.408 147.559 62.664C147.239 62.952 147.079 63.336 147.079 63.816C147.079 64.328 147.271 64.728 147.655 65.016C148.007 65.336 148.503 65.496 149.143 65.496C149.847 65.496 150.391 65.336 150.775 65.016C151.159 64.696 151.351 64.264 151.351 63.72V61.992C151.607 61.832 151.943 61.688 152.359 61.56C152.775 61.432 153.239 61.368 153.751 61.368C154.263 61.368 154.727 61.432 155.143 61.56C155.559 61.688 155.895 61.832 156.151 61.992V63.72C156.215 64.264 156.423 64.696 156.775 65.016C157.127 65.336 157.591 65.496 158.167 65.496C158.711 65.496 159.191 65.304 159.607 64.92C159.991 64.568 160.183 63.976 160.183 63.144C160.183 62.28 160.055 61.48 159.799 60.744C159.511 60.008 159.047 59.176 158.407 58.248L156.391 55.32C156.711 54.68 157.239 54.136 157.975 53.688C158.711 53.24 159.447 52.984 160.183 52.92C161.591 54.808 162.759 56.568 163.687 58.2C164.647 59.864 165.415 61.384 165.991 62.76C166.567 64.136 166.983 65.384 167.239 66.504C167.495 67.624 167.623 68.616 167.623 69.48C167.623 70.312 167.431 70.968 167.047 71.448C166.663 71.928 166.023 72.168 165.127 72.168C164.455 72.168 163.927 72.088 163.543 71.928C163.191 71.768 162.871 71.608 162.583 71.448C162.679 70.776 162.727 70.12 162.727 69.48C162.727 68.872 162.679 68.28 162.583 67.704C162.103 68.312 161.511 68.76 160.807 69.048C160.071 69.368 159.175 69.528 158.119 69.528Z" fill="white"/>
<path d="M94.75 84.1C95.75 84.1 96.5917 84.2667 97.275 84.6C97.975 84.9333 98.5333 85.3917 98.95 85.975C99.3667 85.3917 99.9167 84.9333 100.6 84.6C101.283 84.2667 102.117 84.1 103.1 84.1C104.083 84.1 104.925 84.25 105.625 84.55C106.325 84.85 106.9 85.2583 107.35 85.775C107.8 86.275 108.133 86.8583 108.35 87.525C108.567 88.1917 108.675 88.8833 108.675 89.6C108.675 90.85 108.442 92.0167 107.975 93.1C107.508 94.1667 106.867 95.125 106.05 95.975C106.433 96.4917 106.708 96.975 106.875 97.425C107.058 97.875 107.15 98.3083 107.15 98.725C107.15 99.375 106.983 99.8833 106.65 100.25C106.317 100.633 105.8 100.825 105.1 100.825C104.867 100.825 104.608 100.8 104.325 100.75C104.042 100.7 103.808 100.633 103.625 100.55C103.625 100.217 103.583 99.8667 103.5 99.5C103.433 99.1333 103.325 98.7583 103.175 98.375C102.542 98.7417 101.875 99.0167 101.175 99.2C100.492 99.4 99.725 99.5 98.875 99.5C98.0917 99.5 97.375 99.4 96.725 99.2C96.075 99 95.5167 98.7167 95.05 98.35C94.5833 97.9833 94.225 97.5417 93.975 97.025C93.725 96.5083 93.6 95.9417 93.6 95.325C93.6 94.725 93.7167 94.1833 93.95 93.7C94.2 93.2 94.5417 92.7833 94.975 92.45C95.4083 92.1 95.9167 91.8333 96.5 91.65C97.1 91.45 97.7417 91.35 98.425 91.35C99.4583 91.35 100.392 91.5167 101.225 91.85C102.075 92.1667 102.858 92.6417 103.575 93.275C104.142 92.1417 104.425 90.9667 104.425 89.75C104.425 89.0833 104.275 88.55 103.975 88.15C103.675 87.75 103.225 87.55 102.625 87.55C102.108 87.55 101.7 87.7083 101.4 88.025C101.1 88.3417 100.95 88.75 100.95 89.25V90.05C100.733 90.2 100.458 90.325 100.125 90.425C99.7917 90.5083 99.4083 90.55 98.975 90.55C98.5417 90.55 98.1583 90.5083 97.825 90.425C97.4917 90.325 97.2167 90.2 97 90.05V89.1C96.9667 88.6333 96.8083 88.2583 96.525 87.975C96.2417 87.6917 95.8583 87.55 95.375 87.55C94.875 87.55 94.4667 87.7083 94.15 88.025C93.85 88.3417 93.7 88.7417 93.7 89.225C93.7 89.475 93.7333 89.7167 93.8 89.95C93.8833 90.1667 93.9917 90.3833 94.125 90.6C93.975 90.8833 93.725 91.1417 93.375 91.375C93.025 91.5917 92.6083 91.7 92.125 91.7C91.375 91.7 90.7583 91.45 90.275 90.95C89.7917 90.45 89.55 89.65 89.55 88.55C89.55 87.9 89.675 87.3083 89.925 86.775C90.175 86.225 90.525 85.75 90.975 85.35C91.4417 84.95 91.9917 84.6417 92.625 84.425C93.275 84.2083 93.9833 84.1 94.75 84.1ZM99.15 96.35C99.5833 96.35 99.9917 96.2833 100.375 96.15C100.758 96.0167 101.117 95.8333 101.45 95.6C101.083 95.25 100.683 94.975 100.25 94.775C99.8167 94.5583 99.3583 94.45 98.875 94.45C98.075 94.45 97.675 94.7583 97.675 95.375C97.675 95.675 97.8083 95.9167 98.075 96.1C98.3417 96.2667 98.7 96.35 99.15 96.35ZM124.136 99.5C123.419 99.5 122.686 99.3583 121.936 99.075C121.186 98.7917 120.586 98.3583 120.136 97.775C119.736 98.2583 119.186 98.6667 118.486 99C117.802 99.3333 117.036 99.5 116.186 99.5C115.236 99.5 114.394 99.3583 113.661 99.075C112.944 98.7917 112.344 98.3917 111.861 97.875C111.377 97.3583 111.011 96.7417 110.761 96.025C110.527 95.3083 110.411 94.525 110.411 93.675C110.411 92.4917 110.627 91.4 111.061 90.4C111.511 89.4 112.161 88.55 113.011 87.85H110.661C110.377 87.3667 110.236 86.8583 110.236 86.325C110.236 85.7583 110.361 85.3333 110.611 85.05C110.861 84.7667 111.202 84.625 111.636 84.625H125.111C125.544 84.625 125.852 84.5167 126.036 84.3C126.219 84.0667 126.311 83.7833 126.311 83.45C126.311 83.0833 126.227 82.7167 126.061 82.35C126.311 82.15 126.594 81.9917 126.911 81.875C127.244 81.7583 127.577 81.7 127.911 81.7C128.577 81.7 129.127 81.925 129.561 82.375C130.011 82.8083 130.236 83.4583 130.236 84.325C130.236 86.1417 129.244 87.2917 127.261 87.775C128.111 88.525 128.761 89.4 129.211 90.4C129.677 91.4 129.911 92.5 129.911 93.7C129.911 94.55 129.786 95.3333 129.536 96.05C129.302 96.75 128.944 97.3583 128.461 97.875C127.977 98.3917 127.369 98.7917 126.636 99.075C125.919 99.3583 125.086 99.5 124.136 99.5ZM116.461 96.025C116.944 96.025 117.336 95.875 117.636 95.575C117.952 95.275 118.111 94.8833 118.111 94.4V93.25C118.394 93.0667 118.711 92.925 119.061 92.825C119.411 92.725 119.777 92.675 120.161 92.675C120.544 92.675 120.911 92.725 121.261 92.825C121.611 92.925 121.927 93.0667 122.211 93.25V94.3C122.211 94.8333 122.344 95.2583 122.611 95.575C122.894 95.875 123.277 96.025 123.761 96.025C124.344 96.025 124.794 95.7917 125.111 95.325C125.444 94.8417 125.611 94.1667 125.611 93.3C125.611 92.6 125.502 91.9417 125.286 91.325C125.069 90.6917 124.769 90.1333 124.386 89.65C124.002 89.1667 123.544 88.775 123.011 88.475C122.494 88.1583 121.919 87.95 121.286 87.85H118.786C118.186 87.9833 117.636 88.2167 117.136 88.55C116.636 88.8667 116.202 89.2667 115.836 89.75C115.486 90.2333 115.211 90.775 115.011 91.375C114.811 91.975 114.711 92.6167 114.711 93.3C114.711 94.1667 114.852 94.8417 115.136 95.325C115.436 95.7917 115.877 96.025 116.461 96.025ZM149.996 99.5C148.896 99.5 147.971 99.325 147.221 98.975C146.487 98.625 145.879 98.1833 145.396 97.65C144.729 98.2333 143.937 98.6833 143.021 99C142.121 99.3333 141.096 99.5 139.946 99.5C138.679 99.5 137.546 99.3167 136.546 98.95C135.546 98.5833 134.704 98.075 134.021 97.425C133.337 96.7583 132.812 95.975 132.446 95.075C132.079 94.175 131.896 93.2 131.896 92.15C131.896 91.4 132.012 90.65 132.246 89.9C132.496 89.1333 132.896 88.45 133.446 87.85H131.721C131.587 87.65 131.479 87.4167 131.396 87.15C131.312 86.8833 131.271 86.5917 131.271 86.275C131.271 85.6917 131.396 85.275 131.646 85.025C131.912 84.7583 132.254 84.625 132.671 84.625H143.671C144.121 84.625 144.462 84.5 144.696 84.25C144.946 84 145.071 83.6833 145.071 83.3C145.071 82.6167 144.787 82.275 144.221 82.275C144.004 82.275 143.812 82.35 143.646 82.5C143.496 82.6333 143.421 82.8417 143.421 83.125C143.421 83.225 143.437 83.3417 143.471 83.475C143.337 83.5583 143.137 83.625 142.871 83.675C142.604 83.725 142.354 83.75 142.121 83.75C141.571 83.75 141.129 83.6 140.796 83.3C140.479 83 140.321 82.6083 140.321 82.125C140.321 81.375 140.654 80.7333 141.321 80.2C142.004 79.65 142.996 79.375 144.296 79.375C144.879 79.375 145.429 79.4667 145.946 79.65C146.479 79.8167 146.937 80.0667 147.321 80.4C147.721 80.7333 148.037 81.1583 148.271 81.675C148.504 82.175 148.621 82.75 148.621 83.4C148.621 84.35 148.362 85.1917 147.846 85.925C147.346 86.6417 146.671 87.1667 145.821 87.5C146.437 88.0833 146.912 88.8083 147.246 89.675C147.579 90.525 147.746 91.35 147.746 92.15C147.746 93.0167 147.621 93.825 147.371 94.575C147.537 94.9583 147.787 95.2917 148.121 95.575C148.454 95.8417 148.904 95.975 149.471 95.975C150.021 95.975 150.454 95.8083 150.771 95.475C151.087 95.1417 151.246 94.7083 151.246 94.175C151.246 93.8083 151.237 93.4833 151.221 93.2C151.221 92.9 151.221 92.5833 151.221 92.25C151.221 90.7 151.471 89.4083 151.971 88.375C152.471 87.3417 153.121 86.5083 153.921 85.875C154.737 85.2417 155.646 84.7917 156.646 84.525C157.662 84.2583 158.687 84.125 159.721 84.125C160.987 84.125 162.146 84.325 163.196 84.725C164.246 85.1083 165.137 85.6583 165.871 86.375C166.621 87.0917 167.196 87.9583 167.596 88.975C168.012 89.975 168.221 91.0917 168.221 92.325C168.221 93.4417 168.079 94.45 167.796 95.35C167.512 96.2333 167.096 96.9833 166.546 97.6C166.012 98.2167 165.354 98.6833 164.571 99C163.804 99.3333 162.929 99.5 161.946 99.5C161.146 99.5 160.421 99.3833 159.771 99.15C159.121 98.9333 158.554 98.625 158.071 98.225C157.604 97.8083 157.237 97.3167 156.971 96.75C156.721 96.1667 156.596 95.525 156.596 94.825C156.596 94.175 156.696 93.5917 156.896 93.075C157.096 92.5583 157.362 92.125 157.696 91.775C158.046 91.4083 158.446 91.1333 158.896 90.95C159.362 90.75 159.862 90.65 160.396 90.65C161.112 90.65 161.671 90.825 162.071 91.175C162.487 91.525 162.696 91.9917 162.696 92.575C162.696 93.0417 162.571 93.4583 162.321 93.825C162.137 93.775 161.962 93.75 161.796 93.75C161.479 93.75 161.204 93.85 160.971 94.05C160.754 94.25 160.646 94.5333 160.646 94.9C160.646 95.25 160.762 95.5333 160.996 95.75C161.246 95.9667 161.562 96.075 161.946 96.075C162.646 96.075 163.171 95.7417 163.521 95.075C163.887 94.4083 164.071 93.4917 164.071 92.325C164.071 91.625 163.962 90.9917 163.746 90.425C163.546 89.8417 163.254 89.35 162.871 88.95C162.504 88.5333 162.054 88.2167 161.521 88C160.987 87.7667 160.396 87.65 159.746 87.65C159.146 87.65 158.579 87.7417 158.046 87.925C157.512 88.1083 157.046 88.4 156.646 88.8C156.246 89.1833 155.929 89.675 155.696 90.275C155.462 90.875 155.346 91.5833 155.346 92.4C155.346 92.6833 155.346 92.925 155.346 93.125C155.362 93.325 155.371 93.5583 155.371 93.825C155.371 95.625 154.896 97.025 153.946 98.025C153.012 99.0083 151.696 99.5 149.996 99.5ZM143.446 91.95C143.446 91.3167 143.346 90.7417 143.146 90.225C142.962 89.7083 142.712 89.2667 142.396 88.9C142.079 88.5333 141.704 88.25 141.271 88.05C140.854 87.85 140.412 87.75 139.946 87.75L139.671 87.775C138.604 87.8417 137.754 88.2583 137.121 89.025C136.504 89.775 136.196 90.75 136.196 91.95C136.196 92.5667 136.287 93.125 136.471 93.625C136.654 94.125 136.904 94.5583 137.221 94.925C137.554 95.275 137.937 95.55 138.371 95.75C138.821 95.9333 139.312 96.025 139.846 96.025C140.412 96.025 140.912 95.925 141.346 95.725C141.796 95.5083 142.171 95.2167 142.471 94.85C142.787 94.4833 143.029 94.0583 143.196 93.575C143.362 93.075 143.446 92.5333 143.446 91.95ZM178.557 99.775C177.89 99.775 177.257 99.6917 176.657 99.525C176.057 99.3583 175.523 99.1167 175.057 98.8C174.607 98.4833 174.248 98.1083 173.982 97.675C173.715 97.2417 173.582 96.75 173.582 96.2C173.582 95.85 173.657 95.4917 173.807 95.125C173.957 94.7417 174.19 94.425 174.507 94.175C173.807 93.9583 173.148 93.675 172.532 93.325C171.915 92.975 171.373 92.5667 170.907 92.1C170.457 91.6167 170.098 91.075 169.832 90.475C169.565 89.8583 169.432 89.175 169.432 88.425C169.432 87.7583 169.548 87.1667 169.782 86.65C170.032 86.1167 170.357 85.6667 170.757 85.3C171.173 84.9167 171.657 84.625 172.207 84.425C172.773 84.225 173.373 84.125 174.007 84.125C174.69 84.125 175.298 84.225 175.832 84.425C176.365 84.625 176.815 84.8917 177.182 85.225C177.548 85.5583 177.823 85.95 178.007 86.4C178.207 86.8333 178.307 87.2833 178.307 87.75C178.307 88.7667 177.948 89.5667 177.232 90.15C176.532 90.7167 175.523 91.0417 174.207 91.125C174.39 91.2417 174.64 91.3583 174.957 91.475C175.29 91.5917 175.657 91.7 176.057 91.8C176.457 91.8833 176.865 91.9583 177.282 92.025C177.715 92.0917 178.132 92.1417 178.532 92.175C180.032 91.9917 181.19 91.6667 182.007 91.2C182.84 90.7167 183.257 90.1083 183.257 89.375C183.257 88.7917 182.99 88.2833 182.457 87.85H180.257C180.123 87.65 180.015 87.4167 179.932 87.15C179.848 86.8833 179.807 86.5917 179.807 86.275C179.807 85.6917 179.932 85.275 180.182 85.025C180.448 84.7583 180.79 84.625 181.207 84.625H183.257C183.64 84.5917 183.915 84.475 184.082 84.275C184.248 84.0583 184.332 83.7917 184.332 83.475C184.332 83.0917 184.248 82.7167 184.082 82.35C184.332 82.15 184.615 81.9917 184.932 81.875C185.265 81.7583 185.598 81.7 185.932 81.7C186.598 81.7 187.148 81.925 187.582 82.375C188.032 82.8083 188.257 83.4583 188.257 84.325C188.257 85.025 188.073 85.6417 187.707 86.175C187.357 86.7083 186.865 87.125 186.232 87.425C186.582 87.775 186.848 88.1667 187.032 88.6C187.215 89.0167 187.307 89.4167 187.307 89.8C187.307 90.9 186.898 91.8167 186.082 92.55C185.282 93.2667 184.173 93.8667 182.757 94.35C183.023 94.6 183.223 94.8917 183.357 95.225C183.49 95.5417 183.557 95.8667 183.557 96.2C183.557 96.75 183.423 97.2417 183.157 97.675C182.89 98.1083 182.523 98.4833 182.057 98.8C181.607 99.1167 181.073 99.3583 180.457 99.525C179.857 99.6917 179.223 99.775 178.557 99.775ZM179.707 95.975C179.707 95.3583 179.332 94.9333 178.582 94.7C178.148 94.8333 177.84 95.0083 177.657 95.225C177.49 95.4417 177.407 95.6917 177.407 95.975C177.407 96.2583 177.507 96.5083 177.707 96.725C177.923 96.925 178.207 97.025 178.557 97.025C178.907 97.025 179.182 96.925 179.382 96.725C179.598 96.5083 179.707 96.2583 179.707 95.975ZM173.932 88.825C174.248 88.825 174.498 88.7333 174.682 88.55C174.865 88.35 174.957 88.0917 174.957 87.775C174.957 87.4583 174.865 87.2 174.682 87C174.498 86.8 174.248 86.7 173.932 86.7C173.615 86.7 173.357 86.8 173.157 87C172.973 87.2 172.882 87.4583 172.882 87.775C172.882 88.0917 172.973 88.35 173.157 88.55C173.357 88.7333 173.615 88.825 173.932 88.825ZM202.268 99.4C201.601 99.4 201.076 99.2667 200.693 99C200.326 98.7167 200.143 98.1333 200.143 97.25V95.775C200.143 93.0583 199.893 91.05 199.393 89.75C198.909 88.4333 198.159 87.775 197.143 87.775H196.968C195.084 87.925 194.143 90.5917 194.143 95.775V99.15C193.759 99.2333 193.359 99.2917 192.943 99.325C192.543 99.375 192.176 99.4 191.843 99.4C191.176 99.4 190.651 99.2667 190.268 99C189.901 98.7167 189.718 98.1333 189.718 97.25V96.025C189.718 94.0083 189.859 92.35 190.143 91.05C190.443 89.7333 190.909 88.6667 191.543 87.85H189.393C189.109 87.3833 188.968 86.85 188.968 86.25C188.968 85.6667 189.093 85.25 189.343 85C189.609 84.75 189.951 84.625 190.368 84.625H201.018C201.434 84.5917 201.751 84.4583 201.968 84.225C202.184 83.975 202.293 83.6667 202.293 83.3C202.293 82.6167 202.009 82.275 201.443 82.275C201.226 82.275 201.034 82.35 200.868 82.5C200.718 82.6333 200.643 82.8417 200.643 83.125C200.643 83.225 200.659 83.3417 200.693 83.475C200.559 83.5583 200.359 83.625 200.093 83.675C199.826 83.725 199.576 83.75 199.343 83.75C198.793 83.75 198.351 83.6 198.018 83.3C197.701 83 197.543 82.6083 197.543 82.125C197.543 81.375 197.876 80.7333 198.543 80.2C199.226 79.65 200.218 79.375 201.518 79.375C202.101 79.375 202.651 79.4667 203.168 79.65C203.701 79.8167 204.159 80.0667 204.543 80.4C204.943 80.7333 205.259 81.1583 205.493 81.675C205.726 82.175 205.843 82.75 205.843 83.4C205.843 84.45 205.543 85.3583 204.943 86.125C204.343 86.875 203.543 87.3917 202.543 87.675C203.226 88.4417 203.734 89.5083 204.068 90.875C204.401 92.225 204.568 93.9417 204.568 96.025V99.15C204.184 99.2333 203.784 99.2917 203.368 99.325C202.968 99.375 202.601 99.4 202.268 99.4ZM213.343 92.5C212.343 92.5 211.443 92.2417 210.643 91.725C210.709 92.375 210.868 92.9833 211.118 93.55C211.384 94.1 211.743 94.5833 212.193 95C212.643 95.4167 213.176 95.75 213.793 96C214.409 96.2333 215.109 96.3583 215.893 96.375C215.976 96.5417 216.034 96.7333 216.068 96.95C216.118 97.1667 216.143 97.3583 216.143 97.525C216.143 98.075 215.968 98.5417 215.618 98.925C215.284 99.3083 214.718 99.5 213.918 99.5C212.984 99.5 212.084 99.2917 211.218 98.875C210.351 98.4583 209.584 97.875 208.918 97.125C208.251 96.375 207.709 95.4917 207.293 94.475C206.893 93.4417 206.693 92.3167 206.693 91.1C206.693 90.05 206.843 89.1 207.143 88.25C207.443 87.3833 207.859 86.65 208.393 86.05C208.926 85.4333 209.568 84.9583 210.318 84.625C211.084 84.2917 211.926 84.125 212.843 84.125C213.643 84.125 214.343 84.25 214.943 84.5C215.543 84.75 216.043 85.075 216.443 85.475C216.843 85.875 217.143 86.3333 217.343 86.85C217.543 87.3667 217.643 87.8917 217.643 88.425C217.643 88.975 217.543 89.5 217.343 90C217.159 90.4833 216.884 90.9167 216.518 91.3C216.151 91.6667 215.701 91.9583 215.168 92.175C214.634 92.3917 214.026 92.5 213.343 92.5ZM212.743 89.675C213.126 89.675 213.426 89.5583 213.643 89.325C213.876 89.0917 213.993 88.8 213.993 88.45C213.993 88.1167 213.876 87.8333 213.643 87.6C213.426 87.3667 213.126 87.25 212.743 87.25C212.359 87.25 212.059 87.3667 211.843 87.6C211.626 87.8333 211.518 88.1167 211.518 88.45C211.518 88.8 211.626 89.0917 211.843 89.325C212.059 89.5583 212.359 89.675 212.743 89.675ZM227.2 80.65C228.484 80.65 229.75 80.9417 231 81.525C232.267 82.0917 233.4 82.9 234.4 83.95C235.4 84.9833 236.209 86.225 236.825 87.675C237.442 89.125 237.75 90.7333 237.75 92.5C237.75 93.5667 237.609 94.5333 237.325 95.4C237.042 96.25 236.642 96.9833 236.125 97.6C235.625 98.2 235.009 98.6667 234.275 99C233.542 99.3333 232.725 99.5 231.825 99.5C231.092 99.5 230.442 99.425 229.875 99.275C229.309 99.125 228.8 98.9083 228.35 98.625C227.917 98.325 227.542 97.9667 227.225 97.55C226.909 97.1333 226.634 96.6583 226.4 96.125L225.925 95.05C225.742 94.6333 225.534 94.3083 225.3 94.075C225.084 93.8417 224.784 93.725 224.4 93.725C224.034 93.725 223.734 93.85 223.5 94.1C223.267 94.3333 223.15 94.7167 223.15 95.25C223.15 95.75 223.25 96.2083 223.45 96.625C223.65 97.0417 223.909 97.4167 224.225 97.75C224.075 98.3 223.8 98.725 223.4 99.025C223.017 99.3417 222.534 99.5 221.95 99.5C221.484 99.5 221.059 99.3917 220.675 99.175C220.292 98.9583 219.959 98.6583 219.675 98.275C219.392 97.875 219.167 97.4167 219 96.9C218.85 96.3667 218.775 95.7833 218.775 95.15C218.775 94.4 218.9 93.7167 219.15 93.1C219.417 92.4667 219.792 91.9333 220.275 91.5C220.759 91.05 221.334 90.7083 222 90.475C222.684 90.225 223.45 90.1 224.3 90.1C225.684 90.1 226.792 90.4 227.625 91C228.475 91.5833 229.125 92.375 229.575 93.375L230.2 94.775C230.35 95.1083 230.525 95.3917 230.725 95.625C230.925 95.8417 231.217 95.95 231.6 95.95C232.234 95.95 232.692 95.6583 232.975 95.075C233.259 94.475 233.4 93.6 233.4 92.45C233.4 91.9833 233.359 91.4583 233.275 90.875C233.192 90.2917 233.05 89.7083 232.85 89.125C232.65 88.525 232.392 87.95 232.075 87.4C231.759 86.8333 231.367 86.35 230.9 85.95C230.584 86.6833 230.067 87.275 229.35 87.725C228.634 88.1583 227.825 88.375 226.925 88.375C226.275 88.375 225.675 88.2917 225.125 88.125C224.575 87.9417 224.1 87.6833 223.7 87.35C223.317 87.0167 223.009 86.6167 222.775 86.15C222.559 85.6667 222.45 85.125 222.45 84.525C222.45 83.375 222.859 82.4417 223.675 81.725C224.509 81.0083 225.684 80.65 227.2 80.65ZM226.05 84.525C226.05 84.8583 226.15 85.1333 226.35 85.35C226.567 85.55 226.834 85.65 227.15 85.65C227.467 85.65 227.725 85.55 227.925 85.35C228.142 85.1333 228.25 84.8583 228.25 84.525C228.25 84.1917 228.142 83.925 227.925 83.725C227.725 83.5083 227.467 83.4 227.15 83.4C226.834 83.4 226.567 83.5083 226.35 83.725C226.15 83.925 226.05 84.1917 226.05 84.525ZM253.384 99.5C252.667 99.5 251.934 99.3583 251.184 99.075C250.434 98.7917 249.834 98.3583 249.384 97.775C248.984 98.2583 248.434 98.6667 247.734 99C247.05 99.3333 246.284 99.5 245.434 99.5C244.484 99.5 243.642 99.3583 242.909 99.075C242.192 98.7917 241.592 98.3917 241.109 97.875C240.625 97.3583 240.259 96.7417 240.009 96.025C239.775 95.3083 239.659 94.525 239.659 93.675C239.659 92.4917 239.875 91.4 240.309 90.4C240.759 89.4 241.409 88.55 242.259 87.85H239.909C239.625 87.3667 239.484 86.8583 239.484 86.325C239.484 85.7583 239.609 85.3333 239.859 85.05C240.109 84.7667 240.45 84.625 240.884 84.625H254.609C255.059 84.625 255.4 84.5 255.634 84.25C255.884 84 256.009 83.6833 256.009 83.3C256.009 82.6167 255.725 82.275 255.159 82.275C254.942 82.275 254.75 82.35 254.584 82.5C254.434 82.6333 254.359 82.8417 254.359 83.125C254.359 83.225 254.375 83.3417 254.409 83.475C254.275 83.5583 254.075 83.625 253.809 83.675C253.542 83.725 253.292 83.75 253.059 83.75C252.509 83.75 252.067 83.6 251.734 83.3C251.417 83 251.259 82.6083 251.259 82.125C251.259 81.375 251.592 80.7333 252.259 80.2C252.942 79.65 253.934 79.375 255.234 79.375C255.817 79.375 256.367 79.4667 256.884 79.65C257.417 79.8167 257.875 80.0667 258.259 80.4C258.659 80.7333 258.975 81.1583 259.209 81.675C259.442 82.175 259.559 82.75 259.559 83.4C259.559 84.4333 259.267 85.3333 258.684 86.1C258.117 86.85 257.35 87.3667 256.384 87.65C257.267 88.4 257.95 89.3 258.434 90.35C258.917 91.3833 259.159 92.5 259.159 93.7C259.159 94.55 259.034 95.3333 258.784 96.05C258.55 96.75 258.192 97.3583 257.709 97.875C257.225 98.3917 256.617 98.7917 255.884 99.075C255.167 99.3583 254.334 99.5 253.384 99.5ZM245.709 96.025C246.192 96.025 246.584 95.875 246.884 95.575C247.2 95.275 247.359 94.8833 247.359 94.4V93.25C247.642 93.0667 247.959 92.925 248.309 92.825C248.659 92.725 249.025 92.675 249.409 92.675C249.792 92.675 250.159 92.725 250.509 92.825C250.859 92.925 251.175 93.0667 251.459 93.25V94.3C251.459 94.8333 251.592 95.2583 251.859 95.575C252.142 95.875 252.525 96.025 253.009 96.025C253.592 96.025 254.042 95.7917 254.359 95.325C254.692 94.8417 254.859 94.1667 254.859 93.3C254.859 92.6 254.75 91.9417 254.534 91.325C254.317 90.6917 254.017 90.1333 253.634 89.65C253.25 89.1667 252.792 88.775 252.259 88.475C251.742 88.1583 251.167 87.95 250.534 87.85H248.034C247.434 87.9833 246.884 88.2167 246.384 88.55C245.884 88.8667 245.45 89.2667 245.084 89.75C244.734 90.2333 244.459 90.775 244.259 91.375C244.059 91.975 243.959 92.6167 243.959 93.3C243.959 94.1667 244.1 94.8417 244.384 95.325C244.684 95.7917 245.125 96.025 245.709 96.025Z" fill="#ABABAB"/>
</svg>
