<svg width="296" height="102" viewBox="0 0 296 102" fill="none" xmlns="http://www.w3.org/2000/svg">
<path d="M16.4565 73.0422C7.34341 72.9271 0 67.0885 0 59.903C0 52.6451 7.48978 46.7621 16.7295 46.7621C25.9692 46.7621 33.459 52.6451 33.459 59.903C33.459 65.3271 29.275 69.9848 23.3032 71.9912C23.3032 71.9912 22.4036 73.3612 22.2819 74.8908C22.1602 76.4203 23.5861 77.2986 23.5861 77.2986C23.3624 77.2805 23.1387 77.2492 22.9167 77.213C22.3888 77.1308 21.8658 77.0173 21.3526 76.8693C20.7326 76.69 20.1208 76.4581 19.5599 76.1341C19.1981 75.9253 18.8807 75.6473 18.5567 75.3842C17.9169 74.8645 17.2739 74.2987 16.8199 73.603C16.7607 73.5126 16.7081 73.4172 16.6538 73.3234C16.6242 73.2741 16.5946 73.2264 16.5634 73.1787C16.5486 73.1573 16.4811 73.0422 16.4565 73.0422Z" fill="white"/>
<path d="M46.4951 62.962C46.3538 62.9635 46.2586 63.0349 46.2365 63.0513L46.2362 63.0516C46.1995 63.0791 46.1721 63.1077 46.1563 63.1255C46.1229 63.1623 46.094 63.2025 46.0744 63.2311C46.0451 63.2733 46.0028 63.3413 45.9946 63.3546C45.9398 63.434 45.8915 63.5145 45.8505 63.5827L45.8477 63.5876L45.8463 63.5901L45.8448 63.5924C45.8206 63.634 45.7981 63.6735 45.7764 63.7115C45.7175 63.8144 45.6649 63.9062 45.6047 63.9983L45.6042 63.9988C44.9547 64.995 44.0258 65.8158 43.0597 66.6015C42.9749 66.6704 42.8916 66.7388 42.8094 66.8062C42.4017 67.1411 42.0208 67.4541 41.5955 67.6993L41.5951 67.6995C40.7843 68.1677 39.8919 68.5068 38.9729 68.7723L38.9726 68.7724C38.3239 68.9607 37.6623 69.1094 36.9939 69.2252C37.0227 69.1923 37.0514 69.1588 37.0801 69.1242C37.6381 68.4527 38.1951 67.4388 38.0907 66.1378C37.9935 64.9152 37.5876 63.7695 37.2138 62.9388C37.026 62.5214 36.8441 62.1783 36.7084 61.9389C36.6406 61.819 36.5842 61.7247 36.5442 61.6596C36.5242 61.627 36.5084 61.6019 36.4972 61.5844C36.4916 61.5756 36.4873 61.5688 36.4842 61.5639L36.4804 61.5581L36.4793 61.5565L36.4789 61.5558L36.4788 61.5557C36.4788 61.5557 36.4786 61.5555 36.1349 61.7811L36.4786 61.5555L36.4007 61.4366L36.266 61.3914C27.3351 58.3907 21.1718 51.464 21.1718 43.4826C21.1718 32.8087 32.2263 24 46.0851 24C59.944 24 71 32.8087 71 43.4826C71 54.0496 60.1617 62.789 46.4951 62.962Z" fill="#2D2D2D"/>
<path d="M46.4951 62.962C46.3538 62.9635 46.2586 63.0349 46.2365 63.0513L46.2362 63.0516C46.1995 63.0791 46.1721 63.1077 46.1563 63.1255C46.1229 63.1623 46.094 63.2025 46.0744 63.2311C46.0451 63.2733 46.0028 63.3413 45.9946 63.3546C45.9398 63.434 45.8915 63.5144 45.8505 63.5827L45.8477 63.5876L45.8463 63.5901L45.8448 63.5924C45.8206 63.634 45.7981 63.6735 45.7764 63.7115C45.7175 63.8144 45.6649 63.9062 45.6047 63.9983L45.6042 63.9988C44.9547 64.995 44.0258 65.8158 43.0597 66.6015C42.9749 66.6704 42.8916 66.7388 42.8094 66.8062C42.4017 67.1411 42.0208 67.4541 41.5955 67.6993L41.5951 67.6995C40.7843 68.1677 39.8919 68.5068 38.9729 68.7723L38.9726 68.7724C38.3239 68.9607 37.6623 69.1094 36.9939 69.2252C37.0227 69.1923 37.0514 69.1588 37.0801 69.1242C37.6381 68.4527 38.1951 67.4388 38.0907 66.1378C37.9935 64.9152 37.5876 63.7695 37.2138 62.9388C37.026 62.5214 36.8441 62.1783 36.7084 61.9389C36.6406 61.819 36.5842 61.7247 36.5442 61.6596C36.5242 61.627 36.5084 61.6019 36.4972 61.5844C36.4916 61.5756 36.4873 61.5688 36.4842 61.5639L36.4804 61.5581L36.4793 61.5565L36.4789 61.5558L36.4788 61.5557C36.4788 61.5557 36.4786 61.5555 36.1349 61.7811L36.4786 61.5555L36.4007 61.4366L36.266 61.3914C27.3351 58.3907 21.1718 51.464 21.1718 43.4826C21.1718 32.8087 32.2263 24 46.0851 24C59.944 24 71 32.8087 71 43.4826C71 54.0496 60.1617 62.789 46.4951 62.962ZM46.4951 62.962C46.4966 62.962 46.498 62.962 46.4995 62.962M46.4951 62.962H46.4944" stroke="white" stroke-width="3"/>
<path d="M32.5743 39.7066V38.6556H33.6253V39.7066H32.5743ZM35.8183 39.7066V38.6556H36.8692V39.7066H35.8183ZM39.0624 39.7066V38.6556H40.1133V39.7066H39.0624ZM42.3063 39.7066V38.6556H43.3572V39.7066H42.3063ZM45.5504 39.7066V38.6556H46.6013V39.7066H45.5504ZM48.7943 39.7066V38.6556H49.8453V39.7066H48.7943ZM52.0382 39.7066V38.6556H53.0892V39.7066H52.0382ZM55.2823 39.7066V38.6556H56.3333V39.7066H55.2823ZM58.5263 39.7066V38.6556H59.5772V39.7066H58.5263ZM32.5743 48.5877V47.5368H33.6253V48.5877H32.5743ZM35.8183 48.5877V47.5368H36.8692V48.5877H35.8183ZM39.0624 48.5877V47.5368H40.1133V48.5877H39.0624ZM42.3063 48.5877V47.5368H43.3572V48.5877H42.3063ZM45.5504 48.5877V47.5368H46.6013V48.5877H45.5504ZM48.7943 48.5877V47.5368H49.8453V48.5877H48.7943ZM52.0382 48.5877V47.5368H53.0892V48.5877H52.0382ZM55.2823 48.5877V47.5368H56.3333V48.5877H55.2823ZM58.5263 48.5877V47.5368H59.5772V48.5877H58.5263Z" fill="white"/>
<path d="M9.87329 58.6201V58.0596H10.4338V58.6201H9.87329ZM11.7416 58.6201V58.0596H12.3021V58.6201H11.7416ZM13.6099 58.6201V58.0596H14.1704V58.6201H13.6099ZM15.4781 58.6201V58.0596H16.0386V58.6201H15.4781ZM17.3464 58.6201V58.0596H17.9069V58.6201H17.3464ZM19.2148 58.6201V58.0596H19.7753V58.6201H19.2148ZM21.0829 58.6201V58.0596H21.6434V58.6201H21.0829ZM22.9513 58.6201V58.0596H23.5118V58.6201H22.9513ZM9.87329 63.3896V62.8291H10.4338V63.3896H9.87329ZM11.7416 63.3896V62.8291H12.3021V63.3896H11.7416ZM13.6099 63.3896V62.8291H14.1704V63.3896H13.6099ZM15.4781 63.3896V62.8291H16.0386V63.3896H15.4781ZM17.3464 63.3896V62.8291H17.9069V63.3896H17.3464ZM19.2148 63.3896V62.8291H19.7753V63.3896H19.2148ZM21.0829 63.3896V62.8291H21.6434V63.3896H21.0829ZM22.9513 63.3896V62.8291H23.5118V63.3896H22.9513Z" fill="#2D2D2D"/>
<path d="M104.376 15.768C106.84 15.768 109.272 16.328 111.672 17.448C114.104 18.536 116.28 20.088 118.2 22.104C120.12 24.088 121.672 26.472 122.856 29.256C124.04 32.04 124.632 35.128 124.632 38.52C124.632 40.568 124.36 42.424 123.816 44.088C123.272 45.72 122.504 47.128 121.512 48.312C120.552 49.464 119.368 50.36 117.96 51C116.552 51.64 114.984 51.96 113.256 51.96C111.848 51.96 110.6 51.816 109.512 51.528C108.424 51.24 107.448 50.824 106.584 50.28C105.752 49.704 105.032 49.016 104.424 48.216C103.816 47.416 103.288 46.504 102.84 45.48L101.928 43.416C101.576 42.616 101.176 41.992 100.728 41.544C100.312 41.096 99.736 40.872 99 40.872C98.296 40.872 97.72 41.112 97.272 41.592C96.824 42.04 96.6 42.776 96.6 43.8C96.6 44.76 96.792 45.64 97.176 46.44C97.56 47.24 98.056 47.96 98.664 48.6C98.376 49.656 97.848 50.472 97.08 51.048C96.344 51.656 95.416 51.96 94.296 51.96C93.4 51.96 92.584 51.752 91.848 51.336C91.112 50.92 90.472 50.344 89.928 49.608C89.384 48.84 88.952 47.96 88.632 46.968C88.344 45.944 88.2 44.824 88.2 43.608C88.2 42.168 88.44 40.856 88.92 39.672C89.432 38.456 90.152 37.432 91.08 36.6C92.008 35.736 93.112 35.08 94.392 34.632C95.704 34.152 97.176 33.912 98.808 33.912C101.464 33.912 103.592 34.488 105.192 35.64C106.824 36.76 108.072 38.28 108.936 40.2L110.136 42.888C110.424 43.528 110.76 44.072 111.144 44.52C111.528 44.936 112.088 45.144 112.824 45.144C114.04 45.144 114.92 44.584 115.464 43.464C116.008 42.312 116.28 40.632 116.28 38.424C116.28 37.528 116.2 36.52 116.04 35.4C115.88 34.28 115.608 33.16 115.224 32.04C114.84 30.888 114.344 29.784 113.736 28.728C113.128 27.64 112.376 26.712 111.48 25.944C110.872 27.352 109.88 28.488 108.504 29.352C107.128 30.184 105.576 30.6 103.848 30.6C102.6 30.6 101.448 30.44 100.392 30.12C99.336 29.768 98.424 29.272 97.656 28.632C96.92 27.992 96.328 27.224 95.88 26.328C95.464 25.4 95.256 24.36 95.256 23.208C95.256 21 96.04 19.208 97.608 17.832C99.208 16.456 101.464 15.768 104.376 15.768ZM102.168 23.208C102.168 23.848 102.36 24.376 102.744 24.792C103.16 25.176 103.672 25.368 104.28 25.368C104.888 25.368 105.384 25.176 105.768 24.792C106.184 24.376 106.392 23.848 106.392 23.208C106.392 22.568 106.184 22.056 105.768 21.672C105.384 21.256 104.888 21.048 104.28 21.048C103.672 21.048 103.16 21.256 102.744 21.672C102.36 22.056 102.168 22.568 102.168 23.208ZM144.035 51.96C141.603 51.96 139.427 51.608 137.507 50.904C135.587 50.2 133.971 49.224 132.659 47.976C131.347 46.696 130.339 45.192 129.635 43.464C128.931 41.736 128.579 39.864 128.579 37.848C128.579 36.408 128.803 34.968 129.251 33.528C129.731 32.056 130.499 30.744 131.555 29.592H128.243C127.987 29.208 127.779 28.76 127.619 28.248C127.459 27.736 127.379 27.176 127.379 26.568C127.379 25.448 127.619 24.648 128.099 24.168C128.611 23.656 129.267 23.4 130.067 23.4H150.659C151.491 23.4 152.083 23.192 152.435 22.776C152.787 22.36 152.963 21.832 152.963 21.192C152.963 20.456 152.803 19.736 152.483 19.032C152.867 18.712 153.363 18.424 153.971 18.168C154.579 17.912 155.267 17.784 156.035 17.784C157.315 17.784 158.371 18.216 159.203 19.08C160.067 19.912 160.499 21.16 160.499 22.824C160.499 24.264 160.115 25.576 159.347 26.76C158.579 27.912 157.315 28.712 155.555 29.16C156.643 30.28 157.491 31.64 158.099 33.24C158.707 34.84 159.011 36.376 159.011 37.848C159.011 39.864 158.659 41.736 157.955 43.464C157.283 45.192 156.291 46.696 154.979 47.976C153.699 49.224 152.131 50.2 150.275 50.904C148.451 51.608 146.371 51.96 144.035 51.96ZM143.507 29.4C142.483 29.4 141.555 29.608 140.723 30.024C139.923 30.44 139.235 31.016 138.659 31.752C138.083 32.456 137.635 33.304 137.315 34.296C136.995 35.256 136.835 36.312 136.835 37.464C136.835 38.648 137.011 39.72 137.363 40.68C137.715 41.64 138.195 42.472 138.803 43.176C139.443 43.848 140.179 44.376 141.011 44.76C141.875 45.112 142.819 45.288 143.843 45.288C144.931 45.288 145.891 45.096 146.723 44.712C147.587 44.296 148.307 43.736 148.883 43.032C149.491 42.328 149.955 41.512 150.275 40.584C150.595 39.624 150.755 38.584 150.755 37.464C150.755 36.28 150.579 35.208 150.227 34.248C149.875 33.256 149.411 32.424 148.835 31.752C148.259 31.048 147.571 30.504 146.771 30.12C146.003 29.704 145.187 29.464 144.323 29.4H143.507ZM163.273 51.96C160.713 51.96 158.633 51.464 157.033 50.472C155.401 49.448 154.169 48.248 153.337 46.872C153.529 45.656 154.089 44.648 155.017 43.848C155.913 43.016 156.969 42.504 158.185 42.312C158.473 43.048 158.953 43.72 159.625 44.328C160.265 44.904 161.145 45.192 162.265 45.192C163.321 45.192 164.153 44.872 164.761 44.232C165.369 43.592 165.673 42.76 165.673 41.736C165.673 41.032 165.657 40.408 165.625 39.864C165.625 39.288 165.625 38.68 165.625 38.04C165.625 35.064 166.105 32.584 167.065 30.6C168.025 28.616 169.273 27.016 170.809 25.8C172.377 24.584 174.121 23.72 176.041 23.208C177.993 22.696 179.961 22.44 181.945 22.44C184.377 22.44 186.601 22.824 188.617 23.592C190.633 24.328 192.345 25.384 193.753 26.76C195.193 28.136 196.297 29.8 197.065 31.752C197.865 33.672 198.265 35.816 198.265 38.184C198.265 40.328 197.993 42.264 197.449 43.992C196.905 45.688 196.105 47.128 195.049 48.312C194.025 49.496 192.761 50.392 191.257 51C189.785 51.64 188.105 51.96 186.217 51.96C184.681 51.96 183.289 51.736 182.041 51.288C180.793 50.872 179.705 50.28 178.777 49.512C177.881 48.712 177.177 47.768 176.665 46.68C176.185 45.56 175.945 44.328 175.945 42.984C175.945 41.736 176.137 40.616 176.521 39.624C176.905 38.632 177.417 37.8 178.057 37.128C178.729 36.424 179.497 35.896 180.361 35.544C181.257 35.16 182.217 34.968 183.241 34.968C184.617 34.968 185.689 35.304 186.457 35.976C187.257 36.648 187.657 37.544 187.657 38.664C187.657 39.56 187.417 40.36 186.937 41.064C186.585 40.968 186.249 40.92 185.929 40.92C185.321 40.92 184.793 41.112 184.345 41.496C183.929 41.88 183.721 42.424 183.721 43.128C183.721 43.8 183.945 44.344 184.393 44.76C184.873 45.176 185.481 45.384 186.217 45.384C187.561 45.384 188.569 44.744 189.241 43.464C189.945 42.184 190.297 40.424 190.297 38.184C190.297 36.84 190.089 35.624 189.673 34.536C189.289 33.416 188.729 32.472 187.993 31.704C187.289 30.904 186.425 30.296 185.401 29.88C184.377 29.432 183.241 29.208 181.993 29.208C180.841 29.208 179.753 29.384 178.729 29.736C177.705 30.088 176.809 30.648 176.041 31.416C175.273 32.152 174.665 33.096 174.217 34.248C173.769 35.4 173.545 36.76 173.545 38.328C173.545 38.872 173.545 39.336 173.545 39.72C173.577 40.104 173.593 40.552 173.593 41.064C173.593 44.52 172.681 47.208 170.857 49.128C169.065 51.016 166.537 51.96 163.273 51.96ZM228.149 51.96C226.645 51.96 225.205 51.704 223.829 51.192C222.485 50.68 221.333 49.816 220.373 48.6C219.445 49.752 218.277 50.6 216.869 51.144C215.461 51.688 213.925 51.96 212.261 51.96C208.869 51.96 206.181 51.096 204.197 49.368C202.213 47.64 201.221 45.256 201.221 42.216C201.221 40.84 201.445 39.608 201.893 38.52C202.341 37.4 202.949 36.456 203.717 35.688C204.517 34.92 205.429 34.328 206.453 33.912C207.509 33.496 208.645 33.288 209.861 33.288C211.525 33.288 212.821 33.656 213.749 34.392C214.709 35.096 215.189 36.056 215.189 37.272C215.189 37.944 215.077 38.552 214.853 39.096C214.629 39.608 214.341 40.072 213.989 40.488C213.381 40.136 212.709 39.96 211.973 39.96C211.205 39.96 210.581 40.184 210.101 40.632C209.621 41.08 209.381 41.704 209.381 42.504C209.381 43.336 209.685 44.024 210.293 44.568C210.933 45.08 211.765 45.336 212.789 45.336C213.973 45.336 214.869 45.048 215.477 44.472C216.117 43.864 216.437 43.096 216.437 42.168V40.344C216.885 40.056 217.445 39.8 218.117 39.576C218.789 39.352 219.541 39.24 220.373 39.24C221.205 39.24 221.957 39.352 222.629 39.576C223.301 39.8 223.861 40.056 224.309 40.344V42.456C224.373 43.32 224.677 44.008 225.221 44.52C225.797 45.032 226.517 45.288 227.381 45.288C228.501 45.288 229.349 44.904 229.925 44.136C230.501 43.368 230.789 42.296 230.789 40.92C230.789 38.424 229.989 36.376 228.389 34.776C228.773 33.688 229.317 32.856 230.021 32.28C230.757 31.672 231.621 31.368 232.613 31.368C233.637 31.368 234.517 31.608 235.253 32.088C236.021 32.568 236.661 33.176 237.173 33.912C237.877 34.936 238.373 36.104 238.661 37.416C238.981 38.728 239.141 39.944 239.141 41.064C239.141 44.424 238.181 47.08 236.261 49.032C234.341 50.984 231.637 51.96 228.149 51.96ZM220.421 36.072C219.205 36.072 218.213 35.672 217.445 34.872C216.677 34.04 216.293 33.016 216.293 31.8C216.293 31.576 216.325 31.272 216.389 30.888C216.453 30.472 216.597 30.04 216.821 29.592H202.277C202.053 29.24 201.861 28.824 201.701 28.344C201.541 27.864 201.461 27.304 201.461 26.664C201.461 25.576 201.701 24.76 202.181 24.216C202.661 23.672 203.317 23.4 204.149 23.4H229.925C230.757 23.4 231.349 23.192 231.701 22.776C232.053 22.36 232.229 21.832 232.229 21.192C232.229 20.456 232.069 19.736 231.749 19.032C232.133 18.712 232.629 18.424 233.237 18.168C233.845 17.912 234.533 17.784 235.301 17.784C236.581 17.784 237.637 18.216 238.469 19.08C239.333 19.912 239.765 21.16 239.765 22.824C239.765 23.88 239.557 24.84 239.141 25.704C238.757 26.536 238.213 27.24 237.509 27.816C236.805 28.392 235.973 28.84 235.013 29.16C234.053 29.448 233.013 29.592 231.893 29.592H224.069C224.325 30.008 224.485 30.424 224.549 30.84C224.613 31.224 224.645 31.544 224.645 31.8C224.645 33.016 224.261 34.04 223.493 34.872C222.757 35.672 221.733 36.072 220.421 36.072ZM257.786 38.76C257.786 38.056 257.53 37.464 257.018 36.984C256.506 36.472 255.626 36.216 254.378 36.216C253.322 36.216 252.554 36.36 252.074 36.648C251.594 36.904 251.354 37.272 251.354 37.752C251.354 38.328 251.594 38.728 252.074 38.952C252.586 39.176 253.178 39.288 253.85 39.288H255.386C255.578 39.544 255.754 39.896 255.914 40.344C256.106 40.792 256.202 41.24 256.202 41.688C256.202 42.168 256.106 42.664 255.914 43.176C255.754 43.656 255.578 44.008 255.386 44.232H253.609C252.682 44.232 251.978 44.312 251.498 44.472C251.018 44.632 250.778 44.952 250.778 45.432C250.778 46.296 251.834 46.728 253.946 46.728C254.586 46.728 255.162 46.664 255.674 46.536C256.218 46.376 256.714 46.2 257.162 46.008C257.45 46.2 257.738 46.552 258.026 47.064C258.314 47.576 258.458 48.152 258.458 48.792C258.458 49.272 258.346 49.72 258.122 50.136C257.93 50.552 257.594 50.904 257.114 51.192C256.634 51.512 255.994 51.752 255.194 51.912C254.394 52.104 253.386 52.2 252.17 52.2C250.826 52.2 249.594 52.056 248.474 51.768C247.386 51.48 246.442 51.08 245.642 50.568C244.842 50.024 244.218 49.384 243.77 48.648C243.354 47.88 243.146 47.032 243.146 46.104C243.146 45.368 243.258 44.728 243.482 44.184C243.738 43.64 244.042 43.176 244.394 42.792C244.746 42.408 245.114 42.12 245.498 41.928C245.914 41.704 246.298 41.544 246.65 41.448C245.914 41.096 245.226 40.568 244.586 39.864C243.978 39.16 243.674 38.232 243.674 37.08C243.674 35.096 244.522 33.576 246.218 32.52C247.946 31.464 250.378 30.936 253.514 30.936C254.634 30.936 255.626 31.032 256.49 31.224C257.354 31.384 258.106 31.608 258.746 31.896C259.386 32.152 259.914 32.44 260.33 32.76C260.778 33.08 261.13 33.384 261.386 33.672C261.866 33.096 262.762 32.504 264.074 31.896C265.386 31.256 267.162 30.936 269.402 30.936C273.082 30.936 275.85 31.88 277.706 33.768C279.594 35.656 280.538 38.328 280.538 41.784C280.538 45.176 279.562 47.768 277.61 49.56C275.69 51.352 272.986 52.248 269.498 52.248C266.394 52.248 264.026 51.64 262.394 50.424C260.762 49.208 259.946 47.672 259.946 45.816C259.946 44.088 260.586 42.76 261.866 41.832C263.146 40.872 264.81 40.392 266.858 40.392C268.074 40.392 269.018 40.632 269.69 41.112C270.362 41.56 270.698 42.232 270.698 43.128C270.698 43.512 270.634 43.896 270.506 44.28C270.378 44.664 270.218 44.984 270.026 45.24C269.674 45.144 269.306 45.096 268.922 45.096C267.77 45.096 267.194 45.416 267.194 46.056C267.194 46.344 267.37 46.6 267.722 46.824C268.106 47.016 268.698 47.112 269.498 47.112C270.842 47.112 271.866 46.68 272.57 45.816C273.306 44.92 273.674 43.56 273.674 41.736C273.674 40.2 273.274 38.92 272.474 37.896C271.706 36.872 270.506 36.36 268.874 36.36C267.626 36.36 266.682 36.6 266.042 37.08C265.434 37.528 265.13 38.088 265.13 38.76V39.288C264.746 39.48 264.25 39.656 263.642 39.816C263.034 39.944 262.314 40.008 261.482 40.008C260.65 40.008 259.93 39.944 259.322 39.816C258.714 39.656 258.202 39.48 257.786 39.288V38.76ZM271.85 23.4C272.714 23.4 273.37 23.16 273.818 22.68C274.298 22.2 274.538 21.592 274.538 20.856C274.538 19.544 273.994 18.888 272.906 18.888C272.49 18.888 272.122 19.032 271.802 19.32C271.514 19.576 271.37 19.976 271.37 20.52C271.37 20.712 271.402 20.936 271.466 21.192C271.21 21.352 270.826 21.48 270.314 21.576C269.802 21.672 269.322 21.72 268.874 21.72C267.818 21.72 266.97 21.432 266.33 20.856C265.722 20.28 265.418 19.528 265.418 18.6C265.418 17.16 266.058 15.928 267.338 14.904C268.65 13.848 270.554 13.32 273.05 13.32C274.17 13.32 275.226 13.496 276.218 13.848C277.242 14.168 278.122 14.648 278.858 15.288C279.626 15.928 280.234 16.744 280.682 17.736C281.13 18.696 281.354 19.8 281.354 21.048C281.354 22.264 281.13 23.4 280.682 24.456C280.234 25.48 279.594 26.376 278.762 27.144C277.962 27.912 277.002 28.52 275.882 28.968C274.794 29.384 273.578 29.592 272.234 29.592H269.402V29.4H243.386C243.162 29.048 242.97 28.632 242.81 28.152C242.65 27.64 242.57 27.08 242.57 26.472C242.57 25.384 242.81 24.6 243.29 24.12C243.77 23.64 244.426 23.4 245.258 23.4H271.85Z" fill="white"/>
<path d="M101.775 89.5C100.992 89.5 100.25 89.3667 99.55 89.1C98.85 88.8333 98.2417 88.3917 97.725 87.775C97.2417 88.3583 96.625 88.7917 95.875 89.075C95.1417 89.3583 94.35 89.5 93.5 89.5C91.7333 89.5 90.3333 89.05 89.3 88.15C88.2667 87.25 87.75 86.0083 87.75 84.425C87.75 83.7083 87.875 83.0667 88.125 82.5C88.375 81.9167 88.7083 81.425 89.125 81.025C89.5417 80.625 90.025 80.325 90.575 80.125C91.1417 79.9083 91.7417 79.8 92.375 79.8C93.2417 79.8 93.9167 79.9833 94.4 80.35C94.9 80.7 95.15 81.1917 95.15 81.825C95.15 82.175 95.075 82.5 94.925 82.8C94.775 83.1 94.6 83.3417 94.4 83.525C94.0833 83.3417 93.7333 83.25 93.35 83.25C92.95 83.25 92.625 83.3667 92.375 83.6C92.1417 83.8333 92.025 84.1583 92.025 84.575C92.025 85.0083 92.1833 85.3667 92.5 85.65C92.8167 85.9167 93.2417 86.05 93.775 86.05C94.3583 86.05 94.8167 85.9167 95.15 85.65C95.4833 85.3667 95.6667 85 95.7 84.55V83.3C95.9333 83.15 96.225 83.0167 96.575 82.9C96.925 82.7833 97.3167 82.725 97.75 82.725C98.1833 82.725 98.575 82.7833 98.925 82.9C99.275 83.0167 99.5667 83.15 99.8 83.3V84.4C99.8 84.8833 99.9417 85.275 100.225 85.575C100.525 85.875 100.908 86.025 101.375 86.025C101.958 86.025 102.408 85.7833 102.725 85.3C103.042 84.8 103.2 84.1333 103.2 83.3C103.2 82.7167 103.108 82.1333 102.925 81.55C102.742 80.9667 102.45 80.4333 102.05 79.95C101.65 79.45 101.142 79.025 100.525 78.675C99.9083 78.3083 99.1667 78.0583 98.3 77.925H88.3C88.1833 77.7417 88.0833 77.5167 88 77.25C87.9167 76.9667 87.875 76.6583 87.875 76.325C87.875 75.7583 88 75.3333 88.25 75.05C88.5 74.7667 88.8417 74.625 89.275 74.625H102.7C103.133 74.625 103.442 74.5167 103.625 74.3C103.808 74.0833 103.9 73.8083 103.9 73.475C103.9 73.0917 103.817 72.7167 103.65 72.35C103.85 72.1833 104.108 72.0333 104.425 71.9C104.742 71.7667 105.1 71.7 105.5 71.7C106.167 71.7 106.717 71.925 107.15 72.375C107.6 72.8083 107.825 73.4583 107.825 74.325C107.825 75.3417 107.525 76.1583 106.925 76.775C106.325 77.375 105.558 77.725 104.625 77.825C105.158 78.1417 105.608 78.525 105.975 78.975C106.358 79.425 106.658 79.9 106.875 80.4C107.108 80.9 107.275 81.4083 107.375 81.925C107.475 82.4417 107.525 82.925 107.525 83.375C107.525 83.6083 107.517 83.8333 107.5 84.05C107.483 84.2667 107.458 84.4833 107.425 84.7C107.675 85.0833 108.05 85.4 108.55 85.65C109.05 85.8833 109.592 86 110.175 86C111.125 86 111.9 85.7083 112.5 85.125C113.1 84.525 113.4 83.6417 113.4 82.475C113.4 81.9083 113.325 81.3917 113.175 80.925C113.042 80.4417 112.858 80.0083 112.625 79.625C112.392 79.2417 112.125 78.9083 111.825 78.625C111.525 78.325 111.217 78.0667 110.9 77.85H109.5C109.383 77.6667 109.283 77.45 109.2 77.2C109.117 76.95 109.075 76.6583 109.075 76.325C109.075 75.7583 109.2 75.3333 109.45 75.05C109.7 74.7667 110.042 74.625 110.475 74.625H115.05C115.283 74.625 115.467 74.5583 115.6 74.425C115.75 74.2917 115.825 74.125 115.825 73.925C115.825 73.5417 115.633 73.3 115.25 73.2H111.15C111.05 73 110.958 72.775 110.875 72.525C110.792 72.275 110.75 71.9833 110.75 71.65C110.75 71.0833 110.867 70.6833 111.1 70.45C111.35 70.2 111.692 70.075 112.125 70.075H123.375C124.625 70.075 125.758 70.2583 126.775 70.625C127.792 70.975 128.65 71.475 129.35 72.125C130.067 72.775 130.617 73.5667 131 74.5C131.383 75.4167 131.575 76.4417 131.575 77.575C131.575 78.6083 131.442 79.55 131.175 80.4C130.908 81.2333 130.517 81.9417 130 82.525C129.483 83.1083 128.842 83.5583 128.075 83.875C127.325 84.1917 126.458 84.35 125.475 84.35C124.692 84.35 123.967 84.2417 123.3 84.025C122.65 83.7917 122.083 83.475 121.6 83.075C121.117 82.675 120.733 82.1917 120.45 81.625C120.183 81.0417 120.05 80.4 120.05 79.7C120.05 79.05 120.15 78.475 120.35 77.975C120.55 77.4583 120.817 77.025 121.15 76.675C121.5 76.325 121.9 76.0583 122.35 75.875C122.817 75.6917 123.317 75.6 123.85 75.6C124.567 75.6 125.125 75.775 125.525 76.125C125.942 76.475 126.15 76.9417 126.15 77.525C126.15 78.0083 126.025 78.4333 125.775 78.8C125.625 78.7333 125.442 78.7 125.225 78.7C124.892 78.7 124.617 78.8 124.4 79C124.2 79.2 124.1 79.4667 124.1 79.8C124.1 80.1167 124.208 80.3833 124.425 80.6C124.658 80.8167 124.983 80.925 125.4 80.925C126.083 80.925 126.592 80.6417 126.925 80.075C127.258 79.5083 127.425 78.675 127.425 77.575C127.425 76.925 127.325 76.3333 127.125 75.8C126.925 75.2667 126.633 74.8083 126.25 74.425C125.867 74.0417 125.392 73.7417 124.825 73.525C124.258 73.3083 123.608 73.2 122.875 73.2H119.025C119.208 73.3667 119.367 73.5917 119.5 73.875C119.633 74.1583 119.7 74.5333 119.7 75C119.7 75.3833 119.642 75.75 119.525 76.1C119.408 76.4333 119.225 76.7333 118.975 77C118.725 77.25 118.408 77.4583 118.025 77.625C117.642 77.775 117.183 77.85 116.65 77.85H115.725C116.375 78.55 116.867 79.3083 117.2 80.125C117.533 80.9417 117.7 81.8583 117.7 82.875C117.7 83.9083 117.542 84.8417 117.225 85.675C116.908 86.4917 116.45 87.1833 115.85 87.75C115.25 88.3167 114.517 88.75 113.65 89.05C112.783 89.35 111.8 89.5 110.7 89.5C109.683 89.5 108.783 89.3583 108 89.075C107.217 88.8083 106.517 88.4333 105.9 87.95C104.9 88.9833 103.525 89.5 101.775 89.5ZM136.017 89.5C135.534 89.5 135.092 89.3917 134.692 89.175C134.309 88.9583 133.976 88.6583 133.692 88.275C133.409 87.8917 133.184 87.4417 133.017 86.925C132.867 86.3917 132.792 85.825 132.792 85.225C132.792 84.4583 132.917 83.7583 133.167 83.125C133.434 82.4917 133.809 81.95 134.292 81.5C134.776 81.05 135.359 80.7083 136.042 80.475C136.742 80.225 137.517 80.1 138.367 80.1C139.717 80.1 140.817 80.4 141.667 81C142.517 81.5833 143.159 82.375 143.592 83.375L144.217 84.775C144.401 85.1917 144.609 85.4917 144.842 85.675C145.076 85.8583 145.351 85.95 145.667 85.95C146.184 85.95 146.576 85.7333 146.842 85.3C147.109 84.85 147.242 84.2583 147.242 83.525C147.242 82.8583 147.126 82.225 146.892 81.625C146.676 81.025 146.367 80.4833 145.967 80C145.567 79.5167 145.092 79.1 144.542 78.75C143.992 78.4 143.384 78.1333 142.717 77.95H133.292C133.009 77.4833 132.867 76.9583 132.867 76.375C132.867 75.7917 132.992 75.3583 133.242 75.075C133.509 74.775 133.867 74.625 134.317 74.625H146.942C147.326 74.5917 147.601 74.475 147.767 74.275C147.934 74.0583 148.017 73.7917 148.017 73.475C148.017 73.0917 147.934 72.7167 147.767 72.35C148.017 72.15 148.301 71.9917 148.617 71.875C148.951 71.7583 149.284 71.7 149.617 71.7C150.284 71.7 150.834 71.925 151.267 72.375C151.717 72.825 151.942 73.4917 151.942 74.375C151.942 75.325 151.659 76.1083 151.092 76.725C150.542 77.3417 149.776 77.7417 148.792 77.925C149.626 78.5583 150.301 79.3917 150.817 80.425C151.351 81.4583 151.617 82.575 151.617 83.775C151.617 84.625 151.476 85.4083 151.192 86.125C150.909 86.825 150.501 87.425 149.967 87.925C149.451 88.425 148.817 88.8083 148.067 89.075C147.317 89.3583 146.484 89.5 145.567 89.5C144.217 89.5 143.142 89.2083 142.342 88.625C141.542 88.025 140.901 87.1917 140.417 86.125L139.942 85.05C139.759 84.6333 139.551 84.3083 139.317 84.075C139.101 83.8417 138.801 83.725 138.417 83.725C138.051 83.725 137.751 83.85 137.517 84.1C137.284 84.3333 137.167 84.7167 137.167 85.25C137.167 85.75 137.267 86.2083 137.467 86.625C137.667 87.0417 137.926 87.4167 138.242 87.75C138.092 88.3 137.826 88.725 137.442 89.025C137.059 89.3417 136.584 89.5 136.017 89.5ZM167.327 89.5C166.543 89.5 165.802 89.3667 165.102 89.1C164.402 88.8333 163.793 88.3917 163.277 87.775C162.793 88.3583 162.177 88.7917 161.427 89.075C160.693 89.3583 159.902 89.5 159.052 89.5C157.285 89.5 155.885 89.05 154.852 88.15C153.818 87.25 153.302 86.0083 153.302 84.425C153.302 83.7083 153.427 83.0667 153.677 82.5C153.927 81.9167 154.26 81.425 154.677 81.025C155.093 80.625 155.577 80.325 156.127 80.125C156.693 79.9083 157.293 79.8 157.927 79.8C158.793 79.8 159.468 79.9833 159.952 80.35C160.452 80.7 160.702 81.1917 160.702 81.825C160.702 82.175 160.627 82.5 160.477 82.8C160.327 83.1 160.152 83.3417 159.952 83.525C159.635 83.3417 159.285 83.25 158.902 83.25C158.502 83.25 158.177 83.3667 157.927 83.6C157.693 83.8333 157.577 84.1583 157.577 84.575C157.577 85.0083 157.735 85.3667 158.052 85.65C158.368 85.9167 158.793 86.05 159.327 86.05C159.943 86.05 160.418 85.9 160.752 85.6C161.085 85.2833 161.252 84.8833 161.252 84.4V83.3C161.485 83.15 161.777 83.0167 162.127 82.9C162.477 82.7833 162.868 82.725 163.302 82.725C163.735 82.725 164.127 82.7833 164.477 82.9C164.827 83.0167 165.118 83.15 165.352 83.3V84.4C165.352 84.8833 165.493 85.275 165.777 85.575C166.077 85.875 166.46 86.025 166.927 86.025C167.51 86.025 167.96 85.7833 168.277 85.3C168.593 84.8 168.752 84.1333 168.752 83.3C168.752 82.7167 168.66 82.1333 168.477 81.55C168.293 80.9667 168.002 80.4333 167.602 79.95C167.202 79.45 166.693 79.025 166.077 78.675C165.46 78.3083 164.718 78.0583 163.852 77.925H153.852C153.735 77.7417 153.635 77.5167 153.552 77.25C153.468 76.9667 153.427 76.6583 153.427 76.325C153.427 75.7583 153.552 75.3333 153.802 75.05C154.052 74.7667 154.393 74.625 154.827 74.625H168.252C168.685 74.625 168.993 74.5167 169.177 74.3C169.36 74.0833 169.452 73.8083 169.452 73.475C169.452 73.0917 169.368 72.7167 169.202 72.35C169.402 72.1833 169.66 72.0333 169.977 71.9C170.293 71.7667 170.652 71.7 171.052 71.7C171.718 71.7 172.268 71.925 172.702 72.375C173.152 72.8083 173.377 73.4583 173.377 74.325C173.377 75.3417 173.077 76.1583 172.477 76.775C171.877 77.375 171.11 77.725 170.177 77.825C170.71 78.1417 171.16 78.525 171.527 78.975C171.91 79.425 172.21 79.9 172.427 80.4C172.66 80.9 172.827 81.4083 172.927 81.925C173.027 82.4417 173.077 82.925 173.077 83.375C173.077 84.3083 172.943 85.1583 172.677 85.925C172.427 86.675 172.052 87.3167 171.552 87.85C171.068 88.3833 170.468 88.7917 169.752 89.075C169.035 89.3583 168.227 89.5 167.327 89.5ZM177.887 89.5C177.404 89.5 176.962 89.3917 176.562 89.175C176.179 88.9583 175.846 88.6583 175.562 88.275C175.279 87.8917 175.054 87.4417 174.887 86.925C174.737 86.3917 174.662 85.825 174.662 85.225C174.662 84.4583 174.787 83.7583 175.037 83.125C175.304 82.4917 175.679 81.95 176.162 81.5C176.646 81.05 177.229 80.7083 177.912 80.475C178.612 80.225 179.387 80.1 180.237 80.1C181.587 80.1 182.687 80.4 183.537 81C184.387 81.5833 185.029 82.375 185.462 83.375L186.087 84.775C186.271 85.1917 186.479 85.4917 186.712 85.675C186.946 85.8583 187.221 85.95 187.537 85.95C188.054 85.95 188.446 85.7333 188.712 85.3C188.979 84.85 189.112 84.2583 189.112 83.525C189.112 82.8583 188.996 82.225 188.762 81.625C188.546 81.025 188.237 80.4833 187.837 80C187.437 79.5167 186.962 79.1 186.412 78.75C185.862 78.4 185.254 78.1333 184.587 77.95H175.162C174.879 77.4833 174.737 76.9583 174.737 76.375C174.737 75.7917 174.862 75.3583 175.112 75.075C175.379 74.775 175.737 74.625 176.187 74.625H188.812C189.196 74.5917 189.471 74.475 189.637 74.275C189.804 74.0583 189.887 73.7917 189.887 73.475C189.887 73.0917 189.804 72.7167 189.637 72.35C189.887 72.15 190.171 71.9917 190.487 71.875C190.821 71.7583 191.154 71.7 191.487 71.7C192.154 71.7 192.704 71.925 193.137 72.375C193.587 72.825 193.812 73.4917 193.812 74.375C193.812 75.325 193.529 76.1083 192.962 76.725C192.412 77.3417 191.646 77.7417 190.662 77.925C191.496 78.5583 192.171 79.3917 192.687 80.425C193.221 81.4583 193.487 82.575 193.487 83.775C193.487 84.625 193.346 85.4083 193.062 86.125C192.779 86.825 192.371 87.425 191.837 87.925C191.321 88.425 190.687 88.8083 189.937 89.075C189.187 89.3583 188.354 89.5 187.437 89.5C186.087 89.5 185.012 89.2083 184.212 88.625C183.412 88.025 182.771 87.1917 182.287 86.125L181.812 85.05C181.629 84.6333 181.421 84.3083 181.187 84.075C180.971 83.8417 180.671 83.725 180.287 83.725C179.921 83.725 179.621 83.85 179.387 84.1C179.154 84.3333 179.037 84.7167 179.037 85.25C179.037 85.75 179.137 86.2083 179.337 86.625C179.537 87.0417 179.796 87.4167 180.112 87.75C179.962 88.3 179.696 88.725 179.312 89.025C178.929 89.3417 178.454 89.5 177.887 89.5ZM195.622 89.5C194.289 89.5 193.205 89.2417 192.372 88.725C191.522 88.1917 190.88 87.5667 190.447 86.85C190.547 86.2167 190.839 85.6917 191.322 85.275C191.789 84.8417 192.339 84.575 192.972 84.475C193.122 84.8583 193.372 85.2083 193.722 85.525C194.055 85.825 194.514 85.975 195.097 85.975C195.647 85.975 196.08 85.8083 196.397 85.475C196.714 85.1417 196.872 84.7083 196.872 84.175C196.872 83.8083 196.864 83.4833 196.847 83.2C196.847 82.9 196.847 82.5833 196.847 82.25C196.847 80.7 197.097 79.4083 197.597 78.375C198.097 77.3417 198.747 76.5083 199.547 75.875C200.364 75.2417 201.272 74.7917 202.272 74.525C203.289 74.2583 204.314 74.125 205.347 74.125C206.614 74.125 207.772 74.325 208.822 74.725C209.872 75.1083 210.764 75.6583 211.497 76.375C212.247 77.0917 212.822 77.9583 213.222 78.975C213.639 79.975 213.847 81.0917 213.847 82.325C213.847 83.4417 213.705 84.45 213.422 85.35C213.139 86.2333 212.722 86.9833 212.172 87.6C211.639 88.2167 210.98 88.6833 210.197 89C209.43 89.3333 208.555 89.5 207.572 89.5C206.772 89.5 206.047 89.3833 205.397 89.15C204.747 88.9333 204.18 88.625 203.697 88.225C203.23 87.8083 202.864 87.3167 202.597 86.75C202.347 86.1667 202.222 85.525 202.222 84.825C202.222 84.175 202.322 83.5917 202.522 83.075C202.722 82.5583 202.989 82.125 203.322 81.775C203.672 81.4083 204.072 81.1333 204.522 80.95C204.989 80.75 205.489 80.65 206.022 80.65C206.739 80.65 207.297 80.825 207.697 81.175C208.114 81.525 208.322 81.9917 208.322 82.575C208.322 83.0417 208.197 83.4583 207.947 83.825C207.764 83.775 207.589 83.75 207.422 83.75C207.105 83.75 206.83 83.85 206.597 84.05C206.38 84.25 206.272 84.5333 206.272 84.9C206.272 85.25 206.389 85.5333 206.622 85.75C206.872 85.9667 207.189 86.075 207.572 86.075C208.272 86.075 208.797 85.7417 209.147 85.075C209.514 84.4083 209.697 83.4917 209.697 82.325C209.697 81.625 209.589 80.9917 209.372 80.425C209.172 79.8417 208.88 79.35 208.497 78.95C208.13 78.5333 207.68 78.2167 207.147 78C206.614 77.7667 206.022 77.65 205.372 77.65C204.772 77.65 204.205 77.7417 203.672 77.925C203.139 78.1083 202.672 78.4 202.272 78.8C201.872 79.1833 201.555 79.675 201.322 80.275C201.089 80.875 200.972 81.5833 200.972 82.4C200.972 82.6833 200.972 82.925 200.972 83.125C200.989 83.325 200.997 83.5583 200.997 83.825C200.997 85.625 200.522 87.025 199.572 88.025C198.639 89.0083 197.322 89.5 195.622 89.5ZM213.462 91.35C213.462 90.9667 213.42 90.575 213.337 90.175C213.253 89.7917 213.12 89.425 212.937 89.075C213.053 88.8583 213.228 88.6833 213.462 88.55C213.678 88.4 213.928 88.325 214.212 88.325C214.845 88.325 215.287 88.6167 215.537 89.2C215.803 89.7833 215.937 90.5 215.937 91.35C215.937 92.0167 215.82 92.6917 215.587 93.375C215.37 94.0583 215.053 94.6667 214.637 95.2C214.82 95.55 215.037 95.8417 215.287 96.075C215.553 96.325 215.878 96.45 216.262 96.45C216.445 96.45 216.595 96.425 216.712 96.375C216.845 96.3417 216.97 96.3 217.087 96.25C217.253 96.3833 217.387 96.5417 217.487 96.725C217.587 96.9083 217.637 97.125 217.637 97.375C217.637 97.8083 217.495 98.1667 217.212 98.45C216.928 98.75 216.512 98.9 215.962 98.9C215.162 98.9 214.52 98.675 214.037 98.225C213.553 97.7917 213.17 97.3 212.887 96.75C212.603 96.9667 212.262 97.1333 211.862 97.25C211.445 97.3833 210.945 97.45 210.362 97.45C209.878 97.45 209.428 97.3833 209.012 97.25C208.578 97.1167 208.203 96.925 207.887 96.675C207.553 96.425 207.295 96.1083 207.112 95.725C206.912 95.3583 206.812 94.9333 206.812 94.45C206.812 93.55 207.103 92.8417 207.687 92.325C208.27 91.8083 209.062 91.55 210.062 91.55C210.862 91.55 211.512 91.6833 212.012 91.95C212.495 92.2167 212.903 92.5333 213.237 92.9C213.387 92.4 213.462 91.8833 213.462 91.35ZM210.387 93.725C210.12 93.725 209.903 93.7917 209.737 93.925C209.57 94.075 209.487 94.2583 209.487 94.475C209.487 94.7083 209.578 94.9 209.762 95.05C209.928 95.2 210.178 95.275 210.512 95.275C210.745 95.275 210.987 95.2333 211.237 95.15C211.47 95.0833 211.712 94.95 211.962 94.75C211.695 94.35 211.437 94.075 211.187 93.925C210.937 93.7917 210.67 93.725 210.387 93.725ZM231.881 82.725C232.314 82.725 232.706 82.7833 233.056 82.9C233.406 83.0167 233.698 83.15 233.931 83.3V84.4C233.931 84.8833 234.064 85.275 234.331 85.575C234.614 85.875 234.998 86.025 235.481 86.025C236.064 86.025 236.514 85.7667 236.831 85.25C237.148 84.7333 237.306 84.0083 237.306 83.075C237.306 82.575 237.264 82 237.181 81.35C237.098 80.7 236.956 80.05 236.756 79.4C236.573 78.75 236.323 78.125 236.006 77.525C235.689 76.9083 235.289 76.3833 234.806 75.95C234.656 76.3 234.448 76.625 234.181 76.925C233.931 77.2083 233.631 77.4583 233.281 77.675C232.931 77.8917 232.548 78.0583 232.131 78.175C231.714 78.2917 231.281 78.35 230.831 78.35C230.181 78.35 229.581 78.2667 229.031 78.1C228.481 77.9167 228.006 77.6583 227.606 77.325C227.223 76.9917 226.914 76.5917 226.681 76.125C226.464 75.6583 226.356 75.125 226.356 74.525C226.356 73.9583 226.456 73.4417 226.656 72.975C226.873 72.4917 227.181 72.075 227.581 71.725C227.998 71.375 228.498 71.1083 229.081 70.925C229.681 70.725 230.356 70.625 231.106 70.625C232.456 70.625 233.764 70.9333 235.031 71.55C236.298 72.1667 237.423 73.025 238.406 74.125C239.389 75.225 240.173 76.5417 240.756 78.075C241.356 79.6083 241.656 81.2917 241.656 83.125C241.656 83.625 241.623 84.0667 241.556 84.45C241.756 84.9 242.123 85.275 242.656 85.575C243.206 85.8583 243.798 86 244.431 86C245.398 86 246.181 85.6667 246.781 85C247.398 84.3167 247.706 83.3 247.706 81.95C247.706 80.75 247.431 79.6917 246.881 78.775C246.331 77.8583 245.556 77.1417 244.556 76.625C244.606 75.875 244.814 75.275 245.181 74.825C245.548 74.3583 246.081 74.125 246.781 74.125C247.214 74.125 247.623 74.2083 248.006 74.375C248.406 74.5417 248.798 74.7667 249.181 75.05C250.081 75.75 250.781 76.7 251.281 77.9C251.798 79.1 252.056 80.4417 252.056 81.925C252.056 83.1083 251.889 84.175 251.556 85.125C251.239 86.0583 250.773 86.85 250.156 87.5C249.556 88.15 248.814 88.65 247.931 89C247.064 89.3333 246.073 89.5 244.956 89.5C243.906 89.5 242.981 89.3583 242.181 89.075C241.381 88.7917 240.673 88.3917 240.056 87.875C239.056 88.9583 237.656 89.5 235.856 89.5C234.839 89.5 233.989 89.3167 233.306 88.95C232.639 88.5667 232.164 88.1667 231.881 87.75C231.581 88.1667 231.073 88.5667 230.356 88.95C229.639 89.3167 228.739 89.5 227.656 89.5C226.773 89.5 225.973 89.3833 225.256 89.15C224.556 88.9167 223.956 88.5833 223.456 88.15C222.956 87.7167 222.564 87.1917 222.281 86.575C222.014 85.9583 221.881 85.2583 221.881 84.475C221.881 83.725 222.006 83.0583 222.256 82.475C222.523 81.8917 222.864 81.4 223.281 81C223.714 80.6 224.206 80.3 224.756 80.1C225.306 79.9 225.873 79.8 226.456 79.8C227.356 79.8 228.048 79.9833 228.531 80.35C229.031 80.7 229.281 81.1917 229.281 81.825C229.281 82.2083 229.206 82.5417 229.056 82.825C228.906 83.1083 228.731 83.3417 228.531 83.525C228.248 83.3417 227.906 83.25 227.506 83.25C227.089 83.25 226.756 83.375 226.506 83.625C226.273 83.8583 226.156 84.1833 226.156 84.6C226.156 85.0333 226.314 85.3833 226.631 85.65C226.964 85.9167 227.398 86.05 227.931 86.05C228.548 86.05 229.014 85.8917 229.331 85.575C229.664 85.2583 229.831 84.8583 229.831 84.375V83.3C230.064 83.15 230.356 83.0167 230.706 82.9C231.056 82.7833 231.448 82.725 231.881 82.725ZM259.706 82.5C258.706 82.5 257.806 82.2417 257.006 81.725C257.073 82.375 257.231 82.9833 257.481 83.55C257.748 84.1 258.106 84.5833 258.556 85C259.006 85.4167 259.539 85.75 260.156 86C260.773 86.2333 261.473 86.3583 262.256 86.375C262.339 86.5417 262.398 86.7333 262.431 86.95C262.481 87.1667 262.506 87.3583 262.506 87.525C262.506 88.075 262.331 88.5417 261.981 88.925C261.648 89.3083 261.081 89.5 260.281 89.5C259.348 89.5 258.448 89.2917 257.581 88.875C256.714 88.4583 255.948 87.875 255.281 87.125C254.614 86.375 254.073 85.4917 253.656 84.475C253.256 83.4417 253.056 82.3167 253.056 81.1C253.056 80.0667 253.198 79.125 253.481 78.275C253.764 77.4083 254.173 76.675 254.706 76.075C255.239 75.4583 255.881 74.9833 256.631 74.65C257.398 74.3 258.256 74.125 259.206 74.125C260.006 74.125 260.706 74.25 261.306 74.5C261.906 74.75 262.406 75.075 262.806 75.475C263.206 75.875 263.506 76.3333 263.706 76.85C263.906 77.3667 264.006 77.8917 264.006 78.425C264.006 78.975 263.906 79.5 263.706 80C263.523 80.4833 263.248 80.9167 262.881 81.3C262.514 81.6667 262.064 81.9583 261.531 82.175C260.998 82.3917 260.389 82.5 259.706 82.5ZM259.106 79.675C259.489 79.675 259.789 79.5583 260.006 79.325C260.239 79.0917 260.356 78.8 260.356 78.45C260.356 78.1167 260.239 77.8333 260.006 77.6C259.789 77.3667 259.489 77.25 259.106 77.25C258.723 77.25 258.423 77.3667 258.206 77.6C257.989 77.8333 257.881 78.1167 257.881 78.45C257.881 78.8 257.989 79.0917 258.206 79.325C258.423 79.5583 258.723 79.675 259.106 79.675ZM231.056 75.65C231.373 75.65 231.631 75.55 231.831 75.35C232.048 75.1333 232.156 74.8583 232.156 74.525C232.156 74.1917 232.048 73.925 231.831 73.725C231.631 73.5083 231.373 73.4 231.056 73.4C230.739 73.4 230.473 73.5083 230.256 73.725C230.056 73.925 229.956 74.1917 229.956 74.525C229.956 74.8583 230.056 75.1333 230.256 75.35C230.473 75.55 230.739 75.65 231.056 75.65ZM281.44 81.175C281.44 82.375 281.281 83.4917 280.965 84.525C280.648 85.5417 280.165 86.4167 279.515 87.15C278.865 87.8833 278.04 88.4583 277.04 88.875C276.04 89.2917 274.856 89.5 273.49 89.5C272.24 89.5 271.123 89.3167 270.14 88.95C269.173 88.5833 268.348 88.075 267.665 87.425C266.981 86.7583 266.456 85.975 266.09 85.075C265.74 84.175 265.565 83.2 265.565 82.15C265.565 81.15 265.715 80.2167 266.015 79.35C266.331 78.4833 266.773 77.7 267.34 77C267.14 76.9 266.931 76.7583 266.715 76.575C266.498 76.375 266.306 76.15 266.14 75.9C265.973 75.6333 265.831 75.325 265.715 74.975C265.615 74.625 265.565 74.2333 265.565 73.8C265.565 73.0833 265.706 72.4333 265.99 71.85C266.273 71.25 266.665 70.7417 267.165 70.325C267.681 69.9083 268.306 69.5833 269.04 69.35C269.773 69.1167 270.59 69 271.49 69C272.99 69 274.348 69.3083 275.565 69.925C276.798 70.525 277.848 71.375 278.715 72.475C279.581 73.5583 280.248 74.8417 280.715 76.325C281.198 77.8083 281.44 79.425 281.44 81.175ZM271.865 72.35C271.165 72.35 270.64 72.4917 270.29 72.775C269.94 73.0583 269.765 73.4167 269.765 73.85C269.765 74.05 269.806 74.25 269.89 74.45C269.973 74.6333 270.098 74.7833 270.265 74.9C270.681 74.75 271.115 74.6333 271.565 74.55C272.015 74.4667 272.49 74.425 272.99 74.425C273.69 74.425 274.348 74.5167 274.965 74.7C275.598 74.8667 276.181 75.15 276.715 75.55C276.165 74.5667 275.473 73.7917 274.64 73.225C273.823 72.6417 272.898 72.35 271.865 72.35ZM277.09 81.95C277.09 81.3167 276.998 80.7417 276.815 80.225C276.648 79.7083 276.398 79.2667 276.065 78.9C275.748 78.5333 275.365 78.25 274.915 78.05C274.481 77.85 274.006 77.75 273.49 77.75C272.956 77.75 272.473 77.85 272.04 78.05C271.606 78.25 271.223 78.5333 270.89 78.9C270.573 79.2667 270.323 79.7083 270.14 80.225C269.973 80.7417 269.89 81.3167 269.89 81.95C269.89 82.5667 269.981 83.125 270.165 83.625C270.348 84.125 270.598 84.5583 270.915 84.925C271.231 85.275 271.606 85.55 272.04 85.75C272.49 85.9333 272.973 86.025 273.49 86.025C274.006 86.025 274.481 85.9333 274.915 85.75C275.365 85.55 275.748 85.275 276.065 84.925C276.381 84.5583 276.631 84.125 276.815 83.625C276.998 83.125 277.09 82.5667 277.09 81.95Z" fill="#ABABAB"/>
</svg>
