<svg width="276" height="118" viewBox="0 0 276 118" fill="none" xmlns="http://www.w3.org/2000/svg">
<path d="M16.4565 73.0422C7.34341 72.9271 0 67.0885 0 59.903C0 52.6451 7.48978 46.7621 16.7295 46.7621C25.9692 46.7621 33.459 52.6451 33.459 59.903C33.459 65.3271 29.275 69.9848 23.3032 71.9912C23.3032 71.9912 22.4036 73.3612 22.2819 74.8908C22.1602 76.4203 23.5861 77.2986 23.5861 77.2986C23.3624 77.2805 23.1387 77.2492 22.9167 77.213C22.3888 77.1308 21.8658 77.0173 21.3526 76.8693C20.7326 76.69 20.1208 76.4581 19.5599 76.1341C19.1981 75.9253 18.8807 75.6473 18.5567 75.3842C17.9169 74.8645 17.2739 74.2987 16.8199 73.603C16.7607 73.5126 16.7081 73.4172 16.6538 73.3234C16.6242 73.2741 16.5946 73.2264 16.5634 73.1787C16.5486 73.1573 16.4811 73.0422 16.4565 73.0422Z" fill="white"/>
<path d="M46.4951 62.962C46.3538 62.9635 46.2586 63.0349 46.2365 63.0513L46.2362 63.0516C46.1995 63.0791 46.1721 63.1077 46.1563 63.1255C46.1229 63.1623 46.094 63.2025 46.0744 63.2311C46.0451 63.2733 46.0028 63.3413 45.9946 63.3546C45.9398 63.434 45.8915 63.5145 45.8505 63.5827L45.8477 63.5876L45.8463 63.5901L45.8448 63.5924C45.8206 63.634 45.7981 63.6735 45.7764 63.7115C45.7175 63.8144 45.6649 63.9062 45.6047 63.9983L45.6042 63.9988C44.9547 64.995 44.0258 65.8158 43.0597 66.6015C42.9749 66.6704 42.8916 66.7388 42.8094 66.8062C42.4017 67.1411 42.0208 67.4541 41.5955 67.6993L41.5951 67.6995C40.7843 68.1677 39.8919 68.5068 38.9729 68.7723L38.9726 68.7724C38.3239 68.9607 37.6623 69.1094 36.9939 69.2252C37.0227 69.1923 37.0514 69.1588 37.0801 69.1242C37.6381 68.4527 38.1951 67.4388 38.0907 66.1378C37.9935 64.9152 37.5876 63.7695 37.2138 62.9388C37.026 62.5214 36.8441 62.1783 36.7084 61.9389C36.6406 61.819 36.5842 61.7247 36.5442 61.6596C36.5242 61.627 36.5084 61.6019 36.4972 61.5844C36.4916 61.5756 36.4873 61.5688 36.4842 61.5639L36.4804 61.5581L36.4793 61.5565L36.4789 61.5558L36.4788 61.5557C36.4788 61.5557 36.4786 61.5555 36.1349 61.7811L36.4786 61.5555L36.4007 61.4366L36.266 61.3914C27.3351 58.3907 21.1718 51.464 21.1718 43.4826C21.1718 32.8087 32.2263 24 46.0851 24C59.944 24 71 32.8087 71 43.4826C71 54.0496 60.1617 62.789 46.4951 62.962Z" fill="#2D2D2D"/>
<path d="M46.4951 62.962C46.3538 62.9635 46.2586 63.0349 46.2365 63.0513L46.2362 63.0516C46.1995 63.0791 46.1721 63.1077 46.1563 63.1255C46.1229 63.1623 46.094 63.2025 46.0744 63.2311C46.0451 63.2733 46.0028 63.3413 45.9946 63.3546C45.9398 63.434 45.8915 63.5144 45.8505 63.5827L45.8477 63.5876L45.8463 63.5901L45.8448 63.5924C45.8206 63.634 45.7981 63.6735 45.7764 63.7115C45.7175 63.8144 45.6649 63.9062 45.6047 63.9983L45.6042 63.9988C44.9547 64.995 44.0258 65.8158 43.0597 66.6015C42.9749 66.6704 42.8916 66.7388 42.8094 66.8062C42.4017 67.1411 42.0208 67.4541 41.5955 67.6993L41.5951 67.6995C40.7843 68.1677 39.8919 68.5068 38.9729 68.7723L38.9726 68.7724C38.3239 68.9607 37.6623 69.1094 36.9939 69.2252C37.0227 69.1923 37.0514 69.1588 37.0801 69.1242C37.6381 68.4527 38.1951 67.4388 38.0907 66.1378C37.9935 64.9152 37.5876 63.7695 37.2138 62.9388C37.026 62.5214 36.8441 62.1783 36.7084 61.9389C36.6406 61.819 36.5842 61.7247 36.5442 61.6596C36.5242 61.627 36.5084 61.6019 36.4972 61.5844C36.4916 61.5756 36.4873 61.5688 36.4842 61.5639L36.4804 61.5581L36.4793 61.5565L36.4789 61.5558L36.4788 61.5557C36.4788 61.5557 36.4786 61.5555 36.1349 61.7811L36.4786 61.5555L36.4007 61.4366L36.266 61.3914C27.3351 58.3907 21.1718 51.464 21.1718 43.4826C21.1718 32.8087 32.2263 24 46.0851 24C59.944 24 71 32.8087 71 43.4826C71 54.0496 60.1617 62.789 46.4951 62.962ZM46.4951 62.962C46.4966 62.962 46.498 62.962 46.4995 62.962M46.4951 62.962H46.4944" stroke="white" stroke-width="3"/>
<path d="M32.5743 39.7066V38.6556H33.6253V39.7066H32.5743ZM35.8183 39.7066V38.6556H36.8692V39.7066H35.8183ZM39.0624 39.7066V38.6556H40.1133V39.7066H39.0624ZM42.3063 39.7066V38.6556H43.3572V39.7066H42.3063ZM45.5504 39.7066V38.6556H46.6013V39.7066H45.5504ZM48.7943 39.7066V38.6556H49.8453V39.7066H48.7943ZM52.0382 39.7066V38.6556H53.0892V39.7066H52.0382ZM55.2823 39.7066V38.6556H56.3333V39.7066H55.2823ZM58.5263 39.7066V38.6556H59.5772V39.7066H58.5263ZM32.5743 48.5877V47.5368H33.6253V48.5877H32.5743ZM35.8183 48.5877V47.5368H36.8692V48.5877H35.8183ZM39.0624 48.5877V47.5368H40.1133V48.5877H39.0624ZM42.3063 48.5877V47.5368H43.3572V48.5877H42.3063ZM45.5504 48.5877V47.5368H46.6013V48.5877H45.5504ZM48.7943 48.5877V47.5368H49.8453V48.5877H48.7943ZM52.0382 48.5877V47.5368H53.0892V48.5877H52.0382ZM55.2823 48.5877V47.5368H56.3333V48.5877H55.2823ZM58.5263 48.5877V47.5368H59.5772V48.5877H58.5263Z" fill="white"/>
<path d="M9.87329 58.6201V58.0596H10.4338V58.6201H9.87329ZM11.7416 58.6201V58.0596H12.3021V58.6201H11.7416ZM13.6099 58.6201V58.0596H14.1704V58.6201H13.6099ZM15.4781 58.6201V58.0596H16.0386V58.6201H15.4781ZM17.3464 58.6201V58.0596H17.9069V58.6201H17.3464ZM19.2148 58.6201V58.0596H19.7753V58.6201H19.2148ZM21.0829 58.6201V58.0596H21.6434V58.6201H21.0829ZM22.9513 58.6201V58.0596H23.5118V58.6201H22.9513ZM9.87329 63.3896V62.8291H10.4338V63.3896H9.87329ZM11.7416 63.3896V62.8291H12.3021V63.3896H11.7416ZM13.6099 63.3896V62.8291H14.1704V63.3896H13.6099ZM15.4781 63.3896V62.8291H16.0386V63.3896H15.4781ZM17.3464 63.3896V62.8291H17.9069V63.3896H17.3464ZM19.2148 63.3896V62.8291H19.7753V63.3896H19.2148ZM21.0829 63.3896V62.8291H21.6434V63.3896H21.0829ZM22.9513 63.3896V62.8291H23.5118V63.3896H22.9513Z" fill="#2D2D2D"/>
<path d="M109.734 51.0234C115.5 51.0234 118.406 46.9922 118.406 38.8828C118.406 37.4766 118.289 35.8828 118.078 34.1484C117.867 32.4141 117.539 30.6562 117.094 28.875C116.625 27.0938 116.039 25.3594 115.336 23.6719C114.609 21.9844 113.742 20.4844 112.734 19.1719C111.727 17.8594 110.555 16.8047 109.242 16.0078C107.93 15.2109 106.43 14.8125 104.789 14.8125C104.039 14.8125 103.312 14.9766 102.656 15.2812C101.977 15.5859 101.391 15.9844 100.875 16.5C100.359 17.0156 99.9609 17.6016 99.6797 18.2812C99.375 18.9609 99.2344 19.6641 99.2344 20.4141C99.2344 21.1641 99.375 21.8906 99.6797 22.5703C99.9609 23.25 100.359 23.8359 100.875 24.3516C101.391 24.8672 101.977 25.2891 102.656 25.5703C103.312 25.875 104.039 26.0156 104.789 26.0156C106.945 26.0156 108.656 24.9609 109.922 22.8047C110.555 23.4609 111.141 24.3516 111.68 25.4766C112.195 26.6016 112.664 27.8906 113.039 29.2969C113.414 30.7266 113.719 32.25 113.93 33.8438C114.141 35.4609 114.258 37.0781 114.258 38.6953C114.258 40.1484 114.164 41.3672 114 42.3281C113.836 43.2891 113.578 44.0625 113.227 44.625C112.852 45.1875 112.383 45.6094 111.82 45.8438C111.234 46.0781 110.531 46.1953 109.734 46.1953C109.031 46.1953 108.422 46.0547 107.906 45.7266C107.367 45.3984 106.875 44.9766 106.43 44.4609C105.984 43.9453 105.562 43.3594 105.164 42.7031C104.766 42.0469 104.367 41.3672 103.945 40.6641C103.523 39.9609 103.078 39.2812 102.609 38.625C102.141 37.9688 101.602 37.3594 101.016 36.8438C100.406 36.3281 99.7266 35.9297 98.9766 35.6016C98.2031 35.2734 97.3359 35.1094 96.3516 35.1094C95.2969 35.1094 94.3125 35.3438 93.4219 35.7656C92.5312 36.1875 91.7578 36.7969 91.1016 37.5469C90.4453 38.2969 89.9297 39.1875 89.5547 40.2188C89.1797 41.25 88.9922 42.3281 88.9922 43.5C88.9922 46.6875 90.1641 49.4062 92.5078 51.6094L95.9766 49.2422C94.0078 46.7812 93.0469 44.7891 93.0469 43.2422C93.0469 42.7266 93.1172 42.2109 93.3047 41.7188C93.4688 41.25 93.7031 40.8047 94.0078 40.4297C94.3125 40.0547 94.6641 39.7734 95.0859 39.5391C95.4844 39.3047 95.9297 39.1875 96.3984 39.1875C96.9141 39.1875 97.3828 39.375 97.8281 39.7031C98.25 40.0312 98.6953 40.4766 99.1172 41.0391C99.5391 41.6016 99.9609 42.2344 100.383 42.9375C100.805 43.6406 101.227 44.3672 101.695 45.1172C102.164 45.8672 102.656 46.5938 103.195 47.2969C103.711 48 104.297 48.6328 104.953 49.1953C105.609 49.7578 106.312 50.2031 107.109 50.5312C107.883 50.8594 108.75 51.0234 109.734 51.0234ZM104.742 18.8906C105.398 18.8906 106.148 19.2656 107.039 19.9922C106.945 20.2266 106.828 20.4609 106.664 20.6953C106.477 20.9297 106.289 21.1172 106.078 21.3047C105.844 21.4922 105.633 21.6562 105.398 21.7734C105.164 21.8906 104.93 21.9375 104.742 21.9375C104.344 21.9375 103.992 21.7969 103.688 21.4922C103.383 21.1875 103.242 20.8359 103.242 20.4141C103.242 20.0156 103.383 19.6641 103.688 19.3594C103.992 19.0547 104.344 18.8906 104.742 18.8906ZM144.492 28.4297C145.102 28.1953 145.641 27.8672 146.156 27.4219C146.672 27 147.094 26.4844 147.469 25.8984C147.844 25.3359 148.125 24.7031 148.312 24.0234C148.5 23.3438 148.617 22.6406 148.617 21.9141C148.617 21.0234 148.453 20.1797 148.148 19.3828C147.82 18.5859 147.398 17.8828 146.836 17.2734C146.273 16.6641 145.641 16.1484 144.891 15.75C144.141 15.3516 143.32 15.1172 142.43 15.0234L142.102 19.125C142.477 19.1484 142.805 19.2422 143.109 19.3828C143.414 19.5469 143.672 19.7578 143.906 19.9922C144.117 20.25 144.281 20.5312 144.398 20.8594C144.516 21.1875 144.586 21.5391 144.586 21.9141C144.586 22.2891 144.516 22.6641 144.398 22.9922C144.281 23.3438 144.117 23.6484 143.93 23.9062C143.719 24.1641 143.484 24.375 143.203 24.5156C142.922 24.6797 142.641 24.75 142.359 24.75H122.438V28.8281H126.07C124.852 30.1172 123.961 31.4766 123.352 32.9062C122.742 34.3594 122.438 35.9531 122.438 37.7344C122.438 39.4688 122.766 41.1562 123.422 42.75C124.078 44.3438 124.992 45.7734 126.164 46.9922C127.336 48.2109 128.695 49.1953 130.289 49.9219C131.883 50.6484 133.594 51 135.469 51C136.641 51 137.766 50.8594 138.867 50.5312C139.969 50.2266 141 49.7812 141.984 49.1953C142.945 48.6328 143.836 47.9297 144.633 47.1328C145.43 46.3359 146.109 45.4219 146.672 44.4375C147.234 43.4531 147.68 42.3984 148.008 41.2734C148.336 40.1484 148.5 38.9766 148.5 37.7344C148.5 35.8594 148.148 34.1484 147.492 32.6484C146.836 31.1484 145.828 29.7422 144.492 28.4297ZM135.469 28.8281C136.641 28.8281 137.766 29.0625 138.844 29.5078C139.898 29.9531 140.812 30.5625 141.609 31.3125C142.406 32.0859 143.016 33 143.484 34.0312C143.953 35.0859 144.188 36.2109 144.188 37.3828C144.188 38.6016 143.953 39.7266 143.508 40.7812C143.039 41.8594 142.43 42.7969 141.633 43.5938C140.836 44.3906 139.922 45.0234 138.867 45.4922C137.812 45.9609 136.688 46.1953 135.469 46.1953C134.25 46.1953 133.125 45.9609 132.07 45.4922C130.992 45.0234 130.078 44.3906 129.281 43.5938C128.484 42.7969 127.875 41.8828 127.43 40.8047C126.961 39.7266 126.75 38.6016 126.75 37.3828C126.75 36.1875 126.961 35.0625 127.43 34.0078C127.898 32.9766 128.508 32.0625 129.305 31.2891C130.102 30.5391 131.016 29.9297 132.07 29.4844C133.125 29.0625 134.25 28.8281 135.469 28.8281ZM169.219 51C170.602 51 171.891 50.6953 173.062 50.0859C174.234 49.4766 175.266 48.6328 176.133 47.5547C176.977 46.4766 177.656 45.2344 178.148 43.7812C178.617 42.3281 178.875 40.7812 178.875 39.1172C178.875 37.1484 178.57 35.2734 177.961 33.5156C177.352 31.7812 176.484 30.2578 175.406 28.9453C174.305 27.6562 173.016 26.625 171.516 25.875C170.016 25.125 168.398 24.75 166.664 24.75C165.117 24.75 163.805 24.9609 162.703 25.3594C161.578 25.7578 160.641 26.2969 159.867 26.9766C159.07 27.6797 158.438 28.4766 157.945 29.3906C157.453 30.3281 157.055 31.2891 156.75 32.3203C156.422 33.3516 156.188 34.4297 156 35.5078C155.812 36.5859 155.672 37.6406 155.531 38.6719C155.391 39.7031 155.227 40.6875 155.062 41.6016C154.898 42.5391 154.688 43.3359 154.406 44.0156C154.125 44.7188 153.773 45.2578 153.352 45.6562C152.906 46.0547 152.344 46.2422 151.641 46.2422C151.078 46.2422 150.586 46.1484 150.117 45.9375C149.648 45.75 149.203 45.4688 148.805 45.1172C148.406 44.7656 148.031 44.3438 147.703 43.875C147.375 43.4062 147.07 42.9141 146.789 42.375L144.094 45.375C145.266 47.2734 146.438 48.6797 147.633 49.6172C148.805 50.5547 150.094 51 151.477 51C152.742 51 153.797 50.8125 154.664 50.3906C155.508 49.9688 156.234 49.4062 156.797 48.7031C157.359 48 157.828 47.1562 158.18 46.2188C158.508 45.2812 158.789 44.2734 159.023 43.1953C159.234 42.1172 159.422 41.0156 159.562 39.8906C159.703 38.7656 159.891 37.6875 160.078 36.6094C160.266 35.5312 160.523 34.5234 160.805 33.5859C161.086 32.6484 161.484 31.8047 162 31.1016C162.492 30.3984 163.125 29.8359 163.875 29.4141C164.625 28.9922 165.586 28.7812 166.734 28.7812C167.906 28.7812 168.984 29.0625 169.969 29.5781C170.953 30.1172 171.797 30.8438 172.5 31.7344C173.203 32.625 173.766 33.6797 174.188 34.875C174.586 36.0938 174.797 37.3594 174.797 38.7188C174.797 39.7734 174.656 40.7578 174.398 41.6719C174.117 42.5859 173.742 43.3828 173.25 44.0625C172.758 44.7422 172.172 45.2812 171.492 45.6562C170.789 46.0547 170.039 46.2422 169.219 46.2422C168.773 46.2422 168.352 46.1719 167.977 45.9844C167.602 45.8203 167.273 45.5859 166.992 45.2812C166.711 44.9766 166.477 44.625 166.312 44.2266C166.125 43.8281 166.031 43.4062 166.031 42.9375C166.734 43.3828 167.461 43.5938 168.164 43.5938C168.656 43.5938 169.125 43.5 169.594 43.2891C170.062 43.0781 170.461 42.7969 170.812 42.4453C171.164 42.1172 171.445 41.7188 171.656 41.25C171.867 40.8047 171.984 40.3359 171.984 39.8203C171.984 39.3516 171.867 38.8828 171.656 38.4141C171.445 37.9453 171.164 37.5469 170.812 37.1953C170.438 36.8438 170.039 36.5625 169.57 36.3516C169.102 36.1406 168.633 36.0234 168.164 36.0234C167.25 36.0234 166.406 36.2109 165.656 36.5625C164.883 36.9375 164.227 37.4297 163.664 38.0625C163.102 38.6953 162.68 39.4453 162.375 40.2891C162.047 41.1328 161.906 42.0469 161.906 43.0078C161.906 44.1328 162.07 45.1641 162.445 46.1484C162.82 47.1328 163.336 47.9766 163.992 48.6797C164.648 49.4062 165.422 49.9688 166.312 50.3906C167.203 50.8125 168.164 51 169.219 51ZM206.086 28.8281C206.977 28.8281 207.797 28.6641 208.57 28.2891C209.32 27.9141 210 27.4219 210.562 26.7891C211.125 26.1797 211.547 25.4297 211.875 24.5859C212.203 23.7422 212.367 22.8516 212.367 21.9141C212.367 21.0234 212.203 20.2031 211.875 19.4062C211.547 18.6094 211.125 17.9062 210.562 17.2969C210 16.6875 209.344 16.1719 208.594 15.7734C207.844 15.375 207.023 15.1172 206.156 15.0234L205.828 19.1016C206.531 19.1953 207.141 19.5234 207.609 20.0391C208.078 20.5781 208.312 21.2109 208.312 21.9141C208.312 22.2891 208.242 22.6406 208.125 22.9688C208.008 23.3203 207.844 23.625 207.656 23.8828C207.445 24.1641 207.211 24.375 206.93 24.5156C206.648 24.6797 206.367 24.75 206.086 24.75H183V28.8281H206.086ZM198.539 36.9609C198.914 36.9609 199.242 36.8906 199.57 36.75C199.898 36.6094 200.18 36.4219 200.414 36.1641C200.648 35.9297 200.836 35.6484 200.977 35.3203C201.117 34.9922 201.188 34.6406 201.188 34.2656C201.188 33.9141 201.117 33.5625 200.977 33.2344C200.836 32.9062 200.625 32.625 200.391 32.3906C200.156 32.1562 199.875 31.9453 199.547 31.8047C199.219 31.6641 198.891 31.5938 198.539 31.5938C198.164 31.5938 197.812 31.6641 197.484 31.8047C197.156 31.9453 196.875 32.1562 196.641 32.3906C196.406 32.625 196.219 32.9062 196.078 33.2344C195.938 33.5625 195.867 33.9141 195.867 34.2656C195.867 34.6406 195.938 34.9922 196.078 35.3203C196.219 35.6484 196.406 35.9531 196.641 36.1875C196.875 36.4219 197.156 36.6094 197.484 36.75C197.812 36.8906 198.164 36.9609 198.539 36.9609ZM203.906 51C205.078 51 206.18 50.7422 207.211 50.2266C208.219 49.7109 209.109 49.0078 209.859 48.1172C210.609 47.2266 211.195 46.1953 211.617 45.0234C212.039 43.8516 212.25 42.5859 212.25 41.2266C212.25 40.0078 212.109 38.9062 211.875 37.875C211.617 36.8672 211.195 35.9062 210.633 34.9688C210.07 34.0312 209.32 33.1172 208.406 32.2266C207.492 31.3359 206.367 30.3984 205.055 29.4141L203.18 33.1875C204.867 34.2656 206.133 35.4375 206.953 36.6797C207.773 37.9453 208.195 39.375 208.195 40.9688C208.195 41.6719 208.078 42.3516 207.867 42.9844C207.633 43.6172 207.328 44.1797 206.953 44.6484C206.578 45.1172 206.109 45.4922 205.594 45.7734C205.078 46.0547 204.516 46.1953 203.906 46.1953C203.25 46.1953 202.688 46.0781 202.172 45.8203C201.656 45.5859 201.211 45.2344 200.836 44.7891C200.461 44.3438 200.18 43.8047 199.992 43.1953C199.781 42.5859 199.688 41.9297 199.688 41.1797H195.633C195.633 41.9297 195.516 42.5859 195.305 43.1953C195.094 43.8047 194.789 44.3438 194.414 44.7891C194.039 45.2344 193.57 45.5859 193.055 45.8203C192.516 46.0781 191.93 46.1953 191.273 46.1953C190.664 46.1953 190.125 46.0781 189.609 45.8203C189.094 45.5859 188.648 45.2344 188.273 44.8125C187.898 44.3906 187.594 43.9219 187.383 43.3594C187.148 42.8203 187.055 42.2578 187.055 41.6484C187.055 41.1562 187.125 40.6641 187.312 40.1719C187.477 39.7031 187.711 39.2578 188.016 38.8828C188.32 38.5078 188.672 38.2031 189.094 37.9688C189.516 37.7344 189.961 37.6172 190.477 37.6172C191.086 37.6172 191.93 38.0859 193.008 39.0234L195.586 35.6953C194.086 34.2422 192.375 33.5156 190.43 33.5156C189.352 33.5156 188.344 33.75 187.453 34.1953C186.539 34.6641 185.766 35.2734 185.109 36.0469C184.453 36.8203 183.938 37.7109 183.562 38.7422C183.188 39.7734 183 40.8516 183 41.9766C183 43.2188 183.211 44.3906 183.656 45.4688C184.078 46.5703 184.688 47.5312 185.438 48.3516C186.188 49.1719 187.078 49.8281 188.109 50.2969C189.141 50.7656 190.242 51 191.438 51C193.922 51 195.984 50.0625 197.625 48.1406C199.242 50.0625 201.328 51 203.906 51ZM216.375 28.8047H241.031V24.7734H216.375V28.8047ZM235.898 51C237.047 51 238.102 50.7422 239.039 50.2031C239.977 49.6641 240.797 48.9141 241.477 47.9766C242.156 47.0391 242.672 45.9141 243.047 44.625C243.422 43.3594 243.609 41.9766 243.609 40.4766C243.609 38.8828 243.398 37.4531 243 36.1406C242.578 34.8281 241.992 33.7266 241.242 32.7891C240.492 31.875 239.555 31.1719 238.477 30.6562C237.375 30.1406 236.133 29.8828 234.773 29.8828C232.43 29.8828 230.555 30.5859 229.195 31.9453C227.812 30.5859 225.961 29.8828 223.641 29.8828C222.609 29.8828 221.672 30.0234 220.781 30.3047C219.891 30.5859 219.141 31.0078 218.484 31.5234C217.828 32.0391 217.312 32.6719 216.938 33.4219C216.562 34.1719 216.375 34.9922 216.375 35.8828C216.375 37.6641 217.008 39.0703 218.297 40.1016C217.008 41.1328 216.375 42.6797 216.375 44.7422C216.375 45.6328 216.516 46.4531 216.844 47.2031C217.148 47.9531 217.57 48.6094 218.133 49.1719C218.695 49.7344 219.352 50.1797 220.102 50.5078C220.852 50.8359 221.648 51 222.539 51C223.43 51 224.273 50.8359 225.047 50.4844C225.797 50.1328 226.453 49.6406 227.016 49.0312C227.578 48.4219 228 47.6719 228.328 46.8281C228.633 45.9844 228.797 45.0469 228.797 44.0625H224.648C224.648 44.9531 224.484 45.6328 224.156 46.0547C223.828 46.4766 223.289 46.6875 222.539 46.6875C221.93 46.6875 221.461 46.5 221.086 46.0781C220.711 45.6562 220.523 45.1641 220.523 44.5547C220.523 43.5469 220.781 42.8672 221.344 42.5156C221.906 42.1641 222.727 41.9766 223.805 41.9766H224.25V38.25C223.688 38.25 223.172 38.2266 222.727 38.1328C222.258 38.0391 221.883 37.8984 221.555 37.7109C221.227 37.5234 220.969 37.2891 220.781 36.9844C220.594 36.6797 220.523 36.3047 220.523 35.8594C220.523 34.3594 221.555 33.6094 223.641 33.6094C224.156 33.6094 224.648 33.7031 225.094 33.8906C225.516 34.0781 225.891 34.3359 226.195 34.6641C226.477 34.9922 226.711 35.3906 226.875 35.8594C227.039 36.3281 227.133 36.8203 227.133 37.3594H231.281C231.281 36.8203 231.352 36.3281 231.516 35.8594C231.68 35.3906 231.914 34.9922 232.219 34.6641C232.523 34.3359 232.898 34.0781 233.32 33.8906C233.742 33.7031 234.234 33.6094 234.773 33.6094C235.477 33.6094 236.133 33.7969 236.719 34.1719C237.305 34.5469 237.797 35.0391 238.219 35.6719C238.617 36.3281 238.922 37.0781 239.156 37.9453C239.367 38.8359 239.484 39.7734 239.484 40.7578C239.484 41.4844 239.414 42.0938 239.32 42.5859C238.289 41.0859 236.977 40.3125 235.43 40.3125C234.703 40.3125 234.047 40.4531 233.438 40.7109C232.828 40.9688 232.312 41.3203 231.891 41.7656C231.445 42.2344 231.094 42.7734 230.859 43.3828C230.602 44.0156 230.484 44.6953 230.484 45.3984C230.484 46.1953 230.602 46.9453 230.859 47.625C231.117 48.3047 231.492 48.8906 231.961 49.3828C232.43 49.8984 233.016 50.2969 233.672 50.5781C234.328 50.8594 235.078 51 235.898 51ZM235.43 43.7344C236.484 43.7344 237.234 44.4375 237.703 45.8438C237.188 46.875 236.438 47.3672 235.43 47.3672C234.398 47.3672 233.906 46.7109 233.906 45.3984C233.906 45.2109 233.953 45.0234 234.047 44.8359C234.141 44.6484 234.258 44.4609 234.398 44.2969C234.539 44.1328 234.703 43.9922 234.891 43.8984C235.078 43.8047 235.242 43.7344 235.43 43.7344ZM241.078 19.3828C241.336 19.5469 241.547 19.7109 241.711 19.8984C241.875 20.0859 241.969 20.3906 241.969 20.7891C241.969 21.3047 241.875 21.8203 241.688 22.2891C241.5 22.7812 241.195 23.2031 240.82 23.5781C240.445 23.9531 239.953 24.2578 239.391 24.4453C238.828 24.6562 238.172 24.75 237.422 24.75H235.359V28.8047H238.336C239.461 28.8047 240.492 28.6172 241.43 28.1953C242.344 27.7734 243.141 27.2109 243.797 26.5078C244.453 25.8047 244.945 24.9844 245.32 24.0469C245.672 23.1094 245.859 22.125 245.859 21.0469C245.859 20.0625 245.648 19.1484 245.273 18.3516C244.898 17.5547 244.383 16.875 243.773 16.3125C243.164 15.75 242.461 15.3281 241.664 15.0234C240.867 14.7422 240.07 14.5781 239.273 14.5781C238.617 14.5781 238.008 14.6953 237.445 14.9297C236.883 15.1641 236.367 15.4688 235.945 15.8672C235.523 16.2656 235.172 16.7344 234.938 17.2734C234.68 17.8125 234.562 18.3984 234.562 19.0078C234.562 19.5234 234.633 19.9922 234.82 20.4375C235.008 20.8828 235.242 21.2812 235.57 21.6094C235.898 21.9609 236.25 22.2422 236.672 22.4297C237.094 22.6172 237.539 22.7109 238.008 22.7109C238.453 22.7109 238.875 22.6406 239.25 22.4766C239.625 22.3359 239.93 22.1016 240.211 21.8203C240.492 21.5391 240.703 21.2109 240.844 20.8359C240.984 20.4609 241.078 20.0625 241.078 19.5938V19.3828Z" fill="white"/>
<path d="M110.926 73.2505C110.926 70.98 110.132 68.8926 108.558 66.9883H109.217V65.3281H105.579V66.9883H106.226C108.252 68.9658 109.266 71.0776 109.266 73.2993C109.266 74.3125 109.009 75.1548 108.509 75.8262C107.947 76.583 107.178 76.9492 106.214 76.9492C105.433 76.9492 104.761 76.7173 104.2 76.2412C103.589 75.7407 103.284 75.106 103.284 74.3369C103.284 74.2759 103.284 74.1782 103.296 74.0439C103.296 73.9097 103.309 73.812 103.309 73.7388C103.309 72.3838 102.955 71.0898 102.271 69.8691C101.587 68.6484 100.66 67.6841 99.5 66.9883H100.501C101.368 66.9883 102.088 66.6343 102.662 65.9019C103.174 65.2427 103.431 64.4736 103.431 63.5947C103.431 62.7646 103.162 62.0078 102.637 61.3242C102.076 60.6162 101.392 60.2134 100.586 60.1401L100.452 61.8003C100.818 61.8491 101.136 62.0688 101.404 62.4473C101.648 62.8135 101.771 63.1797 101.771 63.5581C101.771 63.9731 101.661 64.3638 101.441 64.7056C101.185 65.1206 100.855 65.3281 100.44 65.3281H88.0742V66.9883H93.7139C95.8501 66.9883 97.6689 67.5498 99.1826 68.6729C100.818 69.9058 101.648 71.5415 101.648 73.5801C101.648 74.4834 101.441 75.2524 101.05 75.8628C100.586 76.5952 99.9272 76.9492 99.0728 76.9492C98.3159 76.9492 97.6934 76.6929 97.2295 76.1802C96.7656 75.6675 96.5337 75.0205 96.5337 74.2637H94.8735C94.8735 75.0449 94.6294 75.6797 94.1533 76.1924C93.665 76.7051 93.0425 76.9492 92.2734 76.9492C91.541 76.9492 90.9429 76.6807 90.4546 76.1313C89.9663 75.6187 89.7344 74.9839 89.7344 74.2515C89.7344 73.0308 90.3325 72.2251 91.5532 71.8223L91.1016 70.2231C90.1494 70.5039 89.4048 71.0288 88.8677 71.8101C88.3306 72.5669 88.0742 73.4336 88.0742 74.4346C88.0742 75.7041 88.4648 76.7783 89.2461 77.645C90.0518 78.5483 91.0894 79 92.3589 79C93.7505 79 94.8613 78.4385 95.6914 77.3154C96.5215 78.4385 97.6445 79 99.0728 79C100.538 79 101.673 78.3652 102.454 77.0713C103.345 78.3652 104.59 79 106.189 79C107.691 79 108.875 78.4019 109.754 77.2056C110.535 76.1313 110.926 74.813 110.926 73.2505ZM123.06 67.4766C123.06 65.5479 122.522 63.8877 121.473 62.4961C120.289 60.9336 118.726 60.1523 116.773 60.1523H108.24V61.8125H111.402C112.183 61.8125 112.793 61.9956 113.257 62.3618C113.672 62.6914 113.88 63.0942 113.88 63.5581C113.88 64.7422 113.05 65.3281 111.402 65.3281H108.24V66.9883H111.402C112.623 66.9883 113.624 66.6465 114.405 65.9385C115.125 65.3037 115.491 64.5225 115.491 63.6191C115.491 62.9233 115.223 62.3252 114.71 61.8125H116.773C118.067 61.8125 119.153 62.313 120.032 63.314C120.936 64.3638 121.399 65.7432 121.399 67.4399C121.399 68.6362 121.119 69.6494 120.569 70.4551C119.971 71.334 119.166 71.7734 118.165 71.7734C117.603 71.7734 117.139 71.5903 116.773 71.2241C116.37 70.8579 116.175 70.3696 116.175 69.7593C116.175 69.3198 116.297 68.917 116.541 68.5386C116.81 68.1235 117.151 67.916 117.566 67.916C117.981 67.916 118.335 68.0869 118.628 68.4043L119.751 67.2812C119.166 66.5977 118.433 66.2559 117.579 66.2559C116.7 66.2559 115.955 66.6343 115.357 67.3667C114.783 68.0625 114.502 68.856 114.502 69.7593C114.502 70.9312 114.905 71.8467 115.723 72.5303C116.419 73.1406 117.237 73.4336 118.165 73.4336C119.715 73.4336 120.936 72.8354 121.839 71.6147C122.645 70.5161 123.06 69.1367 123.06 67.4766ZM140.503 63.5581C140.503 62.7036 140.235 61.959 139.722 61.2998C139.173 60.6162 138.489 60.2378 137.659 60.1523L137.525 61.8125C137.916 61.8491 138.245 62.0566 138.501 62.4229C138.721 62.7646 138.843 63.1431 138.843 63.5581C138.843 64.0464 138.721 64.4614 138.489 64.7788C138.221 65.145 137.842 65.3281 137.378 65.3281H125.208V66.9883H133.57C134.986 66.9883 136.231 67.7329 137.305 69.2222C138.282 70.5894 138.782 72.0176 138.782 73.4824C138.782 74.4956 138.526 75.3135 138.038 75.936C137.5 76.6196 136.731 76.9492 135.755 76.9492C134.888 76.9492 134.058 76.4487 133.277 75.4478C132.618 74.52 131.971 73.5801 131.336 72.6401C130.542 71.6392 129.712 71.1387 128.858 71.1387C127.71 71.1387 126.819 71.4561 126.172 72.0908C125.525 72.7256 125.208 73.6045 125.208 74.7397C125.208 76.522 125.904 77.938 127.308 79L128.077 76.9492C127.564 76.5098 127.247 76.1802 127.125 75.9604C126.954 75.6675 126.868 75.2158 126.868 74.6055C126.868 74.0562 127.027 73.6167 127.369 73.2871C127.71 72.9697 128.162 72.7988 128.724 72.7988C129.31 72.7988 129.969 73.3359 130.677 74.4102C131.91 76.2778 132.581 77.2666 132.691 77.3887C133.594 78.4629 134.607 79 135.706 79C137.22 79 138.416 78.4507 139.271 77.3398C140.052 76.3389 140.442 75.0571 140.442 73.4824C140.442 70.7236 139.441 68.563 137.439 66.9883C138.343 66.9883 139.087 66.6465 139.673 65.9385C140.223 65.2793 140.503 64.4858 140.503 63.5581ZM157.886 63.5581C157.886 62.7036 157.618 61.959 157.105 61.2998C156.556 60.6162 155.872 60.2378 155.042 60.1523L154.908 61.8125C155.298 61.8369 155.616 62.0444 155.884 62.4229C156.104 62.7646 156.226 63.1431 156.226 63.5581C156.226 64.0098 156.092 64.4126 155.835 64.7544C155.555 65.145 155.201 65.3281 154.761 65.3281H142.591V66.9883H148.23C150.367 66.9883 152.186 67.5498 153.699 68.6729C155.335 69.9058 156.165 71.5415 156.165 73.5801C156.165 74.4834 155.958 75.2524 155.567 75.8628C155.103 76.5952 154.444 76.9492 153.589 76.9492C152.833 76.9492 152.21 76.6929 151.746 76.1802C151.282 75.6675 151.05 75.0205 151.05 74.2637H149.39C149.39 75.0449 149.146 75.6797 148.67 76.1924C148.182 76.7051 147.559 76.9492 146.79 76.9492C146.058 76.9492 145.459 76.6807 144.971 76.1313C144.483 75.6187 144.251 74.9839 144.251 74.2515C144.251 73.0308 144.849 72.2251 146.07 71.8223L145.618 70.2231C144.666 70.5039 143.921 71.0288 143.384 71.8101C142.847 72.5669 142.591 73.4336 142.591 74.4346C142.591 75.7041 142.981 76.7783 143.763 77.645C144.568 78.5483 145.606 79 146.875 79C148.267 79 149.378 78.4385 150.208 77.3154C151.038 78.4385 152.161 79 153.589 79C154.908 79 155.97 78.4385 156.775 77.3154C157.471 76.3145 157.825 75.1304 157.825 73.7388C157.825 72.3838 157.471 71.0898 156.788 69.8691C156.104 68.6484 155.176 67.6841 154.017 66.9883H154.822C155.713 66.9883 156.458 66.6343 157.056 65.9263C157.605 65.2671 157.886 64.4736 157.886 63.5581ZM175.269 63.5581C175.269 62.7036 175 61.959 174.488 61.2998C173.938 60.6162 173.255 60.2378 172.425 60.1523L172.291 61.8125C172.681 61.8491 173.011 62.0566 173.267 62.4229C173.487 62.7646 173.609 63.1431 173.609 63.5581C173.609 64.0464 173.487 64.4614 173.255 64.7788C172.986 65.145 172.608 65.3281 172.144 65.3281H159.974V66.9883H168.335C169.751 66.9883 170.997 67.7329 172.071 69.2222C173.047 70.5894 173.548 72.0176 173.548 73.4824C173.548 74.4956 173.292 75.3135 172.803 75.936C172.266 76.6196 171.497 76.9492 170.521 76.9492C169.654 76.9492 168.824 76.4487 168.042 75.4478C167.383 74.52 166.736 73.5801 166.102 72.6401C165.308 71.6392 164.478 71.1387 163.624 71.1387C162.476 71.1387 161.585 71.4561 160.938 72.0908C160.291 72.7256 159.974 73.6045 159.974 74.7397C159.974 76.522 160.669 77.938 162.073 79L162.842 76.9492C162.33 76.5098 162.012 76.1802 161.89 75.9604C161.719 75.6675 161.634 75.2158 161.634 74.6055C161.634 74.0562 161.792 73.6167 162.134 73.2871C162.476 72.9697 162.928 72.7988 163.489 72.7988C164.075 72.7988 164.734 73.3359 165.442 74.4102C166.675 76.2778 167.347 77.2666 167.457 77.3887C168.36 78.4629 169.373 79 170.472 79C171.985 79 173.182 78.4507 174.036 77.3398C174.817 76.3389 175.208 75.0571 175.208 73.4824C175.208 70.7236 174.207 68.563 172.205 66.9883C173.108 66.9883 173.853 66.6465 174.439 65.9385C174.988 65.2793 175.269 64.4858 175.269 63.5581ZM191.028 72.8354C191.028 70.4917 190.369 68.6118 189.051 67.208C187.854 65.9629 186.426 65.3281 184.742 65.3281C183.13 65.3281 181.788 65.9141 180.713 67.0615C179.493 68.3555 178.895 70.1133 178.895 72.3594C178.895 75.4233 178.162 76.9492 176.697 76.9492C176.099 76.9492 175.574 76.7417 175.123 76.3267C174.988 76.2168 174.598 75.7651 173.963 74.9839L172.852 76.2534C173.597 77.2178 174.134 77.8403 174.463 78.1089C175.123 78.707 175.843 79 176.612 79C178.284 79 179.419 78.2676 180.005 76.7905C180.372 75.8872 180.555 74.4224 180.555 72.4204C180.555 70.6748 180.994 69.3076 181.873 68.3066C182.642 67.4277 183.619 66.9883 184.791 66.9883C186.011 66.9883 187.049 67.4644 187.928 68.4043C188.88 69.4541 189.368 70.8579 189.368 72.6157C189.368 73.812 189.087 74.8252 188.538 75.6309C187.928 76.5098 187.122 76.9492 186.121 76.9492C185.56 76.9492 185.096 76.7661 184.729 76.3999C184.327 76.0337 184.131 75.5454 184.131 74.9351C184.131 74.4956 184.253 74.0928 184.498 73.7144C184.766 73.2993 185.108 73.0918 185.523 73.0918C185.938 73.0918 186.292 73.2627 186.585 73.5801L187.708 72.457C187.122 71.7734 186.39 71.4316 185.535 71.4316C184.656 71.4316 183.912 71.8101 183.313 72.5425C182.74 73.2383 182.459 74.0317 182.459 74.9351C182.459 76.1802 182.825 77.1812 183.57 77.938C184.253 78.646 185.108 79 186.121 79C187.818 79 189.112 78.2432 190.015 76.7173C190.687 75.5698 191.028 74.2759 191.028 72.8354ZM194.52 88.6191C194.422 88.436 194.104 87.6548 193.543 86.2876C193.152 85.3477 192.762 84.603 192.371 84.0659C193.299 82.4668 193.775 79.6958 193.775 75.7529H192.408C192.408 79.1709 192.078 81.5757 191.419 82.9673C190.418 82.0273 189.271 81.5513 187.977 81.5513C187.146 81.5513 186.438 81.8076 185.877 82.2959C185.279 82.8086 184.986 83.48 184.986 84.2856C184.986 85.0913 185.303 85.7383 185.962 86.2388C186.561 86.7148 187.269 86.9468 188.086 86.9468C189.405 86.9468 190.552 86.3853 191.541 85.2622C191.858 85.7993 192.164 86.4341 192.481 87.1421C192.652 87.5693 192.908 88.2285 193.238 89.1074L194.52 88.6191ZM190.711 84.1758C189.93 85.1523 189.051 85.6284 188.086 85.6284C187.623 85.6284 187.22 85.5308 186.89 85.311C186.5 85.0669 186.304 84.7251 186.304 84.2856C186.304 83.834 186.475 83.48 186.817 83.2236C187.11 82.9917 187.5 82.8696 187.977 82.8696C188.953 82.8696 189.856 83.3091 190.711 84.1758ZM227.283 73.2505C227.283 70.1255 226.001 67.3667 223.45 64.9619L222.242 66.1704C224.488 68.2822 225.623 70.6626 225.623 73.2993C225.623 74.4834 225.293 75.4111 224.659 76.0703C224.097 76.6562 223.401 76.9492 222.571 76.9492C221.814 76.9492 221.155 76.7173 220.582 76.2534C219.947 75.7529 219.629 75.1182 219.642 74.3369C219.642 74.1904 219.666 73.8975 219.715 73.458C219.764 73.0186 219.788 72.689 219.788 72.4448C219.788 69.918 218.934 67.3789 217.237 64.8276C216.285 63.4116 215.149 62.1177 213.855 60.958C213.245 60.4209 212.598 60.1523 211.915 60.1523C211.158 60.1523 210.511 60.4209 209.974 60.958C209.437 61.4951 209.18 62.1299 209.18 62.8867C209.18 63.6436 209.437 64.2905 209.974 64.8276C210.511 65.3647 211.158 65.6211 211.915 65.6211C213.16 65.6211 214.002 65.0474 214.454 63.8877C216.895 66.6099 218.128 69.4785 218.128 72.4937C218.128 73.812 217.908 74.8496 217.493 75.6309C217.017 76.5098 216.333 76.9492 215.43 76.9492C214.698 76.9492 214.1 76.7051 213.611 76.2046C213.123 75.7041 212.891 75.167 212.891 74.5933V74.2637H211.231V74.5933C211.231 75.1792 210.975 75.7163 210.486 76.2046C209.998 76.7051 209.375 76.9492 208.631 76.9492C207.874 76.9492 207.264 76.6685 206.775 76.1069C206.312 75.582 206.092 74.9595 206.092 74.2515C206.092 73.0308 206.69 72.2251 207.911 71.8223L207.459 70.2231C206.482 70.5161 205.713 71.0776 205.176 71.8833C204.676 72.6279 204.432 73.4824 204.432 74.4346C204.432 75.6553 204.798 76.7051 205.542 77.5718C206.348 78.5239 207.398 79 208.716 79C210.108 79 211.219 78.4385 212.049 77.3154C212.879 78.4385 214.002 79 215.43 79C216.895 79 218.03 78.3652 218.812 77.0713C219.703 78.3652 220.948 79 222.547 79C223.829 79 224.915 78.5361 225.794 77.584C226.783 76.5342 227.283 75.0938 227.283 73.2505ZM213.367 62.8135C213.294 63.1431 213.099 63.4116 212.806 63.6313C212.5 63.8511 212.195 63.9609 211.89 63.9609C211.597 63.9609 211.341 63.8633 211.133 63.6436C210.914 63.436 210.816 63.1797 210.816 62.8867C210.816 62.5938 210.914 62.3496 211.133 62.1299C211.341 61.9224 211.597 61.8125 211.89 61.8125C212.378 61.8125 212.867 62.1543 213.367 62.8135ZM237 78.5728L236.817 76.9004C236.524 76.937 236.28 76.9492 236.084 76.9492C234.473 76.9492 233.179 76.3999 232.178 75.2769C231.238 74.2393 230.774 72.9819 230.774 71.5049C230.774 71.0776 230.811 70.626 230.896 70.1499C231.458 70.9434 232.239 71.334 233.24 71.334C234.168 71.334 234.925 71.0532 235.499 70.4673C236.072 69.8813 236.365 69.1367 236.365 68.209C236.365 67.3545 236.06 66.6099 235.45 65.9995C234.839 65.3892 234.095 65.084 233.24 65.084C231.971 65.084 230.958 65.7188 230.188 66.9883C229.468 68.1602 229.114 69.6006 229.114 71.3096C229.114 73.4092 229.786 75.1548 231.128 76.5342C232.471 77.9258 234.18 78.6094 236.268 78.6094C236.438 78.6094 236.683 78.5972 237 78.5728ZM234.705 68.209C234.705 68.624 234.559 68.9658 234.278 69.2466C233.985 69.5396 233.643 69.6738 233.24 69.6738C232.825 69.6738 232.483 69.5396 232.203 69.2466C231.91 68.9658 231.775 68.624 231.775 68.209C231.775 67.8062 231.91 67.4644 232.203 67.1714C232.483 66.8906 232.825 66.7441 233.24 66.7441C233.643 66.7441 233.985 66.8906 234.278 67.1714C234.559 67.4644 234.705 67.8062 234.705 68.209ZM252.503 72.1641C252.503 69.3198 251.832 66.7197 250.489 64.3638C248.902 61.5562 246.79 60.1523 244.166 60.1523C242.945 60.1523 241.944 60.4697 241.163 61.0801C240.296 61.7515 239.869 62.6792 239.869 63.8511C239.869 65.1816 240.369 66.207 241.37 66.915C239.734 68.2822 238.929 70.04 238.929 72.1641C238.929 74.0439 239.588 75.6553 240.906 76.998C242.225 78.3408 243.836 79 245.716 79C247.596 79 249.195 78.3408 250.513 76.998C251.832 75.6553 252.503 74.0439 252.503 72.1641ZM249.756 66.6709C248.56 65.7798 247.205 65.3281 245.716 65.3281C244.837 65.3281 243.995 65.499 243.189 65.8164C242.701 65.8164 242.298 65.6333 241.98 65.2671C241.663 64.9009 241.504 64.4736 241.504 63.9609C241.504 63.2529 241.785 62.7158 242.359 62.3252C242.847 61.9834 243.47 61.8125 244.214 61.8125C246.631 61.8125 248.475 63.436 249.756 66.6709ZM250.696 71.9688C250.696 73.3481 250.208 74.52 249.231 75.4966C248.255 76.4731 247.083 76.9492 245.716 76.9492C244.336 76.9492 243.165 76.4731 242.188 75.4966C241.211 74.52 240.735 73.3481 240.735 71.9688C240.735 70.6016 241.211 69.4297 242.188 68.4531C243.165 67.4766 244.336 66.9883 245.716 66.9883C247.083 66.9883 248.255 67.4766 249.231 68.4531C250.208 69.4297 250.696 70.6016 250.696 71.9688Z" fill="#ABABAB"/>
</svg>
