<svg width="461" height="240" viewBox="0 0 461 240" fill="none" xmlns="http://www.w3.org/2000/svg">
<path d="M117.458 118.2C114.012 118.2 110.748 117.613 107.668 116.44C104.588 115.267 101.912 113.323 99.6382 110.61C97.5116 113.177 94.7982 115.083 91.4982 116.33C88.2716 117.577 84.7882 118.2 81.0482 118.2C73.2749 118.2 67.1149 116.22 62.5682 112.26C58.0216 108.3 55.7482 102.837 55.7482 95.87C55.7482 92.7167 56.2982 89.8933 57.3982 87.4C58.4982 84.8333 59.9649 82.67 61.7982 80.91C63.6316 79.15 65.7582 77.83 68.1782 76.95C70.6716 75.9967 73.3116 75.52 76.0982 75.52C79.9116 75.52 82.8816 76.3267 85.0082 77.94C87.2082 79.48 88.3082 81.6433 88.3082 84.43C88.3082 85.97 87.9782 87.4 87.3182 88.72C86.6582 90.04 85.8882 91.1033 85.0082 91.91C83.6149 91.1033 82.0749 90.7 80.3882 90.7C78.6282 90.7 77.1982 91.2133 76.0982 92.24C75.0716 93.2667 74.5582 94.6967 74.5582 96.53C74.5582 98.4367 75.2549 100.013 76.6482 101.26C78.0416 102.433 79.9116 103.02 82.2582 103.02C84.9716 103.02 87.0616 102.36 88.5282 101.04C89.9949 99.6467 90.7282 97.8867 90.7282 95.76V90.92C91.7549 90.26 93.0382 89.6733 94.5782 89.16C96.1182 88.6467 97.8416 88.39 99.7482 88.39C101.655 88.39 103.378 88.6467 104.918 89.16C106.458 89.6733 107.742 90.26 108.768 90.92V95.76C108.768 97.8867 109.392 99.61 110.638 100.93C111.958 102.25 113.645 102.91 115.698 102.91C118.265 102.91 120.245 101.847 121.638 99.72C123.032 97.52 123.728 94.5867 123.728 90.92C123.728 88.3533 123.325 85.7867 122.518 83.22C121.712 80.6533 120.428 78.3067 118.668 76.18C116.908 73.98 114.672 72.11 111.958 70.57C109.245 68.9567 105.982 67.8567 102.168 67.27H58.1682C57.6549 66.4633 57.2149 65.4733 56.8482 64.3C56.4816 63.0533 56.2982 61.6967 56.2982 60.23C56.2982 57.7367 56.8482 55.8667 57.9482 54.62C59.0482 53.3733 60.5516 52.75 62.4582 52.75H166.408C172.788 52.75 178.325 53.6667 183.018 55.5C187.785 57.3333 191.745 59.8267 194.898 62.98C198.125 66.06 200.508 69.69 202.048 73.87C203.662 77.9767 204.468 82.34 204.468 86.96C204.468 91.7267 203.808 96.0533 202.488 99.94C201.242 103.753 199.372 107.017 196.878 109.73C194.385 112.443 191.305 114.533 187.638 116C184.045 117.467 179.902 118.2 175.208 118.2C171.762 118.2 168.498 117.723 165.418 116.77C162.338 115.817 159.662 114.423 157.388 112.59C155.115 110.757 153.318 108.483 151.998 105.77C150.678 103.057 150.018 99.94 150.018 96.42C150.018 93.4133 150.495 90.7733 151.448 88.5C152.402 86.1533 153.648 84.21 155.188 82.67C156.802 81.0567 158.635 79.8467 160.688 79.04C162.815 78.2333 165.015 77.83 167.288 77.83C170.588 77.83 173.192 78.6367 175.098 80.25C177.005 81.79 177.958 83.8433 177.958 86.41C177.958 87.5833 177.775 88.72 177.408 89.82C177.042 90.92 176.565 91.8733 175.978 92.68C175.318 92.46 174.585 92.35 173.778 92.35C172.018 92.35 170.625 92.8267 169.598 93.78C168.572 94.7333 168.058 96.0167 168.058 97.63C168.058 99.39 168.682 100.82 169.928 101.92C171.248 102.947 172.972 103.46 175.098 103.46C178.838 103.46 181.662 102.03 183.568 99.17C185.475 96.2367 186.428 92.13 186.428 86.85C186.428 80.6167 184.448 75.74 180.488 72.22C176.528 68.7 171.065 66.94 164.098 66.94H130.218C132.492 68.3333 134.435 70.02 136.048 72C137.662 73.98 138.945 76.07 139.898 78.27C140.925 80.47 141.658 82.7067 142.098 84.98C142.538 87.18 142.758 89.27 142.758 91.25C142.758 95.3567 142.172 99.0967 140.998 102.47C139.898 105.77 138.248 108.593 136.048 110.94C133.922 113.287 131.282 115.083 128.128 116.33C124.975 117.577 121.418 118.2 117.458 118.2ZM203.16 118.53C203.16 115.45 204.297 112.92 206.57 110.94C208.844 108.887 212.18 107.86 216.58 107.86C218.267 107.86 219.844 108.08 221.31 108.52C222.85 108.887 224.207 109.473 225.38 110.28C226.554 111.087 227.47 112.113 228.13 113.36C228.79 114.533 229.12 115.927 229.12 117.54C229.12 119.3 228.57 120.693 227.47 121.72C226.37 122.747 224.977 123.26 223.29 123.26C222.044 123.26 221.017 123.003 220.21 122.49C219.477 122.05 218.927 121.61 218.56 121.17C218.78 120.51 218.89 119.813 218.89 119.08C218.89 118.273 218.707 117.613 218.34 117.1C217.974 116.66 217.314 116.44 216.36 116.44C215.554 116.44 214.967 116.697 214.6 117.21C214.234 117.723 214.05 118.273 214.05 118.86C214.05 120.767 214.564 122.673 215.59 124.58C216.617 126.56 217.754 128.687 219 130.96C220.32 133.233 221.494 135.727 222.52 138.44C223.547 141.153 224.06 144.27 224.06 147.79C224.06 150.43 223.584 152.85 222.63 155.05C221.677 157.25 220.284 159.12 218.45 160.66C216.617 162.273 214.38 163.52 211.74 164.4C209.1 165.28 206.094 165.72 202.72 165.72C199.86 165.72 197.257 165.39 194.91 164.73C192.49 164.07 190.474 163.117 188.86 161.87C187.174 160.697 185.89 159.267 185.01 157.58C184.057 155.893 183.58 154.06 183.58 152.08C183.58 149.953 184.167 148.047 185.34 146.36C186.44 144.673 187.98 143.023 189.96 141.41C191.867 139.943 193.26 138.77 194.14 137.89C195.02 137.01 195.46 136.13 195.46 135.25C195.46 133.783 194.727 133.05 193.26 133.05C192.38 133.05 191.757 133.307 191.39 133.82C191.024 134.333 190.84 134.957 190.84 135.69C190.84 136.423 190.95 137.12 191.17 137.78C190.804 138.22 190.18 138.66 189.3 139.1C188.42 139.613 187.357 139.87 186.11 139.87C184.424 139.87 183.03 139.357 181.93 138.33C180.757 137.303 180.17 135.91 180.17 134.15C180.17 132.537 180.537 131.107 181.27 129.86C181.93 128.613 182.847 127.587 184.02 126.78C185.194 126.047 186.55 125.46 188.09 125.02C189.63 124.653 191.244 124.47 192.93 124.47C197.33 124.47 200.557 125.497 202.61 127.55C204.664 129.677 205.69 132.243 205.69 135.25C205.69 137.597 205.177 139.577 204.15 141.19C203.05 142.877 201.547 144.527 199.64 146.14C198.027 147.46 196.927 148.487 196.34 149.22C195.68 150.027 195.35 150.907 195.35 151.86C195.35 153.107 196.047 154.133 197.44 154.94C198.76 155.82 200.484 156.26 202.61 156.26C205.544 156.26 207.89 155.417 209.65 153.73C211.484 152.043 212.4 149.66 212.4 146.58C212.4 144.013 211.924 141.557 210.97 139.21C210.017 136.863 208.954 134.553 207.78 132.28C206.607 130.08 205.544 127.843 204.59 125.57C203.637 123.297 203.16 120.95 203.16 118.53ZM289.333 118.2C285.887 118.2 282.587 117.613 279.433 116.44C276.353 115.267 273.713 113.287 271.513 110.5C269.387 113.14 266.71 115.083 263.483 116.33C260.257 117.577 256.737 118.2 252.923 118.2C245.15 118.2 238.99 116.22 234.443 112.26C229.897 108.3 227.623 102.837 227.623 95.87C227.623 92.7167 228.137 89.8933 229.163 87.4C230.19 84.8333 231.583 82.67 233.343 80.91C235.177 79.15 237.267 77.7933 239.613 76.84C242.033 75.8867 244.637 75.41 247.423 75.41C251.237 75.41 254.207 76.2533 256.333 77.94C258.533 79.5533 259.633 81.7533 259.633 84.54C259.633 86.08 259.377 87.4733 258.863 88.72C258.35 89.8933 257.69 90.9567 256.883 91.91C255.49 91.1033 253.95 90.7 252.263 90.7C250.503 90.7 249.073 91.2133 247.973 92.24C246.873 93.2667 246.323 94.6967 246.323 96.53C246.323 98.4367 247.02 100.013 248.413 101.26C249.88 102.433 251.787 103.02 254.133 103.02C256.847 103.02 258.9 102.36 260.293 101.04C261.76 99.6467 262.493 97.8867 262.493 95.76V91.58C263.52 90.92 264.803 90.3333 266.343 89.82C267.883 89.3067 269.607 89.05 271.513 89.05C273.42 89.05 275.143 89.3067 276.683 89.82C278.223 90.3333 279.507 90.92 280.533 91.58V96.42C280.68 98.4 281.377 99.9767 282.623 101.15C283.943 102.323 285.593 102.91 287.573 102.91C290.14 102.91 292.083 102.03 293.403 100.27C294.723 98.51 295.383 96.0533 295.383 92.9C295.383 87.18 293.55 82.4867 289.883 78.82C290.763 76.3267 292.01 74.42 293.623 73.1C295.31 71.7067 297.29 71.01 299.563 71.01C301.91 71.01 303.927 71.56 305.613 72.66C307.373 73.76 308.84 75.1533 310.013 76.84C311.627 79.1867 312.763 81.8633 313.423 84.87C314.157 87.8767 314.523 90.6633 314.523 93.23C314.523 100.93 312.323 107.017 307.923 111.49C303.523 115.963 297.327 118.2 289.333 118.2ZM271.623 81.79C268.837 81.79 266.563 80.8733 264.803 79.04C263.043 77.1333 262.163 74.7867 262.163 72C262.163 71.4867 262.237 70.79 262.383 69.91C262.53 68.9567 262.86 67.9667 263.373 66.94H230.043C229.53 66.1333 229.09 65.18 228.723 64.08C228.357 62.98 228.173 61.6967 228.173 60.23C228.173 57.7367 228.723 55.8667 229.823 54.62C230.923 53.3733 232.427 52.75 234.333 52.75H293.403C295.31 52.75 296.667 52.2733 297.473 51.32C298.28 50.3667 298.683 49.1567 298.683 47.69C298.683 46.0033 298.317 44.3533 297.583 42.74C298.463 42.0067 299.6 41.3467 300.993 40.76C302.387 40.1733 303.963 39.88 305.723 39.88C308.657 39.88 311.077 40.87 312.983 42.85C314.963 44.7567 315.953 47.6167 315.953 51.43C315.953 53.85 315.477 56.05 314.523 58.03C313.643 59.9367 312.397 61.55 310.783 62.87C309.17 64.19 307.263 65.2167 305.063 65.95C302.863 66.61 300.48 66.94 297.913 66.94H279.983C280.57 67.8933 280.937 68.8467 281.083 69.8C281.23 70.68 281.303 71.4133 281.303 72C281.303 74.7867 280.423 77.1333 278.663 79.04C276.977 80.8733 274.63 81.79 271.623 81.79ZM335.8 118.2C333.673 118.2 331.73 117.723 329.97 116.77C328.283 115.817 326.816 114.497 325.57 112.81C324.323 111.123 323.333 109.143 322.6 106.87C321.94 104.523 321.61 102.03 321.61 99.39C321.61 96.0167 322.16 92.9367 323.26 90.15C324.433 87.3633 326.083 84.98 328.21 83C330.336 81.02 332.903 79.5167 335.91 78.49C338.99 77.39 342.4 76.84 346.14 76.84C352.08 76.84 356.92 78.16 360.66 80.8C364.4 83.3667 367.223 86.85 369.13 91.25L371.88 97.41C372.686 99.2433 373.603 100.563 374.63 101.37C375.656 102.177 376.866 102.58 378.26 102.58C380.533 102.58 382.256 101.627 383.43 99.72C384.603 97.74 385.19 95.1367 385.19 91.91C385.19 88.9767 384.676 86.19 383.65 83.55C382.696 80.91 381.34 78.5267 379.58 76.4C377.82 74.2733 375.73 72.44 373.31 70.9C370.89 69.36 368.213 68.1867 365.28 67.38H323.81C322.563 65.3267 321.94 63.0167 321.94 60.45C321.94 57.8833 322.49 55.9767 323.59 54.73C324.763 53.41 326.34 52.75 328.32 52.75H383.87C385.556 52.6033 386.766 52.09 387.5 51.21C388.233 50.2567 388.6 49.0833 388.6 47.69C388.6 46.0033 388.233 44.3533 387.5 42.74C388.6 41.86 389.846 41.1633 391.24 40.65C392.706 40.1367 394.173 39.88 395.64 39.88C398.573 39.88 400.993 40.87 402.9 42.85C404.88 44.83 405.87 47.7633 405.87 51.65C405.87 55.83 404.623 59.2767 402.13 61.99C399.71 64.7033 396.336 66.4633 392.01 67.27C395.676 70.0567 398.646 73.7233 400.92 78.27C403.266 82.8167 404.44 87.73 404.44 93.01C404.44 96.75 403.816 100.197 402.57 103.35C401.323 106.43 399.526 109.07 397.18 111.27C394.906 113.47 392.12 115.157 388.82 116.33C385.52 117.577 381.853 118.2 377.82 118.2C371.88 118.2 367.15 116.917 363.63 114.35C360.11 111.71 357.286 108.043 355.16 103.35L353.07 98.62C352.263 96.7867 351.346 95.3567 350.32 94.33C349.366 93.3033 348.046 92.79 346.36 92.79C344.746 92.79 343.426 93.34 342.4 94.44C341.373 95.4667 340.86 97.1533 340.86 99.5C340.86 101.7 341.3 103.717 342.18 105.55C343.06 107.383 344.196 109.033 345.59 110.5C344.93 112.92 343.756 114.79 342.07 116.11C340.383 117.503 338.293 118.2 335.8 118.2Z" fill="white" fill-opacity="0.2"/>
<path d="M88.429 199.425C88.9623 199.742 89.4623 200.15 89.929 200.65C90.4123 201.15 90.829 201.725 91.179 202.375C91.5457 203.025 91.829 203.725 92.029 204.475C92.2457 205.225 92.354 206.008 92.354 206.825C92.354 208.608 91.929 209.95 91.079 210.85C90.229 211.75 89.1123 212.2 87.729 212.2C87.2623 212.2 86.804 212.15 86.354 212.05C85.9207 211.95 85.4957 211.775 85.079 211.525C84.679 211.275 84.2873 210.942 83.904 210.525C83.5373 210.092 83.1873 209.558 82.854 208.925L82.279 207.825C81.8457 206.992 81.404 206.425 80.954 206.125C80.504 205.808 80.029 205.65 79.529 205.65C78.879 205.65 78.354 205.875 77.954 206.325C77.5707 206.758 77.379 207.358 77.379 208.125C77.379 208.825 77.5207 209.442 77.804 209.975C78.104 210.508 78.504 210.958 79.004 211.325C78.9373 211.558 78.8207 211.758 78.654 211.925C78.504 212.075 78.2707 212.15 77.954 212.15C77.7207 212.15 77.4623 212.067 77.179 211.9C76.8957 211.717 76.629 211.458 76.379 211.125C76.129 210.775 75.9123 210.358 75.729 209.875C75.5623 209.375 75.479 208.8 75.479 208.15C75.479 207.433 75.5957 206.817 75.829 206.3C76.0623 205.767 76.3623 205.333 76.729 205C77.1123 204.65 77.5373 204.392 78.004 204.225C78.4873 204.058 78.9707 203.975 79.454 203.975C80.5707 203.975 81.4623 204.242 82.129 204.775C82.8123 205.308 83.429 206.092 83.979 207.125L84.729 208.525C85.0123 209.058 85.3957 209.533 85.879 209.95C86.379 210.35 86.9873 210.55 87.704 210.55C88.5373 210.55 89.1957 210.233 89.679 209.6C90.179 208.967 90.429 208.033 90.429 206.8C90.429 205.733 90.2457 204.767 89.879 203.9C89.5123 203.033 89.0457 202.283 88.479 201.65C87.9123 201 87.2873 200.492 86.604 200.125C85.9207 199.742 85.2707 199.508 84.654 199.425H75.304C75.254 199.325 75.204 199.208 75.154 199.075C75.1207 198.942 75.104 198.792 75.104 198.625C75.104 198.325 75.1873 198.117 75.354 198C75.5207 197.883 75.7373 197.825 76.004 197.825H88.379C89.0457 197.825 89.5373 197.658 89.854 197.325C90.1707 196.992 90.329 196.55 90.329 196C90.329 195.333 90.1457 194.733 89.779 194.2C89.8623 194.033 89.979 193.9 90.129 193.8C90.2957 193.683 90.4957 193.625 90.729 193.625C91.1623 193.625 91.504 193.875 91.754 194.375C92.004 194.875 92.129 195.458 92.129 196.125C92.129 197.242 91.8123 198.075 91.179 198.625C90.5623 199.158 89.729 199.425 88.679 199.425H88.429ZM94.9358 207.775C94.9358 207.175 95.0275 206.625 95.2108 206.125C95.3942 205.625 95.6608 205.192 96.0108 204.825C96.3608 204.458 96.7858 204.175 97.2858 203.975C97.8025 203.775 98.3858 203.675 99.0358 203.675C99.6192 203.675 100.053 203.783 100.336 204C100.636 204.2 100.786 204.45 100.786 204.75C100.786 204.95 100.736 205.133 100.636 205.3C100.553 205.45 100.444 205.567 100.311 205.65C100.144 205.567 99.9525 205.5 99.7358 205.45C99.5358 205.383 99.3025 205.35 99.0358 205.35C98.4525 205.35 97.9358 205.55 97.4858 205.95C97.0525 206.333 96.8358 206.942 96.8358 207.775C96.8358 208.625 97.1025 209.3 97.6358 209.8C98.1692 210.3 98.8858 210.55 99.7858 210.55C100.686 210.55 101.444 210.308 102.061 209.825C102.678 209.325 102.986 208.617 102.986 207.7V206.775C103.219 206.592 103.528 206.5 103.911 206.5C104.261 206.5 104.553 206.592 104.786 206.775V207.7C104.786 208.2 104.869 208.633 105.036 209C105.219 209.367 105.453 209.667 105.736 209.9C106.019 210.117 106.336 210.283 106.686 210.4C107.053 210.5 107.428 210.55 107.811 210.55C109.911 210.55 110.961 209.2 110.961 206.5C110.961 205.717 110.819 204.942 110.536 204.175C110.269 203.408 109.894 202.708 109.411 202.075C108.928 201.442 108.344 200.892 107.661 200.425C106.994 199.958 106.253 199.625 105.436 199.425H95.1108C95.0608 199.325 95.0108 199.208 94.9608 199.075C94.9275 198.942 94.9108 198.792 94.9108 198.625C94.9108 198.325 94.9942 198.117 95.1608 198C95.3275 197.883 95.5442 197.825 95.8108 197.825H108.861C109.528 197.825 110.019 197.667 110.336 197.35C110.653 197.017 110.811 196.575 110.811 196.025C110.811 195.358 110.628 194.758 110.261 194.225C110.344 194.058 110.461 193.925 110.611 193.825C110.778 193.708 110.978 193.65 111.211 193.65C111.644 193.65 111.986 193.9 112.236 194.4C112.486 194.9 112.611 195.483 112.611 196.15C112.611 197.267 112.294 198.092 111.661 198.625C111.044 199.158 110.211 199.425 109.161 199.425H108.761C109.311 199.692 109.836 200.075 110.336 200.575C110.836 201.058 111.269 201.625 111.636 202.275C112.019 202.908 112.319 203.592 112.536 204.325C112.753 205.042 112.861 205.758 112.861 206.475C112.861 207.458 112.719 208.35 112.436 209.15C112.819 209.517 113.294 209.825 113.861 210.075C114.428 210.325 115.069 210.45 115.786 210.45C116.403 210.45 116.969 210.333 117.486 210.1C118.019 209.867 118.469 209.533 118.836 209.1C119.203 208.65 119.486 208.108 119.686 207.475C119.903 206.825 120.011 206.1 120.011 205.3C120.011 204.25 119.878 203.342 119.611 202.575C119.344 201.792 118.994 201.125 118.561 200.575C118.144 200.025 117.669 199.583 117.136 199.25C116.603 198.917 116.069 198.675 115.536 198.525C115.536 198.158 115.611 197.858 115.761 197.625C115.911 197.375 116.194 197.25 116.611 197.25C116.878 197.25 117.194 197.325 117.561 197.475C117.928 197.608 118.303 197.817 118.686 198.1C119.086 198.383 119.478 198.75 119.861 199.2C120.244 199.633 120.586 200.15 120.886 200.75C121.186 201.35 121.428 202.033 121.611 202.8C121.811 203.567 121.911 204.417 121.911 205.35C121.911 206.4 121.761 207.35 121.461 208.2C121.161 209.033 120.744 209.742 120.211 210.325C119.694 210.908 119.061 211.358 118.311 211.675C117.578 211.975 116.778 212.125 115.911 212.125C114.928 212.125 114.078 211.983 113.361 211.7C112.644 211.417 112.044 211.075 111.561 210.675C111.128 211.158 110.594 211.533 109.961 211.8C109.344 212.067 108.628 212.2 107.811 212.2C107.011 212.2 106.253 212.042 105.536 211.725C104.819 211.408 104.253 210.9 103.836 210.2C103.419 210.85 102.853 211.35 102.136 211.7C101.419 212.033 100.611 212.2 99.7108 212.2C98.9942 212.2 98.3442 212.1 97.7608 211.9C97.1775 211.683 96.6775 211.383 96.2608 211C95.8442 210.617 95.5192 210.158 95.2858 209.625C95.0525 209.075 94.9358 208.458 94.9358 207.775ZM124.451 222.3C123.634 222.3 122.909 222.192 122.276 221.975C121.642 221.775 121.117 221.5 120.701 221.15C120.267 220.8 119.942 220.392 119.726 219.925C119.509 219.458 119.401 218.958 119.401 218.425C119.401 217.958 119.484 217.533 119.651 217.15C119.817 216.767 120.034 216.425 120.301 216.125C120.567 215.825 120.867 215.567 121.201 215.35C121.517 215.133 121.826 214.967 122.126 214.85C122.159 214.667 122.176 214.475 122.176 214.275C122.176 214.092 122.176 213.908 122.176 213.725C122.176 213.258 122.142 212.933 122.076 212.75C121.992 212.583 121.859 212.392 121.676 212.175C121.709 212.042 121.801 211.917 121.951 211.8C122.101 211.683 122.284 211.625 122.501 211.625C122.884 211.625 123.159 211.775 123.326 212.075C123.509 212.392 123.601 212.775 123.601 213.225C123.601 213.458 123.584 213.675 123.551 213.875C123.517 214.075 123.484 214.267 123.451 214.45C123.584 214.433 123.717 214.417 123.851 214.4C123.984 214.4 124.117 214.4 124.251 214.4C125.284 214.4 126.059 214.65 126.576 215.15C127.109 215.667 127.376 216.275 127.376 216.975C127.376 217.625 127.134 218.15 126.651 218.55C126.184 218.95 125.551 219.15 124.751 219.15C124.384 219.15 124.026 219.092 123.676 218.975C123.326 218.875 123.017 218.717 122.751 218.5C122.484 218.283 122.267 218.017 122.101 217.7C121.934 217.4 121.851 217.05 121.851 216.65V216.375C121.517 216.608 121.267 216.908 121.101 217.275C120.934 217.642 120.851 218.017 120.851 218.4C120.851 218.767 120.926 219.108 121.076 219.425C121.226 219.742 121.459 220.017 121.776 220.25C122.076 220.5 122.459 220.692 122.926 220.825C123.392 220.975 123.942 221.05 124.576 221.05C125.492 221.05 126.334 220.858 127.101 220.475C127.867 220.108 128.442 219.5 128.826 218.65C129.109 218.65 129.326 218.708 129.476 218.825C129.642 218.942 129.726 219.108 129.726 219.325C129.726 219.575 129.609 219.867 129.376 220.2C129.159 220.55 128.826 220.875 128.376 221.175C127.942 221.492 127.392 221.758 126.726 221.975C126.076 222.192 125.317 222.3 124.451 222.3ZM124.801 217.9C125.217 217.9 125.517 217.8 125.701 217.6C125.901 217.417 126.001 217.192 126.001 216.925C126.001 216.808 125.967 216.675 125.901 216.525C125.851 216.375 125.759 216.242 125.626 216.125C125.492 216.008 125.301 215.908 125.051 215.825C124.801 215.742 124.492 215.7 124.126 215.7C123.776 215.7 123.459 215.742 123.176 215.825V216.2C123.176 216.767 123.326 217.192 123.626 217.475C123.942 217.758 124.334 217.9 124.801 217.9ZM145.121 212.2C144.121 212.2 143.279 212.025 142.596 211.675C141.912 211.325 141.396 210.833 141.046 210.2C140.696 210.833 140.179 211.325 139.496 211.675C138.812 212.025 137.979 212.2 136.996 212.2C136.379 212.2 135.787 212.117 135.221 211.95C134.654 211.783 134.154 211.533 133.721 211.2C133.304 210.85 132.962 210.417 132.696 209.9C132.446 209.383 132.321 208.783 132.321 208.1C132.321 207.15 132.571 206.35 133.071 205.7C133.571 205.05 134.246 204.5 135.096 204.05L136.371 203.375C137.137 202.975 137.712 202.583 138.096 202.2C138.496 201.8 138.696 201.325 138.696 200.775C138.696 200.175 138.479 199.708 138.046 199.375C137.612 199.025 137.062 198.85 136.396 198.85C135.662 198.85 135.079 199.042 134.646 199.425C134.229 199.808 134.021 200.317 134.021 200.95C134.021 201.267 134.062 201.542 134.146 201.775C134.229 202.008 134.337 202.225 134.471 202.425C134.387 202.558 134.271 202.675 134.121 202.775C133.971 202.858 133.787 202.9 133.571 202.9C133.187 202.9 132.862 202.725 132.596 202.375C132.329 202.025 132.196 201.542 132.196 200.925C132.196 200.358 132.304 199.858 132.521 199.425C132.754 198.975 133.062 198.6 133.446 198.3C133.829 197.983 134.279 197.742 134.796 197.575C135.312 197.408 135.862 197.325 136.446 197.325C136.996 197.325 137.521 197.408 138.021 197.575C138.521 197.725 138.954 197.95 139.321 198.25C139.704 198.55 140.004 198.917 140.221 199.35C140.454 199.783 140.571 200.283 140.571 200.85C140.571 201.65 140.329 202.342 139.846 202.925C139.362 203.508 138.671 204.033 137.771 204.5L136.371 205.225C135.754 205.542 135.237 205.942 134.821 206.425C134.421 206.908 134.221 207.467 134.221 208.1C134.221 208.9 134.504 209.508 135.071 209.925C135.637 210.342 136.346 210.55 137.196 210.55C138.029 210.55 138.729 210.342 139.296 209.925C139.879 209.492 140.171 208.867 140.171 208.05V206.8C140.437 206.617 140.737 206.525 141.071 206.525C141.404 206.525 141.704 206.617 141.971 206.8V208.05C141.971 208.85 142.246 209.467 142.796 209.9C143.346 210.317 144.079 210.525 144.996 210.525C145.496 210.525 145.954 210.442 146.371 210.275C146.787 210.092 147.137 209.808 147.421 209.425C147.721 209.025 147.954 208.517 148.121 207.9C148.287 207.267 148.371 206.508 148.371 205.625C148.371 204.575 148.237 203.65 147.971 202.85C147.704 202.05 147.354 201.367 146.921 200.8C146.487 200.217 145.996 199.75 145.446 199.4C144.912 199.033 144.379 198.767 143.846 198.6C143.846 198.233 143.921 197.933 144.071 197.7C144.221 197.45 144.504 197.325 144.921 197.325C145.337 197.325 145.846 197.492 146.446 197.825C147.062 198.158 147.654 198.667 148.221 199.35C148.787 200.033 149.271 200.9 149.671 201.95C150.071 203 150.271 204.242 150.271 205.675C150.271 206.808 150.137 207.792 149.871 208.625C149.621 209.442 149.271 210.117 148.821 210.65C148.371 211.183 147.829 211.575 147.196 211.825C146.562 212.075 145.871 212.2 145.121 212.2ZM165.47 212.2C164.62 212.2 163.879 212.042 163.245 211.725C162.612 211.392 162.104 210.933 161.72 210.35C161.387 210.933 160.912 211.392 160.295 211.725C159.695 212.042 158.945 212.2 158.045 212.2C157.395 212.2 156.77 212.092 156.17 211.875C155.57 211.642 155.037 211.3 154.57 210.85C154.104 210.383 153.729 209.8 153.445 209.1C153.179 208.383 153.045 207.542 153.045 206.575C153.045 205.758 153.145 204.983 153.345 204.25C153.562 203.5 153.854 202.817 154.22 202.2C154.604 201.567 155.045 201.017 155.545 200.55C156.062 200.083 156.612 199.708 157.195 199.425H153.245C153.195 199.325 153.145 199.208 153.095 199.075C153.062 198.942 153.045 198.792 153.045 198.625C153.045 198.325 153.129 198.117 153.295 198C153.462 197.883 153.679 197.825 153.945 197.825H166.595C167.262 197.825 167.754 197.658 168.07 197.325C168.387 196.992 168.545 196.55 168.545 196C168.545 195.333 168.362 194.733 167.995 194.2C168.079 194.033 168.195 193.9 168.345 193.8C168.512 193.683 168.712 193.625 168.945 193.625C169.379 193.625 169.72 193.875 169.97 194.375C170.22 194.875 170.345 195.458 170.345 196.125C170.345 197.242 170.029 198.075 169.395 198.625C168.779 199.158 167.945 199.425 166.895 199.425H166.17C166.77 199.708 167.32 200.092 167.82 200.575C168.337 201.042 168.779 201.592 169.145 202.225C169.529 202.858 169.82 203.55 170.02 204.3C170.237 205.033 170.345 205.8 170.345 206.6C170.345 207.55 170.22 208.383 169.97 209.1C169.72 209.8 169.379 210.383 168.945 210.85C168.512 211.3 167.995 211.642 167.395 211.875C166.812 212.092 166.17 212.2 165.47 212.2ZM158.22 210.55C158.97 210.55 159.587 210.342 160.07 209.925C160.554 209.508 160.795 208.808 160.795 207.825V206.75C161.062 206.567 161.362 206.475 161.695 206.475C162.029 206.475 162.329 206.567 162.595 206.75V207.825C162.595 208.675 162.845 209.342 163.345 209.825C163.845 210.308 164.52 210.55 165.37 210.55C166.27 210.55 167.004 210.233 167.57 209.6C168.137 208.95 168.42 207.883 168.42 206.4C168.42 205.55 168.279 204.733 167.995 203.95C167.712 203.167 167.32 202.467 166.82 201.85C166.32 201.217 165.72 200.692 165.02 200.275C164.337 199.858 163.579 199.575 162.745 199.425H160.645C159.812 199.575 159.045 199.858 158.345 200.275C157.662 200.692 157.07 201.208 156.57 201.825C156.07 202.442 155.679 203.142 155.395 203.925C155.112 204.692 154.97 205.5 154.97 206.35C154.97 207.083 155.054 207.717 155.22 208.25C155.404 208.767 155.645 209.2 155.945 209.55C156.245 209.883 156.587 210.133 156.97 210.3C157.37 210.467 157.787 210.55 158.22 210.55ZM168.142 209.725C168.142 209.442 168.259 209.167 168.492 208.9C168.709 208.633 168.992 208.475 169.342 208.425C169.492 208.675 169.692 208.925 169.942 209.175C170.192 209.425 170.492 209.65 170.842 209.85C171.176 210.05 171.551 210.217 171.967 210.35C172.384 210.467 172.834 210.525 173.317 210.525C173.934 210.525 174.501 210.408 175.017 210.175C175.551 209.942 176.001 209.608 176.367 209.175C176.734 208.725 177.017 208.183 177.217 207.55C177.434 206.9 177.542 206.175 177.542 205.375C177.542 204.325 177.409 203.417 177.142 202.65C176.876 201.867 176.526 201.2 176.092 200.65C175.676 200.1 175.201 199.658 174.667 199.325C174.134 198.992 173.601 198.75 173.067 198.6C173.067 198.233 173.142 197.933 173.292 197.7C173.442 197.45 173.726 197.325 174.142 197.325C174.542 197.325 175.042 197.492 175.642 197.825C176.259 198.142 176.842 198.633 177.392 199.3C177.959 199.967 178.442 200.808 178.842 201.825C179.242 202.842 179.442 204.042 179.442 205.425C179.442 206.475 179.292 207.425 178.992 208.275C178.692 209.108 178.276 209.817 177.742 210.4C177.226 210.983 176.592 211.433 175.842 211.75C175.109 212.05 174.309 212.2 173.442 212.2C172.759 212.2 172.134 212.125 171.567 211.975C171.017 211.825 170.526 211.633 170.092 211.4C169.642 211.167 169.259 210.9 168.942 210.6C168.609 210.3 168.342 210.008 168.142 209.725ZM185.364 197.325C185.364 196.375 185.672 195.608 186.289 195.025C186.922 194.442 187.73 194.15 188.714 194.15C189.18 194.15 189.63 194.242 190.064 194.425C190.497 194.592 190.872 194.858 191.189 195.225C191.522 195.575 191.789 196.025 191.989 196.575C192.189 197.108 192.289 197.733 192.289 198.45C192.289 199.283 192.18 200.017 191.964 200.65C191.747 201.283 191.447 201.808 191.064 202.225H195.839C195.889 202.325 195.93 202.442 195.964 202.575C196.014 202.708 196.039 202.858 196.039 203.025C196.039 203.325 195.955 203.533 195.789 203.65C195.622 203.767 195.405 203.825 195.139 203.825H192.664C193.314 204.158 193.822 204.642 194.189 205.275C194.572 205.892 194.764 206.583 194.764 207.35C194.764 208.067 194.622 208.725 194.339 209.325C194.072 209.925 193.689 210.442 193.189 210.875C192.689 211.292 192.08 211.617 191.364 211.85C190.664 212.083 189.88 212.2 189.014 212.2C188.197 212.2 187.43 212.092 186.714 211.875C186.014 211.642 185.397 211.325 184.864 210.925C184.347 210.508 183.939 210 183.639 209.4C183.339 208.8 183.189 208.125 183.189 207.375C183.189 206.542 183.372 205.825 183.739 205.225C184.122 204.625 184.605 204.158 185.189 203.825H182.114C182.064 203.725 182.014 203.608 181.964 203.475C181.93 203.342 181.914 203.192 181.914 203.025C181.914 202.725 181.997 202.517 182.164 202.4C182.33 202.283 182.547 202.225 182.814 202.225H187.889C188.655 202.225 189.289 202 189.789 201.55C190.289 201.083 190.605 200.383 190.739 199.45C190.555 199.683 190.289 199.892 189.939 200.075C189.589 200.242 189.164 200.325 188.664 200.325C188.197 200.325 187.764 200.258 187.364 200.125C186.964 199.975 186.614 199.775 186.314 199.525C186.014 199.258 185.78 198.942 185.614 198.575C185.447 198.192 185.364 197.775 185.364 197.325ZM188.989 203.775C188.422 203.775 187.889 203.858 187.389 204.025C186.905 204.175 186.48 204.4 186.114 204.7C185.747 205 185.455 205.367 185.239 205.8C185.039 206.233 184.939 206.725 184.939 207.275C184.939 207.808 185.047 208.283 185.264 208.7C185.48 209.117 185.78 209.475 186.164 209.775C186.547 210.058 186.989 210.283 187.489 210.45C187.989 210.6 188.53 210.675 189.114 210.675C189.68 210.675 190.197 210.6 190.664 210.45C191.147 210.283 191.564 210.05 191.914 209.75C192.264 209.45 192.53 209.092 192.714 208.675C192.914 208.258 193.014 207.792 193.014 207.275C193.014 206.758 192.905 206.283 192.689 205.85C192.472 205.417 192.18 205.05 191.814 204.75C191.447 204.433 191.022 204.192 190.539 204.025C190.055 203.858 189.539 203.775 188.989 203.775ZM190.489 197.3C190.489 196.817 190.322 196.425 189.989 196.125C189.655 195.808 189.255 195.65 188.789 195.65C188.305 195.65 187.897 195.8 187.564 196.1C187.247 196.4 187.089 196.792 187.089 197.275C187.089 197.775 187.247 198.175 187.564 198.475C187.897 198.758 188.305 198.9 188.789 198.9C189.272 198.9 189.672 198.758 189.989 198.475C190.322 198.192 190.489 197.8 190.489 197.3ZM216.788 212.2C216.104 212.2 215.488 212.083 214.938 211.85C214.404 211.617 213.946 211.3 213.563 210.9C213.163 211.333 212.679 211.658 212.113 211.875C211.563 212.092 210.954 212.2 210.288 212.2C209.821 212.2 209.363 212.15 208.913 212.05C208.479 211.95 208.054 211.775 207.638 211.525C207.238 211.275 206.846 210.942 206.463 210.525C206.096 210.092 205.746 209.558 205.413 208.925L204.838 207.825C204.404 206.992 203.963 206.425 203.513 206.125C203.063 205.808 202.588 205.65 202.088 205.65C201.438 205.65 200.913 205.875 200.513 206.325C200.129 206.758 199.938 207.358 199.938 208.125C199.938 208.825 200.079 209.442 200.363 209.975C200.663 210.508 201.063 210.958 201.563 211.325C201.496 211.558 201.379 211.758 201.213 211.925C201.063 212.075 200.829 212.15 200.513 212.15C200.279 212.15 200.021 212.067 199.738 211.9C199.454 211.717 199.188 211.458 198.938 211.125C198.688 210.775 198.471 210.358 198.288 209.875C198.121 209.375 198.038 208.8 198.038 208.15C198.038 207.433 198.154 206.817 198.388 206.3C198.621 205.767 198.921 205.333 199.288 205C199.671 204.65 200.096 204.392 200.563 204.225C201.046 204.058 201.529 203.975 202.013 203.975C203.129 203.975 204.021 204.242 204.688 204.775C205.371 205.308 205.988 206.092 206.538 207.125L207.288 208.525C207.571 209.058 207.954 209.533 208.438 209.95C208.938 210.35 209.546 210.55 210.263 210.55C211.096 210.55 211.754 210.233 212.238 209.6C212.738 208.967 212.988 208.033 212.988 206.8C212.988 205.733 212.804 204.767 212.438 203.9C212.071 203.033 211.604 202.283 211.038 201.65C210.471 201 209.846 200.492 209.163 200.125C208.479 199.742 207.829 199.508 207.213 199.425H197.863C197.813 199.325 197.763 199.208 197.713 199.075C197.679 198.942 197.663 198.792 197.663 198.625C197.663 198.325 197.746 198.117 197.913 198C198.079 197.883 198.296 197.825 198.563 197.825H210.888C211.688 197.825 212.304 197.658 212.738 197.325C213.188 196.975 213.413 196.492 213.413 195.875C213.413 195.425 213.271 195.067 212.988 194.8C212.721 194.517 212.371 194.375 211.938 194.375C211.571 194.375 211.246 194.483 210.963 194.7C210.679 194.917 210.538 195.25 210.538 195.7C210.538 195.85 210.554 196.008 210.588 196.175C210.538 196.208 210.454 196.25 210.338 196.3C210.221 196.35 210.071 196.375 209.888 196.375C209.571 196.375 209.313 196.283 209.113 196.1C208.929 195.917 208.838 195.625 208.838 195.225C208.838 194.475 209.121 193.883 209.688 193.45C210.271 193.017 211.004 192.8 211.888 192.8C212.338 192.8 212.763 192.875 213.163 193.025C213.563 193.158 213.904 193.358 214.188 193.625C214.488 193.892 214.721 194.225 214.888 194.625C215.071 195.008 215.163 195.45 215.163 195.95C215.163 197.1 214.779 197.967 214.013 198.55C213.246 199.133 212.238 199.425 210.988 199.425C211.521 199.742 212.021 200.15 212.488 200.65C212.971 201.15 213.388 201.725 213.738 202.375C214.104 203.025 214.388 203.725 214.588 204.475C214.804 205.225 214.913 206.008 214.913 206.825C214.913 207.792 214.771 208.65 214.488 209.4C214.771 209.833 215.113 210.133 215.513 210.3C215.913 210.45 216.321 210.525 216.738 210.525C217.438 210.525 217.996 210.308 218.413 209.875C218.829 209.425 219.038 208.683 219.038 207.65C219.038 207.2 219.021 206.75 218.988 206.3C218.954 205.85 218.938 205.383 218.938 204.9C218.938 203.633 219.121 202.525 219.488 201.575C219.871 200.625 220.379 199.833 221.013 199.2C221.646 198.567 222.379 198.1 223.213 197.8C224.063 197.483 224.963 197.325 225.913 197.325C227.063 197.325 228.088 197.525 228.988 197.925C229.888 198.308 230.646 198.842 231.263 199.525C231.896 200.208 232.379 201.025 232.713 201.975C233.046 202.925 233.213 203.958 233.213 205.075C233.213 206.275 233.071 207.325 232.788 208.225C232.521 209.108 232.138 209.85 231.638 210.45C231.138 211.033 230.546 211.475 229.863 211.775C229.179 212.058 228.429 212.2 227.613 212.2C227.013 212.2 226.446 212.108 225.913 211.925C225.379 211.725 224.904 211.45 224.488 211.1C224.071 210.75 223.738 210.317 223.488 209.8C223.254 209.283 223.138 208.7 223.138 208.05C223.138 207.417 223.238 206.858 223.438 206.375C223.654 205.875 223.938 205.467 224.288 205.15C224.638 204.817 225.029 204.567 225.463 204.4C225.913 204.233 226.363 204.15 226.813 204.15C227.413 204.15 227.829 204.267 228.063 204.5C228.313 204.717 228.438 204.958 228.438 205.225C228.438 205.492 228.363 205.717 228.213 205.9C228.029 205.85 227.863 205.817 227.713 205.8C227.579 205.783 227.429 205.775 227.263 205.775C226.596 205.775 226.054 205.992 225.638 206.425C225.221 206.858 225.013 207.417 225.013 208.1C225.013 208.85 225.254 209.442 225.738 209.875C226.221 210.308 226.838 210.525 227.588 210.525C228.704 210.525 229.604 210.067 230.288 209.15C230.971 208.233 231.313 206.875 231.313 205.075C231.313 204.142 231.196 203.3 230.963 202.55C230.729 201.783 230.379 201.133 229.913 200.6C229.463 200.067 228.896 199.658 228.213 199.375C227.546 199.075 226.779 198.925 225.913 198.925C225.163 198.925 224.471 199.058 223.838 199.325C223.204 199.592 222.654 199.983 222.188 200.5C221.738 201.017 221.379 201.658 221.113 202.425C220.863 203.175 220.738 204.042 220.738 205.025C220.738 205.508 220.754 206 220.788 206.5C220.821 206.983 220.838 207.467 220.838 207.95C220.838 209.4 220.471 210.475 219.738 211.175C219.021 211.858 218.038 212.2 216.788 212.2ZM242.163 212.2C241.163 212.2 240.255 212.033 239.438 211.7C238.622 211.35 237.922 210.867 237.338 210.25C236.755 209.617 236.305 208.867 235.988 208C235.672 207.117 235.513 206.142 235.513 205.075C235.513 203.992 235.672 203.008 235.988 202.125C236.305 201.242 236.755 200.483 237.338 199.85C237.922 199.217 238.622 198.733 239.438 198.4C240.255 198.05 241.163 197.875 242.163 197.875C243.163 197.875 244.072 198.05 244.888 198.4C245.705 198.733 246.405 199.217 246.988 199.85C247.572 200.483 248.022 201.242 248.338 202.125C248.655 203.008 248.813 203.992 248.813 205.075C248.813 206.142 248.655 207.117 248.338 208C248.022 208.867 247.572 209.617 246.988 210.25C246.405 210.867 245.705 211.35 244.888 211.7C244.072 212.033 243.163 212.2 242.163 212.2ZM242.163 210.525C242.88 210.525 243.53 210.392 244.113 210.125C244.697 209.858 245.197 209.492 245.613 209.025C246.03 208.542 246.347 207.967 246.563 207.3C246.797 206.617 246.913 205.867 246.913 205.05C246.913 204.233 246.797 203.483 246.563 202.8C246.347 202.117 246.03 201.542 245.613 201.075C245.197 200.592 244.697 200.217 244.113 199.95C243.53 199.683 242.88 199.55 242.163 199.55C241.447 199.55 240.797 199.683 240.213 199.95C239.63 200.217 239.13 200.592 238.713 201.075C238.297 201.542 237.972 202.117 237.738 202.8C237.522 203.483 237.413 204.233 237.413 205.05C237.413 205.867 237.522 206.617 237.738 207.3C237.972 207.967 238.297 208.542 238.713 209.025C239.13 209.492 239.63 209.858 240.213 210.125C240.797 210.392 241.447 210.525 242.163 210.525ZM258.331 193C259.731 193 261.064 193.308 262.331 193.925C263.614 194.542 264.739 195.442 265.706 196.625C266.673 197.792 267.439 199.217 268.006 200.9C268.573 202.583 268.856 204.483 268.856 206.6C268.856 207.55 268.731 208.383 268.481 209.1C268.231 209.8 267.889 210.383 267.456 210.85C267.023 211.3 266.506 211.642 265.906 211.875C265.323 212.092 264.681 212.2 263.981 212.2C263.131 212.2 262.389 212.042 261.756 211.725C261.123 211.392 260.623 210.933 260.256 210.35C259.923 210.933 259.448 211.392 258.831 211.725C258.214 212.042 257.456 212.2 256.556 212.2C255.906 212.2 255.281 212.092 254.681 211.875C254.081 211.642 253.548 211.3 253.081 210.85C252.614 210.383 252.239 209.8 251.956 209.1C251.689 208.383 251.556 207.542 251.556 206.575C251.556 205.375 251.731 204.292 252.081 203.325C252.448 202.342 252.939 201.475 253.556 200.725C253.223 200.408 252.931 199.992 252.681 199.475C252.431 198.942 252.306 198.333 252.306 197.65C252.306 196.983 252.448 196.367 252.731 195.8C253.014 195.233 253.414 194.742 253.931 194.325C254.464 193.908 255.098 193.583 255.831 193.35C256.581 193.117 257.414 193 258.331 193ZM258.381 194.6C257.031 194.6 255.998 194.883 255.281 195.45C254.564 196 254.206 196.717 254.206 197.6C254.206 198.333 254.423 198.958 254.856 199.475C255.606 198.892 256.414 198.442 257.281 198.125C258.148 197.808 259.031 197.65 259.931 197.65C261.348 197.65 262.573 197.908 263.606 198.425C264.656 198.925 265.556 199.575 266.306 200.375C265.956 199.708 265.523 199.033 265.006 198.35C264.506 197.65 263.923 197.025 263.256 196.475C262.606 195.925 261.873 195.475 261.056 195.125C260.239 194.775 259.348 194.6 258.381 194.6ZM263.881 210.55C264.781 210.55 265.514 210.233 266.081 209.6C266.648 208.95 266.931 207.883 266.931 206.4C266.931 205.483 266.789 204.6 266.506 203.75C266.239 202.883 265.823 202.125 265.256 201.475C264.689 200.825 263.973 200.308 263.106 199.925C262.256 199.525 261.248 199.325 260.081 199.325C259.148 199.325 258.273 199.508 257.456 199.875C256.656 200.225 255.956 200.717 255.356 201.35C254.773 201.983 254.314 202.733 253.981 203.6C253.648 204.45 253.481 205.367 253.481 206.35C253.481 207.083 253.564 207.717 253.731 208.25C253.914 208.767 254.156 209.2 254.456 209.55C254.756 209.883 255.098 210.133 255.481 210.3C255.881 210.467 256.298 210.55 256.731 210.55C257.514 210.55 258.139 210.333 258.606 209.9C259.073 209.45 259.306 208.708 259.306 207.675V206.75C259.573 206.567 259.873 206.475 260.206 206.475C260.539 206.475 260.839 206.567 261.106 206.75V207.675C261.106 208.575 261.348 209.283 261.831 209.8C262.331 210.3 263.014 210.55 263.881 210.55ZM282.101 197.825C282.901 197.825 283.517 197.658 283.951 197.325C284.401 196.975 284.626 196.492 284.626 195.875C284.626 195.425 284.484 195.067 284.201 194.8C283.934 194.517 283.584 194.375 283.151 194.375C282.784 194.375 282.459 194.483 282.176 194.7C281.892 194.917 281.751 195.25 281.751 195.7C281.751 195.85 281.767 196.008 281.801 196.175C281.751 196.208 281.667 196.25 281.551 196.3C281.434 196.35 281.284 196.375 281.101 196.375C280.784 196.375 280.526 196.283 280.326 196.1C280.142 195.917 280.051 195.625 280.051 195.225C280.051 194.475 280.334 193.883 280.901 193.45C281.484 193.017 282.217 192.8 283.101 192.8C283.551 192.8 283.976 192.875 284.376 193.025C284.776 193.158 285.117 193.358 285.401 193.625C285.701 193.892 285.934 194.225 286.101 194.625C286.284 195.008 286.376 195.45 286.376 195.95C286.376 197.1 285.984 197.967 285.201 198.55C284.434 199.133 283.426 199.425 282.176 199.425H282.076C282.492 199.742 282.892 200.15 283.276 200.65C283.659 201.15 283.992 201.783 284.276 202.55C284.559 203.317 284.784 204.242 284.951 205.325C285.134 206.408 285.226 207.683 285.226 209.15V212.075C284.992 212.192 284.709 212.25 284.376 212.25C283.742 212.25 283.426 211.933 283.426 211.3V208.7C283.426 207.283 283.326 206 283.126 204.85C282.942 203.7 282.651 202.725 282.251 201.925C281.851 201.125 281.342 200.508 280.726 200.075C280.126 199.642 279.409 199.425 278.576 199.425C277.742 199.425 277.017 199.658 276.401 200.125C275.801 200.592 275.301 201.242 274.901 202.075C274.501 202.892 274.201 203.875 274.001 205.025C273.801 206.158 273.701 207.4 273.701 208.75V212.075C273.467 212.192 273.184 212.25 272.851 212.25C272.217 212.25 271.901 211.933 271.901 211.3V209.175C271.901 207.658 271.984 206.358 272.151 205.275C272.317 204.192 272.542 203.267 272.826 202.5C273.126 201.733 273.459 201.108 273.826 200.625C274.209 200.142 274.609 199.742 275.026 199.425H271.526C271.476 199.325 271.426 199.208 271.376 199.075C271.342 198.942 271.326 198.792 271.326 198.625C271.326 198.325 271.409 198.117 271.576 198C271.742 197.883 271.959 197.825 272.226 197.825H282.101ZM308.236 210.55C308.786 210.55 309.286 210.3 309.736 209.8C310.186 209.3 310.411 208.575 310.411 207.625C310.411 206.458 310.177 205.508 309.711 204.775C309.261 204.042 308.686 203.433 307.986 202.95C308.036 202.65 308.136 202.4 308.286 202.2C308.452 201.983 308.719 201.875 309.086 201.875C309.319 201.875 309.594 201.983 309.911 202.2C310.227 202.417 310.536 202.725 310.836 203.125C311.219 203.625 311.552 204.258 311.836 205.025C312.136 205.775 312.286 206.633 312.286 207.6C312.286 208.317 312.186 208.958 311.986 209.525C311.786 210.092 311.502 210.575 311.136 210.975C310.786 211.375 310.369 211.683 309.886 211.9C309.419 212.1 308.911 212.2 308.361 212.2C307.361 212.2 306.494 211.95 305.761 211.45C305.044 210.933 304.344 210.208 303.661 209.275C303.294 208.775 302.961 208.35 302.661 208C302.377 207.65 302.094 207.375 301.811 207.175C301.527 206.958 301.244 206.8 300.961 206.7C300.677 206.6 300.361 206.55 300.011 206.55C299.277 206.55 298.702 206.817 298.286 207.35C297.886 207.867 297.686 208.483 297.686 209.2C297.686 209.75 297.744 210.217 297.861 210.6C297.994 210.983 298.177 211.342 298.411 211.675C298.361 211.808 298.261 211.925 298.111 212.025C297.961 212.142 297.752 212.2 297.486 212.2C297.286 212.2 297.086 212.133 296.886 212C296.702 211.867 296.527 211.675 296.361 211.425C296.194 211.158 296.061 210.833 295.961 210.45C295.861 210.05 295.811 209.592 295.811 209.075C295.811 208.392 295.919 207.792 296.136 207.275C296.352 206.758 296.644 206.325 297.011 205.975C297.394 205.625 297.836 205.358 298.336 205.175C298.852 204.992 299.402 204.9 299.986 204.9C301.036 204.9 301.936 205.158 302.686 205.675C303.452 206.192 304.144 206.875 304.761 207.725C305.427 208.675 306.011 209.383 306.511 209.85C307.011 210.317 307.586 210.55 308.236 210.55ZM303.286 203.725C302.852 203.725 302.494 203.592 302.211 203.325C301.944 203.042 301.811 202.692 301.811 202.275C301.811 201.858 301.944 201.517 302.211 201.25C302.494 200.967 302.852 200.825 303.286 200.825C303.719 200.825 304.069 200.967 304.336 201.25C304.619 201.517 304.761 201.858 304.761 202.275C304.761 202.692 304.619 203.042 304.336 203.325C304.069 203.592 303.719 203.725 303.286 203.725ZM295.986 199.425C295.936 199.325 295.886 199.208 295.836 199.075C295.802 198.942 295.786 198.792 295.786 198.625C295.786 198.325 295.869 198.117 296.036 198C296.202 197.883 296.419 197.825 296.686 197.825H308.236C308.902 197.825 309.394 197.658 309.711 197.325C310.027 196.992 310.186 196.55 310.186 196C310.186 195.333 310.002 194.733 309.636 194.2C309.719 194.033 309.836 193.9 309.986 193.8C310.152 193.683 310.352 193.625 310.586 193.625C311.019 193.625 311.361 193.875 311.611 194.375C311.861 194.875 311.986 195.458 311.986 196.125C311.986 197.242 311.669 198.075 311.036 198.625C310.419 199.158 309.586 199.425 308.536 199.425H295.986ZM321.314 212.2C320.314 212.2 319.405 212.033 318.589 211.7C317.772 211.35 317.072 210.867 316.489 210.25C315.905 209.617 315.455 208.867 315.139 208C314.822 207.117 314.664 206.142 314.664 205.075C314.664 203.992 314.822 203.008 315.139 202.125C315.455 201.242 315.905 200.483 316.489 199.85C317.072 199.217 317.772 198.733 318.589 198.4C319.405 198.05 320.314 197.875 321.314 197.875C322.314 197.875 323.222 198.05 324.039 198.4C324.855 198.733 325.555 199.217 326.139 199.85C326.722 200.483 327.172 201.242 327.489 202.125C327.805 203.008 327.964 203.992 327.964 205.075C327.964 206.142 327.805 207.117 327.489 208C327.172 208.867 326.722 209.617 326.139 210.25C325.555 210.867 324.855 211.35 324.039 211.7C323.222 212.033 322.314 212.2 321.314 212.2ZM321.314 210.525C322.03 210.525 322.68 210.392 323.264 210.125C323.847 209.858 324.347 209.492 324.764 209.025C325.18 208.542 325.497 207.967 325.714 207.3C325.947 206.617 326.064 205.867 326.064 205.05C326.064 204.233 325.947 203.483 325.714 202.8C325.497 202.117 325.18 201.542 324.764 201.075C324.347 200.592 323.847 200.217 323.264 199.95C322.68 199.683 322.03 199.55 321.314 199.55C320.597 199.55 319.947 199.683 319.364 199.95C318.78 200.217 318.28 200.592 317.864 201.075C317.447 201.542 317.122 202.117 316.889 202.8C316.672 203.483 316.564 204.233 316.564 205.05C316.564 205.867 316.672 206.617 316.889 207.3C317.122 207.967 317.447 208.542 317.864 209.025C318.28 209.492 318.78 209.858 319.364 210.125C319.947 210.392 320.597 210.525 321.314 210.525ZM343.632 212.2C342.632 212.2 341.79 212.025 341.107 211.675C340.423 211.325 339.907 210.833 339.557 210.2C339.207 210.833 338.69 211.325 338.007 211.675C337.323 212.025 336.49 212.2 335.507 212.2C334.89 212.2 334.298 212.117 333.732 211.95C333.165 211.783 332.665 211.533 332.232 211.2C331.815 210.85 331.473 210.417 331.207 209.9C330.957 209.383 330.832 208.783 330.832 208.1C330.832 207.15 331.082 206.35 331.582 205.7C332.082 205.05 332.757 204.5 333.607 204.05L334.882 203.375C335.648 202.975 336.223 202.583 336.607 202.2C337.007 201.8 337.207 201.325 337.207 200.775C337.207 200.175 336.99 199.708 336.557 199.375C336.123 199.025 335.573 198.85 334.907 198.85C334.173 198.85 333.59 199.042 333.157 199.425C332.74 199.808 332.532 200.317 332.532 200.95C332.532 201.267 332.573 201.542 332.657 201.775C332.74 202.008 332.848 202.225 332.982 202.425C332.898 202.558 332.782 202.675 332.632 202.775C332.482 202.858 332.298 202.9 332.082 202.9C331.698 202.9 331.373 202.725 331.107 202.375C330.84 202.025 330.707 201.542 330.707 200.925C330.707 200.358 330.815 199.858 331.032 199.425C331.265 198.975 331.573 198.6 331.957 198.3C332.34 197.983 332.79 197.742 333.307 197.575C333.823 197.408 334.373 197.325 334.957 197.325C335.507 197.325 336.032 197.408 336.532 197.575C337.032 197.725 337.465 197.95 337.832 198.25C338.215 198.55 338.515 198.917 338.732 199.35C338.965 199.783 339.082 200.283 339.082 200.85C339.082 201.65 338.84 202.342 338.357 202.925C337.873 203.508 337.182 204.033 336.282 204.5L334.882 205.225C334.265 205.542 333.748 205.942 333.332 206.425C332.932 206.908 332.732 207.467 332.732 208.1C332.732 208.9 333.015 209.508 333.582 209.925C334.148 210.342 334.857 210.55 335.707 210.55C336.54 210.55 337.24 210.342 337.807 209.925C338.39 209.492 338.682 208.867 338.682 208.05V206.8C338.948 206.617 339.248 206.525 339.582 206.525C339.915 206.525 340.215 206.617 340.482 206.8V208.05C340.482 208.85 340.757 209.467 341.307 209.9C341.857 210.317 342.59 210.525 343.507 210.525C344.007 210.525 344.465 210.442 344.882 210.275C345.298 210.092 345.648 209.808 345.932 209.425C346.232 209.025 346.465 208.517 346.632 207.9C346.798 207.267 346.882 206.508 346.882 205.625C346.882 204.575 346.748 203.65 346.482 202.85C346.215 202.05 345.865 201.367 345.432 200.8C344.998 200.217 344.507 199.75 343.957 199.4C343.423 199.033 342.89 198.767 342.357 198.6C342.357 198.233 342.432 197.933 342.582 197.7C342.732 197.45 343.015 197.325 343.432 197.325C343.848 197.325 344.357 197.492 344.957 197.825C345.573 198.158 346.165 198.667 346.732 199.35C347.298 200.033 347.782 200.9 348.182 201.95C348.582 203 348.782 204.242 348.782 205.675C348.782 206.808 348.648 207.792 348.382 208.625C348.132 209.442 347.782 210.117 347.332 210.65C346.882 211.183 346.34 211.575 345.707 211.825C345.073 212.075 344.382 212.2 343.632 212.2ZM358.081 212.2C357.081 212.2 356.173 212.033 355.356 211.7C354.539 211.35 353.839 210.867 353.256 210.25C352.673 209.617 352.223 208.867 351.906 208C351.589 207.117 351.431 206.142 351.431 205.075C351.431 203.992 351.589 203.008 351.906 202.125C352.223 201.242 352.673 200.483 353.256 199.85C353.839 199.217 354.539 198.733 355.356 198.4C356.173 198.05 357.081 197.875 358.081 197.875C359.081 197.875 359.989 198.05 360.806 198.4C361.623 198.733 362.323 199.217 362.906 199.85C363.489 200.483 363.939 201.242 364.256 202.125C364.573 203.008 364.731 203.992 364.731 205.075C364.731 206.142 364.573 207.117 364.256 208C363.939 208.867 363.489 209.617 362.906 210.25C362.323 210.867 361.623 211.35 360.806 211.7C359.989 212.033 359.081 212.2 358.081 212.2ZM358.081 210.525C358.798 210.525 359.448 210.392 360.031 210.125C360.614 209.858 361.114 209.492 361.531 209.025C361.948 208.542 362.264 207.967 362.481 207.3C362.714 206.617 362.831 205.867 362.831 205.05C362.831 204.233 362.714 203.483 362.481 202.8C362.264 202.117 361.948 201.542 361.531 201.075C361.114 200.592 360.614 200.217 360.031 199.95C359.448 199.683 358.798 199.55 358.081 199.55C357.364 199.55 356.714 199.683 356.131 199.95C355.548 200.217 355.048 200.592 354.631 201.075C354.214 201.542 353.889 202.117 353.656 202.8C353.439 203.483 353.331 204.233 353.331 205.05C353.331 205.867 353.439 206.617 353.656 207.3C353.889 207.967 354.214 208.542 354.631 209.025C355.048 209.492 355.548 209.858 356.131 210.125C356.714 210.392 357.364 210.525 358.081 210.525ZM379.899 212.2C379.049 212.2 378.307 212.042 377.674 211.725C377.041 211.392 376.532 210.933 376.149 210.35C375.816 210.933 375.341 211.392 374.724 211.725C374.124 212.042 373.374 212.2 372.474 212.2C371.824 212.2 371.199 212.092 370.599 211.875C369.999 211.642 369.466 211.3 368.999 210.85C368.532 210.383 368.157 209.8 367.874 209.1C367.607 208.383 367.474 207.542 367.474 206.575C367.474 205.758 367.574 204.983 367.774 204.25C367.991 203.5 368.282 202.817 368.649 202.2C369.032 201.567 369.474 201.017 369.974 200.55C370.491 200.083 371.041 199.708 371.624 199.425H367.674C367.624 199.325 367.574 199.208 367.524 199.075C367.491 198.942 367.474 198.792 367.474 198.625C367.474 198.325 367.557 198.117 367.724 198C367.891 197.883 368.107 197.825 368.374 197.825H381.024C381.691 197.825 382.182 197.658 382.499 197.325C382.816 196.992 382.974 196.55 382.974 196C382.974 195.333 382.791 194.733 382.424 194.2C382.507 194.033 382.624 193.9 382.774 193.8C382.941 193.683 383.141 193.625 383.374 193.625C383.807 193.625 384.149 193.875 384.399 194.375C384.649 194.875 384.774 195.458 384.774 196.125C384.774 197.242 384.457 198.075 383.824 198.625C383.207 199.158 382.374 199.425 381.324 199.425H380.599C381.199 199.708 381.749 200.092 382.249 200.575C382.766 201.042 383.207 201.592 383.574 202.225C383.957 202.858 384.249 203.55 384.449 204.3C384.666 205.033 384.774 205.8 384.774 206.6C384.774 207.55 384.649 208.383 384.399 209.1C384.149 209.8 383.807 210.383 383.374 210.85C382.941 211.3 382.424 211.642 381.824 211.875C381.241 212.092 380.599 212.2 379.899 212.2ZM372.649 210.55C373.399 210.55 374.016 210.342 374.499 209.925C374.982 209.508 375.224 208.808 375.224 207.825V206.75C375.491 206.567 375.791 206.475 376.124 206.475C376.457 206.475 376.757 206.567 377.024 206.75V207.675C377.024 208.575 377.266 209.283 377.749 209.8C378.249 210.3 378.932 210.55 379.799 210.55C380.699 210.55 381.432 210.233 381.999 209.6C382.566 208.95 382.849 207.883 382.849 206.4C382.849 205.55 382.707 204.733 382.424 203.95C382.141 203.167 381.749 202.467 381.249 201.85C380.749 201.217 380.149 200.692 379.449 200.275C378.766 199.858 378.007 199.575 377.174 199.425H375.074C374.241 199.575 373.474 199.858 372.774 200.275C372.091 200.692 371.499 201.208 370.999 201.825C370.499 202.442 370.107 203.142 369.824 203.925C369.541 204.692 369.399 205.5 369.399 206.35C369.399 207.083 369.482 207.717 369.649 208.25C369.832 208.767 370.074 209.2 370.374 209.55C370.674 209.883 371.016 210.133 371.399 210.3C371.799 210.467 372.216 210.55 372.649 210.55ZM376.174 216.2C375.824 216.2 375.524 216.083 375.274 215.85C375.024 215.633 374.899 215.267 374.899 214.75C374.899 214.317 374.982 213.892 375.149 213.475C375.332 213.075 375.516 212.75 375.699 212.5C375.866 212.283 376.024 212.175 376.174 212.175C376.324 212.175 376.482 212.283 376.649 212.5C376.832 212.75 377.007 213.075 377.174 213.475C377.357 213.892 377.449 214.317 377.449 214.75C377.449 215.267 377.324 215.633 377.074 215.85C376.824 216.083 376.524 216.2 376.174 216.2Z" fill="#ABABAB"/>
</svg>
