<svg width="461" height="240" viewBox="0 0 461 240" fill="none" xmlns="http://www.w3.org/2000/svg">
<path d="M119.582 126C122.629 126 125.5 125.355 128.078 124.066C130.656 122.777 132.883 120.961 134.758 118.617C136.574 116.273 137.98 113.52 139.035 110.355C140.09 107.191 140.617 103.676 140.617 99.9258C140.617 97.1719 140.266 94.418 139.562 91.6055C138.859 88.793 137.805 86.1562 136.516 83.5781C135.227 81 133.645 78.5977 131.828 76.3711C130.012 74.1445 128.02 72.2109 125.793 70.4531H128.02V60.4336H67.4922V70.4531H81.4375C90.2266 70.4531 97.7266 71.0391 103.938 72.1523C110.148 73.3242 115.188 75.082 119.113 77.4844C123.039 79.8867 125.91 82.9336 127.727 86.625C129.543 90.3164 130.48 94.7109 130.48 99.75C130.48 101.742 130.188 103.617 129.66 105.375C129.133 107.133 128.43 108.656 127.492 109.945C126.555 111.234 125.383 112.289 124.094 112.992C122.746 113.754 121.281 114.105 119.758 114.105C118.117 114.105 116.652 113.812 115.363 113.168C114.074 112.582 112.961 111.703 112.023 110.59C111.086 109.477 110.383 108.188 109.914 106.664C109.387 105.141 109.152 103.5 109.152 101.684H99.0156C99.0156 103.559 98.7227 105.199 98.1953 106.723C97.668 108.246 96.9648 109.535 96.0273 110.648C95.0898 111.762 93.918 112.641 92.6289 113.227C91.2812 113.812 89.8164 114.105 88.1758 114.105C86.6523 114.105 85.3047 113.812 84.0156 113.168C82.7266 112.582 81.6133 111.703 80.6758 110.648C79.7383 109.594 78.9766 108.422 78.4492 107.074C77.8633 105.727 77.6289 104.32 77.6289 102.855C77.6289 101.684 77.8047 100.453 78.2734 99.2812C78.6836 98.1094 79.2695 96.9961 80.0312 96.0586C80.793 95.1211 81.6719 94.3594 82.7266 93.7734C83.7812 93.1875 84.8945 92.8945 86.1836 92.8945C86.9453 92.8945 87.9414 93.1289 89.2305 93.4805C90.4609 93.8906 91.75 94.6523 93.0977 95.7656L98.957 88.0898C95.207 84.5156 90.9297 82.6992 86.0664 82.6992C83.4297 82.6992 80.9688 83.2852 78.7422 84.3984C76.457 85.5117 74.4648 87.0352 72.8242 88.9102C71.1836 90.7852 69.8359 93.0117 68.8984 95.5898C67.9609 98.168 67.4922 100.863 67.4922 103.676C67.4922 106.781 68.0195 109.711 69.1328 112.406C70.1875 115.102 71.7109 117.504 73.5859 119.496C75.4609 121.488 77.7461 123.07 80.3242 124.242C82.9023 125.414 85.6562 126 88.5859 126C94.7969 126 99.9531 123.656 104.055 118.969C108.039 123.656 113.254 126 119.582 126ZM174.484 126C178 126 181.223 125.238 184.152 123.656C187.082 122.133 189.602 119.965 191.711 117.27C193.82 114.574 195.52 111.469 196.691 107.836C197.863 104.262 198.508 100.395 198.508 96.293C198.508 91.2539 197.688 86.5078 196.047 82.1133C194.406 77.7188 192.121 73.9102 189.25 70.6875C186.32 67.5234 182.863 65.0039 178.879 63.1289C174.836 61.3125 170.441 60.375 165.754 60.375H122.57V70.5117H165.754C169.035 70.5117 172.023 71.1562 174.777 72.4453C177.531 73.7344 179.934 75.4336 181.926 77.6602C183.918 79.8867 185.5 82.5234 186.672 85.5117C187.785 88.5586 188.371 91.7812 188.371 95.2969C188.371 97.875 188.02 100.336 187.375 102.621C186.672 104.906 185.734 106.898 184.504 108.598C183.273 110.297 181.809 111.645 180.109 112.641C178.41 113.637 176.535 114.105 174.484 114.105C173.312 114.105 172.199 113.93 171.027 113.461C169.855 113.051 168.859 112.465 167.922 111.762C166.984 111.059 166.164 110.18 165.578 109.184C164.992 108.246 164.699 107.191 164.699 106.02L164.934 103.793C166.633 107.074 169.328 108.656 172.961 108.656C174.133 108.656 175.246 108.422 176.359 107.953C177.414 107.484 178.41 106.781 179.23 105.961C180.051 105.141 180.695 104.145 181.223 103.09C181.691 102.035 181.984 100.863 181.984 99.6914C181.984 98.0508 181.633 96.5859 181.047 95.1797C180.461 93.832 179.582 92.6602 178.527 91.6641C177.473 90.7266 176.184 89.9648 174.719 89.4375C173.254 88.9102 171.672 88.6172 170.031 88.6172C167.922 88.6172 165.988 89.1445 164.113 90.082C162.238 91.0195 160.539 92.3086 159.133 93.8906C157.727 95.5312 156.555 97.3477 155.734 99.457C154.914 101.566 154.504 103.793 154.504 106.02C154.504 108.832 155.031 111.469 156.145 113.871C157.199 116.332 158.664 118.441 160.539 120.199C162.414 122.016 164.523 123.422 166.926 124.477C169.328 125.531 171.848 126 174.484 126ZM222.297 120.434L229.738 115.629C226.105 110.238 221.77 107.543 216.613 107.543C214.738 107.543 212.98 107.953 211.457 108.656C209.934 109.418 208.586 110.473 207.531 111.762C206.418 113.109 205.539 114.691 204.953 116.508C204.367 118.324 204.074 120.258 204.074 122.367C204.074 124.242 204.367 126.117 205.012 127.934C205.598 129.75 206.418 131.566 207.355 133.324C208.293 135.141 209.289 136.957 210.402 138.715C211.457 140.473 212.512 142.23 213.449 143.988C214.387 145.746 215.148 147.562 215.793 149.32C216.379 151.078 216.73 152.836 216.73 154.594C216.73 163.793 212.863 168.363 205.188 168.363C196.574 168.363 192.297 165.785 192.297 160.512C192.297 159.105 193.469 157.582 195.812 155.941C196.691 155.355 197.746 154.652 198.918 153.891C200.09 153.188 201.145 152.367 202.199 151.43C203.254 150.551 204.133 149.555 204.836 148.441C205.539 147.328 205.949 146.098 205.949 144.691C205.949 142.934 205.598 141.234 205.012 139.652C204.426 138.129 203.605 136.723 202.551 135.551C201.496 134.379 200.207 133.5 198.801 132.797C197.395 132.094 195.871 131.742 194.23 131.742C192.531 131.742 190.949 132.094 189.484 132.68C188.02 133.266 186.73 134.145 185.676 135.199C184.621 136.254 183.742 137.543 183.156 138.949C182.512 140.414 182.219 141.996 182.219 143.637C182.219 144.984 182.512 146.859 183.215 149.262L191.359 146.508C191.008 145.102 190.832 144.047 190.832 143.344C190.832 141.469 191.945 140.473 194.23 140.473C196.398 140.473 197.512 141.879 197.512 144.574C197.512 145.277 197.16 145.98 196.457 146.625C195.754 147.27 194.934 147.914 193.938 148.617C192.941 149.32 191.828 150.082 190.656 150.902C189.484 151.723 188.371 152.66 187.375 153.656C186.379 154.711 185.559 155.824 184.855 157.055C184.152 158.285 183.859 159.691 183.859 161.215C183.859 163.676 184.328 165.902 185.383 167.895C186.438 169.887 187.844 171.586 189.719 172.992C191.594 174.398 193.82 175.453 196.398 176.156C198.977 176.918 201.789 177.27 204.953 177.27C208.117 177.27 210.93 176.801 213.449 175.746C215.969 174.75 218.137 173.285 219.895 171.352C221.652 169.477 222.941 167.133 223.879 164.379C224.816 161.684 225.285 158.578 225.285 155.062C225.285 152.895 224.934 150.727 224.348 148.617C223.703 146.508 222.941 144.398 222.004 142.348C221.066 140.355 220.012 138.363 218.957 136.488C217.902 134.613 216.906 132.855 215.969 131.215C215.031 129.574 214.211 127.992 213.625 126.586C212.98 125.18 212.688 123.949 212.688 122.777C212.688 118.441 214.094 116.215 216.906 116.215C219.074 116.215 220.891 117.621 222.297 120.434ZM294.66 70.5703C296.887 70.5703 298.938 70.1602 300.871 69.2227C302.746 68.2852 304.445 67.0547 305.852 65.4727C307.258 63.9492 308.312 62.0742 309.133 59.9648C309.953 57.8555 310.363 55.6289 310.363 53.2852C310.363 51.0586 309.953 49.0078 309.133 47.0156C308.312 45.0234 307.258 43.2656 305.852 41.7422C304.445 40.2188 302.805 38.9297 300.93 37.9336C299.055 36.9375 297.004 36.293 294.836 36.0586L294.016 46.2539C295.773 46.4883 297.297 47.3086 298.469 48.5977C299.641 49.9453 300.227 51.5273 300.227 53.2852C300.227 54.2227 300.051 55.1016 299.758 55.9219C299.465 56.8008 299.055 57.5625 298.586 58.207C298.059 58.9102 297.473 59.4375 296.77 59.7891C296.066 60.1992 295.363 60.375 294.66 60.375H236.945V70.5703H294.66ZM275.793 90.9023C276.73 90.9023 277.551 90.7266 278.371 90.375C279.191 90.0234 279.895 89.5547 280.48 88.9102C281.066 88.3242 281.535 87.6211 281.887 86.8008C282.238 85.9805 282.414 85.1016 282.414 84.1641C282.414 83.2852 282.238 82.4062 281.887 81.5859C281.535 80.7656 281.008 80.0625 280.422 79.4766C279.836 78.8906 279.133 78.3633 278.312 78.0117C277.492 77.6602 276.672 77.4844 275.793 77.4844C274.855 77.4844 273.977 77.6602 273.156 78.0117C272.336 78.3633 271.633 78.8906 271.047 79.4766C270.461 80.0625 269.992 80.7656 269.641 81.5859C269.289 82.4062 269.113 83.2852 269.113 84.1641C269.113 85.1016 269.289 85.9805 269.641 86.8008C269.992 87.6211 270.461 88.3828 271.047 88.9688C271.633 89.5547 272.336 90.0234 273.156 90.375C273.977 90.7266 274.855 90.9023 275.793 90.9023ZM289.211 126C292.141 126 294.895 125.355 297.473 124.066C299.992 122.777 302.219 121.02 304.094 118.793C305.969 116.566 307.434 113.988 308.488 111.059C309.543 108.129 310.07 104.965 310.07 101.566C310.07 98.5195 309.719 95.7656 309.133 93.1875C308.488 90.668 307.434 88.2656 306.027 85.9219C304.621 83.5781 302.746 81.293 300.461 79.0664C298.176 76.8398 295.363 74.4961 292.082 72.0352L287.395 81.4688C291.613 84.1641 294.777 87.0938 296.828 90.1992C298.879 93.3633 299.934 96.9375 299.934 100.922C299.934 102.68 299.641 104.379 299.113 105.961C298.527 107.543 297.766 108.949 296.828 110.121C295.891 111.293 294.719 112.23 293.43 112.934C292.141 113.637 290.734 113.988 289.211 113.988C287.57 113.988 286.164 113.695 284.875 113.051C283.586 112.465 282.473 111.586 281.535 110.473C280.598 109.359 279.895 108.012 279.426 106.488C278.898 104.965 278.664 103.324 278.664 101.449H268.527C268.527 103.324 268.234 104.965 267.707 106.488C267.18 108.012 266.418 109.359 265.48 110.473C264.543 111.586 263.371 112.465 262.082 113.051C260.734 113.695 259.27 113.988 257.629 113.988C256.105 113.988 254.758 113.695 253.469 113.051C252.18 112.465 251.066 111.586 250.129 110.531C249.191 109.477 248.43 108.305 247.902 106.898C247.316 105.551 247.082 104.145 247.082 102.621C247.082 101.391 247.258 100.16 247.727 98.9297C248.137 97.7578 248.723 96.6445 249.484 95.707C250.246 94.7695 251.125 94.0078 252.18 93.4219C253.234 92.8359 254.348 92.543 255.637 92.543C257.16 92.543 259.27 93.7148 261.965 96.0586L268.41 87.7383C264.66 84.1055 260.383 82.2891 255.52 82.2891C252.824 82.2891 250.305 82.875 248.078 83.9883C245.793 85.1602 243.859 86.6836 242.219 88.6172C240.578 90.5508 239.289 92.7773 238.352 95.3555C237.414 97.9336 236.945 100.629 236.945 103.441C236.945 106.547 237.473 109.477 238.586 112.172C239.641 114.926 241.164 117.328 243.039 119.379C244.914 121.43 247.141 123.07 249.719 124.242C252.297 125.414 255.051 126 258.039 126C264.25 126 269.406 123.656 273.508 118.852C277.551 123.656 282.766 126 289.211 126ZM381.32 70.2773C383.078 69.9258 384.777 69.2227 386.301 68.168C387.824 67.1133 389.172 65.7656 390.285 64.2422C391.34 62.7188 392.219 60.9609 392.863 59.0859C393.449 57.2109 393.801 55.2773 393.801 53.2852C393.801 51.1758 393.391 49.0664 392.57 47.0742C391.75 45.082 390.695 43.3242 389.289 41.7422C387.883 40.2188 386.184 38.9297 384.309 37.875C382.434 36.8789 380.383 36.293 378.273 36.0586L377.453 46.2539C378.273 46.3711 379.094 46.6641 379.855 47.0742C380.617 47.4844 381.262 48.0117 381.848 48.5977C382.434 49.2422 382.844 49.9453 383.195 50.7656C383.488 51.5859 383.664 52.4062 383.664 53.2852C383.664 55.3359 383.137 57.0352 382.082 58.3828C381.027 59.7305 379.738 60.375 378.098 60.375H320.383V70.5703C320.969 70.5703 321.848 70.5703 323.02 70.5117C324.191 70.5117 325.598 70.4531 327.121 70.3945C328.645 70.3945 330.227 70.3359 331.926 70.2188C333.566 70.1602 335.207 70.1016 336.789 70.043C338.312 70.043 339.777 69.9844 341.125 69.9258C342.414 69.9258 343.469 69.8672 344.289 69.8672C351.203 69.8672 357.18 70.4531 362.102 71.5078C367.023 72.6211 371.066 74.3203 374.23 76.6641C377.395 79.0078 379.68 82.0547 381.145 85.7461C382.609 89.4375 383.371 93.8906 383.371 99.0469C383.371 109.008 379.562 113.988 372.062 113.988C370.305 113.988 368.84 113.637 367.551 112.816C366.262 111.996 365.09 110.941 364.035 109.652C362.98 108.363 361.984 106.898 361.047 105.258C360.109 103.617 359.172 101.918 358.176 100.16C357.18 98.4023 356.125 96.7031 354.953 95.0625C353.781 93.4219 352.492 91.8984 350.969 90.6094C349.445 89.3203 347.629 88.3242 345.637 87.5039C343.645 86.6836 341.301 86.2734 338.605 86.2734C335.969 86.2734 333.508 86.8594 331.281 87.9141C329.055 88.9688 327.121 90.4922 325.48 92.3672C323.84 94.2422 322.551 96.4688 321.613 99.0469C320.676 101.625 320.207 104.32 320.207 107.25C320.207 115.219 323.137 122.016 328.996 127.523L337.668 121.605C332.746 115.453 330.344 110.473 330.344 106.605C330.344 105.316 330.52 104.027 330.988 102.797C331.398 101.625 331.984 100.512 332.746 99.5742C333.508 98.6367 334.387 97.9336 335.441 97.3477C336.438 96.7617 337.551 96.4688 338.723 96.4688C340.832 96.4688 342.648 97.2305 344.23 98.6953C345.812 100.16 347.277 101.977 348.684 104.145C350.09 106.371 351.496 108.715 352.902 111.293C354.309 113.871 355.891 116.215 357.648 118.383C359.406 120.609 361.398 122.426 363.742 123.891C366.086 125.355 368.84 126.059 372.062 126.059C375.227 126.059 378.156 125.414 380.793 124.008C383.43 122.66 385.715 120.785 387.59 118.324C389.465 115.922 390.871 113.051 391.926 109.77C392.98 106.488 393.508 102.914 393.508 99.0469C393.508 92.9531 392.453 87.6211 390.461 82.9336C388.469 78.2461 385.422 74.0273 381.32 70.2773Z" fill="white" fill-opacity="0.2"/>
<path d="M104.878 196.558C104.878 195.704 104.609 194.959 104.097 194.3C103.547 193.616 102.864 193.238 102.034 193.152L101.899 194.812C102.29 194.849 102.62 195.057 102.876 195.423C103.096 195.765 103.218 196.143 103.218 196.558C103.218 197.046 103.096 197.461 102.864 197.779C102.595 198.145 102.217 198.328 101.753 198.328H89.5825V199.988H97.9443C99.3604 199.988 100.605 200.733 101.68 202.222C102.656 203.589 103.157 205.018 103.157 206.482C103.157 207.496 102.9 208.313 102.412 208.936C101.875 209.62 101.106 209.949 100.129 209.949C99.2627 209.949 98.4326 209.449 97.6514 208.448C96.9922 207.52 96.3452 206.58 95.7104 205.64C94.917 204.639 94.0869 204.139 93.2324 204.139C92.085 204.139 91.1938 204.456 90.5469 205.091C89.8999 205.726 89.5825 206.604 89.5825 207.74C89.5825 209.522 90.2783 210.938 91.6821 212L92.4512 209.949C91.9385 209.51 91.6211 209.18 91.499 208.96C91.3281 208.667 91.2427 208.216 91.2427 207.605C91.2427 207.056 91.4014 206.617 91.7432 206.287C92.085 205.97 92.5366 205.799 93.0981 205.799C93.6841 205.799 94.3433 206.336 95.0513 207.41C96.2842 209.278 96.9556 210.267 97.0654 210.389C97.9688 211.463 98.9819 212 100.081 212C101.594 212 102.791 211.451 103.645 210.34C104.426 209.339 104.817 208.057 104.817 206.482C104.817 203.724 103.816 201.563 101.814 199.988C102.717 199.988 103.462 199.646 104.048 198.938C104.597 198.279 104.878 197.486 104.878 196.558ZM129.817 206.25C129.817 203.125 128.535 200.367 125.984 197.962L124.775 199.17C127.021 201.27 128.157 203.65 128.157 206.299C128.157 207.3 127.9 208.143 127.4 208.826C126.838 209.583 126.069 209.949 125.105 209.949C124.324 209.949 123.652 209.717 123.091 209.229C122.48 208.729 122.175 208.143 122.175 207.459C122.175 207.312 122.175 207.19 122.188 207.093C122.188 206.995 122.2 206.836 122.2 206.617C122.2 205.347 121.846 204.09 121.162 202.869C120.479 201.648 119.551 200.684 118.391 199.988H119.392C120.283 199.988 121.028 199.634 121.614 198.926C122.175 198.267 122.456 197.474 122.456 196.558C122.456 195.704 122.188 194.959 121.675 194.3C121.125 193.616 120.442 193.238 119.612 193.152L119.478 194.812C119.868 194.837 120.198 195.044 120.454 195.423C120.674 195.765 120.796 196.143 120.796 196.558C120.796 197.01 120.662 197.413 120.405 197.754C120.125 198.145 119.771 198.328 119.331 198.328H106.965V199.988H112.605C114.729 199.988 116.548 200.55 118.049 201.648C119.709 202.881 120.54 204.529 120.54 206.58C120.54 207.483 120.332 208.252 119.941 208.863C119.478 209.595 118.818 209.949 117.964 209.949C117.207 209.949 116.597 209.693 116.133 209.18C115.657 208.667 115.425 208.021 115.425 207.264H113.765C113.765 208.045 113.521 208.68 113.044 209.192C112.556 209.705 111.934 209.949 111.165 209.949C110.432 209.949 109.834 209.681 109.346 209.131C108.857 208.619 108.625 207.984 108.625 207.251C108.625 206.031 109.224 205.225 110.444 204.822L109.993 203.223C109.041 203.504 108.308 204.029 107.771 204.798C107.234 205.567 106.965 206.446 106.965 207.435C106.965 208.704 107.356 209.778 108.149 210.645C108.955 211.548 109.993 212 111.25 212C112.654 212 113.765 211.438 114.583 210.315C115.413 211.438 116.536 212 117.964 212C119.429 212 120.564 211.365 121.345 210.071C122.236 211.365 123.481 212 125.081 212C126.582 212 127.766 211.402 128.645 210.206C129.426 209.131 129.817 207.813 129.817 206.25ZM135.408 213.758C135.847 213.758 136.213 213.892 136.494 214.148C136.726 214.393 136.848 214.673 136.848 215.003C136.848 215.32 136.738 215.601 136.531 215.833C136.287 216.077 135.994 216.199 135.627 216.199C134.529 216.199 133.833 215.65 133.54 214.551C133.857 214.026 134.48 213.758 135.408 213.758ZM141.145 214.991H139.827C139.827 216.285 139.509 217.347 138.875 218.177C138.142 219.129 137.104 219.605 135.75 219.605C134.883 219.605 134.126 219.385 133.467 218.946C132.71 218.433 132.332 217.75 132.332 216.871C132.332 216.541 132.417 216.199 132.588 215.857C133.149 217.029 134.175 217.615 135.64 217.615C136.445 217.615 137.104 217.347 137.593 216.785C138.032 216.297 138.264 215.687 138.264 214.979C138.264 214.271 138.02 213.66 137.544 213.172C137.007 212.635 136.274 212.354 135.322 212.354C134.468 212.354 133.809 212.598 133.357 213.074V212.073C133.357 209.351 133.027 207.532 132.393 206.629L131.318 207.483C131.819 208.094 132.075 209.913 132.075 212.952V214.1C131.318 215.003 130.94 215.931 130.94 216.895C130.94 217.957 131.306 218.873 132.063 219.642C132.942 220.569 134.175 221.021 135.75 221.021C137.703 221.021 139.155 220.228 140.132 218.616C140.803 217.505 141.145 216.297 141.145 214.991ZM163.044 206.25C163.044 203.125 161.763 200.367 159.211 197.962L158.003 199.17C160.249 201.282 161.384 203.663 161.384 206.299C161.384 207.264 161.189 208.082 160.798 208.741C160.31 209.546 159.626 209.949 158.735 209.949C157.991 209.949 157.393 209.681 156.929 209.144C156.489 208.643 156.27 208.021 156.27 207.264H154.609C154.609 208.045 154.365 208.68 153.889 209.192C153.401 209.705 152.778 209.949 152.009 209.949C151.277 209.949 150.679 209.717 150.19 209.253C149.702 208.79 149.47 208.204 149.47 207.471C149.47 206.617 149.922 205.909 150.825 205.372L153.34 204.053C154.243 203.443 154.695 202.601 154.695 201.539C154.695 200.525 154.39 199.695 153.804 199.048C153.206 198.414 152.412 198.084 151.411 198.084C150.532 198.084 149.775 198.365 149.153 198.914C148.494 199.5 148.176 200.22 148.176 201.087C148.176 201.807 148.335 202.381 148.665 202.796L150.081 201.966C149.91 201.795 149.836 201.526 149.836 201.136C149.836 200.721 149.995 200.391 150.312 200.123C150.605 199.878 150.959 199.744 151.387 199.744C151.887 199.744 152.29 199.903 152.583 200.22C152.876 200.538 153.035 200.94 153.035 201.453C153.035 202.039 152.583 202.576 151.68 203.077C150.251 203.87 149.409 204.371 149.165 204.59C148.262 205.372 147.81 206.397 147.81 207.667C147.81 208.936 148.201 209.974 149.006 210.779C149.8 211.597 150.825 212 152.095 212C153.486 212 154.597 211.438 155.427 210.315C156.27 211.438 157.393 212 158.796 212C160.164 212 161.238 211.365 162.043 210.071C162.703 208.985 163.044 207.715 163.044 206.25ZM180.488 196.558C180.488 195.704 180.22 194.959 179.707 194.3C179.158 193.616 178.474 193.238 177.644 193.152L177.51 194.812C177.9 194.837 178.218 195.044 178.486 195.423C178.706 195.765 178.828 196.143 178.828 196.558C178.828 197.01 178.694 197.413 178.438 197.754C178.157 198.145 177.803 198.328 177.363 198.328H165.193V199.988H168.269C166.218 201.612 165.193 203.858 165.193 206.739C165.193 208.13 165.571 209.339 166.328 210.34C167.158 211.451 168.245 212 169.587 212C170.906 212 171.98 211.438 172.81 210.315C173.64 211.438 174.714 212 176.033 212C177.375 212 178.462 211.451 179.292 210.34C180.049 209.339 180.427 208.13 180.427 206.739C180.427 203.858 179.402 201.612 177.351 199.988C178.279 199.988 179.036 199.646 179.634 198.951C180.195 198.304 180.488 197.51 180.488 196.558ZM178.767 206.58C178.767 207.496 178.56 208.252 178.169 208.863C177.705 209.595 177.034 209.949 176.179 209.949C175.422 209.949 174.812 209.693 174.348 209.18C173.884 208.667 173.652 208.021 173.652 207.264H171.992C171.992 208.021 171.76 208.655 171.296 209.168C170.808 209.693 170.186 209.949 169.441 209.949C168.574 209.949 167.915 209.595 167.451 208.863C167.048 208.252 166.853 207.496 166.853 206.58C166.853 205.237 167.17 204.029 167.805 202.955C168.464 201.856 169.404 201.038 170.601 200.489C171.345 200.159 172.078 199.988 172.81 199.988C173.53 199.988 174.263 200.159 175.02 200.489C176.216 201.038 177.144 201.856 177.815 202.955C178.45 204.029 178.767 205.237 178.767 206.58ZM187.776 206.25C187.776 203.382 186.494 200.745 183.931 198.328L182.722 199.537C184.98 201.661 186.116 203.907 186.116 206.299C186.116 207.496 185.774 208.423 185.09 209.083C184.492 209.668 183.772 209.949 182.917 209.949C181.733 209.949 180.488 209.302 179.182 207.984L178.071 209.253C178.975 210.169 179.658 210.779 180.098 211.072C181.001 211.695 181.953 212 182.979 212C184.272 212 185.359 211.548 186.25 210.621C187.263 209.571 187.776 208.118 187.776 206.25ZM201.936 207.056C201.936 205.445 201.094 204.163 199.409 203.211H201.936V202.039H197.371C198.64 200.696 199.287 199.085 199.287 197.205C199.287 196.131 199.019 195.203 198.494 194.446C197.896 193.592 197.078 193.152 196.04 193.152C195.186 193.152 194.465 193.445 193.867 194.031C193.269 194.617 192.976 195.337 192.976 196.192C192.976 197.034 193.269 197.754 193.867 198.34C194.453 198.938 195.173 199.231 196.016 199.231C196.528 199.231 197.004 199.122 197.444 198.877C197.249 199.659 196.858 200.354 196.272 200.977C195.601 201.685 194.893 202.039 194.16 202.039H189.924V203.211H192.744C191.938 203.614 191.292 204.126 190.791 204.761C190.205 205.481 189.924 206.25 189.924 207.056C189.924 208.509 190.571 209.717 191.89 210.682C193.086 211.561 194.429 212 195.93 212C197.419 212 198.774 211.561 199.971 210.682C201.277 209.717 201.936 208.509 201.936 207.056ZM197.603 196.863C197.322 197.339 196.797 197.571 196.016 197.571C195.625 197.571 195.308 197.437 195.039 197.168C194.771 196.9 194.636 196.583 194.636 196.192C194.636 195.813 194.771 195.484 195.039 195.215C195.308 194.947 195.625 194.812 196.016 194.812C196.443 194.812 196.797 194.971 197.09 195.289C197.432 195.667 197.603 196.192 197.603 196.863ZM200.276 206.983C200.276 207.959 199.763 208.716 198.75 209.266C197.92 209.729 196.98 209.949 195.93 209.949C194.88 209.949 193.94 209.729 193.11 209.266C192.085 208.716 191.584 207.959 191.584 206.983C191.584 206.019 192.085 205.262 193.11 204.7C193.94 204.249 194.88 204.017 195.93 204.017C196.98 204.017 197.92 204.249 198.75 204.7C199.763 205.262 200.276 206.019 200.276 206.983ZM219.319 206.482C219.319 203.724 218.318 201.563 216.316 199.988H217.61V198.328H204.084V199.988H212.446C213.862 199.988 215.107 200.733 216.182 202.222C217.158 203.589 217.659 205.005 217.659 206.482C217.659 207.496 217.402 208.313 216.914 208.936C216.377 209.62 215.608 209.949 214.631 209.949C213.765 209.949 212.935 209.449 212.153 208.448C211.494 207.52 210.847 206.58 210.212 205.64C209.419 204.639 208.589 204.139 207.734 204.139C206.587 204.139 205.696 204.456 205.049 205.091C204.402 205.726 204.084 206.604 204.084 207.74C204.084 209.522 204.78 210.938 206.184 212L206.868 210.071C206.111 209.339 205.745 208.521 205.745 207.605C205.745 207.056 205.903 206.617 206.245 206.287C206.587 205.97 207.039 205.799 207.6 205.799C208.186 205.799 208.845 206.336 209.553 207.41C210.786 209.278 211.458 210.267 211.567 210.389C212.471 211.463 213.484 212 214.583 212C216.096 212 217.292 211.451 218.147 210.34C218.928 209.339 219.319 208.057 219.319 206.482ZM220.662 196.521C220.662 195.63 220.381 194.861 219.844 194.202C219.246 193.506 218.489 193.152 217.561 193.152C216.926 193.152 216.401 193.348 215.974 193.726C215.498 194.141 215.266 194.69 215.266 195.374C215.266 195.936 215.425 196.387 215.754 196.729C216.047 197.046 216.414 197.193 216.841 197.193C217.39 197.193 217.817 196.949 218.11 196.436L217.61 195.997C217.427 196.253 217.231 196.375 217.012 196.375C216.621 196.375 216.426 196.143 216.426 195.655C216.426 195.032 216.743 194.715 217.402 194.715C217.915 194.715 218.33 194.886 218.66 195.228C218.953 195.545 219.099 195.936 219.099 196.375C219.099 196.888 218.928 197.327 218.586 197.706C218.22 198.121 217.769 198.328 217.231 198.328H215.315V199.988H217.231C218.281 199.988 219.136 199.634 219.783 198.902C220.369 198.243 220.662 197.449 220.662 196.521ZM235.09 205.835C235.09 203.492 234.431 201.612 233.113 200.208C231.917 198.963 230.488 198.328 228.804 198.328C227.192 198.328 225.85 198.914 224.775 200.062C223.555 201.355 222.957 203.113 222.957 205.359C222.957 208.423 222.224 209.949 220.759 209.949C220.161 209.949 219.636 209.742 219.185 209.327C219.05 209.217 218.66 208.765 218.025 207.984L216.914 209.253C217.659 210.218 218.196 210.84 218.525 211.109C219.185 211.707 219.905 212 220.674 212C222.346 212 223.481 211.268 224.067 209.791C224.434 208.887 224.617 207.422 224.617 205.42C224.617 203.675 225.056 202.308 225.935 201.307C226.704 200.428 227.681 199.988 228.853 199.988C230.073 199.988 231.111 200.464 231.99 201.404C232.942 202.454 233.43 203.858 233.43 205.616C233.43 206.812 233.149 207.825 232.6 208.631C231.99 209.51 231.184 209.949 230.183 209.949C229.622 209.949 229.158 209.766 228.792 209.4C228.389 209.034 228.193 208.545 228.193 207.935C228.193 207.496 228.315 207.093 228.56 206.714C228.828 206.299 229.17 206.092 229.585 206.092C230 206.092 230.354 206.263 230.647 206.58L231.77 205.457C231.184 204.773 230.452 204.432 229.597 204.432C228.718 204.432 227.974 204.81 227.375 205.542C226.802 206.238 226.521 207.032 226.521 207.935C226.521 209.18 226.887 210.181 227.632 210.938C228.315 211.646 229.17 212 230.183 212C231.88 212 233.174 211.243 234.077 209.717C234.749 208.57 235.09 207.276 235.09 205.835ZM249.739 205.579C249.739 203.809 249.177 202.295 248.079 201.038C246.968 199.793 245.637 199.158 244.075 199.158C242.512 199.158 241.169 199.793 240.071 201.038C238.96 202.295 238.411 203.809 238.411 205.579C238.411 207.361 238.96 208.875 240.071 210.12C241.169 211.377 242.512 212 244.075 212C245.637 212 246.968 211.377 248.079 210.12C249.177 208.875 249.739 207.361 249.739 205.579ZM248.079 205.384C248.079 206.653 247.688 207.728 246.907 208.619C246.125 209.51 245.173 209.949 244.075 209.949C242.964 209.949 242.024 209.51 241.243 208.619C240.461 207.728 240.071 206.653 240.071 205.384C240.071 204.126 240.461 203.052 241.243 202.161C242.024 201.27 242.964 200.818 244.075 200.818C245.173 200.818 246.125 201.27 246.907 202.161C247.688 203.052 248.079 204.126 248.079 205.384ZM267.122 206.702C267.122 205.005 266.67 203.101 265.767 201.001C264.814 198.804 263.606 196.985 262.166 195.569C260.505 193.958 258.809 193.152 257.051 193.152C255.757 193.152 254.646 193.604 253.706 194.495C252.742 195.423 252.266 196.521 252.266 197.791C252.266 199.158 252.852 200.171 254.048 200.843C252.607 202.417 251.887 204.383 251.887 206.739C251.887 208.13 252.266 209.339 253.022 210.34C253.853 211.451 254.939 212 256.282 212C257.6 212 258.674 211.438 259.504 210.315C260.322 211.438 261.396 212 262.727 212C264.082 212 265.168 211.451 265.999 210.328C266.743 209.327 267.122 208.118 267.122 206.702ZM263.093 199.341C261.921 198.67 260.725 198.328 259.504 198.328C258.076 198.328 256.721 198.768 255.427 199.646C254.951 199.61 254.573 199.402 254.304 199.024C254.048 198.682 253.926 198.267 253.926 197.779C253.926 196.875 254.231 196.143 254.841 195.594C255.415 195.081 256.172 194.812 257.1 194.812C259.26 194.812 261.262 196.326 263.093 199.341ZM265.461 206.58C265.461 207.496 265.254 208.252 264.863 208.863C264.399 209.595 263.728 209.949 262.874 209.949C262.117 209.949 261.506 209.693 261.042 209.18C260.579 208.667 260.347 208.021 260.347 207.264H258.687C258.687 208.021 258.442 208.667 257.966 209.18C257.49 209.693 256.88 209.949 256.135 209.949C255.269 209.949 254.609 209.595 254.146 208.863C253.743 208.252 253.547 207.496 253.547 206.58C253.547 204.847 254.097 203.333 255.208 202.039C256.367 200.672 257.795 199.988 259.504 199.988C261.201 199.988 262.629 200.672 263.801 202.039C264.9 203.333 265.461 204.847 265.461 206.58ZM282.356 206.629C282.356 203.87 281.477 201.648 279.744 199.988V198.328H269.27V199.988H271.882C270.137 201.648 269.27 203.87 269.27 206.629C269.27 208.521 269.893 210.34 271.138 212.098L272.444 211.084C271.431 209.644 270.93 208.155 270.93 206.629C270.93 205.03 271.333 203.589 272.139 202.308C273.066 200.831 274.299 200.086 275.813 200.086C277.327 200.086 278.547 200.831 279.487 202.308C280.293 203.589 280.696 205.03 280.696 206.629C280.696 208.143 280.183 209.62 279.182 211.084L280.476 212.098C281.721 210.364 282.356 208.545 282.356 206.629ZM283.723 196.521C283.723 195.63 283.442 194.861 282.905 194.202C282.307 193.506 281.55 193.152 280.623 193.152C279.988 193.152 279.463 193.348 279.036 193.726C278.56 194.141 278.328 194.69 278.328 195.374C278.328 195.936 278.486 196.387 278.816 196.729C279.109 197.046 279.475 197.193 279.902 197.193C280.452 197.193 280.879 196.949 281.172 196.436L280.671 195.997C280.488 196.253 280.293 196.375 280.073 196.375C279.683 196.375 279.487 196.143 279.487 195.655C279.487 195.032 279.805 194.715 280.464 194.715C280.977 194.715 281.392 194.886 281.721 195.228C282.014 195.545 282.161 195.936 282.161 196.375C282.161 196.888 281.99 197.327 281.648 197.706C281.282 198.121 280.83 198.328 280.293 198.328H278.376V199.988H280.293C281.343 199.988 282.197 199.634 282.844 198.902C283.43 198.243 283.723 197.449 283.723 196.521ZM308.76 196.558C308.76 195.704 308.491 194.959 307.979 194.3C307.429 193.616 306.746 193.226 305.916 193.152L305.781 194.812C306.172 194.837 306.489 195.044 306.758 195.423C306.978 195.765 307.1 196.143 307.1 196.558C307.1 197.01 306.965 197.413 306.709 197.754C306.428 198.145 306.074 198.328 305.635 198.328H293.464V199.988H305.696C306.587 199.988 307.332 199.634 307.93 198.926C308.479 198.267 308.76 197.474 308.76 196.558ZM302.742 203.309C302.742 202.991 302.62 202.71 302.4 202.479C302.168 202.259 301.887 202.137 301.57 202.137C301.24 202.137 300.959 202.259 300.74 202.479C300.508 202.71 300.398 202.991 300.398 203.309C300.398 203.638 300.508 203.919 300.74 204.139C300.959 204.371 301.24 204.48 301.57 204.48C301.887 204.48 302.168 204.371 302.4 204.139C302.62 203.919 302.742 203.638 302.742 203.309ZM308.699 206.482C308.699 204.407 307.881 202.576 306.257 200.965L305.037 202.186C306.367 203.504 307.039 204.932 307.039 206.482C307.039 207.508 306.794 208.326 306.306 208.936C305.769 209.62 305 209.949 304.011 209.949C303.145 209.949 302.314 209.449 301.533 208.448L299.58 205.64C298.787 204.639 297.969 204.139 297.114 204.139C295.967 204.139 295.076 204.456 294.429 205.091C293.782 205.726 293.464 206.604 293.464 207.74C293.464 209.522 294.16 210.938 295.564 212L296.333 209.949C295.808 209.485 295.491 209.156 295.393 208.985C295.21 208.692 295.125 208.228 295.125 207.605C295.125 207.056 295.283 206.617 295.625 206.287C295.967 205.97 296.418 205.799 296.98 205.799C297.566 205.799 298.213 206.336 298.933 207.41C300.154 209.278 300.825 210.267 300.947 210.389C301.863 211.463 302.864 212 303.962 212C305.476 212 306.672 211.451 307.527 210.34C308.308 209.339 308.699 208.057 308.699 206.482ZM322.175 205.579C322.175 203.809 321.614 202.295 320.515 201.038C319.404 199.793 318.074 199.158 316.511 199.158C314.949 199.158 313.606 199.793 312.507 201.038C311.396 202.295 310.847 203.809 310.847 205.579C310.847 207.361 311.396 208.875 312.507 210.12C313.606 211.377 314.949 212 316.511 212C318.074 212 319.404 211.377 320.515 210.12C321.614 208.875 322.175 207.361 322.175 205.579ZM320.515 205.384C320.515 206.653 320.125 207.728 319.343 208.619C318.562 209.51 317.61 209.949 316.511 209.949C315.4 209.949 314.46 209.51 313.679 208.619C312.898 207.728 312.507 206.653 312.507 205.384C312.507 204.126 312.898 203.052 313.679 202.161C314.46 201.27 315.4 200.818 316.511 200.818C317.61 200.818 318.562 201.27 319.343 202.161C320.125 203.052 320.515 204.126 320.515 205.384ZM339.558 206.25C339.558 203.125 338.276 200.367 335.725 197.962L334.517 199.17C336.763 201.282 337.898 203.663 337.898 206.299C337.898 207.264 337.703 208.082 337.312 208.741C336.824 209.546 336.14 209.949 335.249 209.949C334.504 209.949 333.906 209.681 333.442 209.144C333.003 208.643 332.783 208.021 332.783 207.264H331.123C331.123 208.045 330.879 208.68 330.403 209.192C329.915 209.705 329.292 209.949 328.523 209.949C327.791 209.949 327.192 209.717 326.704 209.253C326.216 208.79 325.984 208.204 325.984 207.471C325.984 206.617 326.436 205.909 327.339 205.372L329.854 204.053C330.757 203.443 331.208 202.601 331.208 201.539C331.208 200.525 330.903 199.695 330.317 199.048C329.719 198.414 328.926 198.084 327.925 198.084C327.046 198.084 326.289 198.365 325.667 198.914C325.007 199.5 324.69 200.22 324.69 201.087C324.69 201.807 324.849 202.381 325.178 202.796L326.594 201.966C326.423 201.795 326.35 201.526 326.35 201.136C326.35 200.721 326.509 200.391 326.826 200.123C327.119 199.878 327.473 199.744 327.9 199.744C328.401 199.744 328.804 199.903 329.097 200.22C329.39 200.538 329.548 200.94 329.548 201.453C329.548 202.039 329.097 202.576 328.193 203.077C326.765 203.87 325.923 204.371 325.679 204.59C324.775 205.372 324.324 206.397 324.324 207.667C324.324 208.936 324.714 209.974 325.52 210.779C326.313 211.597 327.339 212 328.608 212C330 212 331.111 211.438 331.941 210.315C332.783 211.438 333.906 212 335.31 212C336.677 212 337.751 211.365 338.557 210.071C339.216 208.985 339.558 207.715 339.558 206.25ZM353.035 205.579C353.035 203.809 352.473 202.295 351.375 201.038C350.264 199.793 348.933 199.158 347.371 199.158C345.808 199.158 344.465 199.793 343.367 201.038C342.256 202.295 341.707 203.809 341.707 205.579C341.707 207.361 342.256 208.875 343.367 210.12C344.465 211.377 345.808 212 347.371 212C348.933 212 350.264 211.377 351.375 210.12C352.473 208.875 353.035 207.361 353.035 205.579ZM351.375 205.384C351.375 206.653 350.984 207.728 350.203 208.619C349.421 209.51 348.469 209.949 347.371 209.949C346.26 209.949 345.32 209.51 344.539 208.619C343.757 207.728 343.367 206.653 343.367 205.384C343.367 204.126 343.757 203.052 344.539 202.161C345.32 201.27 346.26 200.818 347.371 200.818C348.469 200.818 349.421 201.27 350.203 202.161C350.984 203.052 351.375 204.126 351.375 205.384ZM370.479 196.558C370.479 195.704 370.21 194.959 369.697 194.3C369.148 193.616 368.464 193.238 367.634 193.152L367.5 194.812C367.891 194.837 368.208 195.044 368.477 195.423C368.696 195.765 368.818 196.143 368.818 196.558C368.818 197.01 368.684 197.413 368.428 197.754C368.147 198.145 367.793 198.328 367.354 198.328H355.183V199.988H358.259C356.208 201.612 355.183 203.858 355.183 206.739C355.183 208.13 355.562 209.339 356.318 210.34C357.148 211.451 358.235 212 359.578 212C360.896 212 361.97 211.438 362.8 210.315C363.63 211.438 364.705 212 366.023 212C367.366 212 368.452 211.451 369.282 210.34C370.039 209.339 370.417 208.13 370.417 206.739C370.417 203.858 369.392 201.612 367.341 199.988C368.269 199.988 369.026 199.646 369.624 198.951C370.186 198.304 370.479 197.51 370.479 196.558ZM363.972 214.063C363.972 213.721 363.838 213.282 363.582 212.72C363.325 212.171 363.069 211.805 362.8 211.609C362.52 211.805 362.251 212.183 362.007 212.72C361.75 213.257 361.628 213.709 361.628 214.063C361.628 214.905 362.019 215.32 362.8 215.32C363.142 215.32 363.423 215.198 363.643 214.954C363.862 214.71 363.972 214.417 363.972 214.063ZM368.757 206.58C368.757 207.496 368.55 208.252 368.159 208.863C367.695 209.595 367.024 209.949 366.169 209.949C365.413 209.949 364.802 209.693 364.338 209.18C363.875 208.667 363.643 208.021 363.643 207.264H361.982C361.982 208.021 361.75 208.655 361.287 209.168C360.798 209.693 360.176 209.949 359.431 209.949C358.564 209.949 357.905 209.595 357.441 208.863C357.039 208.252 356.843 207.496 356.843 206.58C356.843 205.237 357.161 204.029 357.795 202.955C358.455 201.856 359.395 201.038 360.591 200.489C361.335 200.159 362.068 199.988 362.8 199.988C363.521 199.988 364.253 200.159 365.01 200.489C366.206 201.038 367.134 201.856 367.805 202.955C368.44 204.029 368.757 205.237 368.757 206.58Z" fill="#ABABAB"/>
</svg>
