<svg width="461" height="214" viewBox="0 0 461 214" fill="none" xmlns="http://www.w3.org/2000/svg">
<path d="M86.8056 86.96C83.799 86.96 81.1223 86.4833 78.7756 85.53C79.509 88.0967 80.7923 90.4433 82.6256 92.57C84.459 94.6967 86.659 96.53 89.2256 98.07C91.8656 99.61 94.799 100.82 98.0256 101.7C101.252 102.507 104.699 102.91 108.366 102.91C111.886 102.91 115.076 102.617 117.936 102.03C120.869 101.443 123.362 100.6 125.416 99.5C127.542 98.4 129.156 97.1167 130.256 95.65C131.429 94.11 132.016 92.46 132.016 90.7C132.016 89.82 131.869 89.05 131.576 88.39C130.476 88.5367 129.156 88.6467 127.616 88.72C126.149 88.7933 124.609 88.83 122.996 88.83H106.166C104.992 86.9233 104.406 84.7233 104.406 82.23C104.406 79.6633 104.956 77.83 106.056 76.73C107.229 75.63 108.769 75.0433 110.676 74.97L116.726 75.19C115.699 73.9433 114.892 72.6233 114.306 71.23C113.719 69.7633 113.426 68.0767 113.426 66.17C113.426 63.8233 113.902 61.6967 114.856 59.79C115.882 57.81 117.276 56.16 119.036 54.84C120.869 53.4467 122.996 52.3833 125.416 51.65C127.909 50.9167 130.586 50.55 133.446 50.55C136.526 50.55 139.349 50.99 141.916 51.87C144.556 52.6767 146.792 53.85 148.626 55.39C150.459 56.93 151.889 58.8 152.916 61C153.942 63.1267 154.456 65.51 154.456 68.15C154.456 71.23 153.796 73.9067 152.476 76.18C151.156 78.4533 149.322 80.3233 146.976 81.79C148.149 82.89 149.066 84.2833 149.726 85.97C150.459 87.6567 150.826 89.5633 150.826 91.69C150.826 95.5033 149.762 99.0233 147.636 102.25C145.509 105.477 142.576 108.3 138.836 110.72C135.096 113.067 130.659 114.9 125.526 116.22C120.392 117.54 114.782 118.2 108.696 118.2C101.069 118.2 94.249 117.137 88.2356 115.01C82.2956 112.81 77.2723 109.84 73.1656 106.1C69.059 102.287 65.9423 97.85 63.8156 92.79C61.689 87.6567 60.6256 82.1567 60.6256 76.29C60.6256 72.11 61.2123 68.4433 62.3856 65.29C63.559 62.0633 65.1356 59.35 67.1156 57.15C69.169 54.95 71.589 53.3 74.3756 52.2C77.1623 51.1 80.169 50.55 83.3956 50.55C86.8423 50.55 89.8856 51.1 92.5256 52.2C95.1656 53.2267 97.3656 54.62 99.1256 56.38C100.886 58.14 102.206 60.1933 103.086 62.54C103.966 64.8133 104.406 67.16 104.406 69.58C104.406 72.0733 103.966 74.3833 103.086 76.51C102.279 78.6367 101.106 80.47 99.5656 82.01C98.0256 83.55 96.1556 84.76 93.9556 85.64C91.829 86.52 89.4456 86.96 86.8056 86.96ZM83.0656 75.08C84.679 75.08 85.9623 74.6033 86.9156 73.65C87.869 72.6233 88.3456 71.3033 88.3456 69.69C88.3456 68.0767 87.869 66.7567 86.9156 65.73C85.9623 64.7033 84.679 64.19 83.0656 64.19C81.4523 64.19 80.169 64.7033 79.2156 65.73C78.2623 66.7567 77.7856 68.0767 77.7856 69.69C77.7856 71.3033 78.2623 72.6233 79.2156 73.65C80.169 74.6033 81.4523 75.08 83.0656 75.08ZM128.826 69.03C128.826 70.4233 129.229 71.67 130.036 72.77C130.842 73.7967 131.979 74.5667 133.446 75.08C135.132 74.64 136.416 73.87 137.296 72.77C138.176 71.67 138.616 70.4233 138.616 69.03C138.616 67.71 138.176 66.5733 137.296 65.62C136.489 64.6667 135.316 64.19 133.776 64.19C132.236 64.19 131.026 64.6667 130.146 65.62C129.266 66.5 128.826 67.6367 128.826 69.03ZM196.741 118.2C191.168 118.2 186.181 117.393 181.781 115.78C177.381 114.167 173.678 111.93 170.671 109.07C167.665 106.137 165.355 102.69 163.741 98.73C162.128 94.77 161.321 90.48 161.321 85.86C161.321 82.56 161.835 79.26 162.861 75.96C163.961 72.5867 165.721 69.58 168.141 66.94H160.551C159.965 66.06 159.488 65.0333 159.121 63.86C158.755 62.6867 158.571 61.4033 158.571 60.01C158.571 57.4433 159.121 55.61 160.221 54.51C161.395 53.3367 162.898 52.75 164.731 52.75H211.921C213.828 52.75 215.185 52.2733 215.991 51.32C216.798 50.3667 217.201 49.1567 217.201 47.69C217.201 46.0033 216.835 44.3533 216.101 42.74C216.981 42.0067 218.118 41.3467 219.511 40.76C220.905 40.1733 222.481 39.88 224.241 39.88C227.175 39.88 229.595 40.87 231.501 42.85C233.481 44.7567 234.471 47.6167 234.471 51.43C234.471 54.73 233.591 57.7367 231.831 60.45C230.071 63.09 227.175 64.9233 223.141 65.95C225.635 68.5167 227.578 71.6333 228.971 75.3C230.365 78.9667 231.061 82.4867 231.061 85.86C231.061 90.48 230.255 94.77 228.641 98.73C227.101 102.69 224.828 106.137 221.821 109.07C218.888 111.93 215.295 114.167 211.041 115.78C206.861 117.393 202.095 118.2 196.741 118.2ZM195.531 66.5C193.185 66.5 191.058 66.9767 189.151 67.93C187.318 68.8833 185.741 70.2033 184.421 71.89C183.101 73.5033 182.075 75.4467 181.341 77.72C180.608 79.92 180.241 82.34 180.241 84.98C180.241 87.6933 180.645 90.15 181.451 92.35C182.258 94.55 183.358 96.4567 184.751 98.07C186.218 99.61 187.905 100.82 189.811 101.7C191.791 102.507 193.955 102.91 196.301 102.91C198.795 102.91 200.995 102.47 202.901 101.59C204.881 100.637 206.531 99.3533 207.851 97.74C209.245 96.1267 210.308 94.2567 211.041 92.13C211.775 89.93 212.141 87.5467 212.141 84.98C212.141 82.2667 211.738 79.81 210.931 77.61C210.125 75.3367 209.061 73.43 207.741 71.89C206.421 70.2767 204.845 69.03 203.011 68.15C201.251 67.1967 199.381 66.6467 197.401 66.5H195.531ZM271.409 118.2C266.349 118.2 261.802 117.393 257.769 115.78C253.735 114.167 250.289 111.93 247.429 109.07C244.642 106.137 242.479 102.69 240.939 98.73C239.399 94.6967 238.629 90.2967 238.629 85.53C238.629 80.7633 239.399 76.4 240.939 72.44C242.479 68.4067 244.642 64.9233 247.429 61.99C250.289 59.0567 253.735 56.7833 257.769 55.17C261.802 53.5567 266.349 52.75 271.409 52.75C276.469 52.75 281.015 53.5567 285.049 55.17C289.082 56.7833 292.492 59.0567 295.279 61.99C298.139 64.9233 300.339 68.4067 301.879 72.44C303.419 76.4 304.189 80.7633 304.189 85.53C304.189 90.2967 303.419 94.6967 301.879 98.73C300.339 102.69 298.139 106.137 295.279 109.07C292.492 111.93 289.082 114.167 285.049 115.78C281.015 117.393 276.469 118.2 271.409 118.2ZM271.409 102.91C275.809 102.91 279.182 101.297 281.529 98.07C283.949 94.77 285.159 90.59 285.159 85.53C285.159 80.47 283.949 76.29 281.529 72.99C279.182 69.69 275.809 68.04 271.409 68.04C267.009 68.04 263.599 69.69 261.179 72.99C258.832 76.29 257.659 80.47 257.659 85.53C257.659 90.59 258.832 94.77 261.179 98.07C263.599 101.297 267.009 102.91 271.409 102.91ZM372.537 118.2C368.797 118.2 365.35 117.577 362.197 116.33C359.043 115.157 356.403 113.25 354.277 110.61C352.37 112.957 349.84 114.79 346.687 116.11C343.533 117.503 339.867 118.2 335.687 118.2C331.947 118.2 328.537 117.687 325.457 116.66C322.45 115.707 319.847 114.313 317.647 112.48C315.447 110.647 313.76 108.483 312.587 105.99C311.413 103.497 310.827 100.747 310.827 97.74C310.827 89.82 314.933 83.7333 323.147 79.48L331.177 75.3C333.23 74.2733 334.66 73.21 335.467 72.11C336.273 70.9367 336.677 69.6533 336.677 68.26C336.677 67.0133 336.347 66.0233 335.687 65.29C335.027 64.4833 334.037 64.08 332.717 64.08C331.177 64.08 330.04 64.5567 329.307 65.51C328.647 66.39 328.317 67.4533 328.317 68.7C328.317 69.5067 328.39 70.2033 328.537 70.79C328.683 71.3033 328.867 71.8533 329.087 72.44C328.427 73.1 327.327 73.7967 325.787 74.53C324.32 75.2633 322.56 75.63 320.507 75.63C317.573 75.63 315.227 74.8233 313.467 73.21C311.707 71.5233 310.827 69.1767 310.827 66.17C310.827 63.53 311.413 61.2567 312.587 59.35C313.833 57.37 315.447 55.72 317.427 54.4C319.48 53.08 321.79 52.1267 324.357 51.54C326.923 50.88 329.527 50.55 332.167 50.55C335.1 50.55 337.887 50.9167 340.527 51.65C343.167 52.3833 345.477 53.4833 347.457 54.95C349.437 56.4167 350.977 58.2867 352.077 60.56C353.25 62.8333 353.837 65.51 353.837 68.59C353.837 72.6233 352.883 76.1433 350.977 79.15C349.07 82.0833 346.357 84.5033 342.837 86.41L335.137 90.59C333.377 91.5433 332.057 92.5333 331.177 93.56C330.297 94.5133 329.857 95.76 329.857 97.3C329.857 98.9867 330.553 100.38 331.947 101.48C333.34 102.507 335.137 103.02 337.337 103.02C339.683 103.02 341.553 102.433 342.947 101.26C344.34 100.013 345.11 98.3267 345.257 96.2V90.92C346.283 90.26 347.567 89.6733 349.107 89.16C350.647 88.6467 352.37 88.39 354.277 88.39C356.183 88.39 357.907 88.6467 359.447 89.16C360.987 89.6733 362.27 90.26 363.297 90.92V95.43C363.297 97.7033 363.957 99.5367 365.277 100.93C366.67 102.25 368.54 102.91 370.887 102.91C373.893 102.91 376.13 101.737 377.597 99.39C379.137 96.97 379.907 93.1933 379.907 88.06C379.907 85.7867 379.613 83.5133 379.027 81.24C378.44 78.8933 377.597 76.7667 376.497 74.86C375.397 72.88 374.04 71.1933 372.427 69.8C370.813 68.4067 368.98 67.4533 366.927 66.94H361.207C360.693 66.06 360.253 65.0333 359.887 63.86C359.52 62.6867 359.337 61.3667 359.337 59.9C359.337 57.3333 359.887 55.5 360.987 54.4C362.16 53.3 363.7 52.75 365.607 52.75H378.037C379.943 52.75 381.3 52.2733 382.107 51.32C382.913 50.3667 383.317 49.1567 383.317 47.69C383.317 46.0033 382.95 44.3533 382.217 42.74C383.097 42.0067 384.233 41.3467 385.627 40.76C387.02 40.1733 388.597 39.88 390.357 39.88C393.29 39.88 395.71 40.87 397.617 42.85C399.597 44.7567 400.587 47.6167 400.587 51.43C400.587 54.8767 399.597 57.9567 397.617 60.67C395.71 63.3833 392.777 65.2167 388.817 66.17C390.137 67.3433 391.42 68.7367 392.667 70.35C393.913 71.9633 394.977 73.76 395.857 75.74C396.81 77.72 397.58 79.8467 398.167 82.12C398.753 84.3933 399.047 86.8133 399.047 89.38C399.047 98.7667 396.737 105.917 392.117 110.83C387.497 115.743 380.97 118.2 372.537 118.2ZM355.157 118.09C355.89 118.09 356.697 118.457 357.577 119.19C359.63 120.877 361.207 122.673 362.307 124.58C363.407 126.56 363.957 128.723 363.957 131.07C363.957 133.637 363.187 135.8 361.647 137.56C360.107 139.393 357.943 140.31 355.157 140.31C352.37 140.31 350.207 139.393 348.667 137.56C347.127 135.8 346.357 133.637 346.357 131.07C346.357 128.723 346.907 126.56 348.007 124.58C349.107 122.673 350.683 120.877 352.737 119.19C353.617 118.457 354.423 118.09 355.157 118.09Z" fill="white" fill-opacity="0.2"/>
<path d="M56.0775 171.325C56.9109 171.325 57.6692 171.525 58.3525 171.925C59.0525 172.308 59.5942 172.85 59.9775 173.55C60.3275 172.85 60.8192 172.308 61.4525 171.925C62.0859 171.525 62.8275 171.325 63.6775 171.325C64.3775 171.325 65.0275 171.458 65.6275 171.725C66.2275 171.992 66.7442 172.367 67.1775 172.85C67.6275 173.317 67.9775 173.883 68.2275 174.55C68.4775 175.217 68.6025 175.95 68.6025 176.75C68.6025 177.95 68.3525 179.133 67.8525 180.3C67.3692 181.45 66.7359 182.433 65.9525 183.25C66.2359 183.8 66.4525 184.358 66.6025 184.925C66.7692 185.475 66.8525 185.942 66.8525 186.325C66.8525 187.092 66.5775 187.475 66.0275 187.475C65.6109 187.475 65.3192 187.417 65.1525 187.3C65.1525 186.883 65.1109 186.417 65.0275 185.9C64.9442 185.383 64.8192 184.9 64.6525 184.45C63.9192 185 63.1692 185.417 62.4025 185.7C61.6359 185.983 60.7275 186.125 59.6775 186.125C58.2442 186.125 57.0942 185.817 56.2275 185.2C55.3775 184.583 54.9525 183.725 54.9525 182.625C54.9525 181.608 55.3525 180.775 56.1525 180.125C56.9525 179.458 58.0775 179.125 59.5275 179.125C60.5775 179.125 61.5692 179.35 62.5025 179.8C63.4359 180.25 64.2525 180.892 64.9525 181.725C65.5025 181.092 65.9275 180.35 66.2275 179.5C66.5442 178.633 66.7025 177.7 66.7025 176.7C66.7025 176.15 66.6192 175.65 66.4525 175.2C66.3025 174.75 66.0859 174.367 65.8025 174.05C65.5359 173.717 65.2109 173.458 64.8275 173.275C64.4442 173.092 64.0359 173 63.6025 173C62.8025 173 62.1525 173.267 61.6525 173.8C61.1525 174.317 60.9025 175.025 60.9025 175.925V176.6C60.6359 176.783 60.3442 176.875 60.0275 176.875C59.7109 176.875 59.4192 176.783 59.1525 176.6V176.05C59.1525 175.6 59.0692 175.192 58.9025 174.825C58.7525 174.442 58.5442 174.117 58.2775 173.85C58.0109 173.583 57.6942 173.375 57.3275 173.225C56.9775 173.075 56.6109 173 56.2275 173C55.4275 173 54.7692 173.25 54.2525 173.75C53.7525 174.233 53.5025 174.875 53.5025 175.675C53.5025 176.392 53.6859 176.992 54.0525 177.475C53.8025 177.875 53.4942 178.075 53.1275 178.075C52.6609 178.075 52.2859 177.85 52.0025 177.4C51.7359 176.95 51.6025 176.35 51.6025 175.6C51.6025 174.983 51.7109 174.417 51.9275 173.9C52.1442 173.367 52.4525 172.908 52.8525 172.525C53.2525 172.142 53.7275 171.85 54.2775 171.65C54.8275 171.433 55.4275 171.325 56.0775 171.325ZM59.7275 184.45C60.4442 184.45 61.1775 184.325 61.9275 184.075C62.6775 183.808 63.3275 183.417 63.8775 182.9C63.3942 182.3 62.7692 181.8 62.0025 181.4C61.2359 180.983 60.4192 180.775 59.5525 180.775C58.7025 180.775 58.0359 180.95 57.5525 181.3C57.0859 181.633 56.8525 182.075 56.8525 182.625C56.8525 183.175 57.0942 183.617 57.5775 183.95C58.0609 184.283 58.7775 184.45 59.7275 184.45ZM88.4432 177.05C88.4432 178.633 88.2348 180 87.8182 181.15C87.4015 182.3 86.8182 183.25 86.0682 184C85.3348 184.75 84.4515 185.308 83.4182 185.675C82.4015 186.025 81.2848 186.2 80.0682 186.2C78.7515 186.2 77.5515 186 76.4682 185.6C75.4015 185.183 74.4848 184.608 73.7182 183.875C72.9682 183.125 72.3848 182.233 71.9682 181.2C71.5682 180.167 71.3682 179.025 71.3682 177.775C71.3682 176.775 71.4765 175.883 71.6932 175.1C71.9265 174.3 72.2432 173.625 72.6432 173.075C73.0598 172.508 73.5515 172.075 74.1182 171.775C74.7015 171.475 75.3432 171.325 76.0432 171.325C76.5765 171.325 77.0682 171.417 77.5182 171.6C77.9848 171.783 78.3848 172.042 78.7182 172.375C79.0682 172.708 79.3348 173.1 79.5182 173.55C79.7182 174 79.8182 174.492 79.8182 175.025C79.8182 175.542 79.7265 176.017 79.5432 176.45C79.3765 176.883 79.1348 177.258 78.8182 177.575C78.5182 177.875 78.1432 178.117 77.6932 178.3C77.2598 178.467 76.7848 178.55 76.2682 178.55C75.5515 178.55 74.9182 178.408 74.3682 178.125C73.8182 177.825 73.4182 177.408 73.1682 176.875C73.1515 177.025 73.1432 177.175 73.1432 177.325C73.1432 177.475 73.1432 177.642 73.1432 177.825C73.1432 178.825 73.3182 179.742 73.6682 180.575C74.0348 181.392 74.5265 182.092 75.1432 182.675C75.7765 183.258 76.5098 183.717 77.3432 184.05C78.1932 184.367 79.1098 184.525 80.0932 184.525C80.9098 184.525 81.7015 184.408 82.4682 184.175C83.2515 183.925 83.9432 183.517 84.5432 182.95C85.1432 182.367 85.6265 181.592 85.9932 180.625C86.3598 179.658 86.5432 178.458 86.5432 177.025C86.5432 175.058 86.2848 173.267 85.7682 171.65C85.2515 170.033 84.3848 168.642 83.1682 167.475C83.1515 168.408 82.8682 169.15 82.3182 169.7C81.7682 170.233 80.9932 170.5 79.9932 170.5C79.5265 170.5 79.0932 170.425 78.6932 170.275C78.2932 170.125 77.9432 169.925 77.6432 169.675C77.3432 169.408 77.1098 169.092 76.9432 168.725C76.7765 168.358 76.6932 167.95 76.6932 167.5C76.6932 166.55 77.0015 165.783 77.6182 165.2C78.2515 164.617 79.0598 164.325 80.0432 164.325C81.1932 164.325 82.2765 164.667 83.2932 165.35C84.3265 166.033 85.2182 166.958 85.9682 168.125C86.7348 169.292 87.3348 170.65 87.7682 172.2C88.2182 173.733 88.4432 175.35 88.4432 177.05ZM80.1182 169.075C80.6015 169.075 81.0015 168.933 81.3182 168.65C81.6515 168.367 81.8182 167.975 81.8182 167.475C81.8182 166.992 81.6515 166.6 81.3182 166.3C80.9848 165.983 80.5848 165.825 80.1182 165.825C79.6348 165.825 79.2265 165.975 78.8932 166.275C78.5765 166.575 78.4182 166.967 78.4182 167.45C78.4182 167.95 78.5765 168.35 78.8932 168.65C79.2265 168.933 79.6348 169.075 80.1182 169.075ZM77.9682 175.025C77.9682 174.442 77.7848 173.958 77.4182 173.575C77.0682 173.175 76.5932 172.975 75.9932 172.975C75.4098 172.975 74.9265 173.167 74.5432 173.55C74.1598 173.917 73.9682 174.392 73.9682 174.975C73.9682 175.542 74.1598 176.008 74.5432 176.375C74.9432 176.725 75.4265 176.9 75.9932 176.9C76.5765 176.9 77.0515 176.725 77.4182 176.375C77.7848 176.008 77.9682 175.558 77.9682 175.025ZM87.5953 193.325C87.412 193.475 87.187 193.55 86.9203 193.55C86.637 193.55 86.4203 193.475 86.2703 193.325V191.475C86.2703 190.975 86.1036 190.567 85.7703 190.25C85.437 189.933 85.0286 189.775 84.5453 189.775C83.9953 189.775 83.5536 189.967 83.2203 190.35C82.887 190.733 82.7203 191.225 82.7203 191.825C82.7203 192.608 82.9203 193.233 83.3203 193.7C83.7036 194.167 84.1286 194.508 84.5953 194.725C84.5953 194.925 84.537 195.108 84.4203 195.275C84.287 195.442 84.1036 195.525 83.8703 195.525C83.6203 195.525 83.3453 195.442 83.0453 195.275C82.7453 195.108 82.4703 194.858 82.2203 194.525C81.9536 194.208 81.737 193.817 81.5703 193.35C81.4036 192.9 81.3203 192.383 81.3203 191.8C81.3203 191.333 81.4036 190.9 81.5703 190.5C81.7203 190.1 81.937 189.75 82.2203 189.45C82.487 189.167 82.8203 188.942 83.2203 188.775C83.6036 188.625 84.0203 188.55 84.4703 188.55C85.6036 188.55 86.4286 188.95 86.9453 189.75C87.462 188.95 88.2786 188.55 89.3953 188.55C90.312 188.55 91.062 188.85 91.6453 189.45C92.2453 190.05 92.5453 190.833 92.5453 191.8C92.5453 192.383 92.462 192.9 92.2953 193.35C92.1286 193.817 91.912 194.208 91.6453 194.525C91.3953 194.858 91.1203 195.108 90.8203 195.275C90.5203 195.442 90.2453 195.525 89.9953 195.525C89.762 195.525 89.587 195.442 89.4703 195.275C89.337 195.108 89.2703 194.925 89.2703 194.725C89.737 194.508 90.162 194.167 90.5453 193.7C90.9453 193.233 91.1453 192.608 91.1453 191.825C91.1453 191.208 90.9786 190.708 90.6453 190.325C90.312 189.958 89.8703 189.775 89.3203 189.775C88.8036 189.775 88.387 189.95 88.0703 190.3C87.7536 190.65 87.5953 191.1 87.5953 191.65V193.325ZM97.5953 186.2C96.5953 186.2 95.687 186.033 94.8703 185.7C94.0536 185.35 93.3536 184.867 92.7703 184.25C92.187 183.617 91.737 182.867 91.4203 182C91.1036 181.117 90.9453 180.142 90.9453 179.075C90.9453 177.992 91.1036 177.008 91.4203 176.125C91.737 175.242 92.187 174.483 92.7703 173.85C93.3536 173.217 94.0536 172.733 94.8703 172.4C95.687 172.05 96.5953 171.875 97.5953 171.875C98.5953 171.875 99.5036 172.05 100.32 172.4C101.137 172.733 101.837 173.217 102.42 173.85C103.004 174.483 103.454 175.242 103.77 176.125C104.087 177.008 104.245 177.992 104.245 179.075C104.245 180.142 104.087 181.117 103.77 182C103.454 182.867 103.004 183.617 102.42 184.25C101.837 184.867 101.137 185.35 100.32 185.7C99.5036 186.033 98.5953 186.2 97.5953 186.2ZM97.5953 184.525C98.312 184.525 98.962 184.392 99.5453 184.125C100.129 183.858 100.629 183.492 101.045 183.025C101.462 182.542 101.779 181.967 101.995 181.3C102.229 180.617 102.345 179.867 102.345 179.05C102.345 178.233 102.229 177.483 101.995 176.8C101.779 176.117 101.462 175.542 101.045 175.075C100.629 174.592 100.129 174.217 99.5453 173.95C98.962 173.683 98.312 173.55 97.5953 173.55C96.8786 173.55 96.2286 173.683 95.6453 173.95C95.062 174.217 94.562 174.592 94.1453 175.075C93.7286 175.542 93.4036 176.117 93.1703 176.8C92.9536 177.483 92.8453 178.233 92.8453 179.05C92.8453 179.867 92.9536 180.617 93.1703 181.3C93.4036 181.967 93.7286 182.542 94.1453 183.025C94.562 183.492 95.062 183.858 95.6453 184.125C96.2286 184.392 96.8786 184.525 97.5953 184.525ZM119.413 186.2C118.563 186.2 117.822 186.042 117.188 185.725C116.555 185.392 116.047 184.933 115.663 184.35C115.33 184.933 114.855 185.392 114.238 185.725C113.638 186.042 112.888 186.2 111.988 186.2C111.338 186.2 110.713 186.092 110.113 185.875C109.513 185.642 108.98 185.3 108.513 184.85C108.047 184.383 107.672 183.8 107.388 183.1C107.122 182.383 106.988 181.542 106.988 180.575C106.988 179.758 107.088 178.983 107.288 178.25C107.505 177.5 107.797 176.817 108.163 176.2C108.547 175.567 108.988 175.017 109.488 174.55C110.005 174.083 110.555 173.708 111.138 173.425H107.188C107.138 173.325 107.088 173.208 107.038 173.075C107.005 172.942 106.988 172.792 106.988 172.625C106.988 172.325 107.072 172.117 107.238 172C107.405 171.883 107.622 171.825 107.888 171.825H120.538C121.205 171.825 121.697 171.658 122.013 171.325C122.33 170.992 122.488 170.55 122.488 170C122.488 169.333 122.305 168.733 121.938 168.2C122.022 168.033 122.138 167.9 122.288 167.8C122.455 167.683 122.655 167.625 122.888 167.625C123.322 167.625 123.663 167.875 123.913 168.375C124.163 168.875 124.288 169.458 124.288 170.125C124.288 171.242 123.972 172.075 123.338 172.625C122.722 173.158 121.888 173.425 120.838 173.425H120.113C120.713 173.708 121.263 174.092 121.763 174.575C122.28 175.042 122.722 175.592 123.088 176.225C123.472 176.858 123.763 177.55 123.963 178.3C124.18 179.033 124.288 179.8 124.288 180.6C124.288 181.55 124.163 182.383 123.913 183.1C123.663 183.8 123.322 184.383 122.888 184.85C122.455 185.3 121.938 185.642 121.338 185.875C120.755 186.092 120.113 186.2 119.413 186.2ZM112.163 184.55C112.913 184.55 113.53 184.342 114.013 183.925C114.497 183.508 114.738 182.808 114.738 181.825V180.75C115.005 180.567 115.305 180.475 115.638 180.475C115.972 180.475 116.272 180.567 116.538 180.75V181.825C116.538 182.675 116.788 183.342 117.288 183.825C117.788 184.308 118.463 184.55 119.313 184.55C120.213 184.55 120.947 184.233 121.513 183.6C122.08 182.95 122.363 181.883 122.363 180.4C122.363 179.55 122.222 178.733 121.938 177.95C121.655 177.167 121.263 176.467 120.763 175.85C120.263 175.217 119.663 174.692 118.963 174.275C118.28 173.858 117.522 173.575 116.688 173.425H114.588C113.755 173.575 112.988 173.858 112.288 174.275C111.605 174.692 111.013 175.208 110.513 175.825C110.013 176.442 109.622 177.142 109.338 177.925C109.055 178.692 108.913 179.5 108.913 180.35C108.913 181.083 108.997 181.717 109.163 182.25C109.347 182.767 109.588 183.2 109.888 183.55C110.188 183.883 110.53 184.133 110.913 184.3C111.313 184.467 111.73 184.55 112.163 184.55ZM144.405 171.825C145.072 171.825 145.564 171.658 145.88 171.325C146.197 170.992 146.355 170.55 146.355 170C146.355 169.333 146.172 168.733 145.805 168.2C145.889 168.033 146.005 167.9 146.155 167.8C146.322 167.683 146.522 167.625 146.755 167.625C147.189 167.625 147.53 167.875 147.78 168.375C148.03 168.875 148.155 169.458 148.155 170.125C148.155 171.242 147.839 172.075 147.205 172.625C146.589 173.158 145.755 173.425 144.705 173.425H141.955V176.225H147.955C148.005 176.325 148.047 176.442 148.08 176.575C148.13 176.708 148.155 176.858 148.155 177.025C148.155 177.325 148.072 177.533 147.905 177.65C147.739 177.767 147.522 177.825 147.255 177.825H144.78C145.43 178.158 145.939 178.642 146.305 179.275C146.689 179.892 146.88 180.583 146.88 181.35C146.88 182.067 146.739 182.725 146.455 183.325C146.189 183.925 145.805 184.442 145.305 184.875C144.805 185.292 144.197 185.617 143.48 185.85C142.78 186.083 141.997 186.2 141.13 186.2C140.314 186.2 139.547 186.092 138.83 185.875C138.13 185.642 137.514 185.325 136.98 184.925C136.464 184.508 136.055 184 135.755 183.4C135.455 182.8 135.305 182.125 135.305 181.375C135.305 180.525 135.489 179.808 135.855 179.225C136.239 178.625 136.722 178.158 137.305 177.825H134.23C134.18 177.725 134.13 177.608 134.08 177.475C134.047 177.342 134.03 177.192 134.03 177.025C134.03 176.725 134.114 176.517 134.28 176.4C134.447 176.283 134.664 176.225 134.93 176.225H140.155V173.425H134.23C134.18 173.325 134.13 173.208 134.08 173.075C134.047 172.942 134.03 172.792 134.03 172.625C134.03 172.325 134.114 172.117 134.28 172C134.447 171.883 134.664 171.825 134.93 171.825H144.405ZM141.105 177.775C140.539 177.775 140.005 177.858 139.505 178.025C139.022 178.175 138.597 178.4 138.23 178.7C137.864 179 137.572 179.367 137.355 179.8C137.155 180.233 137.055 180.725 137.055 181.275C137.055 181.808 137.164 182.283 137.38 182.7C137.597 183.117 137.897 183.475 138.28 183.775C138.664 184.058 139.105 184.283 139.605 184.45C140.105 184.6 140.647 184.675 141.23 184.675C141.797 184.675 142.314 184.6 142.78 184.45C143.264 184.283 143.68 184.05 144.03 183.75C144.38 183.45 144.647 183.092 144.83 182.675C145.03 182.258 145.13 181.792 145.13 181.275C145.13 180.758 145.022 180.283 144.805 179.85C144.589 179.417 144.297 179.05 143.93 178.75C143.564 178.433 143.139 178.192 142.655 178.025C142.172 177.858 141.655 177.775 141.105 177.775ZM162.699 186.2C161.849 186.2 161.108 186.042 160.474 185.725C159.841 185.392 159.333 184.933 158.949 184.35C158.616 184.933 158.141 185.392 157.524 185.725C156.924 186.042 156.174 186.2 155.274 186.2C154.624 186.2 153.999 186.092 153.399 185.875C152.799 185.642 152.266 185.3 151.799 184.85C151.333 184.383 150.958 183.8 150.674 183.1C150.408 182.383 150.274 181.542 150.274 180.575C150.274 179.758 150.374 178.983 150.574 178.25C150.791 177.5 151.083 176.817 151.449 176.2C151.833 175.567 152.274 175.017 152.774 174.55C153.291 174.083 153.841 173.708 154.424 173.425H150.474C150.424 173.325 150.374 173.208 150.324 173.075C150.291 172.942 150.274 172.792 150.274 172.625C150.274 172.325 150.358 172.117 150.524 172C150.691 171.883 150.908 171.825 151.174 171.825H163.824C164.491 171.825 164.983 171.658 165.299 171.325C165.616 170.992 165.774 170.55 165.774 170C165.774 169.333 165.591 168.733 165.224 168.2C165.308 168.033 165.424 167.9 165.574 167.8C165.741 167.683 165.941 167.625 166.174 167.625C166.608 167.625 166.949 167.875 167.199 168.375C167.449 168.875 167.574 169.458 167.574 170.125C167.574 171.242 167.258 172.075 166.624 172.625C166.008 173.158 165.174 173.425 164.124 173.425H163.399C163.999 173.708 164.549 174.092 165.049 174.575C165.566 175.042 166.008 175.592 166.374 176.225C166.758 176.858 167.049 177.55 167.249 178.3C167.466 179.033 167.574 179.8 167.574 180.6C167.574 181.55 167.449 182.383 167.199 183.1C166.949 183.8 166.608 184.383 166.174 184.85C165.741 185.3 165.224 185.642 164.624 185.875C164.041 186.092 163.399 186.2 162.699 186.2ZM155.449 184.55C156.233 184.55 156.858 184.333 157.324 183.9C157.791 183.45 158.024 182.708 158.024 181.675V180.75C158.291 180.567 158.591 180.475 158.924 180.475C159.258 180.475 159.558 180.567 159.824 180.75V181.675C159.824 182.575 160.066 183.283 160.549 183.8C161.049 184.3 161.733 184.55 162.599 184.55C163.499 184.55 164.233 184.233 164.799 183.6C165.366 182.95 165.649 181.883 165.649 180.4C165.649 179.55 165.508 178.733 165.224 177.95C164.941 177.167 164.549 176.467 164.049 175.85C163.549 175.217 162.949 174.692 162.249 174.275C161.566 173.858 160.808 173.575 159.974 173.425H157.874C157.041 173.575 156.274 173.858 155.574 174.275C154.891 174.692 154.299 175.208 153.799 175.825C153.299 176.442 152.908 177.142 152.624 177.925C152.341 178.692 152.199 179.5 152.199 180.35C152.199 181.083 152.283 181.717 152.449 182.25C152.633 182.767 152.874 183.2 153.174 183.55C153.474 183.883 153.816 184.133 154.199 184.3C154.599 184.467 155.016 184.55 155.449 184.55ZM158.999 178.475C158.566 178.475 158.208 178.342 157.924 178.075C157.658 177.792 157.524 177.442 157.524 177.025C157.524 176.608 157.658 176.267 157.924 176C158.208 175.717 158.566 175.575 158.999 175.575C159.433 175.575 159.783 175.717 160.049 176C160.333 176.267 160.474 176.608 160.474 177.025C160.474 177.442 160.333 177.783 160.049 178.05C159.783 178.317 159.433 178.458 158.999 178.475ZM158.999 190.2C158.649 190.2 158.349 190.083 158.099 189.85C157.849 189.633 157.724 189.267 157.724 188.75C157.724 188.317 157.808 187.892 157.974 187.475C158.158 187.075 158.341 186.75 158.524 186.5C158.691 186.283 158.849 186.175 158.999 186.175C159.149 186.175 159.308 186.283 159.474 186.5C159.658 186.75 159.833 187.075 159.999 187.475C160.183 187.892 160.274 188.317 160.274 188.75C160.274 189.267 160.149 189.633 159.899 189.85C159.649 190.083 159.349 190.2 158.999 190.2ZM183.021 173.425C183.555 173.742 184.055 174.15 184.521 174.65C185.005 175.15 185.421 175.725 185.771 176.375C186.138 177.025 186.421 177.725 186.621 178.475C186.838 179.225 186.946 180.008 186.946 180.825C186.946 182.608 186.521 183.95 185.671 184.85C184.821 185.75 183.705 186.2 182.321 186.2C181.855 186.2 181.396 186.15 180.946 186.05C180.513 185.95 180.088 185.775 179.671 185.525C179.271 185.275 178.88 184.942 178.496 184.525C178.13 184.092 177.78 183.558 177.446 182.925L176.871 181.825C176.438 180.992 175.996 180.425 175.546 180.125C175.096 179.808 174.621 179.65 174.121 179.65C173.471 179.65 172.946 179.875 172.546 180.325C172.163 180.758 171.971 181.358 171.971 182.125C171.971 182.825 172.113 183.442 172.396 183.975C172.696 184.508 173.096 184.958 173.596 185.325C173.53 185.558 173.413 185.758 173.246 185.925C173.096 186.075 172.863 186.15 172.546 186.15C172.313 186.15 172.055 186.067 171.771 185.9C171.488 185.717 171.221 185.458 170.971 185.125C170.721 184.775 170.505 184.358 170.321 183.875C170.155 183.375 170.071 182.8 170.071 182.15C170.071 181.433 170.188 180.817 170.421 180.3C170.655 179.767 170.955 179.333 171.321 179C171.705 178.65 172.13 178.392 172.596 178.225C173.08 178.058 173.563 177.975 174.046 177.975C175.163 177.975 176.055 178.242 176.721 178.775C177.405 179.308 178.021 180.092 178.571 181.125L179.321 182.525C179.605 183.058 179.988 183.533 180.471 183.95C180.971 184.35 181.58 184.55 182.296 184.55C183.13 184.55 183.788 184.233 184.271 183.6C184.771 182.967 185.021 182.033 185.021 180.8C185.021 179.733 184.838 178.767 184.471 177.9C184.105 177.033 183.638 176.283 183.071 175.65C182.505 175 181.88 174.492 181.196 174.125C180.513 173.742 179.863 173.508 179.246 173.425H169.896C169.846 173.325 169.796 173.208 169.746 173.075C169.713 172.942 169.696 172.792 169.696 172.625C169.696 172.325 169.78 172.117 169.946 172C170.113 171.883 170.33 171.825 170.596 171.825H182.971C183.638 171.825 184.13 171.658 184.446 171.325C184.763 170.992 184.921 170.55 184.921 170C184.921 169.333 184.738 168.733 184.371 168.2C184.455 168.033 184.571 167.9 184.721 167.8C184.888 167.683 185.088 167.625 185.321 167.625C185.755 167.625 186.096 167.875 186.346 168.375C186.596 168.875 186.721 169.458 186.721 170.125C186.721 171.242 186.405 172.075 185.771 172.625C185.155 173.158 184.321 173.425 183.271 173.425H183.021ZM203.678 190.75C202.945 190.75 202.22 190.667 201.503 190.5C200.786 190.333 200.145 190.125 199.578 189.875C199.028 189.625 198.578 189.35 198.228 189.05C197.895 188.75 197.728 188.467 197.728 188.2C197.728 187.933 197.82 187.717 198.003 187.55C198.203 187.383 198.453 187.283 198.753 187.25C198.953 187.45 199.186 187.65 199.453 187.85C199.72 188.067 200.045 188.267 200.428 188.45C200.828 188.633 201.286 188.783 201.803 188.9C202.336 189.017 202.961 189.075 203.678 189.075C204.828 189.075 205.861 188.933 206.778 188.65C207.711 188.383 208.503 187.967 209.153 187.4C209.803 186.833 210.303 186.117 210.653 185.25C211.003 184.367 211.178 183.317 211.178 182.1C211.178 180.6 210.936 179.35 210.453 178.35C209.97 177.333 209.328 176.583 208.528 176.1C208.528 175.783 208.603 175.517 208.753 175.3C208.92 175.067 209.161 174.95 209.478 174.95C209.695 174.95 209.936 175.017 210.203 175.15C210.47 175.283 210.753 175.508 211.053 175.825C211.303 176.125 211.545 176.458 211.778 176.825C212.028 177.175 212.245 177.6 212.428 178.1C212.628 178.583 212.786 179.158 212.903 179.825C213.02 180.475 213.078 181.233 213.078 182.1C213.078 183.517 212.861 184.767 212.428 185.85C211.995 186.933 211.37 187.833 210.553 188.55C209.753 189.283 208.77 189.833 207.603 190.2C206.436 190.567 205.128 190.75 203.678 190.75ZM194.303 186.2C193.586 186.2 192.936 186.1 192.353 185.9C191.77 185.683 191.27 185.383 190.853 185C190.436 184.617 190.111 184.158 189.878 183.625C189.645 183.075 189.528 182.458 189.528 181.775C189.528 181.175 189.62 180.625 189.803 180.125C189.986 179.625 190.253 179.192 190.603 178.825C190.953 178.458 191.378 178.175 191.878 177.975C192.395 177.775 192.978 177.675 193.628 177.675C194.211 177.675 194.645 177.783 194.928 178C195.228 178.2 195.378 178.45 195.378 178.75C195.378 178.95 195.328 179.133 195.228 179.3C195.145 179.45 195.036 179.567 194.903 179.65C194.736 179.567 194.545 179.5 194.328 179.45C194.128 179.383 193.895 179.35 193.628 179.35C193.045 179.35 192.528 179.55 192.078 179.95C191.645 180.333 191.428 180.942 191.428 181.775C191.428 182.625 191.695 183.3 192.228 183.8C192.761 184.3 193.478 184.55 194.378 184.55C195.278 184.55 196.036 184.308 196.653 183.825C197.27 183.325 197.578 182.617 197.578 181.7V180.775C197.811 180.592 198.12 180.5 198.503 180.5C198.853 180.5 199.145 180.592 199.378 180.775V181.7C199.378 182.2 199.461 182.633 199.628 183C199.811 183.367 200.045 183.667 200.328 183.9C200.611 184.117 200.928 184.283 201.278 184.4C201.645 184.5 202.02 184.55 202.403 184.55C204.503 184.55 205.553 183.2 205.553 180.5C205.553 179.717 205.411 178.942 205.128 178.175C204.861 177.408 204.486 176.708 204.003 176.075C203.52 175.442 202.936 174.892 202.253 174.425C201.586 173.958 200.845 173.625 200.028 173.425H189.703C189.653 173.325 189.603 173.208 189.553 173.075C189.52 172.942 189.503 172.792 189.503 172.625C189.503 172.325 189.586 172.117 189.753 172C189.92 171.883 190.136 171.825 190.403 171.825H203.453C204.12 171.825 204.611 171.658 204.928 171.325C205.245 170.992 205.403 170.55 205.403 170C205.403 169.333 205.22 168.733 204.853 168.2C204.936 168.033 205.053 167.9 205.203 167.8C205.37 167.683 205.57 167.625 205.803 167.625C206.236 167.625 206.578 167.875 206.828 168.375C207.078 168.875 207.203 169.458 207.203 170.125C207.203 171.242 206.886 172.075 206.253 172.625C205.636 173.158 204.803 173.425 203.753 173.425H203.353C203.903 173.692 204.428 174.075 204.928 174.575C205.428 175.058 205.861 175.625 206.228 176.275C206.611 176.908 206.911 177.592 207.128 178.325C207.345 179.042 207.453 179.758 207.453 180.475C207.453 182.258 207.02 183.658 206.153 184.675C205.286 185.692 204.036 186.2 202.403 186.2C201.603 186.2 200.845 186.042 200.128 185.725C199.411 185.408 198.845 184.9 198.428 184.2C198.011 184.85 197.445 185.35 196.728 185.7C196.011 186.033 195.203 186.2 194.303 186.2ZM245.22 181.9C245.22 182.7 245.503 183.342 246.07 183.825C246.653 184.292 247.37 184.525 248.22 184.525C249.32 184.525 250.212 184.117 250.895 183.3C251.578 182.467 251.92 181.308 251.92 179.825C251.92 178.775 251.753 177.85 251.42 177.05C251.103 176.25 250.645 175.583 250.045 175.05C249.462 174.517 248.753 174.117 247.92 173.85C247.087 173.567 246.153 173.425 245.12 173.425H223.395C223.345 173.325 223.295 173.208 223.245 173.075C223.212 172.942 223.195 172.792 223.195 172.625C223.195 172.325 223.278 172.117 223.445 172C223.612 171.883 223.828 171.825 224.095 171.825H245.745C246.862 171.825 247.912 172.017 248.895 172.4C249.878 172.767 250.737 173.3 251.47 174C252.203 174.683 252.778 175.517 253.195 176.5C253.612 177.483 253.82 178.592 253.82 179.825C253.82 180.892 253.67 181.825 253.37 182.625C253.087 183.408 252.695 184.067 252.195 184.6C251.695 185.133 251.095 185.533 250.395 185.8C249.712 186.067 248.97 186.2 248.17 186.2C247.537 186.2 246.928 186.1 246.345 185.9C245.762 185.7 245.245 185.417 244.795 185.05C244.362 184.667 244.012 184.208 243.745 183.675C243.478 183.142 243.345 182.533 243.345 181.85C243.345 181.2 243.453 180.633 243.67 180.15C243.903 179.65 244.195 179.233 244.545 178.9C244.912 178.567 245.32 178.317 245.77 178.15C246.237 177.983 246.703 177.9 247.17 177.9C247.72 177.9 248.128 178 248.395 178.2C248.678 178.383 248.82 178.617 248.82 178.9C248.82 179.2 248.737 179.45 248.57 179.65C248.387 179.6 248.22 179.567 248.07 179.55C247.937 179.533 247.787 179.525 247.62 179.525C247.303 179.525 247.003 179.575 246.72 179.675C246.437 179.758 246.178 179.9 245.945 180.1C245.728 180.3 245.553 180.55 245.42 180.85C245.287 181.15 245.22 181.5 245.22 181.9ZM227.945 186.2C227.228 186.2 226.578 186.1 225.995 185.9C225.412 185.683 224.912 185.383 224.495 185C224.078 184.617 223.753 184.158 223.52 183.625C223.287 183.075 223.17 182.458 223.17 181.775C223.17 181.175 223.262 180.625 223.445 180.125C223.628 179.625 223.895 179.192 224.245 178.825C224.595 178.458 225.02 178.175 225.52 177.975C226.037 177.775 226.62 177.675 227.27 177.675C227.853 177.675 228.287 177.783 228.57 178C228.87 178.2 229.02 178.45 229.02 178.75C229.02 178.95 228.97 179.133 228.87 179.3C228.787 179.45 228.678 179.567 228.545 179.65C228.378 179.567 228.187 179.5 227.97 179.45C227.77 179.383 227.537 179.35 227.27 179.35C226.687 179.35 226.17 179.55 225.72 179.95C225.287 180.333 225.07 180.942 225.07 181.775C225.07 182.625 225.337 183.3 225.87 183.8C226.403 184.3 227.12 184.55 228.02 184.55C228.453 184.55 228.862 184.492 229.245 184.375C229.645 184.258 229.987 184.083 230.27 183.85C230.57 183.617 230.803 183.333 230.97 183C231.137 182.667 231.22 182.283 231.22 181.85V180.775C231.453 180.592 231.762 180.5 232.145 180.5C232.495 180.5 232.787 180.592 233.02 180.775V181.85C233.02 182.317 233.095 182.717 233.245 183.05C233.412 183.383 233.628 183.667 233.895 183.9C234.178 184.117 234.503 184.283 234.87 184.4C235.237 184.5 235.628 184.55 236.045 184.55C236.928 184.55 237.628 184.267 238.145 183.7C238.678 183.133 238.945 182.35 238.945 181.35C238.945 180.3 238.72 179.433 238.27 178.75C237.82 178.05 237.212 177.5 236.445 177.1C236.445 176.783 236.52 176.517 236.67 176.3C236.837 176.067 237.078 175.95 237.395 175.95C237.628 175.95 237.878 176.017 238.145 176.15C238.412 176.267 238.703 176.475 239.02 176.775C239.47 177.208 239.887 177.817 240.27 178.6C240.653 179.367 240.845 180.283 240.845 181.35C240.845 182.85 240.412 184.033 239.545 184.9C238.695 185.767 237.545 186.2 236.095 186.2C235.212 186.2 234.42 186.033 233.72 185.7C233.02 185.35 232.478 184.85 232.095 184.2C231.678 184.85 231.103 185.35 230.37 185.7C229.653 186.033 228.845 186.2 227.945 186.2ZM232.095 177.725C231.662 177.725 231.303 177.592 231.02 177.325C230.753 177.042 230.62 176.692 230.62 176.275C230.62 175.858 230.753 175.517 231.02 175.25C231.303 174.967 231.662 174.825 232.095 174.825C232.528 174.825 232.878 174.967 233.145 175.25C233.428 175.517 233.57 175.858 233.57 176.275C233.57 176.692 233.428 177.042 233.145 177.325C232.878 177.592 232.528 177.725 232.095 177.725ZM256.276 181.625C256.36 181.542 256.46 181.475 256.576 181.425C256.71 181.375 256.843 181.35 256.976 181.35C257.276 181.35 257.51 181.508 257.676 181.825C257.843 182.125 257.926 182.725 257.926 183.625C257.926 185.092 257.668 186.35 257.151 187.4C256.651 188.467 255.96 189.342 255.076 190.025C254.193 190.725 253.168 191.233 252.001 191.55C250.818 191.883 249.56 192.05 248.226 192.05C246.543 192.05 245.26 191.85 244.376 191.45C243.493 191.067 243.051 190.633 243.051 190.15C243.051 189.967 243.11 189.8 243.226 189.65C243.326 189.5 243.443 189.383 243.576 189.3C244.01 189.65 244.601 189.958 245.351 190.225C246.085 190.492 247.026 190.625 248.176 190.625C249.376 190.625 250.485 190.483 251.501 190.2C252.501 189.933 253.368 189.5 254.101 188.9C254.835 188.317 255.401 187.567 255.801 186.65C256.218 185.75 256.426 184.667 256.426 183.4C256.426 182.85 256.376 182.258 256.276 181.625ZM260.581 179.2C260.581 178.017 260.814 176.908 261.281 175.875C261.747 174.825 262.431 174.008 263.331 173.425H260.256C260.206 173.325 260.156 173.208 260.106 173.075C260.072 172.942 260.056 172.792 260.056 172.625C260.056 172.325 260.139 172.117 260.306 172C260.472 171.883 260.689 171.825 260.956 171.825H271.456C272.122 171.825 272.614 171.658 272.931 171.325C273.247 170.992 273.406 170.55 273.406 170C273.406 169.333 273.222 168.733 272.856 168.2C272.939 168.033 273.056 167.9 273.206 167.8C273.372 167.683 273.572 167.625 273.806 167.625C274.239 167.625 274.581 167.875 274.831 168.375C275.081 168.875 275.206 169.458 275.206 170.125C275.206 171.225 274.897 172.042 274.281 172.575C273.681 173.108 272.881 173.392 271.881 173.425C272.347 173.708 272.764 174.067 273.131 174.5C273.514 174.933 273.831 175.408 274.081 175.925C274.347 176.425 274.547 176.958 274.681 177.525C274.814 178.092 274.881 178.65 274.881 179.2C274.881 180.317 274.697 181.308 274.331 182.175C273.964 183.042 273.456 183.775 272.806 184.375C272.156 184.975 271.389 185.433 270.506 185.75C269.639 186.05 268.706 186.2 267.706 186.2C266.706 186.2 265.772 186.033 264.906 185.7C264.039 185.367 263.281 184.9 262.631 184.3C261.997 183.683 261.497 182.942 261.131 182.075C260.764 181.208 260.581 180.25 260.581 179.2ZM267.731 173.425C266.997 173.425 266.314 173.567 265.681 173.85C265.047 174.117 264.489 174.5 264.006 175C263.539 175.5 263.164 176.1 262.881 176.8C262.614 177.483 262.481 178.25 262.481 179.1C262.481 179.917 262.606 180.658 262.856 181.325C263.122 181.992 263.489 182.567 263.956 183.05C264.422 183.517 264.972 183.883 265.606 184.15C266.256 184.4 266.972 184.525 267.756 184.525C269.356 184.525 270.622 184.05 271.556 183.1C272.506 182.15 272.981 180.817 272.981 179.1C272.981 178.25 272.839 177.483 272.556 176.8C272.289 176.1 271.914 175.5 271.431 175C270.964 174.5 270.414 174.117 269.781 173.85C269.147 173.567 268.464 173.425 267.731 173.425ZM284.461 186.2C283.461 186.2 282.552 186.033 281.736 185.7C280.919 185.35 280.219 184.867 279.636 184.25C279.052 183.617 278.602 182.867 278.286 182C277.969 181.117 277.811 180.142 277.811 179.075C277.811 177.992 277.969 177.008 278.286 176.125C278.602 175.242 279.052 174.483 279.636 173.85C280.219 173.217 280.919 172.733 281.736 172.4C282.552 172.05 283.461 171.875 284.461 171.875C285.461 171.875 286.369 172.05 287.186 172.4C288.002 172.733 288.702 173.217 289.286 173.85C289.869 174.483 290.319 175.242 290.636 176.125C290.952 177.008 291.111 177.992 291.111 179.075C291.111 180.142 290.952 181.117 290.636 182C290.319 182.867 289.869 183.617 289.286 184.25C288.702 184.867 288.002 185.35 287.186 185.7C286.369 186.033 285.461 186.2 284.461 186.2ZM284.461 184.525C285.177 184.525 285.827 184.392 286.411 184.125C286.994 183.858 287.494 183.492 287.911 183.025C288.327 182.542 288.644 181.967 288.861 181.3C289.094 180.617 289.211 179.867 289.211 179.05C289.211 178.233 289.094 177.483 288.861 176.8C288.644 176.117 288.327 175.542 287.911 175.075C287.494 174.592 286.994 174.217 286.411 173.95C285.827 173.683 285.177 173.55 284.461 173.55C283.744 173.55 283.094 173.683 282.511 173.95C281.927 174.217 281.427 174.592 281.011 175.075C280.594 175.542 280.269 176.117 280.036 176.8C279.819 177.483 279.711 178.233 279.711 179.05C279.711 179.867 279.819 180.617 280.036 181.3C280.269 181.967 280.594 182.542 281.011 183.025C281.427 183.492 281.927 183.858 282.511 184.125C283.094 184.392 283.744 184.525 284.461 184.525ZM306.779 186.2C305.779 186.2 304.937 186.025 304.254 185.675C303.57 185.325 303.054 184.833 302.704 184.2C302.354 184.833 301.837 185.325 301.154 185.675C300.47 186.025 299.637 186.2 298.654 186.2C298.037 186.2 297.445 186.117 296.879 185.95C296.312 185.783 295.812 185.533 295.379 185.2C294.962 184.85 294.62 184.417 294.354 183.9C294.104 183.383 293.979 182.783 293.979 182.1C293.979 181.15 294.229 180.35 294.729 179.7C295.229 179.05 295.904 178.5 296.754 178.05L298.029 177.375C298.795 176.975 299.37 176.583 299.754 176.2C300.154 175.8 300.354 175.325 300.354 174.775C300.354 174.175 300.137 173.708 299.704 173.375C299.27 173.025 298.72 172.85 298.054 172.85C297.32 172.85 296.737 173.042 296.304 173.425C295.887 173.808 295.679 174.317 295.679 174.95C295.679 175.267 295.72 175.542 295.804 175.775C295.887 176.008 295.995 176.225 296.129 176.425C296.045 176.558 295.929 176.675 295.779 176.775C295.629 176.858 295.445 176.9 295.229 176.9C294.845 176.9 294.52 176.725 294.254 176.375C293.987 176.025 293.854 175.542 293.854 174.925C293.854 174.358 293.962 173.858 294.179 173.425C294.412 172.975 294.72 172.6 295.104 172.3C295.487 171.983 295.937 171.742 296.454 171.575C296.97 171.408 297.52 171.325 298.104 171.325C298.654 171.325 299.179 171.408 299.679 171.575C300.179 171.725 300.612 171.95 300.979 172.25C301.362 172.55 301.662 172.917 301.879 173.35C302.112 173.783 302.229 174.283 302.229 174.85C302.229 175.65 301.987 176.342 301.504 176.925C301.02 177.508 300.329 178.033 299.429 178.5L298.029 179.225C297.412 179.542 296.895 179.942 296.479 180.425C296.079 180.908 295.879 181.467 295.879 182.1C295.879 182.9 296.162 183.508 296.729 183.925C297.295 184.342 298.004 184.55 298.854 184.55C299.687 184.55 300.387 184.342 300.954 183.925C301.537 183.492 301.829 182.867 301.829 182.05V180.8C302.095 180.617 302.395 180.525 302.729 180.525C303.062 180.525 303.362 180.617 303.629 180.8V181.925C303.629 182.775 303.895 183.425 304.429 183.875C304.962 184.308 305.704 184.525 306.654 184.525C307.654 184.525 308.462 184.15 309.079 183.4C309.712 182.65 310.029 181.475 310.029 179.875C310.029 179.125 309.945 178.425 309.779 177.775C309.612 177.125 309.387 176.533 309.104 176C308.837 175.467 308.52 174.992 308.154 174.575C307.804 174.142 307.429 173.758 307.029 173.425H304.529C304.462 173.308 304.404 173.183 304.354 173.05C304.32 172.9 304.304 172.758 304.304 172.625C304.304 172.092 304.604 171.825 305.204 171.825H307.904C308.57 171.825 309.062 171.658 309.379 171.325C309.695 170.992 309.854 170.55 309.854 170C309.854 169.333 309.67 168.733 309.304 168.2C309.387 168.033 309.504 167.9 309.654 167.8C309.82 167.683 310.02 167.625 310.254 167.625C310.687 167.625 311.029 167.875 311.279 168.375C311.529 168.875 311.654 169.458 311.654 170.125C311.654 171.025 311.445 171.742 311.029 172.275C310.612 172.792 310.037 173.142 309.304 173.325C310.154 174.125 310.804 175.083 311.254 176.2C311.704 177.3 311.929 178.542 311.929 179.925C311.929 180.975 311.795 181.9 311.529 182.7C311.279 183.483 310.929 184.133 310.479 184.65C310.029 185.167 309.487 185.558 308.854 185.825C308.22 186.075 307.529 186.2 306.779 186.2ZM302.729 190.2C302.379 190.2 302.079 190.083 301.829 189.85C301.579 189.633 301.454 189.267 301.454 188.75C301.454 188.317 301.537 187.892 301.704 187.475C301.887 187.075 302.07 186.75 302.254 186.5C302.42 186.283 302.579 186.175 302.729 186.175C302.879 186.175 303.037 186.283 303.204 186.5C303.387 186.75 303.562 187.075 303.729 187.475C303.912 187.892 304.004 188.317 304.004 188.75C304.004 189.267 303.879 189.633 303.629 189.85C303.379 190.083 303.079 190.2 302.729 190.2ZM319.474 186.2C318.757 186.2 318.107 186.1 317.524 185.9C316.941 185.683 316.441 185.383 316.024 185C315.607 184.617 315.282 184.158 315.049 183.625C314.816 183.075 314.699 182.458 314.699 181.775C314.699 181.175 314.791 180.625 314.974 180.125C315.157 179.625 315.424 179.192 315.774 178.825C316.124 178.458 316.549 178.175 317.049 177.975C317.566 177.775 318.149 177.675 318.799 177.675C319.382 177.675 319.816 177.783 320.099 178C320.399 178.2 320.549 178.45 320.549 178.75C320.549 178.95 320.499 179.133 320.399 179.3C320.316 179.45 320.207 179.567 320.074 179.65C319.907 179.567 319.716 179.5 319.499 179.45C319.299 179.383 319.066 179.35 318.799 179.35C318.216 179.35 317.699 179.55 317.249 179.95C316.816 180.333 316.599 180.942 316.599 181.775C316.599 182.625 316.866 183.3 317.399 183.8C317.932 184.3 318.649 184.55 319.549 184.55C320.449 184.55 321.207 184.308 321.824 183.825C322.441 183.325 322.749 182.617 322.749 181.7V180.775C322.982 180.592 323.291 180.5 323.674 180.5C324.024 180.5 324.316 180.592 324.549 180.775V181.85C324.549 182.333 324.632 182.75 324.799 183.1C324.982 183.433 325.216 183.708 325.499 183.925C325.799 184.142 326.124 184.3 326.474 184.4C326.841 184.5 327.207 184.55 327.574 184.55C329.674 184.55 330.724 183.2 330.724 180.5C330.724 179.717 330.582 178.942 330.299 178.175C330.032 177.408 329.657 176.708 329.174 176.075C328.691 175.442 328.107 174.892 327.424 174.425C326.757 173.958 326.016 173.625 325.199 173.425H314.874C314.824 173.325 314.774 173.208 314.724 173.075C314.691 172.942 314.674 172.792 314.674 172.625C314.674 172.325 314.757 172.117 314.924 172C315.091 171.883 315.307 171.825 315.574 171.825H337.349C338.466 171.825 339.516 172.017 340.499 172.4C341.482 172.767 342.341 173.3 343.074 174C343.807 174.683 344.382 175.517 344.799 176.5C345.216 177.483 345.424 178.592 345.424 179.825C345.424 180.892 345.274 181.825 344.974 182.625C344.691 183.408 344.299 184.067 343.799 184.6C343.299 185.133 342.699 185.533 341.999 185.8C341.316 186.067 340.574 186.2 339.774 186.2C339.141 186.2 338.532 186.1 337.949 185.9C337.366 185.7 336.849 185.417 336.399 185.05C335.966 184.667 335.616 184.208 335.349 183.675C335.082 183.142 334.949 182.533 334.949 181.85C334.949 181.2 335.057 180.633 335.274 180.15C335.507 179.65 335.799 179.233 336.149 178.9C336.516 178.567 336.924 178.317 337.374 178.15C337.841 177.983 338.307 177.9 338.774 177.9C339.324 177.9 339.732 178 339.999 178.2C340.282 178.383 340.424 178.617 340.424 178.9C340.424 179.2 340.341 179.45 340.174 179.65C339.991 179.6 339.824 179.567 339.674 179.55C339.541 179.533 339.391 179.525 339.224 179.525C338.907 179.525 338.607 179.575 338.324 179.675C338.041 179.758 337.782 179.9 337.549 180.1C337.332 180.3 337.157 180.55 337.024 180.85C336.891 181.15 336.824 181.5 336.824 181.9C336.824 182.7 337.107 183.342 337.674 183.825C338.257 184.292 338.974 184.525 339.824 184.525C340.924 184.525 341.816 184.117 342.499 183.3C343.182 182.467 343.524 181.308 343.524 179.825C343.524 178.775 343.357 177.85 343.024 177.05C342.707 176.25 342.249 175.583 341.649 175.05C341.066 174.517 340.357 174.117 339.524 173.85C338.691 173.567 337.757 173.425 336.724 173.425H328.524C329.074 173.692 329.599 174.075 330.099 174.575C330.599 175.058 331.032 175.625 331.399 176.275C331.782 176.908 332.082 177.592 332.299 178.325C332.516 179.042 332.624 179.758 332.624 180.475C332.624 182.258 332.191 183.658 331.324 184.675C330.457 185.692 329.207 186.2 327.574 186.2C326.774 186.2 326.016 186.042 325.299 185.725C324.582 185.408 324.016 184.9 323.599 184.2C323.182 184.85 322.616 185.35 321.899 185.7C321.182 186.033 320.374 186.2 319.474 186.2ZM358.431 173.425C358.848 173.725 359.24 174.125 359.606 174.625C359.973 175.108 360.298 175.725 360.581 176.475C360.881 177.225 361.115 178.125 361.281 179.175C361.448 180.225 361.54 181.458 361.556 182.875C361.906 183.308 362.398 183.692 363.031 184.025C363.665 184.358 364.398 184.525 365.231 184.525C365.848 184.525 366.415 184.408 366.931 184.175C367.465 183.942 367.915 183.608 368.281 183.175C368.648 182.725 368.931 182.183 369.131 181.55C369.348 180.9 369.456 180.175 369.456 179.375C369.456 178.325 369.323 177.417 369.056 176.65C368.79 175.867 368.44 175.2 368.006 174.65C367.59 174.1 367.115 173.658 366.581 173.325C366.048 172.992 365.515 172.75 364.981 172.6C364.981 172.233 365.056 171.933 365.206 171.7C365.356 171.45 365.64 171.325 366.056 171.325C366.456 171.325 366.956 171.492 367.556 171.825C368.173 172.142 368.756 172.633 369.306 173.3C369.873 173.967 370.356 174.808 370.756 175.825C371.156 176.842 371.356 178.042 371.356 179.425C371.356 180.475 371.206 181.425 370.906 182.275C370.606 183.108 370.19 183.817 369.656 184.4C369.14 184.983 368.506 185.433 367.756 185.75C367.023 186.05 366.223 186.2 365.356 186.2C364.49 186.2 363.748 186.083 363.131 185.85C362.515 185.6 361.99 185.3 361.556 184.95V186.075C361.323 186.192 361.04 186.25 360.706 186.25C360.073 186.25 359.756 185.933 359.756 185.3V182.7C359.756 181.283 359.656 180 359.456 178.85C359.273 177.7 358.981 176.725 358.581 175.925C358.181 175.125 357.673 174.508 357.056 174.075C356.456 173.642 355.74 173.425 354.906 173.425C354.073 173.425 353.348 173.658 352.731 174.125C352.131 174.592 351.631 175.242 351.231 176.075C350.831 176.892 350.531 177.875 350.331 179.025C350.131 180.158 350.031 181.4 350.031 182.75V186.075C349.798 186.192 349.515 186.25 349.181 186.25C348.548 186.25 348.231 185.933 348.231 185.3V183.175C348.231 181.658 348.315 180.358 348.481 179.275C348.648 178.192 348.873 177.267 349.156 176.5C349.456 175.733 349.79 175.108 350.156 174.625C350.54 174.142 350.94 173.742 351.356 173.425H347.856C347.806 173.325 347.756 173.208 347.706 173.075C347.673 172.942 347.656 172.792 347.656 172.625C347.656 172.325 347.74 172.117 347.906 172C348.073 171.883 348.29 171.825 348.556 171.825H358.656C359.323 171.825 359.815 171.658 360.131 171.325C360.448 170.992 360.606 170.55 360.606 170C360.606 169.333 360.423 168.733 360.056 168.2C360.14 168.033 360.256 167.9 360.406 167.8C360.573 167.683 360.773 167.625 361.006 167.625C361.44 167.625 361.781 167.875 362.031 168.375C362.281 168.875 362.406 169.458 362.406 170.125C362.406 171.242 362.09 172.075 361.456 172.625C360.84 173.158 360.006 173.425 358.956 173.425H358.431ZM380.626 179.625C379.11 179.625 378.351 179.183 378.351 178.3C378.351 177.967 378.435 177.667 378.601 177.4H380.951C381.901 177.4 382.593 177.233 383.026 176.9C383.46 176.567 383.676 176.058 383.676 175.375C383.676 175.008 383.585 174.65 383.401 174.3C383.235 173.933 382.976 173.642 382.626 173.425H374.376C374.326 173.325 374.276 173.208 374.226 173.075C374.193 172.942 374.176 172.792 374.176 172.625C374.176 172.325 374.26 172.117 374.426 172C374.593 171.883 374.81 171.825 375.076 171.825H384.151C384.818 171.825 385.31 171.658 385.626 171.325C385.943 170.992 386.101 170.55 386.101 170C386.101 169.333 385.918 168.733 385.551 168.2C385.635 168.033 385.751 167.9 385.901 167.8C386.068 167.683 386.268 167.625 386.501 167.625C386.935 167.625 387.276 167.875 387.526 168.375C387.776 168.875 387.901 169.458 387.901 170.125C387.901 171.225 387.601 172.042 387.001 172.575C386.401 173.108 385.601 173.392 384.601 173.425C384.885 173.675 385.11 173.983 385.276 174.35C385.443 174.7 385.526 175.075 385.526 175.475C385.526 175.975 385.46 176.392 385.326 176.725C385.21 177.058 385.085 177.317 384.951 177.5C385.718 177.833 386.351 178.325 386.851 178.975C387.368 179.625 387.626 180.458 387.626 181.475C387.626 182.208 387.468 182.867 387.151 183.45C386.851 184.017 386.426 184.508 385.876 184.925C385.326 185.342 384.668 185.658 383.901 185.875C383.135 186.092 382.293 186.2 381.376 186.2C380.226 186.2 379.193 186.033 378.276 185.7C377.376 185.35 376.61 184.9 375.976 184.35C375.343 183.783 374.86 183.142 374.526 182.425C374.193 181.692 374.026 180.933 374.026 180.15C374.026 179.667 374.135 179.333 374.351 179.15C374.585 178.95 374.843 178.85 375.126 178.85C375.26 178.85 375.376 178.867 375.476 178.9C375.576 178.917 375.676 178.942 375.776 178.975C375.776 179.908 375.91 180.725 376.176 181.425C376.46 182.108 376.851 182.683 377.351 183.15C377.851 183.6 378.443 183.942 379.126 184.175C379.826 184.408 380.593 184.525 381.426 184.525C382.076 184.525 382.668 184.45 383.201 184.3C383.735 184.133 384.185 183.908 384.551 183.625C384.935 183.325 385.226 182.983 385.426 182.6C385.626 182.2 385.726 181.767 385.726 181.3C385.726 180.667 385.56 180.125 385.226 179.675C384.91 179.225 384.493 178.883 383.976 178.65C383.593 178.933 383.126 179.167 382.576 179.35C382.026 179.533 381.376 179.625 380.626 179.625ZM378.862 194.35C378.829 194.267 378.796 194.175 378.762 194.075C378.729 193.975 378.712 193.858 378.712 193.725C378.712 193.492 378.779 193.325 378.912 193.225C379.046 193.142 379.212 193.1 379.412 193.1H384.662C384.496 192.883 384.362 192.65 384.262 192.4C384.162 192.15 384.112 191.867 384.112 191.55C384.112 190.7 384.404 190.017 384.987 189.5C385.554 188.983 386.287 188.725 387.187 188.725C388.121 188.725 388.862 188.983 389.412 189.5C389.962 190.017 390.237 190.7 390.237 191.55C390.237 192.4 389.946 193.075 389.362 193.575C388.779 194.092 388.021 194.35 387.087 194.35H378.862ZM387.212 193.125C387.696 193.125 388.079 192.983 388.362 192.7C388.646 192.417 388.787 192.033 388.787 191.55C388.787 191.1 388.646 190.725 388.362 190.425C388.079 190.125 387.696 189.975 387.212 189.975C386.696 189.975 386.296 190.117 386.012 190.4C385.712 190.683 385.562 191.067 385.562 191.55C385.562 192 385.712 192.375 386.012 192.675C386.296 192.975 386.696 193.125 387.212 193.125ZM402.787 186.2C401.937 186.2 401.196 186.042 400.562 185.725C399.929 185.392 399.421 184.933 399.037 184.35C398.704 184.933 398.229 185.392 397.612 185.725C397.012 186.042 396.262 186.2 395.362 186.2C394.712 186.2 394.087 186.092 393.487 185.875C392.887 185.642 392.354 185.3 391.887 184.85C391.421 184.383 391.046 183.8 390.762 183.1C390.496 182.383 390.362 181.542 390.362 180.575C390.362 179.758 390.462 178.983 390.662 178.25C390.879 177.5 391.171 176.817 391.537 176.2C391.921 175.567 392.362 175.017 392.862 174.55C393.379 174.083 393.929 173.708 394.512 173.425H390.562C390.512 173.325 390.462 173.208 390.412 173.075C390.379 172.942 390.362 172.792 390.362 172.625C390.362 172.325 390.446 172.117 390.612 172C390.779 171.883 390.996 171.825 391.262 171.825H403.687C404.487 171.825 405.104 171.658 405.537 171.325C405.987 170.975 406.212 170.492 406.212 169.875C406.212 169.425 406.071 169.067 405.787 168.8C405.521 168.517 405.171 168.375 404.737 168.375C404.371 168.375 404.046 168.483 403.762 168.7C403.479 168.917 403.337 169.25 403.337 169.7C403.337 169.85 403.354 170.008 403.387 170.175C403.337 170.208 403.254 170.25 403.137 170.3C403.021 170.35 402.871 170.375 402.687 170.375C402.371 170.375 402.112 170.283 401.912 170.1C401.729 169.917 401.637 169.625 401.637 169.225C401.637 168.475 401.921 167.883 402.487 167.45C403.071 167.017 403.804 166.8 404.687 166.8C405.137 166.8 405.562 166.875 405.962 167.025C406.362 167.158 406.704 167.358 406.987 167.625C407.287 167.892 407.521 168.225 407.687 168.625C407.871 169.008 407.962 169.45 407.962 169.95C407.962 171.1 407.571 171.967 406.787 172.55C406.021 173.133 405.012 173.425 403.762 173.425H403.487C404.071 173.708 404.612 174.092 405.112 174.575C405.629 175.042 406.071 175.592 406.437 176.225C406.821 176.858 407.121 177.55 407.337 178.3C407.554 179.033 407.662 179.8 407.662 180.6C407.662 181.55 407.537 182.383 407.287 183.1C407.037 183.8 406.696 184.383 406.262 184.85C405.829 185.3 405.312 185.642 404.712 185.875C404.129 186.092 403.487 186.2 402.787 186.2ZM395.537 184.55C396.321 184.55 396.946 184.333 397.412 183.9C397.879 183.45 398.112 182.708 398.112 181.675V180.75C398.379 180.567 398.679 180.475 399.012 180.475C399.346 180.475 399.646 180.567 399.912 180.75V181.825C399.912 182.675 400.162 183.342 400.662 183.825C401.162 184.308 401.837 184.55 402.687 184.55C403.587 184.55 404.321 184.233 404.887 183.6C405.454 182.95 405.737 181.883 405.737 180.4C405.737 179.55 405.596 178.733 405.312 177.95C405.029 177.167 404.637 176.467 404.137 175.85C403.637 175.217 403.037 174.692 402.337 174.275C401.654 173.858 400.896 173.575 400.062 173.425H397.962C397.129 173.575 396.362 173.858 395.662 174.275C394.979 174.692 394.387 175.208 393.887 175.825C393.387 176.442 392.996 177.142 392.712 177.925C392.429 178.692 392.287 179.5 392.287 180.35C392.287 181.083 392.371 181.717 392.537 182.25C392.721 182.767 392.962 183.2 393.262 183.55C393.562 183.883 393.904 184.133 394.287 184.3C394.687 184.467 395.104 184.55 395.537 184.55Z" fill="#ABABAB"/>
</svg>
