<svg width="461" height="214" viewBox="0 0 461 214" fill="none" xmlns="http://www.w3.org/2000/svg">
<path d="M86.8056 86.96C83.799 86.96 81.1223 86.4833 78.7756 85.53C79.509 88.0967 80.7923 90.4433 82.6256 92.57C84.459 94.6967 86.659 96.53 89.2256 98.07C91.8656 99.61 94.799 100.82 98.0256 101.7C101.252 102.507 104.699 102.91 108.366 102.91C111.886 102.91 115.076 102.617 117.936 102.03C120.869 101.443 123.362 100.6 125.416 99.5C127.542 98.4 129.156 97.1167 130.256 95.65C131.429 94.11 132.016 92.46 132.016 90.7C132.016 89.82 131.869 89.05 131.576 88.39C130.476 88.5367 129.156 88.6467 127.616 88.72C126.149 88.7933 124.609 88.83 122.996 88.83H106.166C104.992 86.9233 104.406 84.7233 104.406 82.23C104.406 79.6633 104.956 77.83 106.056 76.73C107.229 75.63 108.769 75.0433 110.676 74.97L116.726 75.19C115.699 73.9433 114.892 72.6233 114.306 71.23C113.719 69.7633 113.426 68.0767 113.426 66.17C113.426 63.8233 113.902 61.6967 114.856 59.79C115.882 57.81 117.276 56.16 119.036 54.84C120.869 53.4467 122.996 52.3833 125.416 51.65C127.909 50.9167 130.586 50.55 133.446 50.55C136.526 50.55 139.349 50.99 141.916 51.87C144.556 52.6767 146.792 53.85 148.626 55.39C150.459 56.93 151.889 58.8 152.916 61C153.942 63.1267 154.456 65.51 154.456 68.15C154.456 71.23 153.796 73.9067 152.476 76.18C151.156 78.4533 149.322 80.3233 146.976 81.79C148.149 82.89 149.066 84.2833 149.726 85.97C150.459 87.6567 150.826 89.5633 150.826 91.69C150.826 95.5033 149.762 99.0233 147.636 102.25C145.509 105.477 142.576 108.3 138.836 110.72C135.096 113.067 130.659 114.9 125.526 116.22C120.392 117.54 114.782 118.2 108.696 118.2C101.069 118.2 94.249 117.137 88.2356 115.01C82.2956 112.81 77.2723 109.84 73.1656 106.1C69.059 102.287 65.9423 97.85 63.8156 92.79C61.689 87.6567 60.6256 82.1567 60.6256 76.29C60.6256 72.11 61.2123 68.4433 62.3856 65.29C63.559 62.0633 65.1356 59.35 67.1156 57.15C69.169 54.95 71.589 53.3 74.3756 52.2C77.1623 51.1 80.169 50.55 83.3956 50.55C86.8423 50.55 89.8856 51.1 92.5256 52.2C95.1656 53.2267 97.3656 54.62 99.1256 56.38C100.886 58.14 102.206 60.1933 103.086 62.54C103.966 64.8133 104.406 67.16 104.406 69.58C104.406 72.0733 103.966 74.3833 103.086 76.51C102.279 78.6367 101.106 80.47 99.5656 82.01C98.0256 83.55 96.1556 84.76 93.9556 85.64C91.829 86.52 89.4456 86.96 86.8056 86.96ZM83.0656 75.08C84.679 75.08 85.9623 74.6033 86.9156 73.65C87.869 72.6233 88.3456 71.3033 88.3456 69.69C88.3456 68.0767 87.869 66.7567 86.9156 65.73C85.9623 64.7033 84.679 64.19 83.0656 64.19C81.4523 64.19 80.169 64.7033 79.2156 65.73C78.2623 66.7567 77.7856 68.0767 77.7856 69.69C77.7856 71.3033 78.2623 72.6233 79.2156 73.65C80.169 74.6033 81.4523 75.08 83.0656 75.08ZM128.826 69.03C128.826 70.4233 129.229 71.67 130.036 72.77C130.842 73.7967 131.979 74.5667 133.446 75.08C135.132 74.64 136.416 73.87 137.296 72.77C138.176 71.67 138.616 70.4233 138.616 69.03C138.616 67.71 138.176 66.5733 137.296 65.62C136.489 64.6667 135.316 64.19 133.776 64.19C132.236 64.19 131.026 64.6667 130.146 65.62C129.266 66.5 128.826 67.6367 128.826 69.03ZM196.741 118.2C191.168 118.2 186.181 117.393 181.781 115.78C177.381 114.167 173.678 111.93 170.671 109.07C167.665 106.137 165.355 102.69 163.741 98.73C162.128 94.77 161.321 90.48 161.321 85.86C161.321 82.56 161.835 79.26 162.861 75.96C163.961 72.5867 165.721 69.58 168.141 66.94H160.551C159.965 66.06 159.488 65.0333 159.121 63.86C158.755 62.6867 158.571 61.4033 158.571 60.01C158.571 57.4433 159.121 55.61 160.221 54.51C161.395 53.3367 162.898 52.75 164.731 52.75H211.921C213.828 52.75 215.185 52.2733 215.991 51.32C216.798 50.3667 217.201 49.1567 217.201 47.69C217.201 46.0033 216.835 44.3533 216.101 42.74C216.981 42.0067 218.118 41.3467 219.511 40.76C220.905 40.1733 222.481 39.88 224.241 39.88C227.175 39.88 229.595 40.87 231.501 42.85C233.481 44.7567 234.471 47.6167 234.471 51.43C234.471 54.73 233.591 57.7367 231.831 60.45C230.071 63.09 227.175 64.9233 223.141 65.95C225.635 68.5167 227.578 71.6333 228.971 75.3C230.365 78.9667 231.061 82.4867 231.061 85.86C231.061 90.48 230.255 94.77 228.641 98.73C227.101 102.69 224.828 106.137 221.821 109.07C218.888 111.93 215.295 114.167 211.041 115.78C206.861 117.393 202.095 118.2 196.741 118.2ZM195.531 66.5C193.185 66.5 191.058 66.9767 189.151 67.93C187.318 68.8833 185.741 70.2033 184.421 71.89C183.101 73.5033 182.075 75.4467 181.341 77.72C180.608 79.92 180.241 82.34 180.241 84.98C180.241 87.6933 180.645 90.15 181.451 92.35C182.258 94.55 183.358 96.4567 184.751 98.07C186.218 99.61 187.905 100.82 189.811 101.7C191.791 102.507 193.955 102.91 196.301 102.91C198.795 102.91 200.995 102.47 202.901 101.59C204.881 100.637 206.531 99.3533 207.851 97.74C209.245 96.1267 210.308 94.2567 211.041 92.13C211.775 89.93 212.141 87.5467 212.141 84.98C212.141 82.2667 211.738 79.81 210.931 77.61C210.125 75.3367 209.061 73.43 207.741 71.89C206.421 70.2767 204.845 69.03 203.011 68.15C201.251 67.1967 199.381 66.6467 197.401 66.5H195.531ZM271.409 118.2C266.349 118.2 261.802 117.393 257.769 115.78C253.735 114.167 250.289 111.93 247.429 109.07C244.642 106.137 242.479 102.69 240.939 98.73C239.399 94.6967 238.629 90.2967 238.629 85.53C238.629 80.7633 239.399 76.4 240.939 72.44C242.479 68.4067 244.642 64.9233 247.429 61.99C250.289 59.0567 253.735 56.7833 257.769 55.17C261.802 53.5567 266.349 52.75 271.409 52.75C276.469 52.75 281.015 53.5567 285.049 55.17C289.082 56.7833 292.492 59.0567 295.279 61.99C298.139 64.9233 300.339 68.4067 301.879 72.44C303.419 76.4 304.189 80.7633 304.189 85.53C304.189 90.2967 303.419 94.6967 301.879 98.73C300.339 102.69 298.139 106.137 295.279 109.07C292.492 111.93 289.082 114.167 285.049 115.78C281.015 117.393 276.469 118.2 271.409 118.2ZM271.409 102.91C275.809 102.91 279.182 101.297 281.529 98.07C283.949 94.77 285.159 90.59 285.159 85.53C285.159 80.47 283.949 76.29 281.529 72.99C279.182 69.69 275.809 68.04 271.409 68.04C267.009 68.04 263.599 69.69 261.179 72.99C258.832 76.29 257.659 80.47 257.659 85.53C257.659 90.59 258.832 94.77 261.179 98.07C263.599 101.297 267.009 102.91 271.409 102.91ZM372.537 118.2C368.797 118.2 365.35 117.577 362.197 116.33C359.043 115.157 356.403 113.25 354.277 110.61C352.37 112.957 349.84 114.79 346.687 116.11C343.533 117.503 339.867 118.2 335.687 118.2C331.947 118.2 328.537 117.687 325.457 116.66C322.45 115.707 319.847 114.313 317.647 112.48C315.447 110.647 313.76 108.483 312.587 105.99C311.413 103.497 310.827 100.747 310.827 97.74C310.827 89.82 314.933 83.7333 323.147 79.48L331.177 75.3C333.23 74.2733 334.66 73.21 335.467 72.11C336.273 70.9367 336.677 69.6533 336.677 68.26C336.677 67.0133 336.347 66.0233 335.687 65.29C335.027 64.4833 334.037 64.08 332.717 64.08C331.177 64.08 330.04 64.5567 329.307 65.51C328.647 66.39 328.317 67.4533 328.317 68.7C328.317 69.5067 328.39 70.2033 328.537 70.79C328.683 71.3033 328.867 71.8533 329.087 72.44C328.427 73.1 327.327 73.7967 325.787 74.53C324.32 75.2633 322.56 75.63 320.507 75.63C317.573 75.63 315.227 74.8233 313.467 73.21C311.707 71.5233 310.827 69.1767 310.827 66.17C310.827 63.53 311.413 61.2567 312.587 59.35C313.833 57.37 315.447 55.72 317.427 54.4C319.48 53.08 321.79 52.1267 324.357 51.54C326.923 50.88 329.527 50.55 332.167 50.55C335.1 50.55 337.887 50.9167 340.527 51.65C343.167 52.3833 345.477 53.4833 347.457 54.95C349.437 56.4167 350.977 58.2867 352.077 60.56C353.25 62.8333 353.837 65.51 353.837 68.59C353.837 72.6233 352.883 76.1433 350.977 79.15C349.07 82.0833 346.357 84.5033 342.837 86.41L335.137 90.59C333.377 91.5433 332.057 92.5333 331.177 93.56C330.297 94.5133 329.857 95.76 329.857 97.3C329.857 98.9867 330.553 100.38 331.947 101.48C333.34 102.507 335.137 103.02 337.337 103.02C339.683 103.02 341.553 102.433 342.947 101.26C344.34 100.013 345.11 98.3267 345.257 96.2V90.92C346.283 90.26 347.567 89.6733 349.107 89.16C350.647 88.6467 352.37 88.39 354.277 88.39C356.183 88.39 357.907 88.6467 359.447 89.16C360.987 89.6733 362.27 90.26 363.297 90.92V95.43C363.297 97.7033 363.957 99.5367 365.277 100.93C366.67 102.25 368.54 102.91 370.887 102.91C373.893 102.91 376.13 101.737 377.597 99.39C379.137 96.97 379.907 93.1933 379.907 88.06C379.907 85.7867 379.613 83.5133 379.027 81.24C378.44 78.8933 377.597 76.7667 376.497 74.86C375.397 72.88 374.04 71.1933 372.427 69.8C370.813 68.4067 368.98 67.4533 366.927 66.94H361.207C360.693 66.06 360.253 65.0333 359.887 63.86C359.52 62.6867 359.337 61.3667 359.337 59.9C359.337 57.3333 359.887 55.5 360.987 54.4C362.16 53.3 363.7 52.75 365.607 52.75H378.037C379.943 52.75 381.3 52.2733 382.107 51.32C382.913 50.3667 383.317 49.1567 383.317 47.69C383.317 46.0033 382.95 44.3533 382.217 42.74C383.097 42.0067 384.233 41.3467 385.627 40.76C387.02 40.1733 388.597 39.88 390.357 39.88C393.29 39.88 395.71 40.87 397.617 42.85C399.597 44.7567 400.587 47.6167 400.587 51.43C400.587 54.8767 399.597 57.9567 397.617 60.67C395.71 63.3833 392.777 65.2167 388.817 66.17C390.137 67.3433 391.42 68.7367 392.667 70.35C393.913 71.9633 394.977 73.76 395.857 75.74C396.81 77.72 397.58 79.8467 398.167 82.12C398.753 84.3933 399.047 86.8133 399.047 89.38C399.047 98.7667 396.737 105.917 392.117 110.83C387.497 115.743 380.97 118.2 372.537 118.2ZM355.157 118.09C355.89 118.09 356.697 118.457 357.577 119.19C359.63 120.877 361.207 122.673 362.307 124.58C363.407 126.56 363.957 128.723 363.957 131.07C363.957 133.637 363.187 135.8 361.647 137.56C360.107 139.393 357.943 140.31 355.157 140.31C352.37 140.31 350.207 139.393 348.667 137.56C347.127 135.8 346.357 133.637 346.357 131.07C346.357 128.723 346.907 126.56 348.007 124.58C349.107 122.673 350.683 120.877 352.737 119.19C353.617 118.457 354.423 118.09 355.157 118.09Z" fill="white" fill-opacity="0.2"/>
<path d="M109.459 171.325C110.292 171.325 111.051 171.525 111.734 171.925C112.434 172.308 112.976 172.85 113.359 173.55C113.709 172.85 114.201 172.308 114.834 171.925C115.467 171.525 116.209 171.325 117.059 171.325C117.759 171.325 118.409 171.458 119.009 171.725C119.609 171.992 120.126 172.367 120.559 172.85C121.009 173.317 121.359 173.883 121.609 174.55C121.859 175.217 121.984 175.95 121.984 176.75C121.984 177.95 121.734 179.133 121.234 180.3C120.751 181.45 120.117 182.433 119.334 183.25C119.617 183.8 119.834 184.358 119.984 184.925C120.151 185.475 120.234 185.942 120.234 186.325C120.234 187.092 119.959 187.475 119.409 187.475C118.992 187.475 118.701 187.417 118.534 187.3C118.534 186.883 118.492 186.417 118.409 185.9C118.326 185.383 118.201 184.9 118.034 184.45C117.301 185 116.551 185.417 115.784 185.7C115.017 185.983 114.109 186.125 113.059 186.125C111.626 186.125 110.476 185.817 109.609 185.2C108.759 184.583 108.334 183.725 108.334 182.625C108.334 181.608 108.734 180.775 109.534 180.125C110.334 179.458 111.459 179.125 112.909 179.125C113.959 179.125 114.951 179.35 115.884 179.8C116.817 180.25 117.634 180.892 118.334 181.725C118.884 181.092 119.309 180.35 119.609 179.5C119.926 178.633 120.084 177.7 120.084 176.7C120.084 176.15 120.001 175.65 119.834 175.2C119.684 174.75 119.467 174.367 119.184 174.05C118.917 173.717 118.592 173.458 118.209 173.275C117.826 173.092 117.417 173 116.984 173C116.184 173 115.534 173.267 115.034 173.8C114.534 174.317 114.284 175.025 114.284 175.925V176.6C114.017 176.783 113.726 176.875 113.409 176.875C113.092 176.875 112.801 176.783 112.534 176.6V176.05C112.534 175.6 112.451 175.192 112.284 174.825C112.134 174.442 111.926 174.117 111.659 173.85C111.392 173.583 111.076 173.375 110.709 173.225C110.359 173.075 109.992 173 109.609 173C108.809 173 108.151 173.25 107.634 173.75C107.134 174.233 106.884 174.875 106.884 175.675C106.884 176.392 107.067 176.992 107.434 177.475C107.184 177.875 106.876 178.075 106.509 178.075C106.042 178.075 105.667 177.85 105.384 177.4C105.117 176.95 104.984 176.35 104.984 175.6C104.984 174.983 105.092 174.417 105.309 173.9C105.526 173.367 105.834 172.908 106.234 172.525C106.634 172.142 107.109 171.85 107.659 171.65C108.209 171.433 108.809 171.325 109.459 171.325ZM113.109 184.45C113.826 184.45 114.559 184.325 115.309 184.075C116.059 183.808 116.709 183.417 117.259 182.9C116.776 182.3 116.151 181.8 115.384 181.4C114.617 180.983 113.801 180.775 112.934 180.775C112.084 180.775 111.417 180.95 110.934 181.3C110.467 181.633 110.234 182.075 110.234 182.625C110.234 183.175 110.476 183.617 110.959 183.95C111.442 184.283 112.159 184.45 113.109 184.45ZM141.825 177.05C141.825 178.633 141.616 180 141.2 181.15C140.783 182.3 140.2 183.25 139.45 184C138.716 184.75 137.833 185.308 136.8 185.675C135.783 186.025 134.666 186.2 133.45 186.2C132.133 186.2 130.933 186 129.85 185.6C128.783 185.183 127.866 184.608 127.1 183.875C126.35 183.125 125.766 182.233 125.35 181.2C124.95 180.167 124.75 179.025 124.75 177.775C124.75 176.775 124.858 175.883 125.075 175.1C125.308 174.3 125.625 173.625 126.025 173.075C126.441 172.508 126.933 172.075 127.5 171.775C128.083 171.475 128.725 171.325 129.425 171.325C129.958 171.325 130.45 171.417 130.9 171.6C131.366 171.783 131.766 172.042 132.1 172.375C132.45 172.708 132.716 173.1 132.9 173.55C133.1 174 133.2 174.492 133.2 175.025C133.2 175.542 133.108 176.017 132.925 176.45C132.758 176.883 132.516 177.258 132.2 177.575C131.9 177.875 131.525 178.117 131.075 178.3C130.641 178.467 130.166 178.55 129.65 178.55C128.933 178.55 128.3 178.408 127.75 178.125C127.2 177.825 126.8 177.408 126.55 176.875C126.533 177.025 126.525 177.175 126.525 177.325C126.525 177.475 126.525 177.642 126.525 177.825C126.525 178.825 126.7 179.742 127.05 180.575C127.416 181.392 127.908 182.092 128.525 182.675C129.158 183.258 129.891 183.717 130.725 184.05C131.575 184.367 132.491 184.525 133.475 184.525C134.291 184.525 135.083 184.408 135.85 184.175C136.633 183.925 137.325 183.517 137.925 182.95C138.525 182.367 139.008 181.592 139.375 180.625C139.741 179.658 139.925 178.458 139.925 177.025C139.925 175.058 139.666 173.267 139.15 171.65C138.633 170.033 137.766 168.642 136.55 167.475C136.533 168.408 136.25 169.15 135.7 169.7C135.15 170.233 134.375 170.5 133.375 170.5C132.908 170.5 132.475 170.425 132.075 170.275C131.675 170.125 131.325 169.925 131.025 169.675C130.725 169.408 130.491 169.092 130.325 168.725C130.158 168.358 130.075 167.95 130.075 167.5C130.075 166.55 130.383 165.783 131 165.2C131.633 164.617 132.441 164.325 133.425 164.325C134.575 164.325 135.658 164.667 136.675 165.35C137.708 166.033 138.6 166.958 139.35 168.125C140.116 169.292 140.716 170.65 141.15 172.2C141.6 173.733 141.825 175.35 141.825 177.05ZM133.5 169.075C133.983 169.075 134.383 168.933 134.7 168.65C135.033 168.367 135.2 167.975 135.2 167.475C135.2 166.992 135.033 166.6 134.7 166.3C134.366 165.983 133.966 165.825 133.5 165.825C133.016 165.825 132.608 165.975 132.275 166.275C131.958 166.575 131.8 166.967 131.8 167.45C131.8 167.95 131.958 168.35 132.275 168.65C132.608 168.933 133.016 169.075 133.5 169.075ZM131.35 175.025C131.35 174.442 131.166 173.958 130.8 173.575C130.45 173.175 129.975 172.975 129.375 172.975C128.791 172.975 128.308 173.167 127.925 173.55C127.541 173.917 127.35 174.392 127.35 174.975C127.35 175.542 127.541 176.008 127.925 176.375C128.325 176.725 128.808 176.9 129.375 176.9C129.958 176.9 130.433 176.725 130.8 176.375C131.166 176.008 131.35 175.558 131.35 175.025ZM140.977 193.325C140.793 193.475 140.568 193.55 140.302 193.55C140.018 193.55 139.802 193.475 139.652 193.325V191.475C139.652 190.975 139.485 190.567 139.152 190.25C138.818 189.933 138.41 189.775 137.927 189.775C137.377 189.775 136.935 189.967 136.602 190.35C136.268 190.733 136.102 191.225 136.102 191.825C136.102 192.608 136.302 193.233 136.702 193.7C137.085 194.167 137.51 194.508 137.977 194.725C137.977 194.925 137.918 195.108 137.802 195.275C137.668 195.442 137.485 195.525 137.252 195.525C137.002 195.525 136.727 195.442 136.427 195.275C136.127 195.108 135.852 194.858 135.602 194.525C135.335 194.208 135.118 193.817 134.952 193.35C134.785 192.9 134.702 192.383 134.702 191.8C134.702 191.333 134.785 190.9 134.952 190.5C135.102 190.1 135.318 189.75 135.602 189.45C135.868 189.167 136.202 188.942 136.602 188.775C136.985 188.625 137.402 188.55 137.852 188.55C138.985 188.55 139.81 188.95 140.327 189.75C140.843 188.95 141.66 188.55 142.777 188.55C143.693 188.55 144.443 188.85 145.027 189.45C145.627 190.05 145.927 190.833 145.927 191.8C145.927 192.383 145.843 192.9 145.677 193.35C145.51 193.817 145.293 194.208 145.027 194.525C144.777 194.858 144.502 195.108 144.202 195.275C143.902 195.442 143.627 195.525 143.377 195.525C143.143 195.525 142.968 195.442 142.852 195.275C142.718 195.108 142.652 194.925 142.652 194.725C143.118 194.508 143.543 194.167 143.927 193.7C144.327 193.233 144.527 192.608 144.527 191.825C144.527 191.208 144.36 190.708 144.027 190.325C143.693 189.958 143.252 189.775 142.702 189.775C142.185 189.775 141.768 189.95 141.452 190.3C141.135 190.65 140.977 191.1 140.977 191.65V193.325ZM150.977 186.2C149.977 186.2 149.068 186.033 148.252 185.7C147.435 185.35 146.735 184.867 146.152 184.25C145.568 183.617 145.118 182.867 144.802 182C144.485 181.117 144.327 180.142 144.327 179.075C144.327 177.992 144.485 177.008 144.802 176.125C145.118 175.242 145.568 174.483 146.152 173.85C146.735 173.217 147.435 172.733 148.252 172.4C149.068 172.05 149.977 171.875 150.977 171.875C151.977 171.875 152.885 172.05 153.702 172.4C154.518 172.733 155.218 173.217 155.802 173.85C156.385 174.483 156.835 175.242 157.152 176.125C157.468 177.008 157.627 177.992 157.627 179.075C157.627 180.142 157.468 181.117 157.152 182C156.835 182.867 156.385 183.617 155.802 184.25C155.218 184.867 154.518 185.35 153.702 185.7C152.885 186.033 151.977 186.2 150.977 186.2ZM150.977 184.525C151.693 184.525 152.343 184.392 152.927 184.125C153.51 183.858 154.01 183.492 154.427 183.025C154.843 182.542 155.16 181.967 155.377 181.3C155.61 180.617 155.727 179.867 155.727 179.05C155.727 178.233 155.61 177.483 155.377 176.8C155.16 176.117 154.843 175.542 154.427 175.075C154.01 174.592 153.51 174.217 152.927 173.95C152.343 173.683 151.693 173.55 150.977 173.55C150.26 173.55 149.61 173.683 149.027 173.95C148.443 174.217 147.943 174.592 147.527 175.075C147.11 175.542 146.785 176.117 146.552 176.8C146.335 177.483 146.227 178.233 146.227 179.05C146.227 179.867 146.335 180.617 146.552 181.3C146.785 181.967 147.11 182.542 147.527 183.025C147.943 183.492 148.443 183.858 149.027 184.125C149.61 184.392 150.26 184.525 150.977 184.525ZM172.795 186.2C171.945 186.2 171.203 186.042 170.57 185.725C169.936 185.392 169.428 184.933 169.045 184.35C168.711 184.933 168.236 185.392 167.62 185.725C167.02 186.042 166.27 186.2 165.37 186.2C164.72 186.2 164.095 186.092 163.495 185.875C162.895 185.642 162.361 185.3 161.895 184.85C161.428 184.383 161.053 183.8 160.77 183.1C160.503 182.383 160.37 181.542 160.37 180.575C160.37 179.758 160.47 178.983 160.67 178.25C160.886 177.5 161.178 176.817 161.545 176.2C161.928 175.567 162.37 175.017 162.87 174.55C163.386 174.083 163.936 173.708 164.52 173.425H160.57C160.52 173.325 160.47 173.208 160.42 173.075C160.386 172.942 160.37 172.792 160.37 172.625C160.37 172.325 160.453 172.117 160.62 172C160.786 171.883 161.003 171.825 161.27 171.825H173.92C174.586 171.825 175.078 171.658 175.395 171.325C175.711 170.992 175.87 170.55 175.87 170C175.87 169.333 175.686 168.733 175.32 168.2C175.403 168.033 175.52 167.9 175.67 167.8C175.836 167.683 176.036 167.625 176.27 167.625C176.703 167.625 177.045 167.875 177.295 168.375C177.545 168.875 177.67 169.458 177.67 170.125C177.67 171.242 177.353 172.075 176.72 172.625C176.103 173.158 175.27 173.425 174.22 173.425H173.495C174.095 173.708 174.645 174.092 175.145 174.575C175.661 175.042 176.103 175.592 176.47 176.225C176.853 176.858 177.145 177.55 177.345 178.3C177.561 179.033 177.67 179.8 177.67 180.6C177.67 181.55 177.545 182.383 177.295 183.1C177.045 183.8 176.703 184.383 176.27 184.85C175.836 185.3 175.32 185.642 174.72 185.875C174.136 186.092 173.495 186.2 172.795 186.2ZM165.545 184.55C166.295 184.55 166.911 184.342 167.395 183.925C167.878 183.508 168.12 182.808 168.12 181.825V180.75C168.386 180.567 168.686 180.475 169.02 180.475C169.353 180.475 169.653 180.567 169.92 180.75V181.825C169.92 182.675 170.17 183.342 170.67 183.825C171.17 184.308 171.845 184.55 172.695 184.55C173.595 184.55 174.328 184.233 174.895 183.6C175.461 182.95 175.745 181.883 175.745 180.4C175.745 179.55 175.603 178.733 175.32 177.95C175.036 177.167 174.645 176.467 174.145 175.85C173.645 175.217 173.045 174.692 172.345 174.275C171.661 173.858 170.903 173.575 170.07 173.425H167.97C167.136 173.575 166.37 173.858 165.67 174.275C164.986 174.692 164.395 175.208 163.895 175.825C163.395 176.442 163.003 177.142 162.72 177.925C162.436 178.692 162.295 179.5 162.295 180.35C162.295 181.083 162.378 181.717 162.545 182.25C162.728 182.767 162.97 183.2 163.27 183.55C163.57 183.883 163.911 184.133 164.295 184.3C164.695 184.467 165.111 184.55 165.545 184.55ZM197.787 171.825C198.453 171.825 198.945 171.658 199.262 171.325C199.578 170.992 199.737 170.55 199.737 170C199.737 169.333 199.553 168.733 199.187 168.2C199.27 168.033 199.387 167.9 199.537 167.8C199.703 167.683 199.903 167.625 200.137 167.625C200.57 167.625 200.912 167.875 201.162 168.375C201.412 168.875 201.537 169.458 201.537 170.125C201.537 171.242 201.22 172.075 200.587 172.625C199.97 173.158 199.137 173.425 198.087 173.425H195.337V176.225H201.337C201.387 176.325 201.428 176.442 201.462 176.575C201.512 176.708 201.537 176.858 201.537 177.025C201.537 177.325 201.453 177.533 201.287 177.65C201.12 177.767 200.903 177.825 200.637 177.825H198.162C198.812 178.158 199.32 178.642 199.687 179.275C200.07 179.892 200.262 180.583 200.262 181.35C200.262 182.067 200.12 182.725 199.837 183.325C199.57 183.925 199.187 184.442 198.687 184.875C198.187 185.292 197.578 185.617 196.862 185.85C196.162 186.083 195.378 186.2 194.512 186.2C193.695 186.2 192.928 186.092 192.212 185.875C191.512 185.642 190.895 185.325 190.362 184.925C189.845 184.508 189.437 184 189.137 183.4C188.837 182.8 188.687 182.125 188.687 181.375C188.687 180.525 188.87 179.808 189.237 179.225C189.62 178.625 190.103 178.158 190.687 177.825H187.612C187.562 177.725 187.512 177.608 187.462 177.475C187.428 177.342 187.412 177.192 187.412 177.025C187.412 176.725 187.495 176.517 187.662 176.4C187.828 176.283 188.045 176.225 188.312 176.225H193.537V173.425H187.612C187.562 173.325 187.512 173.208 187.462 173.075C187.428 172.942 187.412 172.792 187.412 172.625C187.412 172.325 187.495 172.117 187.662 172C187.828 171.883 188.045 171.825 188.312 171.825H197.787ZM194.487 177.775C193.92 177.775 193.387 177.858 192.887 178.025C192.403 178.175 191.978 178.4 191.612 178.7C191.245 179 190.953 179.367 190.737 179.8C190.537 180.233 190.437 180.725 190.437 181.275C190.437 181.808 190.545 182.283 190.762 182.7C190.978 183.117 191.278 183.475 191.662 183.775C192.045 184.058 192.487 184.283 192.987 184.45C193.487 184.6 194.028 184.675 194.612 184.675C195.178 184.675 195.695 184.6 196.162 184.45C196.645 184.283 197.062 184.05 197.412 183.75C197.762 183.45 198.028 183.092 198.212 182.675C198.412 182.258 198.512 181.792 198.512 181.275C198.512 180.758 198.403 180.283 198.187 179.85C197.97 179.417 197.678 179.05 197.312 178.75C196.945 178.433 196.52 178.192 196.037 178.025C195.553 177.858 195.037 177.775 194.487 177.775ZM216.081 186.2C215.231 186.2 214.489 186.042 213.856 185.725C213.222 185.392 212.714 184.933 212.331 184.35C211.997 184.933 211.522 185.392 210.906 185.725C210.306 186.042 209.556 186.2 208.656 186.2C208.006 186.2 207.381 186.092 206.781 185.875C206.181 185.642 205.647 185.3 205.181 184.85C204.714 184.383 204.339 183.8 204.056 183.1C203.789 182.383 203.656 181.542 203.656 180.575C203.656 179.758 203.756 178.983 203.956 178.25C204.172 177.5 204.464 176.817 204.831 176.2C205.214 175.567 205.656 175.017 206.156 174.55C206.672 174.083 207.222 173.708 207.806 173.425H203.856C203.806 173.325 203.756 173.208 203.706 173.075C203.672 172.942 203.656 172.792 203.656 172.625C203.656 172.325 203.739 172.117 203.906 172C204.072 171.883 204.289 171.825 204.556 171.825H216.981C217.781 171.825 218.397 171.658 218.831 171.325C219.281 170.975 219.506 170.492 219.506 169.875C219.506 169.425 219.364 169.067 219.081 168.8C218.814 168.517 218.464 168.375 218.031 168.375C217.664 168.375 217.339 168.483 217.056 168.7C216.772 168.917 216.631 169.25 216.631 169.7C216.631 169.85 216.647 170.008 216.681 170.175C216.631 170.208 216.547 170.25 216.431 170.3C216.314 170.35 216.164 170.375 215.981 170.375C215.664 170.375 215.406 170.283 215.206 170.1C215.022 169.917 214.931 169.625 214.931 169.225C214.931 168.475 215.214 167.883 215.781 167.45C216.364 167.017 217.097 166.8 217.981 166.8C218.431 166.8 218.856 166.875 219.256 167.025C219.656 167.158 219.997 167.358 220.281 167.625C220.581 167.892 220.814 168.225 220.981 168.625C221.164 169.008 221.256 169.45 221.256 169.95C221.256 171.1 220.864 171.967 220.081 172.55C219.314 173.133 218.306 173.425 217.056 173.425H216.756C217.356 173.708 217.906 174.092 218.406 174.575C218.922 175.042 219.364 175.592 219.731 176.225C220.114 176.858 220.414 177.55 220.631 178.3C220.847 179.033 220.956 179.8 220.956 180.6C220.956 181.55 220.831 182.383 220.581 183.1C220.331 183.8 219.989 184.383 219.556 184.85C219.122 185.3 218.606 185.642 218.006 185.875C217.422 186.092 216.781 186.2 216.081 186.2ZM208.831 184.55C209.581 184.55 210.197 184.342 210.681 183.925C211.164 183.508 211.406 182.808 211.406 181.825V180.75C211.672 180.567 211.972 180.475 212.306 180.475C212.639 180.475 212.939 180.567 213.206 180.75V181.825C213.206 182.675 213.456 183.342 213.956 183.825C214.456 184.308 215.131 184.55 215.981 184.55C216.881 184.55 217.614 184.233 218.181 183.6C218.747 182.95 219.031 181.883 219.031 180.4C219.031 179.55 218.889 178.733 218.606 177.95C218.322 177.167 217.931 176.467 217.431 175.85C216.931 175.217 216.331 174.692 215.631 174.275C214.947 173.858 214.189 173.575 213.356 173.425H211.256C210.422 173.575 209.656 173.858 208.956 174.275C208.272 174.692 207.681 175.208 207.181 175.825C206.681 176.442 206.289 177.142 206.006 177.925C205.722 178.692 205.581 179.5 205.581 180.35C205.581 181.083 205.664 181.717 205.831 182.25C206.014 182.767 206.256 183.2 206.556 183.55C206.856 183.883 207.197 184.133 207.581 184.3C207.981 184.467 208.397 184.55 208.831 184.55ZM212.381 178.475C211.947 178.475 211.589 178.342 211.306 178.075C211.039 177.792 210.906 177.442 210.906 177.025C210.906 176.608 211.039 176.267 211.306 176C211.589 175.717 211.947 175.575 212.381 175.575C212.814 175.575 213.164 175.717 213.431 176C213.714 176.267 213.856 176.608 213.856 177.025C213.856 177.442 213.714 177.783 213.431 178.05C213.164 178.317 212.814 178.458 212.381 178.475ZM212.381 190.2C212.031 190.2 211.731 190.083 211.481 189.85C211.231 189.633 211.106 189.267 211.106 188.75C211.106 188.317 211.189 187.892 211.356 187.475C211.539 187.075 211.722 186.75 211.906 186.5C212.072 186.283 212.231 186.175 212.381 186.175C212.531 186.175 212.689 186.283 212.856 186.5C213.039 186.75 213.214 187.075 213.381 187.475C213.564 187.892 213.656 188.317 213.656 188.75C213.656 189.267 213.531 189.633 213.281 189.85C213.031 190.083 212.731 190.2 212.381 190.2ZM230.447 186.2C229.447 186.2 228.522 186.033 227.672 185.7C226.839 185.35 226.122 184.858 225.522 184.225C224.922 183.575 224.447 182.792 224.097 181.875C223.764 180.942 223.597 179.892 223.597 178.725C223.597 177.658 223.764 176.675 224.097 175.775C224.447 174.858 224.922 174.075 225.522 173.425C226.139 172.758 226.864 172.242 227.697 171.875C228.547 171.508 229.464 171.325 230.447 171.325C231.397 171.325 232.289 171.508 233.122 171.875C233.956 172.242 234.681 172.758 235.297 173.425C235.914 174.075 236.397 174.858 236.747 175.775C237.114 176.675 237.297 177.667 237.297 178.75C237.297 179.55 237.214 180.292 237.047 180.975C236.897 181.642 236.681 182.25 236.397 182.8C236.747 183.25 237.247 183.65 237.897 184C238.547 184.35 239.297 184.525 240.147 184.525C240.764 184.525 241.331 184.408 241.847 184.175C242.381 183.942 242.831 183.608 243.197 183.175C243.564 182.725 243.847 182.183 244.047 181.55C244.264 180.9 244.372 180.175 244.372 179.375C244.372 178.558 244.289 177.842 244.122 177.225C243.956 176.608 243.722 176.067 243.422 175.6C243.139 175.133 242.806 174.725 242.422 174.375C242.056 174.025 241.664 173.708 241.247 173.425H238.872C238.806 173.308 238.747 173.183 238.697 173.05C238.664 172.9 238.647 172.758 238.647 172.625C238.647 172.092 238.947 171.825 239.547 171.825H242.247C242.914 171.825 243.406 171.658 243.722 171.325C244.039 170.992 244.197 170.55 244.197 170C244.197 169.333 244.014 168.733 243.647 168.2C243.731 168.033 243.847 167.9 243.997 167.8C244.164 167.683 244.364 167.625 244.597 167.625C245.031 167.625 245.372 167.875 245.622 168.375C245.872 168.875 245.997 169.458 245.997 170.125C245.997 171.025 245.789 171.742 245.372 172.275C244.956 172.792 244.381 173.142 243.647 173.325C244.497 174.058 245.147 174.917 245.597 175.9C246.047 176.867 246.272 178.042 246.272 179.425C246.272 180.642 246.064 181.733 245.647 182.7C245.981 183.167 246.481 183.592 247.147 183.975C247.814 184.342 248.589 184.525 249.472 184.525C250.089 184.525 250.656 184.408 251.172 184.175C251.706 183.942 252.156 183.608 252.522 183.175C252.889 182.725 253.172 182.183 253.372 181.55C253.589 180.9 253.697 180.175 253.697 179.375C253.697 178.325 253.564 177.417 253.297 176.65C253.031 175.867 252.681 175.2 252.247 174.65C251.831 174.1 251.356 173.658 250.822 173.325C250.289 172.992 249.756 172.75 249.222 172.6C249.222 172.233 249.297 171.933 249.447 171.7C249.597 171.45 249.881 171.325 250.297 171.325C250.697 171.325 251.197 171.492 251.797 171.825C252.414 172.142 252.997 172.633 253.547 173.3C254.114 173.967 254.597 174.808 254.997 175.825C255.397 176.842 255.597 178.042 255.597 179.425C255.597 180.475 255.447 181.425 255.147 182.275C254.847 183.108 254.431 183.817 253.897 184.4C253.381 184.983 252.747 185.433 251.997 185.75C251.264 186.05 250.464 186.2 249.597 186.2C248.431 186.2 247.439 186 246.622 185.6C245.822 185.2 245.189 184.75 244.722 184.25C244.189 184.883 243.539 185.367 242.772 185.7C242.022 186.033 241.189 186.2 240.272 186.2C239.089 186.2 238.097 186 237.297 185.6C236.497 185.183 235.856 184.725 235.372 184.225C234.756 184.875 234.031 185.367 233.197 185.7C232.364 186.033 231.447 186.2 230.447 186.2ZM230.472 184.525C231.206 184.525 231.872 184.383 232.472 184.1C233.072 183.817 233.589 183.425 234.022 182.925C234.456 182.408 234.789 181.8 235.022 181.1C235.272 180.383 235.397 179.592 235.397 178.725C235.397 177.875 235.272 177.1 235.022 176.4C234.789 175.683 234.456 175.075 234.022 174.575C233.589 174.058 233.072 173.658 232.472 173.375C231.872 173.092 231.206 172.95 230.472 172.95C229.739 172.95 229.064 173.092 228.447 173.375C227.847 173.658 227.331 174.058 226.897 174.575C226.464 175.092 226.122 175.708 225.872 176.425C225.622 177.125 225.497 177.908 225.497 178.775C225.497 179.642 225.614 180.433 225.847 181.15C226.097 181.85 226.439 182.45 226.872 182.95C227.322 183.45 227.847 183.842 228.447 184.125C229.064 184.392 229.739 184.525 230.472 184.525ZM287.737 181.9C287.737 182.7 288.021 183.342 288.587 183.825C289.171 184.292 289.887 184.525 290.737 184.525C291.837 184.525 292.729 184.117 293.412 183.3C294.096 182.467 294.437 181.308 294.437 179.825C294.437 178.775 294.271 177.85 293.937 177.05C293.621 176.25 293.162 175.583 292.562 175.05C291.979 174.517 291.271 174.117 290.437 173.85C289.604 173.567 288.671 173.425 287.637 173.425H265.912C265.862 173.325 265.812 173.208 265.762 173.075C265.729 172.942 265.712 172.792 265.712 172.625C265.712 172.325 265.796 172.117 265.962 172C266.129 171.883 266.346 171.825 266.612 171.825H288.262C289.379 171.825 290.429 172.017 291.412 172.4C292.396 172.767 293.254 173.3 293.987 174C294.721 174.683 295.296 175.517 295.712 176.5C296.129 177.483 296.337 178.592 296.337 179.825C296.337 180.892 296.187 181.825 295.887 182.625C295.604 183.408 295.212 184.067 294.712 184.6C294.212 185.133 293.612 185.533 292.912 185.8C292.229 186.067 291.487 186.2 290.687 186.2C290.054 186.2 289.446 186.1 288.862 185.9C288.279 185.7 287.762 185.417 287.312 185.05C286.879 184.667 286.529 184.208 286.262 183.675C285.996 183.142 285.862 182.533 285.862 181.85C285.862 181.2 285.971 180.633 286.187 180.15C286.421 179.65 286.712 179.233 287.062 178.9C287.429 178.567 287.837 178.317 288.287 178.15C288.754 177.983 289.221 177.9 289.687 177.9C290.237 177.9 290.646 178 290.912 178.2C291.196 178.383 291.337 178.617 291.337 178.9C291.337 179.2 291.254 179.45 291.087 179.65C290.904 179.6 290.737 179.567 290.587 179.55C290.454 179.533 290.304 179.525 290.137 179.525C289.821 179.525 289.521 179.575 289.237 179.675C288.954 179.758 288.696 179.9 288.462 180.1C288.246 180.3 288.071 180.55 287.937 180.85C287.804 181.15 287.737 181.5 287.737 181.9ZM270.462 186.2C269.746 186.2 269.096 186.1 268.512 185.9C267.929 185.683 267.429 185.383 267.012 185C266.596 184.617 266.271 184.158 266.037 183.625C265.804 183.075 265.687 182.458 265.687 181.775C265.687 181.175 265.779 180.625 265.962 180.125C266.146 179.625 266.412 179.192 266.762 178.825C267.112 178.458 267.537 178.175 268.037 177.975C268.554 177.775 269.137 177.675 269.787 177.675C270.371 177.675 270.804 177.783 271.087 178C271.387 178.2 271.537 178.45 271.537 178.75C271.537 178.95 271.487 179.133 271.387 179.3C271.304 179.45 271.196 179.567 271.062 179.65C270.896 179.567 270.704 179.5 270.487 179.45C270.287 179.383 270.054 179.35 269.787 179.35C269.204 179.35 268.687 179.55 268.237 179.95C267.804 180.333 267.587 180.942 267.587 181.775C267.587 182.625 267.854 183.3 268.387 183.8C268.921 184.3 269.637 184.55 270.537 184.55C270.971 184.55 271.379 184.492 271.762 184.375C272.162 184.258 272.504 184.083 272.787 183.85C273.087 183.617 273.321 183.333 273.487 183C273.654 182.667 273.737 182.283 273.737 181.85V180.775C273.971 180.592 274.279 180.5 274.662 180.5C275.012 180.5 275.304 180.592 275.537 180.775V181.85C275.537 182.317 275.612 182.717 275.762 183.05C275.929 183.383 276.146 183.667 276.412 183.9C276.696 184.117 277.021 184.283 277.387 184.4C277.754 184.5 278.146 184.55 278.562 184.55C279.446 184.55 280.146 184.267 280.662 183.7C281.196 183.133 281.462 182.35 281.462 181.35C281.462 180.3 281.237 179.433 280.787 178.75C280.337 178.05 279.729 177.5 278.962 177.1C278.962 176.783 279.037 176.517 279.187 176.3C279.354 176.067 279.596 175.95 279.912 175.95C280.146 175.95 280.396 176.017 280.662 176.15C280.929 176.267 281.221 176.475 281.537 176.775C281.987 177.208 282.404 177.817 282.787 178.6C283.171 179.367 283.362 180.283 283.362 181.35C283.362 182.85 282.929 184.033 282.062 184.9C281.212 185.767 280.062 186.2 278.612 186.2C277.729 186.2 276.937 186.033 276.237 185.7C275.537 185.35 274.996 184.85 274.612 184.2C274.196 184.85 273.621 185.35 272.887 185.7C272.171 186.033 271.362 186.2 270.462 186.2ZM274.612 177.725C274.179 177.725 273.821 177.592 273.537 177.325C273.271 177.042 273.137 176.692 273.137 176.275C273.137 175.858 273.271 175.517 273.537 175.25C273.821 174.967 274.179 174.825 274.612 174.825C275.046 174.825 275.396 174.967 275.662 175.25C275.946 175.517 276.087 175.858 276.087 176.275C276.087 176.692 275.946 177.042 275.662 177.325C275.396 177.592 275.046 177.725 274.612 177.725ZM298.793 181.625C298.877 181.542 298.977 181.475 299.093 181.425C299.227 181.375 299.36 181.35 299.493 181.35C299.793 181.35 300.027 181.508 300.193 181.825C300.36 182.125 300.443 182.725 300.443 183.625C300.443 185.092 300.185 186.35 299.668 187.4C299.168 188.467 298.477 189.342 297.593 190.025C296.71 190.725 295.685 191.233 294.518 191.55C293.335 191.883 292.077 192.05 290.743 192.05C289.06 192.05 287.777 191.85 286.893 191.45C286.01 191.067 285.568 190.633 285.568 190.15C285.568 189.967 285.627 189.8 285.743 189.65C285.843 189.5 285.96 189.383 286.093 189.3C286.527 189.65 287.118 189.958 287.868 190.225C288.602 190.492 289.543 190.625 290.693 190.625C291.893 190.625 293.002 190.483 294.018 190.2C295.018 189.933 295.885 189.5 296.618 188.9C297.352 188.317 297.918 187.567 298.318 186.65C298.735 185.75 298.943 184.667 298.943 183.4C298.943 182.85 298.893 182.258 298.793 181.625ZM303.098 179.2C303.098 178.017 303.331 176.908 303.798 175.875C304.264 174.825 304.948 174.008 305.848 173.425H302.773C302.723 173.325 302.673 173.208 302.623 173.075C302.589 172.942 302.573 172.792 302.573 172.625C302.573 172.325 302.656 172.117 302.823 172C302.989 171.883 303.206 171.825 303.473 171.825H313.973C314.639 171.825 315.131 171.658 315.448 171.325C315.764 170.992 315.923 170.55 315.923 170C315.923 169.333 315.739 168.733 315.373 168.2C315.456 168.033 315.573 167.9 315.723 167.8C315.889 167.683 316.089 167.625 316.323 167.625C316.756 167.625 317.098 167.875 317.348 168.375C317.598 168.875 317.723 169.458 317.723 170.125C317.723 171.225 317.414 172.042 316.798 172.575C316.198 173.108 315.398 173.392 314.398 173.425C314.864 173.708 315.281 174.067 315.648 174.5C316.031 174.933 316.348 175.408 316.598 175.925C316.864 176.425 317.064 176.958 317.198 177.525C317.331 178.092 317.398 178.65 317.398 179.2C317.398 180.317 317.214 181.308 316.848 182.175C316.481 183.042 315.973 183.775 315.323 184.375C314.673 184.975 313.906 185.433 313.023 185.75C312.156 186.05 311.223 186.2 310.223 186.2C309.223 186.2 308.289 186.033 307.423 185.7C306.556 185.367 305.798 184.9 305.148 184.3C304.514 183.683 304.014 182.942 303.648 182.075C303.281 181.208 303.098 180.25 303.098 179.2ZM310.248 173.425C309.514 173.425 308.831 173.567 308.198 173.85C307.564 174.117 307.006 174.5 306.523 175C306.056 175.5 305.681 176.1 305.398 176.8C305.131 177.483 304.998 178.25 304.998 179.1C304.998 179.917 305.123 180.658 305.373 181.325C305.639 181.992 306.006 182.567 306.473 183.05C306.939 183.517 307.489 183.883 308.123 184.15C308.773 184.4 309.489 184.525 310.273 184.525C311.873 184.525 313.139 184.05 314.073 183.1C315.023 182.15 315.498 180.817 315.498 179.1C315.498 178.25 315.356 177.483 315.073 176.8C314.806 176.1 314.431 175.5 313.948 175C313.481 174.5 312.931 174.117 312.298 173.85C311.664 173.567 310.981 173.425 310.248 173.425ZM326.978 186.2C325.978 186.2 325.069 186.033 324.253 185.7C323.436 185.35 322.736 184.867 322.153 184.25C321.569 183.617 321.119 182.867 320.803 182C320.486 181.117 320.328 180.142 320.328 179.075C320.328 177.992 320.486 177.008 320.803 176.125C321.119 175.242 321.569 174.483 322.153 173.85C322.736 173.217 323.436 172.733 324.253 172.4C325.069 172.05 325.978 171.875 326.978 171.875C327.978 171.875 328.886 172.05 329.703 172.4C330.519 172.733 331.219 173.217 331.803 173.85C332.386 174.483 332.836 175.242 333.153 176.125C333.469 177.008 333.628 177.992 333.628 179.075C333.628 180.142 333.469 181.117 333.153 182C332.836 182.867 332.386 183.617 331.803 184.25C331.219 184.867 330.519 185.35 329.703 185.7C328.886 186.033 327.978 186.2 326.978 186.2ZM326.978 184.525C327.694 184.525 328.344 184.392 328.928 184.125C329.511 183.858 330.011 183.492 330.428 183.025C330.844 182.542 331.161 181.967 331.378 181.3C331.611 180.617 331.728 179.867 331.728 179.05C331.728 178.233 331.611 177.483 331.378 176.8C331.161 176.117 330.844 175.542 330.428 175.075C330.011 174.592 329.511 174.217 328.928 173.95C328.344 173.683 327.694 173.55 326.978 173.55C326.261 173.55 325.611 173.683 325.028 173.95C324.444 174.217 323.944 174.592 323.528 175.075C323.111 175.542 322.786 176.117 322.553 176.8C322.336 177.483 322.228 178.233 322.228 179.05C322.228 179.867 322.336 180.617 322.553 181.3C322.786 181.967 323.111 182.542 323.528 183.025C323.944 183.492 324.444 183.858 325.028 184.125C325.611 184.392 326.261 184.525 326.978 184.525ZM349.296 186.2C348.296 186.2 347.454 186.025 346.771 185.675C346.087 185.325 345.571 184.833 345.221 184.2C344.871 184.833 344.354 185.325 343.671 185.675C342.987 186.025 342.154 186.2 341.171 186.2C340.554 186.2 339.962 186.117 339.396 185.95C338.829 185.783 338.329 185.533 337.896 185.2C337.479 184.85 337.137 184.417 336.871 183.9C336.621 183.383 336.496 182.783 336.496 182.1C336.496 181.15 336.746 180.35 337.246 179.7C337.746 179.05 338.421 178.5 339.271 178.05L340.546 177.375C341.312 176.975 341.887 176.583 342.271 176.2C342.671 175.8 342.871 175.325 342.871 174.775C342.871 174.175 342.654 173.708 342.221 173.375C341.787 173.025 341.237 172.85 340.571 172.85C339.837 172.85 339.254 173.042 338.821 173.425C338.404 173.808 338.196 174.317 338.196 174.95C338.196 175.267 338.237 175.542 338.321 175.775C338.404 176.008 338.512 176.225 338.646 176.425C338.562 176.558 338.446 176.675 338.296 176.775C338.146 176.858 337.962 176.9 337.746 176.9C337.362 176.9 337.037 176.725 336.771 176.375C336.504 176.025 336.371 175.542 336.371 174.925C336.371 174.358 336.479 173.858 336.696 173.425C336.929 172.975 337.237 172.6 337.621 172.3C338.004 171.983 338.454 171.742 338.971 171.575C339.487 171.408 340.037 171.325 340.621 171.325C341.171 171.325 341.696 171.408 342.196 171.575C342.696 171.725 343.129 171.95 343.496 172.25C343.879 172.55 344.179 172.917 344.396 173.35C344.629 173.783 344.746 174.283 344.746 174.85C344.746 175.65 344.504 176.342 344.021 176.925C343.537 177.508 342.846 178.033 341.946 178.5L340.546 179.225C339.929 179.542 339.412 179.942 338.996 180.425C338.596 180.908 338.396 181.467 338.396 182.1C338.396 182.9 338.679 183.508 339.246 183.925C339.812 184.342 340.521 184.55 341.371 184.55C342.204 184.55 342.904 184.342 343.471 183.925C344.054 183.492 344.346 182.867 344.346 182.05V180.8C344.612 180.617 344.912 180.525 345.246 180.525C345.579 180.525 345.879 180.617 346.146 180.8V181.925C346.146 182.775 346.412 183.425 346.946 183.875C347.479 184.308 348.221 184.525 349.171 184.525C350.171 184.525 350.979 184.15 351.596 183.4C352.229 182.65 352.546 181.475 352.546 179.875C352.546 179.125 352.462 178.425 352.296 177.775C352.129 177.125 351.904 176.533 351.621 176C351.354 175.467 351.037 174.992 350.671 174.575C350.321 174.142 349.946 173.758 349.546 173.425H347.046C346.979 173.308 346.921 173.183 346.871 173.05C346.837 172.9 346.821 172.758 346.821 172.625C346.821 172.092 347.121 171.825 347.721 171.825H350.421C351.087 171.825 351.579 171.658 351.896 171.325C352.212 170.992 352.371 170.55 352.371 170C352.371 169.333 352.187 168.733 351.821 168.2C351.904 168.033 352.021 167.9 352.171 167.8C352.337 167.683 352.537 167.625 352.771 167.625C353.204 167.625 353.546 167.875 353.796 168.375C354.046 168.875 354.171 169.458 354.171 170.125C354.171 171.025 353.962 171.742 353.546 172.275C353.129 172.792 352.554 173.142 351.821 173.325C352.671 174.125 353.321 175.083 353.771 176.2C354.221 177.3 354.446 178.542 354.446 179.925C354.446 180.975 354.312 181.9 354.046 182.7C353.796 183.483 353.446 184.133 352.996 184.65C352.546 185.167 352.004 185.558 351.371 185.825C350.737 186.075 350.046 186.2 349.296 186.2ZM345.246 190.2C344.896 190.2 344.596 190.083 344.346 189.85C344.096 189.633 343.971 189.267 343.971 188.75C343.971 188.317 344.054 187.892 344.221 187.475C344.404 187.075 344.587 186.75 344.771 186.5C344.937 186.283 345.096 186.175 345.246 186.175C345.396 186.175 345.554 186.283 345.721 186.5C345.904 186.75 346.079 187.075 346.246 187.475C346.429 187.892 346.521 188.317 346.521 188.75C346.521 189.267 346.396 189.633 346.146 189.85C345.896 190.083 345.596 190.2 345.246 190.2Z" fill="#ABABAB"/>
</svg>
