<svg width="461" height="214" viewBox="0 0 461 214" fill="none" xmlns="http://www.w3.org/2000/svg">
<path d="M72.2633 102.47C73.6566 102.47 74.7933 101.737 75.6733 100.27C76.5533 98.8033 76.9933 96.4567 76.9933 93.23C76.9933 90.15 76.4433 87.4 75.3433 84.98C74.2433 82.56 72.85 80.5067 71.1633 78.82C72.7766 73.6133 76.0033 71.01 80.8433 71.01C82.53 71.01 84.1433 71.3767 85.6833 72.11C87.2233 72.8433 88.58 73.9067 89.7533 75.3C91.5133 77.4267 92.9433 80.03 94.0433 83.11C95.1433 86.1167 95.6933 89.49 95.6933 93.23C95.6933 96.4567 95.2533 99.5733 94.3733 102.58C93.4933 105.587 92.1 108.263 90.1933 110.61C88.36 112.883 85.9766 114.717 83.0433 116.11C80.11 117.503 76.5533 118.2 72.3733 118.2C67.8266 118.2 64.1966 117.393 61.4833 115.78C58.77 114.167 56.3866 112.15 54.3333 109.73C53.2333 108.483 52.2066 107.2 51.2533 105.88C50.3733 104.56 49.4199 103.387 48.3933 102.36C47.4399 101.26 46.4133 100.38 45.3133 99.72C44.2133 99.06 42.9666 98.73 41.5733 98.73C39.2266 98.73 37.3933 99.5 36.0733 101.04C34.8266 102.507 34.2033 104.45 34.2033 106.87C34.2033 108.117 34.3499 109.437 34.6433 110.83C35.0099 112.15 35.4133 113.323 35.8533 114.35C34.9733 115.377 33.7266 116.257 32.1133 116.99C30.5733 117.797 28.7033 118.2 26.5033 118.2C23.2766 118.2 20.5999 117.027 18.4733 114.68C16.3466 112.26 15.2833 108.85 15.2833 104.45C15.2833 101.15 15.8699 98.2167 17.0433 95.65C18.2166 93.01 19.8666 90.7733 21.9933 88.94C24.1933 87.1067 26.8333 85.7133 29.9133 84.76C32.9933 83.7333 36.4766 83.22 40.3633 83.22C44.5433 83.22 48.3566 83.88 51.8033 85.2C55.2499 86.4467 58.33 88.5 61.0433 91.36C62.2899 92.68 63.3533 94 64.2333 95.32C65.1866 96.64 66.0666 97.85 66.8733 98.95C67.68 99.9767 68.4866 100.82 69.2933 101.48C70.1733 102.14 71.1633 102.47 72.2633 102.47ZM41.1333 71.56C41.1333 71.12 41.2066 70.46 41.3533 69.58C41.4999 68.7 41.7566 67.82 42.1233 66.94H17.9233C17.4099 66.1333 16.9699 65.18 16.6033 64.08C16.2366 62.98 16.0533 61.6967 16.0533 60.23C16.0533 57.7367 16.6033 55.8667 17.7033 54.62C18.8033 53.3733 20.3066 52.75 22.2133 52.75H74.5733C76.48 52.75 77.8366 52.2733 78.6433 51.32C79.45 50.3667 79.8533 49.1567 79.8533 47.69C79.8533 46.0033 79.4866 44.3533 78.7533 42.74C79.6333 42.0067 80.77 41.3467 82.1633 40.76C83.5566 40.1733 85.1333 39.88 86.8933 39.88C89.8266 39.88 92.2466 40.87 94.1533 42.85C96.1333 44.7567 97.1233 47.6167 97.1233 51.43C97.1233 53.85 96.6466 56.05 95.6933 58.03C94.8133 59.9367 93.5666 61.55 91.9533 62.87C90.34 64.19 88.4333 65.2167 86.2333 65.95C84.0333 66.61 81.65 66.94 79.0833 66.94H59.2833C59.7233 67.82 59.98 68.6633 60.0533 69.47C60.2 70.2767 60.2733 70.9733 60.2733 71.56C60.2733 74.3467 59.3933 76.6933 57.6333 78.6C55.9466 80.4333 53.5999 81.35 50.5933 81.35C47.8066 81.35 45.5333 80.4333 43.7733 78.6C42.0133 76.6933 41.1333 74.3467 41.1333 71.56ZM136.057 118.2C130.997 118.2 126.451 117.393 122.417 115.78C118.384 114.167 114.937 111.93 112.077 109.07C109.291 106.137 107.127 102.69 105.587 98.73C104.047 94.6967 103.277 90.2967 103.277 85.53C103.277 80.7633 104.047 76.4 105.587 72.44C107.127 68.4067 109.291 64.9233 112.077 61.99C114.937 59.0567 118.384 56.7833 122.417 55.17C126.451 53.5567 130.997 52.75 136.057 52.75C141.117 52.75 145.664 53.5567 149.697 55.17C153.731 56.7833 157.141 59.0567 159.927 61.99C162.787 64.9233 164.987 68.4067 166.527 72.44C168.067 76.4 168.837 80.7633 168.837 85.53C168.837 90.2967 168.067 94.6967 166.527 98.73C164.987 102.69 162.787 106.137 159.927 109.07C157.141 111.93 153.731 114.167 149.697 115.78C145.664 117.393 141.117 118.2 136.057 118.2ZM136.057 102.91C140.457 102.91 143.831 101.297 146.177 98.07C148.597 94.77 149.807 90.59 149.807 85.53C149.807 80.47 148.597 76.29 146.177 72.99C143.831 69.69 140.457 68.04 136.057 68.04C131.657 68.04 128.247 69.69 125.827 72.99C123.481 76.29 122.307 80.47 122.307 85.53C122.307 90.59 123.481 94.77 125.827 98.07C128.247 101.297 131.657 102.91 136.057 102.91ZM236.965 118.2C233.518 118.2 230.255 117.613 227.175 116.44C224.095 115.267 221.418 113.323 219.145 110.61C217.018 113.177 214.305 115.083 211.005 116.33C207.778 117.577 204.295 118.2 200.555 118.2C192.782 118.2 186.622 116.22 182.075 112.26C177.528 108.3 175.255 102.837 175.255 95.87C175.255 92.7167 175.805 89.8933 176.905 87.4C178.005 84.8333 179.472 82.67 181.305 80.91C183.138 79.15 185.265 77.83 187.685 76.95C190.178 75.9967 192.818 75.52 195.605 75.52C199.418 75.52 202.388 76.3267 204.515 77.94C206.715 79.48 207.815 81.6433 207.815 84.43C207.815 85.97 207.485 87.4 206.825 88.72C206.165 90.04 205.395 91.1033 204.515 91.91C203.122 91.1033 201.582 90.7 199.895 90.7C198.135 90.7 196.705 91.2133 195.605 92.24C194.578 93.2667 194.065 94.6967 194.065 96.53C194.065 98.4367 194.762 100.013 196.155 101.26C197.548 102.433 199.418 103.02 201.765 103.02C204.478 103.02 206.568 102.36 208.035 101.04C209.502 99.6467 210.235 97.8867 210.235 95.76V90.92C211.262 90.26 212.545 89.6733 214.085 89.16C215.625 88.6467 217.348 88.39 219.255 88.39C221.162 88.39 222.885 88.6467 224.425 89.16C225.965 89.6733 227.248 90.26 228.275 90.92V95.76C228.275 97.8867 228.898 99.61 230.145 100.93C231.465 102.25 233.152 102.91 235.205 102.91C237.772 102.91 239.752 101.847 241.145 99.72C242.538 97.52 243.235 94.5867 243.235 90.92C243.235 88.3533 242.832 85.7867 242.025 83.22C241.218 80.6533 239.935 78.3067 238.175 76.18C236.415 73.98 234.178 72.11 231.465 70.57C228.752 68.9567 225.488 67.8567 221.675 67.27H177.675C177.162 66.4633 176.722 65.4733 176.355 64.3C175.988 63.0533 175.805 61.6967 175.805 60.23C175.805 57.7367 176.355 55.8667 177.455 54.62C178.555 53.3733 180.058 52.75 181.965 52.75H241.035C242.942 52.75 244.298 52.2733 245.105 51.32C245.912 50.3667 246.315 49.1567 246.315 47.69C246.315 46.0033 245.948 44.3533 245.215 42.74C246.095 42.0067 247.232 41.3467 248.625 40.76C250.018 40.1733 251.595 39.88 253.355 39.88C256.288 39.88 258.708 40.87 260.615 42.85C262.595 44.7567 263.585 47.6167 263.585 51.43C263.585 55.9033 262.265 59.4967 259.625 62.21C256.985 64.85 253.612 66.39 249.505 66.83C251.852 68.2233 253.832 69.91 255.445 71.89C257.132 73.87 258.452 75.96 259.405 78.16C260.432 80.36 261.165 82.5967 261.605 84.87C262.045 87.1433 262.265 89.27 262.265 91.25C262.265 95.3567 261.678 99.0967 260.505 102.47C259.405 105.77 257.755 108.593 255.555 110.94C253.428 113.287 250.788 115.083 247.635 116.33C244.482 117.577 240.925 118.2 236.965 118.2ZM272.211 66.94C271.625 66.1333 271.111 65.1433 270.671 63.97C270.305 62.7967 270.121 61.5133 270.121 60.12C270.121 57.5533 270.708 55.6833 271.881 54.51C273.055 53.3367 274.558 52.75 276.391 52.75H333.371C335.278 52.75 336.635 52.2733 337.441 51.32C338.248 50.3667 338.651 49.1567 338.651 47.69C338.651 46.0033 338.285 44.3533 337.551 42.74C338.651 41.86 339.898 41.1633 341.291 40.65C342.758 40.1367 344.225 39.88 345.691 39.88C348.625 39.88 351.045 40.87 352.951 42.85C354.931 44.7567 355.921 47.6167 355.921 51.43C355.921 53.85 355.445 56.05 354.491 58.03C353.611 59.9367 352.365 61.55 350.751 62.87C349.138 64.19 347.231 65.2167 345.031 65.95C342.831 66.61 340.448 66.94 337.881 66.94H315.111C316.431 68.4067 317.458 70.0567 318.191 71.89C318.925 73.65 319.365 75.9233 319.511 78.71C321.785 77.3167 323.838 76.3633 325.671 75.85C327.578 75.3367 329.705 75.08 332.051 75.08C335.351 75.08 338.358 75.5933 341.071 76.62C343.858 77.6467 346.241 79.0767 348.221 80.91C350.275 82.7433 351.851 84.9433 352.951 87.51C354.051 90.0767 354.601 92.9367 354.601 96.09C354.601 99.2433 354.051 102.177 352.951 104.89C351.851 107.603 350.275 109.95 348.221 111.93C346.168 113.91 343.675 115.45 340.741 116.55C337.808 117.65 334.508 118.2 330.841 118.2C327.101 118.2 323.618 117.613 320.391 116.44C317.238 115.267 314.451 113.47 312.031 111.05C309.538 113.543 306.678 115.34 303.451 116.44C300.298 117.613 296.925 118.2 293.331 118.2C289.665 118.2 286.365 117.65 283.431 116.55C280.498 115.45 278.005 113.91 275.951 111.93C273.898 109.95 272.321 107.603 271.221 104.89C270.121 102.177 269.571 99.2433 269.571 96.09C269.571 92.9367 270.121 90.0767 271.221 87.51C272.321 84.9433 273.861 82.7433 275.841 80.91C277.895 79.0767 280.278 77.6467 282.991 76.62C285.778 75.5933 288.821 75.08 292.121 75.08C294.248 75.08 296.191 75.3 297.951 75.74C299.711 76.18 301.765 77.06 304.111 78.38C303.085 71.56 299.491 67.7467 293.331 66.94H272.211ZM295.421 104.12C297.768 104.12 299.638 103.387 301.031 101.92C302.498 100.453 303.231 98.5833 303.231 96.31C303.231 94.0367 302.498 92.1667 301.031 90.7C299.638 89.2333 297.768 88.5 295.421 88.5C293.148 88.5 291.278 89.2333 289.811 90.7C288.345 92.0933 287.611 93.9633 287.611 96.31C287.611 98.6567 288.345 100.563 289.811 102.03C291.278 103.423 293.148 104.12 295.421 104.12ZM328.751 104.12C331.025 104.12 332.895 103.423 334.361 102.03C335.828 100.563 336.561 98.6567 336.561 96.31C336.561 93.9633 335.828 92.0933 334.361 90.7C332.895 89.2333 331.025 88.5 328.751 88.5C326.405 88.5 324.498 89.2333 323.031 90.7C321.638 92.1667 320.941 94.0367 320.941 96.31C320.941 98.5833 321.638 100.453 323.031 101.92C324.498 103.387 326.405 104.12 328.751 104.12ZM375.385 118.2C373.258 118.2 371.315 117.723 369.555 116.77C367.868 115.817 366.401 114.497 365.155 112.81C363.908 111.123 362.918 109.143 362.185 106.87C361.525 104.523 361.195 102.03 361.195 99.39C361.195 96.0167 361.745 92.9367 362.845 90.15C364.018 87.3633 365.668 84.98 367.795 83C369.921 81.02 372.488 79.5167 375.495 78.49C378.575 77.39 381.985 76.84 385.725 76.84C391.665 76.84 396.505 78.16 400.245 80.8C403.985 83.3667 406.808 86.85 408.715 91.25L411.465 97.41C412.271 99.2433 413.188 100.563 414.215 101.37C415.241 102.177 416.451 102.58 417.845 102.58C420.118 102.58 421.841 101.627 423.015 99.72C424.188 97.74 424.775 95.1367 424.775 91.91C424.775 88.9767 424.261 86.19 423.235 83.55C422.281 80.91 420.925 78.5267 419.165 76.4C417.405 74.2733 415.315 72.44 412.895 70.9C410.475 69.36 407.798 68.1867 404.865 67.38H363.395C362.148 65.3267 361.525 63.0167 361.525 60.45C361.525 57.8833 362.075 55.9767 363.175 54.73C364.348 53.41 365.925 52.75 367.905 52.75H423.455C425.141 52.6033 426.351 52.09 427.085 51.21C427.818 50.2567 428.185 49.0833 428.185 47.69C428.185 46.0033 427.818 44.3533 427.085 42.74C428.185 41.86 429.431 41.1633 430.825 40.65C432.291 40.1367 433.758 39.88 435.225 39.88C438.158 39.88 440.578 40.87 442.485 42.85C444.465 44.83 445.455 47.7633 445.455 51.65C445.455 55.83 444.208 59.2767 441.715 61.99C439.295 64.7033 435.921 66.4633 431.595 67.27C435.261 70.0567 438.231 73.7233 440.505 78.27C442.851 82.8167 444.025 87.73 444.025 93.01C444.025 96.75 443.401 100.197 442.155 103.35C440.908 106.43 439.111 109.07 436.765 111.27C434.491 113.47 431.705 115.157 428.405 116.33C425.105 117.577 421.438 118.2 417.405 118.2C411.465 118.2 406.735 116.917 403.215 114.35C399.695 111.71 396.871 108.043 394.745 103.35L392.655 98.62C391.848 96.7867 390.931 95.3567 389.905 94.33C388.951 93.3033 387.631 92.79 385.945 92.79C384.331 92.79 383.011 93.34 381.985 94.44C380.958 95.4667 380.445 97.1533 380.445 99.5C380.445 101.7 380.885 103.717 381.765 105.55C382.645 107.383 383.781 109.033 385.175 110.5C384.515 112.92 383.341 114.79 381.655 116.11C379.968 117.503 377.878 118.2 375.385 118.2Z" fill="white" fill-opacity="0.2"/>
<path d="M170.431 171.825C171.097 171.825 171.589 171.658 171.906 171.325C172.222 170.992 172.381 170.55 172.381 170C172.381 169.333 172.197 168.733 171.831 168.2C171.914 168.033 172.031 167.9 172.181 167.8C172.347 167.683 172.547 167.625 172.781 167.625C173.214 167.625 173.556 167.875 173.806 168.375C174.056 168.875 174.181 169.458 174.181 170.125C174.181 171.242 173.864 172.075 173.231 172.625C172.614 173.158 171.781 173.425 170.731 173.425H167.981V176.225H173.981C174.031 176.325 174.072 176.442 174.106 176.575C174.156 176.708 174.181 176.858 174.181 177.025C174.181 177.325 174.097 177.533 173.931 177.65C173.764 177.767 173.547 177.825 173.281 177.825H170.806C171.456 178.158 171.964 178.642 172.331 179.275C172.714 179.892 172.906 180.583 172.906 181.35C172.906 182.067 172.764 182.725 172.481 183.325C172.214 183.925 171.831 184.442 171.331 184.875C170.831 185.292 170.222 185.617 169.506 185.85C168.806 186.083 168.022 186.2 167.156 186.2C166.339 186.2 165.572 186.092 164.856 185.875C164.156 185.642 163.539 185.325 163.006 184.925C162.489 184.508 162.081 184 161.781 183.4C161.481 182.8 161.331 182.125 161.331 181.375C161.331 180.525 161.514 179.808 161.881 179.225C162.264 178.625 162.747 178.158 163.331 177.825H160.256C160.206 177.725 160.156 177.608 160.106 177.475C160.072 177.342 160.056 177.192 160.056 177.025C160.056 176.725 160.139 176.517 160.306 176.4C160.472 176.283 160.689 176.225 160.956 176.225H166.181V173.425H160.256C160.206 173.325 160.156 173.208 160.106 173.075C160.072 172.942 160.056 172.792 160.056 172.625C160.056 172.325 160.139 172.117 160.306 172C160.472 171.883 160.689 171.825 160.956 171.825H170.431ZM167.131 177.775C166.564 177.775 166.031 177.858 165.531 178.025C165.047 178.175 164.622 178.4 164.256 178.7C163.889 179 163.597 179.367 163.381 179.8C163.181 180.233 163.081 180.725 163.081 181.275C163.081 181.808 163.189 182.283 163.406 182.7C163.622 183.117 163.922 183.475 164.306 183.775C164.689 184.058 165.131 184.283 165.631 184.45C166.131 184.6 166.672 184.675 167.256 184.675C167.822 184.675 168.339 184.6 168.806 184.45C169.289 184.283 169.706 184.05 170.056 183.75C170.406 183.45 170.672 183.092 170.856 182.675C171.056 182.258 171.156 181.792 171.156 181.275C171.156 180.758 171.047 180.283 170.831 179.85C170.614 179.417 170.322 179.05 169.956 178.75C169.589 178.433 169.164 178.192 168.681 178.025C168.197 177.858 167.681 177.775 167.131 177.775ZM188.725 186.2C187.875 186.2 187.133 186.042 186.5 185.725C185.866 185.392 185.358 184.933 184.975 184.35C184.641 184.933 184.166 185.392 183.55 185.725C182.95 186.042 182.2 186.2 181.3 186.2C180.65 186.2 180.025 186.092 179.425 185.875C178.825 185.642 178.291 185.3 177.825 184.85C177.358 184.383 176.983 183.8 176.7 183.1C176.433 182.383 176.3 181.542 176.3 180.575C176.3 179.758 176.4 178.983 176.6 178.25C176.816 177.5 177.108 176.817 177.475 176.2C177.858 175.567 178.3 175.017 178.8 174.55C179.316 174.083 179.866 173.708 180.45 173.425H176.5C176.45 173.325 176.4 173.208 176.35 173.075C176.316 172.942 176.3 172.792 176.3 172.625C176.3 172.325 176.383 172.117 176.55 172C176.716 171.883 176.933 171.825 177.2 171.825H189.85C190.516 171.825 191.008 171.658 191.325 171.325C191.641 170.992 191.8 170.55 191.8 170C191.8 169.333 191.616 168.733 191.25 168.2C191.333 168.033 191.45 167.9 191.6 167.8C191.766 167.683 191.966 167.625 192.2 167.625C192.633 167.625 192.975 167.875 193.225 168.375C193.475 168.875 193.6 169.458 193.6 170.125C193.6 171.242 193.283 172.075 192.65 172.625C192.033 173.158 191.2 173.425 190.15 173.425H189.425C190.025 173.708 190.575 174.092 191.075 174.575C191.591 175.042 192.033 175.592 192.4 176.225C192.783 176.858 193.075 177.55 193.275 178.3C193.491 179.033 193.6 179.8 193.6 180.6C193.6 181.55 193.475 182.383 193.225 183.1C192.975 183.8 192.633 184.383 192.2 184.85C191.766 185.3 191.25 185.642 190.65 185.875C190.066 186.092 189.425 186.2 188.725 186.2ZM181.475 184.55C182.258 184.55 182.883 184.333 183.35 183.9C183.816 183.45 184.05 182.708 184.05 181.675V180.75C184.316 180.567 184.616 180.475 184.95 180.475C185.283 180.475 185.583 180.567 185.85 180.75V181.675C185.85 182.575 186.091 183.283 186.575 183.8C187.075 184.3 187.758 184.55 188.625 184.55C189.525 184.55 190.258 184.233 190.825 183.6C191.391 182.95 191.675 181.883 191.675 180.4C191.675 179.55 191.533 178.733 191.25 177.95C190.966 177.167 190.575 176.467 190.075 175.85C189.575 175.217 188.975 174.692 188.275 174.275C187.591 173.858 186.833 173.575 186 173.425H183.9C183.066 173.575 182.3 173.858 181.6 174.275C180.916 174.692 180.325 175.208 179.825 175.825C179.325 176.442 178.933 177.142 178.65 177.925C178.366 178.692 178.225 179.5 178.225 180.35C178.225 181.083 178.308 181.717 178.475 182.25C178.658 182.767 178.9 183.2 179.2 183.55C179.5 183.883 179.841 184.133 180.225 184.3C180.625 184.467 181.041 184.55 181.475 184.55ZM185.025 178.475C184.591 178.475 184.233 178.342 183.95 178.075C183.683 177.792 183.55 177.442 183.55 177.025C183.55 176.608 183.683 176.267 183.95 176C184.233 175.717 184.591 175.575 185.025 175.575C185.458 175.575 185.808 175.717 186.075 176C186.358 176.267 186.5 176.608 186.5 177.025C186.5 177.442 186.358 177.783 186.075 178.05C185.808 178.317 185.458 178.458 185.025 178.475ZM185.025 190.2C184.675 190.2 184.375 190.083 184.125 189.85C183.875 189.633 183.75 189.267 183.75 188.75C183.75 188.317 183.833 187.892 184 187.475C184.183 187.075 184.366 186.75 184.55 186.5C184.716 186.283 184.875 186.175 185.025 186.175C185.175 186.175 185.333 186.283 185.5 186.5C185.683 186.75 185.858 187.075 186.025 187.475C186.208 187.892 186.3 188.317 186.3 188.75C186.3 189.267 186.175 189.633 185.925 189.85C185.675 190.083 185.375 190.2 185.025 190.2ZM209.047 173.425C209.58 173.742 210.08 174.15 210.547 174.65C211.03 175.15 211.447 175.725 211.797 176.375C212.163 177.025 212.447 177.725 212.647 178.475C212.863 179.225 212.972 180.008 212.972 180.825C212.972 182.608 212.547 183.95 211.697 184.85C210.847 185.75 209.73 186.2 208.347 186.2C207.88 186.2 207.422 186.15 206.972 186.05C206.538 185.95 206.113 185.775 205.697 185.525C205.297 185.275 204.905 184.942 204.522 184.525C204.155 184.092 203.805 183.558 203.472 182.925L202.897 181.825C202.463 180.992 202.022 180.425 201.572 180.125C201.122 179.808 200.647 179.65 200.147 179.65C199.497 179.65 198.972 179.875 198.572 180.325C198.188 180.758 197.997 181.358 197.997 182.125C197.997 182.825 198.138 183.442 198.422 183.975C198.722 184.508 199.122 184.958 199.622 185.325C199.555 185.558 199.438 185.758 199.272 185.925C199.122 186.075 198.888 186.15 198.572 186.15C198.338 186.15 198.08 186.067 197.797 185.9C197.513 185.717 197.247 185.458 196.997 185.125C196.747 184.775 196.53 184.358 196.347 183.875C196.18 183.375 196.097 182.8 196.097 182.15C196.097 181.433 196.213 180.817 196.447 180.3C196.68 179.767 196.98 179.333 197.347 179C197.73 178.65 198.155 178.392 198.622 178.225C199.105 178.058 199.588 177.975 200.072 177.975C201.188 177.975 202.08 178.242 202.747 178.775C203.43 179.308 204.047 180.092 204.597 181.125L205.347 182.525C205.63 183.058 206.013 183.533 206.497 183.95C206.997 184.35 207.605 184.55 208.322 184.55C209.155 184.55 209.813 184.233 210.297 183.6C210.797 182.967 211.047 182.033 211.047 180.8C211.047 179.733 210.863 178.767 210.497 177.9C210.13 177.033 209.663 176.283 209.097 175.65C208.53 175 207.905 174.492 207.222 174.125C206.538 173.742 205.888 173.508 205.272 173.425H195.922C195.872 173.325 195.822 173.208 195.772 173.075C195.738 172.942 195.722 172.792 195.722 172.625C195.722 172.325 195.805 172.117 195.972 172C196.138 171.883 196.355 171.825 196.622 171.825H208.997C209.663 171.825 210.155 171.658 210.472 171.325C210.788 170.992 210.947 170.55 210.947 170C210.947 169.333 210.763 168.733 210.397 168.2C210.48 168.033 210.597 167.9 210.747 167.8C210.913 167.683 211.113 167.625 211.347 167.625C211.78 167.625 212.122 167.875 212.372 168.375C212.622 168.875 212.747 169.458 212.747 170.125C212.747 171.242 212.43 172.075 211.797 172.625C211.18 173.158 210.347 173.425 209.297 173.425H209.047ZM227.799 186.2C227.082 186.2 226.432 186.1 225.849 185.9C225.265 185.683 224.765 185.383 224.349 185C223.932 184.617 223.607 184.158 223.374 183.625C223.14 183.075 223.024 182.458 223.024 181.775C223.024 181.175 223.115 180.625 223.299 180.125C223.482 179.625 223.749 179.192 224.099 178.825C224.449 178.458 224.874 178.175 225.374 177.975C225.89 177.775 226.474 177.675 227.124 177.675C227.707 177.675 228.14 177.783 228.424 178C228.724 178.2 228.874 178.45 228.874 178.75C228.874 178.95 228.824 179.133 228.724 179.3C228.64 179.45 228.532 179.567 228.399 179.65C228.232 179.567 228.04 179.5 227.824 179.45C227.624 179.383 227.39 179.35 227.124 179.35C226.54 179.35 226.024 179.55 225.574 179.95C225.14 180.333 224.924 180.942 224.924 181.775C224.924 182.625 225.19 183.3 225.724 183.8C226.257 184.3 226.974 184.55 227.874 184.55C228.774 184.55 229.532 184.308 230.149 183.825C230.765 183.325 231.074 182.617 231.074 181.7V180.775C231.307 180.592 231.615 180.5 231.999 180.5C232.349 180.5 232.64 180.592 232.874 180.775V181.7C232.874 182.2 232.957 182.633 233.124 183C233.307 183.367 233.54 183.667 233.824 183.9C234.107 184.117 234.424 184.283 234.774 184.4C235.14 184.5 235.515 184.55 235.899 184.55C237.999 184.55 239.049 183.2 239.049 180.5C239.049 179.45 238.915 178.458 238.649 177.525C238.399 176.575 238.057 175.708 237.624 174.925C237.207 174.142 236.724 173.45 236.174 172.85C235.624 172.233 235.065 171.733 234.499 171.35C234.515 171.417 234.524 171.508 234.524 171.625C234.524 172.608 234.24 173.367 233.674 173.9C233.107 174.433 232.299 174.7 231.249 174.7C230.782 174.7 230.349 174.633 229.949 174.5C229.549 174.35 229.199 174.15 228.899 173.9C228.599 173.633 228.365 173.317 228.199 172.95C228.032 172.567 227.949 172.15 227.949 171.7C227.949 171.233 228.032 170.808 228.199 170.425C228.382 170.025 228.632 169.692 228.949 169.425C229.282 169.142 229.665 168.925 230.099 168.775C230.532 168.608 231.015 168.525 231.549 168.525C232.599 168.525 233.682 168.833 234.799 169.45C235.915 170.05 236.924 170.883 237.824 171.95C238.74 173.017 239.49 174.283 240.074 175.75C240.657 177.2 240.949 178.775 240.949 180.475C240.949 182.258 240.515 183.658 239.649 184.675C238.782 185.692 237.532 186.2 235.899 186.2C235.099 186.2 234.34 186.042 233.624 185.725C232.924 185.408 232.365 184.9 231.949 184.2C231.515 184.833 230.94 185.325 230.224 185.675C229.507 186.025 228.699 186.2 227.799 186.2ZM231.374 173.275C231.857 173.275 232.257 173.133 232.574 172.85C232.907 172.567 233.074 172.175 233.074 171.675C233.074 171.192 232.907 170.8 232.574 170.5C232.24 170.183 231.84 170.025 231.374 170.025C230.89 170.025 230.482 170.175 230.149 170.475C229.832 170.775 229.674 171.167 229.674 171.65C229.674 172.15 229.832 172.55 230.149 172.85C230.482 173.133 230.89 173.275 231.374 173.275ZM248.209 186.2C247.493 186.2 246.843 186.1 246.259 185.9C245.676 185.683 245.176 185.383 244.759 185C244.343 184.617 244.018 184.158 243.784 183.625C243.551 183.075 243.434 182.458 243.434 181.775C243.434 181.175 243.526 180.625 243.709 180.125C243.893 179.625 244.159 179.192 244.509 178.825C244.859 178.458 245.284 178.175 245.784 177.975C246.301 177.775 246.884 177.675 247.534 177.675C248.118 177.675 248.551 177.783 248.834 178C249.134 178.2 249.284 178.45 249.284 178.75C249.284 178.95 249.234 179.133 249.134 179.3C249.051 179.45 248.943 179.567 248.809 179.65C248.643 179.567 248.451 179.5 248.234 179.45C248.034 179.383 247.801 179.35 247.534 179.35C246.951 179.35 246.434 179.55 245.984 179.95C245.551 180.333 245.334 180.942 245.334 181.775C245.334 182.625 245.601 183.3 246.134 183.8C246.668 184.3 247.384 184.55 248.284 184.55C249.184 184.55 249.943 184.308 250.559 183.825C251.176 183.325 251.484 182.617 251.484 181.7V180.775C251.718 180.592 252.026 180.5 252.409 180.5C252.759 180.5 253.051 180.592 253.284 180.775V181.7C253.284 182.2 253.368 182.633 253.534 183C253.718 183.367 253.951 183.667 254.234 183.9C254.518 184.117 254.834 184.283 255.184 184.4C255.551 184.5 255.926 184.55 256.309 184.55C258.409 184.55 259.459 183.2 259.459 180.5C259.459 179.717 259.318 178.942 259.034 178.175C258.768 177.408 258.393 176.708 257.909 176.075C257.426 175.442 256.843 174.892 256.159 174.425C255.493 173.958 254.751 173.625 253.934 173.425H243.609C243.559 173.325 243.509 173.208 243.459 173.075C243.426 172.942 243.409 172.792 243.409 172.625C243.409 172.325 243.493 172.117 243.659 172C243.826 171.883 244.043 171.825 244.309 171.825H257.359C258.026 171.825 258.518 171.658 258.834 171.325C259.151 170.992 259.309 170.55 259.309 170C259.309 169.333 259.126 168.733 258.759 168.2C258.843 168.033 258.959 167.9 259.109 167.8C259.276 167.683 259.476 167.625 259.709 167.625C260.143 167.625 260.484 167.875 260.734 168.375C260.984 168.875 261.109 169.458 261.109 170.125C261.109 171.242 260.793 172.075 260.159 172.625C259.543 173.158 258.709 173.425 257.659 173.425H257.259C257.809 173.692 258.334 174.075 258.834 174.575C259.334 175.058 259.768 175.625 260.134 176.275C260.518 176.908 260.818 177.592 261.034 178.325C261.251 179.042 261.359 179.758 261.359 180.475C261.359 182.258 260.926 183.658 260.059 184.675C259.193 185.692 257.943 186.2 256.309 186.2C255.509 186.2 254.751 186.042 254.034 185.725C253.318 185.408 252.751 184.9 252.334 184.2C251.918 184.85 251.351 185.35 250.634 185.7C249.918 186.033 249.109 186.2 248.209 186.2ZM264.218 179.2C264.218 178.017 264.452 176.908 264.918 175.875C265.385 174.825 266.068 174.008 266.968 173.425H263.893C263.843 173.325 263.793 173.208 263.743 173.075C263.71 172.942 263.693 172.792 263.693 172.625C263.693 172.325 263.777 172.117 263.943 172C264.11 171.883 264.327 171.825 264.593 171.825H275.093C275.76 171.825 276.252 171.658 276.568 171.325C276.885 170.992 277.043 170.55 277.043 170C277.043 169.333 276.86 168.733 276.493 168.2C276.577 168.033 276.693 167.9 276.843 167.8C277.01 167.683 277.21 167.625 277.443 167.625C277.877 167.625 278.218 167.875 278.468 168.375C278.718 168.875 278.843 169.458 278.843 170.125C278.843 171.225 278.535 172.042 277.918 172.575C277.318 173.108 276.518 173.392 275.518 173.425C275.985 173.708 276.402 174.067 276.768 174.5C277.152 174.933 277.468 175.408 277.718 175.925C277.985 176.425 278.185 176.958 278.318 177.525C278.452 178.092 278.518 178.65 278.518 179.2C278.518 180.317 278.335 181.308 277.968 182.175C277.602 183.042 277.093 183.775 276.443 184.375C275.793 184.975 275.027 185.433 274.143 185.75C273.277 186.05 272.343 186.2 271.343 186.2C270.343 186.2 269.41 186.033 268.543 185.7C267.677 185.367 266.918 184.9 266.268 184.3C265.635 183.683 265.135 182.942 264.768 182.075C264.402 181.208 264.218 180.25 264.218 179.2ZM271.368 173.425C270.635 173.425 269.952 173.567 269.318 173.85C268.685 174.117 268.127 174.5 267.643 175C267.177 175.5 266.802 176.1 266.518 176.8C266.252 177.483 266.118 178.25 266.118 179.1C266.118 179.917 266.243 180.658 266.493 181.325C266.76 181.992 267.127 182.567 267.593 183.05C268.06 183.517 268.61 183.883 269.243 184.15C269.893 184.4 270.61 184.525 271.393 184.525C272.993 184.525 274.26 184.05 275.193 183.1C276.143 182.15 276.618 180.817 276.618 179.1C276.618 178.25 276.477 177.483 276.193 176.8C275.927 176.1 275.552 175.5 275.068 175C274.602 174.5 274.052 174.117 273.418 173.85C272.785 173.567 272.102 173.425 271.368 173.425ZM289.823 178.25C289.823 177.933 289.732 177.642 289.548 177.375C289.382 177.092 289.148 176.858 288.848 176.675C288.565 176.475 288.232 176.325 287.848 176.225C287.465 176.108 287.057 176.05 286.623 176.05C285.79 176.05 285.14 176.225 284.673 176.575C284.223 176.925 283.998 177.35 283.998 177.85C283.998 178.383 284.19 178.808 284.573 179.125C284.973 179.425 285.465 179.575 286.048 179.575H287.598C287.648 179.658 287.698 179.767 287.748 179.9C287.798 180.017 287.823 180.158 287.823 180.325C287.823 180.508 287.798 180.667 287.748 180.8C287.698 180.917 287.648 181.008 287.598 181.075H286.048C285.248 181.075 284.682 181.25 284.348 181.6C284.032 181.95 283.873 182.342 283.873 182.775C283.873 183.358 284.098 183.8 284.548 184.1C284.998 184.4 285.573 184.55 286.273 184.55C286.823 184.55 287.282 184.475 287.648 184.325C288.015 184.175 288.332 184.017 288.598 183.85C288.848 183.95 289.023 184.083 289.123 184.25C289.24 184.417 289.298 184.567 289.298 184.7C289.298 185.133 289.023 185.492 288.473 185.775C287.94 186.058 287.198 186.2 286.248 186.2C284.948 186.2 283.907 185.9 283.123 185.3C282.357 184.683 281.973 183.85 281.973 182.8C281.973 182.317 282.107 181.858 282.373 181.425C282.64 180.992 283.015 180.625 283.498 180.325C282.565 179.725 282.098 178.892 282.098 177.825C282.098 177.325 282.198 176.867 282.398 176.45C282.615 176.033 282.923 175.675 283.323 175.375C283.723 175.058 284.207 174.817 284.773 174.65C285.34 174.467 285.982 174.375 286.698 174.375C287.665 174.375 288.49 174.542 289.173 174.875C289.873 175.208 290.398 175.683 290.748 176.3C291.148 175.7 291.698 175.242 292.398 174.925C293.115 174.592 293.848 174.425 294.598 174.425C296.365 174.425 297.748 174.942 298.748 175.975C299.765 177.008 300.273 178.5 300.273 180.45C300.273 182.25 299.815 183.658 298.898 184.675C297.982 185.692 296.648 186.2 294.898 186.2C294.282 186.2 293.723 186.125 293.223 185.975C292.723 185.808 292.298 185.583 291.948 185.3C291.598 185 291.323 184.658 291.123 184.275C290.94 183.892 290.848 183.475 290.848 183.025C290.848 182.625 290.923 182.233 291.073 181.85C291.24 181.467 291.465 181.125 291.748 180.825C292.048 180.525 292.407 180.283 292.823 180.1C293.257 179.917 293.74 179.825 294.273 179.825C294.857 179.825 295.298 179.925 295.598 180.125C295.898 180.325 296.048 180.592 296.048 180.925C296.048 181.242 295.907 181.517 295.623 181.75C295.473 181.667 295.29 181.6 295.073 181.55C294.873 181.5 294.623 181.475 294.323 181.475C293.857 181.475 293.473 181.617 293.173 181.9C292.873 182.167 292.723 182.517 292.723 182.95C292.723 183.483 292.923 183.892 293.323 184.175C293.74 184.458 294.315 184.6 295.048 184.6C296.265 184.6 297.14 184.225 297.673 183.475C298.207 182.708 298.473 181.692 298.473 180.425C298.473 178.992 298.123 177.917 297.423 177.2C296.723 176.467 295.798 176.1 294.648 176.1C294.232 176.1 293.832 176.15 293.448 176.25C293.082 176.35 292.757 176.492 292.473 176.675C292.207 176.858 291.99 177.083 291.823 177.35C291.657 177.617 291.573 177.908 291.573 178.225V179C291.473 179.083 291.348 179.15 291.198 179.2C291.065 179.25 290.898 179.275 290.698 179.275C290.498 179.275 290.323 179.25 290.173 179.2C290.04 179.15 289.923 179.083 289.823 179V178.25ZM281.898 173.425C281.848 173.325 281.798 173.208 281.748 173.075C281.715 172.942 281.698 172.792 281.698 172.625C281.698 172.325 281.782 172.117 281.948 172C282.115 171.883 282.332 171.825 282.598 171.825H296.373C297.173 171.825 297.79 171.658 298.223 171.325C298.673 170.975 298.898 170.492 298.898 169.875C298.898 169.425 298.757 169.067 298.473 168.8C298.207 168.517 297.857 168.375 297.423 168.375C297.057 168.375 296.732 168.483 296.448 168.7C296.165 168.917 296.023 169.25 296.023 169.7C296.023 169.85 296.04 170.008 296.073 170.175C296.023 170.208 295.94 170.25 295.823 170.3C295.707 170.35 295.557 170.375 295.373 170.375C295.057 170.375 294.798 170.283 294.598 170.1C294.415 169.917 294.323 169.625 294.323 169.225C294.323 168.475 294.607 167.883 295.173 167.45C295.757 167.017 296.49 166.8 297.373 166.8C297.823 166.8 298.248 166.875 298.648 167.025C299.048 167.158 299.39 167.358 299.673 167.625C299.973 167.892 300.207 168.225 300.373 168.625C300.557 169.008 300.648 169.45 300.648 169.95C300.648 171.1 300.257 171.967 299.473 172.55C298.707 173.133 297.698 173.425 296.448 173.425H281.898Z" fill="#ABABAB"/>
</svg>
