<svg width="461" height="214" viewBox="0 0 461 214" fill="none" xmlns="http://www.w3.org/2000/svg">
<path d="M94.4453 70.5703C96.5547 70.5703 98.6055 70.1016 100.48 69.1641C102.355 68.2266 103.938 66.9961 105.344 65.4141C106.75 63.832 107.805 62.0156 108.625 59.9062C109.445 57.7969 109.855 55.6289 109.855 53.2852C109.855 51.1172 109.445 49.0078 108.684 47.0156C107.863 45.0234 106.809 43.2656 105.402 41.7422C103.996 40.2188 102.355 38.9297 100.48 37.9336C98.6055 36.9375 96.5547 36.293 94.3281 36.0586L93.5078 46.2539C95.2656 46.4883 96.7891 47.3086 97.9609 48.5977C99.1328 49.9453 99.7188 51.5273 99.7188 53.2852C99.7188 54.2227 99.543 55.1016 99.25 55.9219C98.957 56.8008 98.5469 57.5625 98.0781 58.207C97.5508 58.9102 96.9648 59.4375 96.2617 59.7891C95.5586 60.1992 94.8555 60.375 94.1523 60.375H36.4375V70.5703H94.4453ZM68.8398 85.8633C69.7773 85.8633 70.6562 85.6875 71.4766 85.3359C72.2969 84.9844 73 84.5156 73.5859 83.8711C74.1719 83.2852 74.6406 82.582 74.9922 81.7617C75.3438 80.9414 75.5195 80.1211 75.5195 79.1836C75.5195 78.3047 75.3438 77.4258 74.9922 76.6055C74.6406 75.7852 74.1133 75.082 73.5273 74.4961C72.9414 73.9102 72.2383 73.3828 71.418 73.0312C70.5977 72.6797 69.7188 72.5039 68.8398 72.5039C67.9023 72.5039 67.082 72.6797 66.2617 73.0312C65.4414 73.3828 64.7383 73.9102 64.1523 74.4961C63.5664 75.082 63.0977 75.7852 62.7461 76.6055C62.3945 77.4258 62.2188 78.3047 62.2188 79.1836C62.2188 80.1211 62.3945 80.9414 62.7461 81.7617C63.0977 82.582 63.5664 83.3438 64.1523 83.9297C64.7383 84.5156 65.3828 84.9844 66.2031 85.3359C67.0234 85.6875 67.9023 85.8633 68.8398 85.8633ZM88.1172 126.059C91.2812 126.059 94.2109 125.414 96.8477 124.008C99.4844 122.66 101.77 120.785 103.645 118.383C105.52 115.98 106.926 113.109 107.98 109.828C109.035 106.547 109.562 102.914 109.562 99.0469C109.562 89.0273 105.344 79.8281 97.0234 71.5078L89.6406 78.9492C96.1445 85.3945 99.4258 92.1328 99.4258 99.0469C99.4258 109.008 95.6172 113.988 88.1172 113.988C84.9531 113.988 82.082 111.645 79.5039 106.84C78.5078 105.082 77.5703 103.324 76.6328 101.566C75.6953 99.8672 74.6992 98.2266 73.7031 96.7031C72.6484 95.1797 71.5352 93.7734 70.3633 92.4844C69.1914 91.1953 67.8438 90.1406 66.3203 89.2031C64.7969 88.2656 63.0391 87.5625 61.1641 87.0352C59.2305 86.5664 57.0625 86.2734 54.6602 86.2734C52.0234 86.2734 49.5625 86.8594 47.3359 87.9141C45.1094 88.9688 43.1758 90.4922 41.5352 92.3672C39.8945 94.2422 38.6055 96.4688 37.668 99.0469C36.7305 101.625 36.2617 104.32 36.2617 107.25C36.2617 115.219 39.1914 122.016 45.0508 127.523L53.7227 121.605C48.8008 115.453 46.3984 110.473 46.3984 106.605C46.3984 105.316 46.5742 104.027 47.043 102.797C47.4531 101.625 48.0391 100.512 48.8008 99.5742C49.5625 98.6367 50.4414 97.9336 51.4961 97.3477C52.4922 96.7617 53.6055 96.4688 54.7773 96.4688C56.5352 96.4688 58.1758 96.8789 59.582 97.582C60.9883 98.2852 62.2773 99.2812 63.4492 100.453C64.5625 101.625 65.5586 103.031 66.4961 104.555C67.375 106.078 68.1953 107.66 69.0156 109.301C69.8359 110.941 70.5977 112.523 71.3594 114.105C72.1211 115.688 72.9414 117.094 73.7617 118.383C77.2773 123.539 82.0234 126.059 88.1172 126.059ZM147.062 126C150.871 126 154.445 125.18 157.785 123.539C161.066 121.898 163.938 119.613 166.398 116.801C168.859 113.988 170.734 110.707 172.141 106.957C173.547 103.207 174.25 99.2812 174.25 95.1797C174.25 91.0781 173.547 87.2109 172.141 83.4609C170.734 79.7109 168.859 76.4297 166.398 73.6172C163.938 70.8047 161.066 68.5195 157.785 66.8789C154.445 65.2383 150.871 64.3594 147.062 64.3594C143.195 64.3594 139.621 65.2383 136.34 66.8789C133 68.5195 130.129 70.8047 127.668 73.6172C125.207 76.4297 123.332 79.7109 121.926 83.4609C120.52 87.2109 119.875 91.0781 119.875 95.1797C119.875 99.2812 120.52 103.207 121.926 106.957C123.332 110.707 125.207 113.988 127.668 116.801C130.129 119.613 133 121.898 136.34 123.539C139.621 125.18 143.195 126 147.062 126ZM147.062 74.4375C149.406 74.4375 151.633 74.9648 153.742 76.0195C155.852 77.0742 157.668 78.5391 159.25 80.3555C160.773 82.1719 162.004 84.2812 162.883 86.6836C163.762 89.0859 164.23 91.6055 164.23 94.3008C164.23 96.9961 163.762 99.5156 162.883 101.918C162.004 104.32 160.773 106.43 159.25 108.246C157.668 110.062 155.852 111.469 153.742 112.523C151.633 113.578 149.406 114.105 147.062 114.105C144.602 114.105 142.375 113.578 140.324 112.523C138.215 111.469 136.398 110.062 134.875 108.246C133.293 106.43 132.062 104.32 131.184 101.918C130.305 99.5156 129.895 96.9961 129.895 94.3008C129.895 91.6055 130.305 89.0859 131.184 86.6836C132.062 84.2812 133.293 82.1719 134.875 80.3555C136.398 78.5391 138.215 77.0742 140.324 76.0195C142.375 74.9648 144.602 74.4375 147.062 74.4375ZM242.629 70.3945C253.469 69.3398 258.918 63.6562 258.918 53.2852C258.918 51.1758 258.508 49.0664 257.688 47.0742C256.867 45.082 255.812 43.3242 254.406 41.7422C253 40.2188 251.301 38.9297 249.426 37.875C247.551 36.8789 245.5 36.293 243.391 36.0586L242.57 46.2539C243.391 46.3711 244.211 46.6641 244.973 47.0742C245.734 47.4844 246.379 48.0117 246.965 48.5977C247.551 49.2422 247.961 49.9453 248.312 50.7656C248.605 51.5859 248.781 52.4062 248.781 53.2852C248.781 54.1641 248.605 55.043 248.312 55.8633C247.961 56.6836 247.551 57.4453 247.082 58.1484C246.555 58.8516 245.969 59.3789 245.324 59.7891C244.621 60.1992 243.918 60.375 243.215 60.375H184.562V70.5703C187.492 70.5703 189.66 70.5117 191.066 70.5117C192.473 70.5117 193.879 70.5117 195.227 70.5117C196.574 70.5117 197.629 70.4531 198.332 70.4531C202.258 70.4531 206.184 70.6875 210.168 71.0391C214.152 71.3906 217.961 72.0352 221.594 72.9141C225.227 73.793 228.684 74.9648 231.848 76.3711C235.012 77.7773 237.766 79.5938 240.109 81.7031C242.453 83.8711 244.27 86.3906 245.617 89.3203C246.906 92.25 247.609 95.6484 247.609 99.457C247.609 101.449 247.316 103.324 246.789 105.082C246.262 106.84 245.559 108.422 244.621 109.711C243.684 111.059 242.512 112.113 241.223 112.875C239.875 113.637 238.41 113.988 236.828 113.988C235.188 113.988 233.781 113.695 232.492 113.051C231.203 112.465 230.09 111.586 229.152 110.473C228.215 109.359 227.512 108.012 227.043 106.488C226.516 104.965 226.281 103.324 226.281 101.449H216.145C216.145 103.324 215.852 104.965 215.324 106.488C214.797 108.012 214.035 109.359 213.098 110.473C212.16 111.586 210.988 112.465 209.699 113.051C208.352 113.695 206.887 113.988 205.305 113.988C203.781 113.988 202.434 113.695 201.145 113.051C199.855 112.465 198.684 111.586 197.746 110.531C196.809 109.477 196.047 108.305 195.52 106.898C194.934 105.551 194.699 104.145 194.699 102.621C194.699 101.332 194.875 100.102 195.344 98.8711C195.812 97.6992 196.398 96.5859 197.219 95.6484C197.98 94.7109 198.859 94.0078 199.914 93.4219C200.969 92.8359 202.082 92.543 203.254 92.543C204.895 92.543 207.004 93.7148 209.582 96.0586L216.027 87.7383C212.277 84.1055 208 82.2891 203.137 82.2891C200.441 82.2891 197.98 82.875 195.754 83.9883C193.469 85.1602 191.477 86.6836 189.836 88.6172C188.195 90.5508 186.906 92.7773 185.969 95.3555C185.031 97.9336 184.562 100.629 184.562 103.441C184.562 106.547 185.09 109.477 186.203 112.172C187.258 114.926 188.781 117.328 190.656 119.379C192.531 121.43 194.758 123.07 197.336 124.242C199.914 125.414 202.668 126 205.656 126C211.984 126 217.141 123.656 221.125 118.852C225.168 123.656 230.324 126 236.652 126C239.699 126 242.57 125.355 245.148 124.008C247.727 122.719 249.953 120.844 251.828 118.5C253.703 116.156 255.109 113.344 256.164 110.121C257.219 106.898 257.746 103.383 257.746 99.6328C257.746 96.8203 257.336 94.0664 256.633 91.2539C255.93 88.5 254.875 85.8633 253.586 83.2852C252.238 80.7656 250.656 78.4219 248.781 76.1953C246.906 74.0273 244.855 72.0938 242.629 70.3945ZM305.207 70.6289C309.426 70.8047 313.645 70.9805 317.98 71.0977C322.082 71.0977 325.656 70.7461 328.586 70.043C331.516 69.3398 333.977 68.2852 335.852 66.8203C337.727 65.3555 339.133 63.4805 340.07 61.2539C340.949 59.0273 341.418 56.332 341.418 53.2852C341.418 51.0586 341.008 48.9492 340.188 46.957C339.367 44.9648 338.312 43.207 336.906 41.6836C335.5 40.1602 333.801 38.8711 331.926 37.875C330.051 36.8789 328 36.293 325.891 36.0586L325.07 46.3125C326.945 46.4297 328.41 47.1914 329.582 48.4805C330.695 49.8281 331.281 51.4102 331.281 53.2852C331.281 54.2227 331.105 55.1602 330.812 55.9805C330.52 56.8594 330.109 57.6211 329.641 58.2656C329.113 58.9102 328.527 59.4375 327.824 59.7891C327.121 60.1992 326.418 60.375 325.715 60.375H268V70.5703C268.527 70.5703 269.23 70.5703 270.168 70.5117C271.047 70.4531 272.043 70.3945 273.098 70.2773C274.152 70.2188 275.266 70.1602 276.438 70.043C277.551 69.9258 278.605 69.8672 279.66 69.75C280.656 69.6914 281.535 69.6328 282.355 69.5742C283.176 69.5156 283.762 69.457 284.23 69.457C288.098 69.457 291.203 70.3359 293.547 71.9766C295.891 73.6172 297.531 76.3711 298.469 80.1211C295.422 78.6562 292.141 77.8945 288.684 77.8945C285.637 77.8945 282.824 78.5391 280.305 79.7695C277.727 81 275.559 82.6992 273.742 84.8086C271.926 86.9766 270.52 89.4961 269.523 92.4258C268.469 95.3555 268 98.5195 268 101.918C268 105.375 268.469 108.539 269.523 111.469C270.52 114.398 271.926 116.977 273.801 119.086C275.617 121.254 277.785 122.953 280.305 124.184C282.824 125.414 285.637 126 288.684 126C295.246 126 300.52 123.656 304.562 118.91C308.547 123.656 313.879 126 320.441 126C323.488 126 326.242 125.414 328.762 124.184C331.281 122.953 333.449 121.254 335.324 119.086C337.141 116.977 338.547 114.398 339.602 111.469C340.598 108.539 341.125 105.375 341.125 101.918C341.125 98.5195 340.598 95.3555 339.602 92.4258C338.547 89.4961 337.141 86.9766 335.324 84.8086C333.508 82.6992 331.34 81 328.82 79.7695C326.242 78.5391 323.488 77.8945 320.441 77.8945C316.223 77.8945 312.473 78.8906 309.309 80.8828C308.84 78.4805 308.254 76.4883 307.551 74.9062C306.848 73.3242 306.086 71.918 305.207 70.6289ZM320.441 88.0898C321.965 88.0898 323.43 88.4414 324.719 89.0859C326.008 89.7305 327.121 90.6094 328.059 91.7812C328.996 92.9531 329.699 94.3008 330.227 95.8242C330.695 97.4062 330.988 99.1055 330.988 100.922C330.988 102.797 330.695 104.555 330.227 106.137C329.699 107.777 328.996 109.125 328.059 110.297C327.121 111.469 326.008 112.348 324.719 112.992C323.43 113.695 321.965 113.988 320.441 113.988C318.859 113.988 317.395 113.695 316.105 113.051C314.816 112.465 313.645 111.586 312.707 110.531C311.77 109.477 311.008 108.188 310.48 106.664C309.895 105.199 309.66 103.559 309.66 101.801C309.66 99.8086 309.895 97.9336 310.363 96.2344C310.832 94.5352 311.594 93.0703 312.531 91.8984C313.469 90.7266 314.582 89.7891 315.93 89.0859C317.219 88.4414 318.742 88.0898 320.441 88.0898ZM288.684 88.0898C290.324 88.0898 291.848 88.4414 293.195 89.1445C294.543 89.8477 295.715 90.7852 296.652 92.0156C297.59 93.2461 298.293 94.7109 298.762 96.3516C299.23 98.0508 299.523 99.8672 299.523 101.801C299.523 103.559 299.23 105.141 298.703 106.605C298.117 108.129 297.355 109.418 296.418 110.473C295.422 111.586 294.25 112.465 292.961 113.051C291.672 113.695 290.207 113.988 288.684 113.988C287.043 113.988 285.637 113.695 284.348 112.992C283.059 112.348 281.945 111.469 281.008 110.297C280.07 109.125 279.367 107.777 278.898 106.137C278.371 104.555 278.137 102.797 278.137 100.922C278.137 99.1055 278.371 97.4062 278.898 95.8242C279.367 94.3008 280.07 92.9531 281.008 91.7812C281.945 90.6094 283.059 89.7305 284.348 89.0859C285.637 88.4414 287.043 88.0898 288.684 88.0898ZM412.375 70.2773C414.133 69.9258 415.832 69.2227 417.355 68.168C418.879 67.1133 420.227 65.7656 421.34 64.2422C422.395 62.7188 423.273 60.9609 423.918 59.0859C424.504 57.2109 424.855 55.2773 424.855 53.2852C424.855 51.1758 424.445 49.0664 423.625 47.0742C422.805 45.082 421.75 43.3242 420.344 41.7422C418.938 40.2188 417.238 38.9297 415.363 37.875C413.488 36.8789 411.438 36.293 409.328 36.0586L408.508 46.2539C409.328 46.3711 410.148 46.6641 410.91 47.0742C411.672 47.4844 412.316 48.0117 412.902 48.5977C413.488 49.2422 413.898 49.9453 414.25 50.7656C414.543 51.5859 414.719 52.4062 414.719 53.2852C414.719 55.3359 414.191 57.0352 413.137 58.3828C412.082 59.7305 410.793 60.375 409.152 60.375H351.438V70.5703C352.023 70.5703 352.902 70.5703 354.074 70.5117C355.246 70.5117 356.652 70.4531 358.176 70.3945C359.699 70.3945 361.281 70.3359 362.98 70.2188C364.621 70.1602 366.262 70.1016 367.844 70.043C369.367 70.043 370.832 69.9844 372.18 69.9258C373.469 69.9258 374.523 69.8672 375.344 69.8672C382.258 69.8672 388.234 70.4531 393.156 71.5078C398.078 72.6211 402.121 74.3203 405.285 76.6641C408.449 79.0078 410.734 82.0547 412.199 85.7461C413.664 89.4375 414.426 93.8906 414.426 99.0469C414.426 109.008 410.617 113.988 403.117 113.988C401.359 113.988 399.895 113.637 398.605 112.816C397.316 111.996 396.145 110.941 395.09 109.652C394.035 108.363 393.039 106.898 392.102 105.258C391.164 103.617 390.227 101.918 389.23 100.16C388.234 98.4023 387.18 96.7031 386.008 95.0625C384.836 93.4219 383.547 91.8984 382.023 90.6094C380.5 89.3203 378.684 88.3242 376.691 87.5039C374.699 86.6836 372.355 86.2734 369.66 86.2734C367.023 86.2734 364.562 86.8594 362.336 87.9141C360.109 88.9688 358.176 90.4922 356.535 92.3672C354.895 94.2422 353.605 96.4688 352.668 99.0469C351.73 101.625 351.262 104.32 351.262 107.25C351.262 115.219 354.191 122.016 360.051 127.523L368.723 121.605C363.801 115.453 361.398 110.473 361.398 106.605C361.398 105.316 361.574 104.027 362.043 102.797C362.453 101.625 363.039 100.512 363.801 99.5742C364.562 98.6367 365.441 97.9336 366.496 97.3477C367.492 96.7617 368.605 96.4688 369.777 96.4688C371.887 96.4688 373.703 97.2305 375.285 98.6953C376.867 100.16 378.332 101.977 379.738 104.145C381.145 106.371 382.551 108.715 383.957 111.293C385.363 113.871 386.945 116.215 388.703 118.383C390.461 120.609 392.453 122.426 394.797 123.891C397.141 125.355 399.895 126.059 403.117 126.059C406.281 126.059 409.211 125.414 411.848 124.008C414.484 122.66 416.77 120.785 418.645 118.324C420.52 115.922 421.926 113.051 422.98 109.77C424.035 106.488 424.562 102.914 424.562 99.0469C424.562 92.9531 423.508 87.6211 421.516 82.9336C419.523 78.2461 416.477 74.0273 412.375 70.2773Z" fill="white" fill-opacity="0.2"/>
<path d="M180.83 170.558C180.83 169.704 180.562 168.959 180.049 168.3C179.5 167.616 178.816 167.238 177.986 167.152L177.852 168.812C178.242 168.837 178.56 169.044 178.828 169.423C179.048 169.765 179.17 170.143 179.17 170.558C179.17 171.01 179.036 171.413 178.779 171.754C178.499 172.145 178.145 172.328 177.705 172.328H168.757V173.988H173.64V176.039H168.757V177.211H171.577C170.771 177.614 170.125 178.126 169.624 178.761C169.038 179.481 168.757 180.25 168.757 181.056C168.757 182.509 169.404 183.717 170.723 184.682C171.919 185.561 173.262 186 174.763 186C176.252 186 177.607 185.561 178.804 184.682C180.11 183.717 180.769 182.509 180.769 181.056C180.769 179.445 179.927 178.163 178.242 177.211H180.769V176.039H176.033V173.988H177.705C178.633 173.988 179.402 173.646 179.988 172.963C180.549 172.316 180.83 171.51 180.83 170.558ZM179.109 180.983C179.109 181.959 178.596 182.716 177.583 183.266C176.753 183.729 175.813 183.949 174.763 183.949C173.713 183.949 172.773 183.729 171.943 183.266C170.918 182.716 170.417 181.959 170.417 180.983C170.417 180.019 170.918 179.262 171.943 178.7C172.773 178.249 173.713 178.017 174.763 178.017C175.813 178.017 176.753 178.249 177.583 178.7C178.596 179.262 179.109 180.019 179.109 180.983ZM198.213 170.558C198.213 169.704 197.944 168.959 197.432 168.3C196.882 167.616 196.199 167.238 195.369 167.152L195.234 168.812C195.625 168.837 195.942 169.044 196.211 169.423C196.431 169.765 196.553 170.143 196.553 170.558C196.553 171.01 196.418 171.413 196.162 171.754C195.881 172.145 195.527 172.328 195.088 172.328H182.917V173.988H185.994C183.943 175.612 182.917 177.858 182.917 180.739C182.917 182.13 183.296 183.339 184.053 184.34C184.883 185.451 185.969 186 187.312 186C188.63 186 189.705 185.438 190.535 184.315C191.365 185.438 192.439 186 193.757 186C195.1 186 196.187 185.451 197.017 184.34C197.773 183.339 198.152 182.13 198.152 180.739C198.152 177.858 197.126 175.612 195.076 173.988C196.003 173.988 196.76 173.646 197.358 172.951C197.92 172.304 198.213 171.51 198.213 170.558ZM191.707 188.063C191.707 187.721 191.572 187.282 191.316 186.72C191.06 186.171 190.803 185.805 190.535 185.609C190.254 185.805 189.985 186.183 189.741 186.72C189.485 187.257 189.363 187.709 189.363 188.063C189.363 188.905 189.753 189.32 190.535 189.32C190.876 189.32 191.157 189.198 191.377 188.954C191.597 188.71 191.707 188.417 191.707 188.063ZM196.492 180.58C196.492 181.496 196.284 182.252 195.894 182.863C195.43 183.595 194.758 183.949 193.904 183.949C193.147 183.949 192.537 183.693 192.073 183.18C191.609 182.667 191.377 182.021 191.377 181.264H189.717C189.717 182.021 189.485 182.655 189.021 183.168C188.533 183.693 187.91 183.949 187.166 183.949C186.299 183.949 185.64 183.595 185.176 182.863C184.773 182.252 184.578 181.496 184.578 180.58C184.578 179.237 184.895 178.029 185.53 176.955C186.189 175.856 187.129 175.038 188.325 174.489C189.07 174.159 189.802 173.988 190.535 173.988C191.255 173.988 191.987 174.159 192.744 174.489C193.94 175.038 194.868 175.856 195.54 176.955C196.174 178.029 196.492 179.237 196.492 180.58ZM191.707 177.309C191.707 176.991 191.584 176.71 191.365 176.479C191.133 176.259 190.852 176.137 190.535 176.137C190.205 176.137 189.924 176.259 189.705 176.479C189.473 176.71 189.363 176.991 189.363 177.309C189.363 177.638 189.473 177.919 189.705 178.139C189.924 178.371 190.205 178.48 190.535 178.48C190.852 178.48 191.133 178.371 191.365 178.139C191.584 177.919 191.707 177.638 191.707 177.309ZM215.596 170.558C215.596 169.704 215.327 168.959 214.814 168.3C214.265 167.616 213.582 167.238 212.751 167.152L212.617 168.812C213.008 168.849 213.337 169.057 213.594 169.423C213.813 169.765 213.936 170.143 213.936 170.558C213.936 171.046 213.813 171.461 213.582 171.779C213.313 172.145 212.935 172.328 212.471 172.328H200.3V173.988H208.662C210.078 173.988 211.323 174.733 212.397 176.222C213.374 177.589 213.875 179.018 213.875 180.482C213.875 181.496 213.618 182.313 213.13 182.936C212.593 183.62 211.824 183.949 210.847 183.949C209.98 183.949 209.15 183.449 208.369 182.448C207.71 181.52 207.063 180.58 206.428 179.64C205.635 178.639 204.805 178.139 203.95 178.139C202.803 178.139 201.912 178.456 201.265 179.091C200.618 179.726 200.3 180.604 200.3 181.74C200.3 183.522 200.996 184.938 202.4 186L203.169 183.949C202.656 183.51 202.339 183.18 202.217 182.96C202.046 182.667 201.96 182.216 201.96 181.605C201.96 181.056 202.119 180.617 202.461 180.287C202.803 179.97 203.254 179.799 203.816 179.799C204.402 179.799 205.061 180.336 205.769 181.41C207.002 183.278 207.673 184.267 207.783 184.389C208.687 185.463 209.7 186 210.798 186C212.312 186 213.508 185.451 214.363 184.34C215.144 183.339 215.535 182.057 215.535 180.482C215.535 177.724 214.534 175.563 212.532 173.988C213.435 173.988 214.18 173.646 214.766 172.938C215.315 172.279 215.596 171.486 215.596 170.558ZM240.974 179.689C240.974 177.711 240.437 175.685 239.363 173.622C238.264 171.522 236.738 169.63 234.797 167.958C234.163 167.421 233.516 167.152 232.856 167.152C232.1 167.152 231.453 167.421 230.916 167.958C230.378 168.495 230.122 169.13 230.122 169.887C230.122 170.644 230.378 171.291 230.916 171.828C231.453 172.365 232.1 172.621 232.856 172.621C233.43 172.621 233.955 172.462 234.419 172.133C234.883 171.803 235.225 171.376 235.42 170.839C238.008 173.549 239.314 176.466 239.314 179.616C239.314 180.946 239.082 181.984 238.63 182.741C238.13 183.546 237.422 183.949 236.494 183.949C235.762 183.949 235.164 183.705 234.675 183.205C234.187 182.704 233.955 182.13 233.955 181.471V181.264H232.295V181.471C232.295 182.13 232.039 182.716 231.55 183.205C231.062 183.705 230.439 183.949 229.695 183.949C228.938 183.949 228.328 183.668 227.839 183.107C227.375 182.582 227.156 181.959 227.156 181.251C227.156 180.031 227.754 179.225 228.975 178.822L228.523 177.223C227.546 177.516 226.777 178.078 226.24 178.883C225.74 179.628 225.496 180.482 225.496 181.435C225.496 182.655 225.862 183.705 226.606 184.572C227.412 185.524 228.462 186 229.78 186C231.172 186 232.283 185.438 233.113 184.315C233.943 185.438 235.066 186 236.494 186C237.825 186 238.875 185.536 239.644 184.608C240.522 183.534 240.974 181.898 240.974 179.689ZM234.309 169.813C234.236 170.143 234.041 170.412 233.748 170.631C233.442 170.851 233.137 170.961 232.832 170.961C232.539 170.961 232.283 170.863 232.075 170.644C231.855 170.436 231.758 170.18 231.758 169.887C231.758 169.594 231.855 169.35 232.075 169.13C232.283 168.922 232.539 168.812 232.832 168.812C233.32 168.812 233.809 169.154 234.309 169.813ZM258.418 170.558C258.418 169.704 258.149 168.959 257.637 168.3C257.087 167.616 256.404 167.238 255.574 167.152L255.439 168.812C255.83 168.837 256.147 169.044 256.416 169.423C256.636 169.765 256.758 170.143 256.758 170.558C256.758 171.01 256.624 171.413 256.367 171.754C256.086 172.145 255.732 172.328 255.293 172.328H243.123V173.988H248.762C250.898 173.988 252.717 174.55 254.231 175.673C255.867 176.906 256.697 178.542 256.697 180.58C256.697 181.483 256.489 182.252 256.099 182.863C255.635 183.595 254.976 183.949 254.121 183.949C253.364 183.949 252.742 183.693 252.278 183.18C251.814 182.667 251.582 182.021 251.582 181.264H249.922C249.922 182.045 249.678 182.68 249.202 183.192C248.713 183.705 248.091 183.949 247.322 183.949C246.589 183.949 245.991 183.681 245.503 183.131C245.015 182.619 244.783 181.984 244.783 181.251C244.783 180.031 245.381 179.225 246.602 178.822L246.15 177.223C245.198 177.504 244.453 178.029 243.916 178.81C243.379 179.567 243.123 180.434 243.123 181.435C243.123 182.704 243.513 183.778 244.294 184.645C245.1 185.548 246.138 186 247.407 186C248.799 186 249.91 185.438 250.74 184.315C251.57 185.438 252.693 186 254.121 186C255.439 186 256.501 185.438 257.307 184.315C258.003 183.314 258.357 182.13 258.357 180.739C258.357 179.384 258.003 178.09 257.319 176.869C256.636 175.648 255.708 174.684 254.548 173.988H255.354C256.245 173.988 256.99 173.634 257.588 172.926C258.137 172.267 258.418 171.474 258.418 170.558ZM274.141 170.558C274.141 169.704 273.872 168.959 273.359 168.3C272.81 167.616 272.126 167.238 271.296 167.152L271.162 168.812C271.553 168.837 271.882 169.044 272.139 169.423C272.358 169.765 272.48 170.143 272.48 170.558C272.48 171.01 272.346 171.413 272.09 171.754C271.809 172.145 271.455 172.328 271.016 172.328H260.505V173.988H262.861C261.287 175.355 260.505 177.089 260.505 179.164C260.505 181.044 261.165 182.655 262.483 183.998C263.801 185.341 265.413 186 267.292 186C269.172 186 270.771 185.341 272.09 183.998C273.408 182.655 274.08 181.044 274.08 179.164C274.08 177.04 273.262 175.294 271.65 173.927C272.407 173.769 273.018 173.354 273.481 172.694C273.921 172.084 274.141 171.364 274.141 170.558ZM272.273 178.969C272.273 180.348 271.785 181.52 270.808 182.497C269.832 183.473 268.66 183.949 267.292 183.949C265.913 183.949 264.741 183.473 263.765 182.497C262.788 181.52 262.312 180.348 262.312 178.969C262.312 177.602 262.788 176.43 263.765 175.453C264.741 174.477 265.913 173.988 267.292 173.988C268.66 173.988 269.832 174.477 270.808 175.453C271.785 176.43 272.273 177.602 272.273 178.969ZM289.021 173.988V172.328H276.228V173.988H289.021ZM290.413 180.568C290.413 179.005 290.059 177.736 289.363 176.759C288.557 175.661 287.41 175.099 285.908 175.099C284.602 175.099 283.601 175.514 282.893 176.344C282.185 175.514 281.184 175.099 279.89 175.099C278.889 175.099 278.059 175.343 277.375 175.832C276.606 176.393 276.228 177.138 276.228 178.09C276.228 179.091 276.631 179.86 277.461 180.373C276.631 180.849 276.228 181.679 276.228 182.875C276.228 183.754 276.509 184.499 277.095 185.097C277.681 185.707 278.413 186 279.292 186C280.195 186 280.94 185.695 281.526 185.072C282.112 184.45 282.417 183.681 282.417 182.777H280.696C280.696 183.729 280.232 184.193 279.292 184.193C278.889 184.193 278.56 184.059 278.315 183.791C278.071 183.522 277.949 183.192 277.949 182.777C277.949 181.679 278.474 181.117 279.524 181.117H280.208V179.628H279.524C279.072 179.628 278.694 179.481 278.401 179.188C278.096 178.896 277.949 178.529 277.949 178.078C277.949 177.089 278.596 176.588 279.89 176.588C280.5 176.588 281.001 176.784 281.416 177.162C281.831 177.541 282.039 178.029 282.039 178.627H283.76C283.76 178.029 283.955 177.541 284.37 177.162C284.785 176.784 285.298 176.588 285.908 176.588C286.86 176.588 287.581 177.064 288.093 178.017C288.496 178.786 288.704 179.689 288.704 180.727C288.704 181.325 288.618 181.886 288.472 182.423C287.935 181.3 287.19 180.739 286.262 180.739C285.53 180.739 284.944 180.983 284.504 181.447C284.065 181.911 283.845 182.509 283.845 183.229C283.845 184.035 284.089 184.706 284.578 185.219C285.066 185.744 285.701 186 286.506 186C287.8 186 288.801 185.39 289.521 184.169C290.107 183.168 290.413 181.959 290.413 180.568ZM287.764 183.485C287.654 183.766 287.446 184.01 287.153 184.23C286.848 184.45 286.555 184.56 286.262 184.56C285.92 184.56 285.652 184.425 285.457 184.132C285.261 183.888 285.176 183.583 285.176 183.229C285.176 182.96 285.286 182.704 285.518 182.448C285.737 182.204 285.994 182.069 286.262 182.069C286.995 182.069 287.495 182.545 287.764 183.485ZM291.462 170.521C291.462 169.63 291.182 168.861 290.645 168.202C290.046 167.506 289.29 167.152 288.362 167.152C287.727 167.152 287.202 167.348 286.775 167.726C286.299 168.141 286.067 168.69 286.067 169.374C286.067 169.936 286.226 170.387 286.555 170.729C286.848 171.046 287.214 171.193 287.642 171.193C288.191 171.193 288.618 170.949 288.911 170.436L288.411 169.997C288.228 170.253 288.032 170.375 287.812 170.375C287.422 170.375 287.227 170.143 287.227 169.655C287.227 169.032 287.544 168.715 288.203 168.715C288.716 168.715 289.131 168.886 289.46 169.228C289.753 169.545 289.9 169.936 289.9 170.375C289.9 170.888 289.729 171.327 289.387 171.706C289.021 172.121 288.569 172.328 288.032 172.328H286.116V173.988H288.032C289.082 173.988 289.937 173.634 290.583 172.902C291.169 172.243 291.462 171.449 291.462 170.521Z" fill="#ABABAB"/>
</svg>
