<svg width="461" height="214" viewBox="0 0 461 214" fill="none" xmlns="http://www.w3.org/2000/svg">
<path d="M121.809 126C126.496 126 130.891 125.414 134.992 124.242C139.035 123.07 142.551 121.371 145.598 119.203C148.586 117.035 150.93 114.457 152.688 111.41C154.387 108.363 155.266 105.023 155.266 101.273C155.266 98.4609 154.621 95.9414 153.332 93.7148C152.043 91.4883 150.051 89.3203 147.355 87.2109C150.871 84.3984 152.688 80.2969 152.688 74.9062C152.688 72.8555 152.277 70.9219 151.516 69.0469C150.695 67.2305 149.641 65.6484 148.293 64.2422C146.945 62.8945 145.363 61.8398 143.547 61.0195C141.73 60.1992 139.797 59.7891 137.805 59.7891C135.695 59.7891 133.82 60.1992 132.121 60.9609C130.422 61.7227 128.957 62.7773 127.727 64.125C126.438 65.4727 125.5 67.0547 124.797 68.9297C124.094 70.8047 123.801 72.7969 123.801 74.9062C123.801 77.7188 124.387 80.1211 125.676 82.1719H116.359V92.25C118.469 92.1328 120.109 92.0156 121.281 91.8984C122.453 91.8398 123.625 91.7812 124.797 91.6641C125.969 91.6055 127.023 91.5469 127.844 91.5469C133.703 91.5469 138.039 92.3672 140.852 93.8906C143.664 95.4727 145.129 98.0508 145.129 101.566C145.129 103.559 144.543 105.316 143.371 106.84C142.199 108.363 140.617 109.711 138.566 110.766C136.516 111.82 134.055 112.641 131.242 113.227C128.43 113.812 125.324 114.105 121.984 114.105C117.648 114.105 113.605 113.637 109.973 112.699C106.34 111.762 103.176 110.355 100.539 108.539C97.9023 106.723 95.8516 104.496 94.3867 101.859C92.9219 99.2812 92.2188 96.293 92.2188 92.8945C92.2188 91.4883 92.2773 89.7891 92.4531 87.8555C94.5625 89.4375 97.082 90.1992 100.012 90.1992C101.887 90.1992 103.645 89.7891 105.285 88.9688C106.926 88.1484 108.391 86.9766 109.621 85.5703C110.852 84.1641 111.848 82.582 112.551 80.7656C113.254 78.9492 113.605 77.0156 113.605 75.0234C113.605 73.0312 113.195 71.1562 112.492 69.2812C111.789 67.4648 110.793 65.8242 109.562 64.418C108.332 63.0117 106.926 61.8984 105.285 61.0781C103.645 60.2578 101.887 59.7891 100.012 59.7891C97.9023 59.7891 95.9688 60.3164 94.2695 61.3711C92.5703 62.4258 91.0469 63.832 89.7578 65.5312C88.4102 67.2891 87.2383 69.2227 86.3008 71.4492C85.3633 73.6758 84.543 75.9023 83.957 78.2461C83.3125 80.5898 82.8438 82.875 82.5508 85.1016C82.2578 87.3281 82.1406 89.3789 82.1406 91.1367C82.1406 96.5273 83.0781 101.332 85.0703 105.609C87.0039 109.945 89.6992 113.578 93.2148 116.625C96.7305 119.672 100.891 121.957 105.754 123.598C110.617 125.238 115.949 126 121.809 126ZM137.98 69.8672C140.676 69.8672 142.082 71.5664 142.082 74.9062C142.082 78.5391 140.734 80.8828 138.039 81.9375C135.285 80.5312 133.938 78.1875 133.938 74.9062C133.938 71.5664 135.285 69.8672 137.98 69.8672ZM100.012 69.8672C100.48 69.8672 100.891 70.043 101.301 70.3359C101.711 70.6289 102.062 71.0391 102.414 71.5078C102.707 71.9766 102.941 72.5625 103.117 73.1484C103.293 73.793 103.41 74.4375 103.41 75.0234C103.41 75.6094 103.293 76.1953 103.176 76.8398C103.059 77.543 102.824 78.1289 102.473 78.5977C102.121 79.125 101.652 79.5352 101.066 79.7695C100.48 80.0039 99.9531 80.1211 99.4258 80.1211C97.0234 80.1211 95.3242 79.2422 94.3867 77.4844C94.5039 76.4883 94.7969 75.5508 95.207 74.6133C95.5586 73.6758 96.0273 72.8555 96.5547 72.1523C97.082 71.4492 97.668 70.9219 98.2539 70.5117C98.8398 70.1016 99.4258 69.8672 100.012 69.8672ZM220.715 69.5742C222.238 68.9883 223.586 68.168 224.875 67.0547C226.164 66 227.219 64.7109 228.156 63.2461C229.094 61.8398 229.797 60.2578 230.266 58.5586C230.734 56.8594 231.027 55.1016 231.027 53.2852C231.027 51.0586 230.617 48.9492 229.855 46.957C229.035 44.9648 227.98 43.207 226.574 41.6836C225.168 40.1602 223.586 38.8711 221.711 37.875C219.836 36.8789 217.785 36.293 215.559 36.0586L214.738 46.3125C215.676 46.3711 216.496 46.6055 217.258 46.957C218.02 47.3672 218.664 47.8945 219.25 48.4805C219.777 49.125 220.188 49.8281 220.48 50.6484C220.773 51.4688 220.949 52.3477 220.949 53.2852C220.949 54.2227 220.773 55.1602 220.48 55.9805C220.188 56.8594 219.777 57.6211 219.309 58.2656C218.781 58.9102 218.195 59.4375 217.492 59.7891C216.789 60.1992 216.086 60.375 215.383 60.375H165.578V70.5703H174.66C171.613 73.793 169.387 77.1914 167.863 80.7656C166.34 84.3984 165.578 88.3828 165.578 92.8359C165.578 97.1719 166.398 101.391 168.039 105.375C169.68 109.359 171.965 112.934 174.895 115.98C177.824 119.027 181.223 121.488 185.207 123.305C189.191 125.121 193.469 126 198.156 126C201.086 126 203.898 125.648 206.652 124.828C209.406 124.066 211.984 122.953 214.445 121.488C216.848 120.082 219.074 118.324 221.066 116.332C223.059 114.34 224.758 112.055 226.164 109.594C227.57 107.133 228.684 104.496 229.504 101.684C230.324 98.8711 230.734 95.9414 230.734 92.8359C230.734 88.1484 229.855 83.8711 228.215 80.1211C226.574 76.3711 224.055 72.8555 220.715 69.5742ZM198.156 70.5703C201.086 70.5703 203.898 71.1562 206.594 72.2695C209.23 73.3828 211.516 74.9062 213.508 76.7812C215.5 78.7148 217.023 81 218.195 83.5781C219.367 86.2148 219.953 89.0273 219.953 91.957C219.953 95.0039 219.367 97.8164 218.254 100.453C217.082 103.148 215.559 105.492 213.566 107.484C211.574 109.477 209.289 111.059 206.652 112.23C204.016 113.402 201.203 113.988 198.156 113.988C195.109 113.988 192.297 113.402 189.66 112.23C186.965 111.059 184.68 109.477 182.688 107.484C180.695 105.492 179.172 103.207 178.059 100.512C176.887 97.8164 176.359 95.0039 176.359 91.957C176.359 88.9688 176.887 86.1562 178.059 83.5195C179.23 80.9414 180.754 78.6562 182.746 76.7227C184.738 74.8477 187.023 73.3242 189.66 72.2109C192.297 71.1562 195.109 70.5703 198.156 70.5703ZM268.234 126C272.043 126 275.617 125.18 278.957 123.539C282.238 121.898 285.109 119.613 287.57 116.801C290.031 113.988 291.906 110.707 293.312 106.957C294.719 103.207 295.422 99.2812 295.422 95.1797C295.422 91.0781 294.719 87.2109 293.312 83.4609C291.906 79.7109 290.031 76.4297 287.57 73.6172C285.109 70.8047 282.238 68.5195 278.957 66.8789C275.617 65.2383 272.043 64.3594 268.234 64.3594C264.367 64.3594 260.793 65.2383 257.512 66.8789C254.172 68.5195 251.301 70.8047 248.84 73.6172C246.379 76.4297 244.504 79.7109 243.098 83.4609C241.691 87.2109 241.047 91.0781 241.047 95.1797C241.047 99.2812 241.691 103.207 243.098 106.957C244.504 110.707 246.379 113.988 248.84 116.801C251.301 119.613 254.172 121.898 257.512 123.539C260.793 125.18 264.367 126 268.234 126ZM268.234 74.4375C270.578 74.4375 272.805 74.9648 274.914 76.0195C277.023 77.0742 278.84 78.5391 280.422 80.3555C281.945 82.1719 283.176 84.2812 284.055 86.6836C284.934 89.0859 285.402 91.6055 285.402 94.3008C285.402 96.9961 284.934 99.5156 284.055 101.918C283.176 104.32 281.945 106.43 280.422 108.246C278.84 110.062 277.023 111.469 274.914 112.523C272.805 113.578 270.578 114.105 268.234 114.105C265.773 114.105 263.547 113.578 261.496 112.523C259.387 111.469 257.57 110.062 256.047 108.246C254.465 106.43 253.234 104.32 252.355 101.918C251.477 99.5156 251.066 96.9961 251.066 94.3008C251.066 91.6055 251.477 89.0859 252.355 86.6836C253.234 84.2812 254.465 82.1719 256.047 80.3555C257.57 78.5391 259.387 77.0742 261.496 76.0195C263.547 74.9648 265.773 74.4375 268.234 74.4375ZM369.602 69.2812C375.93 66.7031 379.152 61.3711 379.152 53.4023C379.152 51.293 378.742 49.1836 377.922 47.1914C377.102 45.1992 375.988 43.3828 374.582 41.8008C373.176 40.2188 371.535 38.8711 369.66 37.8164C367.785 36.7617 365.734 36.1172 363.625 35.8828L362.805 46.0195C363.566 46.2539 364.328 46.5469 365.09 47.0156C365.793 47.4844 366.496 48.0117 367.082 48.6562C367.668 49.3008 368.137 50.0039 368.488 50.8242C368.84 51.6445 369.016 52.4648 369.016 53.2852C369.016 58.207 364.973 60.668 356.945 60.668C356.418 60.668 355.598 60.668 354.543 60.6094C353.488 60.6094 352.316 60.5508 351.145 60.4922C349.914 60.4922 348.742 60.4336 347.688 60.375C346.633 60.375 345.812 60.3164 345.344 60.3164V70.5703H357.355C361.105 74.9648 363.977 79.418 365.852 83.8711C367.727 88.3828 368.723 93.2461 368.723 98.4023C368.723 100.629 368.43 102.738 367.961 104.672C367.434 106.605 366.73 108.305 365.793 109.711C364.855 111.117 363.742 112.23 362.453 113.051C361.164 113.871 359.699 114.281 358.059 114.281C356.418 114.281 354.953 113.988 353.664 113.344C352.375 112.758 351.262 111.879 350.324 110.766C349.387 109.652 348.625 108.305 348.156 106.781C347.629 105.258 347.395 103.559 347.395 101.684H337.199C337.199 103.559 336.906 105.199 336.379 106.723C335.852 108.246 335.148 109.594 334.211 110.707C333.273 111.879 332.102 112.758 330.812 113.344C329.465 113.988 328 114.281 326.359 114.281C324.836 114.281 323.488 113.988 322.199 113.402C320.91 112.816 319.797 111.996 318.859 111C317.863 110.004 317.102 108.832 316.574 107.484C315.988 106.195 315.754 104.789 315.754 103.324C315.754 100.395 317.395 97.7578 320.734 95.3555C323.781 93.2461 326.828 91.0195 329.992 88.7344C333.273 85.4531 334.973 81.2344 334.973 76.0781C334.973 73.6172 334.562 71.2734 333.742 69.1641C332.922 67.0547 331.75 65.2383 330.285 63.6562C328.82 62.1328 327.062 60.9023 325.07 60.0234C323.02 59.1445 320.793 58.6758 318.449 58.6758C316.281 58.6758 314.23 59.0859 312.297 59.9062C310.305 60.7266 308.605 61.7812 307.082 63.1875C305.559 64.5938 304.387 66.1758 303.508 68.0508C302.629 69.9258 302.219 71.8594 302.219 73.9688C302.219 77.6602 303.273 80.8828 305.383 83.5781L313.938 78.5391C313.117 76.7812 312.707 75.3164 312.707 74.2031C312.707 72.6797 313.234 71.3906 314.348 70.3945C315.402 69.3984 316.75 68.8711 318.332 68.8711C320.324 68.8711 321.848 69.5156 323.02 70.8047C324.191 72.0938 324.777 73.6758 324.777 75.668C324.777 78.832 323.137 81.5859 319.855 83.9297C316.926 86.0391 313.82 88.2656 310.598 90.5508C307.258 93.8906 305.617 98.4609 305.617 104.262C305.617 107.309 306.145 110.18 307.199 112.875C308.254 115.57 309.777 117.914 311.652 119.906C313.527 121.898 315.754 123.48 318.332 124.652C320.91 125.824 323.723 126.352 326.77 126.352C332.98 126.352 338.137 124.008 342.238 119.203C346.281 124.008 351.555 126.352 358.059 126.352C361.105 126.352 363.859 125.648 366.438 124.125C368.957 122.66 371.125 120.668 373 118.09C374.816 115.512 376.223 112.523 377.277 109.125C378.332 105.727 378.859 102.035 378.859 98.168C378.859 92.7773 378.039 87.7383 376.516 83.0508C374.992 78.3633 372.648 73.793 369.602 69.2812ZM342.238 141.938C343.176 141.938 344.113 141.762 344.934 141.41C345.754 141.059 346.457 140.531 347.043 139.887C347.629 139.242 348.039 138.48 348.391 137.602C348.742 136.781 348.918 135.844 348.918 134.789C348.918 133.91 348.684 132.914 348.332 131.801C347.922 130.688 347.395 129.516 346.75 128.344C346.105 127.172 345.402 126.059 344.641 124.887C343.82 123.773 343.059 122.719 342.238 121.781C341.477 122.719 340.715 123.715 339.895 124.828C339.074 125.941 338.371 127.055 337.727 128.227C337.082 129.398 336.555 130.512 336.145 131.625C335.734 132.797 335.559 133.852 335.559 134.789C335.559 139.594 337.785 141.938 342.238 141.938Z" fill="white" fill-opacity="0.2"/>
<path d="M86.0425 176.869C86.0425 175.539 85.6763 174.428 84.9561 173.524C84.1748 172.572 83.125 172.084 81.8188 172.084C81.1597 172.084 80.5249 172.243 79.9023 172.548C79.2432 172.89 78.7427 173.317 78.4253 173.842C77.6562 172.67 76.521 172.084 75.0317 172.084C73.8599 172.084 72.8589 172.499 72.041 173.329C71.2231 174.159 70.8203 175.172 70.8203 176.344C70.8203 177.321 71.1011 178.188 71.687 178.944C72.2607 179.713 73.0176 180.226 73.9453 180.495L74.4092 178.883C73.1152 178.444 72.4805 177.589 72.4805 176.344C72.4805 175.636 72.7246 175.026 73.2129 174.513C73.7012 174 74.3115 173.744 75.0317 173.744C75.7397 173.744 76.3379 174.013 76.8384 174.525C77.3389 175.038 77.5952 175.648 77.5952 176.356V177.895H79.2554V176.356C79.2554 175.636 79.4995 175.026 80 174.513C80.4883 174 81.0986 173.744 81.8188 173.744C82.6489 173.744 83.2959 174.062 83.7598 174.672C84.1748 175.233 84.3823 175.941 84.3823 176.796C84.3823 178.603 83.6743 180.202 82.2583 181.593C81.4282 180.934 80.8179 180.507 80.4272 180.312C79.7681 179.97 79.0479 179.799 78.2544 179.799C77.2534 179.799 76.4478 180.067 75.813 180.592C75.1294 181.166 74.7876 181.935 74.7876 182.899C74.7876 183.815 75.1172 184.56 75.7886 185.146C76.4233 185.719 77.2046 186 78.1323 186C79.5972 186 81.0498 185.304 82.478 183.888C83.5034 184.926 84.2725 185.707 84.7607 186.244L86.0303 185.036C85.2124 184.23 84.3823 183.449 83.54 182.692C85.2002 180.836 86.0425 178.896 86.0425 176.869ZM81.1597 182.729C80.3174 183.546 79.353 183.949 78.2544 183.949C77.8149 183.949 77.4243 183.852 77.0825 183.644C76.6553 183.412 76.4478 183.095 76.4478 182.692C76.4478 182.301 76.6553 181.984 77.0825 181.74C77.4365 181.532 77.8271 181.422 78.2544 181.422C79.2676 181.422 80.2319 181.862 81.1597 182.729ZM103.425 178.029C103.425 174.391 101.887 171.034 98.8354 167.958C98.2983 167.421 97.6514 167.152 96.8945 167.152C96.1377 167.152 95.4907 167.421 94.9536 167.958C94.4165 168.495 94.1602 169.13 94.1602 169.887C94.1602 170.644 94.4165 171.291 94.9536 171.828C95.4907 172.365 96.1377 172.621 96.8945 172.621C98.0542 172.621 98.8843 172.096 99.3726 171.034C100.959 173.219 101.765 175.575 101.765 178.09C101.765 179.823 101.313 181.203 100.41 182.216C99.3848 183.375 97.8467 183.949 95.8081 183.949C94.1968 183.949 92.8296 183.51 91.7188 182.631C90.4736 181.654 89.8511 180.348 89.8511 178.688C89.8511 178.212 89.8877 177.772 89.9854 177.357C90.437 177.882 91.0352 178.139 91.7798 178.139C92.5122 178.139 93.1348 177.846 93.6597 177.26C94.1724 176.674 94.4409 175.954 94.4409 175.111C94.4409 174.281 94.1724 173.561 93.6597 172.975C93.1348 172.389 92.5122 172.084 91.7798 172.084C90.8154 172.084 89.9731 172.755 89.2651 174.086C88.5449 175.417 88.1909 176.918 88.1909 178.603C88.1909 180.971 88.9844 182.826 90.5713 184.181C91.9873 185.402 93.7329 186 95.8081 186C98.396 186 100.361 185.194 101.692 183.583C102.839 182.179 103.425 180.324 103.425 178.029ZM98.3472 169.813C98.2739 170.143 98.0786 170.412 97.7856 170.631C97.4805 170.851 97.1753 170.961 96.8701 170.961C96.5771 170.961 96.3208 170.863 96.1133 170.644C95.8936 170.436 95.7959 170.18 95.7959 169.887C95.7959 169.594 95.8936 169.35 96.1133 169.13C96.3208 168.922 96.5771 168.812 96.8701 168.812C97.3584 168.812 97.8467 169.154 98.3472 169.813ZM92.7686 175.111C92.7686 175.49 92.6709 175.807 92.4756 176.076C92.2803 176.344 92.0483 176.479 91.7798 176.479C91.145 176.479 90.6567 176.149 90.3394 175.465C90.4492 174.977 90.6445 174.574 90.9375 174.245C91.2183 173.915 91.499 173.744 91.7798 173.744C92.0483 173.744 92.2803 173.878 92.4756 174.147C92.6709 174.416 92.7686 174.745 92.7686 175.111ZM103.425 191.896C103.425 191.09 103.193 190.407 102.754 189.845C102.266 189.235 101.631 188.93 100.85 188.93C100.508 188.93 100.154 189.052 99.7632 189.284C99.3726 189.516 99.0918 189.772 98.9331 190.065C98.7622 189.772 98.4692 189.516 98.0786 189.284C97.688 189.052 97.3218 188.93 96.9922 188.93C96.1987 188.93 95.564 189.235 95.0879 189.845C94.6362 190.407 94.4165 191.09 94.4165 191.896C94.4165 193.495 95.0757 194.484 96.4062 194.862L96.7969 193.593C96.0645 193.361 95.7104 192.812 95.7104 191.945C95.7104 191.53 95.8081 191.164 96.0156 190.822C96.2476 190.443 96.5649 190.248 96.9556 190.248C97.8101 190.248 98.2373 190.675 98.2373 191.505V191.933H99.6045V191.505C99.6045 190.675 100.032 190.248 100.886 190.248C101.277 190.248 101.582 190.443 101.826 190.822C102.021 191.164 102.131 191.53 102.131 191.945C102.131 192.812 101.765 193.361 101.045 193.593L101.436 194.862C102.754 194.472 103.425 193.483 103.425 191.896ZM116.902 179.579C116.902 177.809 116.34 176.295 115.242 175.038C114.131 173.793 112.8 173.158 111.238 173.158C109.675 173.158 108.333 173.793 107.234 175.038C106.123 176.295 105.574 177.809 105.574 179.579C105.574 181.361 106.123 182.875 107.234 184.12C108.333 185.377 109.675 186 111.238 186C112.8 186 114.131 185.377 115.242 184.12C116.34 182.875 116.902 181.361 116.902 179.579ZM115.242 179.384C115.242 180.653 114.851 181.728 114.07 182.619C113.289 183.51 112.336 183.949 111.238 183.949C110.127 183.949 109.187 183.51 108.406 182.619C107.625 181.728 107.234 180.653 107.234 179.384C107.234 178.126 107.625 177.052 108.406 176.161C109.187 175.27 110.127 174.818 111.238 174.818C112.336 174.818 113.289 175.27 114.07 176.161C114.851 177.052 115.242 178.126 115.242 179.384ZM134.346 170.558C134.346 169.704 134.077 168.959 133.564 168.3C133.015 167.616 132.332 167.238 131.501 167.152L131.367 168.812C131.758 168.837 132.075 169.044 132.344 169.423C132.563 169.765 132.686 170.143 132.686 170.558C132.686 171.01 132.551 171.413 132.295 171.754C132.014 172.145 131.66 172.328 131.221 172.328H119.05V173.988H122.126C120.076 175.612 119.05 177.858 119.05 180.739C119.05 182.13 119.429 183.339 120.186 184.34C121.016 185.451 122.102 186 123.445 186C124.763 186 125.837 185.438 126.667 184.315C127.498 185.438 128.572 186 129.89 186C131.233 186 132.319 185.451 133.149 184.34C133.906 183.339 134.285 182.13 134.285 180.739C134.285 177.858 133.259 175.612 131.208 173.988C132.136 173.988 132.893 173.646 133.491 172.951C134.053 172.304 134.346 171.51 134.346 170.558ZM132.625 180.58C132.625 181.496 132.417 182.252 132.026 182.863C131.562 183.595 130.891 183.949 130.037 183.949C129.28 183.949 128.669 183.693 128.206 183.18C127.742 182.667 127.51 182.021 127.51 181.264H125.85C125.85 182.021 125.618 182.655 125.154 183.168C124.666 183.693 124.043 183.949 123.298 183.949C122.432 183.949 121.772 183.595 121.309 182.863C120.906 182.252 120.71 181.496 120.71 180.58C120.71 179.237 121.028 178.029 121.663 176.955C122.322 175.856 123.262 175.038 124.458 174.489C125.203 174.159 125.935 173.988 126.667 173.988C127.388 173.988 128.12 174.159 128.877 174.489C130.073 175.038 131.001 175.856 131.672 176.955C132.307 178.029 132.625 179.237 132.625 180.58ZM156.318 170.558C156.318 169.704 156.05 168.959 155.537 168.3C154.988 167.616 154.304 167.238 153.474 167.152L153.34 168.812C153.73 168.837 154.048 169.044 154.316 169.423C154.536 169.765 154.658 170.143 154.658 170.558C154.658 171.01 154.524 171.413 154.268 171.754C153.987 172.145 153.633 172.328 153.193 172.328H144.246V173.988H149.128V176.039H144.246V177.211H147.065C146.26 177.614 145.613 178.126 145.112 178.761C144.526 179.481 144.246 180.25 144.246 181.056C144.246 182.509 144.893 183.717 146.211 184.682C147.407 185.561 148.75 186 150.251 186C151.741 186 153.096 185.561 154.292 184.682C155.598 183.717 156.257 182.509 156.257 181.056C156.257 179.445 155.415 178.163 153.73 177.211H156.257V176.039H151.521V173.988H153.193C154.121 173.988 154.89 173.646 155.476 172.963C156.038 172.316 156.318 171.51 156.318 170.558ZM154.597 180.983C154.597 181.959 154.084 182.716 153.071 183.266C152.241 183.729 151.301 183.949 150.251 183.949C149.202 183.949 148.262 183.729 147.432 183.266C146.406 182.716 145.906 181.959 145.906 180.983C145.906 180.019 146.406 179.262 147.432 178.7C148.262 178.249 149.202 178.017 150.251 178.017C151.301 178.017 152.241 178.249 153.071 178.7C154.084 179.262 154.597 180.019 154.597 180.983ZM173.701 170.558C173.701 169.704 173.433 168.959 172.92 168.3C172.371 167.616 171.687 167.238 170.857 167.152L170.723 168.812C171.113 168.837 171.431 169.044 171.699 169.423C171.919 169.765 172.041 170.143 172.041 170.558C172.041 171.01 171.907 171.413 171.65 171.754C171.37 172.145 171.016 172.328 170.576 172.328H158.406V173.988H161.482C159.431 175.612 158.406 177.858 158.406 180.739C158.406 182.13 158.784 183.339 159.541 184.34C160.371 185.451 161.458 186 162.8 186C164.119 186 165.193 185.438 166.023 184.315C166.853 185.438 167.927 186 169.246 186C170.588 186 171.675 185.451 172.505 184.34C173.262 183.339 173.64 182.13 173.64 180.739C173.64 177.858 172.615 175.612 170.564 173.988C171.492 173.988 172.249 173.646 172.847 172.951C173.408 172.304 173.701 171.51 173.701 170.558ZM167.195 188.063C167.195 187.721 167.061 187.282 166.804 186.72C166.548 186.171 166.292 185.805 166.023 185.609C165.742 185.805 165.474 186.183 165.229 186.72C164.973 187.257 164.851 187.709 164.851 188.063C164.851 188.905 165.242 189.32 166.023 189.32C166.365 189.32 166.646 189.198 166.865 188.954C167.085 188.71 167.195 188.417 167.195 188.063ZM171.98 180.58C171.98 181.496 171.772 182.252 171.382 182.863C170.918 183.595 170.247 183.949 169.392 183.949C168.635 183.949 168.025 183.693 167.561 183.18C167.097 182.667 166.865 182.021 166.865 181.264H165.205C165.205 182.021 164.973 182.655 164.509 183.168C164.021 183.693 163.398 183.949 162.654 183.949C161.787 183.949 161.128 183.595 160.664 182.863C160.261 182.252 160.066 181.496 160.066 180.58C160.066 179.237 160.383 178.029 161.018 176.955C161.677 175.856 162.617 175.038 163.813 174.489C164.558 174.159 165.291 173.988 166.023 173.988C166.743 173.988 167.476 174.159 168.232 174.489C169.429 175.038 170.356 175.856 171.028 176.955C171.663 178.029 171.98 179.237 171.98 180.58ZM167.195 177.309C167.195 176.991 167.073 176.71 166.853 176.479C166.621 176.259 166.34 176.137 166.023 176.137C165.693 176.137 165.413 176.259 165.193 176.479C164.961 176.71 164.851 176.991 164.851 177.309C164.851 177.638 164.961 177.919 165.193 178.139C165.413 178.371 165.693 178.48 166.023 178.48C166.34 178.48 166.621 178.371 166.853 178.139C167.073 177.919 167.195 177.638 167.195 177.309ZM191.084 170.558C191.084 169.704 190.815 168.959 190.303 168.3C189.753 167.616 189.07 167.238 188.24 167.152L188.105 168.812C188.496 168.849 188.826 169.057 189.082 169.423C189.302 169.765 189.424 170.143 189.424 170.558C189.424 171.046 189.302 171.461 189.07 171.779C188.801 172.145 188.423 172.328 187.959 172.328H175.789V173.988H184.15C185.566 173.988 186.812 174.733 187.886 176.222C188.862 177.589 189.363 179.018 189.363 180.482C189.363 181.496 189.106 182.313 188.618 182.936C188.081 183.62 187.312 183.949 186.335 183.949C185.469 183.949 184.639 183.449 183.857 182.448C183.198 181.52 182.551 180.58 181.917 179.64C181.123 178.639 180.293 178.139 179.438 178.139C178.291 178.139 177.4 178.456 176.753 179.091C176.106 179.726 175.789 180.604 175.789 181.74C175.789 183.522 176.484 184.938 177.888 186L178.657 183.949C178.145 183.51 177.827 183.18 177.705 182.96C177.534 182.667 177.449 182.216 177.449 181.605C177.449 181.056 177.607 180.617 177.949 180.287C178.291 179.97 178.743 179.799 179.304 179.799C179.89 179.799 180.549 180.336 181.257 181.41C182.49 183.278 183.162 184.267 183.271 184.389C184.175 185.463 185.188 186 186.287 186C187.8 186 188.997 185.451 189.851 184.34C190.632 183.339 191.023 182.057 191.023 180.482C191.023 177.724 190.022 175.563 188.02 173.988C188.923 173.988 189.668 173.646 190.254 172.938C190.803 172.279 191.084 171.486 191.084 170.558ZM208.467 170.558C208.467 169.704 208.198 168.959 207.686 168.3C207.136 167.616 206.453 167.238 205.623 167.152L205.488 168.812C205.879 168.837 206.196 169.044 206.465 169.423C206.685 169.765 206.807 170.143 206.807 170.558C206.807 171.01 206.672 171.413 206.416 171.754C206.135 172.145 205.781 172.328 205.342 172.328H193.171V173.988H198.811C200.947 173.988 202.766 174.55 204.28 175.673C205.916 176.906 206.746 178.542 206.746 180.58C206.746 181.483 206.538 182.252 206.147 182.863C205.684 183.595 205.024 183.949 204.17 183.949C203.413 183.949 202.791 183.693 202.327 183.18C201.863 182.667 201.631 182.021 201.631 181.264H199.971C199.971 182.045 199.727 182.68 199.25 183.192C198.762 183.705 198.14 183.949 197.371 183.949C196.638 183.949 196.04 183.681 195.552 183.131C195.063 182.619 194.832 181.984 194.832 181.251C194.832 180.031 195.43 179.225 196.65 178.822L196.199 177.223C195.247 177.504 194.502 178.029 193.965 178.81C193.428 179.567 193.171 180.434 193.171 181.435C193.171 182.704 193.562 183.778 194.343 184.645C195.149 185.548 196.187 186 197.456 186C198.848 186 199.958 185.438 200.789 184.315C201.619 185.438 202.742 186 204.17 186C205.488 186 206.55 185.438 207.356 184.315C208.052 183.314 208.406 182.13 208.406 180.739C208.406 179.384 208.052 178.09 207.368 176.869C206.685 175.648 205.757 174.684 204.597 173.988H205.403C206.294 173.988 207.039 173.634 207.637 172.926C208.186 172.267 208.467 171.474 208.467 170.558ZM213.167 181.288C213.167 179.469 212.568 177.04 211.372 173.988L209.773 174.501C210.92 176.93 211.494 179.201 211.494 181.3C211.494 183.131 211.116 184.596 210.383 185.695C209.504 186.989 208.198 187.624 206.465 187.624C205.208 187.624 204.072 187.172 203.071 186.269C202.034 185.341 201.521 184.254 201.521 183.009H200.056C200.056 184.767 200.679 186.256 201.936 187.477C203.193 188.71 204.695 189.32 206.453 189.32C208.662 189.32 210.371 188.515 211.567 186.891C212.629 185.451 213.167 183.583 213.167 181.288ZM235.92 173.988V172.328H223.127V173.988H235.92ZM231.917 177.309C231.917 176.991 231.794 176.71 231.575 176.479C231.343 176.259 231.062 176.137 230.745 176.137C230.415 176.137 230.134 176.259 229.915 176.479C229.683 176.71 229.573 176.991 229.573 177.309C229.573 177.638 229.683 177.919 229.915 178.139C230.134 178.371 230.415 178.48 230.745 178.48C231.062 178.48 231.343 178.371 231.575 178.139C231.794 177.919 231.917 177.638 231.917 177.309ZM238.362 181.032C238.362 179.665 238.044 178.493 237.434 177.516C236.909 176.71 236.042 175.868 234.846 174.965L234.077 176.491C235.823 177.602 236.702 179.066 236.702 180.897C236.702 181.703 236.482 182.387 236.042 182.973C235.554 183.632 234.932 183.949 234.163 183.949C233.381 183.949 232.759 183.705 232.295 183.192C231.819 182.68 231.587 182.045 231.587 181.264H229.927C229.927 182.045 229.683 182.68 229.207 183.192C228.718 183.705 228.096 183.949 227.327 183.949C226.594 183.949 225.996 183.681 225.508 183.131C225.02 182.619 224.788 181.984 224.788 181.251C224.788 180.031 225.386 179.225 226.606 178.822L226.155 177.223C225.203 177.504 224.458 178.029 223.921 178.81C223.384 179.567 223.127 180.434 223.127 181.435C223.127 182.704 223.518 183.778 224.299 184.645C225.105 185.548 226.143 186 227.412 186C228.804 186 229.915 185.438 230.745 184.315C231.562 185.438 232.673 186 234.077 186C235.371 186 236.433 185.487 237.239 184.462C237.983 183.51 238.362 182.375 238.362 181.032ZM250.422 179.835C250.422 177.736 249.824 175.99 248.628 174.574C247.358 173.085 245.686 172.328 243.635 172.328H234.602V173.988H243.635C245.186 173.988 246.443 174.55 247.407 175.661C248.311 176.71 248.762 178.029 248.762 179.616C248.762 180.739 248.506 181.715 248.005 182.521C247.395 183.473 246.565 183.949 245.515 183.949C244.941 183.949 244.465 183.766 244.087 183.375C243.708 182.997 243.525 182.521 243.525 181.935C243.525 181.508 243.647 181.105 243.904 180.727C244.172 180.312 244.526 180.092 244.941 180.092C245.308 180.092 245.649 180.263 245.979 180.58L247.102 179.457C246.516 178.773 245.784 178.432 244.929 178.432C244.05 178.432 243.306 178.81 242.708 179.542C242.134 180.238 241.853 181.032 241.853 181.935C241.853 183.07 242.17 184.022 242.817 184.779C243.501 185.597 244.404 186 245.515 186C247.065 186 248.298 185.341 249.214 184.022C250.02 182.863 250.422 181.471 250.422 179.835ZM254.207 184.633C254.207 183.412 254.084 181.862 253.84 179.97H252.351C252.571 182.387 252.693 183.998 252.693 184.792C252.693 187.16 252.229 188.93 251.326 190.089C250.288 191.408 248.616 192.067 246.309 192.067C245.186 192.067 244.014 191.884 242.817 191.505L242.097 192.897C243.477 193.434 244.844 193.69 246.211 193.69C251.533 193.69 254.207 190.675 254.207 184.633ZM269.99 170.558C269.99 169.704 269.722 168.959 269.209 168.3C268.66 167.616 267.976 167.238 267.146 167.152L267.012 168.812C267.402 168.837 267.732 169.044 267.988 169.423C268.208 169.765 268.33 170.143 268.33 170.558C268.33 171.01 268.196 171.413 267.939 171.754C267.659 172.145 267.305 172.328 266.865 172.328H256.355V173.988H258.711C257.136 175.355 256.355 177.089 256.355 179.164C256.355 181.044 257.014 182.655 258.333 183.998C259.651 185.341 261.262 186 263.142 186C265.022 186 266.621 185.341 267.939 183.998C269.258 182.655 269.929 181.044 269.929 179.164C269.929 177.04 269.111 175.294 267.5 173.927C268.257 173.769 268.867 173.354 269.331 172.694C269.771 172.084 269.99 171.364 269.99 170.558ZM268.123 178.969C268.123 180.348 267.634 181.52 266.658 182.497C265.681 183.473 264.509 183.949 263.142 183.949C261.763 183.949 260.591 183.473 259.614 182.497C258.638 181.52 258.162 180.348 258.162 178.969C258.162 177.602 258.638 176.43 259.614 175.453C260.591 174.477 261.763 173.988 263.142 173.988C264.509 173.988 265.681 174.477 266.658 175.453C267.634 176.43 268.123 177.602 268.123 178.969ZM283.406 179.579C283.406 177.809 282.844 176.295 281.746 175.038C280.635 173.793 279.304 173.158 277.742 173.158C276.179 173.158 274.836 173.793 273.738 175.038C272.627 176.295 272.078 177.809 272.078 179.579C272.078 181.361 272.627 182.875 273.738 184.12C274.836 185.377 276.179 186 277.742 186C279.304 186 280.635 185.377 281.746 184.12C282.844 182.875 283.406 181.361 283.406 179.579ZM281.746 179.384C281.746 180.653 281.355 181.728 280.574 182.619C279.792 183.51 278.84 183.949 277.742 183.949C276.631 183.949 275.691 183.51 274.91 182.619C274.128 181.728 273.738 180.653 273.738 179.384C273.738 178.126 274.128 177.052 274.91 176.161C275.691 175.27 276.631 174.818 277.742 174.818C278.84 174.818 279.792 175.27 280.574 176.161C281.355 177.052 281.746 178.126 281.746 179.384ZM300.85 170.595C300.85 169.765 300.581 169.008 300.056 168.324C299.495 167.616 298.811 167.213 298.005 167.14L297.871 168.8C298.237 168.849 298.542 169.069 298.799 169.435C299.055 169.801 299.189 170.18 299.189 170.558C299.189 170.949 299.067 171.339 298.823 171.706C298.555 172.121 298.225 172.328 297.859 172.328H294.099V173.988H296.553C298.262 175.868 299.128 177.98 299.128 180.299C299.128 181.264 298.933 182.082 298.542 182.741C298.054 183.546 297.371 183.949 296.479 183.949C295.735 183.949 295.137 183.681 294.673 183.144C294.233 182.643 294.014 182.021 294.014 181.264H292.354C292.354 182.045 292.109 182.68 291.633 183.192C291.145 183.705 290.522 183.949 289.753 183.949C289.021 183.949 288.423 183.717 287.935 183.253C287.446 182.79 287.214 182.204 287.214 181.471C287.214 180.617 287.666 179.909 288.569 179.372L291.084 178.053C291.987 177.443 292.439 176.601 292.439 175.539C292.439 174.525 292.134 173.695 291.548 173.048C290.95 172.414 290.156 172.084 289.155 172.084C288.276 172.084 287.52 172.365 286.897 172.914C286.238 173.5 285.92 174.22 285.92 175.087C285.92 175.807 286.079 176.381 286.409 176.796L287.825 175.966C287.654 175.795 287.581 175.526 287.581 175.136C287.581 174.721 287.739 174.391 288.057 174.123C288.35 173.878 288.704 173.744 289.131 173.744C289.631 173.744 290.034 173.903 290.327 174.22C290.62 174.538 290.779 174.94 290.779 175.453C290.779 176.039 290.327 176.576 289.424 177.077C287.996 177.87 287.153 178.371 286.909 178.59C286.006 179.372 285.554 180.397 285.554 181.667C285.554 182.936 285.945 183.974 286.75 184.779C287.544 185.597 288.569 186 289.839 186C291.23 186 292.341 185.438 293.171 184.315C294.014 185.438 295.137 186 296.541 186C297.908 186 298.982 185.365 299.788 184.071C300.447 182.985 300.789 181.715 300.789 180.25C300.789 177.907 300.068 175.771 298.64 173.842C299.275 173.585 299.812 173.158 300.227 172.548C300.642 171.938 300.85 171.291 300.85 170.595ZM294.343 188.063C294.343 187.721 294.209 187.282 293.953 186.72C293.696 186.171 293.44 185.805 293.171 185.609C292.891 185.805 292.622 186.183 292.378 186.72C292.122 187.257 292 187.709 292 188.063C292 188.905 292.39 189.32 293.171 189.32C293.513 189.32 293.794 189.198 294.014 188.954C294.233 188.71 294.343 188.417 294.343 188.063ZM318.171 180.739C318.171 179.384 317.817 178.09 317.134 176.869C316.45 175.648 315.522 174.684 314.363 173.988H315.413V172.328H302.937V173.988H308.577C310.713 173.988 312.532 174.55 314.045 175.673C315.681 176.906 316.511 178.542 316.511 180.58C316.511 181.483 316.304 182.252 315.913 182.863C315.449 183.595 314.79 183.949 313.936 183.949C313.179 183.949 312.556 183.693 312.092 183.18C311.628 182.667 311.396 182.021 311.396 181.264H309.736C309.736 182.045 309.492 182.68 309.016 183.192C308.528 183.705 307.905 183.949 307.136 183.949C306.404 183.949 305.806 183.681 305.317 183.131C304.829 182.619 304.597 181.984 304.597 181.251C304.597 180.031 305.195 179.225 306.416 178.822L305.964 177.223C305.012 177.504 304.268 178.029 303.73 178.81C303.193 179.567 302.937 180.434 302.937 181.435C302.937 182.704 303.328 183.778 304.109 184.645C304.915 185.548 305.952 186 307.222 186C308.613 186 309.724 185.438 310.554 184.315C311.384 185.438 312.507 186 313.936 186C315.254 186 316.316 185.438 317.122 184.315C317.817 183.314 318.171 182.13 318.171 180.739ZM330.232 179.835C330.232 177.736 329.634 175.99 328.438 174.574C327.168 173.085 325.496 172.328 323.445 172.328H314.412V173.988H323.445C324.995 173.988 326.252 174.55 327.217 175.661C328.12 176.71 328.572 178.029 328.572 179.616C328.572 180.739 328.315 181.715 327.815 182.521C327.205 183.473 326.375 183.949 325.325 183.949C324.751 183.949 324.275 183.766 323.896 183.375C323.518 182.997 323.335 182.521 323.335 181.935C323.335 181.508 323.457 181.105 323.713 180.727C323.982 180.312 324.336 180.092 324.751 180.092C325.117 180.092 325.459 180.263 325.789 180.58L326.912 179.457C326.326 178.773 325.593 178.432 324.739 178.432C323.86 178.432 323.115 178.81 322.517 179.542C321.943 180.238 321.663 181.032 321.663 181.935C321.663 183.07 321.98 184.022 322.627 184.779C323.311 185.597 324.214 186 325.325 186C326.875 186 328.108 185.341 329.023 184.022C329.829 182.863 330.232 181.471 330.232 179.835ZM346.016 170.558C346.016 169.704 345.747 168.959 345.234 168.3C344.685 167.616 344.001 167.238 343.171 167.152L343.037 168.812C343.428 168.837 343.757 169.044 344.014 169.423C344.233 169.765 344.355 170.143 344.355 170.558C344.355 171.01 344.221 171.413 343.965 171.754C343.684 172.145 343.33 172.328 342.891 172.328H332.38V173.988H334.993C333.247 175.648 332.38 177.87 332.38 180.629C332.38 182.521 333.003 184.34 334.248 186.098L335.554 185.084C334.541 183.644 334.041 182.155 334.041 180.629C334.041 179.03 334.443 177.589 335.249 176.308C336.177 174.831 337.41 174.086 338.923 174.086C340.437 174.086 341.658 174.831 342.598 176.308C343.403 177.589 343.806 179.03 343.806 180.629C343.806 182.13 343.293 183.62 342.292 185.084L343.586 186.098C344.832 184.364 345.466 182.545 345.466 180.629C345.466 177.87 344.587 175.648 342.854 173.988C343.782 173.988 344.551 173.646 345.149 172.963C345.723 172.316 346.016 171.51 346.016 170.558ZM353.303 180.25C353.303 177.382 352.021 174.745 349.458 172.328L348.25 173.537C350.508 175.661 351.643 177.907 351.643 180.299C351.643 181.496 351.301 182.423 350.618 183.083C350.02 183.668 349.299 183.949 348.445 183.949C347.261 183.949 346.016 183.302 344.709 181.984L343.599 183.253C344.502 184.169 345.186 184.779 345.625 185.072C346.528 185.695 347.48 186 348.506 186C349.8 186 350.886 185.548 351.777 184.621C352.791 183.571 353.303 182.118 353.303 180.25ZM370.747 170.558C370.747 169.704 370.479 168.959 369.966 168.3C369.417 167.616 368.733 167.238 367.903 167.152L367.769 168.812C368.159 168.837 368.489 169.044 368.745 169.423C368.965 169.765 369.087 170.143 369.087 170.558C369.087 171.01 368.953 171.413 368.696 171.754C368.416 172.145 368.062 172.328 367.622 172.328H355.452V173.988H363.276C363.936 173.988 364.607 174.147 365.291 174.452C366.096 174.831 366.536 175.307 366.621 175.88C366.06 175.514 365.413 175.319 364.668 175.319C363.887 175.319 363.215 175.526 362.666 175.941C362.056 176.405 361.763 177.003 361.763 177.76C361.763 178.529 362.031 179.152 362.581 179.616C363.093 180.08 363.74 180.299 364.521 180.299C365.181 180.299 365.828 180.104 366.487 179.701C367.17 179.286 367.61 178.786 367.817 178.175C368.623 178.749 369.026 179.579 369.026 180.666C369.026 181.837 368.257 182.716 366.731 183.302C365.608 183.742 364.338 183.949 362.935 183.949C361.531 183.949 360.298 183.729 359.248 183.29C357.808 182.704 357.1 181.801 357.1 180.604C357.1 179.542 357.795 178.761 359.187 178.273L358.467 176.918C357.563 177.211 356.843 177.687 356.306 178.358C355.732 179.066 355.452 179.884 355.452 180.8C355.452 182.533 356.331 183.876 358.088 184.828C359.529 185.609 361.189 186 363.069 186C364.949 186 366.609 185.609 368.049 184.828C369.807 183.876 370.686 182.533 370.686 180.8C370.686 178.883 369.832 177.467 368.135 176.552C368.135 175.465 367.598 174.611 366.548 173.988H367.622C368.55 173.988 369.307 173.646 369.905 172.951C370.466 172.304 370.747 171.51 370.747 170.558ZM366.499 177.345C366.377 177.711 366.108 178.029 365.669 178.273C365.254 178.517 364.851 178.639 364.448 178.639C363.765 178.639 363.423 178.371 363.423 177.821C363.423 177.187 363.936 176.869 364.985 176.869C365.486 176.869 365.986 177.028 366.499 177.345ZM370.686 191.261C370.686 190.626 370.454 190.077 370.002 189.613C369.539 189.162 368.989 188.93 368.354 188.93C367.708 188.93 367.158 189.162 366.707 189.613C366.243 190.077 366.023 190.626 366.023 191.261C366.023 191.627 366.096 191.957 366.255 192.274H358.87V193.593H368.354C368.989 193.593 369.539 193.373 370.002 192.909C370.454 192.458 370.686 191.908 370.686 191.261ZM369.368 191.261C369.368 191.542 369.258 191.786 369.062 191.981C368.867 192.177 368.623 192.274 368.354 192.274C368.074 192.274 367.83 192.177 367.634 191.981C367.439 191.786 367.341 191.542 367.341 191.261C367.341 190.993 367.439 190.749 367.634 190.553C367.83 190.358 368.074 190.248 368.354 190.248C368.623 190.248 368.867 190.358 369.062 190.553C369.258 190.749 369.368 190.993 369.368 191.261ZM388.069 180.739C388.069 177.858 387.043 175.612 384.993 173.988H386.604V172.328H372.834V173.988H375.911C373.86 175.612 372.834 177.858 372.834 180.739C372.834 182.13 373.213 183.339 373.97 184.34C374.8 185.451 375.886 186 377.229 186C378.547 186 379.622 185.438 380.452 184.315C381.282 185.438 382.356 186 383.674 186C385.017 186 386.104 185.451 386.934 184.34C387.69 183.339 388.069 182.13 388.069 180.739ZM386.409 180.58C386.409 181.496 386.201 182.252 385.811 182.863C385.347 183.595 384.675 183.949 383.821 183.949C383.064 183.949 382.454 183.693 381.99 183.18C381.526 182.667 381.294 182.021 381.294 181.264H379.634C379.634 182.021 379.402 182.655 378.938 183.168C378.45 183.693 377.827 183.949 377.083 183.949C376.216 183.949 375.557 183.595 375.093 182.863C374.69 182.252 374.495 181.496 374.495 180.58C374.495 178.847 375.044 177.321 376.167 176.027C377.327 174.672 378.755 173.988 380.452 173.988C382.136 173.988 383.564 174.672 384.736 176.027C385.847 177.321 386.409 178.847 386.409 180.58ZM389.412 170.521C389.412 169.63 389.131 168.861 388.594 168.202C387.996 167.506 387.239 167.152 386.311 167.152C385.676 167.152 385.151 167.348 384.724 167.726C384.248 168.141 384.016 168.69 384.016 169.374C384.016 169.936 384.175 170.387 384.504 170.729C384.797 171.046 385.164 171.193 385.591 171.193C386.14 171.193 386.567 170.949 386.86 170.436L386.36 169.997C386.177 170.253 385.981 170.375 385.762 170.375C385.371 170.375 385.176 170.143 385.176 169.655C385.176 169.032 385.493 168.715 386.152 168.715C386.665 168.715 387.08 168.886 387.41 169.228C387.703 169.545 387.849 169.936 387.849 170.375C387.849 170.888 387.678 171.327 387.336 171.706C386.97 172.121 386.519 172.328 385.981 172.328H384.065V173.988H385.981C387.031 173.988 387.886 173.634 388.533 172.902C389.119 172.243 389.412 171.449 389.412 170.521Z" fill="#ABABAB"/>
</svg>
