<svg width="164" height="164" viewBox="0 0 164 164" fill="none" xmlns="http://www.w3.org/2000/svg">
<circle cx="82" cy="82" r="82" fill="white"/>
<path d="M24.178 52.172C24.374 52.9467 24.7006 53.5113 25.158 53.866C25.6246 54.2113 26.2593 54.384 27.062 54.384C27.6966 54.384 28.1913 54.202 28.546 53.838C28.9006 53.474 29.078 52.984 29.078 52.368C29.078 51.92 28.9426 51.5607 28.672 51.29C28.4013 51.0193 28.0606 50.7953 27.65 50.618C27.2486 50.4313 26.81 50.2633 26.334 50.114C25.8673 49.9553 25.4286 49.7687 25.018 49.554C24.6166 49.33 24.2806 49.05 24.01 48.714C23.7393 48.378 23.604 47.93 23.604 47.37C23.604 46.9967 23.6646 46.6513 23.786 46.334C23.9166 46.0073 24.1033 45.7273 24.346 45.494C24.598 45.2607 24.906 45.0787 25.27 44.948C25.634 44.8173 26.0493 44.752 26.516 44.752C27.3186 44.752 28 44.962 28.56 45.382C29.12 45.7927 29.5166 46.39 29.75 47.174L28.952 47.412C28.7653 46.852 28.4713 46.3947 28.07 46.04C27.678 45.6853 27.16 45.508 26.516 45.508C25.928 45.508 25.4473 45.6713 25.074 45.998C24.71 46.3153 24.528 46.7727 24.528 47.37C24.528 47.538 24.5466 47.7013 24.584 47.86C24.6306 48.0093 24.724 48.1587 24.864 48.308C25.004 48.448 25.2093 48.5973 25.48 48.756C25.7506 48.9053 26.1193 49.0687 26.586 49.246C27.2953 49.5167 27.8693 49.7687 28.308 50.002C28.756 50.226 29.106 50.464 29.358 50.716C29.61 50.9587 29.778 51.22 29.862 51.5C29.9553 51.78 30.002 52.102 30.002 52.466C30.002 52.8953 29.918 53.278 29.75 53.614C29.582 53.9407 29.358 54.2207 29.078 54.454C28.798 54.678 28.4713 54.8507 28.098 54.972C27.7246 55.084 27.3326 55.14 26.922 55.14C25.9513 55.14 25.1766 54.9253 24.598 54.496C24.0286 54.0573 23.604 53.3713 23.324 52.438L24.178 52.172ZM31.7893 46.124V44.892H32.6293V46.124H31.7893ZM32.6293 55H31.7893V47.72H32.6293V55ZM37.0348 54.468C36.6241 54.468 36.2788 54.5053 35.9988 54.58C35.7281 54.6453 35.5088 54.734 35.3408 54.846C35.1728 54.958 35.0515 55.0887 34.9768 55.238C34.9115 55.3873 34.8788 55.5413 34.8788 55.7C34.8788 56.0547 35.0561 56.344 35.4108 56.568C35.7748 56.792 36.3348 56.904 37.0908 56.904C38.0055 56.904 38.6681 56.792 39.0788 56.568C39.4895 56.344 39.6948 56.0407 39.6948 55.658C39.6948 55.5087 39.6575 55.3593 39.5828 55.21C39.5081 55.07 39.3728 54.944 39.1768 54.832C38.9808 54.72 38.7101 54.6313 38.3648 54.566C38.0195 54.5007 37.5761 54.468 37.0348 54.468ZM35.2288 50.114C35.2288 50.4313 35.2801 50.7067 35.3828 50.94C35.4855 51.164 35.6208 51.3507 35.7888 51.5C35.9661 51.6493 36.1668 51.7613 36.3908 51.836C36.6241 51.9013 36.8668 51.934 37.1188 51.934C37.7068 51.934 38.1688 51.7893 38.5048 51.5C38.8408 51.2107 39.0088 50.7487 39.0088 50.114C39.0088 49.47 38.8408 48.9987 38.5048 48.7C38.1688 48.4013 37.7068 48.252 37.1188 48.252C36.5308 48.252 36.0688 48.42 35.7328 48.756C35.3968 49.092 35.2288 49.5447 35.2288 50.114ZM40.4928 48.196C40.3061 48.196 40.1008 48.2147 39.8768 48.252C39.6621 48.2893 39.4801 48.3827 39.3308 48.532C39.4895 48.728 39.6155 48.9427 39.7088 49.176C39.8021 49.4093 39.8488 49.7033 39.8488 50.058C39.8488 50.506 39.7741 50.8933 39.6248 51.22C39.4755 51.5373 39.2701 51.7987 39.0088 52.004C38.7568 52.2093 38.4581 52.3633 38.1128 52.466C37.7768 52.5593 37.4175 52.606 37.0348 52.606C36.8015 52.606 36.5915 52.5873 36.4048 52.55C36.2275 52.5033 36.0455 52.4473 35.8588 52.382C35.6255 52.466 35.4528 52.5733 35.3408 52.704C35.2381 52.8253 35.1868 52.9513 35.1868 53.082C35.1868 53.1847 35.2101 53.278 35.2568 53.362C35.3128 53.4367 35.4201 53.502 35.5788 53.558C35.7375 53.6047 35.9615 53.642 36.2508 53.67C36.5495 53.698 36.9461 53.712 37.4408 53.712C38.5328 53.712 39.3215 53.88 39.8068 54.216C40.2921 54.5427 40.5348 55.0047 40.5348 55.602C40.5348 55.8727 40.4788 56.1247 40.3668 56.358C40.2548 56.6007 40.0681 56.8107 39.8068 56.988C39.5548 57.1653 39.2141 57.3053 38.7848 57.408C38.3648 57.52 37.8421 57.576 37.2168 57.576C36.5915 57.576 36.0735 57.5247 35.6628 57.422C35.2521 57.3287 34.9255 57.2027 34.6828 57.044C34.4495 56.8853 34.2815 56.6987 34.1788 56.484C34.0855 56.2787 34.0388 56.0687 34.0388 55.854C34.0388 55.5367 34.1228 55.2473 34.2908 54.986C34.4588 54.7247 34.7995 54.5007 35.3128 54.314V54.286C35.0421 54.23 34.8135 54.1367 34.6268 54.006C34.4401 53.866 34.3468 53.642 34.3468 53.334C34.3468 53.1847 34.3795 53.04 34.4448 52.9C34.5101 52.76 34.5941 52.6387 34.6968 52.536C34.7995 52.424 34.9161 52.3307 35.0468 52.256C35.1775 52.1813 35.3081 52.13 35.4388 52.102C35.1121 51.878 34.8555 51.6027 34.6688 51.276C34.4821 50.94 34.3888 50.5807 34.3888 50.198C34.3888 49.3953 34.6455 48.7607 35.1588 48.294C35.6815 47.818 36.3861 47.58 37.2728 47.58C37.6275 47.58 37.9401 47.6267 38.2108 47.72C38.4815 47.804 38.7335 47.9253 38.9668 48.084C39.3961 47.6547 39.9048 47.44 40.4928 47.44V48.196ZM41.9068 55V47.72H42.7468V48.868C43.1388 48.4573 43.5168 48.14 43.8808 47.916C44.2541 47.692 44.7068 47.58 45.2388 47.58C45.9948 47.58 46.5408 47.79 46.8768 48.21C47.2221 48.63 47.3948 49.2367 47.3948 50.03V55H46.5548V50.114C46.5548 49.5073 46.4475 49.0453 46.2328 48.728C46.0181 48.4107 45.6308 48.252 45.0708 48.252C44.8468 48.252 44.6415 48.2847 44.4548 48.35C44.2775 48.4153 44.1001 48.5087 43.9228 48.63C43.7455 48.7513 43.5635 48.9007 43.3768 49.078C43.1901 49.246 42.9801 49.4327 42.7468 49.638V55H41.9068ZM59.0706 47.72V55H58.2306V53.852C57.8386 54.2627 57.4559 54.58 57.0826 54.804C56.7186 55.028 56.2706 55.14 55.7386 55.14C54.9826 55.14 54.4319 54.93 54.0866 54.51C53.7506 54.09 53.5826 53.4833 53.5826 52.69V47.72H54.4226V52.606C54.4226 53.2127 54.5299 53.6747 54.7446 53.992C54.9592 54.3093 55.3466 54.468 55.9066 54.468C56.1306 54.468 56.3312 54.4353 56.5086 54.37C56.6952 54.3047 56.8772 54.2113 57.0546 54.09C57.2319 53.9687 57.4139 53.824 57.6006 53.656C57.7872 53.488 57.9972 53.2967 58.2306 53.082V47.72H59.0706ZM62.3419 53.166C62.4072 53.2873 62.5145 53.4227 62.6639 53.572C62.8132 53.7213 62.9812 53.866 63.1679 54.006C63.3545 54.1367 63.5552 54.2487 63.7699 54.342C63.9845 54.426 64.1945 54.468 64.3999 54.468C65.1559 54.468 65.7205 54.188 66.0939 53.628C66.4672 53.0587 66.6539 52.2653 66.6539 51.248C66.6539 50.8747 66.6119 50.5107 66.5279 50.156C66.4439 49.792 66.3132 49.47 66.1359 49.19C65.9585 48.91 65.7345 48.686 65.4639 48.518C65.2025 48.3407 64.8899 48.252 64.5259 48.252C64.2925 48.252 64.0825 48.2893 63.8959 48.364C63.7092 48.4293 63.5272 48.5227 63.3499 48.644C63.1819 48.756 63.0139 48.896 62.8459 49.064C62.6872 49.2227 62.5192 49.3953 62.3419 49.582V53.166ZM61.5019 47.72H62.3419V48.84H62.3699C62.6592 48.42 62.9765 48.1073 63.3219 47.902C63.6765 47.6873 64.0919 47.58 64.5679 47.58C65.0439 47.58 65.4639 47.6873 65.8279 47.902C66.1919 48.1073 66.4952 48.3873 66.7379 48.742C66.9899 49.0967 67.1765 49.5027 67.2979 49.96C67.4285 50.4173 67.4939 50.898 67.4939 51.402C67.4939 52.0367 67.4239 52.5873 67.2839 53.054C67.1439 53.5207 66.9479 53.908 66.6959 54.216C66.4439 54.524 66.1405 54.7573 65.7859 54.916C65.4312 55.0653 65.0439 55.14 64.6239 55.14C64.3812 55.14 64.1572 55.1167 63.9519 55.07C63.7559 55.0327 63.5645 54.972 63.3779 54.888C63.2005 54.7947 63.0279 54.678 62.8599 54.538C62.6919 54.398 62.5192 54.2347 62.3419 54.048V57.576H61.5019V47.72ZM73.0376 55V44.892H73.8776V48.868C74.2696 48.4573 74.6476 48.14 75.0116 47.916C75.385 47.692 75.8376 47.58 76.3696 47.58C77.1256 47.58 77.6716 47.79 78.0076 48.21C78.353 48.63 78.5256 49.2367 78.5256 50.03V55H77.6856V50.114C77.6856 49.5073 77.5783 49.0453 77.3636 48.728C77.149 48.4107 76.7616 48.252 76.2016 48.252C75.9776 48.252 75.7723 48.2847 75.5856 48.35C75.4083 48.4153 75.231 48.5087 75.0536 48.63C74.8763 48.7513 74.6943 48.9007 74.5076 49.078C74.321 49.246 74.111 49.4327 73.8776 49.638V55H73.0376ZM85.2409 50.716C85.1569 49.96 84.9469 49.3627 84.6109 48.924C84.2749 48.4853 83.7849 48.2613 83.1409 48.252C82.7676 48.252 82.4456 48.336 82.1749 48.504C81.9136 48.6627 81.6943 48.868 81.5169 49.12C81.3489 49.3627 81.2229 49.6287 81.1389 49.918C81.0549 50.2073 81.0129 50.4733 81.0129 50.716H85.2409ZM81.0129 51.388C81.0129 51.7987 81.0549 52.1907 81.1389 52.564C81.2323 52.9373 81.3723 53.264 81.5589 53.544C81.7456 53.824 81.9883 54.048 82.2869 54.216C82.5856 54.384 82.9403 54.468 83.3509 54.468C83.5843 54.468 83.7896 54.4447 83.9669 54.398C84.1536 54.3513 84.3263 54.272 84.4849 54.16C84.6529 54.048 84.8116 53.8987 84.9609 53.712C85.1196 53.5253 85.2923 53.2873 85.4789 52.998L86.1649 53.362C85.9689 53.6887 85.7729 53.964 85.5769 54.188C85.3809 54.412 85.1709 54.594 84.9469 54.734C84.7229 54.874 84.4756 54.9767 84.2049 55.042C83.9343 55.1073 83.6263 55.14 83.2809 55.14C82.3289 55.14 81.5729 54.832 81.0129 54.216C80.4529 53.5907 80.1729 52.6387 80.1729 51.36C80.1729 50.8 80.2429 50.2867 80.3829 49.82C80.5229 49.3533 80.7189 48.9567 80.9709 48.63C81.2323 48.294 81.5449 48.0373 81.9089 47.86C82.2823 47.6733 82.7023 47.58 83.1689 47.58C83.6636 47.58 84.0929 47.6733 84.4569 47.86C84.8209 48.0467 85.1243 48.308 85.3669 48.644C85.6096 48.98 85.7869 49.3813 85.8989 49.848C86.0203 50.3147 86.0809 50.828 86.0809 51.388H81.0129ZM87.7609 55V47.72H88.6009V49.106H88.6289C88.8249 48.658 89.1049 48.294 89.4689 48.014C89.8423 47.7247 90.2623 47.58 90.7289 47.58H91.1069V48.392H90.7289C90.4956 48.392 90.2529 48.4573 90.0009 48.588C89.7583 48.7187 89.5296 48.896 89.3149 49.12C89.1096 49.344 88.9369 49.61 88.7969 49.918C88.6663 50.2167 88.6009 50.5387 88.6009 50.884V55H87.7609ZM96.9031 50.716C96.8191 49.96 96.6091 49.3627 96.2731 48.924C95.9371 48.4853 95.4471 48.2613 94.8031 48.252C94.4297 48.252 94.1077 48.336 93.8371 48.504C93.5757 48.6627 93.3564 48.868 93.1791 49.12C93.0111 49.3627 92.8851 49.6287 92.8011 49.918C92.7171 50.2073 92.6751 50.4733 92.6751 50.716H96.9031ZM92.6751 51.388C92.6751 51.7987 92.7171 52.1907 92.8011 52.564C92.8944 52.9373 93.0344 53.264 93.2211 53.544C93.4077 53.824 93.6504 54.048 93.9491 54.216C94.2477 54.384 94.6024 54.468 95.0131 54.468C95.2464 54.468 95.4517 54.4447 95.6291 54.398C95.8157 54.3513 95.9884 54.272 96.1471 54.16C96.3151 54.048 96.4737 53.8987 96.6231 53.712C96.7817 53.5253 96.9544 53.2873 97.1411 52.998L97.8271 53.362C97.6311 53.6887 97.4351 53.964 97.2391 54.188C97.0431 54.412 96.8331 54.594 96.6091 54.734C96.3851 54.874 96.1377 54.9767 95.8671 55.042C95.5964 55.1073 95.2884 55.14 94.9431 55.14C93.9911 55.14 93.2351 54.832 92.6751 54.216C92.1151 53.5907 91.8351 52.6387 91.8351 51.36C91.8351 50.8 91.9051 50.2867 92.0451 49.82C92.1851 49.3533 92.3811 48.9567 92.6331 48.63C92.8944 48.294 93.2071 48.0373 93.5711 47.86C93.9444 47.6733 94.3644 47.58 94.8311 47.58C95.3257 47.58 95.7551 47.6733 96.1191 47.86C96.4831 48.0467 96.7864 48.308 97.0291 48.644C97.2717 48.98 97.4491 49.3813 97.5611 49.848C97.6824 50.3147 97.7431 50.828 97.7431 51.388H92.6751ZM104.412 48.392V55H103.572V48.392H102.368V47.72H103.572V46.684C103.572 46.0493 103.707 45.5687 103.978 45.242C104.248 44.9153 104.696 44.752 105.322 44.752C105.48 44.752 105.63 44.766 105.77 44.794C105.919 44.8127 106.073 44.836 106.232 44.864V45.564C106.101 45.5173 105.97 45.4847 105.84 45.466C105.709 45.438 105.564 45.424 105.406 45.424C105.079 45.424 104.832 45.5127 104.664 45.69C104.496 45.8673 104.412 46.166 104.412 46.586V47.72H105.896V48.392H104.412ZM109.624 48.252C108.868 48.252 108.317 48.5227 107.972 49.064C107.636 49.6053 107.468 50.3707 107.468 51.36C107.468 52.3493 107.636 53.1147 107.972 53.656C108.317 54.1973 108.868 54.468 109.624 54.468C110.38 54.468 110.926 54.1973 111.262 53.656C111.607 53.1147 111.78 52.3493 111.78 51.36C111.78 50.3707 111.607 49.6053 111.262 49.064C110.926 48.5227 110.38 48.252 109.624 48.252ZM109.624 47.58C110.193 47.58 110.669 47.6873 111.052 47.902C111.435 48.1073 111.743 48.3873 111.976 48.742C112.209 49.0873 112.373 49.4887 112.466 49.946C112.569 50.394 112.62 50.8653 112.62 51.36C112.62 51.8547 112.569 52.3307 112.466 52.788C112.373 53.236 112.209 53.6373 111.976 53.992C111.743 54.3373 111.435 54.6173 111.052 54.832C110.669 55.0373 110.193 55.14 109.624 55.14C109.055 55.14 108.579 55.0373 108.196 54.832C107.813 54.6173 107.505 54.3373 107.272 53.992C107.039 53.6373 106.871 53.236 106.768 52.788C106.675 52.3307 106.628 51.8547 106.628 51.36C106.628 50.8653 106.675 50.394 106.768 49.946C106.871 49.4887 107.039 49.0873 107.272 48.742C107.505 48.3873 107.813 48.1073 108.196 47.902C108.579 47.6873 109.055 47.58 109.624 47.58ZM114.216 55V47.72H115.056V49.106H115.084C115.28 48.658 115.56 48.294 115.924 48.014C116.297 47.7247 116.717 47.58 117.184 47.58H117.562V48.392H117.184C116.951 48.392 116.708 48.4573 116.456 48.588C116.213 48.7187 115.985 48.896 115.77 49.12C115.565 49.344 115.392 49.61 115.252 49.918C115.121 50.2167 115.056 50.5387 115.056 50.884V55H114.216ZM125.183 48.252C124.427 48.252 123.876 48.5227 123.531 49.064C123.195 49.6053 123.027 50.3707 123.027 51.36C123.027 52.3493 123.195 53.1147 123.531 53.656C123.876 54.1973 124.427 54.468 125.183 54.468C125.939 54.468 126.485 54.1973 126.821 53.656C127.166 53.1147 127.339 52.3493 127.339 51.36C127.339 50.3707 127.166 49.6053 126.821 49.064C126.485 48.5227 125.939 48.252 125.183 48.252ZM125.183 47.58C125.752 47.58 126.228 47.6873 126.611 47.902C126.993 48.1073 127.301 48.3873 127.535 48.742C127.768 49.0873 127.931 49.4887 128.025 49.946C128.127 50.394 128.179 50.8653 128.179 51.36C128.179 51.8547 128.127 52.3307 128.025 52.788C127.931 53.236 127.768 53.6373 127.535 53.992C127.301 54.3373 126.993 54.6173 126.611 54.832C126.228 55.0373 125.752 55.14 125.183 55.14C124.613 55.14 124.137 55.0373 123.755 54.832C123.372 54.6173 123.064 54.3373 122.831 53.992C122.597 53.6373 122.429 53.236 122.327 52.788C122.233 52.3307 122.187 51.8547 122.187 51.36C122.187 50.8653 122.233 50.394 122.327 49.946C122.429 49.4887 122.597 49.0873 122.831 48.742C123.064 48.3873 123.372 48.1073 123.755 47.902C124.137 47.6873 124.613 47.58 125.183 47.58ZM135.319 47.72V55H134.479V53.852C134.087 54.2627 133.704 54.58 133.331 54.804C132.967 55.028 132.519 55.14 131.987 55.14C131.231 55.14 130.68 54.93 130.335 54.51C129.999 54.09 129.831 53.4833 129.831 52.69V47.72H130.671V52.606C130.671 53.2127 130.778 53.6747 130.993 53.992C131.207 54.3093 131.595 54.468 132.155 54.468C132.379 54.468 132.579 54.4353 132.757 54.37C132.943 54.3047 133.125 54.2113 133.303 54.09C133.48 53.9687 133.662 53.824 133.849 53.656C134.035 53.488 134.245 53.2967 134.479 53.082V47.72H135.319ZM137.554 55V47.72H138.394V49.106H138.422C138.618 48.658 138.898 48.294 139.262 48.014C139.635 47.7247 140.055 47.58 140.522 47.58H140.9V48.392H140.522C140.289 48.392 140.046 48.4573 139.794 48.588C139.551 48.7187 139.323 48.896 139.108 49.12C138.903 49.344 138.73 49.61 138.59 49.918C138.459 50.2167 138.394 50.5387 138.394 50.884V55H137.554ZM30.2652 71V63.72H31.1052V64.826C31.2919 64.63 31.4692 64.4573 31.6372 64.308C31.8052 64.1493 31.9825 64.0187 32.1692 63.916C32.3559 63.804 32.5565 63.72 32.7712 63.664C32.9952 63.608 33.2472 63.58 33.5272 63.58C33.9379 63.58 34.3065 63.7013 34.6332 63.944C34.9692 64.1773 35.1885 64.4993 35.2912 64.91C35.6179 64.5273 35.9679 64.21 36.3412 63.958C36.7239 63.706 37.1765 63.58 37.6992 63.58C38.3432 63.58 38.8239 63.748 39.1412 64.084C39.4585 64.42 39.6172 64.91 39.6172 65.554V71H38.7772V65.47C38.7772 65.0593 38.6699 64.756 38.4552 64.56C38.2405 64.3547 37.9279 64.252 37.5172 64.252C37.3585 64.252 37.1765 64.294 36.9712 64.378C36.7659 64.4527 36.5605 64.5553 36.3552 64.686C36.1592 64.8167 35.9725 64.966 35.7952 65.134C35.6179 65.2927 35.4732 65.4607 35.3612 65.638V71H34.5212V65.47C34.5212 65.0593 34.4139 64.756 34.1992 64.56C33.9845 64.3547 33.6719 64.252 33.2612 64.252C33.1025 64.252 32.9205 64.294 32.7152 64.378C32.5099 64.4527 32.3045 64.5553 32.0992 64.686C31.9032 64.8167 31.7165 64.966 31.5392 65.134C31.3619 65.2927 31.2172 65.4607 31.1052 65.638V71H30.2652ZM46.3513 66.716C46.2673 65.96 46.0573 65.3627 45.7213 64.924C45.3853 64.4853 44.8953 64.2613 44.2513 64.252C43.878 64.252 43.556 64.336 43.2853 64.504C43.024 64.6627 42.8046 64.868 42.6273 65.12C42.4593 65.3627 42.3333 65.6287 42.2493 65.918C42.1653 66.2073 42.1233 66.4733 42.1233 66.716H46.3513ZM42.1233 67.388C42.1233 67.7987 42.1653 68.1907 42.2493 68.564C42.3426 68.9373 42.4826 69.264 42.6693 69.544C42.856 69.824 43.0986 70.048 43.3973 70.216C43.696 70.384 44.0506 70.468 44.4613 70.468C44.6946 70.468 44.9 70.4447 45.0773 70.398C45.264 70.3513 45.4366 70.272 45.5953 70.16C45.7633 70.048 45.922 69.8987 46.0713 69.712C46.23 69.5253 46.4026 69.2873 46.5893 68.998L47.2753 69.362C47.0793 69.6887 46.8833 69.964 46.6873 70.188C46.4913 70.412 46.2813 70.594 46.0573 70.734C45.8333 70.874 45.586 70.9767 45.3153 71.042C45.0446 71.1073 44.7366 71.14 44.3913 71.14C43.4393 71.14 42.6833 70.832 42.1233 70.216C41.5633 69.5907 41.2833 68.6387 41.2833 67.36C41.2833 66.8 41.3533 66.2867 41.4933 65.82C41.6333 65.3533 41.8293 64.9567 42.0813 64.63C42.3426 64.294 42.6553 64.0373 43.0193 63.86C43.3926 63.6733 43.8126 63.58 44.2793 63.58C44.774 63.58 45.2033 63.6733 45.5673 63.86C45.9313 64.0467 46.2346 64.308 46.4773 64.644C46.72 64.98 46.8973 65.3813 47.0093 65.848C47.1306 66.3147 47.1913 66.828 47.1913 67.388H42.1233ZM53.4353 65.554C53.3606 65.4327 53.2486 65.2973 53.0993 65.148C52.9593 64.9987 52.796 64.8587 52.6093 64.728C52.4226 64.588 52.222 64.476 52.0073 64.392C51.7926 64.2987 51.5826 64.252 51.3773 64.252C50.9946 64.252 50.6633 64.3313 50.3833 64.49C50.1033 64.6487 49.87 64.8727 49.6833 65.162C49.4966 65.442 49.3566 65.778 49.2633 66.17C49.17 66.562 49.1233 66.996 49.1233 67.472C49.1233 67.892 49.1653 68.284 49.2493 68.648C49.3333 69.012 49.464 69.3293 49.6413 69.6C49.8186 69.8707 50.038 70.0853 50.2993 70.244C50.57 70.3933 50.8873 70.468 51.2513 70.468C51.7646 70.468 52.1893 70.342 52.5253 70.09C52.8613 69.838 53.1646 69.5207 53.4353 69.138V65.554ZM54.2753 71H53.6873L53.5473 70.048C53.2766 70.4307 52.9453 70.7107 52.5533 70.888C52.1613 71.056 51.7133 71.14 51.2093 71.14C50.2573 71.14 49.5293 70.818 49.0253 70.174C48.5306 69.5207 48.2833 68.5687 48.2833 67.318C48.2833 66.786 48.3533 66.2913 48.4933 65.834C48.6333 65.3767 48.8293 64.98 49.0813 64.644C49.3333 64.308 49.6366 64.0467 49.9913 63.86C50.346 63.6733 50.7333 63.58 51.1533 63.58C51.6386 63.58 52.0493 63.6687 52.3853 63.846C52.7306 64.0233 53.0806 64.2987 53.4353 64.672V60.892H54.2753V71ZM56.6926 62.124V60.892H57.5326V62.124H56.6926ZM57.5326 71H56.6926V63.72H57.5326V71ZM63.6461 66.884C62.8154 67.0707 62.1481 67.2527 61.6441 67.43C61.1494 67.6073 60.7668 67.794 60.4961 67.99C60.2348 68.1767 60.0621 68.3727 59.9781 68.578C59.9034 68.774 59.8661 68.9887 59.8661 69.222C59.8661 69.6233 59.9874 69.9313 60.2301 70.146C60.4728 70.3607 60.7854 70.468 61.1681 70.468C61.5601 70.468 61.9801 70.3607 62.4281 70.146C62.8761 69.9313 63.2821 69.6373 63.6461 69.264V66.884ZM63.7861 71L63.6741 70.118C63.4594 70.286 63.2494 70.4353 63.0441 70.566C62.8481 70.6967 62.6474 70.804 62.4421 70.888C62.2368 70.972 62.0174 71.0327 61.7841 71.07C61.5601 71.1167 61.3081 71.14 61.0281 71.14C60.4588 71.14 59.9828 70.9767 59.6001 70.65C59.2174 70.314 59.0261 69.8427 59.0261 69.236C59.0261 68.7413 59.1241 68.3353 59.3201 68.018C59.5254 67.7007 59.8241 67.4393 60.2161 67.234C60.6081 67.0193 61.0934 66.8373 61.6721 66.688C62.2601 66.5387 62.9321 66.38 63.6881 66.212V65.708C63.6881 65.2227 63.5668 64.8587 63.3241 64.616C63.0814 64.3733 62.6474 64.252 62.0221 64.252C61.5834 64.252 61.1868 64.3687 60.8321 64.602C60.4868 64.826 60.1788 65.148 59.9081 65.568L59.3481 65.232C59.6654 64.644 60.0481 64.224 60.4961 63.972C60.9441 63.7107 61.4621 63.58 62.0501 63.58C62.8808 63.58 63.4921 63.7573 63.8841 64.112C64.2854 64.4667 64.4861 65.05 64.4861 65.862V69.67C64.4861 69.8567 64.4908 70.0667 64.5001 70.3C64.5188 70.524 64.5514 70.7573 64.5981 71H63.7861ZM66.8941 63.72V61.34H67.7341V63.72H69.3301V64.392H67.7341V69.726C67.7341 70.2207 67.9814 70.468 68.4761 70.468C68.6161 70.468 68.7608 70.454 68.9101 70.426C69.0594 70.398 69.1994 70.3607 69.3301 70.314V71.014C69.1901 71.0327 69.0454 71.056 68.8961 71.084C68.7561 71.1213 68.6161 71.14 68.4761 71.14C67.8788 71.14 67.4634 71.042 67.2301 70.846C67.0061 70.6407 66.8941 70.314 66.8941 69.866V64.392H65.8021V63.72H66.8941ZM73.0586 64.252C72.3026 64.252 71.7519 64.5227 71.4066 65.064C71.0706 65.6053 70.9026 66.3707 70.9026 67.36C70.9026 68.3493 71.0706 69.1147 71.4066 69.656C71.7519 70.1973 72.3026 70.468 73.0586 70.468C73.8146 70.468 74.3606 70.1973 74.6966 69.656C75.0419 69.1147 75.2146 68.3493 75.2146 67.36C75.2146 66.3707 75.0419 65.6053 74.6966 65.064C74.3606 64.5227 73.8146 64.252 73.0586 64.252ZM73.0586 63.58C73.6279 63.58 74.1039 63.6873 74.4866 63.902C74.8693 64.1073 75.1773 64.3873 75.4106 64.742C75.6439 65.0873 75.8073 65.4887 75.9006 65.946C76.0033 66.394 76.0546 66.8653 76.0546 67.36C76.0546 67.8547 76.0033 68.3307 75.9006 68.788C75.8073 69.236 75.6439 69.6373 75.4106 69.992C75.1773 70.3373 74.8693 70.6173 74.4866 70.832C74.1039 71.0373 73.6279 71.14 73.0586 71.14C72.4893 71.14 72.0133 71.0373 71.6306 70.832C71.2479 70.6173 70.9399 70.3373 70.7066 69.992C70.4733 69.6373 70.3053 69.236 70.2026 68.788C70.1093 68.3307 70.0626 67.8547 70.0626 67.36C70.0626 66.8653 70.1093 66.394 70.2026 65.946C70.3053 65.4887 70.4733 65.0873 70.7066 64.742C70.9399 64.3873 71.2479 64.1073 71.6306 63.902C72.0133 63.6873 72.4893 63.58 73.0586 63.58ZM77.6506 71V63.72H78.4906V65.106H78.5186C78.7146 64.658 78.9946 64.294 79.3586 64.014C79.7319 63.7247 80.1519 63.58 80.6186 63.58H80.9966V64.392H80.6186C80.3853 64.392 80.1426 64.4573 79.8906 64.588C79.6479 64.7187 79.4193 64.896 79.2046 65.12C78.9993 65.344 78.8266 65.61 78.6866 65.918C78.5559 66.2167 78.4906 66.5387 78.4906 66.884V71H77.6506ZM86.0832 69.236C86.2512 69.4787 86.4192 69.6793 86.5872 69.838C86.7552 69.9967 86.9279 70.1227 87.1052 70.216C87.2919 70.3093 87.4832 70.3747 87.6792 70.412C87.8752 70.4493 88.0945 70.468 88.3372 70.468C88.5705 70.468 88.7852 70.4353 88.9812 70.37C89.1772 70.2953 89.3452 70.1973 89.4852 70.076C89.6345 69.9453 89.7512 69.796 89.8352 69.628C89.9192 69.46 89.9612 69.278 89.9612 69.082C89.9612 68.7273 89.8539 68.4567 89.6392 68.27C89.4339 68.074 89.1725 67.92 88.8552 67.808C88.5379 67.6867 88.1925 67.584 87.8192 67.5C87.4459 67.416 87.1005 67.304 86.7832 67.164C86.4659 67.0147 86.1999 66.8187 85.9852 66.576C85.7799 66.3333 85.6772 65.9973 85.6772 65.568C85.6772 65.2227 85.7379 64.9287 85.8592 64.686C85.9899 64.434 86.1579 64.2287 86.3632 64.07C86.5779 63.902 86.8252 63.7807 87.1052 63.706C87.3852 63.622 87.6792 63.58 87.9872 63.58C88.6032 63.58 89.1072 63.6967 89.4992 63.93C89.9005 64.154 90.2319 64.476 90.4932 64.896L89.8492 65.344C89.6065 65.008 89.3405 64.742 89.0512 64.546C88.7619 64.35 88.3979 64.252 87.9592 64.252C87.5485 64.252 87.2032 64.3547 86.9232 64.56C86.6525 64.756 86.5172 65.078 86.5172 65.526C86.5172 65.8247 86.6199 66.0533 86.8252 66.212C87.0399 66.3707 87.3059 66.506 87.6232 66.618C87.9405 66.7207 88.2859 66.8187 88.6592 66.912C89.0325 67.0053 89.3779 67.136 89.6952 67.304C90.0125 67.4627 90.2739 67.682 90.4792 67.962C90.6939 68.242 90.8012 68.6153 90.8012 69.082C90.8012 69.4087 90.7312 69.7027 90.5912 69.964C90.4512 70.216 90.2645 70.4307 90.0312 70.608C89.7979 70.776 89.5272 70.9067 89.2192 71C88.9205 71.0933 88.6079 71.14 88.2812 71.14C87.7212 71.14 87.1985 71.0233 86.7132 70.79C86.2279 70.5567 85.8125 70.1833 85.4672 69.67L86.0832 69.236ZM96.9099 66.716C96.8259 65.96 96.6159 65.3627 96.2799 64.924C95.9439 64.4853 95.4539 64.2613 94.8099 64.252C94.4366 64.252 94.1146 64.336 93.8439 64.504C93.5826 64.6627 93.3632 64.868 93.1859 65.12C93.0179 65.3627 92.8919 65.6287 92.8079 65.918C92.7239 66.2073 92.6819 66.4733 92.6819 66.716H96.9099ZM92.6819 67.388C92.6819 67.7987 92.7239 68.1907 92.8079 68.564C92.9012 68.9373 93.0412 69.264 93.2279 69.544C93.4146 69.824 93.6572 70.048 93.9559 70.216C94.2546 70.384 94.6092 70.468 95.0199 70.468C95.2532 70.468 95.4586 70.4447 95.6359 70.398C95.8226 70.3513 95.9952 70.272 96.1539 70.16C96.3219 70.048 96.4806 69.8987 96.6299 69.712C96.7886 69.5253 96.9612 69.2873 97.1479 68.998L97.8339 69.362C97.6379 69.6887 97.4419 69.964 97.2459 70.188C97.0499 70.412 96.8399 70.594 96.6159 70.734C96.3919 70.874 96.1446 70.9767 95.8739 71.042C95.6032 71.1073 95.2952 71.14 94.9499 71.14C93.9979 71.14 93.2419 70.832 92.6819 70.216C92.1219 69.5907 91.8419 68.6387 91.8419 67.36C91.8419 66.8 91.9119 66.2867 92.0519 65.82C92.1919 65.3533 92.3879 64.9567 92.6399 64.63C92.9012 64.294 93.2139 64.0373 93.5779 63.86C93.9512 63.6733 94.3712 63.58 94.8379 63.58C95.3326 63.58 95.7619 63.6733 96.1259 63.86C96.4899 64.0467 96.7932 64.308 97.0359 64.644C97.2786 64.98 97.4559 65.3813 97.5679 65.848C97.6892 66.3147 97.7499 66.828 97.7499 67.388H92.6819ZM99.3039 69.236C99.4719 69.4787 99.6399 69.6793 99.8079 69.838C99.9759 69.9967 100.149 70.1227 100.326 70.216C100.513 70.3093 100.704 70.3747 100.9 70.412C101.096 70.4493 101.315 70.468 101.558 70.468C101.791 70.468 102.006 70.4353 102.202 70.37C102.398 70.2953 102.566 70.1973 102.706 70.076C102.855 69.9453 102.972 69.796 103.056 69.628C103.14 69.46 103.182 69.278 103.182 69.082C103.182 68.7273 103.075 68.4567 102.86 68.27C102.655 68.074 102.393 67.92 102.076 67.808C101.759 67.6867 101.413 67.584 101.04 67.5C100.667 67.416 100.321 67.304 100.004 67.164C99.6866 67.0147 99.4206 66.8187 99.2059 66.576C99.0006 66.3333 98.8979 65.9973 98.8979 65.568C98.8979 65.2227 98.9586 64.9287 99.0799 64.686C99.2106 64.434 99.3786 64.2287 99.5839 64.07C99.7986 63.902 100.046 63.7807 100.326 63.706C100.606 63.622 100.9 63.58 101.208 63.58C101.824 63.58 102.328 63.6967 102.72 63.93C103.121 64.154 103.453 64.476 103.714 64.896L103.07 65.344C102.827 65.008 102.561 64.742 102.272 64.546C101.983 64.35 101.619 64.252 101.18 64.252C100.769 64.252 100.424 64.3547 100.144 64.56C99.8732 64.756 99.7379 65.078 99.7379 65.526C99.7379 65.8247 99.8406 66.0533 100.046 66.212C100.261 66.3707 100.527 66.506 100.844 66.618C101.161 66.7207 101.507 66.8187 101.88 66.912C102.253 67.0053 102.599 67.136 102.916 67.304C103.233 67.4627 103.495 67.682 103.7 67.962C103.915 68.242 104.022 68.6153 104.022 69.082C104.022 69.4087 103.952 69.7027 103.812 69.964C103.672 70.216 103.485 70.4307 103.252 70.608C103.019 70.776 102.748 70.9067 102.44 71C102.141 71.0933 101.829 71.14 101.502 71.14C100.942 71.14 100.419 71.0233 99.9339 70.79C99.4486 70.5567 99.0332 70.1833 98.6879 69.67L99.3039 69.236ZM105.525 69.236C105.693 69.4787 105.861 69.6793 106.029 69.838C106.197 69.9967 106.369 70.1227 106.547 70.216C106.733 70.3093 106.925 70.3747 107.121 70.412C107.317 70.4493 107.536 70.468 107.779 70.468C108.012 70.468 108.227 70.4353 108.423 70.37C108.619 70.2953 108.787 70.1973 108.927 70.076C109.076 69.9453 109.193 69.796 109.277 69.628C109.361 69.46 109.403 69.278 109.403 69.082C109.403 68.7273 109.295 68.4567 109.081 68.27C108.875 68.074 108.614 67.92 108.297 67.808C107.979 67.6867 107.634 67.584 107.261 67.5C106.887 67.416 106.542 67.304 106.225 67.164C105.907 67.0147 105.641 66.8187 105.427 66.576C105.221 66.3333 105.119 65.9973 105.119 65.568C105.119 65.2227 105.179 64.9287 105.301 64.686C105.431 64.434 105.599 64.2287 105.805 64.07C106.019 63.902 106.267 63.7807 106.547 63.706C106.827 63.622 107.121 63.58 107.429 63.58C108.045 63.58 108.549 63.6967 108.941 63.93C109.342 64.154 109.673 64.476 109.935 64.896L109.291 65.344C109.048 65.008 108.782 64.742 108.493 64.546C108.203 64.35 107.839 64.252 107.401 64.252C106.99 64.252 106.645 64.3547 106.365 64.56C106.094 64.756 105.959 65.078 105.959 65.526C105.959 65.8247 106.061 66.0533 106.267 66.212C106.481 66.3707 106.747 66.506 107.065 66.618C107.382 66.7207 107.727 66.8187 108.101 66.912C108.474 67.0053 108.819 67.136 109.137 67.304C109.454 67.4627 109.715 67.682 109.921 67.962C110.135 68.242 110.243 68.6153 110.243 69.082C110.243 69.4087 110.173 69.7027 110.033 69.964C109.893 70.216 109.706 70.4307 109.473 70.608C109.239 70.776 108.969 70.9067 108.661 71C108.362 71.0933 108.049 71.14 107.723 71.14C107.163 71.14 106.64 71.0233 106.155 70.79C105.669 70.5567 105.254 70.1833 104.909 69.67L105.525 69.236ZM111.913 62.124V60.892H112.753V62.124H111.913ZM112.753 71H111.913V63.72H112.753V71ZM117.383 64.252C116.627 64.252 116.076 64.5227 115.731 65.064C115.395 65.6053 115.227 66.3707 115.227 67.36C115.227 68.3493 115.395 69.1147 115.731 69.656C116.076 70.1973 116.627 70.468 117.383 70.468C118.139 70.468 118.685 70.1973 119.021 69.656C119.366 69.1147 119.539 68.3493 119.539 67.36C119.539 66.3707 119.366 65.6053 119.021 65.064C118.685 64.5227 118.139 64.252 117.383 64.252ZM117.383 63.58C117.952 63.58 118.428 63.6873 118.811 63.902C119.193 64.1073 119.501 64.3873 119.735 64.742C119.968 65.0873 120.131 65.4887 120.225 65.946C120.327 66.394 120.379 66.8653 120.379 67.36C120.379 67.8547 120.327 68.3307 120.225 68.788C120.131 69.236 119.968 69.6373 119.735 69.992C119.501 70.3373 119.193 70.6173 118.811 70.832C118.428 71.0373 117.952 71.14 117.383 71.14C116.813 71.14 116.337 71.0373 115.955 70.832C115.572 70.6173 115.264 70.3373 115.031 69.992C114.797 69.6373 114.629 69.236 114.527 68.788C114.433 68.3307 114.387 67.8547 114.387 67.36C114.387 66.8653 114.433 66.394 114.527 65.946C114.629 65.4887 114.797 65.0873 115.031 64.742C115.264 64.3873 115.572 64.1073 115.955 63.902C116.337 63.6873 116.813 63.58 117.383 63.58ZM122.031 71V63.72H122.871V64.868C123.263 64.4573 123.641 64.14 124.005 63.916C124.378 63.692 124.831 63.58 125.363 63.58C126.119 63.58 126.665 63.79 127.001 64.21C127.346 64.63 127.519 65.2367 127.519 66.03V71H126.679V66.114C126.679 65.5073 126.571 65.0453 126.357 64.728C126.142 64.4107 125.755 64.252 125.195 64.252C124.971 64.252 124.765 64.2847 124.579 64.35C124.401 64.4153 124.224 64.5087 124.047 64.63C123.869 64.7513 123.687 64.9007 123.501 65.078C123.314 65.246 123.104 65.4327 122.871 65.638V71H122.031ZM129.628 69.236C129.796 69.4787 129.964 69.6793 130.132 69.838C130.3 69.9967 130.473 70.1227 130.65 70.216C130.837 70.3093 131.028 70.3747 131.224 70.412C131.42 70.4493 131.639 70.468 131.882 70.468C132.115 70.468 132.33 70.4353 132.526 70.37C132.722 70.2953 132.89 70.1973 133.03 70.076C133.179 69.9453 133.296 69.796 133.38 69.628C133.464 69.46 133.506 69.278 133.506 69.082C133.506 68.7273 133.399 68.4567 133.184 68.27C132.979 68.074 132.717 67.92 132.4 67.808C132.083 67.6867 131.737 67.584 131.364 67.5C130.991 67.416 130.645 67.304 130.328 67.164C130.011 67.0147 129.745 66.8187 129.53 66.576C129.325 66.3333 129.222 65.9973 129.222 65.568C129.222 65.2227 129.283 64.9287 129.404 64.686C129.535 64.434 129.703 64.2287 129.908 64.07C130.123 63.902 130.37 63.7807 130.65 63.706C130.93 63.622 131.224 63.58 131.532 63.58C132.148 63.58 132.652 63.6967 133.044 63.93C133.445 64.154 133.777 64.476 134.038 64.896L133.394 65.344C133.151 65.008 132.885 64.742 132.596 64.546C132.307 64.35 131.943 64.252 131.504 64.252C131.093 64.252 130.748 64.3547 130.468 64.56C130.197 64.756 130.062 65.078 130.062 65.526C130.062 65.8247 130.165 66.0533 130.37 66.212C130.585 66.3707 130.851 66.506 131.168 66.618C131.485 66.7207 131.831 66.8187 132.204 66.912C132.577 67.0053 132.923 67.136 133.24 67.304C133.557 67.4627 133.819 67.682 134.024 67.962C134.239 68.242 134.346 68.6153 134.346 69.082C134.346 69.4087 134.276 69.7027 134.136 69.964C133.996 70.216 133.809 70.4307 133.576 70.608C133.343 70.776 133.072 70.9067 132.764 71C132.465 71.0933 132.153 71.14 131.826 71.14C131.266 71.14 130.743 71.0233 130.258 70.79C129.773 70.5567 129.357 70.1833 129.012 69.67L129.628 69.236ZM26.8218 79.72V77.34H27.6618V79.72H29.2578V80.392H27.6618V85.726C27.6618 86.2207 27.9092 86.468 28.4038 86.468C28.5438 86.468 28.6885 86.454 28.8378 86.426C28.9872 86.398 29.1272 86.3607 29.2578 86.314V87.014C29.1178 87.0327 28.9732 87.056 28.8238 87.084C28.6838 87.1213 28.5438 87.14 28.4038 87.14C27.8065 87.14 27.3912 87.042 27.1578 86.846C26.9338 86.6407 26.8218 86.314 26.8218 85.866V80.392H25.7298V79.72H26.8218ZM32.9863 80.252C32.2303 80.252 31.6797 80.5227 31.3343 81.064C30.9983 81.6053 30.8303 82.3707 30.8303 83.36C30.8303 84.3493 30.9983 85.1147 31.3343 85.656C31.6797 86.1973 32.2303 86.468 32.9863 86.468C33.7423 86.468 34.2883 86.1973 34.6243 85.656C34.9697 85.1147 35.1423 84.3493 35.1423 83.36C35.1423 82.3707 34.9697 81.6053 34.6243 81.064C34.2883 80.5227 33.7423 80.252 32.9863 80.252ZM32.9863 79.58C33.5557 79.58 34.0317 79.6873 34.4143 79.902C34.797 80.1073 35.105 80.3873 35.3383 80.742C35.5717 81.0873 35.735 81.4887 35.8283 81.946C35.931 82.394 35.9823 82.8653 35.9823 83.36C35.9823 83.8547 35.931 84.3307 35.8283 84.788C35.735 85.236 35.5717 85.6373 35.3383 85.992C35.105 86.3373 34.797 86.6173 34.4143 86.832C34.0317 87.0373 33.5557 87.14 32.9863 87.14C32.417 87.14 31.941 87.0373 31.5583 86.832C31.1757 86.6173 30.8677 86.3373 30.6343 85.992C30.401 85.6373 30.233 85.236 30.1303 84.788C30.037 84.3307 29.9903 83.8547 29.9903 83.36C29.9903 82.8653 30.037 82.394 30.1303 81.946C30.233 81.4887 30.401 81.0873 30.6343 80.742C30.8677 80.3873 31.1757 80.1073 31.5583 79.902C31.941 79.6873 32.417 79.58 32.9863 79.58ZM42.5108 85.138C42.6508 85.3247 42.7908 85.502 42.9308 85.67C43.0801 85.8287 43.2435 85.9687 43.4208 86.09C43.5981 86.2113 43.7895 86.3047 43.9948 86.37C44.2001 86.4353 44.4335 86.468 44.6948 86.468C45.0588 86.468 45.3715 86.3933 45.6328 86.244C45.9035 86.0853 46.1275 85.8707 46.3048 85.6C46.4821 85.3293 46.6128 85.012 46.6968 84.648C46.7808 84.284 46.8228 83.892 46.8228 83.472C46.8228 82.996 46.7761 82.562 46.6828 82.17C46.5895 81.778 46.4495 81.442 46.2628 81.162C46.0761 80.8727 45.8381 80.6487 45.5488 80.49C45.2688 80.3313 44.9421 80.252 44.5688 80.252C44.3635 80.252 44.1535 80.2987 43.9388 80.392C43.7241 80.476 43.5235 80.588 43.3368 80.728C43.1501 80.8587 42.9821 80.9987 42.8328 81.148C42.6835 81.2973 42.5761 81.4327 42.5108 81.554V85.138ZM41.6708 76.892H42.5108V80.672C42.6881 80.4853 42.8608 80.322 43.0288 80.182C43.1968 80.042 43.3695 79.93 43.5468 79.846C43.7335 79.7527 43.9248 79.6873 44.1208 79.65C44.3261 79.6033 44.5501 79.58 44.7928 79.58C45.2128 79.58 45.6001 79.6733 45.9548 79.86C46.3095 80.0467 46.6128 80.308 46.8648 80.644C47.1168 80.98 47.3128 81.3767 47.4528 81.834C47.5928 82.2913 47.6628 82.786 47.6628 83.318C47.6628 84.5687 47.4108 85.5207 46.9068 86.174C46.4121 86.818 45.6888 87.14 44.7368 87.14C44.2328 87.14 43.7848 87.056 43.3928 86.888C43.0008 86.7107 42.6695 86.4307 42.3988 86.048L42.2588 87H41.6708V76.892ZM53.7341 82.716C53.6501 81.96 53.4401 81.3627 53.1041 80.924C52.7681 80.4853 52.2781 80.2613 51.6341 80.252C51.2608 80.252 50.9388 80.336 50.6681 80.504C50.4068 80.6627 50.1874 80.868 50.0101 81.12C49.8421 81.3627 49.7161 81.6287 49.6321 81.918C49.5481 82.2073 49.5061 82.4733 49.5061 82.716H53.7341ZM49.5061 83.388C49.5061 83.7987 49.5481 84.1907 49.6321 84.564C49.7254 84.9373 49.8654 85.264 50.0521 85.544C50.2388 85.824 50.4814 86.048 50.7801 86.216C51.0788 86.384 51.4334 86.468 51.8441 86.468C52.0774 86.468 52.2828 86.4447 52.4601 86.398C52.6468 86.3513 52.8194 86.272 52.9781 86.16C53.1461 86.048 53.3048 85.8987 53.4541 85.712C53.6128 85.5253 53.7854 85.2873 53.9721 84.998L54.6581 85.362C54.4621 85.6887 54.2661 85.964 54.0701 86.188C53.8741 86.412 53.6641 86.594 53.4401 86.734C53.2161 86.874 52.9688 86.9767 52.6981 87.042C52.4274 87.1073 52.1194 87.14 51.7741 87.14C50.8221 87.14 50.0661 86.832 49.5061 86.216C48.9461 85.5907 48.6661 84.6387 48.6661 83.36C48.6661 82.8 48.7361 82.2867 48.8761 81.82C49.0161 81.3533 49.2121 80.9567 49.4641 80.63C49.7254 80.294 50.0381 80.0373 50.4021 79.86C50.7754 79.6733 51.1954 79.58 51.6621 79.58C52.1568 79.58 52.5861 79.6733 52.9501 79.86C53.3141 80.0467 53.6174 80.308 53.8601 80.644C54.1028 80.98 54.2801 81.3813 54.3921 81.848C54.5134 82.3147 54.5741 82.828 54.5741 83.388H49.5061ZM56.1281 85.236C56.2961 85.4787 56.4641 85.6793 56.6321 85.838C56.8001 85.9967 56.9728 86.1227 57.1501 86.216C57.3368 86.3093 57.5281 86.3747 57.7241 86.412C57.9201 86.4493 58.1394 86.468 58.3821 86.468C58.6154 86.468 58.8301 86.4353 59.0261 86.37C59.2221 86.2953 59.3901 86.1973 59.5301 86.076C59.6794 85.9453 59.7961 85.796 59.8801 85.628C59.9641 85.46 60.0061 85.278 60.0061 85.082C60.0061 84.7273 59.8988 84.4567 59.6841 84.27C59.4788 84.074 59.2174 83.92 58.9001 83.808C58.5828 83.6867 58.2374 83.584 57.8641 83.5C57.4908 83.416 57.1454 83.304 56.8281 83.164C56.5108 83.0147 56.2448 82.8187 56.0301 82.576C55.8248 82.3333 55.7221 81.9973 55.7221 81.568C55.7221 81.2227 55.7828 80.9287 55.9041 80.686C56.0348 80.434 56.2028 80.2287 56.4081 80.07C56.6228 79.902 56.8701 79.7807 57.1501 79.706C57.4301 79.622 57.7241 79.58 58.0321 79.58C58.6481 79.58 59.1521 79.6967 59.5441 79.93C59.9454 80.154 60.2768 80.476 60.5381 80.896L59.8941 81.344C59.6514 81.008 59.3854 80.742 59.0961 80.546C58.8068 80.35 58.4428 80.252 58.0041 80.252C57.5934 80.252 57.2481 80.3547 56.9681 80.56C56.6974 80.756 56.5621 81.078 56.5621 81.526C56.5621 81.8247 56.6648 82.0533 56.8701 82.212C57.0848 82.3707 57.3508 82.506 57.6681 82.618C57.9854 82.7207 58.3308 82.8187 58.7041 82.912C59.0774 83.0053 59.4228 83.136 59.7401 83.304C60.0574 83.4627 60.3188 83.682 60.5241 83.962C60.7388 84.242 60.8461 84.6153 60.8461 85.082C60.8461 85.4087 60.7761 85.7027 60.6361 85.964C60.4961 86.216 60.3094 86.4307 60.0761 86.608C59.8428 86.776 59.5721 86.9067 59.2641 87C58.9654 87.0933 58.6528 87.14 58.3261 87.14C57.7661 87.14 57.2434 87.0233 56.7581 86.79C56.2728 86.5567 55.8574 86.1833 55.5121 85.67L56.1281 85.236ZM62.6148 79.72V77.34H63.4548V79.72H65.0508V80.392H63.4548V85.726C63.4548 86.2207 63.7021 86.468 64.1968 86.468C64.3368 86.468 64.4815 86.454 64.6308 86.426C64.7801 86.398 64.9201 86.3607 65.0508 86.314V87.014C64.9108 87.0327 64.7661 87.056 64.6168 87.084C64.4768 87.1213 64.3368 87.14 64.1968 87.14C63.5995 87.14 63.1841 87.042 62.9508 86.846C62.7268 86.6407 62.6148 86.314 62.6148 85.866V80.392H61.5228V79.72H62.6148ZM74.7478 82.716C74.6638 81.96 74.4538 81.3627 74.1178 80.924C73.7818 80.4853 73.2918 80.2613 72.6478 80.252C72.2744 80.252 71.9524 80.336 71.6818 80.504C71.4204 80.6627 71.2011 80.868 71.0238 81.12C70.8558 81.3627 70.7298 81.6287 70.6458 81.918C70.5618 82.2073 70.5198 82.4733 70.5198 82.716H74.7478ZM70.5198 83.388C70.5198 83.7987 70.5618 84.1907 70.6458 84.564C70.7391 84.9373 70.8791 85.264 71.0658 85.544C71.2524 85.824 71.4951 86.048 71.7938 86.216C72.0924 86.384 72.4471 86.468 72.8578 86.468C73.0911 86.468 73.2964 86.4447 73.4738 86.398C73.6604 86.3513 73.8331 86.272 73.9918 86.16C74.1598 86.048 74.3184 85.8987 74.4678 85.712C74.6264 85.5253 74.7991 85.2873 74.9858 84.998L75.6718 85.362C75.4758 85.6887 75.2798 85.964 75.0838 86.188C74.8878 86.412 74.6778 86.594 74.4538 86.734C74.2298 86.874 73.9824 86.9767 73.7118 87.042C73.4411 87.1073 73.1331 87.14 72.7878 87.14C71.8358 87.14 71.0798 86.832 70.5198 86.216C69.9598 85.5907 69.6798 84.6387 69.6798 83.36C69.6798 82.8 69.7498 82.2867 69.8898 81.82C70.0298 81.3533 70.2258 80.9567 70.4778 80.63C70.7391 80.294 71.0518 80.0373 71.4158 79.86C71.7891 79.6733 72.2091 79.58 72.6758 79.58C73.1704 79.58 73.5998 79.6733 73.9638 79.86C74.3278 80.0467 74.6311 80.308 74.8738 80.644C75.1164 80.98 75.2938 81.3813 75.4058 81.848C75.5271 82.3147 75.5878 82.828 75.5878 83.388H70.5198ZM77.3238 87V79.72H78.1638V80.868C78.5558 80.4573 78.9338 80.14 79.2978 79.916C79.6711 79.692 80.1238 79.58 80.6558 79.58C81.4118 79.58 81.9578 79.79 82.2938 80.21C82.6391 80.63 82.8118 81.2367 82.8118 82.03V87H81.9718V82.114C81.9718 81.5073 81.8644 81.0453 81.6498 80.728C81.4351 80.4107 81.0478 80.252 80.4878 80.252C80.2638 80.252 80.0584 80.2847 79.8718 80.35C79.6944 80.4153 79.5171 80.5087 79.3398 80.63C79.1624 80.7513 78.9804 80.9007 78.7938 81.078C78.6071 81.246 78.3971 81.4327 78.1638 81.638V87H77.3238ZM87.2311 86.468C86.8204 86.468 86.4751 86.5053 86.1951 86.58C85.9244 86.6453 85.7051 86.734 85.5371 86.846C85.3691 86.958 85.2477 87.0887 85.1731 87.238C85.1077 87.3873 85.0751 87.5413 85.0751 87.7C85.0751 88.0547 85.2524 88.344 85.6071 88.568C85.9711 88.792 86.5311 88.904 87.2871 88.904C88.2017 88.904 88.8644 88.792 89.2751 88.568C89.6857 88.344 89.8911 88.0407 89.8911 87.658C89.8911 87.5087 89.8537 87.3593 89.7791 87.21C89.7044 87.07 89.5691 86.944 89.3731 86.832C89.1771 86.72 88.9064 86.6313 88.5611 86.566C88.2157 86.5007 87.7724 86.468 87.2311 86.468ZM85.4251 82.114C85.4251 82.4313 85.4764 82.7067 85.5791 82.94C85.6817 83.164 85.8171 83.3507 85.9851 83.5C86.1624 83.6493 86.3631 83.7613 86.5871 83.836C86.8204 83.9013 87.0631 83.934 87.3151 83.934C87.9031 83.934 88.3651 83.7893 88.7011 83.5C89.0371 83.2107 89.2051 82.7487 89.2051 82.114C89.2051 81.47 89.0371 80.9987 88.7011 80.7C88.3651 80.4013 87.9031 80.252 87.3151 80.252C86.7271 80.252 86.2651 80.42 85.9291 80.756C85.5931 81.092 85.4251 81.5447 85.4251 82.114ZM90.6891 80.196C90.5024 80.196 90.2971 80.2147 90.0731 80.252C89.8584 80.2893 89.6764 80.3827 89.5271 80.532C89.6857 80.728 89.8117 80.9427 89.9051 81.176C89.9984 81.4093 90.0451 81.7033 90.0451 82.058C90.0451 82.506 89.9704 82.8933 89.8211 83.22C89.6717 83.5373 89.4664 83.7987 89.2051 84.004C88.9531 84.2093 88.6544 84.3633 88.3091 84.466C87.9731 84.5593 87.6137 84.606 87.2311 84.606C86.9977 84.606 86.7877 84.5873 86.6011 84.55C86.4237 84.5033 86.2417 84.4473 86.0551 84.382C85.8217 84.466 85.6491 84.5733 85.5371 84.704C85.4344 84.8253 85.3831 84.9513 85.3831 85.082C85.3831 85.1847 85.4064 85.278 85.4531 85.362C85.5091 85.4367 85.6164 85.502 85.7751 85.558C85.9337 85.6047 86.1577 85.642 86.4471 85.67C86.7457 85.698 87.1424 85.712 87.6371 85.712C88.7291 85.712 89.5177 85.88 90.0031 86.216C90.4884 86.5427 90.7311 87.0047 90.7311 87.602C90.7311 87.8727 90.6751 88.1247 90.5631 88.358C90.4511 88.6007 90.2644 88.8107 90.0031 88.988C89.7511 89.1653 89.4104 89.3053 88.9811 89.408C88.5611 89.52 88.0384 89.576 87.4131 89.576C86.7877 89.576 86.2697 89.5247 85.8591 89.422C85.4484 89.3287 85.1217 89.2027 84.8791 89.044C84.6457 88.8853 84.4777 88.6987 84.3751 88.484C84.2817 88.2787 84.2351 88.0687 84.2351 87.854C84.2351 87.5367 84.3191 87.2473 84.4871 86.986C84.6551 86.7247 84.9957 86.5007 85.5091 86.314V86.286C85.2384 86.23 85.0097 86.1367 84.8231 86.006C84.6364 85.866 84.5431 85.642 84.5431 85.334C84.5431 85.1847 84.5757 85.04 84.6411 84.9C84.7064 84.76 84.7904 84.6387 84.8931 84.536C84.9957 84.424 85.1124 84.3307 85.2431 84.256C85.3737 84.1813 85.5044 84.13 85.6351 84.102C85.3084 83.878 85.0517 83.6027 84.8651 83.276C84.6784 82.94 84.5851 82.5807 84.5851 82.198C84.5851 81.3953 84.8417 80.7607 85.3551 80.294C85.8777 79.818 86.5824 79.58 87.4691 79.58C87.8237 79.58 88.1364 79.6267 88.4071 79.72C88.6777 79.804 88.9297 79.9253 89.1631 80.084C89.5924 79.6547 90.1011 79.44 90.6891 79.44V80.196ZM95.9391 82.884C95.1084 83.0707 94.4411 83.2527 93.9371 83.43C93.4424 83.6073 93.0597 83.794 92.7891 83.99C92.5277 84.1767 92.3551 84.3727 92.2711 84.578C92.1964 84.774 92.1591 84.9887 92.1591 85.222C92.1591 85.6233 92.2804 85.9313 92.5231 86.146C92.7657 86.3607 93.0784 86.468 93.4611 86.468C93.8531 86.468 94.2731 86.3607 94.7211 86.146C95.1691 85.9313 95.5751 85.6373 95.9391 85.264V82.884ZM96.0791 87L95.9671 86.118C95.7524 86.286 95.5424 86.4353 95.3371 86.566C95.1411 86.6967 94.9404 86.804 94.7351 86.888C94.5297 86.972 94.3104 87.0327 94.0771 87.07C93.8531 87.1167 93.6011 87.14 93.3211 87.14C92.7517 87.14 92.2757 86.9767 91.8931 86.65C91.5104 86.314 91.3191 85.8427 91.3191 85.236C91.3191 84.7413 91.4171 84.3353 91.6131 84.018C91.8184 83.7007 92.1171 83.4393 92.5091 83.234C92.9011 83.0193 93.3864 82.8373 93.9651 82.688C94.5531 82.5387 95.2251 82.38 95.9811 82.212V81.708C95.9811 81.2227 95.8597 80.8587 95.6171 80.616C95.3744 80.3733 94.9404 80.252 94.3151 80.252C93.8764 80.252 93.4797 80.3687 93.1251 80.602C92.7797 80.826 92.4717 81.148 92.2011 81.568L91.6411 81.232C91.9584 80.644 92.3411 80.224 92.7891 79.972C93.2371 79.7107 93.7551 79.58 94.3431 79.58C95.1737 79.58 95.7851 79.7573 96.1771 80.112C96.5784 80.4667 96.7791 81.05 96.7791 81.862V85.67C96.7791 85.8567 96.7837 86.0667 96.7931 86.3C96.8117 86.524 96.8444 86.7573 96.8911 87H96.0791ZM101.231 86.468C100.82 86.468 100.475 86.5053 100.195 86.58C99.9244 86.6453 99.7051 86.734 99.5371 86.846C99.3691 86.958 99.2477 87.0887 99.1731 87.238C99.1077 87.3873 99.0751 87.5413 99.0751 87.7C99.0751 88.0547 99.2524 88.344 99.6071 88.568C99.9711 88.792 100.531 88.904 101.287 88.904C102.202 88.904 102.864 88.792 103.275 88.568C103.686 88.344 103.891 88.0407 103.891 87.658C103.891 87.5087 103.854 87.3593 103.779 87.21C103.704 87.07 103.569 86.944 103.373 86.832C103.177 86.72 102.906 86.6313 102.561 86.566C102.216 86.5007 101.772 86.468 101.231 86.468ZM99.4251 82.114C99.4251 82.4313 99.4764 82.7067 99.5791 82.94C99.6817 83.164 99.8171 83.3507 99.9851 83.5C100.162 83.6493 100.363 83.7613 100.587 83.836C100.82 83.9013 101.063 83.934 101.315 83.934C101.903 83.934 102.365 83.7893 102.701 83.5C103.037 83.2107 103.205 82.7487 103.205 82.114C103.205 81.47 103.037 80.9987 102.701 80.7C102.365 80.4013 101.903 80.252 101.315 80.252C100.727 80.252 100.265 80.42 99.9291 80.756C99.5931 81.092 99.4251 81.5447 99.4251 82.114ZM104.689 80.196C104.502 80.196 104.297 80.2147 104.073 80.252C103.858 80.2893 103.676 80.3827 103.527 80.532C103.686 80.728 103.812 80.9427 103.905 81.176C103.998 81.4093 104.045 81.7033 104.045 82.058C104.045 82.506 103.97 82.8933 103.821 83.22C103.672 83.5373 103.466 83.7987 103.205 84.004C102.953 84.2093 102.654 84.3633 102.309 84.466C101.973 84.5593 101.614 84.606 101.231 84.606C100.998 84.606 100.788 84.5873 100.601 84.55C100.424 84.5033 100.242 84.4473 100.055 84.382C99.8217 84.466 99.6491 84.5733 99.5371 84.704C99.4344 84.8253 99.3831 84.9513 99.3831 85.082C99.3831 85.1847 99.4064 85.278 99.4531 85.362C99.5091 85.4367 99.6164 85.502 99.7751 85.558C99.9337 85.6047 100.158 85.642 100.447 85.67C100.746 85.698 101.142 85.712 101.637 85.712C102.729 85.712 103.518 85.88 104.003 86.216C104.488 86.5427 104.731 87.0047 104.731 87.602C104.731 87.8727 104.675 88.1247 104.563 88.358C104.451 88.6007 104.264 88.8107 104.003 88.988C103.751 89.1653 103.41 89.3053 102.981 89.408C102.561 89.52 102.038 89.576 101.413 89.576C100.788 89.576 100.27 89.5247 99.8591 89.422C99.4484 89.3287 99.1217 89.2027 98.8791 89.044C98.6457 88.8853 98.4777 88.6987 98.3751 88.484C98.2817 88.2787 98.2351 88.0687 98.2351 87.854C98.2351 87.5367 98.3191 87.2473 98.4871 86.986C98.6551 86.7247 98.9957 86.5007 99.5091 86.314V86.286C99.2384 86.23 99.0097 86.1367 98.8231 86.006C98.6364 85.866 98.5431 85.642 98.5431 85.334C98.5431 85.1847 98.5757 85.04 98.6411 84.9C98.7064 84.76 98.7904 84.6387 98.8931 84.536C98.9957 84.424 99.1124 84.3307 99.2431 84.256C99.3737 84.1813 99.5044 84.13 99.6351 84.102C99.3084 83.878 99.0517 83.6027 98.8651 83.276C98.6784 82.94 98.5851 82.5807 98.5851 82.198C98.5851 81.3953 98.8417 80.7607 99.3551 80.294C99.8777 79.818 100.582 79.58 101.469 79.58C101.824 79.58 102.136 79.6267 102.407 79.72C102.678 79.804 102.93 79.9253 103.163 80.084C103.592 79.6547 104.101 79.44 104.689 79.44V80.196ZM110.527 82.716C110.443 81.96 110.233 81.3627 109.897 80.924C109.561 80.4853 109.071 80.2613 108.427 80.252C108.054 80.252 107.732 80.336 107.461 80.504C107.2 80.6627 106.98 80.868 106.803 81.12C106.635 81.3627 106.509 81.6287 106.425 81.918C106.341 82.2073 106.299 82.4733 106.299 82.716H110.527ZM106.299 83.388C106.299 83.7987 106.341 84.1907 106.425 84.564C106.518 84.9373 106.658 85.264 106.845 85.544C107.032 85.824 107.274 86.048 107.573 86.216C107.872 86.384 108.226 86.468 108.637 86.468C108.87 86.468 109.076 86.4447 109.253 86.398C109.44 86.3513 109.612 86.272 109.771 86.16C109.939 86.048 110.098 85.8987 110.247 85.712C110.406 85.5253 110.578 85.2873 110.765 84.998L111.451 85.362C111.255 85.6887 111.059 85.964 110.863 86.188C110.667 86.412 110.457 86.594 110.233 86.734C110.009 86.874 109.762 86.9767 109.491 87.042C109.22 87.1073 108.912 87.14 108.567 87.14C107.615 87.14 106.859 86.832 106.299 86.216C105.739 85.5907 105.459 84.6387 105.459 83.36C105.459 82.8 105.529 82.2867 105.669 81.82C105.809 81.3533 106.005 80.9567 106.257 80.63C106.518 80.294 106.831 80.0373 107.195 79.86C107.568 79.6733 107.988 79.58 108.455 79.58C108.95 79.58 109.379 79.6733 109.743 79.86C110.107 80.0467 110.41 80.308 110.653 80.644C110.896 80.98 111.073 81.3813 111.185 81.848C111.306 82.3147 111.367 82.828 111.367 83.388H106.299ZM120.836 82.884C120.005 83.0707 119.338 83.2527 118.834 83.43C118.339 83.6073 117.956 83.794 117.686 83.99C117.424 84.1767 117.252 84.3727 117.168 84.578C117.093 84.774 117.056 84.9887 117.056 85.222C117.056 85.6233 117.177 85.9313 117.42 86.146C117.662 86.3607 117.975 86.468 118.358 86.468C118.75 86.468 119.17 86.3607 119.618 86.146C120.066 85.9313 120.472 85.6373 120.836 85.264V82.884ZM120.976 87L120.864 86.118C120.649 86.286 120.439 86.4353 120.234 86.566C120.038 86.6967 119.837 86.804 119.632 86.888C119.426 86.972 119.207 87.0327 118.974 87.07C118.75 87.1167 118.498 87.14 118.218 87.14C117.648 87.14 117.172 86.9767 116.79 86.65C116.407 86.314 116.216 85.8427 116.216 85.236C116.216 84.7413 116.314 84.3353 116.51 84.018C116.715 83.7007 117.014 83.4393 117.406 83.234C117.798 83.0193 118.283 82.8373 118.862 82.688C119.45 82.5387 120.122 82.38 120.878 82.212V81.708C120.878 81.2227 120.756 80.8587 120.514 80.616C120.271 80.3733 119.837 80.252 119.212 80.252C118.773 80.252 118.376 80.3687 118.022 80.602C117.676 80.826 117.368 81.148 117.098 81.568L116.538 81.232C116.855 80.644 117.238 80.224 117.686 79.972C118.134 79.7107 118.652 79.58 119.24 79.58C120.07 79.58 120.682 79.7573 121.074 80.112C121.475 80.4667 121.676 81.05 121.676 81.862V85.67C121.676 85.8567 121.68 86.0667 121.69 86.3C121.708 86.524 121.741 86.7573 121.788 87H120.976ZM124 87V79.72H124.84V80.868C125.232 80.4573 125.61 80.14 125.974 79.916C126.347 79.692 126.8 79.58 127.332 79.58C128.088 79.58 128.634 79.79 128.97 80.21C129.315 80.63 129.488 81.2367 129.488 82.03V87H128.648V82.114C128.648 81.5073 128.54 81.0453 128.326 80.728C128.111 80.4107 127.724 80.252 127.164 80.252C126.94 80.252 126.734 80.2847 126.548 80.35C126.37 80.4153 126.193 80.5087 126.016 80.63C125.838 80.7513 125.656 80.9007 125.47 81.078C125.283 81.246 125.073 81.4327 124.84 81.638V87H124ZM136.287 81.554C136.212 81.4327 136.1 81.2973 135.951 81.148C135.811 80.9987 135.648 80.8587 135.461 80.728C135.274 80.588 135.074 80.476 134.859 80.392C134.644 80.2987 134.434 80.252 134.229 80.252C133.846 80.252 133.515 80.3313 133.235 80.49C132.955 80.6487 132.722 80.8727 132.535 81.162C132.348 81.442 132.208 81.778 132.115 82.17C132.022 82.562 131.975 82.996 131.975 83.472C131.975 83.892 132.017 84.284 132.101 84.648C132.185 85.012 132.316 85.3293 132.493 85.6C132.67 85.8707 132.89 86.0853 133.151 86.244C133.422 86.3933 133.739 86.468 134.103 86.468C134.616 86.468 135.041 86.342 135.377 86.09C135.713 85.838 136.016 85.5207 136.287 85.138V81.554ZM137.127 87H136.539L136.399 86.048C136.128 86.4307 135.797 86.7107 135.405 86.888C135.013 87.056 134.565 87.14 134.061 87.14C133.109 87.14 132.381 86.818 131.877 86.174C131.382 85.5207 131.135 84.5687 131.135 83.318C131.135 82.786 131.205 82.2913 131.345 81.834C131.485 81.3767 131.681 80.98 131.933 80.644C132.185 80.308 132.488 80.0467 132.843 79.86C133.198 79.6733 133.585 79.58 134.005 79.58C134.49 79.58 134.901 79.6687 135.237 79.846C135.582 80.0233 135.932 80.2987 136.287 80.672V76.892H137.127V87ZM46.9582 94.124V92.892H47.7982V94.124H46.9582ZM47.7982 103H46.9582V95.72H47.7982V103ZM50.0757 103V95.72H50.9157V96.868C51.3077 96.4573 51.6857 96.14 52.0497 95.916C52.4231 95.692 52.8757 95.58 53.4077 95.58C54.1637 95.58 54.7097 95.79 55.0457 96.21C55.3911 96.63 55.5637 97.2367 55.5637 98.03V103H54.7237V98.114C54.7237 97.5073 54.6164 97.0453 54.4017 96.728C54.1871 96.4107 53.7997 96.252 53.2397 96.252C53.0157 96.252 52.8104 96.2847 52.6237 96.35C52.4464 96.4153 52.2691 96.5087 52.0917 96.63C51.9144 96.7513 51.7324 96.9007 51.5457 97.078C51.3591 97.246 51.1491 97.4327 50.9157 97.638V103H50.0757ZM57.939 95.72V93.34H58.779V95.72H60.375V96.392H58.779V101.726C58.779 102.221 59.0264 102.468 59.521 102.468C59.661 102.468 59.8057 102.454 59.955 102.426C60.1044 102.398 60.2444 102.361 60.375 102.314V103.014C60.235 103.033 60.0904 103.056 59.941 103.084C59.801 103.121 59.661 103.14 59.521 103.14C58.9237 103.14 58.5084 103.042 58.275 102.846C58.051 102.641 57.939 102.314 57.939 101.866V96.392H56.847V95.72H57.939ZM66.1755 98.716C66.0915 97.96 65.8815 97.3627 65.5455 96.924C65.2095 96.4853 64.7195 96.2613 64.0755 96.252C63.7022 96.252 63.3802 96.336 63.1095 96.504C62.8482 96.6627 62.6288 96.868 62.4515 97.12C62.2835 97.3627 62.1575 97.6287 62.0735 97.918C61.9895 98.2073 61.9475 98.4733 61.9475 98.716H66.1755ZM61.9475 99.388C61.9475 99.7987 61.9895 100.191 62.0735 100.564C62.1668 100.937 62.3068 101.264 62.4935 101.544C62.6802 101.824 62.9228 102.048 63.2215 102.216C63.5202 102.384 63.8748 102.468 64.2855 102.468C64.5188 102.468 64.7242 102.445 64.9015 102.398C65.0882 102.351 65.2608 102.272 65.4195 102.16C65.5875 102.048 65.7462 101.899 65.8955 101.712C66.0542 101.525 66.2268 101.287 66.4135 100.998L67.0995 101.362C66.9035 101.689 66.7075 101.964 66.5115 102.188C66.3155 102.412 66.1055 102.594 65.8815 102.734C65.6575 102.874 65.4102 102.977 65.1395 103.042C64.8688 103.107 64.5608 103.14 64.2155 103.14C63.2635 103.14 62.5075 102.832 61.9475 102.216C61.3875 101.591 61.1075 100.639 61.1075 99.36C61.1075 98.8 61.1775 98.2867 61.3175 97.82C61.4575 97.3533 61.6535 96.9567 61.9055 96.63C62.1668 96.294 62.4795 96.0373 62.8435 95.86C63.2168 95.6733 63.6368 95.58 64.1035 95.58C64.5982 95.58 65.0275 95.6733 65.3915 95.86C65.7555 96.0467 66.0588 96.308 66.3015 96.644C66.5442 96.98 66.7215 97.3813 66.8335 97.848C66.9548 98.3147 67.0155 98.828 67.0155 99.388H61.9475ZM68.6955 103V95.72H69.5355V97.106H69.5635C69.7595 96.658 70.0395 96.294 70.4035 96.014C70.7768 95.7247 71.1968 95.58 71.6635 95.58H72.0415V96.392H71.6635C71.4302 96.392 71.1875 96.4573 70.9355 96.588C70.6928 96.7187 70.4642 96.896 70.2495 97.12C70.0442 97.344 69.8715 97.61 69.7315 97.918C69.6008 98.2167 69.5355 98.5387 69.5355 98.884V103H68.6955ZM77.2496 98.884C76.419 99.0707 75.7516 99.2527 75.2476 99.43C74.753 99.6073 74.3703 99.794 74.0996 99.99C73.8383 100.177 73.6656 100.373 73.5816 100.578C73.507 100.774 73.4696 100.989 73.4696 101.222C73.4696 101.623 73.591 101.931 73.8336 102.146C74.0763 102.361 74.389 102.468 74.7716 102.468C75.1636 102.468 75.5836 102.361 76.0316 102.146C76.4796 101.931 76.8856 101.637 77.2496 101.264V98.884ZM77.3896 103L77.2776 102.118C77.063 102.286 76.853 102.435 76.6476 102.566C76.4516 102.697 76.251 102.804 76.0456 102.888C75.8403 102.972 75.621 103.033 75.3876 103.07C75.1636 103.117 74.9116 103.14 74.6316 103.14C74.0623 103.14 73.5863 102.977 73.2036 102.65C72.821 102.314 72.6296 101.843 72.6296 101.236C72.6296 100.741 72.7276 100.335 72.9236 100.018C73.129 99.7007 73.4276 99.4393 73.8196 99.234C74.2116 99.0193 74.697 98.8373 75.2756 98.688C75.8636 98.5387 76.5356 98.38 77.2916 98.212V97.708C77.2916 97.2227 77.1703 96.8587 76.9276 96.616C76.685 96.3733 76.251 96.252 75.6256 96.252C75.187 96.252 74.7903 96.3687 74.4356 96.602C74.0903 96.826 73.7823 97.148 73.5116 97.568L72.9516 97.232C73.269 96.644 73.6516 96.224 74.0996 95.972C74.5476 95.7107 75.0656 95.58 75.6536 95.58C76.4843 95.58 77.0956 95.7573 77.4876 96.112C77.889 96.4667 78.0896 97.05 78.0896 97.862V101.67C78.0896 101.857 78.0943 102.067 78.1036 102.3C78.1223 102.524 78.155 102.757 78.2016 103H77.3896ZM84.7956 97.764C84.609 97.344 84.3663 96.9893 84.0676 96.7C83.7783 96.4013 83.391 96.252 82.9056 96.252C82.5603 96.252 82.2476 96.308 81.9676 96.42C81.6876 96.532 81.445 96.714 81.2396 96.966C81.0436 97.2087 80.8896 97.5307 80.7776 97.932C80.6656 98.324 80.6096 98.8 80.6096 99.36C80.6096 99.8267 80.661 100.251 80.7636 100.634C80.8663 101.017 81.0156 101.343 81.2116 101.614C81.4076 101.885 81.6456 102.095 81.9256 102.244C82.215 102.393 82.5416 102.468 82.9056 102.468C83.167 102.468 83.4003 102.435 83.6056 102.37C83.811 102.295 83.9976 102.193 84.1656 102.062C84.3336 101.931 84.4923 101.773 84.6416 101.586C84.791 101.399 84.9403 101.189 85.0896 100.956L85.7616 101.278C85.603 101.539 85.4303 101.782 85.2436 102.006C85.057 102.23 84.847 102.426 84.6136 102.594C84.3896 102.762 84.133 102.897 83.8436 103C83.5636 103.093 83.251 103.14 82.9056 103.14C82.3923 103.14 81.9396 103.047 81.5476 102.86C81.165 102.673 80.8383 102.412 80.5676 102.076C80.3063 101.74 80.1056 101.343 79.9656 100.886C79.835 100.419 79.7696 99.9107 79.7696 99.36C79.7696 98.7347 79.8443 98.1887 79.9936 97.722C80.143 97.246 80.353 96.8493 80.6236 96.532C80.9036 96.2147 81.235 95.9767 81.6176 95.818C82.0096 95.6593 82.439 95.58 82.9056 95.58C83.5963 95.58 84.1563 95.7573 84.5856 96.112C85.0243 96.4667 85.351 96.9473 85.5656 97.554L84.7956 97.764ZM87.4976 95.72V93.34H88.3376V95.72H89.9336V96.392H88.3376V101.726C88.3376 102.221 88.585 102.468 89.0796 102.468C89.2196 102.468 89.3643 102.454 89.5136 102.426C89.663 102.398 89.803 102.361 89.9336 102.314V103.014C89.7936 103.033 89.649 103.056 89.4996 103.084C89.3596 103.121 89.2196 103.14 89.0796 103.14C88.4823 103.14 88.067 103.042 87.8336 102.846C87.6096 102.641 87.4976 102.314 87.4976 101.866V96.392H86.4056V95.72H87.4976ZM94.1566 95.72H95.0106L96.6066 101.572H96.6346L98.3006 95.72H99.1266L100.751 101.572H100.779L102.417 95.72H103.285L101.171 103H100.345L98.7066 97.148H98.6786L97.0546 103H96.1866L94.1566 95.72ZM104.53 94.124V92.892H105.37V94.124H104.53ZM105.37 103H104.53V95.72H105.37V103ZM107.732 95.72V93.34H108.572V95.72H110.168V96.392H108.572V101.726C108.572 102.221 108.819 102.468 109.314 102.468C109.454 102.468 109.599 102.454 109.748 102.426C109.897 102.398 110.037 102.361 110.168 102.314V103.014C110.028 103.033 109.883 103.056 109.734 103.084C109.594 103.121 109.454 103.14 109.314 103.14C108.717 103.14 108.301 103.042 108.068 102.846C107.844 102.641 107.732 102.314 107.732 101.866V96.392H106.64V95.72H107.732ZM111.544 103V92.892H112.384V96.868C112.776 96.4573 113.154 96.14 113.518 95.916C113.892 95.692 114.344 95.58 114.876 95.58C115.632 95.58 116.178 95.79 116.514 96.21C116.86 96.63 117.032 97.2367 117.032 98.03V103H116.192V98.114C116.192 97.5073 116.085 97.0453 115.87 96.728C115.656 96.4107 115.268 96.252 114.708 96.252C114.484 96.252 114.279 96.2847 114.092 96.35C113.915 96.4153 113.738 96.5087 113.56 96.63C113.383 96.7513 113.201 96.9007 113.014 97.078C112.828 97.246 112.618 97.4327 112.384 97.638V103H111.544ZM50.9567 111.86C50.742 111.113 50.4294 110.535 50.0187 110.124C49.6174 109.713 49.1087 109.508 48.4927 109.508C47.9887 109.508 47.5547 109.625 47.1907 109.858C46.836 110.082 46.5374 110.395 46.2947 110.796C46.0614 111.197 45.8887 111.669 45.7767 112.21C45.6647 112.751 45.6087 113.33 45.6087 113.946C45.6087 114.562 45.6647 115.141 45.7767 115.682C45.8887 116.223 46.066 116.695 46.3087 117.096C46.5514 117.497 46.8594 117.815 47.2327 118.048C47.6154 118.272 48.068 118.384 48.5907 118.384C48.992 118.384 49.3327 118.319 49.6127 118.188C49.902 118.048 50.1447 117.866 50.3407 117.642C50.5367 117.418 50.6954 117.157 50.8167 116.858C50.9474 116.559 51.0547 116.247 51.1387 115.92L52.0067 116.074C51.9134 116.522 51.778 116.937 51.6007 117.32C51.4327 117.693 51.2134 118.015 50.9427 118.286C50.672 118.557 50.3407 118.767 49.9487 118.916C49.566 119.065 49.1087 119.14 48.5767 119.14C47.9607 119.14 47.41 119.019 46.9247 118.776C46.4487 118.524 46.0427 118.169 45.7067 117.712C45.38 117.255 45.128 116.709 44.9507 116.074C44.7734 115.439 44.6847 114.73 44.6847 113.946C44.6847 113.162 44.7734 112.453 44.9507 111.818C45.128 111.183 45.38 110.637 45.7067 110.18C46.0427 109.723 46.4487 109.373 46.9247 109.13C47.41 108.878 47.9607 108.752 48.5767 108.752C49.0247 108.752 49.426 108.827 49.7807 108.976C50.1354 109.125 50.4434 109.331 50.7047 109.592C50.9754 109.853 51.1994 110.166 51.3767 110.53C51.554 110.885 51.6987 111.267 51.8107 111.678L50.9567 111.86ZM57.2333 118.384C57.7 118.384 58.12 118.286 58.4933 118.09C58.876 117.894 59.198 117.609 59.4593 117.236C59.73 116.853 59.9353 116.387 60.0753 115.836C60.2246 115.285 60.2993 114.655 60.2993 113.946C60.2993 113.237 60.2246 112.607 60.0753 112.056C59.9353 111.505 59.73 111.043 59.4593 110.67C59.198 110.287 58.876 109.998 58.4933 109.802C58.12 109.606 57.7 109.508 57.2333 109.508C56.7666 109.508 56.342 109.606 55.9593 109.802C55.586 109.998 55.264 110.287 54.9933 110.67C54.732 111.043 54.5266 111.505 54.3773 112.056C54.2373 112.607 54.1673 113.237 54.1673 113.946C54.1673 114.655 54.2373 115.285 54.3773 115.836C54.5266 116.387 54.732 116.853 54.9933 117.236C55.264 117.609 55.586 117.894 55.9593 118.09C56.342 118.286 56.7666 118.384 57.2333 118.384ZM57.2333 108.752C57.868 108.752 58.4326 108.883 58.9273 109.144C59.422 109.405 59.8373 109.769 60.1733 110.236C60.5186 110.693 60.78 111.239 60.9573 111.874C61.1346 112.509 61.2233 113.199 61.2233 113.946C61.2233 114.693 61.1346 115.383 60.9573 116.018C60.78 116.653 60.5186 117.203 60.1733 117.67C59.8373 118.127 59.422 118.487 58.9273 118.748C58.4326 119.009 57.868 119.14 57.2333 119.14C56.5986 119.14 56.034 119.009 55.5393 118.748C55.0446 118.487 54.6246 118.127 54.2793 117.67C53.9433 117.203 53.6866 116.653 53.5093 116.018C53.332 115.383 53.2433 114.693 53.2433 113.946C53.2433 113.199 53.332 112.509 53.5093 111.874C53.6866 111.239 53.9433 110.693 54.2793 110.236C54.6246 109.769 55.0446 109.405 55.5393 109.144C56.034 108.883 56.5986 108.752 57.2333 108.752ZM63.3092 108.892H64.8632L69.6652 117.32H69.6932V108.892H70.6172V119H69.6652L64.2612 109.648H64.2332V119H63.3092V108.892ZM72.4467 108.892H79.3627V109.648H76.3667V119H75.4427V109.648H72.4467V108.892ZM84.7309 114.94L83.0509 109.648H83.0229L81.3569 114.94H84.7309ZM82.3369 108.892H83.7509L86.9429 119H85.9629L84.9409 115.696H81.1189L80.0829 119H79.1029L82.3369 108.892ZM94.4515 111.832C94.3769 111.515 94.2695 111.216 94.1295 110.936C93.9895 110.647 93.8122 110.399 93.5975 110.194C93.3829 109.979 93.1309 109.811 92.8415 109.69C92.5522 109.569 92.2209 109.508 91.8475 109.508C91.3995 109.508 90.9935 109.611 90.6295 109.816C90.2749 110.021 89.9669 110.32 89.7055 110.712C89.4535 111.095 89.2575 111.561 89.1175 112.112C88.9775 112.653 88.9075 113.265 88.9075 113.946C88.9075 114.487 88.9542 115.024 89.0475 115.556C89.1409 116.088 89.3089 116.564 89.5515 116.984C89.7942 117.404 90.1209 117.745 90.5315 118.006C90.9515 118.258 91.4882 118.384 92.1415 118.384C92.4962 118.384 92.8182 118.323 93.1075 118.202C93.4062 118.071 93.6582 117.894 93.8635 117.67C94.0689 117.446 94.2275 117.189 94.3395 116.9C94.4515 116.601 94.5075 116.284 94.5075 115.948V115.024H91.9595V114.268H95.4315V119H94.6335V118.006H94.6055C94.3069 118.398 93.9475 118.687 93.5275 118.874C93.1169 119.051 92.5615 119.14 91.8615 119.14C91.3015 119.14 90.7835 119.028 90.3075 118.804C89.8315 118.571 89.4209 118.235 89.0755 117.796C88.7302 117.357 88.4595 116.816 88.2635 116.172C88.0769 115.528 87.9835 114.786 87.9835 113.946C87.9835 113.106 88.0862 112.364 88.2915 111.72C88.4969 111.076 88.7769 110.535 89.1315 110.096C89.4862 109.657 89.9015 109.326 90.3775 109.102C90.8535 108.869 91.3622 108.752 91.9035 108.752C92.3702 108.752 92.7949 108.827 93.1775 108.976C93.5602 109.116 93.8962 109.317 94.1855 109.578C94.4749 109.83 94.7129 110.138 94.8995 110.502C95.0955 110.857 95.2355 111.249 95.3195 111.678L94.4515 111.832ZM98.1334 108.892H99.0574V119H98.1334V108.892ZM105.208 118.384C105.675 118.384 106.095 118.286 106.468 118.09C106.851 117.894 107.173 117.609 107.434 117.236C107.705 116.853 107.91 116.387 108.05 115.836C108.199 115.285 108.274 114.655 108.274 113.946C108.274 113.237 108.199 112.607 108.05 112.056C107.91 111.505 107.705 111.043 107.434 110.67C107.173 110.287 106.851 109.998 106.468 109.802C106.095 109.606 105.675 109.508 105.208 109.508C104.741 109.508 104.317 109.606 103.934 109.802C103.561 109.998 103.239 110.287 102.968 110.67C102.707 111.043 102.501 111.505 102.352 112.056C102.212 112.607 102.142 113.237 102.142 113.946C102.142 114.655 102.212 115.285 102.352 115.836C102.501 116.387 102.707 116.853 102.968 117.236C103.239 117.609 103.561 117.894 103.934 118.09C104.317 118.286 104.741 118.384 105.208 118.384ZM105.208 108.752C105.843 108.752 106.407 108.883 106.902 109.144C107.397 109.405 107.812 109.769 108.148 110.236C108.493 110.693 108.755 111.239 108.932 111.874C109.109 112.509 109.198 113.199 109.198 113.946C109.198 114.693 109.109 115.383 108.932 116.018C108.755 116.653 108.493 117.203 108.148 117.67C107.812 118.127 107.397 118.487 106.902 118.748C106.407 119.009 105.843 119.14 105.208 119.14C104.573 119.14 104.009 119.009 103.514 118.748C103.019 118.487 102.599 118.127 102.254 117.67C101.918 117.203 101.661 116.653 101.484 116.018C101.307 115.383 101.218 114.693 101.218 113.946C101.218 113.199 101.307 112.509 101.484 111.874C101.661 111.239 101.918 110.693 102.254 110.236C102.599 109.769 103.019 109.405 103.514 109.144C104.009 108.883 104.573 108.752 105.208 108.752ZM111.284 108.892H112.838L117.64 117.32H117.668V108.892H118.592V119H117.64L112.236 109.648H112.208V119H111.284V108.892Z" fill="black"/>
</svg>
