<svg width="360" height="640" viewBox="0 0 360 640" fill="none" xmlns="http://www.w3.org/2000/svg">
<g clip-path="url(#clip0)">
<rect width="360" height="640" fill="#2D2D2D"/>
<path d="M101.16 318V303.56H98.4V318H101.16ZM106.486 318V308.68H106.526L110.746 318H113.386V303.56H110.866V312.12H110.826L106.986 303.56H103.966V318H106.486ZM124.613 306.86C124.133 304.82 122.633 303.36 120.173 303.36C117.313 303.36 115.833 304.92 115.833 307.4C115.833 311.44 121.993 311.48 121.993 314.2C121.993 315.28 121.253 315.92 120.293 315.92C119.473 315.92 118.473 315.3 118.153 313.56L115.433 314.14C116.173 316.98 117.913 318.2 120.153 318.2C123.053 318.2 124.753 316.56 124.753 314.08C124.753 309.56 118.593 309.4 118.593 307.22C118.593 306.24 119.133 305.64 120.113 305.64C121.073 305.64 121.673 306.22 122.133 307.58L124.613 306.86ZM130.066 318V303.56H127.306V318H130.066ZM132.713 318H136.553C139.713 318 141.473 316.64 141.593 313V308.56C141.473 304.92 139.713 303.56 136.553 303.56H132.713V318ZM135.473 306H136.433C138.153 306 138.833 306.84 138.833 308.88V312.68C138.833 314.84 137.953 315.56 136.433 315.56H135.473V306ZM151.586 318V315.56H146.586V311.76H150.246V309.32H146.586V306H151.386V303.56H143.826V318H151.586Z" fill="white"/>
<path d="M65.6931 383.407V382.205H66.7411V383.407H65.6931ZM65.7664 392.715V385.21H66.6678V392.715H65.7664Z" fill="white"/>
<path d="M104.434 344V343.244H99.324V339.128H102.81V338.372H99.324V334.648H104.168V333.892H98.4V344H104.434ZM110.715 344C110.631 343.51 110.603 343.034 110.603 342.67V338.862C110.603 337.252 109.819 336.58 108.167 336.58C106.991 336.58 106.095 337.056 105.465 338.232L106.025 338.568C106.557 337.728 107.271 337.252 108.139 337.252C109.385 337.252 109.805 337.742 109.805 338.708V339.212C106.767 339.884 105.143 340.248 105.143 342.236C105.143 343.44 106.011 344.14 107.145 344.14C108.265 344.14 108.923 343.804 109.791 343.118L109.903 344H110.715ZM109.763 342.264C109.035 343.006 108.069 343.468 107.285 343.468C106.529 343.468 105.983 343.02 105.983 342.222C105.983 341.298 106.431 340.612 109.763 339.884V342.264ZM118.079 338.554C117.645 337.35 116.791 336.58 115.419 336.58C113.543 336.58 112.283 337.854 112.283 340.36C112.283 342.558 113.375 344.14 115.419 344.14C116.805 344.14 117.659 343.314 118.275 342.278L117.603 341.956C117.015 342.894 116.455 343.468 115.419 343.468C113.963 343.468 113.123 342.222 113.123 340.36C113.123 338.106 114.047 337.252 115.419 337.252C116.385 337.252 116.931 337.924 117.309 338.764L118.079 338.554ZM120.767 344V338.638C121.691 337.798 122.195 337.252 123.091 337.252C124.211 337.252 124.575 337.91 124.575 339.114V344H125.415V339.03C125.415 337.448 124.771 336.58 123.259 336.58C122.195 336.58 121.551 337.056 120.767 337.868V333.892H119.927V344H120.767ZM136.755 338.554C136.321 337.35 135.467 336.58 134.095 336.58C132.219 336.58 130.959 337.854 130.959 340.36C130.959 342.558 132.051 344.14 134.095 344.14C135.481 344.14 136.335 343.314 136.951 342.278L136.279 341.956C135.691 342.894 135.131 343.468 134.095 343.468C132.639 343.468 131.799 342.222 131.799 340.36C131.799 338.106 132.723 337.252 134.095 337.252C135.061 337.252 135.607 337.924 135.985 338.764L136.755 338.554ZM143.867 340.388C143.867 338.134 142.929 336.58 140.955 336.58C139.107 336.58 137.959 338.106 137.959 340.36C137.959 342.922 139.163 344.14 141.067 344.14C142.453 344.14 143.167 343.65 143.951 342.362L143.265 341.998C142.537 343.146 142.075 343.468 141.137 343.468C139.485 343.468 138.799 342.04 138.799 340.388H143.867ZM138.799 339.716C138.813 338.75 139.443 337.238 140.927 337.252C142.201 337.266 142.859 338.218 143.027 339.716H138.799ZM145.589 344H146.429V333.892H145.589V344ZM148.693 344H149.533V333.892H148.693V344ZM156.533 336.72H155.693V344H156.533V336.72ZM156.533 335.124V333.892H155.693V335.124H156.533ZM158.012 342.67C158.698 343.692 159.706 344.14 160.826 344.14C162.142 344.14 163.346 343.384 163.346 342.082C163.346 339.254 159.062 340.304 159.062 338.526C159.062 337.644 159.692 337.252 160.504 337.252C161.372 337.252 161.904 337.672 162.394 338.344L163.038 337.896C162.52 337.056 161.75 336.58 160.532 336.58C159.3 336.58 158.222 337.196 158.222 338.568C158.222 341.158 162.506 339.968 162.506 342.082C162.506 342.866 161.806 343.468 160.882 343.468C159.93 343.468 159.314 343.216 158.628 342.236L158.012 342.67ZM173.715 344C173.631 343.51 173.603 343.034 173.603 342.67V338.862C173.603 337.252 172.819 336.58 171.167 336.58C169.991 336.58 169.095 337.056 168.465 338.232L169.025 338.568C169.557 337.728 170.271 337.252 171.139 337.252C172.385 337.252 172.805 337.742 172.805 338.708V339.212C169.767 339.884 168.143 340.248 168.143 342.236C168.143 343.44 169.011 344.14 170.145 344.14C171.265 344.14 171.923 343.804 172.791 343.118L172.903 344H173.715ZM172.763 342.264C172.035 343.006 171.069 343.468 170.285 343.468C169.529 343.468 168.983 343.02 168.983 342.222C168.983 341.298 169.431 340.612 172.763 339.884V342.264ZM176.767 344V338.638C177.691 337.798 178.195 337.252 179.091 337.252C180.211 337.252 180.575 337.91 180.575 339.114V344H181.415V339.03C181.415 337.448 180.771 336.58 179.259 336.58C178.195 336.58 177.551 337.056 176.767 337.868V336.72H175.927V344H176.767ZM192.867 340.388C192.867 338.134 191.929 336.58 189.955 336.58C188.107 336.58 186.959 338.106 186.959 340.36C186.959 342.922 188.163 344.14 190.067 344.14C191.453 344.14 192.167 343.65 192.951 342.362L192.265 341.998C191.537 343.146 191.075 343.468 190.137 343.468C188.485 343.468 187.799 342.04 187.799 340.388H192.867ZM187.799 339.716C187.813 338.75 188.443 337.238 189.927 337.252C191.201 337.266 191.859 338.218 192.027 339.716H187.799ZM196.563 340.934L198.523 344H199.531L197.067 340.136L199.251 336.72H198.243L196.563 339.352L194.883 336.72H193.875L196.059 340.136L193.595 344H194.603L196.563 340.934ZM201.664 344V338.638C202.588 337.798 203.092 337.252 203.988 337.252C205.108 337.252 205.472 337.91 205.472 339.114V344H206.312V339.03C206.312 337.448 205.668 336.58 204.156 336.58C203.092 336.58 202.448 337.056 201.664 337.868V333.892H200.824V344H201.664ZM209.429 336.72H208.589V344H209.429V336.72ZM209.429 335.124V333.892H208.589V335.124H209.429ZM211.847 344H212.435L212.575 343.048C213.107 343.804 213.919 344.14 214.913 344.14C216.803 344.14 217.839 342.796 217.839 340.318C217.839 338.176 216.663 336.58 214.969 336.58C213.989 336.58 213.401 336.916 212.687 337.672V333.892H211.847V344ZM212.687 338.554C212.967 338.064 213.919 337.252 214.745 337.252C216.257 337.252 216.999 338.582 216.999 340.472C216.999 342.152 216.327 343.468 214.871 343.468C213.835 343.468 213.233 342.894 212.687 342.138V338.554ZM220.312 336.72H219.472V344H220.312V336.72ZM220.312 335.124V333.892H219.472V335.124H220.312ZM221.581 336.72V337.392H222.673V342.866C222.673 343.748 223.065 344.14 224.255 344.14C224.535 344.14 224.829 344.056 225.109 344.014V343.314C224.843 343.398 224.535 343.468 224.255 343.468C223.737 343.468 223.513 343.216 223.513 342.726V337.392H225.109V336.72H223.513V334.34H222.673V336.72H221.581ZM229.398 333.752H228.628L225.17 344.14H225.996L229.398 333.752ZM235.646 340.388C235.646 338.134 234.708 336.58 232.734 336.58C230.886 336.58 229.738 338.106 229.738 340.36C229.738 342.922 230.942 344.14 232.846 344.14C234.232 344.14 234.946 343.65 235.73 342.362L235.044 341.998C234.316 343.146 233.854 343.468 232.916 343.468C231.264 343.468 230.578 342.04 230.578 340.388H235.646ZM230.578 339.716C230.592 338.75 231.222 337.238 232.706 337.252C233.98 337.266 234.638 338.218 234.806 339.716H230.578ZM238.922 344H239.748L242.254 336.72H241.358L239.342 342.712H239.314L237.326 336.72H236.43L238.922 344ZM248.867 340.388C248.867 338.134 247.929 336.58 245.955 336.58C244.107 336.58 242.959 338.106 242.959 340.36C242.959 342.922 244.163 344.14 246.067 344.14C247.453 344.14 248.167 343.65 248.951 342.362L248.265 341.998C247.537 343.146 247.075 343.468 246.137 343.468C244.485 343.468 243.799 342.04 243.799 340.388H248.867ZM243.799 339.716C243.813 338.75 244.443 337.238 245.927 337.252C247.201 337.266 247.859 338.218 248.027 339.716H243.799ZM251.443 344V338.638C252.367 337.798 252.871 337.252 253.767 337.252C254.887 337.252 255.251 337.91 255.251 339.114V344H256.091V339.03C256.091 337.448 255.447 336.58 253.935 336.58C252.871 336.58 252.227 337.056 251.443 337.868V336.72H250.603V344H251.443ZM257.374 336.72V337.392H258.466V342.866C258.466 343.748 258.858 344.14 260.048 344.14C260.328 344.14 260.622 344.056 260.902 344.014V343.314C260.636 343.398 260.328 343.468 260.048 343.468C259.53 343.468 259.306 343.216 259.306 342.726V337.392H260.902V336.72H259.306V334.34H258.466V336.72H257.374ZM263.679 344V342.74H262.475V344H263.679ZM276.722 336.678C276.288 335.026 275.294 333.752 273.488 333.752C271.038 333.752 269.596 335.824 269.596 338.946C269.596 342.068 271.038 344.14 273.488 344.14C275.602 344.14 276.54 342.88 276.918 341.074L276.05 340.92C275.714 342.236 275.126 343.384 273.502 343.384C271.402 343.384 270.52 341.424 270.52 338.946C270.52 336.468 271.402 334.508 273.404 334.508C274.622 334.508 275.434 335.376 275.868 336.86L276.722 336.678ZM278.616 344H279.456V333.892H278.616V344ZM282.56 336.72H281.72V344H282.56V336.72ZM282.56 335.124V333.892H281.72V335.124H282.56ZM289.989 338.554C289.555 337.35 288.701 336.58 287.329 336.58C285.453 336.58 284.193 337.854 284.193 340.36C284.193 342.558 285.285 344.14 287.329 344.14C288.715 344.14 289.569 343.314 290.185 342.278L289.513 341.956C288.925 342.894 288.365 343.468 287.329 343.468C285.873 343.468 285.033 342.222 285.033 340.36C285.033 338.106 285.957 337.252 287.329 337.252C288.295 337.252 288.841 337.924 289.219 338.764L289.989 338.554ZM292.677 344V341.648L294.119 340.024L296.443 344H297.381L294.651 339.436L297.017 336.72H296.051L292.677 340.584V333.892H291.837V344H292.677ZM305.086 337.252C306.584 337.252 307.242 338.386 307.242 340.36C307.242 342.334 306.584 343.468 305.086 343.468C303.588 343.468 302.93 342.334 302.93 340.36C302.93 338.386 303.588 337.252 305.086 337.252ZM305.086 336.58C302.818 336.58 302.09 338.386 302.09 340.36C302.09 342.334 302.818 344.14 305.086 344.14C307.354 344.14 308.082 342.334 308.082 340.36C308.082 338.386 307.354 336.58 305.086 336.58ZM310.574 344V338.638C311.498 337.798 312.002 337.252 312.898 337.252C314.018 337.252 314.382 337.91 314.382 339.114V344H315.222V339.03C315.222 337.448 314.578 336.58 313.066 336.58C312.002 336.58 311.358 337.056 310.574 337.868V336.72H309.734V344H310.574ZM103.3 355.554C102.866 354.35 102.012 353.58 100.64 353.58C98.764 353.58 97.504 354.854 97.504 357.36C97.504 359.558 98.596 361.14 100.64 361.14C102.026 361.14 102.88 360.314 103.496 359.278L102.824 358.956C102.236 359.894 101.676 360.468 100.64 360.468C99.184 360.468 98.344 359.222 98.344 357.36C98.344 355.106 99.268 354.252 100.64 354.252C101.606 354.252 102.152 354.924 102.53 355.764L103.3 355.554ZM110.412 357.388C110.412 355.134 109.474 353.58 107.5 353.58C105.652 353.58 104.504 355.106 104.504 357.36C104.504 359.922 105.708 361.14 107.612 361.14C108.998 361.14 109.712 360.65 110.496 359.362L109.81 358.998C109.082 360.146 108.62 360.468 107.682 360.468C106.03 360.468 105.344 359.04 105.344 357.388H110.412ZM105.344 356.716C105.358 355.75 105.988 354.238 107.472 354.252C108.746 354.266 109.404 355.218 109.572 356.716H105.344ZM112.134 361H112.974V350.892H112.134V361ZM115.238 361H116.078V350.892H115.238V361ZM117.557 359.67C118.243 360.692 119.251 361.14 120.371 361.14C121.687 361.14 122.891 360.384 122.891 359.082C122.891 356.254 118.607 357.304 118.607 355.526C118.607 354.644 119.237 354.252 120.049 354.252C120.917 354.252 121.449 354.672 121.939 355.344L122.583 354.896C122.065 354.056 121.295 353.58 120.077 353.58C118.845 353.58 117.767 354.196 117.767 355.568C117.767 358.158 122.051 356.968 122.051 359.082C122.051 359.866 121.351 360.468 120.427 360.468C119.475 360.468 118.859 360.216 118.173 359.236L117.557 359.67ZM127.464 353.72V354.392H128.556V359.866C128.556 360.748 128.948 361.14 130.138 361.14C130.418 361.14 130.712 361.056 130.992 361.014V360.314C130.726 360.398 130.418 360.468 130.138 360.468C129.62 360.468 129.396 360.216 129.396 359.726V354.392H130.992V353.72H129.396V351.34H128.556V353.72H127.464ZM134.721 354.252C136.219 354.252 136.877 355.386 136.877 357.36C136.877 359.334 136.219 360.468 134.721 360.468C133.223 360.468 132.565 359.334 132.565 357.36C132.565 355.386 133.223 354.252 134.721 354.252ZM134.721 353.58C132.453 353.58 131.725 355.386 131.725 357.36C131.725 359.334 132.453 361.14 134.721 361.14C136.989 361.14 137.717 359.334 137.717 357.36C137.717 355.386 136.989 353.58 134.721 353.58ZM144.105 361V358.648L145.547 357.024L147.871 361H148.809L146.079 356.436L148.445 353.72H147.479L144.105 357.584V350.892H143.265V361H144.105ZM151.105 361V355.638C152.029 354.798 152.533 354.252 153.429 354.252C154.549 354.252 154.913 354.91 154.913 356.114V361H155.753V356.03C155.753 354.448 155.109 353.58 153.597 353.58C152.533 353.58 151.889 354.056 151.105 354.868V353.72H150.265V361H151.105ZM160.396 354.252C161.894 354.252 162.552 355.386 162.552 357.36C162.552 359.334 161.894 360.468 160.396 360.468C158.898 360.468 158.24 359.334 158.24 357.36C158.24 355.386 158.898 354.252 160.396 354.252ZM160.396 353.58C158.128 353.58 157.4 355.386 157.4 357.36C157.4 359.334 158.128 361.14 160.396 361.14C162.664 361.14 163.392 359.334 163.392 357.36C163.392 355.386 162.664 353.58 160.396 353.58ZM166.024 361H166.892L168.516 355.148H168.544L170.182 361H171.008L173.122 353.72H172.254L170.616 359.572H170.588L168.964 353.72H168.138L166.472 359.572H166.444L164.848 353.72H163.994L166.024 361ZM179.119 361V355.638C179.567 354.938 180.631 354.252 181.275 354.252C182.087 354.252 182.535 354.658 182.535 355.47V361H183.375V355.638C183.823 354.938 184.887 354.252 185.531 354.252C186.343 354.252 186.791 354.658 186.791 355.47V361H187.631V355.554C187.631 354.28 186.987 353.58 185.713 353.58C184.663 353.58 183.963 354.14 183.305 354.91C183.095 354.098 182.353 353.58 181.541 353.58C180.407 353.58 179.861 354.042 179.119 354.826V353.72H178.279V361H179.119ZM192.293 354.252C193.791 354.252 194.449 355.386 194.449 357.36C194.449 359.334 193.791 360.468 192.293 360.468C190.795 360.468 190.137 359.334 190.137 357.36C190.137 355.386 190.795 354.252 192.293 354.252ZM192.293 353.58C190.025 353.58 189.297 355.386 189.297 357.36C189.297 359.334 190.025 361.14 192.293 361.14C194.561 361.14 195.289 359.334 195.289 357.36C195.289 355.386 194.561 353.58 192.293 353.58ZM197.725 361V356.884C197.725 355.484 198.929 354.392 199.853 354.392H200.231V353.58H199.853C198.929 353.58 198.145 354.21 197.753 355.106H197.725V353.72H196.885V361H197.725ZM206.867 357.388C206.867 355.134 205.929 353.58 203.955 353.58C202.107 353.58 200.959 355.106 200.959 357.36C200.959 359.922 202.163 361.14 204.067 361.14C205.453 361.14 206.167 360.65 206.951 359.362L206.265 358.998C205.537 360.146 205.075 360.468 204.137 360.468C202.485 360.468 201.799 359.04 201.799 357.388H206.867ZM201.799 356.716C201.813 355.75 202.443 354.238 203.927 354.252C205.201 354.266 205.859 355.218 206.027 356.716H201.799ZM210.003 361V359.74H208.799V361H210.003ZM104.798 387.678C104.364 386.026 103.37 384.752 101.564 384.752C99.114 384.752 97.672 386.824 97.672 389.946C97.672 393.068 99.114 395.14 101.564 395.14C103.678 395.14 104.616 393.88 104.994 392.074L104.126 391.92C103.79 393.236 103.202 394.384 101.578 394.384C99.478 394.384 98.596 392.424 98.596 389.946C98.596 387.468 99.478 385.508 101.48 385.508C102.698 385.508 103.51 386.376 103.944 387.86L104.798 387.678ZM106.693 395H107.533V384.892H106.693V395ZM110.636 387.72H109.796V395H110.636V387.72ZM110.636 386.124V384.892H109.796V386.124H110.636ZM118.066 389.554C117.632 388.35 116.778 387.58 115.406 387.58C113.53 387.58 112.27 388.854 112.27 391.36C112.27 393.558 113.362 395.14 115.406 395.14C116.792 395.14 117.646 394.314 118.262 393.278L117.59 392.956C117.002 393.894 116.442 394.468 115.406 394.468C113.95 394.468 113.11 393.222 113.11 391.36C113.11 389.106 114.034 388.252 115.406 388.252C116.372 388.252 116.918 388.924 117.296 389.764L118.066 389.554ZM120.754 395V392.648L122.196 391.024L124.52 395H125.458L122.728 390.436L125.094 387.72H124.128L120.754 391.584V384.892H119.914V395H120.754ZM129.802 387.72V388.392H130.894V393.866C130.894 394.748 131.286 395.14 132.476 395.14C132.756 395.14 133.05 395.056 133.33 395.014V394.314C133.064 394.398 132.756 394.468 132.476 394.468C131.958 394.468 131.734 394.216 131.734 393.726V388.392H133.33V387.72H131.734V385.34H130.894V387.72H129.802ZM135.547 395V389.638C136.471 388.798 136.975 388.252 137.871 388.252C138.991 388.252 139.355 388.91 139.355 390.114V395H140.195V390.03C140.195 388.448 139.551 387.58 138.039 387.58C136.975 387.58 136.331 388.056 135.547 388.868V384.892H134.707V395H135.547ZM143.312 387.72H142.472V395H143.312V387.72ZM143.312 386.124V384.892H142.472V386.124H143.312ZM144.791 393.67C145.477 394.692 146.485 395.14 147.605 395.14C148.921 395.14 150.125 394.384 150.125 393.082C150.125 390.254 145.841 391.304 145.841 389.526C145.841 388.644 146.471 388.252 147.283 388.252C148.151 388.252 148.683 388.672 149.173 389.344L149.817 388.896C149.299 388.056 148.529 387.58 147.311 387.58C146.079 387.58 145.001 388.196 145.001 389.568C145.001 392.158 149.285 390.968 149.285 393.082C149.285 393.866 148.585 394.468 147.661 394.468C146.709 394.468 146.093 394.216 145.407 393.236L144.791 393.67ZM154.699 387.72V388.392H155.791V393.866C155.791 394.748 156.183 395.14 157.373 395.14C157.653 395.14 157.947 395.056 158.227 395.014V394.314C157.961 394.398 157.653 394.468 157.373 394.468C156.855 394.468 156.631 394.216 156.631 393.726V388.392H158.227V387.72H156.631V385.34H155.791V387.72H154.699ZM161.955 388.252C163.453 388.252 164.111 389.386 164.111 391.36C164.111 393.334 163.453 394.468 161.955 394.468C160.457 394.468 159.799 393.334 159.799 391.36C159.799 389.386 160.457 388.252 161.955 388.252ZM161.955 387.58C159.687 387.58 158.959 389.386 158.959 391.36C158.959 393.334 159.687 395.14 161.955 395.14C164.223 395.14 164.951 393.334 164.951 391.36C164.951 389.386 164.223 387.58 161.955 387.58ZM170.486 395H171.326V384.892H170.486V395ZM178.867 391.388C178.867 389.134 177.929 387.58 175.955 387.58C174.107 387.58 172.959 389.106 172.959 391.36C172.959 393.922 174.163 395.14 176.067 395.14C177.453 395.14 178.167 394.65 178.951 393.362L178.265 392.998C177.537 394.146 177.075 394.468 176.137 394.468C174.485 394.468 173.799 393.04 173.799 391.388H178.867ZM173.799 390.716C173.813 389.75 174.443 388.238 175.927 388.252C177.201 388.266 177.859 389.218 178.027 390.716H173.799ZM185.391 395C185.307 394.51 185.279 394.034 185.279 393.67V389.862C185.279 388.252 184.495 387.58 182.843 387.58C181.667 387.58 180.771 388.056 180.141 389.232L180.701 389.568C181.233 388.728 181.947 388.252 182.815 388.252C184.061 388.252 184.481 388.742 184.481 389.708V390.212C181.443 390.884 179.819 391.248 179.819 393.236C179.819 394.44 180.687 395.14 181.821 395.14C182.941 395.14 183.599 394.804 184.467 394.118L184.579 395H185.391ZM184.439 393.264C183.711 394.006 182.745 394.468 181.961 394.468C181.205 394.468 180.659 394.02 180.659 393.222C180.659 392.298 181.107 391.612 184.439 390.884V393.264ZM188.387 395V390.884C188.387 389.484 189.591 388.392 190.515 388.392H190.893V387.58H190.515C189.591 387.58 188.807 388.21 188.415 389.106H188.387V387.72H187.547V395H188.387ZM193.105 395V389.638C194.029 388.798 194.533 388.252 195.429 388.252C196.549 388.252 196.913 388.91 196.913 390.114V395H197.753V390.03C197.753 388.448 197.109 387.58 195.597 387.58C194.533 387.58 193.889 388.056 193.105 388.868V387.72H192.265V395H193.105ZM204.781 395V389.638C205.229 388.938 206.293 388.252 206.937 388.252C207.749 388.252 208.197 388.658 208.197 389.47V395H209.037V389.638C209.485 388.938 210.549 388.252 211.193 388.252C212.005 388.252 212.453 388.658 212.453 389.47V395H213.293V389.554C213.293 388.28 212.649 387.58 211.375 387.58C210.325 387.58 209.625 388.14 208.967 388.91C208.757 388.098 208.015 387.58 207.203 387.58C206.069 387.58 205.523 388.042 204.781 388.826V387.72H203.941V395H204.781ZM217.955 388.252C219.453 388.252 220.111 389.386 220.111 391.36C220.111 393.334 219.453 394.468 217.955 394.468C216.457 394.468 215.799 393.334 215.799 391.36C215.799 389.386 216.457 388.252 217.955 388.252ZM217.955 387.58C215.687 387.58 214.959 389.386 214.959 391.36C214.959 393.334 215.687 395.14 217.955 395.14C220.223 395.14 220.951 393.334 220.951 391.36C220.951 389.386 220.223 387.58 217.955 387.58ZM223.387 395V390.884C223.387 389.484 224.591 388.392 225.515 388.392H225.893V387.58H225.515C224.591 387.58 223.807 388.21 223.415 389.106H223.387V387.72H222.547V395H223.387ZM232.529 391.388C232.529 389.134 231.591 387.58 229.617 387.58C227.769 387.58 226.621 389.106 226.621 391.36C226.621 393.922 227.825 395.14 229.729 395.14C231.115 395.14 231.829 394.65 232.613 393.362L231.927 392.998C231.199 394.146 230.737 394.468 229.799 394.468C228.147 394.468 227.461 393.04 227.461 391.388H232.529ZM227.461 390.716C227.475 389.75 228.105 388.238 229.589 388.252C230.863 388.266 231.521 389.218 231.689 390.716H227.461ZM242.95 395C242.866 394.51 242.838 394.034 242.838 393.67V389.862C242.838 388.252 242.054 387.58 240.402 387.58C239.226 387.58 238.33 388.056 237.7 389.232L238.26 389.568C238.792 388.728 239.506 388.252 240.374 388.252C241.62 388.252 242.04 388.742 242.04 389.708V390.212C239.002 390.884 237.378 391.248 237.378 393.236C237.378 394.44 238.246 395.14 239.38 395.14C240.5 395.14 241.158 394.804 242.026 394.118L242.138 395H242.95ZM241.998 393.264C241.27 394.006 240.304 394.468 239.52 394.468C238.764 394.468 238.218 394.02 238.218 393.222C238.218 392.298 238.666 391.612 241.998 390.884V393.264ZM245.302 395H245.89L246.03 394.048C246.562 394.804 247.374 395.14 248.368 395.14C250.258 395.14 251.294 393.796 251.294 391.318C251.294 389.176 250.118 387.58 248.424 387.58C247.444 387.58 246.856 387.916 246.142 388.672V384.892H245.302V395ZM246.142 389.554C246.422 389.064 247.374 388.252 248.2 388.252C249.712 388.252 250.454 389.582 250.454 391.472C250.454 393.152 249.782 394.468 248.326 394.468C247.29 394.468 246.688 393.894 246.142 393.138V389.554ZM255.293 388.252C256.791 388.252 257.449 389.386 257.449 391.36C257.449 393.334 256.791 394.468 255.293 394.468C253.795 394.468 253.137 393.334 253.137 391.36C253.137 389.386 253.795 388.252 255.293 388.252ZM255.293 387.58C253.025 387.58 252.297 389.386 252.297 391.36C252.297 393.334 253.025 395.14 255.293 395.14C257.561 395.14 258.289 393.334 258.289 391.36C258.289 389.386 257.561 387.58 255.293 387.58ZM264.589 387.72V393.082C263.665 393.922 263.161 394.468 262.265 394.468C261.145 394.468 260.781 393.81 260.781 392.606V387.72H259.941V392.69C259.941 394.272 260.585 395.14 262.097 395.14C263.161 395.14 263.805 394.664 264.589 393.852V395H265.429V387.72H264.589ZM266.712 387.72V388.392H267.804V393.866C267.804 394.748 268.196 395.14 269.386 395.14C269.666 395.14 269.96 395.056 270.24 395.014V394.314C269.974 394.398 269.666 394.468 269.386 394.468C268.868 394.468 268.644 394.216 268.644 393.726V388.392H270.24V387.72H268.644V385.34H267.804V387.72H266.712ZM274.799 385.648H277.795V395H278.719V385.648H281.715V384.892H274.799V385.648ZM284.133 395V389.638C285.057 388.798 285.561 388.252 286.457 388.252C287.577 388.252 287.941 388.91 287.941 390.114V395H288.781V390.03C288.781 388.448 288.137 387.58 286.625 387.58C285.561 387.58 284.917 388.056 284.133 388.868V384.892H283.293V395H284.133ZM296.336 391.388C296.336 389.134 295.398 387.58 293.424 387.58C291.576 387.58 290.428 389.106 290.428 391.36C290.428 393.922 291.632 395.14 293.536 395.14C294.922 395.14 295.636 394.65 296.42 393.362L295.734 392.998C295.006 394.146 294.544 394.468 293.606 394.468C291.954 394.468 291.268 393.04 291.268 391.388H296.336ZM291.268 390.716C291.282 389.75 291.912 388.238 293.396 388.252C294.67 388.266 295.328 389.218 295.496 390.716H291.268ZM298.912 395V389.638C299.36 388.938 300.424 388.252 301.068 388.252C301.88 388.252 302.328 388.658 302.328 389.47V395H303.168V389.638C303.616 388.938 304.68 388.252 305.324 388.252C306.136 388.252 306.584 388.658 306.584 389.47V395H307.424V389.554C307.424 388.28 306.78 387.58 305.506 387.58C304.456 387.58 303.756 388.14 303.098 388.91C302.888 388.098 302.146 387.58 301.334 387.58C300.2 387.58 299.654 388.042 298.912 388.826V387.72H298.072V395H298.912ZM314.998 391.388C314.998 389.134 314.06 387.58 312.086 387.58C310.238 387.58 309.09 389.106 309.09 391.36C309.09 393.922 310.294 395.14 312.198 395.14C313.584 395.14 314.298 394.65 315.082 393.362L314.396 392.998C313.668 394.146 313.206 394.468 312.268 394.468C310.616 394.468 309.93 393.04 309.93 391.388H314.998ZM309.93 390.716C309.944 389.75 310.574 388.238 312.058 388.252C313.332 388.266 313.99 389.218 314.158 390.716H309.93ZM315.936 393.67C316.622 394.692 317.63 395.14 318.75 395.14C320.066 395.14 321.27 394.384 321.27 393.082C321.27 390.254 316.986 391.304 316.986 389.526C316.986 388.644 317.616 388.252 318.428 388.252C319.296 388.252 319.828 388.672 320.318 389.344L320.962 388.896C320.444 388.056 319.674 387.58 318.456 387.58C317.224 387.58 316.146 388.196 316.146 389.568C316.146 392.158 320.43 390.968 320.43 393.082C320.43 393.866 319.73 394.468 318.806 394.468C317.854 394.468 317.238 394.216 316.552 393.236L315.936 393.67ZM324.355 395V393.74H323.151V395H324.355Z" fill="white"/>
<circle cx="61" cy="352.007" r="10" fill="#3E6CDA"/>
<circle cx="58.5" cy="356.5" r="2.5" fill="#0F0400"/>
<circle cx="71" cy="341" r="10" fill="#D62B2B"/>
<circle cx="66.5" cy="387.5" r="11.7854" stroke="white" stroke-width="1.42928"/>
<rect x="94.5" y="417.5" width="170" height="40" rx="4.5" stroke="white"/>
<path d="M146.684 431.983H149.466V440.667H150.324V431.983H153.106V431.281H146.684V431.983ZM157.824 440.667C157.746 440.212 157.72 439.77 157.72 439.432V435.896C157.72 434.401 156.992 433.777 155.458 433.777C154.366 433.777 153.534 434.219 152.949 435.311L153.469 435.623C153.963 434.843 154.626 434.401 155.432 434.401C156.589 434.401 156.979 434.856 156.979 435.753V436.221C154.158 436.845 152.65 437.183 152.65 439.029C152.65 440.147 153.456 440.797 154.509 440.797C155.549 440.797 156.16 440.485 156.966 439.848L157.07 440.667H157.824ZM156.94 439.055C156.264 439.744 155.367 440.173 154.639 440.173C153.937 440.173 153.43 439.757 153.43 439.016C153.43 438.158 153.846 437.521 156.94 436.845V439.055ZM160.008 443.059H160.788V439.783C161.451 440.485 161.997 440.797 162.907 440.797C164.48 440.797 165.572 439.679 165.572 437.326C165.572 435.467 164.61 433.777 162.855 433.777C161.984 433.777 161.347 434.167 160.814 434.947H160.788V433.907H160.008V443.059ZM160.788 435.636C161.451 434.934 161.958 434.401 162.816 434.401C164.168 434.401 164.792 435.779 164.792 437.183C164.792 439.055 164.103 440.173 162.699 440.173C161.932 440.173 161.048 439.419 160.788 438.964V435.636ZM169.783 433.907V434.531H170.797V439.614C170.797 440.433 171.161 440.797 172.266 440.797C172.526 440.797 172.799 440.719 173.059 440.68V440.03C172.812 440.108 172.526 440.173 172.266 440.173C171.785 440.173 171.577 439.939 171.577 439.484V434.531H173.059V433.907H171.577V431.697H170.797V433.907H169.783ZM176.521 434.401C177.912 434.401 178.523 435.454 178.523 437.287C178.523 439.12 177.912 440.173 176.521 440.173C175.13 440.173 174.519 439.12 174.519 437.287C174.519 435.454 175.13 434.401 176.521 434.401ZM176.521 433.777C174.415 433.777 173.739 435.454 173.739 437.287C173.739 439.12 174.415 440.797 176.521 440.797C178.627 440.797 179.303 439.12 179.303 437.287C179.303 435.454 178.627 433.777 176.521 433.777ZM184.586 440.667H185.132L185.262 439.783C185.756 440.485 186.51 440.797 187.433 440.797C189.188 440.797 190.15 439.549 190.15 437.248C190.15 435.259 189.058 433.777 187.485 433.777C186.575 433.777 186.029 434.089 185.366 434.791V431.281H184.586V440.667ZM185.366 435.61C185.626 435.155 186.51 434.401 187.277 434.401C188.681 434.401 189.37 435.636 189.37 437.391C189.37 438.951 188.746 440.173 187.394 440.173C186.432 440.173 185.873 439.64 185.366 438.938V435.61ZM196.567 437.313C196.567 435.22 195.696 433.777 193.863 433.777C192.147 433.777 191.081 435.194 191.081 437.287C191.081 439.666 192.199 440.797 193.967 440.797C195.254 440.797 195.917 440.342 196.645 439.146L196.008 438.808C195.332 439.874 194.903 440.173 194.032 440.173C192.498 440.173 191.861 438.847 191.861 437.313H196.567ZM191.861 436.689C191.874 435.792 192.459 434.388 193.837 434.401C195.02 434.414 195.631 435.298 195.787 436.689H191.861ZM203.366 433.647C202.833 433.647 202.339 433.855 201.949 434.245C201.52 433.959 201.026 433.777 200.376 433.777C198.738 433.777 197.698 434.726 197.698 436.208C197.698 436.91 198.062 437.56 198.673 437.976C198.179 438.08 197.659 438.548 197.659 439.12C197.659 439.692 198.062 439.9 198.556 440.004V440.03C197.607 440.381 197.373 440.875 197.373 441.46C197.373 442.266 197.997 443.059 200.324 443.059C202.651 443.059 203.405 442.214 203.405 441.226C203.405 440.121 202.56 439.471 200.532 439.471C198.699 439.471 198.439 439.276 198.439 438.886C198.439 438.639 198.634 438.392 199.063 438.236C199.401 438.353 199.726 438.444 200.155 438.444C201.585 438.444 202.768 437.742 202.768 436.078C202.768 435.428 202.586 435.025 202.287 434.661C202.56 434.388 203.015 434.349 203.366 434.349V433.647ZM200.155 440.173C202.183 440.173 202.625 440.719 202.625 441.278C202.625 441.98 201.897 442.435 200.207 442.435C198.803 442.435 198.153 441.98 198.153 441.317C198.153 440.732 198.621 440.173 200.155 440.173ZM198.478 436.13C198.478 435.077 199.141 434.401 200.233 434.401C201.325 434.401 201.988 434.947 201.988 436.13C201.988 437.3 201.325 437.82 200.233 437.82C199.284 437.82 198.478 437.3 198.478 436.13ZM205.446 433.907H204.666V440.667H205.446V433.907ZM205.446 432.425V431.281H204.666V432.425H205.446ZM208.341 440.667V435.688C209.199 434.908 209.667 434.401 210.499 434.401C211.539 434.401 211.877 435.012 211.877 436.13V440.667H212.657V436.052C212.657 434.583 212.059 433.777 210.655 433.777C209.667 433.777 209.069 434.219 208.341 434.973V433.907H207.561V440.667H208.341Z" fill="white"/>
<path d="M101.52 171.44C101.52 173.04 101.84 174.12 102.48 174.68C103.12 175.24 104 175.52 105.12 175.52C106.24 175.52 107.12 175.24 107.76 174.68C108.4 174.12 108.72 173.04 108.72 171.44V169.52H114.24V170.72C114.24 172.507 114.013 174.013 113.56 175.24C113.107 176.467 112.48 177.467 111.68 178.24C110.88 178.987 109.92 179.533 108.8 179.88C107.68 180.227 106.453 180.4 105.12 180.4C103.787 180.4 102.56 180.227 101.44 179.88C100.32 179.533 99.36 178.987 98.56 178.24C97.76 177.467 97.1333 176.467 96.68 175.24C96.2267 174.013 96 172.507 96 170.72V160.4C96 158.613 96.2267 157.107 96.68 155.88C97.1333 154.653 97.76 153.667 98.56 152.92C99.36 152.147 100.32 151.587 101.44 151.24C102.56 150.893 103.787 150.72 105.12 150.72C106.453 150.72 107.68 150.893 108.8 151.24C109.92 151.587 110.88 152.147 111.68 152.92C112.48 153.667 113.107 154.653 113.56 155.88C114.013 157.107 114.24 158.613 114.24 160.4V160.48H108.72V159.68C108.72 158.08 108.4 157 107.76 156.44C107.12 155.88 106.24 155.6 105.12 155.6C104 155.6 103.12 155.88 102.48 156.44C101.84 157 101.52 158.08 101.52 159.68V171.44ZM123.747 171.44C123.747 173.04 124.067 174.12 124.707 174.68C125.347 175.24 126.227 175.52 127.347 175.52C128.467 175.52 129.347 175.24 129.987 174.68C130.627 174.12 130.947 173.04 130.947 171.44V159.68C130.947 158.08 130.627 157 129.987 156.44C129.347 155.88 128.467 155.6 127.347 155.6C126.227 155.6 125.347 155.88 124.707 156.44C124.067 157 123.747 158.08 123.747 159.68V171.44ZM118.227 160.4C118.227 158.613 118.453 157.107 118.907 155.88C119.36 154.653 119.987 153.667 120.787 152.92C121.587 152.147 122.547 151.587 123.667 151.24C124.787 150.893 126.013 150.72 127.347 150.72C128.68 150.72 129.907 150.893 131.027 151.24C132.147 151.587 133.107 152.147 133.907 152.92C134.707 153.667 135.333 154.653 135.787 155.88C136.24 157.107 136.467 158.613 136.467 160.4V170.72C136.467 172.507 136.24 174.013 135.787 175.24C135.333 176.467 134.707 177.467 133.907 178.24C133.107 178.987 132.147 179.533 131.027 179.88C129.907 180.227 128.68 180.4 127.347 180.4C126.013 180.4 124.787 180.227 123.667 179.88C122.547 179.533 121.587 178.987 120.787 178.24C119.987 177.467 119.36 176.467 118.907 175.24C118.453 174.013 118.227 172.507 118.227 170.72V160.4ZM141.253 180V151.12H147.293L154.973 168.24H155.053V151.12H160.093V180H154.813L146.373 161.36H146.293V180H141.253ZM182.106 151.12V156H175.666V180H170.146V156H163.706V151.12H182.106ZM189.822 169.04L195.302 169.04L192.622 157.36H192.542L189.822 169.04ZM181.942 180L189.102 151.12H196.182L203.142 180H197.862L196.462 173.92L188.822 173.92L187.262 180H181.942ZM219.928 177.6C219.182 178.453 218.395 179.133 217.568 179.64C216.742 180.147 215.808 180.4 214.768 180.4C213.435 180.4 212.208 180.227 211.088 179.88C209.968 179.533 209.008 178.987 208.208 178.24C207.408 177.467 206.782 176.467 206.328 175.24C205.875 174.013 205.648 172.507 205.648 170.72V160.4C205.648 158.613 205.875 157.107 206.328 155.88C206.782 154.653 207.408 153.667 208.208 152.92C209.008 152.147 209.968 151.587 211.088 151.24C212.208 150.893 213.435 150.72 214.768 150.72C217.595 150.72 219.755 151.533 221.248 153.16C222.742 154.76 223.542 157.213 223.648 160.52H218.128C218.128 158.653 217.822 157.373 217.208 156.68C216.595 155.96 215.782 155.6 214.768 155.6C213.648 155.6 212.768 155.88 212.128 156.44C211.488 157 211.168 158.08 211.168 159.68V171.44C211.168 173.04 211.488 174.12 212.128 174.68C212.768 175.24 213.648 175.52 214.768 175.52C215.808 175.52 216.622 175.173 217.208 174.48C217.822 173.76 218.128 172.773 218.128 171.52V169.76H214.248V165.2H223.648V180H220.768L219.928 177.6ZM228.675 180V151.12H234.195V180H228.675ZM244.528 171.44C244.528 173.04 244.848 174.12 245.488 174.68C246.128 175.24 247.008 175.52 248.128 175.52C249.248 175.52 250.128 175.24 250.768 174.68C251.408 174.12 251.728 173.04 251.728 171.44V159.68C251.728 158.08 251.408 157 250.768 156.44C250.128 155.88 249.248 155.6 248.128 155.6C247.008 155.6 246.128 155.88 245.488 156.44C244.848 157 244.528 158.08 244.528 159.68V171.44ZM239.008 160.4C239.008 158.613 239.234 157.107 239.688 155.88C240.141 154.653 240.768 153.667 241.568 152.92C242.368 152.147 243.328 151.587 244.448 151.24C245.568 150.893 246.794 150.72 248.128 150.72C249.461 150.72 250.688 150.893 251.808 151.24C252.928 151.587 253.888 152.147 254.688 152.92C255.488 153.667 256.114 154.653 256.568 155.88C257.021 157.107 257.248 158.613 257.248 160.4V170.72C257.248 172.507 257.021 174.013 256.568 175.24C256.114 176.467 255.488 177.467 254.688 178.24C253.888 178.987 252.928 179.533 251.808 179.88C250.688 180.227 249.461 180.4 248.128 180.4C246.794 180.4 245.568 180.227 244.448 179.88C243.328 179.533 242.368 178.987 241.568 178.24C240.768 177.467 240.141 176.467 239.688 175.24C239.234 174.013 239.008 172.507 239.008 170.72V160.4ZM262.034 180V151.12H268.074L275.754 168.24H275.834V151.12H280.874V180H275.594L267.154 161.36H267.074V180H262.034Z" fill="white"/>
<path d="M98.14 110H99.46L102.28 98.12H102.32L105.14 110H106.46L110.32 95.56H108.98L105.84 107.6H105.8L102.98 95.56H101.66L98.78 107.6H98.74L95.66 95.56H94.32L98.14 110ZM121.28 110V108.92H113.98V103.04H118.96V101.96H113.98V96.64H120.9V95.56H112.66V110H121.28ZM131.06 104.2L133.44 96.64H133.48L135.88 104.2H131.06ZM127.84 110H129.24L130.72 105.28H136.18L137.64 110H139.04L134.48 95.56H132.46L127.84 110ZM142.886 96.64H146.446C148.526 96.64 149.566 97.7 149.566 99.48C149.566 101.26 148.366 102.32 146.446 102.32H142.886V96.64ZM147.886 103.16C149.946 102.64 150.886 101.38 150.886 99.48C150.886 97.12 149.286 95.56 146.446 95.56H141.566V110H142.886V103.4H146.626L149.986 110H151.426L147.886 103.16ZM163.526 110V108.92H156.226V103.04H161.206V101.96H156.226V96.64H163.146V95.56H154.906V110H163.526ZM96 134H97.32V120.64H97.36L105.08 134H106.44V119.56H105.12V131.6H105.08L98.22 119.56H96V134ZM115.094 119.36C111.474 119.36 109.394 122.52 109.394 126.78C109.394 131.04 111.474 134.2 115.094 134.2C118.714 134.2 120.794 131.04 120.794 126.78C120.794 122.52 118.714 119.36 115.094 119.36ZM115.094 133.12C112.434 133.12 110.714 130.84 110.714 126.78C110.714 122.72 112.434 120.44 115.094 120.44C117.754 120.44 119.474 122.72 119.474 126.78C119.474 130.84 117.754 133.12 115.094 133.12ZM125.913 134H127.233L130.053 122.12H130.093L132.913 134H134.233L138.093 119.56H136.753L133.613 131.6H133.573L130.753 119.56H129.433L126.553 131.6H126.513L123.433 119.56H122.093L125.913 134ZM154.62 134V132.92H147.32V127.04H152.3V125.96H147.32V120.64H154.24V119.56H146V134H154.62ZM157.113 134H158.433V120.64H158.473L166.193 134H167.553V119.56H166.233V131.6H166.193L159.333 119.56H157.113V134ZM170.167 120.64H174.447V134H175.767V120.64H180.047V119.56H170.167V120.64ZM191.28 134V132.92H183.98V127.04H188.96V125.96H183.98V120.64H190.9V119.56H182.66V134H191.28ZM195.093 120.64H198.653C200.733 120.64 201.773 121.7 201.773 123.48C201.773 125.26 200.573 126.32 198.653 126.32H195.093V120.64ZM200.093 127.16C202.153 126.64 203.093 125.38 203.093 123.48C203.093 121.12 201.493 119.56 198.653 119.56H193.773V134H195.093V127.4H198.833L202.193 134H203.633L200.093 127.16ZM207.233 134H208.553V119.56H207.233V134ZM212.68 134H214V120.64H214.04L221.76 134H223.12V119.56H221.8V131.6H221.76L214.9 119.56H212.68V134ZM236.553 123.54C236.053 121.08 234.353 119.36 231.673 119.36C228.573 119.36 226.073 122 226.073 126.78C226.073 131.56 228.393 134.2 231.613 134.2C233.613 134.2 234.673 133.7 235.533 132.58H235.573V134H236.713V127.24H231.753V128.32H235.393V129.64C235.393 131.56 234.053 133.12 232.013 133.12C228.293 133.12 227.393 129.88 227.393 126.78C227.393 122.88 229.053 120.44 231.593 120.44C233.733 120.44 234.873 121.92 235.313 123.76L236.553 123.54Z" fill="white"/>
<path d="M45.9832 158.47L61.1556 171.791L74.3093 160.712L78.5612 163.793L82.1033 158.47L86.3535 151.786V161.832L92.0233 172.478L99.4624 158.47" stroke="white" stroke-width="0.322651" stroke-miterlimit="10"/>
<path d="M95.5 97.036L83.2507 109.742L67.0183 97.0359L49.861 111.455L25 101.292" stroke="white" stroke-width="0.322651" stroke-miterlimit="10"/>
<path d="M36.1372 122.264L47.4359 130.629L55.7467 126.371L60.9123 127.043L70.667 119.199L74.6842 128.836L78.1279 126.371L80.9967 130.629L84.4389 135.976V127.94L89.031 119.423L96 130.629" stroke="white" stroke-width="0.322651" stroke-miterlimit="10"/>
<path d="M-32.3119 307.56H-14.4326V276.095H31.3026C37.8338 276.095 43.1299 270.936 43.1299 264.574V209.069C43.448 208.562 43.7619 208.051 44.0717 207.54L61.0918 206.667L79 205.749L68.0609 169.536L57.9687 136.123C50.9872 92.1032 11.808 57.3104 -32.5432 50.0025C-38.2028 49.0689 -32.3119 307.56 -32.3119 307.56Z" fill="#CB2E24"/>
<path d="M19.8349 250.502C17.9016 252.687 20.8429 255.705 19.2979 259.242C18.3106 261.5 16.0633 262.659 14.3365 263.544C13.0682 264.196 11.6223 264.941 9.67661 264.82C7.52845 264.683 6.06192 263.572 5.15308 262.88C4.35165 262.273 2.32329 260.687 1.46816 257.753C0.728697 255.218 1.27813 253.097 1.51773 252.216C1.78625 251.238 2.65378 248.051 5.6612 246.277C7.21449 245.359 8.72233 245.186 9.42875 245.15C10.8581 245.077 11.8826 245.411 13.6424 246.003C16.8564 247.089 17.5215 248.011 19.5829 247.987C20.4959 247.975 21.6567 247.963 22.2723 247.182C23.0283 246.228 22.1855 245.118 22.2929 242.357C22.3549 240.792 22.6854 239.645 22.9787 238.627C23.5405 236.679 23.9247 235.343 25.1103 234.228C25.7878 233.596 26.4653 233.299 27.8286 232.711C29.1381 232.144 30.2618 231.661 31.5961 231.584C33.926 231.456 35.6983 232.647 36.4914 233.178C37.107 233.592 40.5275 235.886 40.9819 240.297C41.3083 243.456 40.0359 246.924 37.2598 248.932C36.9087 249.186 33.6988 251.448 30.8195 250.506C30.1131 250.277 29.5884 249.906 27.5105 249.146C26.4157 248.743 25.7424 248.55 24.879 248.522C24.5898 248.514 23.7553 248.506 22.7432 248.808C21.6278 249.138 20.4629 249.79 19.8349 250.502Z" fill="white" stroke="white" stroke-width="0.544587" stroke-miterlimit="10"/>
<path d="M8.94106 95.7533C14.6213 90.4333 23.185 92.2522 24.8292 92.6023C26.9939 93.0611 30.2202 93.7935 32.7733 96.6144C34.5166 98.538 35.1445 100.546 35.3263 101.198C35.5989 102.172 36.6276 106.341 34.1902 110.079C32.3271 112.94 29.4849 113.938 28.2332 114.377C26.5932 114.952 26.2792 114.687 20.8551 115.238C15.6995 115.761 15.7863 116.019 14.613 115.81C9.89947 114.969 7.23079 110.554 6.95401 110.079C6.43349 109.19 4.38035 105.552 5.53705 101.198C6.31782 98.2563 8.16442 96.4816 8.94106 95.7533Z" fill="white" stroke="white" stroke-width="0.544587" stroke-miterlimit="10"/>
<path d="M40.0112 122.401C43.1922 123.234 44.952 125.66 46.5383 127.846C48.8435 131.025 49.6614 133.958 50.5083 137.013C51.4998 140.578 52.2475 143.266 51.6443 146.755C51.3593 148.405 50.9545 150.735 49.0913 152.771C46.3318 155.789 42.4073 155.942 41.1473 155.922C37.0286 155.858 32.4761 153.459 31.2162 149.906C30.4891 147.858 31.4103 146.98 30.3652 143.604C29.7414 141.588 29.3035 141.552 28.3781 139.021C27.5849 136.848 26.9281 135.049 26.9612 132.719C26.9777 131.576 27.019 128.481 29.2291 125.842C30.9931 123.737 33.2115 123.033 34.3351 122.691C35.3348 122.385 37.5243 121.749 40.0112 122.401Z" fill="white" stroke="white" stroke-width="0.544587" stroke-miterlimit="10"/>
<path d="M17.1914 158.264C24.0118 156.844 24.2514 160.329 38.2475 161.62C38.9746 161.689 45.2951 162.264 52.2849 164.643C53.516 165.061 54.8255 165.556 56.1475 166.659C60.1174 169.967 60.0307 175.282 60.01 176.059C59.8448 181.303 56.3458 184.631 55.4493 185.46C54.7677 186.087 50.0913 190.28 44.5681 189.488C40.9616 188.973 40.8584 186.884 34.7402 184.453C32.5755 183.592 30.2126 182.651 27.0192 182.437C22.2065 182.119 21.2316 183.838 17.1914 183.443C16.3321 183.359 11.8293 182.84 8.41699 179.415C5.26498 176.248 3.40599 170.956 5.25672 166.321C7.68992 160.24 15.1507 158.687 17.1914 158.264Z" fill="white" stroke="white" stroke-width="0.544587" stroke-miterlimit="10"/>
<path d="M-9.35121 193.741C-7.23197 190.614 -5.14991 187.065 -0.84119 184.86C1.45156 183.685 3.24445 183.472 4.26482 183.427C5.38435 183.379 8.71813 183.291 11.6429 185.721C14.7041 188.264 15.2287 191.838 15.332 193.17C15.3816 193.818 15.6625 198.208 12.779 201.19C11.3538 202.667 10.6349 202.264 6.82196 204.341C3.33946 206.236 1.59615 207.186 0.294855 208.924C-0.857716 210.47 -0.523098 210.977 -2.82411 218.091C-3.67098 220.703 -4.10061 222.027 -4.52612 222.675C-6.05875 225.025 -9.33469 227.761 -13.6062 227.544C-18.7907 227.283 -21.5544 222.852 -21.8353 222.385C-24.4999 217.947 -22.9135 212.88 -22.1204 210.353C-19.9681 203.492 -16.8078 204.739 -9.35121 193.741Z" fill="white" stroke="white" stroke-width="0.544587" stroke-miterlimit="10"/>
<path d="M31.1004 222.763C25.1351 228.023 21.9335 229.665 19.6325 230.618C16.6912 231.838 14.101 232.876 10.7754 232.325C9.96576 232.192 4.19464 231.238 2.02996 226.107C0.869122 223.355 0.807157 219.548 2.74463 216.856C5.40092 213.166 9.01974 215.451 15.1998 211.005C18.7443 208.453 21.4254 204.912 21.6608 204.602C23.8875 201.628 23.6272 200.828 25.1764 199.556C27.9897 197.246 33.2072 196.312 37.2805 198.92C41.2711 201.475 42.4402 206.321 42.0229 209.773C41.5685 213.54 38.0819 216.614 31.1004 222.763Z" fill="white" stroke="white" stroke-width="0.544587" stroke-miterlimit="10"/>
<path d="M-3.65463 85.029C-0.00689125 84.3368 3.76478 88.5984 4.02091 88.8962C4.75211 89.7412 7.38774 92.7915 6.63588 97.1376C5.82619 101.822 1.75295 104.12 1.32332 104.353C-2.41118 106.381 -6.64967 105.846 -9.33487 104.28C-10.9749 103.327 -11.2476 102.449 -14.003 98.4696C-16.0685 95.4877 -17.7086 93.3992 -20.9928 89.2261C-25.2189 83.8579 -26.231 83.1899 -27.9826 79.9827C-29.73 76.7835 -30.7834 74.7835 -30.4116 72.0471C-30.0274 69.2462 -28.1932 66.0108 -25.0288 64.5823C-23.2566 63.7814 -21.6537 63.8177 -20.1666 63.8499C-18.3076 63.8901 -15.3828 63.9585 -13.1024 65.9947C-10.8427 68.0108 -10.5535 70.7633 -10.4957 71.3348C-10.4048 72.208 -10.7105 73.874 -11.3219 77.206C-11.8011 79.8217 -12.0077 80.5541 -11.8011 81.8378C-11.6607 82.7151 -11.3384 84.7111 -9.80581 85.4555C-9.07048 85.8137 -8.32689 85.7453 -6.83557 85.6084C-5.19553 85.4716 -4.28256 85.1497 -3.65463 85.029Z" fill="white" stroke="white" stroke-width="0.544587" stroke-miterlimit="10"/>
<path d="M-14.3866 234.775C-11.2346 232.538 -10.5282 231.806 -8.58246 230.948C-6.80197 230.164 -5.07104 229.403 -2.78655 229.592C-0.146795 229.81 2.96804 231.27 4.70309 234.224C6.83886 237.85 5.54996 241.431 5.29797 242.083C5.00879 242.832 3.93884 245.488 0.976854 246.884C0.815742 246.961 -2.44368 248.433 -6.00054 247.122C-6.6202 246.892 -7.18202 246.602 -12.1889 242.413C-14.8328 240.204 -15.8903 239.266 -16.4109 239.576C-16.9809 239.914 -16.5596 241.548 -16.258 242.345C-15.4731 244.445 -13.8909 244.377 -12.6227 246.232C-10.9413 248.691 -11.5775 251.669 -11.6932 252.22C-11.8378 252.896 -12.2839 254.852 -14.0355 256.417C-15.3285 257.572 -16.7 257.951 -17.6708 258.22C-18.6623 258.494 -20.1825 258.896 -22.1117 258.526C-24.6689 258.035 -26.2676 256.506 -26.7055 256.063C-29.0106 253.721 -29.1428 250.884 -29.1676 250.079C-29.2461 247.617 -28.2753 245.83 -27.8457 245.061C-27.0319 243.608 -26.0569 242.655 -19.8892 238.458C-15.816 235.681 -16.5059 236.276 -14.3866 234.775Z" fill="white" stroke="white" stroke-width="0.544587" stroke-miterlimit="10"/>
<path d="M9.08957 155.633C15.6695 155.633 21.0036 150.257 21.0036 143.625C21.0036 136.993 15.6695 131.617 9.08957 131.617C2.50963 131.617 -2.82446 136.993 -2.82446 143.625C-2.82446 150.257 2.50963 155.633 9.08957 155.633Z" fill="white" stroke="white" stroke-width="0.544587" stroke-miterlimit="10"/>
<path d="M14.6285 250.711C14.9514 248.136 13.1461 245.803 10.5961 245.5C8.04608 245.196 5.71708 247.037 5.39411 249.611C5.07114 252.186 6.87651 254.519 9.4265 254.822C11.9765 255.126 14.3055 253.285 14.6285 250.711Z" fill="#3E6CDA"/>
<path d="M2.84806 197.037C6.06045 197.037 8.66461 194.407 8.66461 191.162C8.66461 187.917 6.06045 185.287 2.84806 185.287C-0.364342 185.287 -2.96851 187.917 -2.96851 191.162C-2.96851 194.407 -0.364342 197.037 2.84806 197.037Z" fill="#3E6CDA"/>
<path d="M7.38809 149.475C10.6005 149.475 13.2046 146.845 13.2046 143.6C13.2046 140.355 10.6005 137.725 7.38809 137.725C4.1757 137.725 1.57153 140.355 1.57153 143.6C1.57153 146.845 4.1757 149.475 7.38809 149.475Z" fill="#3E6CDA"/>
<path d="M39.445 155.206C42.6574 155.206 45.2615 152.575 45.2615 149.331C45.2615 146.086 42.6574 143.455 39.445 143.455C36.2326 143.455 33.6284 146.086 33.6284 149.331C33.6284 152.575 36.2326 155.206 39.445 155.206Z" fill="#3E6CDA"/>
<path d="M42.5641 144.607C45.7765 144.607 48.3807 141.976 48.3807 138.731C48.3807 135.487 45.7765 132.856 42.5641 132.856C39.3517 132.856 36.7476 135.487 36.7476 138.731C36.7476 141.976 39.3517 144.607 42.5641 144.607Z" fill="#3E6CDA"/>
<path d="M32.6374 136.586C35.8498 136.586 38.4539 133.956 38.4539 130.711C38.4539 127.466 35.8498 124.836 32.6374 124.836C29.425 124.836 26.8208 127.466 26.8208 130.711C26.8208 133.956 29.425 136.586 32.6374 136.586Z" fill="#3E6CDA"/>
<path d="M49.6571 184.144C52.8695 184.144 55.4737 181.513 55.4737 178.268C55.4737 175.024 52.8695 172.393 49.6571 172.393C46.4447 172.393 43.8406 175.024 43.8406 178.268C43.8406 181.513 46.4447 184.144 49.6571 184.144Z" fill="#3E6CDA"/>
<path d="M34.9049 177.267C38.1173 177.267 40.7215 174.636 40.7215 171.391C40.7215 168.146 38.1173 165.516 34.9049 165.516C31.6925 165.516 29.0884 168.146 29.0884 171.391C29.0884 174.636 31.6925 177.267 34.9049 177.267Z" fill="#3E6CDA"/>
<path d="M26.9611 173.83C30.1735 173.83 32.7777 171.2 32.7777 167.955C32.7777 164.71 30.1735 162.08 26.9611 162.08C23.7487 162.08 21.1445 164.71 21.1445 167.955C21.1445 171.2 23.7487 173.83 26.9611 173.83Z" fill="#3E6CDA"/>
<path d="M15.3278 179.56C18.5402 179.56 21.1443 176.93 21.1443 173.685C21.1443 170.44 18.5402 167.809 15.3278 167.809C12.1154 167.809 9.51123 170.44 9.51123 173.685C9.51123 176.93 12.1154 179.56 15.3278 179.56Z" fill="#3E6CDA"/>
<path d="M25.1598 110.795C28.3722 110.795 30.9764 108.165 30.9764 104.92C30.9764 101.675 28.3722 99.0448 25.1598 99.0448C21.9474 99.0448 19.3433 101.675 19.3433 104.92C19.3433 108.165 21.9474 110.795 25.1598 110.795Z" fill="#3E6CDA"/>
<path d="M12.9154 108.216C16.1278 108.216 18.732 105.585 18.732 102.341C18.732 99.0959 16.1278 96.4654 12.9154 96.4654C9.70304 96.4654 7.09888 99.0959 7.09888 102.341C7.09888 105.585 9.70304 108.216 12.9154 108.216Z" fill="#3E6CDA"/>
<path d="M37.1278 246.056C37.1764 243.332 34.8656 241.084 31.9663 241.035C29.0671 240.986 26.6773 243.154 26.6287 245.878C26.58 248.603 28.8908 250.851 31.7901 250.9C34.6893 250.949 37.0791 248.781 37.1278 246.056Z" fill="#3E6CDA"/>
<path d="M36.9046 240.52C38.389 238.094 37.6445 234.996 35.2418 233.601C32.839 232.206 29.6878 233.043 28.2034 235.469C26.719 237.896 27.4634 240.993 29.8662 242.388C32.269 243.783 35.4202 242.947 36.9046 240.52Z" fill="#3E6CDA"/>
<path d="M14.1324 260.117C14.4553 257.542 12.65 255.209 10.1 254.906C7.54998 254.602 5.22098 256.443 4.89802 259.018C4.57505 261.592 6.38041 263.925 8.93041 264.229C11.4804 264.532 13.8094 262.691 14.1324 260.117Z" fill="#3E6CDA"/>
<path d="M26.3952 224.828C29.6076 224.828 32.2117 222.197 32.2117 218.952C32.2117 215.708 29.6076 213.077 26.3952 213.077C23.1828 213.077 20.5786 215.708 20.5786 218.952C20.5786 222.197 23.1828 224.828 26.3952 224.828Z" fill="#3E6CDA"/>
<path d="M13.0597 229.125C16.2721 229.125 18.8763 226.495 18.8763 223.25C18.8763 220.005 16.2721 217.375 13.0597 217.375C9.84732 217.375 7.24316 220.005 7.24316 223.25C7.24316 226.495 9.84732 229.125 13.0597 229.125Z" fill="#3E6CDA"/>
<path d="M-3.11313 208.783C0.0992689 208.783 2.70343 206.153 2.70343 202.908C2.70343 199.663 0.0992689 197.033 -3.11313 197.033C-6.32552 197.033 -8.92969 199.663 -8.92969 202.908C-8.92969 206.153 -6.32552 208.783 -3.11313 208.783Z" fill="#3E6CDA"/>
<path d="M32.6374 211.363C35.8498 211.363 38.4539 208.732 38.4539 205.488C38.4539 202.243 35.8498 199.612 32.6374 199.612C29.425 199.612 26.8208 202.243 26.8208 205.488C26.8208 208.732 29.425 211.363 32.6374 211.363Z" fill="#3E6CDA"/>
<path d="M-0.852473 98.7077C1.82629 97.3046 2.87139 94.1265 1.48182 91.609C0.0922559 89.0916 -3.20578 88.1883 -5.88454 89.5913C-8.5633 90.9944 -9.6084 94.1726 -8.21883 96.69C-6.82927 99.2074 -3.53123 100.111 -0.852473 98.7077Z" fill="#3E6CDA"/>
<path d="M-4.87713 242.163C-2.17352 242.163 0.0181923 239.951 0.0181923 237.222C0.0181923 234.493 -2.17352 232.28 -4.87713 232.28C-7.58075 232.28 -9.77246 234.493 -9.77246 237.222C-9.77246 239.951 -7.58075 242.163 -4.87713 242.163Z" fill="#3E6CDA"/>
<g style="mix-blend-mode:multiply">
<path d="M19.7231 104.779C22.9354 104.779 25.5396 102.149 25.5396 98.9038C25.5396 95.659 22.9354 93.0286 19.7231 93.0286C16.5107 93.0286 13.9065 95.659 13.9065 98.9038C13.9065 102.149 16.5107 104.779 19.7231 104.779Z" fill="#CB2E24"/>
</g>
<g style="mix-blend-mode:multiply">
<path d="M13.0597 151.484C16.2721 151.484 18.8763 148.853 18.8763 145.609C18.8763 142.364 16.2721 139.733 13.0597 139.733C9.84732 139.733 7.24316 142.364 7.24316 145.609C7.24316 148.853 9.84732 151.484 13.0597 151.484Z" fill="#CB2E24"/>
</g>
<g style="mix-blend-mode:multiply">
<path d="M15.807 172.743C19.0194 172.743 21.6236 170.113 21.6236 166.868C21.6236 163.623 19.0194 160.993 15.807 160.993C12.5946 160.993 9.99048 163.623 9.99048 166.868C9.99048 170.113 12.5946 172.743 15.807 172.743Z" fill="#CB2E24"/>
</g>
<g style="mix-blend-mode:multiply">
<path d="M-2.45599 102.985C0.222776 101.582 1.26788 98.4042 -0.12169 95.8868C-1.51126 93.3694 -4.80929 92.466 -7.48805 93.8691C-10.1668 95.2722 -11.2119 98.4503 -9.82235 100.968C-8.43278 103.485 -5.13475 104.389 -2.45599 102.985Z" fill="#CB2E24"/>
</g>
<g style="mix-blend-mode:multiply">
<path d="M0.295076 202.767C3.50747 202.767 6.11163 200.137 6.11163 196.892C6.11163 193.647 3.50747 191.017 0.295076 191.017C-2.91732 191.017 -5.52148 193.647 -5.52148 196.892C-5.52148 200.137 -2.91732 202.767 0.295076 202.767Z" fill="#CB2E24"/>
</g>
<g style="mix-blend-mode:multiply">
<path d="M43.6999 175.548C46.9123 175.548 49.5164 172.918 49.5164 169.673C49.5164 166.428 46.9123 163.798 43.6999 163.798C40.4875 163.798 37.8833 166.428 37.8833 169.673C37.8833 172.918 40.4875 175.548 43.6999 175.548Z" fill="#CB2E24"/>
</g>
<g style="mix-blend-mode:multiply">
<path d="M18.736 230.558C21.9484 230.558 24.5526 227.928 24.5526 224.683C24.5526 221.438 21.9484 218.808 18.736 218.808C15.5236 218.808 12.9194 221.438 12.9194 224.683C12.9194 227.928 15.5236 230.558 18.736 230.558Z" fill="#CB2E24"/>
</g>
<g style="mix-blend-mode:multiply">
<path d="M26.6803 217.094C29.8927 217.094 32.4969 214.463 32.4969 211.218C32.4969 207.973 29.8927 205.343 26.6803 205.343C23.4679 205.343 20.8638 207.973 20.8638 211.218C20.8638 214.463 23.4679 217.094 26.6803 217.094Z" fill="#CB2E24"/>
</g>
<g style="mix-blend-mode:multiply">
<path d="M39.445 137.444C42.6574 137.444 45.2615 134.813 45.2615 131.568C45.2615 128.323 42.6574 125.693 39.445 125.693C36.2326 125.693 33.6284 128.323 33.6284 131.568C33.6284 134.813 36.2326 137.444 39.445 137.444Z" fill="#CB2E24"/>
</g>
<g style="mix-blend-mode:multiply">
<path d="M45.4023 152.631C48.6146 152.631 51.2188 150 51.2188 146.755C51.2188 143.51 48.6146 140.88 45.4023 140.88C42.1899 140.88 39.5857 143.51 39.5857 146.755C39.5857 150 42.1899 152.631 45.4023 152.631Z" fill="#CB2E24"/>
</g>
<g style="mix-blend-mode:multiply">
<path d="M29.2331 181.564C32.4455 181.564 35.0496 178.934 35.0496 175.689C35.0496 172.444 32.4455 169.814 29.2331 169.814C26.0207 169.814 23.4165 172.444 23.4165 175.689C23.4165 178.934 26.0207 181.564 29.2331 181.564Z" fill="#CB2E24"/>
</g>
<g style="mix-blend-mode:multiply">
<path d="M32.5618 245.263C34.0462 242.836 33.3018 239.739 30.899 238.344C28.4962 236.949 25.3451 237.785 23.8606 240.212C22.3762 242.638 23.1207 245.736 25.5234 247.131C27.9262 248.526 31.0774 247.689 32.5618 245.263Z" fill="#CB2E24"/>
</g>
<g style="mix-blend-mode:multiply">
<path d="M19.0628 257.242C19.3857 254.667 17.5804 252.334 15.0304 252.031C12.4804 251.727 10.1514 253.568 9.82844 256.143C9.50547 258.717 11.3108 261.05 13.8608 261.354C16.4108 261.657 18.7398 259.816 19.0628 257.242Z" fill="#CB2E24"/>
</g>
<path d="M11.6391 107.931C12.8916 107.931 13.907 106.904 13.907 105.637C13.907 104.37 12.8916 103.343 11.6391 103.343C10.3865 103.343 9.37109 104.37 9.37109 105.637C9.37109 106.904 10.3865 107.931 11.6391 107.931Z" fill="#0F0400"/>
<path d="M4.40566 191.878C5.65822 191.878 6.67362 190.851 6.67362 189.584C6.67362 188.318 5.65822 187.291 4.40566 187.291C3.1531 187.291 2.1377 188.318 2.1377 189.584C2.1377 190.851 3.1531 191.878 4.40566 191.878Z" fill="#0F0400"/>
<path d="M47.5294 181.278C48.782 181.278 49.7974 180.252 49.7974 178.985C49.7974 177.718 48.782 176.691 47.5294 176.691C46.2769 176.691 45.2615 177.718 45.2615 178.985C45.2615 180.252 46.2769 181.278 47.5294 181.278Z" fill="#0F0400"/>
<path d="M28.8073 167.814C30.0598 167.814 31.0752 166.787 31.0752 165.52C31.0752 164.253 30.0598 163.226 28.8073 163.226C27.5547 163.226 26.5393 164.253 26.5393 165.52C26.5393 166.787 27.5547 167.814 28.8073 167.814Z" fill="#0F0400"/>
<path d="M31.0758 134.578C32.3284 134.578 33.3438 133.551 33.3438 132.284C33.3438 131.018 32.3284 129.991 31.0758 129.991C29.8233 129.991 28.8079 131.018 28.8079 132.284C28.8079 133.551 29.8233 134.578 31.0758 134.578Z" fill="#0F0400"/>
<path d="M10.9325 226.832C12.1851 226.832 13.2005 225.805 13.2005 224.538C13.2005 223.271 12.1851 222.244 10.9325 222.244C9.67995 222.244 8.66455 223.271 8.66455 224.538C8.66455 225.805 9.67995 226.832 10.9325 226.832Z" fill="#0F0400"/>
<path d="M6.10707 143.174C7.35964 143.174 8.37504 142.147 8.37504 140.88C8.37504 139.613 7.35964 138.586 6.10707 138.586C4.85451 138.586 3.83911 139.613 3.83911 140.88C3.83911 142.147 4.85451 143.174 6.10707 143.174Z" fill="#0F0400"/>
<path d="M33.6283 207.351C34.8809 207.351 35.8963 206.324 35.8963 205.057C35.8963 203.79 34.8809 202.763 33.6283 202.763C32.3758 202.763 31.3604 203.79 31.3604 205.057C31.3604 206.324 32.3758 207.351 33.6283 207.351Z" fill="#0F0400"/>
<path d="M10.4174 249.632C10.5436 248.626 9.83991 247.715 8.84573 247.596C7.85155 247.478 6.94332 248.197 6.81712 249.203C6.69093 250.209 7.39455 251.121 8.38873 251.239C9.38291 251.357 10.2912 250.638 10.4174 249.632Z" fill="#0F0400"/>
<path d="M35.1504 235.87C35.7296 234.924 35.4382 233.714 34.4995 233.169C33.5607 232.624 32.3301 232.95 31.7508 233.897C31.1715 234.844 31.4629 236.053 32.4017 236.598C33.3405 237.143 34.5711 236.817 35.1504 235.87Z" fill="#0F0400"/>
<path d="M16.8893 176.124C18.1419 176.124 19.1573 175.097 19.1573 173.83C19.1573 172.563 18.1419 171.536 16.8893 171.536C15.6367 171.536 14.6213 172.563 14.6213 173.83C14.6213 175.097 15.6367 176.124 16.8893 176.124Z" fill="#0F0400"/>
<path d="M97.512 215.072C98.152 217.184 99.416 218.16 101.624 218.16C103.496 218.16 105.144 217.072 105.144 215.104C105.144 213.44 104.488 212.64 101.24 211.424C99.112 210.624 98.888 210.064 98.888 209.28C98.888 207.92 99.816 207.152 101.16 207.152C102.632 207.152 103.528 208.048 103.944 209.328L104.856 209.056C104.328 207.28 102.984 206.288 101.16 206.288C99.016 206.288 97.832 207.568 97.832 209.28C97.832 213.104 104.088 211.888 104.088 214.992C104.088 216.384 103.224 217.296 101.784 217.296C99.96 217.296 98.936 216.528 98.488 214.768L97.512 215.072ZM113.219 213.872C113.219 211.296 112.147 209.52 109.891 209.52C107.779 209.52 106.467 211.264 106.467 213.84C106.467 216.768 107.843 218.16 110.019 218.16C111.603 218.16 112.419 217.6 113.315 216.128L112.531 215.712C111.699 217.024 111.171 217.392 110.099 217.392C108.211 217.392 107.427 215.76 107.427 213.872H113.219ZM107.427 213.104C107.443 212 108.163 210.272 109.859 210.288C111.315 210.304 112.067 211.392 112.259 213.104H107.427ZM121.091 211.776C120.595 210.4 119.619 209.52 118.051 209.52C115.907 209.52 114.467 210.976 114.467 213.84C114.467 216.352 115.715 218.16 118.051 218.16C119.635 218.16 120.611 217.216 121.315 216.032L120.547 215.664C119.875 216.736 119.235 217.392 118.051 217.392C116.387 217.392 115.427 215.968 115.427 213.84C115.427 211.264 116.483 210.288 118.051 210.288C119.155 210.288 119.779 211.056 120.211 212.016L121.091 211.776ZM128.515 209.68V215.808C127.459 216.768 126.883 217.392 125.859 217.392C124.579 217.392 124.163 216.64 124.163 215.264V209.68H123.203V215.36C123.203 217.168 123.939 218.16 125.667 218.16C126.883 218.16 127.619 217.616 128.515 216.688V218H129.475V209.68H128.515ZM132.989 218V213.296C132.989 211.696 134.365 210.448 135.421 210.448H135.853V209.52H135.421C134.365 209.52 133.469 210.24 133.021 211.264H132.989V209.68H132.029V218H132.989ZM143.437 213.872C143.437 211.296 142.365 209.52 140.109 209.52C137.997 209.52 136.685 211.264 136.685 213.84C136.685 216.768 138.061 218.16 140.237 218.16C141.821 218.16 142.637 217.6 143.533 216.128L142.749 215.712C141.917 217.024 141.389 217.392 140.317 217.392C138.429 217.392 137.645 215.76 137.645 213.872H143.437ZM137.645 213.104C137.661 212 138.381 210.272 140.077 210.288C141.533 210.304 142.285 211.392 142.477 213.104H137.645ZM149.811 209.68H148.755L151.651 217.872C151.187 219.584 150.451 220.176 149.779 220.176C149.411 220.176 149.107 220.096 148.819 220.064V220.848C149.043 220.912 149.299 220.944 149.715 220.944C151.219 220.944 151.811 220.224 152.371 218.592L155.475 209.68H154.451L152.131 216.448H152.099L149.811 209.68ZM159.672 210.288C161.384 210.288 162.136 211.584 162.136 213.84C162.136 216.096 161.384 217.392 159.672 217.392C157.96 217.392 157.208 216.096 157.208 213.84C157.208 211.584 157.96 210.288 159.672 210.288ZM159.672 209.52C157.08 209.52 156.248 211.584 156.248 213.84C156.248 216.096 157.08 218.16 159.672 218.16C162.264 218.16 163.096 216.096 163.096 213.84C163.096 211.584 162.264 209.52 159.672 209.52ZM170.296 209.68V215.808C169.24 216.768 168.664 217.392 167.64 217.392C166.36 217.392 165.944 216.64 165.944 215.264V209.68H164.984V215.36C164.984 217.168 165.72 218.16 167.448 218.16C168.664 218.16 169.4 217.616 170.296 216.688V218H171.256V209.68H170.296ZM174.771 218V213.296C174.771 211.696 176.147 210.448 177.203 210.448H177.635V209.52H177.203C176.147 209.52 175.251 210.24 174.803 211.264H174.771V209.68H173.811V218H174.771ZM182.744 216.48C183.528 217.648 184.68 218.16 185.96 218.16C187.464 218.16 188.84 217.296 188.84 215.808C188.84 212.576 183.944 213.776 183.944 211.744C183.944 210.736 184.664 210.288 185.592 210.288C186.584 210.288 187.192 210.768 187.752 211.536L188.488 211.024C187.896 210.064 187.016 209.52 185.624 209.52C184.216 209.52 182.984 210.224 182.984 211.792C182.984 214.752 187.88 213.392 187.88 215.808C187.88 216.704 187.08 217.392 186.024 217.392C184.936 217.392 184.232 217.104 183.448 215.984L182.744 216.48ZM196.781 213.872C196.781 211.296 195.709 209.52 193.453 209.52C191.341 209.52 190.029 211.264 190.029 213.84C190.029 216.768 191.405 218.16 193.581 218.16C195.165 218.16 195.981 217.6 196.877 216.128L196.093 215.712C195.261 217.024 194.733 217.392 193.661 217.392C191.773 217.392 190.989 215.76 190.989 213.872H196.781ZM190.989 213.104C191.005 212 191.725 210.272 193.421 210.288C194.877 210.304 195.629 211.392 195.821 213.104H190.989ZM204.237 218C204.141 217.44 204.109 216.896 204.109 216.48V212.128C204.109 210.288 203.213 209.52 201.325 209.52C199.981 209.52 198.957 210.064 198.237 211.408L198.877 211.792C199.485 210.832 200.301 210.288 201.293 210.288C202.717 210.288 203.197 210.848 203.197 211.952V212.528C199.725 213.296 197.869 213.712 197.869 215.984C197.869 217.36 198.861 218.16 200.157 218.16C201.437 218.16 202.189 217.776 203.181 216.992L203.309 218H204.237ZM203.149 216.016C202.317 216.864 201.213 217.392 200.317 217.392C199.453 217.392 198.829 216.88 198.829 215.968C198.829 214.912 199.341 214.128 203.149 213.296V216.016ZM205.613 209.68V210.448H206.861V216.704C206.861 217.712 207.309 218.16 208.669 218.16C208.989 218.16 209.325 218.064 209.645 218.016V217.216C209.341 217.312 208.989 217.392 208.669 217.392C208.077 217.392 207.821 217.104 207.821 216.544V210.448H209.645V209.68H207.821V206.96H206.861V209.68H205.613ZM211.442 216.56V218H212.114L211.186 220.4H211.81L212.818 218V216.56H211.442ZM220.285 220.944H221.245V216.912C222.061 217.776 222.733 218.16 223.853 218.16C225.789 218.16 227.133 216.784 227.133 213.888C227.133 211.6 225.949 209.52 223.789 209.52C222.717 209.52 221.933 210 221.277 210.96H221.245V209.68H220.285V220.944ZM221.245 211.808C222.061 210.944 222.685 210.288 223.741 210.288C225.405 210.288 226.173 211.984 226.173 213.712C226.173 216.016 225.325 217.392 223.597 217.392C222.653 217.392 221.565 216.464 221.245 215.904V211.808ZM228.999 218H229.959V206.448H228.999V218ZM237.874 209.68V215.808C236.818 216.768 236.242 217.392 235.218 217.392C233.938 217.392 233.522 216.64 233.522 215.264V209.68H232.562V215.36C232.562 217.168 233.298 218.16 235.026 218.16C236.242 218.16 236.978 217.616 237.874 216.688V218H238.834V209.68H237.874ZM247.837 209.36C247.181 209.36 246.573 209.616 246.093 210.096C245.565 209.744 244.957 209.52 244.157 209.52C242.141 209.52 240.861 210.688 240.861 212.512C240.861 213.376 241.309 214.176 242.061 214.688C241.453 214.816 240.813 215.392 240.813 216.096C240.813 216.8 241.309 217.056 241.917 217.184V217.216C240.749 217.648 240.461 218.256 240.461 218.976C240.461 219.968 241.229 220.944 244.093 220.944C246.957 220.944 247.885 219.904 247.885 218.688C247.885 217.328 246.845 216.528 244.349 216.528C242.093 216.528 241.773 216.288 241.773 215.808C241.773 215.504 242.013 215.2 242.541 215.008C242.957 215.152 243.357 215.264 243.885 215.264C245.645 215.264 247.101 214.4 247.101 212.352C247.101 211.552 246.877 211.056 246.509 210.608C246.845 210.272 247.405 210.224 247.837 210.224V209.36ZM243.885 217.392C246.381 217.392 246.925 218.064 246.925 218.752C246.925 219.616 246.029 220.176 243.949 220.176C242.221 220.176 241.421 219.616 241.421 218.8C241.421 218.08 241.997 217.392 243.885 217.392ZM241.821 212.416C241.821 211.12 242.637 210.288 243.981 210.288C245.325 210.288 246.141 210.96 246.141 212.416C246.141 213.856 245.325 214.496 243.981 214.496C242.813 214.496 241.821 213.856 241.821 212.416ZM252.797 214.272V213.408H248.813V214.272H252.797ZM255.725 209.68H254.765V218H255.725V209.68ZM255.725 207.856V206.448H254.765V207.856H255.725ZM259.288 218V211.872C260.344 210.912 260.92 210.288 261.944 210.288C263.224 210.288 263.64 211.04 263.64 212.416V218H264.6V212.32C264.6 210.512 263.864 209.52 262.136 209.52C260.92 209.52 260.184 210.064 259.288 210.992V209.68H258.328V218H259.288ZM271.607 209.68H270.551L273.447 217.872C272.983 219.584 272.247 220.176 271.575 220.176C271.207 220.176 270.903 220.096 270.615 220.064V220.848C270.839 220.912 271.095 220.944 271.511 220.944C273.015 220.944 273.607 220.224 274.167 218.592L277.271 209.68H276.247L273.927 216.448H273.895L271.607 209.68ZM281.469 210.288C283.181 210.288 283.933 211.584 283.933 213.84C283.933 216.096 283.181 217.392 281.469 217.392C279.757 217.392 279.005 216.096 279.005 213.84C279.005 211.584 279.757 210.288 281.469 210.288ZM281.469 209.52C278.877 209.52 278.045 211.584 278.045 213.84C278.045 216.096 278.877 218.16 281.469 218.16C284.061 218.16 284.893 216.096 284.893 213.84C284.893 211.584 284.061 209.52 281.469 209.52ZM292.093 209.68V215.808C291.037 216.768 290.461 217.392 289.437 217.392C288.157 217.392 287.741 216.64 287.741 215.264V209.68H286.781V215.36C286.781 217.168 287.517 218.16 289.245 218.16C290.461 218.16 291.197 217.616 292.093 216.688V218H293.053V209.68H292.093ZM296.567 218V213.296C296.567 211.696 297.943 210.448 298.999 210.448H299.431V209.52H298.999C297.943 209.52 297.047 210.24 296.599 211.264H296.567V209.68H295.607V218H296.567ZM99.272 237V230.872C100.328 229.912 100.904 229.288 101.928 229.288C103.208 229.288 103.624 230.04 103.624 231.416V237H104.584V231.32C104.584 229.512 103.848 228.52 102.12 228.52C100.904 228.52 100.168 229.064 99.272 229.992V225.448H98.312V237H99.272ZM113.219 232.872C113.219 230.296 112.147 228.52 109.891 228.52C107.779 228.52 106.467 230.264 106.467 232.84C106.467 235.768 107.843 237.16 110.019 237.16C111.603 237.16 112.419 236.6 113.315 235.128L112.531 234.712C111.699 236.024 111.171 236.392 110.099 236.392C108.211 236.392 107.427 234.76 107.427 232.872H113.219ZM107.427 232.104C107.443 231 108.163 229.272 109.859 229.288C111.315 229.304 112.067 230.392 112.259 232.104H107.427ZM120.675 237C120.579 236.44 120.547 235.896 120.547 235.48V231.128C120.547 229.288 119.651 228.52 117.763 228.52C116.419 228.52 115.395 229.064 114.675 230.408L115.315 230.792C115.923 229.832 116.739 229.288 117.731 229.288C119.155 229.288 119.635 229.848 119.635 230.952V231.528C116.163 232.296 114.307 232.712 114.307 234.984C114.307 236.36 115.299 237.16 116.595 237.16C117.875 237.16 118.627 236.776 119.619 235.992L119.747 237H120.675ZM119.587 235.016C118.755 235.864 117.651 236.392 116.755 236.392C115.891 236.392 115.267 235.88 115.267 234.968C115.267 233.912 115.779 233.128 119.587 232.296V235.016ZM129.315 225.448H128.355V229.768C127.539 228.904 126.867 228.52 125.747 228.52C123.811 228.52 122.467 230.344 122.467 232.792C122.467 235.624 123.651 237.16 125.811 237.16C126.947 237.16 127.875 236.776 128.483 235.912L128.643 237H129.315V225.448ZM128.355 234.872C127.731 235.736 127.043 236.392 125.859 236.392C124.195 236.392 123.427 234.888 123.427 232.968C123.427 230.808 124.275 229.288 126.003 229.288C126.947 229.288 128.035 230.216 128.355 230.776V234.872ZM132.253 239.944H133.213V235.912C134.029 236.776 134.701 237.16 135.821 237.16C137.757 237.16 139.101 235.784 139.101 232.888C139.101 230.6 137.917 228.52 135.757 228.52C134.685 228.52 133.901 229 133.245 229.96H133.213V228.68H132.253V239.944ZM133.213 230.808C134.029 229.944 134.653 229.288 135.709 229.288C137.373 229.288 138.141 230.984 138.141 232.712C138.141 235.016 137.293 236.392 135.565 236.392C134.621 236.392 133.533 235.464 133.213 234.904V230.808ZM141.944 237V230.872C143 229.912 143.576 229.288 144.6 229.288C145.88 229.288 146.296 230.04 146.296 231.416V237H147.256V231.32C147.256 229.512 146.52 228.52 144.792 228.52C143.576 228.52 142.84 229.064 141.944 229.992V225.448H140.984V237H141.944ZM152.562 229.288C154.275 229.288 155.027 230.584 155.027 232.84C155.027 235.096 154.275 236.392 152.562 236.392C150.851 236.392 150.099 235.096 150.099 232.84C150.099 230.584 150.851 229.288 152.562 229.288ZM152.562 228.52C149.971 228.52 149.139 230.584 149.139 232.84C149.139 235.096 149.971 237.16 152.562 237.16C155.155 237.16 155.987 235.096 155.987 232.84C155.987 230.584 155.155 228.52 152.562 228.52ZM158.835 237V230.872C159.891 229.912 160.467 229.288 161.491 229.288C162.771 229.288 163.187 230.04 163.187 231.416V237H164.147V231.32C164.147 229.512 163.411 228.52 161.683 228.52C160.467 228.52 159.731 229.064 158.835 229.992V228.68H157.875V237H158.835ZM172.781 232.872C172.781 230.296 171.709 228.52 169.453 228.52C167.341 228.52 166.029 230.264 166.029 232.84C166.029 235.768 167.405 237.16 169.581 237.16C171.165 237.16 171.981 236.6 172.877 235.128L172.093 234.712C171.261 236.024 170.733 236.392 169.661 236.392C167.773 236.392 166.989 234.76 166.989 232.872H172.781ZM166.989 232.104C167.005 231 167.725 229.272 169.421 229.288C170.877 229.304 171.629 230.392 171.821 232.104H166.989ZM173.853 235.48C174.637 236.648 175.789 237.16 177.069 237.16C178.573 237.16 179.949 236.296 179.949 234.808C179.949 231.576 175.053 232.776 175.053 230.744C175.053 229.736 175.773 229.288 176.701 229.288C177.693 229.288 178.301 229.768 178.861 230.536L179.597 230.024C179.005 229.064 178.125 228.52 176.733 228.52C175.325 228.52 174.093 229.224 174.093 230.792C174.093 233.752 178.989 232.392 178.989 234.808C178.989 235.704 178.189 236.392 177.133 236.392C176.045 236.392 175.341 236.104 174.557 234.984L173.853 235.48ZM182.099 235.56V237H182.771L181.843 239.4H182.467L183.475 237V235.56H182.099ZM196.253 237C196.157 236.44 196.125 235.896 196.125 235.48V231.128C196.125 229.288 195.229 228.52 193.341 228.52C191.997 228.52 190.973 229.064 190.253 230.408L190.893 230.792C191.501 229.832 192.317 229.288 193.309 229.288C194.733 229.288 195.213 229.848 195.213 230.952V231.528C191.741 232.296 189.885 232.712 189.885 234.984C189.885 236.36 190.877 237.16 192.173 237.16C193.453 237.16 194.205 236.776 195.197 235.992L195.325 237H196.253ZM195.165 235.016C194.333 235.864 193.229 236.392 192.333 236.392C191.469 236.392 190.845 235.88 190.845 234.968C190.845 233.912 191.357 233.128 195.165 232.296V235.016ZM199.741 237V230.872C200.797 229.912 201.373 229.288 202.397 229.288C203.677 229.288 204.093 230.04 204.093 231.416V237H205.053V231.32C205.053 229.512 204.317 228.52 202.589 228.52C201.373 228.52 200.637 229.064 199.741 229.992V228.68H198.781V237H199.741ZM213.783 225.448H212.823V229.768C212.007 228.904 211.335 228.52 210.215 228.52C208.279 228.52 206.935 230.344 206.935 232.792C206.935 235.624 208.119 237.16 210.279 237.16C211.415 237.16 212.343 236.776 212.951 235.912L213.111 237H213.783V225.448ZM212.823 234.872C212.199 235.736 211.511 236.392 210.327 236.392C208.663 236.392 207.895 234.888 207.895 232.968C207.895 230.808 208.743 229.288 210.471 229.288C211.415 229.288 212.503 230.216 212.823 230.776V234.872ZM227.399 228.36C226.743 228.36 226.135 228.616 225.655 229.096C225.127 228.744 224.519 228.52 223.719 228.52C221.703 228.52 220.423 229.688 220.423 231.512C220.423 232.376 220.871 233.176 221.623 233.688C221.015 233.816 220.375 234.392 220.375 235.096C220.375 235.8 220.871 236.056 221.479 236.184V236.216C220.311 236.648 220.023 237.256 220.023 237.976C220.023 238.968 220.791 239.944 223.655 239.944C226.519 239.944 227.447 238.904 227.447 237.688C227.447 236.328 226.407 235.528 223.911 235.528C221.655 235.528 221.335 235.288 221.335 234.808C221.335 234.504 221.575 234.2 222.103 234.008C222.519 234.152 222.919 234.264 223.447 234.264C225.207 234.264 226.663 233.4 226.663 231.352C226.663 230.552 226.439 230.056 226.071 229.608C226.407 229.272 226.967 229.224 227.399 229.224V228.36ZM223.447 236.392C225.943 236.392 226.487 237.064 226.487 237.752C226.487 238.616 225.591 239.176 223.511 239.176C221.783 239.176 220.983 238.616 220.983 237.8C220.983 237.08 221.559 236.392 223.447 236.392ZM221.383 231.416C221.383 230.12 222.199 229.288 223.543 229.288C224.887 229.288 225.703 229.96 225.703 231.416C225.703 232.856 224.887 233.496 223.543 233.496C222.375 233.496 221.383 232.856 221.383 231.416ZM235.031 232.872C235.031 230.296 233.959 228.52 231.703 228.52C229.591 228.52 228.279 230.264 228.279 232.84C228.279 235.768 229.655 237.16 231.831 237.16C233.415 237.16 234.231 236.6 235.127 235.128L234.343 234.712C233.511 236.024 232.983 236.392 231.911 236.392C230.023 236.392 229.239 234.76 229.239 232.872H235.031ZM229.239 232.104C229.255 231 229.975 229.272 231.671 229.288C233.127 229.304 233.879 230.392 234.071 232.104H229.239ZM235.863 228.68V229.448H237.111V235.704C237.111 236.712 237.559 237.16 238.919 237.16C239.239 237.16 239.575 237.064 239.895 237.016V236.216C239.591 236.312 239.239 236.392 238.919 236.392C238.327 236.392 238.071 236.104 238.071 235.544V229.448H239.895V228.68H238.071V225.96H237.111V228.68H235.863ZM246.817 237V232.296C246.817 230.696 248.193 229.448 249.249 229.448H249.681V228.52H249.249C248.193 228.52 247.297 229.24 246.849 230.264H246.817V228.68H245.857V237H246.817ZM257.266 232.872C257.266 230.296 256.194 228.52 253.938 228.52C251.826 228.52 250.514 230.264 250.514 232.84C250.514 235.768 251.89 237.16 254.066 237.16C255.65 237.16 256.466 236.6 257.362 235.128L256.578 234.712C255.746 236.024 255.218 236.392 254.146 236.392C252.258 236.392 251.474 234.76 251.474 232.872H257.266ZM251.474 232.104C251.49 231 252.21 229.272 253.906 229.288C255.362 229.304 256.114 230.392 256.306 232.104H251.474ZM264.722 237C264.626 236.44 264.594 235.896 264.594 235.48V231.128C264.594 229.288 263.698 228.52 261.81 228.52C260.466 228.52 259.442 229.064 258.722 230.408L259.362 230.792C259.97 229.832 260.786 229.288 261.778 229.288C263.202 229.288 263.682 229.848 263.682 230.952V231.528C260.21 232.296 258.354 232.712 258.354 234.984C258.354 236.36 259.346 237.16 260.642 237.16C261.922 237.16 262.674 236.776 263.666 235.992L263.794 237H264.722ZM263.634 235.016C262.802 235.864 261.698 236.392 260.802 236.392C259.938 236.392 259.314 235.88 259.314 234.968C259.314 233.912 259.826 233.128 263.634 232.296V235.016ZM273.362 225.448H272.402V229.768C271.586 228.904 270.914 228.52 269.794 228.52C267.858 228.52 266.514 230.344 266.514 232.792C266.514 235.624 267.698 237.16 269.858 237.16C270.994 237.16 271.922 236.776 272.53 235.912L272.69 237H273.362V225.448ZM272.402 234.872C271.778 235.736 271.09 236.392 269.906 236.392C268.242 236.392 267.474 234.888 267.474 232.968C267.474 230.808 268.322 229.288 270.049 229.288C270.994 229.288 272.082 230.216 272.402 230.776V234.872ZM276.076 228.68H275.02L277.916 236.872C277.452 238.584 276.716 239.176 276.044 239.176C275.676 239.176 275.372 239.096 275.084 239.064V239.848C275.308 239.912 275.564 239.944 275.98 239.944C277.484 239.944 278.076 239.224 278.636 237.592L281.74 228.68H280.716L278.396 235.448H278.364L276.076 228.68ZM286.551 228.68V229.448H287.799V235.704C287.799 236.712 288.247 237.16 289.607 237.16C289.927 237.16 290.263 237.064 290.583 237.016V236.216C290.279 236.312 289.927 236.392 289.607 236.392C289.015 236.392 288.759 236.104 288.759 235.544V229.448H290.583V228.68H288.759V225.96H287.799V228.68H286.551ZM294.844 229.288C296.556 229.288 297.308 230.584 297.308 232.84C297.308 235.096 296.556 236.392 294.844 236.392C293.132 236.392 292.38 235.096 292.38 232.84C292.38 230.584 293.132 229.288 294.844 229.288ZM294.844 228.52C292.252 228.52 291.42 230.584 291.42 232.84C291.42 235.096 292.252 237.16 294.844 237.16C297.436 237.16 298.268 235.096 298.268 232.84C298.268 230.584 297.436 228.52 294.844 228.52ZM101.192 248.448V247.68H99.496V246.384C99.496 245.424 99.88 245.056 100.632 245.056C100.984 245.056 101.272 245.12 101.576 245.216V244.416C101.224 244.352 100.888 244.288 100.536 244.288C99.112 244.288 98.536 245.056 98.536 246.496V247.68H97.16V248.448H98.536V256H99.496V248.448H101.192ZM108.237 256C108.141 255.44 108.109 254.896 108.109 254.48V250.128C108.109 248.288 107.213 247.52 105.325 247.52C103.981 247.52 102.957 248.064 102.237 249.408L102.877 249.792C103.485 248.832 104.301 248.288 105.293 248.288C106.717 248.288 107.197 248.848 107.197 249.952V250.528C103.725 251.296 101.869 251.712 101.869 253.984C101.869 255.36 102.861 256.16 104.157 256.16C105.437 256.16 106.189 255.776 107.181 254.992L107.309 256H108.237ZM107.149 254.016C106.317 254.864 105.213 255.392 104.317 255.392C103.453 255.392 102.829 254.88 102.829 253.968C102.829 252.912 103.341 252.128 107.149 251.296V254.016ZM116.653 249.776C116.157 248.4 115.181 247.52 113.613 247.52C111.469 247.52 110.029 248.976 110.029 251.84C110.029 254.352 111.277 256.16 113.613 256.16C115.197 256.16 116.173 255.216 116.877 254.032L116.109 253.664C115.437 254.736 114.797 255.392 113.613 255.392C111.949 255.392 110.989 253.968 110.989 251.84C110.989 249.264 112.045 248.288 113.613 248.288C114.717 248.288 115.341 249.056 115.773 250.016L116.653 249.776ZM124.781 251.872C124.781 249.296 123.709 247.52 121.453 247.52C119.341 247.52 118.029 249.264 118.029 251.84C118.029 254.768 119.405 256.16 121.581 256.16C123.165 256.16 123.981 255.6 124.877 254.128L124.093 253.712C123.261 255.024 122.733 255.392 121.661 255.392C119.773 255.392 118.989 253.76 118.989 251.872H124.781ZM118.989 251.104C119.005 250 119.725 248.272 121.421 248.288C122.877 248.304 123.629 249.392 123.821 251.104H118.989ZM130.066 247.68V248.448H131.314V254.704C131.314 255.712 131.762 256.16 133.122 256.16C133.442 256.16 133.778 256.064 134.098 256.016V255.216C133.794 255.312 133.442 255.392 133.122 255.392C132.53 255.392 132.274 255.104 132.274 254.544V248.448H134.098V247.68H132.274V244.96H131.314V247.68H130.066ZM136.567 256V251.296C136.567 249.696 137.943 248.448 138.999 248.448H139.431V247.52H138.999C137.943 247.52 137.047 248.24 136.599 249.264H136.567V247.68H135.607V256H136.567ZM146.472 256C146.376 255.44 146.344 254.896 146.344 254.48V250.128C146.344 248.288 145.448 247.52 143.56 247.52C142.216 247.52 141.192 248.064 140.472 249.408L141.112 249.792C141.72 248.832 142.536 248.288 143.528 248.288C144.952 248.288 145.432 248.848 145.432 249.952V250.528C141.96 251.296 140.104 251.712 140.104 253.984C140.104 255.36 141.096 256.16 142.392 256.16C143.672 256.16 144.424 255.776 145.416 254.992L145.544 256H146.472ZM145.384 254.016C144.552 254.864 143.448 255.392 142.552 255.392C141.688 255.392 141.064 254.88 141.064 253.968C141.064 252.912 141.576 252.128 145.384 251.296V254.016ZM149.96 256V249.872C151.016 248.912 151.592 248.288 152.616 248.288C153.896 248.288 154.312 249.04 154.312 250.416V256H155.272V250.32C155.272 248.512 154.536 247.52 152.808 247.52C151.592 247.52 150.856 248.064 149.96 248.992V247.68H149V256H149.96ZM156.978 254.48C157.762 255.648 158.914 256.16 160.194 256.16C161.698 256.16 163.074 255.296 163.074 253.808C163.074 250.576 158.178 251.776 158.178 249.744C158.178 248.736 158.898 248.288 159.826 248.288C160.818 248.288 161.426 248.768 161.986 249.536L162.722 249.024C162.13 248.064 161.25 247.52 159.858 247.52C158.45 247.52 157.218 248.224 157.218 249.792C157.218 252.752 162.114 251.392 162.114 253.808C162.114 254.704 161.314 255.392 160.258 255.392C159.17 255.392 158.466 255.104 157.682 253.984L156.978 254.48ZM165.96 256V249.872C166.472 249.072 167.688 248.288 168.424 248.288C169.352 248.288 169.864 248.752 169.864 249.68V256H170.824V249.872C171.336 249.072 172.552 248.288 173.288 248.288C174.216 248.288 174.728 248.752 174.728 249.68V256H175.688V249.776C175.688 248.32 174.952 247.52 173.496 247.52C172.296 247.52 171.496 248.16 170.744 249.04C170.504 248.112 169.656 247.52 168.728 247.52C167.432 247.52 166.808 248.048 165.96 248.944V247.68H165V256H165.96ZM179.272 247.68H178.312V256H179.272V247.68ZM179.272 245.856V244.448H178.312V245.856H179.272ZM180.963 254.48C181.747 255.648 182.899 256.16 184.179 256.16C185.683 256.16 187.059 255.296 187.059 253.808C187.059 250.576 182.163 251.776 182.163 249.744C182.163 248.736 182.883 248.288 183.811 248.288C184.803 248.288 185.411 248.768 185.971 249.536L186.707 249.024C186.115 248.064 185.235 247.52 183.843 247.52C182.435 247.52 181.203 248.224 181.203 249.792C181.203 252.752 186.099 251.392 186.099 253.808C186.099 254.704 185.299 255.392 184.243 255.392C183.155 255.392 182.451 255.104 181.667 253.984L180.963 254.48ZM188.072 254.48C188.856 255.648 190.008 256.16 191.288 256.16C192.792 256.16 194.168 255.296 194.168 253.808C194.168 250.576 189.272 251.776 189.272 249.744C189.272 248.736 189.992 248.288 190.92 248.288C191.912 248.288 192.52 248.768 193.08 249.536L193.816 249.024C193.224 248.064 192.344 247.52 190.952 247.52C189.544 247.52 188.312 248.224 188.312 249.792C188.312 252.752 193.208 251.392 193.208 253.808C193.208 254.704 192.408 255.392 191.352 255.392C190.264 255.392 189.56 255.104 188.776 253.984L188.072 254.48ZM197.037 247.68H196.077V256H197.037V247.68ZM197.037 245.856V244.448H196.077V245.856H197.037ZM202.328 248.288C204.04 248.288 204.792 249.584 204.792 251.84C204.792 254.096 204.04 255.392 202.328 255.392C200.616 255.392 199.864 254.096 199.864 251.84C199.864 249.584 200.616 248.288 202.328 248.288ZM202.328 247.52C199.736 247.52 198.904 249.584 198.904 251.84C198.904 254.096 199.736 256.16 202.328 256.16C204.92 256.16 205.752 254.096 205.752 251.84C205.752 249.584 204.92 247.52 202.328 247.52ZM208.6 256V249.872C209.656 248.912 210.232 248.288 211.256 248.288C212.536 248.288 212.952 249.04 212.952 250.416V256H213.912V250.32C213.912 248.512 213.176 247.52 211.448 247.52C210.232 247.52 209.496 248.064 208.6 248.992V247.68H207.64V256H208.6ZM218.131 256V254.56H216.755V256H218.131Z" fill="white"/>
</g>
<defs>
<clipPath id="clip0">
<rect width="360" height="640" fill="white"/>
</clipPath>
</defs>
</svg>
