<svg width="1080" height="1080" viewBox="0 0 1080 1080" fill="none" xmlns="http://www.w3.org/2000/svg">
<g clip-path="url(#clip0)">
<path d="M611.637 394.082H402.41V444.298H611.637V394.082Z" fill="#3E6CDA"/>
<g style="mix-blend-mode:multiply">
<g style="mix-blend-mode:multiply">
<path d="M559.331 362.697H456.809V444.298H559.331V362.697Z" fill="#D62B2B"/>
</g>
</g>
<g style="mix-blend-mode:multiply">
<g style="mix-blend-mode:multiply">
<path d="M507.023 229.546L494.47 229.546V229.546H507.023ZM1026.05 162.271C1029.76 156.414 1028.02 148.658 1022.16 144.948C1016.31 141.238 1008.55 142.979 1004.84 148.837L1026.05 162.271ZM519.577 444.298V229.546H494.47V444.298H519.577ZM519.577 229.546C519.577 219.623 520.956 209.865 524.544 202.16C527.927 194.899 533.202 189.476 542.048 186.929C551.488 184.21 566.488 184.345 589.754 192.118C612.899 199.852 643.13 214.78 682.306 240.091L695.931 219.001C655.778 193.06 623.582 176.949 597.711 168.304C571.959 159.701 551.352 158.121 535.1 162.801C518.255 167.652 507.756 178.741 501.784 191.557C496.022 203.93 494.47 217.813 494.47 229.546L519.577 229.546ZM682.306 240.091C765.135 293.605 840.36 292.286 900.497 267.887C959.877 243.795 1003.66 197.624 1026.05 162.271L1004.84 148.837C984.562 180.858 944.51 222.934 891.058 244.621C838.362 266.001 771.757 267.991 695.931 219.001L682.306 240.091Z" fill="#2D2D2D"/>
</g>
</g>
<path d="M63.6819 777.207L63.6799 777.308V777.408C63.6799 779.614 63.6313 782.016 63.5804 784.533C63.4598 790.494 63.326 797.106 63.7932 803.303L63.7947 803.324C66.3769 836.72 74.8749 869.436 98.3289 897.026C110.769 911.66 126.752 920.876 143.975 923.264C161.26 925.662 179.03 921.067 194.648 909.438L194.654 909.433C207.921 899.541 218.743 886.372 227.969 874.14L227.971 874.138C236.313 863.071 244.111 851.655 251.747 840.463L252.036 840.039C259.616 828.928 267.042 818.046 274.917 807.538C311.925 758.192 359.413 725.196 419.671 711.794C462.994 702.159 506.877 700.717 551.375 704.885H551.378C620.393 711.342 678.722 737.926 723.222 791.013C733.746 803.569 743.685 816.688 753.721 830.062C754.709 831.378 755.697 832.697 756.686 834.017C765.714 846.056 774.874 858.276 784.472 870.15L792.608 863.571L784.472 870.15C794.958 883.122 806.886 896.942 821.197 907.596C839.333 921.098 859.231 926.344 878.266 922.506C897.228 918.684 913.739 906.171 925.876 887.265C939.4 866.231 946.169 843.066 949.489 819.435C956.155 772.075 951.565 725.503 943.053 679.911L943.051 679.907C931.586 618.643 912.188 559.833 877.779 506.219V506.217C847.644 459.288 804.179 431.746 752.096 418.556H752.089C736.182 414.539 718.621 414.07 702.668 416.447L702.659 416.449C680.665 419.742 659.048 425.662 638.236 431.361C636.665 431.79 635.1 432.219 633.539 432.646C574.476 448.767 514.813 454.653 454.844 445.842L454.842 445.84C416.982 440.291 379.267 431.692 342.056 421.594C298.007 409.638 257.661 415.302 217.606 435.165L217.599 435.167C169.75 458.938 139.04 497.272 117.097 542.54L126.511 547.104L117.097 542.542C81.1392 616.726 65.2542 695.591 63.6819 777.207Z" fill="white" stroke="#2D2D2D" stroke-width="10"/>
<g style="mix-blend-mode:multiply">
<g style="mix-blend-mode:multiply">
<path d="M296.75 703.749C359.728 703.749 410.779 652.696 410.779 589.716C410.779 526.737 359.728 475.683 296.75 475.683C233.774 475.683 182.721 526.737 182.721 589.716C182.721 652.696 233.774 703.749 296.75 703.749Z" fill="#CB2E24"/>
</g>
</g>
<g style="mix-blend-mode:multiply">
<g style="mix-blend-mode:multiply">
<path d="M378.349 588.67C410.126 588.67 435.886 564.313 435.886 534.269C435.886 504.225 410.126 479.868 378.349 479.868C346.571 479.868 320.811 504.225 320.811 534.269C320.811 564.313 346.571 588.67 378.349 588.67Z" fill="#3E6CDA"/>
</g>
</g>
<path d="M730.897 502.884V676.549" stroke="#3E6CDA" stroke-width="20" stroke-linecap="round" stroke-linejoin="round"/>
<path d="M816.68 588.67H643.021" stroke="#3E6CDA" stroke-width="20" stroke-linecap="round" stroke-linejoin="round"/>
</g>
<defs>
<clipPath id="clip0">
<rect width="975" height="793" fill="white" transform="translate(53 143)"/>
</clipPath>
</defs>
</svg>
