<svg width="1080" height="1080" viewBox="0 0 1080 1080" fill="none" xmlns="http://www.w3.org/2000/svg">
<path d="M830.943 852.92H218.231C207.152 852.92 198.088 843.859 198.088 832.786V436.968C198.088 425.894 207.152 416.833 218.231 416.833H830.943C842.022 416.833 851.086 425.894 851.086 436.968V832.786C851.086 843.859 842.022 852.92 830.943 852.92Z" stroke="#2D2D2D" stroke-width="14" stroke-miterlimit="10"/>
<path d="M994.082 747.216L851.084 689.733V566.312L995.811 521.916C1009.79 517.621 1023.94 528.074 1023.94 542.705V727.048C1023.94 742.451 1008.38 752.954 994.082 747.216Z" fill="#3E6CDA" stroke="#2D2D2D" stroke-width="10" stroke-miterlimit="10"/>
<path d="M75.5359 610.456H177.946C189.024 610.456 198.088 601.395 198.088 590.322V487.957C198.088 476.883 189.024 467.823 177.946 467.823H75.5359C64.4574 467.823 55.3931 476.883 55.3931 487.957V590.322C55.3931 601.395 64.4574 610.456 75.5359 610.456Z" fill="#3E6CDA" stroke="#2D2D2D" stroke-width="10" stroke-miterlimit="10"/>
<path d="M475.532 301.676C494.784 279.471 493.018 246.421 471.588 227.857C450.156 209.293 417.177 212.245 397.925 234.45C378.674 256.656 380.44 289.706 401.87 308.269C423.3 326.833 456.279 323.881 475.532 301.676Z" fill="#3E6CDA"/>
<g style="mix-blend-mode:multiply">
<g style="mix-blend-mode:multiply">
<path d="M358.375 416.582C410.847 416.582 453.382 374.065 453.382 321.616C453.382 269.168 410.847 226.651 358.375 226.651C305.904 226.651 263.368 269.168 263.368 321.616C263.368 374.065 305.904 416.582 358.375 416.582Z" fill="#CB2E24"/>
</g>
</g>
<path d="M809.666 336.146C828.917 313.941 827.151 280.891 805.721 262.327C784.291 243.763 751.312 246.715 732.059 268.921C712.807 291.126 714.573 324.176 736.003 342.74C757.434 361.303 790.414 358.351 809.666 336.146Z" fill="#3E6CDA"/>
<g style="mix-blend-mode:multiply">
<g style="mix-blend-mode:multiply">
<path d="M687.258 416.733C739.728 416.733 782.265 374.215 782.265 321.767C782.265 269.319 739.728 226.802 687.258 226.802C634.787 226.802 592.25 269.319 592.25 321.767C592.25 374.215 634.787 416.733 687.258 416.733Z" fill="#CB2E24"/>
</g>
</g>
<path d="M646.686 564.718H830.943C842.022 564.718 851.086 555.658 851.086 544.584V496.766C851.086 485.692 842.022 476.632 830.943 476.632H646.686C635.608 476.632 626.543 485.692 626.543 496.766V544.584C626.543 555.658 635.608 564.718 646.686 564.718Z" fill="#3E6CDA" stroke="#2D2D2D" stroke-width="4" stroke-miterlimit="10"/>
</svg>
